<svg xmlns="http://www.w3.org/2000/svg" viewBox="0 0 1200 675" role="img" aria-labelledby="title desc">
  <title id="title">Thermal transfer supplies</title>
  <desc id="desc">Illustration of thermal transfer ribbons, printheads, and labelled cartons.</desc>
  <defs>
    <linearGradient id="bg" x1="0%" x2="100%" y1="0%" y2="100%">
      <stop offset="0%" stop-color="#eefafa"/>
      <stop offset="100%" stop-color="#d6e1e3"/>
    </linearGradient>
  </defs>
  <rect width="1200" height="675" fill="url(#bg)" rx="32"/>
  <g fill="none" stroke-linecap="round" stroke-linejoin="round">
    <path fill="#f8f9fa" stroke="#212529" stroke-width="12" d="M112 408h300l52 74v88H164l-52-74z"/>
    <path fill="#dde3e8" stroke="#212529" stroke-width="12" d="M412 408h220l52 74H464z"/>
    <path stroke="#9d191d" stroke-width="18" d="M166 452h166"/>
    <path stroke="#212529" stroke-width="14" d="M188 498h112"/>
    <circle cx="825" cy="338" r="168" fill="#212529" stroke="#212529" stroke-width="12"/>
    <circle cx="825" cy="338" r="86" fill="#eefafa" stroke="#2db7b8" stroke-width="24"/>
    <path fill="#9d191d" stroke="#212529" stroke-width="12" d="M596 234h244v90H596z"/>
    <path fill="#f8f9fa" stroke="#212529" stroke-width="12" d="M594 324h248v54H594z"/>
    <path stroke="#2db7b8" stroke-width="18" d="M626 351h164"/>
    <path fill="#212529" d="M596 414h460v48H596z"/>
    <path fill="#9d191d" d="M644 462h364v40H644z"/>
    <path stroke="#212529" stroke-width="16" d="M736 190h226"/>
    <path stroke="#9d191d" stroke-width="16" d="M806 536h164"/>
    <path stroke="#2db7b8" stroke-width="14" d="M690 536h62"/>
  </g>
</svg>
