<svg xmlns="http://www.w3.org/2000/svg" viewBox="0 0 64 64"><path fill="#000" fill-rule="evenodd" d="M53.913.348c5.379 0 9.74 4.36 9.74 9.739v43.826c0 5.379-4.361 9.74-9.74 9.74H10.087c-5.379 0-9.74-4.361-9.74-9.74V10.087c0-5.379 4.361-9.74 9.74-9.74zM26.086 44.869v11.826h11.826V44.87zm18.783 0v11.826h9.044a2.783 2.783 0 0 0 2.783-2.782v-9.044zm-37.565 0v9.044a2.783 2.783 0 0 0 2.783 2.783h9.043V44.868zm18.782-18.783v11.826h11.826V26.086zm18.783 0v11.826h11.826V26.086zm-37.565 0v11.826H19.13V26.086zM26.086 7.304V19.13h11.826V7.304zm18.783 0V19.13h11.826v-9.043a2.783 2.783 0 0 0-2.782-2.783zm-34.782 0a2.783 2.783 0 0 0-2.783 2.783v9.043H19.13V7.304z"/></svg>