<svg xmlns="http://www.w3.org/2000/svg" viewBox="0 0 680 665"><g fill="none" fill-rule="evenodd" class="box-inactive">
<path fill="#047296" d="M603.02 227.609 333.49 107.818 63.959 227.609v314.454l269.53 119.791 269.532-119.791z"/>
<path fill="#2488a9" d="m63.959 227.609 269.53-119.791 269.532 119.791L333.49 347.401z"/>
<path fill="#034c64" d="M333.49 347.401v314.453l269.53-119.791V227.609z"/><path stroke="#080708" stroke-linecap="round" stroke-linejoin="round" stroke-width="5" d="M604.02 227.888v314.175L334.49 661.854 64.959 542.063V227.958l269.53-120.14z"/>
<path fill="#2aa7ad" d="m142.793 387.713 54.048-13.57 54.984 58.548v71.982l-54.984 14.222-54.048-58.779z"/>
<path fill="#d4d8de" d="M196.859 332v41.986L142.8 387.505v72.133l54.059 58.559v36.386L112 463.74V354.065z"/>
<path fill="#333338" d="m196.859 332 86.083 92.943V534.32l-86.083 20.263v-36.386l54.996-14.169v-71.713l-54.996-58.329z"/>
<path fill="#222226" d="m282.942 424.943-31.087 7.372v71.713l31.087 30.292zM145.619 499.731l28.482-6.732 22.758 25.198v36.386z"/>
<path fill="#404247" d="m196.86 373.986 54.995 58.33v71.712l-54.996 14.17-54.06-58.56v-72.133zm.467 11.55-45.717 12.021v58.866l45.621 49.674 45.622-12.382v-59.031z"/><path fill="#9da4ab" d="M196.859 373.986 142.8 387.505v72.133l54.059 58.559v7.502l-59.498-64.7v-79.827l59.498-14.756z"/><path fill="#d4d8de" d="m196.859 366.416 60.555 64.594v78.505l-60.555 16.184v-7.502l54.996-14.169v-71.713l-54.996-58.329z"/><path stroke="#080708" stroke-linecap="round" stroke-linejoin="round" stroke-width="5" d="m64.959 227.609 268.53 119.792 269.532-119.792M334.49 347.401v314.453"/></g><g fill="none" fill-rule="evenodd" class="box-active"><path fill="url(#box-gradient)" d="m64.958 360.097 201.428 94.724 66.104-102.476 1 210.85z"/><path fill="#022632" d="m63.959 227.609 269.53-119.791 269.532 119.791L333.49 347.401z"/><path fill="#2488a9" fill-rule="nonzero" d="M324.6 306.023v24.828h-18.552v-8.276h-18.552v24.827h-18.551v-8.275h-18.552v8.275H231.84v-8.275H213.29v-8.276h55.656v-8.276h18.551v-8.276h18.552v-8.276zm278.276-16.552v57.931H473.014v-57.93zM454.462 132.23v8.276h37.103v-8.276h18.552v8.276h18.552v8.276h18.551v8.276H528.67v41.379h-18.552v16.552h18.552v16.551h-37.104v8.276h37.104v-8.276h37.103v8.276H547.22v8.276H528.67v8.276h-18.552v8.276h-18.552v8.276h-18.551v8.276h-18.552v33.103H435.91v8.276h18.552v24.827H435.91v-16.551h-37.103v16.551h-18.552v-8.275h-18.552v8.275H324.6v-16.551h18.551v-8.276h55.656v-8.276H343.15v-16.552H324.6v-8.277l18.551.001v8.276h18.552v-8.276h18.552v-8.275h55.655v-8.276h-92.759v8.276H324.6v8.275h-18.552v8.276h-18.552v-8.276h18.552V272.92H324.6v-8.276h37.103v-8.276h18.552v-8.276H343.15v8.276H324.6v-8.276h18.551v-8.276h74.207v-16.552h-18.551v8.276h-37.104v-8.276h37.104v-8.275h18.551v-16.552h37.104v-16.552H435.91v8.276h-37.103v8.276h-18.552v-8.276H343.15v8.276H324.6v8.276h-37.104v33.103h18.552v8.276h-18.552v8.276h-18.551v-49.655h-18.552v8.276H231.84v-8.276h18.552V190.16h37.103v-16.553l18.552.001v16.552h-18.552v8.276h18.552v-8.276h37.103v-8.276H324.6v-8.276h18.551v-8.276h18.552v-8.275h18.552v24.827h37.103v-8.276h18.552V132.23zM194.738 289.471v57.931H64.876v-57.93zm-18.552 8.276H83.427v41.38h92.759zm185.517 33.104h-18.552v8.276h18.552zm222.62-33.104h-92.758v41.38h92.759zm-18.55 8.276v24.828h-55.656v-24.828zm-408.139 0v24.828H101.98v-24.828zm92.759 0v8.276h-37.104v-8.276zm148.414-16.552h-18.552v16.552h18.552v8.276h18.551v-8.276h18.552v-16.552h-18.552v8.276h-18.551zm-111.31 8.276v8.276h-18.552v-8.276zm-37.104-66.207v24.828h18.552v8.276h-18.552v8.276h18.552v24.827h-18.552v-16.551h-37.104v-16.552h-55.655v-8.276h74.207v-8.276H213.29v-8.276h18.552v-8.276zm-18.552 57.931v8.276H213.29v-8.276zm129.862-8.275v8.275h-18.552v-8.275zm-166.965-8.276v8.276h-55.655v-8.276zm333.93 0v8.276h-18.551v-8.276zm-389.585-33.104v8.276H120.53v8.276h-18.552v16.552h18.552v-16.552h18.552v16.552H120.53v8.276h-18.552v-8.276H83.427v-8.276H64.876v-8.276h37.103v-16.552zm445.24 33.104v8.276h-18.55v-8.276zm-278.275-16.552v16.552h-37.103v-8.276h18.551v-8.276zm241.172 0v16.552H528.67v-16.552zm-148.413 0h-18.552v8.276h18.552zm204.069-8.276v16.552h-18.552v-16.552zm-166.966-8.276h-18.552v24.828h55.656v-8.276H435.91zm55.655 8.276h-18.551v8.276h18.551zm-333.93 0v8.276h-18.552v-8.276zm426.689-8.276v8.276h-18.552v-8.276zM454.462 214.99H435.91v16.551h18.552v16.552h18.552V231.54h18.551v-8.276h-37.103zm-259.724 24.827v8.276h-18.552v-8.276zm-18.552-24.827v8.275h18.552v-8.276h18.551v8.276h18.552v8.276H213.29v8.276h-18.551v-8.276h-37.104v8.276h-18.551v-8.276h18.551V214.99zm426.69 16.551v8.276h-18.552v-8.276zm-500.897-24.827v16.551h18.552v-8.275h18.552v16.551h-37.104v8.276H83.427v-8.276H64.876v-24.827zm241.172 0v16.551H324.6v8.276h-18.552V214.99H324.6v-8.276zm241.173-57.931v16.551h18.552v24.828h-18.552v8.276h18.552v24.827h-18.552v-16.551h-18.552v8.276H528.67v-16.552h18.551v-33.104h18.552v-16.551zm-204.07 57.93v8.277h-18.55v-8.276zm-185.516 0v8.277h-18.552v-8.276zm-37.104 0v8.277h-18.551v-8.276zm315.38-8.275h-18.552v8.276h18.552zm92.758 0H547.22v8.276h18.552zm-333.93-33.104v8.276h18.55v-8.276h37.104v8.276h-18.551v8.276h-18.552v8.276H231.84v8.276H213.29v8.276h-18.551v-8.276H120.53v8.276h-18.552v-8.276h18.552v-8.276h-18.552v-8.276H83.427v16.552H64.876v-16.552h18.551v-8.276h37.104v8.276h18.552v8.276h18.551v-8.276h18.552v-8.276h37.103v-8.276zm259.723 24.828h-18.551v8.276h18.551zm-296.827-8.276h-18.552v8.276h18.552zm37.103-8.276H213.29v16.552h18.552zm129.862 0h-18.552v8.276h18.552zm222.62 0h-18.55v8.276h18.55zm-74.206-24.827h-55.655v24.827h55.655zM324.6 157.058v8.275h-18.552v-8.275zm166.965 0v8.275h-18.551v-8.275zm-296.827-49.656v57.931H64.876v-57.93zm-18.552 8.276H83.427v41.38h92.759zm166.965-8.276v8.276h-55.655v8.276h-18.551v8.276h37.103v8.276h-18.552v8.276h18.552v8.276h-37.103v-8.276H231.84v8.276H213.29v-16.552h18.552v-8.276H213.29v-8.276h18.552v-16.552zm18.552 41.38v8.276h-18.552v-8.277zm37.104-8.276v16.552h-18.552v-16.552zm-241.173-16.552v24.828H101.98v-24.828zm185.517 16.552v8.276h-37.103v-8.276zm259.725 0v8.276h-18.552v-8.276zm-185.518-16.552v16.552h-18.551v-16.552zm-55.655 8.276v8.276h-18.552v-8.276zm222.62 0v8.276h-18.55v-8.276zm0-24.828v8.276h18.553v8.276h-37.104v8.276H547.22v-8.276H528.67v-8.276h18.551v-8.276zM324.6 123.954v8.276h-18.552v-8.276zm148.414 0v8.276h-18.552v-8.276zm-204.07-8.276h-18.551v8.276h18.552zm148.414-8.276v8.276h-37.103v8.276H343.15v-8.276h18.552v-8.276zm111.31 0v8.276h-18.551v8.276h-37.103v-8.276h-18.552v8.276h-37.104v-8.276h37.104v-8.276z"/>
<path stroke="#080708" stroke-linecap="round" stroke-linejoin="round" stroke-width="5" d="m64.959 227.609 268.53 119.792 269.532-119.792"/><path fill="#2488a9" d="m64.959 227.609 267.53 119.792-66.53 104.818L3.063 332.078zM332.49 107.818 407.36 3l254.557 119.792-59.897 104.817z"/><path fill="#034c64" d="M3.063 122.792 272.593 3l59.897 104.818L63.959 227.609zM334.49 347.401l267.53-119.792 74.87 89.844-269.53 134.766z"/><g stroke="#080708" stroke-linecap="round" stroke-linejoin="round" stroke-width="5"><path d="m332.49 347.401 269.53-119.792 74.87 89.844-269.53 134.766zM62.959 227.609l269.53 119.792-66.53 104.818L3.063 332.427zM332.49 107.818l269.53 119.791 59.897-104.817L407.36 3zM332.49 107.818 272.594 3 3.063 122.792l59.896 104.817z"/></g></g></svg>