<?xml version="1.0" encoding="UTF-8"?>
<svg width="680px" height="665px" viewBox="0 0 680 665" version="1.1" xmlns="http://www.w3.org/2000/svg" xmlns:xlink="http://www.w3.org/1999/xlink">
    <title>img-box-ice-active</title>
    <defs>
        <linearGradient x1="96.24467%" y1="1.66533454e-14%" x2="96.24467%" y2="97.7417476%" id="linearGradient-1">
            <stop stop-color="#141414" offset="0%"></stop>
            <stop stop-color="#141414" stop-opacity="0" offset="100%"></stop>
        </linearGradient>
    </defs>
    <g id="img-box-ice-active" stroke="none" fill="none" fill-rule="evenodd">
        <polygon id="Path" fill="url(#linearGradient-1)" points="64.9583333 360.097091 266.386344 454.821046 332.489583 352.344737 333.489583 563.194805"></polygon>
        <g id="Group" stroke-width="1" transform="translate(3.0625, 3)">
            <polygon id="Path" fill="#3E528F" points="60.8958333 224.609375 330.427083 104.817708 599.958333 224.609375 330.427083 344.401042"></polygon>
            <path d="M321.537264,303.023095 L321.537264,327.850682 L302.98554,327.850682 L302.98554,319.57482 L284.433816,319.57482 L284.433816,344.402406 L265.882092,344.402406 L265.882092,336.126544 L247.330368,336.126544 L247.330368,344.402406 L228.778644,344.402406 L228.778644,336.126544 L210.226919,336.126544 L210.226919,327.850682 L265.882092,327.850682 L265.882092,319.57482 L284.433816,319.57482 L284.433816,311.298958 L302.98554,311.298958 L302.98554,303.023095 L321.537264,303.023095 Z M599.813126,286.471371 L599.813126,344.402406 L469.951057,344.402406 L469.951057,286.471371 L599.813126,286.471371 Z M451.399333,129.229992 L451.399333,137.505854 L488.502782,137.505854 L488.502782,129.229992 L507.054506,129.229992 L507.054506,137.505854 L525.60623,137.505854 L525.60623,145.781716 L544.157954,145.781716 L544.157954,154.057578 L525.60623,154.057578 L525.60623,195.436889 L507.054506,195.436889 L507.054506,211.988613 L525.60623,211.988613 L525.60623,228.540337 L488.502782,228.540337 L488.502782,236.816199 L525.60623,236.816199 L525.60623,228.540337 L562.709678,228.540337 L562.709678,236.816199 L544.157954,236.816199 L544.157954,245.092061 L525.60623,245.092061 L525.60623,253.367923 L507.054506,253.367923 L507.054506,261.643785 L488.502782,261.643785 L488.502782,269.919647 L469.951057,269.919647 L469.951057,278.195509 L451.399333,278.195509 L451.399333,311.298958 L432.847609,311.298958 L432.847609,319.57482 L451.399333,319.57482 L451.399333,344.402406 L432.847609,344.402406 L432.847609,327.850682 L395.744161,327.850682 L395.744161,344.402406 L377.192437,344.402406 L377.192437,336.126544 L358.640713,336.126544 L358.640713,344.402406 L321.537264,344.402406 L321.537264,327.850682 L340.088988,327.850682 L340.088988,319.57482 L395.744161,319.57482 L395.744161,311.298958 L340.088988,311.298958 L340.088988,294.747233 L321.537264,294.747233 L321.537126,286.470406 L340.088988,286.471371 L340.088988,294.747233 L358.640713,294.747233 L358.640713,286.471371 L377.192437,286.471371 L377.192437,278.195509 L432.847609,278.195509 L432.847609,269.919647 L340.088988,269.919647 L340.088988,278.195509 L321.537264,278.195509 L321.537264,286.471371 L302.98554,286.471371 L302.98554,294.747233 L284.433816,294.747233 L284.433816,286.471371 L302.98554,286.471371 L302.98554,269.919647 L321.537264,269.919647 L321.537264,261.643785 L358.640713,261.643785 L358.640713,253.367923 L377.192437,253.367923 L377.192437,245.092061 L340.088988,245.092061 L340.088988,253.367923 L321.537264,253.367923 L321.537264,245.092061 L340.088988,245.092061 L340.088988,236.816199 L414.295885,236.816199 L414.295885,220.264475 L395.744161,220.264475 L395.744161,228.540337 L358.640713,228.540337 L358.640713,220.264475 L395.744161,220.264475 L395.744161,211.988613 L414.295885,211.988613 L414.295885,195.436889 L451.399333,195.436889 L451.399333,178.885164 L432.847609,178.885164 L432.847609,187.161026 L395.744161,187.161026 L395.744161,195.436889 L377.192437,195.436889 L377.192437,187.161026 L340.088988,187.161026 L340.088988,195.436889 L321.537264,195.436889 L321.537264,203.712751 L284.433816,203.712751 L284.433816,236.816199 L302.98554,236.816199 L302.98554,245.092061 L284.433816,245.092061 L284.433816,253.367923 L265.882092,253.367923 L265.882092,203.712751 L247.330368,203.712751 L247.330368,211.988613 L228.778644,211.988613 L228.778644,203.712751 L247.330368,203.712751 L247.330368,187.161026 L284.433816,187.161026 L284.433126,170.608406 L302.98554,170.609302 L302.98554,187.161026 L284.433816,187.161026 L284.433816,195.436889 L302.98554,195.436889 L302.98554,187.161026 L340.088988,187.161026 L340.088988,178.885164 L321.537264,178.885164 L321.537264,170.609302 L340.088988,170.609302 L340.088988,162.33344 L358.640713,162.33344 L358.640713,154.057578 L377.192437,154.057578 L377.192437,178.885164 L414.295885,178.885164 L414.295885,170.609302 L432.847609,170.609302 L432.847609,129.229992 L451.399333,129.229992 Z M191.675195,286.471371 L191.675195,344.402406 L61.8131263,344.402406 L61.8131263,286.471371 L191.675195,286.471371 Z M173.123471,294.747233 L80.3648505,294.747233 L80.3648505,336.126544 L173.123471,336.126544 L173.123471,294.747233 Z M358.640713,327.850682 L340.088988,327.850682 L340.088988,336.126544 L358.640713,336.126544 L358.640713,327.850682 Z M581.261402,294.747233 L488.502782,294.747233 L488.502782,336.126544 L581.261402,336.126544 L581.261402,294.747233 Z M562.709678,303.023095 L562.709678,327.850682 L507.054506,327.850682 L507.054506,303.023095 L562.709678,303.023095 Z M154.571747,303.023095 L154.571747,327.850682 L98.9165746,327.850682 L98.9165746,303.023095 L154.571747,303.023095 Z M247.330368,303.023095 L247.330368,311.298958 L210.226919,311.298958 L210.226919,303.023095 L247.330368,303.023095 Z M395.744161,286.471371 L377.192437,286.471371 L377.192437,303.023095 L395.744161,303.023095 L395.744161,311.298958 L414.295885,311.298958 L414.295885,303.023095 L432.847609,303.023095 L432.847609,286.471371 L414.295885,286.471371 L414.295885,294.747233 L395.744161,294.747233 L395.744161,286.471371 Z M284.433816,294.747233 L284.433816,303.023095 L265.882092,303.023095 L265.882092,294.747233 L284.433816,294.747233 Z M247.330368,228.540337 L247.330368,253.367923 L265.882092,253.367923 L265.882092,261.643785 L247.330368,261.643785 L247.330368,269.919647 L265.882092,269.919647 L265.882092,294.747233 L247.330368,294.747233 L247.330368,278.195509 L210.226919,278.195509 L210.226919,261.643785 L154.571747,261.643785 L154.571747,253.367923 L228.778644,253.367923 L228.778644,245.092061 L210.226919,245.092061 L210.226919,236.816199 L228.778644,236.816199 L228.778644,228.540337 L247.330368,228.540337 Z M228.778644,286.471371 L228.778644,294.747233 L210.226919,294.747233 L210.226919,286.471371 L228.778644,286.471371 Z M358.640713,278.195509 L358.640713,286.471371 L340.088988,286.471371 L340.088988,278.195509 L358.640713,278.195509 Z M191.675195,269.919647 L191.675195,278.195509 L136.020023,278.195509 L136.020023,269.919647 L191.675195,269.919647 Z M525.60623,269.919647 L525.60623,278.195509 L507.054506,278.195509 L507.054506,269.919647 L525.60623,269.919647 Z M136.020023,236.816199 L136.020023,245.092061 L117.468299,245.092061 L117.468299,253.367923 L98.9165746,253.367923 L98.9165746,269.919647 L117.468299,269.919647 L117.468299,253.367923 L136.020023,253.367923 L136.020023,269.919647 L117.468299,269.919647 L117.468299,278.195509 L98.9165746,278.195509 L98.9165746,269.919647 L80.3648505,269.919647 L80.3648505,261.643785 L61.8131263,261.643785 L61.8131263,253.367923 L98.9165746,253.367923 L98.9165746,236.816199 L136.020023,236.816199 Z M581.261402,269.919647 L581.261402,278.195509 L562.709678,278.195509 L562.709678,269.919647 L581.261402,269.919647 Z M302.98554,253.367923 L302.98554,269.919647 L265.882092,269.919647 L265.882092,261.643785 L284.433816,261.643785 L284.433816,253.367923 L302.98554,253.367923 Z M544.157954,253.367923 L544.157954,269.919647 L525.60623,269.919647 L525.60623,253.367923 L544.157954,253.367923 Z M395.744161,253.367923 L377.192437,253.367923 L377.192437,261.643785 L395.744161,261.643785 L395.744161,253.367923 Z M599.813126,245.092061 L599.813126,261.643785 L581.261402,261.643785 L581.261402,245.092061 L599.813126,245.092061 Z M432.847609,236.816199 L414.295885,236.816199 L414.295885,261.643785 L469.951057,261.643785 L469.951057,253.367923 L432.847609,253.367923 L432.847609,236.816199 Z M488.502782,245.092061 L469.951057,245.092061 L469.951057,253.367923 L488.502782,253.367923 L488.502782,245.092061 Z M154.571747,245.092061 L154.571747,253.367923 L136.020023,253.367923 L136.020023,245.092061 L154.571747,245.092061 Z M581.261402,236.816199 L581.261402,245.092061 L562.709678,245.092061 L562.709678,236.816199 L581.261402,236.816199 Z M451.399333,211.988613 L432.847609,211.988613 L432.847609,228.540337 L451.399333,228.540337 L451.399333,245.092061 L469.951057,245.092061 L469.951057,228.540337 L488.502782,228.540337 L488.502782,220.264475 L451.399333,220.264475 L451.399333,211.988613 Z M191.675195,236.816199 L191.675195,245.092061 L173.123471,245.092061 L173.123471,236.816199 L191.675195,236.816199 Z M173.123471,211.988613 L173.123471,220.264475 L191.675195,220.264475 L191.675126,211.988406 L210.226919,211.988613 L210.226919,220.264475 L228.778644,220.264475 L228.778644,228.540337 L210.226919,228.540337 L210.226919,236.816199 L191.675195,236.816199 L191.675195,228.540337 L154.571747,228.540337 L154.571747,236.816199 L136.020023,236.816199 L136.020023,228.540337 L154.571747,228.540337 L154.571747,211.988613 L173.123471,211.988613 Z M599.813126,228.540337 L599.813126,236.816199 L581.261402,236.816199 L581.261402,228.540337 L599.813126,228.540337 Z M98.9165746,203.712751 L98.9165746,220.264475 L117.468299,220.264475 L117.468299,211.988613 L136.020023,211.988613 L136.020023,228.540337 L98.9165746,228.540337 L98.9165746,236.816199 L80.3648505,236.816199 L80.3648505,228.540337 L61.8131263,228.540337 L61.8131263,203.712751 L98.9165746,203.712751 Z M340.088988,203.712751 L340.088988,220.264475 L321.537264,220.264475 L321.537264,228.540337 L302.98554,228.540337 L302.98554,211.988613 L321.537264,211.988613 L321.537264,203.712751 L340.088988,203.712751 Z M581.261402,145.781716 L581.261402,162.33344 L599.813126,162.33344 L599.813126,187.161026 L581.261402,187.161026 L581.261402,195.436889 L599.813126,195.436889 L599.813126,220.264475 L581.261402,220.264475 L581.261402,203.712751 L562.709678,203.712751 L562.709678,211.988613 L525.60623,211.988613 L525.60623,195.436889 L544.157954,195.436889 L544.157954,162.33344 L562.709678,162.33344 L562.709678,145.781716 L581.261402,145.781716 Z M377.192437,203.712751 L377.192437,211.988613 L358.640713,211.988613 L358.640713,203.712751 L377.192437,203.712751 Z M191.675195,203.712751 L191.675195,211.988613 L173.123471,211.988613 L173.123471,203.712751 L191.675195,203.712751 Z M154.571747,203.712751 L154.571747,211.988613 L136.020023,211.988613 L136.020023,203.712751 L154.571747,203.712751 Z M469.951057,195.436889 L451.399333,195.436889 L451.399333,203.712751 L469.951057,203.712751 L469.951057,195.436889 Z M562.709678,195.436889 L544.157954,195.436889 L544.157954,203.712751 L562.709678,203.712751 L562.709678,195.436889 Z M228.778644,162.33344 L228.778644,170.609302 L247.330368,170.609302 L247.330368,162.33344 L284.433816,162.33344 L284.433816,170.609302 L265.882092,170.609302 L265.882092,178.885164 L247.330368,178.885164 L247.330368,187.161026 L228.778644,187.161026 L228.778644,195.436889 L210.226919,195.436889 L210.226919,203.712751 L191.675195,203.712751 L191.675195,195.436889 L117.468299,195.436889 L117.468299,203.712751 L98.9165746,203.712751 L98.9165746,195.436889 L117.468299,195.436889 L117.468299,187.161026 L98.9165746,187.161026 L98.9165746,178.885164 L80.3648505,178.885164 L80.3648505,195.436889 L61.8131263,195.436889 L61.8131263,178.885164 L80.3648505,178.885164 L80.3648505,170.609302 L117.468299,170.609302 L117.468299,178.885164 L136.020023,178.885164 L136.020023,187.161026 L154.571747,187.161026 L154.571747,178.885164 L173.123471,178.885164 L173.123471,170.609302 L210.226919,170.609302 L210.226919,162.33344 L228.778644,162.33344 Z M488.502782,187.161026 L469.951057,187.161026 L469.951057,195.436889 L488.502782,195.436889 L488.502782,187.161026 Z M191.675195,178.885164 L173.123471,178.885164 L173.123471,187.161026 L191.675195,187.161026 L191.675195,178.885164 Z M228.778644,170.609302 L210.226919,170.609302 L210.226919,187.161026 L228.778644,187.161026 L228.778644,170.609302 Z M358.640713,170.609302 L340.088988,170.609302 L340.088988,178.885164 L358.640713,178.885164 L358.640713,170.609302 Z M581.261402,170.609302 L562.709678,170.609302 L562.709678,178.885164 L581.261402,178.885164 L581.261402,170.609302 Z M507.054506,145.781716 L451.399333,145.781716 L451.399333,170.609302 L507.054506,170.609302 L507.054506,145.781716 Z M321.537264,154.057578 L321.537264,162.33344 L302.98554,162.33344 L302.98554,154.057578 L321.537264,154.057578 Z M488.502782,154.057578 L488.502782,162.33344 L469.951057,162.33344 L469.951057,154.057578 L488.502782,154.057578 Z M191.675195,104.402406 L191.675195,162.33344 L61.8131263,162.33344 L61.8131263,104.402406 L191.675195,104.402406 Z M173.123471,112.678268 L80.3648505,112.678268 L80.3648505,154.057578 L173.123471,154.057578 L173.123471,112.678268 Z M340.088988,104.402406 L340.088988,112.678268 L284.433816,112.678268 L284.433816,120.95413 L265.882092,120.95413 L265.882092,129.229992 L302.98554,129.229992 L302.98554,137.505854 L284.433816,137.505854 L284.433816,145.781716 L302.98554,145.781716 L302.98554,154.057578 L265.882092,154.057578 L265.882092,145.781716 L228.778644,145.781716 L228.778644,154.057578 L210.226919,154.057578 L210.226919,137.505854 L228.778644,137.505854 L228.778644,129.229992 L210.226919,129.229992 L210.226919,120.95413 L228.778644,120.95413 L228.778644,104.402406 L340.088988,104.402406 Z M358.640713,145.781716 L358.640713,154.057578 L340.088988,154.057578 L340.088126,145.781406 L358.640713,145.781716 Z M395.744161,137.505854 L395.744161,154.057578 L377.192437,154.057578 L377.192437,137.505854 L395.744161,137.505854 Z M154.571747,120.95413 L154.571747,145.781716 L98.9165746,145.781716 L98.9165746,120.95413 L154.571747,120.95413 Z M340.088988,137.505854 L340.088988,145.781716 L302.98554,145.781716 L302.98554,137.505854 L340.088988,137.505854 Z M599.813126,137.505854 L599.813126,145.781716 L581.261402,145.781716 L581.261402,137.505854 L599.813126,137.505854 Z M414.295885,120.95413 L414.295885,137.505854 L395.744161,137.505854 L395.744161,120.95413 L414.295885,120.95413 Z M358.640713,129.229992 L358.640713,137.505854 L340.088988,137.505854 L340.088988,129.229992 L358.640713,129.229992 Z M581.261402,129.229992 L581.261402,137.505854 L562.709678,137.505854 L562.709678,129.229992 L581.261402,129.229992 Z M581.261402,104.402406 L581.261402,112.678268 L599.813126,112.678268 L599.813126,120.95413 L562.709678,120.95413 L562.709678,129.229992 L544.157954,129.229992 L544.157954,120.95413 L525.60623,120.95413 L525.60623,112.678268 L544.157954,112.678268 L544.157954,104.402406 L581.261402,104.402406 Z M321.537264,120.95413 L321.537264,129.229992 L302.98554,129.229992 L302.98554,120.95413 L321.537264,120.95413 Z M469.951057,120.95413 L469.951057,129.229992 L451.399333,129.229992 L451.399333,120.95413 L469.951057,120.95413 Z M265.882092,112.678268 L247.330368,112.678268 L247.330368,120.95413 L265.882092,120.95413 L265.882092,112.678268 Z M414.295885,104.402406 L414.295885,112.678268 L377.192437,112.678268 L377.192437,120.95413 L340.088988,120.95413 L340.088988,112.678268 L358.640713,112.678268 L358.640713,104.402406 L414.295885,104.402406 Z M525.60623,104.402406 L525.60623,112.678268 L507.054506,112.678268 L507.054506,120.95413 L469.951057,120.95413 L469.951057,112.678268 L451.399333,112.678268 L451.399333,120.95413 L414.295885,120.95413 L414.295885,112.678268 L451.399333,112.678268 L451.399333,104.402406 L525.60623,104.402406 Z" id="Combined-Shape" fill="#1A264D" fill-rule="nonzero"></path>
            <polyline id="Path-2" stroke="#080708" stroke-width="5" stroke-linecap="round" stroke-linejoin="round" points="61.8958333 224.609375 330.427083 344.401042 599.958333 224.609375"></polyline>
            <polygon id="Path" fill="#3E528F" points="61.8958333 224.609375 329.427083 344.401042 262.89633 449.21875 4.54747351e-13 329.078125"></polygon>
            <polygon id="Path" fill="#3E528F" points="329.427183 104.817708 404.296875 0 658.854167 119.791667 598.958333 224.609375"></polygon>
            <polygon id="Path" fill="#1A264D" points="4.54747351e-13 119.791667 269.53125 0 329.427183 104.817708 60.8958333 224.609375"></polygon>
            <polygon id="Path" fill="#1A264D" points="331.427183 344.401042 598.958333 224.609375 673.828125 314.453125 404.296875 449.21875"></polygon>
            <g transform="translate(0, 0)" id="Path" stroke="#080708" stroke-linecap="round" stroke-linejoin="round" stroke-width="5">
                <polygon points="329.427083 344.401042 598.958333 224.609375 673.828125 314.453125 404.296875 449.21875"></polygon>
                <polygon points="59.8958333 224.609375 329.427183 344.401042 262.89633 449.21875 0 329.427083"></polygon>
                <polygon points="329.427083 104.817708 598.958333 224.609375 658.854167 119.791667 404.296875 1.2468325e-14"></polygon>
                <polygon points="329.427183 104.817708 269.53125 0 0 119.791667 59.8958333 224.609375"></polygon>
            </g>
        </g>
    </g>
</svg>