<svg xmlns="http://www.w3.org/2000/svg" viewBox="0 0 1440 1605"><g fill="#2db7b8" stroke="#000" stroke-width="2"><path d="M435 105h15v15h-15zM435 90h15v15h-15zM435 60h15v15h-15zM435 75h15v15h-15zM435 30h15v15h-15zM435 15h15v15h-15zM435 0h15v15h-15zM465 135h15v15h-15zM525 120h15v15h-15zM510 120h15v15h-15zM495 120h15v15h-15zM480 135h15v15h-15zM480 120h15v15h-15zM465 120h15v15h-15zM450 120.3h15v15.2h-15zM540 105h15v15h-15zM525 105h15v15h-15zM510 105h15v15h-15z"/><path d="M495 105.1h15v15.2h-15zM540 90h15v15h-15zM510 90h15v15h-15zM495 90h15v15h-15zM480 90h15v15h-15zM465 90h15v15h-15zM450 90h15v15h-15zM570 75h15v15h-15zM540 75h15v15h-15zM525 75h15v15h-15zM510 75h15v15h-15zM480 75h15v15h-15zM585 59.5h15v15.2h-15zM570 60h15v15h-15zM555 60h15v15h-15zM540 60h15v15h-15zM525 60h15v15h-15zM510 60h15v15h-15zM465 60h15v15h-15zM465 75h15v15h-15zM450 60h15v15h-15z"/><path d="M585 45h15v15h-15zM570 45h15v15h-15zM555 45h15v15h-15zM525 45h15v15h-15zM480 45h15v15h-15zM465 45h15v15h-15zM450 45h15v15h-15zM585 30h15v15h-15zM570 30h15v15h-15zM510 30h15v15h-15zM510 45h15v15h-15zM480 30h15v15h-15zM465 30h15v15h-15zM450 30h15v15h-15zM555 15h15v15h-15zM540 15h15v15h-15zM525 15h15v15h-15zM480 15h15v15h-15zM465 15h15v15h-15zM585 0h15v15h-15zM570 0h15v15h-15zM555 0h15v15h-15zM525 0h15v15h-15zM510 0h15v15h-15zM495 0h15v15h-15zM465 0h15v15h-15zM630 15h-15V0h15zM645 15h-15V0h15zM660 15h-15V0h15zM735 15h-15V0h15zM615 30h-15V15h15zM630 30h-15V15h15zM645 30h-15V15h15zM660 30h-15V15h15zM675 30h-15V15h15zM690 30h-15V15h15zM705 30h-15V15h15zM720 15h-15V0h15zM720 30h-15V15h15zM735 30h-15V15h15zM750 30h-15V15h15zM630 45h-15V30h15zM645 45h-15V30h15zM660 45h-15V30h15zM675 45h-15V30h15zM690 45h-15V30h15zM705 45h-15V30h15zM645 60h-15V45h15zM630 60h-15V45h15zM645 135h-15v-15h15zM615 150h-15v-15h15zM630 150h-15v-15h15zM645 150h-15v-15h15zM675 150h-15v-15h15zM690 150h-15v-15h15zM870 75h15v15h-15zM885 60h15v15h-15zM870 60h15v15h-15zM855 60h15v15h-15zM840 60h15v15h-15zM885 45h15v15h-15zM870 45h15v15h-15zM855 45h15v15h-15zM825 45h15v15h-15zM885 30h15v15h-15zM870 30h15v15h-15zM810 30h15v15h-15zM810 45h15v15h-15zM780 30h15v15h-15zM765 30h15v15h-15zM750 30h15v15h-15zM855 15h15v15h-15zM840 15h15v15h-15zM825 15h15v15h-15zM780 15h15v15h-15zM765 15h15v15h-15zM885 0h15v15h-15zM870 0h15v15h-15zM855 0h15v15h-15zM825 0h15v15h-15zM810 0h15v15h-15zM795 0h15v15h-15zM765 0h15v15h-15zM1020 15h15V0h-15zM1005 15h15V0h-15zM990 15h15V0h-15zM915 15h15V0h-15zM1035 30h15V15h-15zM1020 30h15V15h-15zM1005 30h15V15h-15zM990 30h15V15h-15zM975 30h15V15h-15zM960 30h15V15h-15zM945 30h15V15h-15zM930 15h15V0h-15zM930 30h15V15h-15zM915 30h15V15h-15zM900 30h15V15h-15zM1020 45h15V30h-15zM1005 45h15V30h-15zM990 45h15V30h-15zM975 45h15V30h-15zM960 45h15V30h-15zM945 45h15V30h-15zM1005 60h15V45h-15zM990 60h15V45h-15zM960 60h15V45h-15zM945 60h15V45h-15zM930 60h15V45h-15zM915 60h15V45h-15zM900 60h15V45h-15zM1020 75h15V60h-15zM990 75h15V60h-15zM975 75h15V60h-15zM960 75h15V60h-15zM930 75h15V60h-15zM1035 90h15V75h-15zM1020 60h15V45h-15zM1020 90h15V75h-15zM1005 90h15V75h-15zM990 90h15V75h-15zM975 90h15V75h-15zM960 90h15V75h-15zM915 90h15V75h-15zM915 75h15V60h-15zM900 90h15V75h-15zM1035 105h15V90h-15zM1020 105h15V90h-15zM1005 105h15V90h-15zM975 105h15V90h-15zM930 105h15V90h-15zM915 105h15V90h-15zM900 105h15V90h-15zM1035 120h15v-15h-15zM1020 120h15v-15h-15zM960 120h15v-15h-15zM960 105h15V90h-15zM930 120h15v-15h-15zM915 120h15v-15h-15zM900 120h15v-15h-15zM1005 135h15v-15h-15zM990 135h15v-15h-15zM975 135h15v-15h-15zM930 135h15v-15h-15zM915 135h15v-15h-15zM1035 150h15v-15h-15zM1020 150h15v-15h-15zM1005 150h15v-15h-15zM975 150h15v-15h-15zM960 150h15v-15h-15zM945 150h15v-15h-15zM1320 135h15v15h-15zM1305 135h15v15h-15zM1290 135h15v15h-15zM1215 135h15v15h-15zM1335 120h15v15h-15zM1320 120h15v15h-15zM1305 120h15v15h-15zM1290 120h15v15h-15zM1275 120h15v15h-15zM1260 120h15v15h-15zM1230 135h15v15h-15zM1230 120h15v15h-15zM1215 120h15v15h-15zM1200 120h15v15h-15zM1320 105h15v15h-15zM1305 105h15v15h-15zM1290 105h15v15h-15zM1275 105h15v15h-15zM1260 105h15v15h-15zM1245 105h15v15h-15zM1305 90h15v15h-15zM1290 90h15v15h-15zM1260 90h15v15h-15zM1245 90h15v15h-15zM1230 90h15v15h-15zM1215 90h15v15h-15zM1200 90h15v15h-15zM1320 75h15v15h-15zM1290 75h15v15h-15zM1275 75h15v15h-15zM1260 75h15v15h-15zM1230 75h15v15h-15zM1320 90h15v15h-15zM1320 60h15v15h-15zM1305 60h15v15h-15zM1290 60h15v15h-15zM1275 60h15v15h-15zM1260 60h15v15h-15zM1215 60h15v15h-15zM1215 75h15v15h-15zM1200 60h15v15h-15zM1320 45h15v15h-15zM1305 45h15v15h-15zM1275 45h15v15h-15zM1230 45h15v15h-15zM1215 45h15v15h-15zM1200 45h15v15h-15zM1320 30h15v15h-15zM1260 30h15v15h-15zM1260 45h15v15h-15zM1230 30h15v15h-15zM1215 30h15v15h-15zM1200 30h15v15h-15zM1305 15h15v15h-15zM1290 15h15v15h-15zM1275 15h15v15h-15zM1230 15h15v15h-15zM1215 15h15v15h-15zM1335 0h15v15h-15zM1320 0h15v15h-15zM1320 15h15v15h-15zM1305 0h15v15h-15zM1275 0h15v15h-15zM1260 0h15v15h-15zM1245 0h15v15h-15zM1215 0h15v15h-15zM1365 135h15v15h-15zM1425 120h15v15h-15zM1410 120h15v15h-15zM1395 120h15v15h-15zM1380 135h15v15h-15zM1380 120h15v15h-15zM1365 120h15v15h-15zM1350 120h15v15h-15zM1425 105h15v15h-15zM1410 105h15v15h-15zM1395 105h15v15h-15zM1380 105h15v15h-15zM1365 105h15v15h-15zM1350 105h15v15h-15zM1365 90h15v15h-15zM1350 90h15v15h-15zM1425 75h15v15h-15zM1425 90h15v15h-15zM1380 75h15v15h-15zM1425 60h15v15h-15zM1335 105h15v15h-15zM1425 45h15v15h-15zM1350 45h15v15h-15zM1380 30h15v15h-15zM1365 30h15v15h-15zM1350 30h15v15h-15zM1425 15h15v15h-15zM1395 60h15v15h-15zM1395 30h15v15h-15zM1395 15h15v15h-15zM1410 45h15v15h-15zM1410 90h15v15h-15zM1335 45h15v15h-15zM1335 15h15v15h-15zM1395 45h15v15h-15zM1425 30h15v15h-15zM1425 0h15v15h-15zM1410 0h15v15h-15zM1395 0h15v15h-15zM1380 0h15v15h-15zM1365 0h15v15h-15zM1350 0h15v15h-15zM1170 135h15v15h-15zM1155 135h15v15h-15zM1140 135h15v15h-15zM1125 135h15v15h-15zM1110 135h15v15h-15zM1065 135h15v15h-15zM1050 135h15v15h-15zM1170 120h15v15h-15zM1140 120h15v15h-15zM1125 120h15v15h-15zM1110 120h15v15h-15zM1095 120h15v15h-15zM1080 120h15v15h-15zM1065 120h15v15h-15zM1065 105h15v15h-15zM1050 120h15v15h-15zM1185 105h15v15h-15zM1185 90h15v15h-15zM1170 105h15v15h-15zM1155 105h15v15h-15zM1140 105h15v15h-15zM1125 105h15v15h-15zM1110 105h15v15h-15zM1095 105h15v15h-15zM1080 105h15v15h-15zM1155 90h15v15h-15zM1140 90h15v15h-15zM1125 90h15v15h-15zM1110 90h15v15h-15zM1095 90h15v15h-15zM1080 90h15v15h-15zM1065 90h15v15h-15zM1050 90h15v15h-15zM1170 75h15v15h-15zM1155 75h15v15h-15zM1140 75h15v15h-15zM1095 75h15v15h-15zM1080 75h15v15h-15zM1185 60h15v15h-15zM1185 75h15v15h-15zM1170 90h15v15h-15zM1170 60h15v15h-15zM1155 60h15v15h-15zM1140 60h15v15h-15zM1125 60h15v15h-15zM1065 75h15v15h-15zM1050 60h15v15h-15zM1050 75h15v15h-15zM1170 45h15v15h-15zM1155 45h15v15h-15zM1140 45h15v15h-15zM1125 45h15v15h-15zM1095 45h15v15h-15zM1080 45h15v15h-15zM1065 45h15v15h-15zM1050 45h15v15h-15zM1185 30h15v15h-15zM1170 30h15v15h-15zM1155 30h15v15h-15zM1125 30h15v15h-15zM1110 30h15v15h-15zM1110 45h15v15h-15zM1095 30h15v15h-15zM1080 30h15v15h-15zM1065 30h15v15h-15zM1050 30h15v15h-15zM1185 15h15v15h-15zM1170 15h15v15h-15zM1125 15h15v15h-15zM1110 15h15v15h-15zM1095 15h15v15h-15zM1080 15h15v15h-15zM1185 0h15v15h-15zM1170 0h15v15h-15zM1155 0h15v15h-15zM1140 0h15v15h-15zM1125 0h15v15h-15zM1110 0h15v15h-15zM1095 0h15v15h-15zM1080 0h15v15h-15zM435 270h15v15h-15zM435 255h15v15h-15zM435 240h15v15h-15zM435 210h15v15h-15zM435 285h15v15h-15zM435 195h15v15h-15zM435 180h15v15h-15zM435 165h15v15h-15zM435 150h15v15h-15zM1320 285h15v15h-15zM1305 285h15v15h-15zM1260 285h15v15h-15zM1245 285h15v15h-15zM1215 285h15v15h-15zM1200 285h15v15h-15zM1335 270h15v15h-15zM1305 270h15v15h-15zM1230 285h15v15h-15zM1215 270h15v15h-15zM1215 255h15v15h-15zM1200 270h15v15h-15zM1335 255h15v15h-15zM1335 240h15v15h-15zM1305 255h15v15h-15zM1290 255h15v15h-15zM1260 255h15v15h-15zM1245 255h15v15h-15zM1200 255h15v15h-15zM1305 240h15v15h-15zM1290 240h15v15h-15zM1260 240h15v15h-15zM1245 240h15v15h-15zM1230 240h15v15h-15zM1215 240h15v15h-15zM1200 240h15v15h-15zM1320 225h15v15h-15zM1305 225h15v15h-15zM1290 225h15v15h-15zM1275 225h15v15h-15zM1260 225h15v15h-15zM1245 225h15v15h-15zM1335 210h15v15h-15zM1335 285h15v15h-15zM1320 210h15v15h-15zM1305 210h15v15h-15zM1290 210h15v15h-15zM1275 210h15v15h-15zM1260 210h15v15h-15zM1245 210h15v15h-15zM1230 210h15v15h-15zM1215 210h15v15h-15zM1200 210h15v15h-15zM1335 195h15v15h-15zM1290 195h15v15h-15zM1275 195h15v15h-15zM1245 195h15v15h-15zM1230 195h15v15h-15zM1215 195h15v15h-15zM1200 195h15v15h-15zM1335 180h15v15h-15zM1290 180h15v15h-15zM1275 180h15v15h-15zM1260 180h15v15h-15zM1230 180h15v15h-15zM1215 180h15v15h-15zM1200 180h15v15h-15zM1335 165h15v15h-15zM1290 165h15v15h-15zM1275 165h15v15h-15zM1260 165h15v15h-15zM1245 165h15v15h-15zM1230 165h15v15h-15zM1215 165h15v15h-15zM1200 165h15v15h-15zM1335 150h15v15h-15zM1320 150h15v15h-15zM1275 150h15v15h-15zM1260 150h15v15h-15zM1245 150h15v15h-15zM1230 150h15v15h-15zM1215 150h15v15h-15zM1320 435h15v15h-15zM1290 435h15v15h-15zM1275 435h15v15h-15zM1260 435h15v15h-15zM1215 435h15v15h-15zM1200 435h15v15h-15zM1320 420h15v15h-15zM1305 420h15v15h-15zM1290 420h15v15h-15zM1275 420h15v15h-15zM1260 420h15v15h-15zM1245 420h15v15h-15zM1230 435h15v15h-15zM1305 450h15v15h-15zM1290 450h15v15h-15zM1290 465h15v15h-15zM1275 450h15v15h-15zM1260 450h15v15h-15zM1245 450h15v15h-15zM1245 465h15v15h-15zM1260 480h15v15h-15zM1215 450h15v15h-15zM1230 450h15v15h-15zM1185 435h15v15h-15zM1155 435h15v15h-15zM1185 420h15v15h-15zM1185 405h15v15h-15zM1170 420h15v15h-15zM1155 420h15v15h-15zM1125 435h15v15h-15zM1140 435h15v15h-15zM1140 450h15v15h-15zM1095 435h15v15h-15zM1080 435h15v15h-15zM1035 435h15v15h-15zM1065 435h15v15h-15zM1230 420h15v15h-15zM1215 405h15v15h-15zM1335 405h15v15h-15zM1335 390h15v15h-15zM1320 405h15v15h-15zM1305 405h15v15h-15zM1290 405h15v15h-15zM1275 405h15v15h-15zM1260 405h15v15h-15zM1245 405h15v15h-15zM1200 405h15v15h-15zM1305 390h15v15h-15zM1290 390h15v15h-15zM1260 390h15v15h-15zM1245 390h15v15h-15zM1230 390h15v15h-15zM1215 390h15v15h-15zM1200 390h15v15h-15zM1320 375h15v15h-15zM1305 375h15v15h-15zM1290 375h15v15h-15zM1275 375h15v15h-15zM1245 375h15v15h-15zM1335 360h15v15h-15zM1335 435h15v15h-15zM1320 360h15v15h-15zM1305 360h15v15h-15zM1290 360h15v15h-15zM1275 360h15v15h-15zM1260 360h15v15h-15zM1245 360h15v15h-15zM1230 360h15v15h-15zM1215 360h15v15h-15zM1335 345h15v15h-15zM1320 345h15v15h-15zM1305 345h15v15h-15zM1290 345h15v15h-15zM1275 345h15v15h-15zM1245 345h15v15h-15zM1230 345h15v15h-15zM1215 345h15v15h-15zM1200 345h15v15h-15zM1335 330h15v15h-15zM1320 330h15v15h-15zM1305 330h15v15h-15zM1290 330h15v15h-15zM1275 330h15v15h-15zM1260 330h15v15h-15zM1215 330h15v15h-15zM1200 330h15v15h-15zM1335 315h15v15h-15zM1320 315h15v15h-15zM1305 315h15v15h-15zM1290 315h15v15h-15zM1275 315h15v15h-15zM1260 315h15v15h-15zM1245 315h15v15h-15zM1215 315h15v15h-15zM1200 315h15v15h-15zM1335 300h15v15h-15zM1320 300h15v15h-15zM1290 300h15v15h-15zM1275 300h15v15h-15zM1260 300h15v15h-15zM1245 300h15v15h-15zM1230 300h15v15h-15zM1215 300h15v15h-15zM1395 165h15v-15h-15zM1365 165h15v-15h-15zM1350 165h15v-15h-15zM1425 180h15v-15h-15zM1410 180h15v-15h-15zM1380 165h15v-15h-15zM1380 180h15v-15h-15zM1365 180h15v-15h-15zM1365 195h15v-15h-15zM1350 180h15v-15h-15zM1425 195h15v-15h-15zM1410 195h15v-15h-15zM1395 195h15v-15h-15zM1350 195h15v-15h-15zM1425 210h15v-15h-15zM1410 210h15v-15h-15zM1395 210h15v-15h-15zM1380 210h15v-15h-15zM1365 210h15v-15h-15zM1350 210h15v-15h-15zM1425 225h15v-15h-15zM1410 225h15v-15h-15zM1395 225h15v-15h-15zM1425 240h15v-15h-15zM1410 240h15v-15h-15zM1395 240h15v-15h-15zM1380 240h15v-15h-15zM1365 240h15v-15h-15zM1350 240h15v-15h-15zM1425 255h15v-15h-15zM1365 255h15v-15h-15zM1350 255h15v-15h-15zM1425 270h15v-15h-15zM1410 270h15v-15h-15zM1380 270h15v-15h-15zM1365 270h15v-15h-15zM1350 270h15v-15h-15zM1425 285h15v-15h-15zM1410 285h15v-15h-15zM1395 285h15v-15h-15zM1380 285h15v-15h-15zM1365 285h15v-15h-15zM1350 285h15v-15h-15zM1425 300h15v-15h-15zM1410 300h15v-15h-15zM1395 300h15v-15h-15zM1380 300h15v-15h-15zM1365 300h15v-15h-15zM435 300h15v15h-15zM1170 285h15v15h-15zM1185 315h15v15h-15zM1185 270h15v15h-15zM1155 285h15v15h-15zM1140 300h15v15h-15zM1140 315h15v15h-15zM1155 330h15v15h-15zM1170 345h15v15h-15zM1095 300h15v15h-15zM1080 315h15v15h-15zM1080 390h15v15h-15zM1095 375h15v15h-15zM1065 300h15v15h-15zM1125 315h15v15h-15zM1170 270h15v15h-15zM1125 270h15v15h-15zM1095 270h15v15h-15zM1080 285h15v15h-15zM1080 270h15v15h-15zM1065 255h15v15h-15zM1050 270h15v15h-15zM1185 255h15v15h-15zM1140 255h15v15h-15zM1125 255h15v15h-15zM1095 255h15v15h-15zM1140 240h15v15h-15zM1125 240h15v15h-15zM1110 240h15v15h-15zM1095 240h15v15h-15zM1080 240h15v15h-15zM1080 225h15v15h-15zM1065 225h15v15h-15zM1065 240h15v15h-15zM1050 240h15v15h-15zM1170 225h15v15h-15zM1140 225h15v15h-15zM1185 225h15v15h-15zM1170 240h15v15h-15zM1155 210h15v15h-15zM1140 210h15v15h-15zM1110 210h15v15h-15zM1095 210h15v15h-15zM1080 210h15v15h-15zM1050 210h15v15h-15zM1050 225h15v15h-15zM1185 195h15v15h-15zM1140 195h15v15h-15zM1050 195h15v15h-15zM1155 180h15v15h-15zM1140 180h15v15h-15zM1110 180h15v15h-15zM1110 195h15v15h-15zM1095 180h15v15h-15zM1080 180h15v15h-15zM1050 180h15v15h-15zM1185 165h15v15h-15zM1155 165h15v15h-15zM1050 165h15v15h-15zM1170 150h15v15h-15zM1110 150h15v15h-15zM1095 150h15v15h-15zM1080 150h15v15h-15zM1125 165h15v15h-15zM1110 165h15v15h-15zM1095 165h15v15h-15zM1065 150h15v15h-15zM1425 330h15v-15h-15zM1395 330h15v-15h-15zM1380 315h15v-15h-15zM1380 330h15v-15h-15zM1365 345h15v-15h-15zM1350 330h15v-15h-15zM1425 345h15v-15h-15zM1395 345h15v-15h-15zM1425 360h15v-15h-15zM1410 360h15v-15h-15zM1395 360h15v-15h-15zM1380 360h15v-15h-15zM1410 375h15v-15h-15zM1395 375h15v-15h-15zM1380 375h15v-15h-15zM1365 375h15v-15h-15zM1365 360h15v-15h-15zM1350 360h15v-15h-15zM1410 390h15v-15h-15zM1395 390h15v-15h-15zM1380 390h15v-15h-15zM1350 390h15v-15h-15zM1350 375h15v-15h-15zM1380 405h15v-15h-15zM1350 405h15v-15h-15zM1410 420h15v-15h-15zM1410 405h15v-15h-15zM1425 375h15v-15h-15zM1425 405h15v-15h-15zM1425 390h15v-15h-15zM1395 420h15v-15h-15zM1380 420h15v-15h-15zM1425 435h15v-15h-15zM1410 435h15v-15h-15zM1395 435h15v-15h-15zM1350 420h15v-15h-15zM1350 435h15v-15h-15zM1365 420h15v-15h-15zM1365 435h15v-15h-15zM1410 450h15v-15h-15zM1395 450h15v-15h-15zM1380 450h15v-15h-15zM1380 465h15v-15h-15zM1365 450h15v-15h-15zM210.333 1570h14.833v15h-14.833zM285 1555h15v15h-15zM300 1540h15v15h-15zM285 1525h15v15h-15zM300 1510h15v15h-15zM315 1495h15v15h-15zM270 1540h15v15h-15zM225 1540h15v15h-15zM210 1525h15v15h-15zM180 1525h15v15h-15zM270 1510h15v15h-15zM255 1510h15v15h-15zM240 1525h15v15h-15zM210 1495h15v15h-15zM225 1480h15v15h-15zM240 1465h15v15h-15zM195 1495h15v15h-15zM195 1510h15v15h-15zM165 1540h15v15h-15zM165 1510h15v15h-15zM345 1495h15v-15h-15zM330 1525h15v-15h-15zM315 1540h15v-15h-15zM360 1585h15v-15h-15zM570 1020h15v15h-15zM555 1020h15v15h-15zM540 1020h15v15h-15zM585 1005h15v15h-15zM585 990h15v15h-15zM570 1005h15v15h-15zM555 1005h15v15h-15zM540 1005h15v15h-15zM525 1005h15v15h-15zM510 1005h15v15h-15zM555 990h15v15h-15zM540 990h15v15h-15zM525 990h15v15h-15zM510 990h15v15h-15zM495 990h15v15h-15zM480 990h15v15h-15zM570 975h15v15h-15zM555 975h15v15h-15zM540 975h15v15h-15zM525 975h15v15h-15zM510 975h15v15h-15zM495 975h15v15h-15zM585 960h15v15h-15zM570 960h15v15h-15zM555 960h15v15h-15zM540 960h15v15h-15zM525 960h15v15h-15zM510 960h15v15h-15zM495 960h15v15h-15zM480 960h15v15h-15zM585 945h15v15h-15zM570 945h15v15h-15zM555 945h15v15h-15zM540 945h15v15h-15zM525 945h15v15h-15zM495 945h15v15h-15zM480 945h15v15h-15zM465 945h15v15h-15zM585 930h15v15h-15zM570 930h15v15h-15zM555 930h15v15h-15zM540 930h15v15h-15zM525 930h15v15h-15zM510 930h15v15h-15zM480 930h15v15h-15zM585 915h15v15h-15zM570 915h15v15h-15zM555 915h15v15h-15zM540 915h15v15h-15zM525 915h15v15h-15zM510 915h15v15h-15zM495 915h15v15h-15zM480 915h15v15h-15zM585 900h15v15h-15zM570 900h15v15h-15zM540 900h15v15h-15zM525 900h15v15h-15zM720 1035h15v15h-15zM705 1035h15v15h-15zM690 1035h15v15h-15zM675 1035h15v15h-15zM660 1035h15v15h-15zM645 1035h15v15h-15zM615 1035h15v15h-15zM600 1035h15v15h-15zM735 1020h15v15h-15zM720 1020h15v15h-15zM705 1020h15v15h-15zM690 1020h15v15h-15zM675 1020h15v15h-15zM660 1020h15v15h-15zM645 1020h15v15h-15zM630 1035h15v15h-15zM630 1020h15v15h-15zM615 1020h15v15h-15zM615 1005h15v15h-15zM600 1020h15v15h-15zM735 1005h15v15h-15zM735 990h15v15h-15zM720 1005h15v15h-15zM705 1005h15v15h-15zM690 1005h15v15h-15zM675 1005h15v15h-15zM660 1005h15v15h-15zM645 1005h15v15h-15zM630 1005h15v15h-15zM630 975h15v15h-15zM615 975h15v15h-15zM600 975h15v15h-15zM585 975h15v15h-15zM570 990h15v15h-15zM705 990h15v15h-15zM690 990h15v15h-15zM675 990h15v15h-15zM660 990h15v15h-15zM645 990h15v15h-15zM630 990h15v15h-15zM615 990h15v15h-15zM600 990h15v15h-15zM720 975h15v15h-15zM705 975h15v15h-15zM690 975h15v15h-15zM675 975h15v15h-15zM660 975h15v15h-15zM645 975h15v15h-15zM735 960h15v15h-15zM735 1035h15v15h-15zM720 960h15v15h-15zM705 960h15v15h-15zM690 960h15v15h-15zM675 960h15v15h-15zM660 960h15v15h-15zM645 960h15v15h-15zM630 960h15v15h-15zM615 960h15v15h-15zM600 960h15v15h-15zM735 945h15v15h-15zM720 945h15v15h-15zM705 945h15v15h-15zM690 945h15v15h-15zM675 945h15v15h-15zM645 945h15v15h-15zM630 945h15v15h-15zM615 945h15v15h-15zM600 945h15v15h-15zM735 930h15v15h-15zM720 930h15v15h-15zM705 930h15v15h-15zM690 930h15v15h-15zM675 930h15v15h-15zM660 930h15v15h-15zM645 930h15v15h-15zM660 945h15v15h-15zM705 900h15v15h-15zM750 900h15v15h-15zM795 930h15v15h-15zM810 945h15v15h-15zM855 930h15v15h-15zM855 900h15v15h-15zM630 930h15v15h-15zM615 930h15v15h-15zM600 930h15v15h-15zM735 915h15v15h-15zM720 915h15v15h-15zM705 915h15v15h-15zM690 915h15v15h-15zM675 915h15v15h-15zM660 915h15v15h-15zM645 915h15v15h-15zM630 915h15v15h-15zM615 915h15v15h-15zM600 915h15v15h-15zM735 900h15v15h-15zM720 900h15v15h-15zM690 900h15v15h-15zM675 900h15v15h-15zM660 900h15v15h-15zM645 900h15v15h-15zM630 900h15v15h-15zM615 900h15v15h-15zM720 885h15v15h-15zM705 885h15v15h-15zM690 885h15v15h-15zM675 885h15v15h-15zM660 885h15v15h-15zM645 885h15v15h-15zM615 885h15v15h-15zM600 885h15v15h-15zM735 870h15v15h-15zM720 870h15v15h-15zM705 870h15v15h-15zM690 870h15v15h-15zM675 870h15v15h-15zM660 870h15v15h-15zM645 870h15v15h-15zM630 885h15v15h-15zM630 870h15v15h-15zM615 870h15v15h-15zM615 855h15v15h-15zM600 870h15v15h-15zM735 855h15v15h-15zM735 840h15v15h-15zM720 855h15v15h-15zM705 855h15v15h-15zM690 855h15v15h-15zM675 855h15v15h-15zM660 855h15v15h-15zM645 855h15v15h-15zM600 855h15v15h-15zM705 840h15v15h-15zM690 840h15v15h-15zM675 840h15v15h-15zM660 840h15v15h-15zM645 840h15v15h-15zM630 840h15v15h-15zM615 840h15v15h-15zM600 840h15v15h-15zM720 825h15v15h-15zM705 825h15v15h-15zM690 825h15v15h-15zM675 825h15v15h-15zM660 825h15v15h-15zM645 825h15v15h-15zM735 810h15v15h-15zM735 885h15v15h-15zM720 810h15v15h-15zM705 810h15v15h-15zM690 810h15v15h-15zM675 810h15v15h-15zM660 810h15v15h-15zM645 810h15v15h-15zM630 810h15v15h-15zM615 810h15v15h-15zM600 810h15v15h-15zM735 795h15v15h-15zM720 795h15v15h-15zM705 795h15v15h-15zM690 795h15v15h-15zM675 795h15v15h-15zM660 795h15v15h-15zM645 780h15v15h-15zM585 810h15v15h-15zM570 810h15v15h-15zM555 825h15v15h-15zM555 840h15v15h-15zM555 855h15v15h-15zM570 855h15v15h-15zM585 840h15v15h-15zM600 825h15v15h-15zM615 825h15v15h-15zM630 825h15v15h-15zM630 855h15v15h-15zM600 900h15v15h-15zM585 885h15v15h-15zM585 870h15v15h-15zM540 870h15v15h-15zM555 870h15v15h-15zM525 885h15v15h-15zM540 885h15v15h-15zM555 900h15v15h-15zM510 945h15v15h-15zM495 930h15v15h-15zM645 795h15v15h-15zM630 795h15v15h-15zM615 795h15v15h-15zM600 795h15v15h-15zM735 780h15v15h-15zM720 780h15v15h-15zM705 780h15v15h-15zM690 780h15v15h-15zM675 780h15v15h-15zM660 780h15v15h-15zM630 780h15v15h-15zM615 780h15v15h-15zM600 780h15v15h-15zM735 765h15v15h-15zM720 765h15v15h-15zM705 765h15v15h-15zM705 750h15v15h-15zM690 765h15v15h-15zM675 765h15v15h-15zM660 765h15v15h-15zM645 765h15v15h-15zM630 765h15v15h-15zM615 765h15v15h-15zM735 750h15v15h-15zM720 750h15v15h-15zM690 750h15v15h-15zM675 750h15v15h-15zM660 750h15v15h-15zM765 1035h15v15h-15zM750 1035h15v15h-15zM720 1050h15v15h-15zM705 1050h15v15h-15zM735 1050h15v15h-15zM750 1050h15v15h-15zM810 1020h15v15h-15zM795 1020h15v15h-15zM780 1035h15v15h-15zM780 1020h15v15h-15zM765 1020h15v15h-15zM765 1005h15v15h-15zM750 1020h15v15h-15zM885 990h15v15h-15zM825 1005h15v15h-15zM810 1005h15v15h-15zM795 1005h15v15h-15zM750 1005h15v15h-15zM855 990h15v15h-15zM840 990h15v15h-15zM825 990h15v15h-15zM810 990h15v15h-15zM795 990h15v15h-15zM780 990h15v15h-15zM765 990h15v15h-15zM750 990h15v15h-15zM870 975h15v15h-15zM855 975h15v15h-15zM840 975h15v15h-15zM825 975h15v15h-15zM810 975h15v15h-15zM795 975h15v15h-15zM780 975h15v15h-15zM765 975h15v15h-15zM750 975h15v15h-15zM735 975h15v15h-15zM720 990h15v15h-15zM780 1005h15v15h-15zM855 960h15v15h-15zM840 960h15v15h-15zM825 960h15v15h-15zM810 960h15v15h-15zM795 960h15v15h-15zM780 960h15v15h-15zM765 960h15v15h-15zM750 960h15v15h-15zM855 945h15v15h-15zM870 945h15v15h-15zM870 930h15v15h-15zM870 915h15v15h-15zM885 930h15v15h-15zM840 945h15v15h-15zM825 945h15v15h-15zM795 945h15v15h-15zM780 945h15v15h-15zM765 945h15v15h-15zM750 945h15v15h-15zM840 930h15v15h-15zM825 930h15v15h-15zM810 930h15v15h-15zM780 930h15v15h-15zM765 930h15v15h-15zM750 930h15v15h-15zM855 915h15v15h-15zM840 915h15v15h-15zM825 915h15v15h-15zM810 915h15v15h-15zM795 915h15v15h-15zM780 915h15v15h-15zM765 915h15v15h-15zM750 915h15v15h-15zM840 900h15v15h-15zM825 900h15v15h-15zM810 900h15v15h-15zM795 900h15v15h-15zM780 900h15v15h-15zM765 900h15v15h-15zM855 885h15v15h-15zM840 885h15v15h-15zM825 885h15v15h-15zM810 885h15v15h-15zM795 885h15v15h-15zM765 885h15v15h-15zM750 885h15v15h-15zM855 870h15v15h-15zM840 870h15v15h-15zM825 870h15v15h-15zM810 870h15v15h-15zM795 870h15v15h-15zM780 885h15v15h-15zM780 870h15v15h-15zM765 870h15v15h-15zM765 855h15v15h-15zM750 870h15v15h-15zM870 855h15v15h-15zM855 855h15v15h-15zM840 855h15v15h-15zM825 855h15v15h-15zM810 855h15v15h-15zM795 855h15v15h-15zM750 855h15v15h-15zM855 840h15v15h-15zM840 840h15v15h-15zM825 840h15v15h-15zM810 840h15v15h-15zM795 840h15v15h-15zM780 840h15v15h-15zM765 840h15v15h-15zM750 840h15v15h-15zM855 825h15v15h-15zM840 825h15v15h-15zM825 825h15v15h-15zM810 825h15v15h-15zM795 825h15v15h-15zM855 810h15v15h-15zM840 810h15v15h-15zM825 810h15v15h-15zM810 810h15v15h-15zM795 810h15v15h-15zM780 810h15v15h-15zM765 810h15v15h-15zM750 810h15v15h-15zM870 795h15v15h-15zM870 810h15v15h-15zM855 795h15v15h-15zM840 795h15v15h-15zM825 795h15v15h-15zM795 795h15v15h-15zM780 795h15v15h-15zM765 795h15v15h-15zM750 795h15v15h-15zM870 780h15v15h-15zM855 780h15v15h-15zM840 780h15v15h-15zM825 780h15v15h-15zM810 780h15v15h-15zM795 780h15v15h-15zM810 795h15v15h-15zM780 825h15v15h-15zM765 825h15v15h-15zM750 825h15v15h-15zM735 825h15v15h-15zM720 840h15v15h-15zM780 855h15v15h-15zM780 780h15v15h-15zM765 780h15v15h-15zM750 780h15v15h-15zM855 765h15v15h-15zM840 765h15v15h-15zM825 765h15v15h-15zM810 765h15v15h-15zM795 765h15v15h-15zM780 765h15v15h-15zM765 765h15v15h-15zM750 765h15v15h-15zM840 750h15v15h-15zM825 750h15v15h-15zM810 750h15v15h-15zM810 735h15v15h-15zM780 735h15v15h-15zM825 720h15v15h-15zM795 750h15v15h-15zM780 750h15v15h-15zM765 750h15v15h-15zM180 1020h15v15h-15zM150 1020h15v15h-15zM135 1005h15v15h-15zM120 1005h15v15h-15zM105 1020h15v15h-15zM90 1035h15v15H90zM90 1050h15v15H90zM105 1065h15v15h-15zM135 1065h15v15h-15zM165 1080h15v15h-15zM195 1080h15v15h-15zM210 1080h15v15h-15zM195 1005h15v15h-15zM180 1005h15v15h-15zM240 990h15v15h-15zM210 975h15v15h-15zM180 975h15v15h-15zM270 960h15v15h-15zM240 960h15v15h-15zM225 960h15v15h-15zM165 960h15v15h-15zM165 930h15v15h-15zM150 930h15v15h-15zM210 915h15v15h-15zM285 900h15v15h-15zM195 900h15v15h-15zM165 900h15v15h-15zM150 885h15v15h-15zM135 885h15v15h-15zM120 870h15v15h-15zM165 870h15v15h-15zM210 825h15v15h-15zM405 720h15v15h-15zM360 720h15v15h-15zM405 705h15v15h-15zM345 705h15v15h-15zM315 705h15v15h-15zM285 705h15v15h-15zM420 690h15v15h-15zM330 690h15v15h-15zM315 690h15v15h-15zM375 675h15v15h-15zM345 660h15v15h-15zM315 660h15v15h-15zM405 645h15v15h-15zM375 645h15v15h-15zM360 645h15v15h-15zM300 645h15v15h-15zM570 885h15v15h-15zM555 885h15v15h-15zM570 870h15v15h-15zM525 870h15v15h-15zM585 855h15v15h-15zM540 855h15v15h-15zM525 855h15v15h-15zM540 840h15v15h-15zM570 825h15v15h-15zM540 825h15v15h-15zM585 825h15v15h-15zM570 840h15v15h-15zM555 810h15v15h-15zM495 810h15v15h-15zM450 810h15v15h-15zM450 825h15v15h-15zM585 795h15v15h-15zM480 795h15v15h-15zM450 795h15v15h-15zM510 795h15v15h-15zM480 780h15v15h-15zM450 765h15v15h-15zM930 1020h15v15h-15zM900 1020h15v15h-15zM945 1005h15v15h-15zM930 1005h15v15h-15zM990 990h15v15h-15zM960 975h15v15h-15zM930 975h15v15h-15zM1020 960h15v15h-15zM1035 945h15v15h-15zM1005 945h15v15h-15zM1005 930h15v15h-15zM990 915h15v15h-15zM1050 930h15v15h-15zM1065 930h15v15h-15zM990 960h15v15h-15zM975 960h15v15h-15zM960 960h15v15h-15zM945 960h15v15h-15zM915 960h15v15h-15zM1035 900h15v15h-15zM1320 885h15v15h-15zM1275 885h15v15h-15zM1320 870h15v15h-15zM1260 870h15v15h-15zM1230 870h15v15h-15zM1200 870h15v15h-15zM1335 855h15v15h-15zM1245 855h15v15h-15zM1230 855h15v15h-15zM1290 840h15v15h-15zM1260 825h15v15h-15zM1230 825h15v15h-15zM1320 810h15v15h-15zM1290 810h15v15h-15zM1275 810h15v15h-15zM1215 810h15v15h-15zM1200 810h15v15h-15zM1185 810h15v15h-15zM1170 795h15v15h-15zM1185 825h15v15h-15zM1260 840h15v15h-15zM1230 795h15v15h-15zM1245 795h15v15h-15zM1215 780h15v15h-15zM1200 780h15v15h-15zM1260 765h15v15h-15zM1260 795h15v15h-15zM1275 780h15v15h-15zM1290 780h15v15h-15zM1275 750h15v15h-15zM1275 735h15v15h-15zM1290 720h15v15h-15zM1305 720h15v15h-15zM1320 705h15v15h-15zM1335 705h15v15h-15zM1335 750h15v15h-15zM1245 750h15v15h-15zM1215 750h15v15h-15zM1335 900h15v15h-15zM1350 885h15v15h-15zM1380 900h15v15h-15zM1410 975h15v15h-15zM1380 975h15v15h-15zM1425 960h15v15h-15zM1365 960h15v15h-15zM1365 930h15v15h-15zM1350 930h15v15h-15zM1410 915h15v15h-15zM1395 900h15v15h-15zM1365 900h15v15h-15zM1365 840h15v15h-15zM1005 285h15v15h-15zM990 285h15v15h-15zM990 300h15v15h-15zM990 345h15v15h-15zM1005 360h15v15h-15zM1020 270h15v15h-15zM1035 255h15v15h-15zM1035 240h15v15h-15zM1020 255h15v15h-15zM1005 255h15v15h-15zM990 255h15v15h-15zM1005 240h15v15h-15zM990 240h15v15h-15zM975 240h15v15h-15zM1020 225h15v15h-15zM1005 225h15v15h-15zM990 225h15v15h-15zM1035 210h15v15h-15zM1035 225h15v15h-15zM1020 240h15v15h-15zM1020 210h15v15h-15zM1005 210h15v15h-15zM990 210h15v15h-15zM975 210h15v15h-15zM1020 195h15v15h-15zM1005 195h15v15h-15zM990 195h15v15h-15zM975 195h15v15h-15zM1035 180h15v15h-15zM1020 180h15v15h-15zM1005 180h15v15h-15zM975 180h15v15h-15zM960 180h15v15h-15zM1035 165h15v15h-15zM1020 165h15v15h-15zM975 165h15v15h-15zM960 165h15v15h-15zM1035 150h15v15h-15zM1020 150h15v15h-15zM1005 150h15v15h-15zM990 150h15v15h-15zM975 150h15v15h-15zM960 150h15v15h-15zM945 150h15v15h-15zM570 285h15v15h-15zM555 285h15v15h-15zM540 285h15v15h-15zM525 285h15v15h-15zM570 270h15v15h-15zM555 270h15v15h-15zM540 270h15v15h-15zM525 270h15v15h-15zM585 255h15v15h-15zM585 240h15v15h-15zM570 255h15v15h-15zM555 255h15v15h-15zM540 255h15v15h-15zM525 255h15v15h-15zM555 240h15v15h-15zM540 240h15v15h-15zM525 240h15v15h-15zM525 225h15v15h-15zM450 240h15v15h-15zM570 225h15v15h-15zM555 225h15v15h-15zM540 225h15v15h-15zM585 210h15v15h-15zM585 225h15v15h-15zM570 240h15v15h-15zM570 210h15v15h-15zM555 210h15v15h-15zM540 210h15v15h-15zM525 210h15v15h-15zM465 225h15v15h-15zM450 210h15v15h-15zM450 225h15v15h-15zM570 195h15v15h-15zM555 195h15v15h-15zM540 195h15v15h-15zM480 195h15v15h-15zM465 195h15v15h-15zM450 195h15v15h-15zM585 180h15v15h-15zM570 180h15v15h-15zM555 180h15v15h-15zM480 180h15v15h-15zM465 180h15v15h-15zM450 180h15v15h-15zM585 165h15v15h-15zM570 165h15v15h-15zM495 165h15v15h-15zM480 165h15v15h-15zM585 150h15v15h-15zM570 150h15v15h-15zM510 150h15v15h-15zM495 150h15v15h-15zM480 150h15v15h-15zM720 285h15v15h-15zM705 285h15v15h-15zM690 285h15v15h-15zM675 285h15v15h-15zM660 285h15v15h-15zM645 285h15v15h-15zM615 285h15v15h-15zM600 285h15v15h-15zM735 270h15v15h-15zM720 270h15v15h-15zM705 270h15v15h-15zM690 270h15v15h-15zM675 270h15v15h-15zM660 270h15v15h-15zM645 270h15v15h-15zM630 285h15v15h-15zM630 270h15v15h-15zM615 270h15v15h-15zM615 255h15v15h-15zM600 270h15v15h-15zM585 285h15v15h-15zM585 270h15v15h-15zM735 255h15v15h-15zM735 240h15v15h-15zM720 240h15v15h-15zM720 255h15v15h-15zM705 255h15v15h-15zM690 255h15v15h-15zM675 255h15v15h-15zM660 255h15v15h-15zM645 255h15v15h-15zM630 255h15v15h-15zM600 255h15v15h-15zM705 240h15v15h-15zM690 240h15v15h-15zM675 240h15v15h-15zM660 240h15v15h-15zM645 240h15v15h-15zM630 240h15v15h-15zM615 240h15v15h-15zM600 240h15v15h-15zM615 225h15v15h-15zM600 225h15v15h-15zM720 225h15v15h-15zM705 225h15v15h-15zM690 225h15v15h-15zM675 225h15v15h-15zM660 225h15v15h-15zM645 225h15v15h-15zM630 225h15v15h-15zM735 210h15v15h-15zM735 285h15v15h-15zM720 210h15v15h-15zM705 210h15v15h-15zM690 210h15v15h-15zM675 210h15v15h-15zM660 210h15v15h-15zM645 210h15v15h-15zM630 210h15v15h-15zM615 210h15v15h-15zM600 210h15v15h-15zM735 195h15v15h-15zM720 195h15v15h-15zM705 195h15v15h-15zM690 195h15v15h-15zM675 195h15v15h-15zM660 195h15v15h-15zM645 195h15v15h-15zM630 195h15v15h-15zM615 195h15v15h-15zM600 195h15v15h-15zM585 195h15v15h-15zM735 180h15v15h-15zM720 180h15v15h-15zM705 180h15v15h-15zM690 180h15v15h-15zM675 180h15v15h-15zM660 180h15v15h-15zM645 180h15v15h-15zM630 180h15v15h-15zM615 180h15v15h-15zM600 180h15v15h-15zM720 165h15v15h-15zM705 165h15v15h-15zM690 165h15v15h-15zM675 165h15v15h-15zM660 165h15v15h-15zM645 165h15v15h-15zM630 165h15v15h-15zM615 165h15v15h-15zM600 165h15v15h-15zM690 150h15v15h-15zM675 150h15v15h-15zM660 150h15v15h-15zM645 150h15v15h-15zM630 150h15v15h-15zM615 150h15v15h-15zM600 150h15v15h-15zM630 435h15v15h-15zM615 435h15v15h-15zM600 435h15v15h-15zM585 435h15v15h-15zM570 435h15v15h-15zM555 435h15v15h-15zM525 435h15v15h-15zM645 420h15v15h-15zM630 420h15v15h-15zM615 420h15v15h-15zM600 420h15v15h-15zM585 420h15v15h-15zM570 420h15v15h-15zM555 420h15v15h-15zM540 435h15v15h-15zM540 420h15v15h-15zM540 405h15v15h-15zM525 420h15v15h-15zM525 405h15v15h-15zM510 420h15v15h-15zM645 405h15v15h-15zM630 405h15v15h-15zM630 390h15v15h-15zM675 375h15v15h-15zM690 375h15v15h-15zM615 405h15v15h-15zM600 405h15v15h-15zM585 405h15v15h-15zM570 405h15v15h-15zM555 405h15v15h-15zM510 405h15v15h-15zM615 390h15v15h-15zM600 390h15v15h-15zM585 390h15v15h-15zM570 390h15v15h-15zM555 390h15v15h-15zM540 390h15v15h-15zM540 375h15v15h-15zM525 375h15v15h-15zM525 390h15v15h-15zM510 390h15v15h-15zM630 375h15v15h-15zM615 375h15v15h-15zM600 375h15v15h-15zM630 360h15v15h-15zM615 360h15v15h-15zM585 360h15v15h-15zM570 360h15v15h-15zM555 360h15v15h-15zM540 360h15v15h-15zM510 375h15v15h-15zM510 360h15v15h-15zM630 345h15v15h-15zM615 345h15v15h-15zM555 345h15v15h-15zM630 330h15v15h-15zM615 330h15v15h-15zM585 330h15v15h-15zM570 330h15v15h-15zM555 330h15v15h-15zM645 315h15v15h-15zM630 315h15v15h-15zM615 315h15v15h-15zM525 315h15v15h-15zM645 300h15v15h-15zM630 300h15v15h-15zM615 300h15v15h-15zM600 300h15v15h-15zM540 300h15v15h-15zM525 300h15v15h-15zM780 435h15v15h-15zM765 435h15v15h-15zM765 450h15v15h-15zM750 435h15v15h-15zM735 435h15v15h-15zM720 435h15v15h-15zM705 435h15v15h-15zM675 435h15v15h-15zM660 435h15v15h-15zM645 435h15v15h-15zM780 420h15v15h-15zM765 420h15v15h-15zM750 420h15v15h-15zM735 420h15v15h-15zM720 420h15v15h-15zM705 420h15v15h-15zM690 435h15v15h-15zM690 420h15v15h-15zM675 420h15v15h-15zM675 405h15v15h-15zM660 420h15v15h-15zM795 405h15v15h-15zM795 390h15v15h-15zM780 405h15v15h-15zM765 405h15v15h-15zM750 405h15v15h-15zM735 405h15v15h-15zM720 405h15v15h-15zM705 405h15v15h-15zM660 405h15v15h-15zM765 390h15v15h-15zM750 390h15v15h-15zM735 390h15v15h-15zM720 390h15v15h-15zM705 390h15v15h-15zM690 390h15v15h-15zM675 390h15v15h-15zM660 390h15v15h-15zM780 375h15v15h-15zM765 375h15v15h-15zM750 375h15v15h-15zM795 360h15v15h-15zM810 360h15v15h-15zM795 375h15v15h-15zM810 375h15v15h-15zM780 390h15v15h-15zM780 360h15v15h-15zM705 360h15v15h-15zM690 360h15v15h-15zM675 360h15v15h-15zM795 345h15v15h-15zM810 345h15v15h-15zM810 330h15v15h-15zM705 330h15v15h-15zM705 345h15v15h-15zM690 345h15v15h-15zM720 330h15v15h-15zM735 330h15v15h-15zM780 300h15v15h-15zM765 300h15v15h-15zM750 300h15v15h-15zM735 300h15v15h-15zM660 300h15v15h-15zM630 585h15v15h-15zM615 585h15v15h-15zM600 585h15v15h-15zM585 585h15v15h-15zM645 570h15v15h-15zM630 570h15v15h-15zM615 570h15v15h-15zM600 570h15v15h-15zM585 570h15v15h-15zM570 570h15v15h-15zM645 540h15v15h-15zM600 555h15v15h-15zM585 555h15v15h-15zM570 555h15v15h-15zM555 555h15v15h-15zM615 540h15v15h-15zM600 540h15v15h-15zM585 540h15v15h-15zM570 540h15v15h-15zM555 540h15v15h-15zM630 540h15v15h-15zM570 525h15v15h-15zM555 525h15v15h-15zM645 510h15v15h-15zM645 585h15v15h-15zM630 510h15v15h-15zM615 510h15v15h-15zM600 510h15v15h-15zM585 510h15v15h-15zM570 495h15v15h-15zM555 480h15v15h-15zM555 510h15v15h-15zM540 510h15v15h-15zM600 495h15v15h-15zM585 495h15v15h-15zM555 495h15v15h-15zM540 495h15v15h-15zM615 480h15v15h-15zM585 480h15v15h-15zM570 480h15v15h-15zM540 480h15v15h-15zM525 480h15v15h-15zM630 465h15v15h-15zM615 465h15v15h-15zM600 465h15v15h-15zM570 465h15v15h-15zM555 465h15v15h-15zM540 465h15v15h-15zM525 465h15v15h-15zM645 450h15v15h-15zM630 450h15v15h-15zM615 450h15v15h-15zM600 450h15v15h-15zM585 450h15v15h-15zM585 465h15v15h-15zM570 450h15v15h-15zM555 450h15v15h-15zM540 450h15v15h-15zM525 450h15v15h-15zM720 735h15v15h-15zM690 735h15v15h-15zM675 735h15v15h-15zM705 720h15v15h-15zM675 720h15v15h-15zM660 720h15v15h-15zM690 705h15v15h-15zM675 705h15v15h-15zM660 705h15v15h-15zM645 705h15v15h-15zM660 690h15v15h-15zM660 615h15v15h-15zM645 615h15v15h-15zM630 615h15v15h-15zM615 615h15v15h-15zM690 600h15v15h-15zM675 600h15v15h-15zM660 600h15v15h-15zM645 600h15v15h-15zM630 600h15v15h-15zM615 600h15v15h-15zM720 585h15v15h-15zM705 585h15v15h-15zM675 585h15v15h-15zM660 585h15v15h-15zM735 570h15v15h-15zM720 570h15v15h-15zM690 570h15v15h-15zM675 570h15v15h-15zM675 555h15v15h-15zM660 570h15v15h-15zM750 555h15v15h-15zM720 555h15v15h-15zM705 555h15v15h-15zM735 540h15v15h-15zM720 540h15v15h-15zM705 540h15v15h-15zM690 540h15v15h-15zM690 555h15v15h-15zM750 525h15v15h-15zM735 525h15v15h-15zM720 525h15v15h-15zM705 525h15v15h-15zM750 510h15v15h-15zM735 510h15v15h-15zM720 510h15v15h-15zM690 510h15v15h-15zM675 510h15v15h-15zM660 510h15v15h-15zM735 495h15v15h-15zM720 495h15v15h-15zM705 480h15v15h-15zM705 495h15v15h-15zM690 495h15v15h-15zM675 495h15v15h-15zM660 495h15v15h-15zM750 480h15v15h-15zM750 495h15v15h-15zM735 480h15v15h-15zM720 480h15v15h-15zM690 480h15v15h-15zM675 480h15v15h-15zM765 465h15v15h-15zM750 465h15v15h-15zM735 465h15v15h-15zM720 465h15v15h-15zM705 465h15v15h-15zM690 465h15v15h-15zM750 450h15v15h-15zM735 450h15v15h-15zM720 450h15v15h-15zM705 450h15v15h-15zM690 450h15v15h-15zM675 450h15v15h-15zM690 405h15v15h-15zM795 285h15v15h-15zM765 285h15v15h-15zM750 285h15v15h-15zM795 270h15v15h-15zM780 285h15v15h-15zM780 270h15v15h-15zM765 270h15v15h-15zM765 255h15v15h-15zM750 270h15v15h-15zM795 255h15v15h-15zM780 255h15v15h-15zM750 255h15v15h-15zM765 240h15v15h-15zM750 240h15v15h-15zM750 225h15v15h-15zM750 210h15v15h-15zM735 225h15v15h-15zM495 1585h15v15h-15zM480 1585h15v15h-15zM465 1585h15v15h-15zM390 1585h15v15h-15zM375 1585h15v15h-15zM510 1570h15v15h-15zM495 1570h15v15h-15zM480 1570h15v15h-15zM465 1570h15v15h-15zM450 1570h15v15h-15zM435 1570h15v15h-15zM420 1570h15v15h-15zM450 1585h15v15h-15zM435 1585h15v15h-15zM420 1585h15v15h-15zM405 1585h15v15h-15zM405 1570h15v15h-15zM390 1570h15v15h-15zM375 1570h15v15h-15zM495 1555h15v15h-15zM480 1555h15v15h-15zM465 1555h15v15h-15zM450 1555h15v15h-15zM435 1555h15v15h-15zM420 1555h15v15h-15zM480 1540h15v15h-15zM465 1540h15v15h-15zM435 1540h15v15h-15zM420 1540h15v15h-15zM405 1540h15v15h-15zM390 1540h15v15h-15zM375 1540h15v15h-15zM495 1525h15v15h-15zM465 1525h15v15h-15zM450 1525h15v15h-15zM420 1525h15v15h-15zM405 1525h15v15h-15zM510 1510h15v15h-15zM495 1540h15v15h-15zM495 1510h15v15h-15zM480 1510h15v15h-15zM465 1510h15v15h-15zM450 1510h15v15h-15zM420 1510h15v15h-15zM390 1510h15v15h-15zM390 1525h15v15h-15zM375 1510h15v15h-15zM360 1555h15v-15h-15zM345 1555h15v-15h-15zM330 1570h15v-15h-15zM330 1585h15v-15h-15zM345 1540h15v-15h-15zM360 1570h15v-15h-15zM375 1570h15v-15h-15zM390 1570h15v-15h-15zM405 1570h15v-15h-15zM375 1525h15v15h-15zM480 1495h15v15h-15zM450 1495h15v15h-15zM465 1495h15v15h-15zM405 1495h15v15h-15zM390 1495h15v15h-15zM420 1495h15v15h-15zM435 1525h15v15h-15zM435 1510h15v15h-15zM435 1495h15v15h-15zM645 1585h15v15h-15zM660 1585h15v15h-15zM675 1585h15v15h-15zM630 1585h15v15h-15zM615 1585h15v15h-15zM540 1585h15v15h-15zM660 1570h15v15h-15zM630 1570h15v15h-15zM615 1570h15v15h-15zM600 1570h15v15h-15zM585 1570h15v15h-15zM570 1570h15v15h-15zM600 1585h15v15h-15zM585 1585h15v15h-15zM570 1585h15v15h-15zM555 1585h15v15h-15zM555 1570h15v15h-15zM540 1570h15v15h-15zM525 1570h15v15h-15zM510 1585h15v15h-15zM525 1585h15v15h-15zM615 1555h15v15h-15zM600 1555h15v15h-15zM585 1555h15v15h-15zM570 1555h15v15h-15zM615 1540h15v15h-15zM585 1540h15v15h-15zM570 1540h15v15h-15zM555 1540h15v15h-15zM540 1540h15v15h-15zM525 1540h15v15h-15zM555 1525h15v15h-15zM540 1525h15v15h-15zM525 1510h15v15h-15zM435 0v15h-15V0zM420 0v15h-15V0zM405 0v15h-15V0zM390 0v15h-15V0zM375 0v15h-15V0zM420 90v15h-15V90zM405 90v15h-15V90zM390 90v15h-15V90zM375 90v15h-15V90zM435 15v15h-15V15zM435 30v15h-15V30zM405 30v15h-15V30zM405 45v15h-15V45zM405 60v15h-15V60zM390 60v15h-15V60zM390 45v15h-15V45zM390 30v15h-15V30zM375 60v15h-15V60zM375 45v15h-15V45zM375 30v15h-15V30zM435 45v15h-15V45zM435 60v15h-15V60zM435 75v15h-15V75zM435 90v15h-15V90zM360 0v15h-15V0zM360 90v15h-15V90zM345 0v15h-15V0zM315 15v15h-15V15zM300 0v15h-15V0zM285 0v15h-15V0zM315 30v15h-15V30zM300 30v15h-15V30zM300 45v15h-15V45zM285 45v15h-15V45zM270 30v15h-15V30zM255 15v15h-15V15zM255 0v15h-15V0zM240 15v15h-15V15zM240 0v15h-15V0zM225 15v15h-15V15zM225 30v15h-15V30zM225 45v15h-15V45zM240 45v15h-15V45zM255 60v15h-15V60zM240 75v15h-15V75zM225 75v15h-15V75zM210 60v15h-15V60zM195 45v15h-15V45zM195 30v15h-15V30zM180 30v15h-15V30zM180 60v15h-15V60zM165 75v15h-15V75zM135 60v15h-15V60zM135 75v15h-15V75zM135 90v15h-15V90zM165 90v15h-15V90zM165 105v15h-15v-15zM165 120v15h-15v-15zM165 45v15h-15V45zM150 45v15h-15V45zM165 15v15h-15V15zM150 15v15h-15V15zM135 30v15h-15V30zM165 0v15h-15V0zM210 15v15h-15V15zM225 0v15h-15V0zM285 60v15h-15V60zM285 75v15h-15V75zM285 90v15h-15V90zM300 75v15h-15V75zM315 90v15h-15V90zM315 105v15h-15v-15zM330 120v15h-15v-15zM360 120v15h-15v-15zM375 120v15h-15v-15zM375 135v15h-15v-15zM390 135v15h-15v-15zM405 120v15h-15v-15zM405 135v15h-15v-15zM420 135v15h-15v-15zM435 135v15h-15v-15zM435 150v15h-15v-15zM435 165v15h-15v-15zM435 180v15h-15v-15zM435 195v15h-15v-15zM435 210v15h-15v-15zM420 225v15h-15v-15zM420 240v15h-15v-15zM435 240v15h-15v-15zM435 255v15h-15v-15zM435 270v15h-15v-15zM420 285v15h-15v-15zM405 270v15h-15v-15zM390 270v15h-15v-15zM375 255v15h-15v-15zM360 255v15h-15v-15zM345 240v15h-15v-15zM330 225v15h-15v-15zM330 240v15h-15v-15zM315 240v15h-15v-15zM360 300v15h-15v-15zM345 300v15h-15v-15zM390 300v15h-15v-15zM375 300v15h-15v-15zM330 300v15h-15v-15zM360 360v15h-15v-15zM360 375v15h-15v-15zM345 360v15h-15v-15zM390 345v15h-15v-15zM375 345v15h-15v-15zM375 360v15h-15v-15zM375 315v15h-15v-15zM375 330v15h-15v-15zM435 345v15h-15v-15zM420 345v15h-15v-15zM435 315v15h-15v-15zM435 360v15h-15v-15zM420 375v15h-15v-15zM420 390v15h-15v-15zM405 390v15h-15v-15zM390 405v15h-15v-15zM375 420v15h-15v-15zM360 405v15h-15v-15zM345 405v15h-15v-15zM420 405v15h-15v-15zM420 420v15h-15v-15zM435 390v15h-15v-15zM435 405v15h-15v-15zM420 330v15h-15v-15zM405 315v15h-15v-15zM435 330v15h-15v-15zM345 330v15h-15v-15zM330 360v15h-15v-15zM300 225v15h-15v-15zM300 240v15h-15v-15zM300 255v15h-15v-15zM300 270v15h-15v-15zM300 285v15h-15v-15zM315 285v15h-15v-15zM315 300v15h-15v-15zM315 315v15h-15v-15zM315 330v15h-15v-15zM315 345v15h-15v-15zM315 360v15h-15v-15zM300 315v15h-15v-15zM285 315v15h-15v-15zM300 330v15h-15v-15zM300 345v15h-15v-15zM300 360v15h-15v-15zM285 345v15h-15v-15zM270 330v15h-15v-15zM270 345v15h-15v-15zM255 330v15h-15v-15zM255 315v15h-15v-15zM255 345v15h-15v-15zM270 285v15h-15v-15zM270 300v15h-15v-15zM255 285v15h-15v-15zM255 300v15h-15v-15zM195 270v15h-15v-15zM195 255v15h-15v-15zM195 225v15h-15v-15zM195 240v15h-15v-15zM150 240v15h-15v-15zM150 210v15h-15v-15zM150 225v15h-15v-15zM135 195v15h-15v-15zM120 195v15h-15v-15zM105 180v15H90v-15zM105 210v15H90v-15zM120 225v15h-15v-15zM105 240v15H90v-15zM135 210v15h-15v-15zM240 270v15h-15v-15zM240 285v15h-15v-15zM225 285v15h-15v-15zM210 285v15h-15v-15zM210 300v15h-15v-15zM195 300v15h-15v-15zM210 330v15h-15v-15zM195 330v15h-15v-15zM180 315v15h-15v-15zM180 300v15h-15v-15zM180 270v15h-15v-15zM180 255v15h-15v-15zM165 270v15h-15v-15zM165 240v15h-15v-15zM180 210v15h-15v-15zM150 270v15h-15v-15zM150 255v15h-15v-15zM150 300v15h-15v-15zM150 285v15h-15v-15zM120 255v15h-15v-15zM120 285v15h-15v-15zM120 270v15h-15v-15zM90 225v15H75v-15zM90 240v15H75v-15zM75 225v15H60v-15zM75 240v15H60v-15zM75 255v15H60v-15zM60 270v15H45v-15zM60 285v15H45v-15zM45 270v15H30v-15zM45 285v15H30v-15zM75 285v15H60v-15zM75 300v15H60v-15zM105 270v15H90v-15zM120 300v15h-15v-15zM150 330v15h-15v-15zM165 330v15h-15v-15zM165 345v15h-15v-15zM180 345v15h-15v-15zM195 345v15h-15v-15zM195 360v15h-15v-15zM195 375v15h-15v-15zM180 360v15h-15v-15zM165 375v15h-15v-15zM150 375v15h-15v-15zM180 420v15h-15v-15zM165 420v15h-15v-15zM135 406v15h-15v-15zM135 360v15h-15v-15zM150 315v15h-15v-15zM135 300v15h-15v-15zM90 300v15H75v-15zM105 300v15H90v-15zM15 300v15H0v-15zM30 300v15H15v-15zM45 300v15H30v-15zM135 315v15h-15v-15zM240 345v15h-15v-15zM240 330v15h-15v-15zM240 360v15h-15v-15zM225 345v15h-15v-15zM225 360v15h-15v-15zM210 375v15h-15v-15zM210 390v15h-15v-15zM255 375v15h-15v-15zM270 375v15h-15v-15zM255 390v15h-15v-15zM240 315v15h-15v-15zM285 360v15h-15v-15zM330 390v15h-15v-15zM315 390v15h-15v-15zM300 390v15h-15v-15zM300 405v15h-15v-15zM285 390v15h-15v-15zM285 405v15h-15v-15zM270 405v15h-15v-15zM255 420v15h-15v-15zM240 420v15h-15v-15zM210 420v15h-15v-15zM195 405v15h-15v-15zM270 420v15h-15v-15zM300 420v15h-15v-15zM330 405v15h-15v-15zM330 420v15h-15v-15zM315 420v15h-15v-15zM285 255v15h-15v-15zM315 210v15h-15v-15zM420 300v15h-15v-15zM420 165v15h-15v-15zM405 150v15h-15v-15zM390 150v15h-15v-15zM390 165v15h-15v-15zM375 150v15h-15v-15zM375 165v15h-15v-15zM390 180v15h-15v-15zM405 195v15h-15v-15zM360 165v15h-15v-15zM360 180v15h-15v-15zM330 150v15h-15v-15zM330 165v15h-15v-15zM315 180v15h-15v-15zM300 180v15h-15v-15zM270 180v15h-15v-15zM270 195v15h-15v-15zM285 195v15h-15v-15zM240 210v15h-15v-15zM255 210v15h-15v-15zM255 240v15h-15v-15zM225 195v15h-15v-15zM240 195v15h-15v-15zM225 255v15h-15v-15zM225 240v15h-15v-15zM285 210v15h-15v-15zM315 135v15h-15v-15zM300 135v15h-15v-15zM255 135v15h-15v-15zM285 150v15h-15v-15zM270 150v15h-15v-15zM285 165v15h-15v-15zM270 165v15h-15v-15zM255 165v15h-15v-15zM240 165v15h-15v-15zM225 165v15h-15v-15zM210 165v15h-15v-15zM195 165v15h-15v-15zM195 180v15h-15v-15zM165 150v15h-15v-15zM180 165v15h-15v-15zM165 180v15h-15v-15zM150 165v15h-15v-15zM150 180v15h-15v-15zM315 150v15h-15v-15zM375 195v15h-15v-15zM375 210v15h-15v-15zM390 225v15h-15v-15zM360 225v15h-15v-15zM345 195v15h-15v-15zM300 105v15h-15v-15zM285 105v15h-15v-15zM285 120v15h-15v-15zM270 105v15h-15v-15zM255 90v15h-15V90zM240 105v15h-15v-15zM225 90v15h-15V90zM225 105v15h-15v-15zM210 105v15h-15v-15zM195 120v15h-15v-15zM195 135v15h-15v-15zM180 135v15h-15v-15zM165 135v15h-15v-15zM150 120v15h-15v-15zM150 135v15h-15v-15zM135 120v15h-15v-15zM135 135v15h-15v-15zM135 150v15h-15v-15zM120 150v15h-15v-15zM105 150v15H90v-15zM105 120v15H90v-15zM75 120v15H60v-15zM30 120v15H15v-15zM30 135v15H15v-15zM15 135v15H0v-15zM30 150v15H15v-15zM30 165v15H15v-15zM15 165v15H0v-15zM45 165v15H30v-15zM90 165v15H75v-15zM60 180v15H45v-15zM60 195v15H45v-15zM75 195v15H60v-15zM45 195v15H30v-15zM30 210v15H15v-15zM45 225v15H30v-15zM45 240v15H30v-15zM30 240v15H15v-15zM45 255v15H30v-15zM30 255v15H15v-15zM15 255v15H0v-15zM15 210v15H0v-15zM15 225v15H0v-15zM75 135v15H60v-15zM210 135v15h-15v-15zM195 90v15h-15V90zM225 120v15h-15v-15zM345 15v15h-15V15zM345 30v15h-15V30zM345 45v15h-15V45zM345 60v15h-15V60zM345 75v15h-15V75zM345 90v15h-15V90zM105 0v15H90V0zM90 0v15H75V0zM75 0v15H60V0zM60 0v15H45V0zM45 0v15H30V0zM90 90v15H75V90zM75 90v15H60V90zM60 90v15H45V90zM45 90v15H30V90zM105 15v15H90V15zM105 30v15H90V30zM75 30v15H60V30zM75 45v15H60V45zM75 60v15H60V60zM60 60v15H45V60zM60 45v15H45V45zM60 30v15H45V30zM45 60v15H30V60zM45 45v15H30V45zM45 30v15H30V30zM105 45v15H90V45zM105 60v15H90V60zM105 75v15H90V75zM105 90v15H90V90zM30 0v15H15V0zM30 90v15H15V90zM15 0v15H0V0zM15 15v15H0V15zM15 30v15H0V30zM15 45v15H0V45zM15 60v15H0V60zM15 75v15H0V75zM15 90v15H0V90zM105 330v15H90v-15zM90 330v15H75v-15zM75 330v15H60v-15zM60 330v15H45v-15zM45 330v15H30v-15zM90 420v15H75v-15zM75 420v15H60v-15zM60 420v15H45v-15zM45 420v15H30v-15zM105 345v15H90v-15zM105 360v15H90v-15zM75 360v15H60v-15zM75 375v15H60v-15zM75 390v15H60v-15zM60 390v15H45v-15zM60 375v15H45v-15zM60 360v15H45v-15zM45 390v15H30v-15zM45 375v15H30v-15zM45 360v15H30v-15zM105 375v15H90v-15zM105 390v15H90v-15zM105 405v15H90v-15zM105 420v15H90v-15zM30 330v15H15v-15zM30 420v15H15v-15zM15 330v15H0v-15zM15 345v15H0v-15zM15 360v15H0v-15zM15 375v15H0v-15zM15 390v15H0v-15zM15 405v15H0v-15zM15 420v15H0v-15zM315 510h15v15h-15zM285 510h15v15h-15zM285 555h15v15h-15zM300 570h15v15h-15zM390 495h15v15h-15zM360 495h15v15h-15zM330 495h15v15h-15zM405 480h15v15h-15zM390 480h15v15h-15zM390 525h15v15h-15zM375 540h15v15h-15zM375 480h15v15h-15zM345 480h15v15h-15zM330 480h15v15h-15zM315 480h15v15h-15zM300 480h15v15h-15zM255 495h15v15h-15zM405 465h15v15h-15zM390 465h15v15h-15zM375 465h15v15h-15zM360 465h15v15h-15zM330 465h15v15h-15zM315 465h15v15h-15zM285 465h15v15h-15zM405 450h15v15h-15zM390 450h15v15h-15zM375 450h15v15h-15zM360 450h15v15h-15zM345 450h15v15h-15zM315 450h15v15h-15zM270 465h15v15h-15zM270 450h15v15h-15zM405 435h15v15h-15zM390 435h15v15h-15zM375 435h15v15h-15zM360 435h15v15h-15zM345 435h15v15h-15zM330 435h15v15h-15zM315 435h15v15h-15zM300 435h15v15h-15zM285 435h15v15h-15zM210 555h15v15h-15zM195 555h15v15h-15zM210 540h15v15h-15zM165 540h15v15h-15zM135 540h15v15h-15zM120 555h15v15h-15zM120 540h15v15h-15zM105 525h15v15h-15zM90 540h15v15H90zM225 525h15v15h-15zM180 525h15v15h-15zM165 525h15v15h-15zM135 525h15v15h-15zM180 510h15v15h-15zM165 510h15v15h-15zM150 510h15v15h-15zM135 510h15v15h-15zM120 510h15v15h-15zM105 510h15v15h-15zM90 510h15v15H90zM210 495h15v15h-15zM180 495h15v15h-15zM225 495h15v15h-15zM210 510h15v15h-15zM60 480h15v15H60zM30 495h15v15H30zM0 495h15v15H0zM0 510h15v15H0zM15 525h15v15H15zM45 480h15v15H45zM60 465h15v15H60zM75 450h15v15H75zM60 435h15v15H60zM195 480h15v15h-15zM180 480h15v15h-15zM150 480h15v15h-15zM135 480h15v15h-15zM120 480h15v15h-15zM90 495h15v15H90zM225 465h15v15h-15zM180 465h15v15h-15zM120 465h15v15h-15zM195 450h15v15h-15zM150 450h15v15h-15zM150 465h15v15h-15zM135 450h15v15h-15zM120 450h15v15h-15zM90 450h15v15H90zM225 435h15v15h-15zM195 435h15v15h-15zM90 435h15v15H90zM1320 1335h15v15h-15zM1245 1320h15v15h-15zM1200 1305h15v15h-15zM1320 1275h15v15h-15zM1320 1260h15v15h-15zM1380 1290h15v15h-15zM1365 1260h15v15h-15zM1425 1245h15v15h-15zM1365 1215h15v15h-15z"/></g></svg>