<svg xmlns="http://www.w3.org/2000/svg" viewBox="0 0 680 665" style="display:none;">
<defs>
<linearGradient id="box-outer-grad" x1="69.263%" x2="30.737%" y1="50%" y2="76.795%">
<stop offset="0%" stop-color="#191919"/>
<stop offset="100%" stop-color="#141414"/>
</linearGradient>
</defs>
</svg>

<svg xmlns="http://www.w3.org/2000/svg" viewBox="0 0 680 665">
<g fill="none" fill-rule="evenodd">
<path fill="#5a5a5a" d="M603.02 227.609 333.49 107.818 63.959 227.609v314.454l269.53 119.791 269.532-119.791z"/>
<path fill="#747474" d="m63.959 227.609 269.53-119.791 269.532 119.791L333.49 347.401z"/>
<path fill="url(#box-outer-grad)" d="M330.427 344.401v314.453l269.531-119.791V224.609z" transform="translate(3.063 3)"/>
<path stroke="#080708" stroke-linecap="round" stroke-linejoin="round" stroke-width="5" d="M604.02 227.888v314.175L334.49 661.854 64.959 542.063V227.958l269.53-120.14z"/>
<path fill="#2aa7ad" d="m142.793 387.713 54.048-13.57 54.984 58.548v71.982l-54.984 14.222-54.048-58.779z"/>
<path fill="#d4d8de" d="M196.859 332v41.986L142.8 387.505v72.133l54.059 58.559v36.386L112 463.74V354.065z"/>
<path fill="#333338" d="m196.859 332 86.083 92.943V534.32l-86.083 20.263v-36.386l54.996-14.169v-71.713l-54.996-58.329z"/>
<path fill="#222226" d="m282.942 424.943-31.087 7.372v71.713l31.087 30.292zM145.619 499.731l28.482-6.732 22.758 25.198v36.386z"/>
<path fill="#404247" d="m196.86 373.986 54.995 58.33v71.712l-54.996 14.17-54.06-58.56v-72.133zm.467 11.55-45.717 12.021v58.866l45.621 49.674 45.622-12.382v-59.031z"/>
<path fill="#9da4ab" d="M196.859 373.986 142.8 387.505v72.133l54.059 58.559v7.502l-59.498-64.7v-79.827l59.498-14.756z"/>
<path fill="#d4d8de" d="m196.859 366.416 60.555 64.594v78.505l-60.555 16.184v-7.502l54.996-14.169v-71.713l-54.996-58.329z"/>
<path stroke="#080708" stroke-linecap="round" stroke-linejoin="round" stroke-width="5" d="m64.959 227.609 268.53 119.792 269.532-119.792M334.49 347.401v314.453"/>
</g>
</svg>