<svg xmlns="http://www.w3.org/2000/svg" viewBox="0 0 370 165">
<path fill="#2db7b8" fill-rule="evenodd" d="m63.415 44.406 38.24 38.406-38.24 38.407-10.216-10.26h5.085v-3.454H49.76L40.396 98.1H33.06v-3.454H26.37v-4.223h6.381l-1.719-1.727H0V85.24h17.772V81.02h9.187l3.44-3.455H7.644v-1.727h14.523v-4.223h9.173V68.16l8.424-.001 13.36-13.418v-.208h-5.923v-1.728h7.85zm-14.877 66.553v3.455H35.735v-3.455zm-9.363-11.131v3.454H11.084v-3.454zM64.59 98.1H47.583v1.728h17.008zm114.466-31.284c10.702 0 19.492 5.566 19.492 15.93s-8.982 15.93-19.492 15.93c-10.701 0-19.492-5.566-19.492-15.93s8.982-15.93 19.492-15.93m163.579 0c10.701 0 19.491 5.566 19.491 15.93s-8.981 15.93-19.491 15.93c-10.702 0-19.492-5.566-19.492-15.93s8.981-15.93 19.492-15.93m-207.34.384c11.466 0 16.817 6.717 16.817 15.738 0 8.253-5.924 15.738-17.581 15.738h-19.11v-.768c.714-.179.761-.525.764-1.039V69.018c-.002-.54-.044-1.05-.764-1.05V67.2zm133.768-.192v.768c-.72 0-.762.51-.765 1.05v27.84c.003.54.045 1.05.765 1.05v.768H257.98v-.768c.573 0 .764-.575.764-1.151v-27.77c-.002-.68-.045-1.02-.764-1.02v-.767zm47.01 0v.768c-.72 0-.763.51-.765 1.05v27.678c.002.68.045 1.02.764 1.02v.768h-9.937v-.767c.382 0 .573 0 .573-.576 0-.768-1.528-1.536-17.963-19.001v18.718c.003.54.045 1.05.765 1.05v.768h-9.937v-.768c.764 0 .764-.575.764-1.151h-.19V69.119c0-.767 0-1.151-.765-1.151V67.2h13.185v.768c-1.146 0-.764.576-.764.767 0 .331 3.531 4.082 7.37 8.087l.461.482.787.819c2.448 2.547 4.88 5.06 6.479 6.734v-15.93c0-.767-.192-1.151-.956-1.151v-.768zm-94.976 0v.768q-.86 0-.573 1.151c.191.384 5.16 11.324 5.924 12.86l.308-.64.31-.64.312-.639a898 898 0 0 1 3.171-6.415l.248-.498c1.093-2.197 1.867-3.755 1.957-4.028 0-.575 0-1.151-.573-1.151v-.768h14.714v.768c-.674 0-.753.448-.763.95l-.001.201v27.638l.001.202c.01.501.089.95.763.95v.767h-10.319v-.768c.72 0 .762-.51.764-1.05v-21.98l-.19-.193-11.085 23.029-10.892-23.22h-.19v22.364c.002.54.044 1.05.764 1.05v.768h-9.364v-.768c.713-.179.76-.525.764-1.038v-27.75c0-.576.191-1.152-.764-1.152v-.768zm-42.04 6.91c-5.543 0-10.32 3.07-10.32 8.828s4.968 8.829 10.32 8.829c5.541 0 10.318-3.071 10.318-8.829s-4.968-8.829-10.319-8.829m163.578 0c-5.351 0-10.129 3.262-10.32 8.828 0 5.758 4.969 8.829 10.32 8.829 5.541 0 10.319-3.263 10.319-8.829 0-5.758-4.969-8.829-10.32-8.829m-209.06.191h-7.835v17.274h7.835c6.498 0 9.173-3.647 9.364-8.637 0-4.99-2.675-8.637-9.364-8.637M78.923 88.696h-38.22v1.727h38.22zM59.43 77.564H44.143v3.455h15.288zm16.243-12.667h-29.81v3.455h29.81zm-33.25-5.95v3.455H19.491v-3.455z"/>
</svg>