<svg xmlns="http://www.w3.org/2000/svg" viewBox="0 0 370 165">
<path fill="#2db7b8" fill-rule="evenodd" d="m13.803 49.908-.108.563c-.303 1.602 2.92 3.463 4.5 2.62.887-.477.454-1.884-.865-2.75-.572-.375-.605-.408 1.476-.41h1.131c2.187 0 2.275.026 2.174.432-.151.628 1.19 1.948 2.293 2.251 1.883.52 2.64-.736 1.255-2.035l-.714-.67h7.27l-.109.519c-.238 1.212 2.25 2.814 3.462 2.25.974-.432.714-1.536-.563-2.38-.501-.321-.24-.382 4.493-.389h7.472l-.109.584c-.064.303.022.714.195.93.714.866 2.661 1.364 3.202.823.411-.411 0-1.407-.779-1.883l-.735-.433h6.945l6.966-.022-.108.563c-.152.714.822 1.645 1.904 1.862 1.622.303 1.86-1.083.346-2.013-.52-.327-.047-.38 7.798-.389H87.58l-2.64.778c-8.762 2.554-17.654 7.056-25.4 12.857-2.769 2.056-4.846 3.788-4.975 4.112-.011.03.084.276.26.684l.146.337c.561 1.277 1.631 3.583 2.746 5.939l.319.673c1.704 3.592 3.41 7.085 3.473 7.02.065-.064 3.851-5.042 8.438-11.081l8.351-10.996 6.101-.065c.982-.007 1.807-.012 2.5-.014h.442c2.681.003 3.092.078 3.008.296-.073.197-7.159 9.486-14.54 19.111l-1.848 2.409c-7.383 9.621-14.502 18.85-14.637 18.933-.108.065-3.094-5.39-6.642-12.142-3.548-6.732-6.512-12.251-6.62-12.273-.087 0-.779.845-1.558 1.883-.673.905-1.26 1.706-1.413 1.904l-.036.044c-.044.022-.238-.238-.455-.606-.757-1.255-2.985-2.077-3.7-1.363-.994.995 1.04 3.073 2.813 2.857.411-.043.714-.022.671.043-.022.065-.584.996-1.212 2.078-.649 1.082-1.536 2.727-1.968 3.68l-.8 1.71-1.256-.109c-1.384-.151-1.925.108-1.925.953 0 .606.952 1.84 1.58 2.034.389.13.389.195.086 1.212a50 50 0 0 0-.541 2.078c-.368 1.688-.411 1.732-.974.888-1.384-2.057-5.149-2.49-5.149-.607 0 .736 1.796 2.36 2.92 2.684 1.126.303 2.186.13 2.554-.41.216-.347.216-.347.108.02-.065.239-.13.78-.13 1.213 0 .714-.043.757-.714.78-.41 0-.908.15-1.146.367-.714.65-.52 1.429.627 2.51.952.931 1.06 1.126 1.255 2.533.627 4.545 2.79 8.203 6.014 10.216.606.39 1.017.715.909.715s-1.103-.26-2.207-.585l-2.012-.606v-.866c0-1.103-.865-2.142-2.38-2.857-1.968-.909-3.743-.562-3.743.758 0 .281-.086.52-.173.52-.108 0-1.254-.52-2.553-1.148l-2.401-1.147.736-.303c.93-.39 1.146-1.169.627-2.251-1.168-2.49-5.56-3.766-6.664-1.948l-.41.671-1.082-.823-1.082-.822.54-.584c.282-.347.52-.628.542-.671 0-.022.497.216 1.103.52 2.099 1.06 4.219.605 4.219-.867 0-1.796-2.64-3.787-5.02-3.787-.995 0-2.033.562-2.033 1.125.021.108-.606-.13-1.342-.498l-1.363-.692.563-.455c.303-.238.562-.563.562-.736 0-.238.26-.173.974.217 1.86 1.017 3.721 1.017 4.392 0 .476-.715.281-1.472-.65-2.533-1.579-1.775-4.845-2.532-5.927-1.342l-.52.563-1.298-.65c-.995-.519-1.19-.692-.865-.8.238-.065.52-.368.67-.671l.239-.541 1.125.563c1.384.692 3.267.779 3.916.173 1.644-1.494-1.407-4.697-4.522-4.74-1.039-.022-1.276.064-1.73.584l-.52.606-.65-.433c-.345-.238-.93-.476-1.276-.563-.346-.065-.627-.173-.627-.216s.303-.368.67-.736l.671-.693 1.082.541c1.493.78 3.072.758 3.851-.021.454-.455.541-.714.433-1.19-.26-1.061-1.19-2.035-2.661-2.771-1.883-.93-3.137-.952-4.068-.022-.39.39-.714.563-.8.412-.087-.13-.67-.455-1.298-.736-1.017-.433-1.104-.542-.67-.671.28-.087.562-.347.626-.606.195-.542.347-.542 1.472.043 3.353 1.753 5.776-.368 3.267-2.879-1.688-1.71-4.522-2.272-5.647-1.125l-.541.54-.93-.497c-.93-.52-1.104-.974-.65-1.71.26-.411.303-.411 1.364.13 1.254.628 3.137.78 3.72.303.693-.584.823-1.082.477-1.905-.714-1.71-3.678-3.333-5.496-3.008-.562.108-.778.065-.778-.152 0-.216.324-.26 1.233-.216 1.45.086 2.185-.412 2.185-1.537 0-.823-1.168-2.208-2.402-2.857l-.843-.455.151-1.688c.065-.909.173-1.731.238-1.775.043-.065.368.217.714.606.822.974 2.575 1.84 3.743 1.84 1.86 0 2.38-1.364 1.082-2.857C8.87 61.034 7.68 60.536 6.1 60.644c-1.082.087-1.32.043-1.212-.216.065-.174.13-.433.13-.585 0-.173.39-.26 1.039-.281 1.817 0 2.228-1.299.887-2.792l-.78-.866.585-1.515.606-1.494.779.325c2.64 1.104 4.11-.65 2.098-2.49l-.908-.822zm19.45 55.648c-2.79-1.493-4.976-.584-3.808 1.623.974 1.775 4.435 2.944 5.517 1.862.281-.281.498-.671.498-.888 0-.735-1.082-1.99-2.207-2.597m-5.041-6.233c-1.017-.13-1.19-.087-1.73.454-.693.693-.628 1.169.237 2.338 1.082 1.428 4.154 2.316 5.171 1.472.93-.78.173-2.555-1.536-3.572-.541-.303-1.515-.628-2.142-.692m-1.514-5.109c-1.19-.562-2.878-.562-3.375-.021-1.299 1.45 1.32 4.134 4.024 4.134 1.341 0 2.077-.628 1.86-1.558-.194-.823-1.406-2.035-2.51-2.555m-2.856-5.432c-1.666-.866-3.31-.758-3.83.216-.519.974.563 2.49 2.359 3.333 2.012.931 3.764.563 3.764-.822 0-.823-1.103-2.121-2.293-2.727m67.371-21.536c.13-.39 11.25-.412 11.25-.022 0 .476-4.543 25.02-4.673 25.216-.07.112-2.495.18-5.057.197l-.642.003h-.957c-2.313-.004-4.355-.054-4.42-.157-.046-.078 1.095-6.615 2.24-13.018l.149-.834c1.019-5.685 2-11.036 2.11-11.385M30.592 88.803c-2.466-1.19-4.284.152-2.726 2.013 1.6 1.905 4.868 2.208 4.868.476 0-.844-.909-1.904-2.142-2.489m-10.017-5.627c-2.9-1.342-4.911.195-3.029 2.316 1.666 1.926 4.63 2.467 5.409 1.017.519-.952-.584-2.489-2.38-3.333m7.442.368c-1.687-1.06-3.916-.844-3.916.39 0 1.125 1.861 2.683 3.505 2.921 2.553.39 2.813-1.796.411-3.311m7.66.108c-1.623-1.082-3.636-.866-3.636.39 0 .692 1.558 2.142 2.662 2.467 2.617.8 3.353-1.299.973-2.857m-18.023-5.995c-2.034-.974-4.262-.368-3.894 1.082.346 1.493 2.596 2.987 4.435 2.987 2.64.021 2.272-2.706-.54-4.07m6.794.086c-1.904-.887-3.31-.563-3.31.758 0 1.212 2.206 2.77 3.915 2.77 1.147 0 1.536-.281 1.536-1.147s-.8-1.775-2.141-2.38m7.81.13c-.974-.498-2.488-.606-2.9-.173-.713.714.152 2.272 1.645 2.987.909.433 2.423.476 2.813.086.713-.714-.044-2.142-1.558-2.9m-18.585-6.104c-3.245-1.104-4.132 1.927-1.103 3.701 1.774 1.04 3.483 1.04 4.154.022.324-.498.324-.606-.022-1.364-.432-.865-1.774-1.926-3.029-2.359m7.94.498c-1.709-.909-3.656-.606-3.656.563 0 1.234 2.358 2.987 4.024 2.987.779 0 1.666-.628 1.666-1.212 0-.606-1.06-1.818-2.034-2.338m7.876.195c-1.082-.671-2.424-.844-3.073-.39-.735.541-.627 1.19.346 2.165 1.58 1.58 3.938 1.796 4.111.39.087-.802-.39-1.56-1.384-2.165m9.021.736c-.973-.758-2.596-.996-3.029-.476-.735.887.736 2.597 2.402 2.792 1.817.238 2.185-1.126.627-2.316m-26.524-6.32c-1.471-.91-3.31-1.083-4.003-.39-.606.606-.606 1.126.044 2.1.951 1.406 3.483 2.445 4.867 1.99 1.58-.497 1.082-2.467-.908-3.7m6.382-.238c-1.255-.628-2.034-.715-2.856-.303-1.211.584-.194 2.705 1.688 3.506.908.368 2.618.39 2.985.022.8-.801-.064-2.36-1.817-3.225m7.745.086c-.973-.498-2.466-.584-2.877-.173-.779.758.26 2.532 1.839 3.117.844.324 2.272.303 2.596-.022.736-.714-.043-2.143-1.558-2.922m8.654.433c-.757-.411-1.817-.52-2.444-.281-.152.065-.282.41-.282.779 0 .779 1.32 1.97 2.424 2.164 2.25.433 2.466-1.493.302-2.662m-18.93-5.78c-1.039-.692-2.92-.973-3.613-.54-1.039.628-.065 2.467 1.73 3.311 1.688.78 3.051.671 3.419-.26.216-.627-.52-1.84-1.536-2.51m7.031-.237c-1.363-.628-1.904-.671-2.596-.195-1.038.736-.281 2.208 1.601 3.074 1.666.757 2.9.476 2.9-.65 0-.909-.607-1.623-1.905-2.23m8.33.173c-.65-.346-1.947-.325-2.294.022-.454.433-.303 1.017.433 1.731 1.341 1.364 3.613 1.494 3.613.195 0-.541-.844-1.493-1.752-1.948m24.664.173c-1.017-.52-1.536-.54-2.12-.108-.39.26-.412.39-.174.909.563 1.212 2.791 1.948 3.462 1.147.433-.52-.108-1.407-1.168-1.948M12.635 55.71c-1.104-.628-2.553-.887-3.224-.541-1.839.93.606 3.831 3.202 3.831 1.277 0 1.71-.26 1.71-1.06 0-.78-.628-1.602-1.688-2.23m7.356-.108c-.974-.498-2.488-.606-2.9-.173-.713.714.152 2.294 1.71 3.095.649.346 2.401.325 2.747-.022.714-.714-.043-2.143-1.557-2.9m8.178.108c-.67-.346-2.294-.454-2.553-.195-.368.368-.108 1.299.476 1.905.368.346 1.06.758 1.58.93.821.239 1.016.217 1.514-.107.324-.217.584-.52.584-.693 0-.455-.866-1.472-1.601-1.84m10.017.173c-.909-.606-2.315-.67-2.748-.151-.26.303-.26.476.022.974.779 1.363 3.137 2.143 3.872 1.255.39-.476-.086-1.363-1.146-2.078m14.322-.043c-1.103-.563-1.687-.584-2.163-.108-.455.454-.455.563 0 1.19.476.693 1.514 1.169 2.488 1.169 1.493 0 1.276-1.429-.325-2.251m14.993-.628c-.887-.606-1.882-.67-2.293-.173-.606.736 1.168 2.251 2.466 2.121.498-.065.606-.195.606-.757 0-.498-.195-.801-.779-1.19m151.51 11.32c1.28-.114 3.573-.153 5.951-.13l.954.011c2.701.044 5.352.163 6.596.336 6.187.844 9.93 2.814 11.51 6.06.649 1.32.757 1.775.843 3.701.109 2.576-.432 5.108-1.6 7.49-1.06 2.207-3.808 4.848-6.318 6.081-4.37 2.165-8.59 2.88-16.81 2.9-9.974 0-14.994-1.211-17.936-4.328-2.142-2.273-2.812-4.913-2.207-8.615 1.407-8.268 7.335-12.488 19.018-13.506m55.077.433c3.346.005 6.02.09 6.02.195 0 .303-.756 3.977-1.562 7.719l-.162.748c-.755 3.487-1.512 6.841-1.693 7.377-1.472 4.458-5.323 7.359-11.683 8.787l-.185.041-.274.057-.09.017-.183.034c-1.563.28-3.436.34-10.692.414-2.107.024-3.77.038-5.07.04h-.91c-2.604-.008-3.388-.08-3.388-.235 0-.151.173-1.212.368-2.359l.368-2.078 5.82-.151c7.594-.173 9.714-.628 11.618-2.49 1.406-1.363 1.925-2.965 3.57-10.8l1.536-7.316Zm-46.055 4.416c-1.6-.433-4.954-.585-6.728-.303-4.003.606-7.053 2.489-8.416 5.151-1.169 2.294-1.623 6.19-.952 8.095.627 1.818 2.38 3.138 5.02 3.788 1.73.433 6.079.39 8.047-.087 2.012-.498 4.457-1.796 5.452-2.9 1.861-2.035 3.073-5.93 2.726-8.615-.346-2.51-2.185-4.35-5.149-5.13m-117.391-4.286c0 .087-1.017 5.714-2.272 12.51-1.255 6.819-2.272 12.554-2.272 12.75 0 .324 1.298.345 13.457.216 14.041-.13 15.275-.195 18.78-1.19 6.36-1.82 10.276-5.455 11.51-10.693.562-2.381.367-5.714-.412-7.403-1.493-3.225-5.43-5.367-11.185-6.06-2.142-.26-27.606-.368-27.606-.13m24.534 4.957c3.029.995 3.916 3.29 3.05 7.857-.865 4.545-2.877 6.796-6.88 7.64-1.081.216-3.245.325-7.594.325h-6.079l.13-.52c.194-.887 2.834-15.367 2.834-15.627 0-.173 1.86-.216 6.642-.152 5.603.065 6.837.152 7.897.477m38.056-4.935c-6.534.8-10.32 2.316-13.306 5.303-1.925 1.948-2.942 3.766-3.678 6.666-.606 2.446-.497 5.433.281 7.078 1.104 2.294 3.31 3.94 6.816 5.13 3.266 1.082 4.846 1.19 16.572 1.212l10.796.021.26-1.234c.15-.67.346-1.71.432-2.315l.152-1.083-9.736-.065c-8.481-.086-9.887-.151-10.904-.476-2.272-.757-3.245-2.078-3.245-4.35v-1.277h25.118l.346-2.1c.216-1.147.325-2.164.26-2.272-.044-.087-5.647-.174-12.462-.174H168.58l.26-.606c.93-2.164 2.574-3.571 5.17-4.437 1.407-.476 1.991-.498 11.034-.627l9.542-.109.367-1.71c.217-.93.39-1.926.39-2.207l.043-.52-10.753.043c-5.884 0-11.033.065-11.401.109m126.695.108c-1.97.26-5.323 1.082-7.162 1.775-2.855 1.082-5.776 3.506-7.226 6.039-1.255 2.164-1.86 4.48-1.882 7.272-.022 2.23.043 2.619.563 3.745 1.19 2.554 4.283 4.675 8.264 5.692 2.423.606 7.854.887 18 .887h8.005l.13-.844c.087-.476.282-1.493.455-2.25.151-.78.216-1.473.151-1.537-.065-.065-4.11-.13-8.979-.13-5.235 0-9.432-.109-10.255-.238-3.093-.542-4.76-2.208-4.608-4.654l.065-1.125 12.527-.065 12.505-.065.368-2.013c.216-1.104.39-2.121.39-2.273 0-.173-3.484-.26-12.398-.26-8.416 0-12.375-.065-12.375-.216 0-1.126 2.272-3.593 4.002-4.35 2.207-.975 3.592-1.104 12.96-1.104h8.913l.238-1.3c.152-.735.347-1.752.455-2.272l.173-.974-10.818.022c-5.95.021-11.553.13-12.461.238m60.21 19.263c3.007-1.406 5.993 1.754 4.349 4.589a3.47 3.47 0 0 1-2.943 1.645c-3.483 0-4.565-4.762-1.406-6.234M366 66.964l-.151.844c-.087.476-.282 1.472-.412 2.23l-.28 1.363-6.946.065-6.966.044-.13.627c-.065.347-.844 4.567-1.71 9.372-.886 4.805-1.708 9.286-1.838 9.935l-.238 1.212-5.56-.022h-.936c-3.534-.007-4.603-.061-4.603-.28 0-.152.844-4.87 1.882-10.498l1.883-10.238-6.902-.065-6.923-.043.151-.736c.044-.206.109-.563.179-.974l.071-.426.072-.44.068-.433.26-1.537zm-3.202 20.108c-1.385-.714-2.856-.217-3.526 1.169-1.06 2.25 1.081 4.588 3.353 3.636 1.947-.801 2.055-3.831.173-4.805m-1.471.346c.714 0 1.146.13 1.471.455.563.562.563.714-.022 1.45l-.454.584.476.693c.454.65.476.67.043.67-.26 0-.584-.302-.843-.778-.238-.433-.563-.801-.736-.801s-.281.303-.281.8c0 .542-.109.78-.346.78-.282 0-.325-.346-.325-1.927v-1.926Zm.346.671c-.584 0-.692.087-.692.585 0 .519.086.584.627.519.454-.043.65-.216.692-.584.065-.433-.021-.52-.627-.52"/>
</svg>