<svg xmlns="http://www.w3.org/2000/svg" viewBox="0 0 202 165">
<path fill="#2db7b8" fill-rule="evenodd" d="m101 0 101 163H0zm26.384 122.857q-2.895 0-5.392 1.032a13.7 13.7 0 0 0-4.395 2.884 13.4 13.4 0 0 0-2.958 4.292q-1.06 2.441-1.06 5.257 0 2.802 1.06 5.266a13.6 13.6 0 0 0 7.295 7.226q2.486 1.044 5.358 1.044 1.835 0 3.59-.488a14.6 14.6 0 0 0 3.353-1.4 14.7 14.7 0 0 0 2.879-2.137l-1.827-1.885a12.1 12.1 0 0 1-3.63 2.356q-2.042.861-4.227.861-2.234 0-4.193-.847a11 11 0 0 1-3.45-2.338 10.74 10.74 0 0 1-3.151-7.68q0-2.272.83-4.243a10.7 10.7 0 0 1 2.321-3.462 10.9 10.9 0 0 1 3.45-2.326 10.6 10.6 0 0 1 4.193-.836q2.184 0 4.25.881a11.1 11.1 0 0 1 3.607 2.46l1.789-2.07q-1.259-1.215-2.813-2.068a14.7 14.7 0 0 0-3.3-1.315 13.9 13.9 0 0 0-3.579-.464m-19.343.221h-3.026v26.55h3.026zm52.555 0h-18.01v26.55h18.494v-2.638h-15.467v-9.532h13.38v-2.614h-13.38v-9.129h14.983z"/>
</svg>