<svg xmlns="http://www.w3.org/2000/svg" viewBox="0 0 64 64"><path fill="#000" fill-rule="evenodd" d="M63.652 60.174a3.48 3.48 0 0 1-3.478 3.478H36.696a3.478 3.478 0 1 1 0-6.956h23.478a3.48 3.48 0 0 1 3.478 3.478m0-56.348a3.48 3.48 0 0 1-3.478 3.478H36.696a3.478 3.478 0 1 1 0-6.956h23.478a3.48 3.48 0 0 1 3.478 3.478m0 18.783a3.48 3.48 0 0 1-3.478 3.478H36.696a3.478 3.478 0 1 1 0-6.957h23.478a3.48 3.48 0 0 1 3.478 3.479m0 18.782a3.48 3.48 0 0 1-3.478 3.479H36.696a3.478 3.478 0 1 1 0-6.957h23.478a3.48 3.48 0 0 1 3.478 3.478M28.435 6.957v14.87a6.61 6.61 0 0 1-6.609 6.608H6.956a6.61 6.61 0 0 1-6.608-6.609V6.956A6.61 6.61 0 0 1 6.957.349h14.87a6.61 6.61 0 0 1 6.608 6.609m-21.13.347v14.174h14.173V7.304Zm21.13 34.87v14.87a6.61 6.61 0 0 1-6.609 6.608H6.956a6.61 6.61 0 0 1-6.608-6.609v-14.87a6.61 6.61 0 0 1 6.609-6.608h14.87a6.61 6.61 0 0 1 6.608 6.609m-21.13.348v14.174h14.173V42.522Z"/></svg>