<svg xmlns="http://www.w3.org/2000/svg" viewBox="0 0 259 266">
<g fill="none" fill-rule="evenodd">
<path fill="#612e6c" d="M256.526 58.816 128.763 2 1 58.816v149.143l127.763 56.817 127.763-56.817z"/>
<path fill="#7b4885" d="M1 58.816 128.763 2l127.763 56.816-127.763 56.817z"/>
<path fill="#411f48" d="M128.763 115.633v149.143l127.763-56.817V58.816z"/>
<path stroke="#080708" stroke-linecap="round" stroke-linejoin="round" stroke-width="2.37" d="M257 58.949v149.01l-127.763 56.817L1.474 207.959V58.982L129.237 2z"/>
<path fill="#2aa7ad" d="m38.37 134.676 25.619-6.432 26.064 27.753v34.12l-26.064 6.742-25.62-27.862z"/>
<path fill="#d4d8de" d="M63.998 108.267v19.902l-25.625 6.409v34.192l25.625 27.758v17.248l-40.225-43.062v-51.988z"/>
<path fill="#333338" d="m63.998 108.267 40.805 44.057v51.847l-40.805 9.605v-17.248l26.069-6.717v-33.993l-26.07-27.65z"/>
<path fill="#222226" d="m104.803 152.324-14.736 3.494v33.993l14.736 14.36zM39.709 187.775l13.5-3.191 10.789 11.944v17.248z"/>
<path fill="#404247" d="m63.998 128.169 26.068 27.65v33.992l-26.068 6.717-25.626-27.759v-34.192zm.221 5.475-21.67 5.698v27.903l21.625 23.547 21.626-5.87v-27.981z"/>
<path fill="#9da4ab" d="m63.998 128.169-25.625 6.409v34.192l25.625 27.758v3.556l-28.203-30.67v-37.84l28.203-6.993z"/>
<path fill="#d4d8de" d="m63.998 124.58 28.704 30.62v37.213l-28.704 7.67v-3.555l26.069-6.717v-33.993l-26.07-27.65z"/>
<path stroke="#080708" stroke-linecap="round" stroke-linejoin="round" stroke-width="2.37" d="m1.474 58.784 127.289 56.783 127.763-56.783M129.237 115.567v149.057"/>
</g>
</svg>