<svg xmlns="http://www.w3.org/2000/svg" viewBox="0 0 1440 1605"><g fill="#2db7b8" stroke="#000" stroke-width="2"><path d="M540 1575h15v15h-15zM585 1560h15v15h-15zM570 1560h15v15h-15zM540 1560h15v15h-15zM525 1560h15v15h-15zM510 1560h15v15h-15zM495 1560h15v15h-15zM480 1590h15v15h-15zM480 1575h15v15h-15zM570 1545h15v15h-15zM540 1545h15v15h-15zM525 1545h15v15h-15zM510 1545h15v15h-15zM495 1545h15v15h-15zM510 1530h15v15h-15zM495 1530h15v15h-15zM480 1530h15v15h-15zM570 1515h15v15h-15zM525 1515h15v15h-15zM510 1515h15v15h-15zM480 1515h15v15h-15zM585 1500h15v15h-15zM570 1530h15v15h-15zM570 1500h15v15h-15zM555 1500h15v15h-15zM540 1500h15v15h-15zM510 1500h15v15h-15zM585 1485h15v15h-15zM570 1485h15v15h-15zM555 1485h15v15h-15zM525 1485h15v15h-15zM480 1485h15v15h-15zM585 1470h15v15h-15zM570 1470h15v15h-15zM510 1470h15v15h-15zM510 1485h15v15h-15zM480 1470h15v15h-15zM555 1455h15v15h-15zM540 1455h15v15h-15zM525 1455h15v15h-15zM480 1455h15v15h-15zM585 1440h15v15h-15zM570 1440h15v15h-15zM555 1440h15v15h-15zM525 1440h15v15h-15zM510 1440h15v15h-15zM495 1440h15v15h-15zM570 1425h15v15h-15zM555 1425h15v15h-15zM540 1425h15v15h-15zM585 1410h15v15h-15zM570 1410h15v15h-15zM555 1410h15v15h-15zM540 1410h15v15h-15zM525 1410h15v15h-15zM510 1410h15v15h-15zM495 1410h15v15h-15zM480 1425h15v15h-15zM570 1395h15v15h-15zM555 1395h15v15h-15zM540 1395h15v15h-15zM525 1395h15v15h-15zM510 1395h15v15h-15zM495 1395h15v15h-15zM555 1380h15v15h-15zM540 1380h15v15h-15zM510 1380h15v15h-15zM495 1380h15v15h-15zM480 1380h15v15h-15zM570 1365h15v15h-15zM540 1365h15v15h-15zM525 1365h15v15h-15zM510 1365h15v15h-15zM480 1365h15v15h-15zM585 1350h15v15h-15zM570 1380h15v15h-15zM570 1350h15v15h-15zM555 1350h15v15h-15zM540 1350h15v15h-15zM525 1350h15v15h-15zM510 1350h15v15h-15zM585 1335h15v15h-15zM570 1335h15v15h-15zM555 1335h15v15h-15zM525 1335h15v15h-15zM480 1335h15v15h-15zM585 1320h15v15h-15zM570 1320h15v15h-15zM510 1320h15v15h-15zM510 1335h15v15h-15zM480 1320h15v15h-15zM555 1305h15v15h-15zM540 1305h15v15h-15zM525 1305h15v15h-15zM480 1305h15v15h-15zM585 1290h15v15h-15zM570 1290h15v15h-15zM555 1290h15v15h-15zM525 1290h15v15h-15zM510 1290h15v15h-15zM495 1290h15v15h-15zM1020 1575h15v15h-15zM1005 1575h15v15h-15zM990 1575h15v15h-15zM1035 1560h15v15h-15zM1020 1560h15v15h-15zM1005 1560h15v15h-15zM990 1560h15v15h-15zM975 1560h15v15h-15zM1020 1545h15v15h-15zM1005 1545h15v15h-15zM990 1545h15v15h-15zM975 1545h15v15h-15zM1005 1530h15v15h-15zM990 1530h15v15h-15zM960 1530h15v15h-15zM1020 1515h15v15h-15zM990 1515h15v15h-15zM975 1515h15v15h-15zM960 1515h15v15h-15zM1035 1500h15v15h-15zM1035 1530h15v15h-15zM1020 1500h15v15h-15zM1005 1500h15v15h-15zM990 1500h15v15h-15zM975 1500h15v15h-15zM960 1500h15v15h-15zM1035 1485h15v15h-15zM1020 1485h15v15h-15zM1005 1485h15v15h-15zM975 1485h15v15h-15zM930 1485h15v15h-15zM1020 1470h15v15h-15zM960 1470h15v15h-15zM945 1470h15v15h-15zM945 1500h15v15h-15zM960 1485h15v15h-15zM930 1470h15v15h-15zM915 1470h15v15h-15zM1005 1455h15v15h-15zM990 1455h15v15h-15zM975 1455h15v15h-15zM930 1455h15v15h-15zM915 1455h15v15h-15zM975 1440h15v15h-15zM960 1440h15v15h-15zM945 1440h15v15h-15zM915 1425h15v15h-15zM915 1395h15v15h-15zM945 1455h15v15h-15zM915 1440h15v15h-15zM1020 525h15v15h-15zM1005 525h15v15h-15zM990 525h15v15h-15zM1035 510h15v15h-15zM1035 525h15v15h-15zM1050 525h15v15h-15zM1065 510h15v15h-15zM1080 495h15v15h-15zM1005 510h15v15h-15zM990 510h15v15h-15zM975 510h15v15h-15zM960 510h15v15h-15zM945 510h15v15h-15zM930 510h15v15h-15zM915 510h15v15h-15zM900 510h15v15h-15zM1020 495h15v15h-15zM1005 495h15v15h-15zM990 495h15v15h-15zM975 495h15v15h-15zM960 495h15v15h-15zM945 495h15v15h-15zM990 480h15v15h-15zM960 480h15v15h-15zM945 480h15v15h-15zM930 480h15v15h-15zM1020 465h15v15h-15zM990 465h15v15h-15zM975 465h15v15h-15zM1035 450h15v15h-15zM1050 450h15v15h-15zM1065 435h15v15h-15zM1080 420h15v15h-15zM1020 450h15v15h-15zM900 450h15v15h-15zM975 435h15v15h-15zM930 435h15v15h-15zM915 435h15v15h-15zM900 435h15v15h-15zM1020 420h15v15h-15zM960 420h15v15h-15zM960 435h15v15h-15zM930 420h15v15h-15zM915 420h15v15h-15zM900 420h15v15h-15zM1005 405h15v15h-15zM990 405h15v15h-15zM975 405h15v15h-15zM930 405h15v15h-15zM915 405h15v15h-15zM1035 390h15v15h-15zM1050 375h15v15h-15zM1020 390h15v15h-15zM1005 390h15v15h-15zM975 390h15v15h-15zM960 390h15v15h-15zM945 390h15v15h-15zM915 390h15v15h-15zM900 375h15v15h-15zM135 1110h15v15h-15zM120 1110h15v15h-15zM105 1110h15v15h-15zM90 1110h15v15H90zM75 1110h15v15H75zM60 1110h15v15H60zM45 1110h15v15H45zM30 1110h15v15H30zM15 1110h15v15H15zM0 1110h15v15H0zM105 1095h15v15h-15zM90 1095h15v15H90zM75 1095h15v15H75zM60 1095h15v15H60zM45 1095h15v15H45zM105 1080h15v15h-15zM90 1080h15v15H90zM60 1080h15v15H60zM45 1080h15v15H45zM30 1080h15v15H30zM15 1080h15v15H15zM0 1080h15v15H0zM120 1065h15v15h-15zM90 1065h15v15H90zM75 1065h15v15H75zM60 1065h15v15H60zM30 1065h15v15H30zM120 1080h15v15h-15zM120 1050h15v15h-15zM105 1050h15v15h-15zM90 1050h15v15H90zM75 1050h15v15H75zM60 1050h15v15H60zM15 1050h15v15H15zM15 1065h15v15H15zM0 1050h15v15H0zM120 1035h15v15h-15zM105 1035h15v15h-15zM75 1035h15v15H75zM30 1035h15v15H30zM15 1035h15v15H15zM0 1035h15v15H0zM135 1020h15v15h-15zM120 1020h15v15h-15zM60 1020h15v15H60zM60 1035h15v15H60zM30 1020h15v15H30zM15 1020h15v15H15zM0 1020h15v15H0zM90 1005h15v15H90zM75 1005h15v15H75zM30 1005h15v15H30zM15 1005h15v15H15zM135 990h15v15h-15zM75 990h15v15H75zM60 990h15v15H60zM45 990h15v15H45zM15 990h15v15H15zM120 825h15v15h-15zM105 825h15v15h-15zM90 825h15v15H90zM15 825h15v15H15zM135 810h15v15h-15zM120 810h15v15h-15zM105 810h15v15h-15zM90 810h15v15H90zM75 810h15v15H75zM45 810h15v15H45zM30 825h15v15H30zM30 810h15v15H30zM15 810h15v15H15zM0 810h15v15H0zM120 795h15v15h-15zM105 795h15v15h-15zM90 795h15v15H90zM75 795h15v15H75zM105 780h15v15h-15zM90 780h15v15H90zM60 780h15v15H60zM30 780h15v15H30zM15 780h15v15H15zM0 780h15v15H0zM120 765h15v15h-15zM90 765h15v15H90zM75 765h15v15H75zM60 765h15v15H60zM30 765h15v15H30zM120 780h15v15h-15zM120 750h15v15h-15zM105 750h15v15h-15zM90 750h15v15H90zM75 750h15v15H75zM60 750h15v15H60zM15 750h15v15H15zM15 765h15v15H15zM0 750h15v15H0zM105 735h15v15h-15zM75 735h15v15H75zM15 735h15v15H15zM0 735h15v15H0zM60 720h15v15H60zM60 735h15v15H60zM0 720h15v15H0zM105 705h15v15h-15zM90 705h15v15H90zM75 705h15v15H75zM15 705h15v15H15zM120 690h15v15h-15zM105 690h15v15h-15zM75 690h15v15H75zM60 690h15v15H60zM45 690h15v15H45zM15 690h15v15H15zM105 675h15v15h-15zM90 675h15v15H90zM135 660h15v15h-15zM105 660h15v15h-15zM90 660h15v15H90zM75 660h15v15H75zM60 660h15v15H60zM45 660h15v15H45zM30 675h15v15H30zM0 660h15v15H0zM105 645h15v15h-15zM90 645h15v15H90zM75 645h15v15H75zM60 645h15v15H60zM45 645h15v15H45zM105 630h15v15h-15zM90 630h15v15H90zM60 630h15v15H60zM45 630h15v15H45zM0 630h15v15H0zM90 615h15v15H90zM75 615h15v15H75zM60 615h15v15H60zM30 615h15v15H30zM90 600h15v15H90zM75 600h15v15H75zM60 600h15v15H60zM0 600h15v15H0zM75 585h15v15H75zM30 585h15v15H30zM0 585h15v15H0zM60 570h15v15H60zM60 585h15v15H60zM90 555h15v15H90zM75 540h15v15H75zM60 540h15v15H60zM690 1575h15v15h-15zM705 1590h15v15h-15zM645 1575h15v15h-15zM675 1560h15v15h-15zM675 1545h15v15h-15zM660 1590h15v15h-15zM630 1590h15v15h-15zM615 1590h15v15h-15zM645 1560h15v15h-15zM630 1560h15v15h-15zM615 1545h15v15h-15zM525 1590h15v15h-15zM645 1545h15v15h-15zM600 1545h15v15h-15zM510 1590h15v15h-15zM660 1530h15v15h-15zM630 1530h15v15h-15zM615 1530h15v15h-15zM525 1575h15v15h-15zM645 1515h15v15h-15zM660 1500h15v15h-15zM645 1500h15v15h-15zM615 1500h15v15h-15zM600 1500h15v15h-15zM645 1485h15v15h-15zM630 1485h15v15h-15zM615 1470h15v15h-15zM645 1455h15v15h-15zM615 1455h15v15h-15zM600 1455h15v15h-15zM615 1440h15v15h-15zM570 1275h15v15h-15zM540 1275h15v15h-15zM495 1275h15v15h-15zM525 1260h15v15h-15zM495 1260h15v15h-15zM480 1260h15v15h-15zM585 1245h15v15h-15zM570 1245h15v15h-15zM555 1245h15v15h-15zM525 1245h15v15h-15zM495 1245h15v15h-15zM555 1230h15v15h-15zM525 1230h15v15h-15zM510 1230h15v15h-15zM480 1230h15v15h-15zM525 1215h15v15h-15zM495 1215h15v15h-15zM540 1200h15v15h-15zM525 1200h15v15h-15zM510 1200h15v15h-15zM495 1200h15v15h-15zM525 1185h15v15h-15zM495 1185h15v15h-15zM480 1185h15v15h-15zM480 1110h15v15h-15zM465 1125h15v15h-15zM465 1140h15v15h-15zM450 1125h15v15h-15zM465 1110h15v15h-15zM510 1170h15v15h-15zM510 1155h15v15h-15zM465 1575h15v15h-15zM450 1575h15v15h-15zM465 1560h15v15h-15zM450 1560h15v15h-15zM450 1545h15v15h-15zM465 1530h15v15h-15zM450 1530h15v15h-15zM450 1515h15v15h-15zM465 1500h15v15h-15zM450 1485h15v15h-15zM450 1500h15v15h-15zM465 1470h15v15h-15zM465 1455h15v15h-15zM450 1455h15v15h-15zM465 1425h15v15h-15zM450 1425h15v15h-15zM465 1410h15v15h-15zM450 1410h15v15h-15zM450 1395h15v15h-15zM465 1380h15v15h-15zM450 1380h15v15h-15zM465 1365h15v15h-15zM450 1365h15v15h-15zM465 1350h15v15h-15zM450 1335h15v15h-15zM450 1350h15v15h-15zM465 1320h15v15h-15zM465 1305h15v15h-15zM450 1305h15v15h-15zM465 1280h15v15h-15zM465 1265h15v15h-15zM465 1250h15v15h-15zM450 1250h15v15h-15zM465 1235h15v15h-15zM465 1220h15v15h-15zM450 1220h15v15h-15zM465 1205h15v15h-15zM450 1190h15v15h-15zM450 1175h15v15h-15zM495 1155h15v15h-15zM495 1140h15v15h-15zM435 1530h15v15h-15zM420 1530h15v15h-15zM405 1530h15v15h-15zM390 1545h15v15h-15zM390 1530h15v15h-15zM435 1515h15v15h-15zM420 1515h15v15h-15zM420 1560h15v15h-15zM420 1545h15v15h-15zM375 1590h15v15h-15zM405 1590h15v15h-15zM435 1575h15v15h-15zM480 1545h15v15h-15zM450 1590h15v15h-15zM120 1575h15v15h-15zM135 1575h15v15h-15zM165 1560h15v15h-15zM150 1560h15v15h-15zM120 1560h15v15h-15zM105 1560h15v15h-15zM90 1575h15v15H90zM105 1590h15v15h-15zM90 1560h15v15H90zM75 1560h15v15H75zM60 1575h15v15H60zM60 1590h15v15H60zM60 1560h15v15H60zM150 1545h15v15h-15zM120 1545h15v15h-15zM105 1545h15v15h-15zM90 1545h15v15H90zM75 1545h15v15H75zM90 1530h15v15H90zM75 1530h15v15H75zM60 1530h15v15H60zM150 1530h15v15h-15zM270 1575h15v15h-15zM285 1590h15v15h-15zM225 1575h15v15h-15zM255 1560h15v15h-15zM240 1590h15v15h-15zM225 1560h15v15h-15zM210 1560h15v15h-15zM195 1545h15v15h-15zM225 1545h15v15h-15zM180 1545h15v15h-15zM240 1530h15v15h-15zM210 1530h15v15h-15zM195 1530h15v15h-15zM45 1575h15v15H45zM30 1575h15v15H30zM15 1590h15v15H15zM0 1590h15v15H0zM45 1560h15v15H45zM30 1560h15v15H30zM30 1545h15v15H30zM45 1530h15v15H45zM30 1530h15v15H30zM15 1530h15v15H15zM0 1530h15v15H0zM0 1560h15v15H0zM0 1545h15v15H0zM405 1515h15v15h-15zM420 1500h15v15h-15zM405 1500h15v15h-15zM390 1500h15v15h-15zM435 1485h15v15h-15zM420 1485h15v15h-15zM390 1485h15v15h-15zM420 1470h15v15h-15zM435 1455h15v15h-15zM390 1455h15v15h-15zM420 1440h15v15h-15zM420 1455h15v15h-15zM390 1440h15v15h-15zM435 1425h15v15h-15zM390 1425h15v15h-15zM435 1410h15v15h-15zM420 1410h15v15h-15zM405 1410h15v15h-15zM435 1380h15v15h-15zM420 1380h15v15h-15zM405 1380h15v15h-15zM390 1395h15v15h-15zM435 1365h15v15h-15zM420 1365h15v15h-15zM405 1365h15v15h-15zM420 1350h15v15h-15zM405 1350h15v15h-15zM390 1350h15v15h-15zM435 1335h15v15h-15zM420 1335h15v15h-15zM390 1335h15v15h-15zM435 1320h15v15h-15zM420 1320h15v15h-15zM435 1305h15v15h-15zM390 1305h15v15h-15zM420 1290h15v15h-15zM420 1305h15v15h-15zM390 1290h15v15h-15zM435 1275h15v15h-15zM390 1275h15v15h-15zM435 1260h15v15h-15zM420 1260h15v15h-15zM405 1260h15v15h-15zM405 1245h15v15h-15zM435 1230h15v15h-15zM405 1230h15v15h-15zM390 1230h15v15h-15zM435 1215h15v15h-15zM405 1215h15v15h-15zM435 1200h15v15h-15zM420 1200h15v15h-15zM390 1200h15v15h-15zM435 1185h15v15h-15zM405 1185h15v15h-15zM435 1170h15v15h-15zM420 1170h15v15h-15zM405 1170h15v15h-15zM435 1155h15v15h-15zM405 1155h15v15h-15zM390 1155h15v15h-15zM375 1515h15v15h-15zM360 1530h15v15h-15zM360 1515h15v15h-15zM375 1500h15v15h-15zM375 1485h15v15h-15zM360 1485h15v15h-15zM360 1470h15v15h-15zM360 1440h15v15h-15zM360 1425h15v15h-15zM360 1410h15v15h-15zM375 1395h15v15h-15zM375 1365h15v15h-15zM360 1380h15v15h-15zM375 1350h15v15h-15zM375 1335h15v15h-15zM360 1335h15v15h-15zM360 1320h15v15h-15zM360 1290h15v15h-15zM360 1275h15v15h-15zM360 1260h15v15h-15zM375 1245h15v15h-15zM375 1230h15v15h-15zM375 1215h15v15h-15zM360 1215h15v15h-15zM375 1200h15v15h-15zM360 1185h15v15h-15zM375 1170h15v15h-15z"/><path d="M361 1170h15v15h-15zM375 1155h15v15h-15zM375 1140h15v15h-15zM360 1140h15v15h-15zM420 1140h15v15h-15zM420 1125h15v15h-15zM405 1125h15v15h-15zM405 1110h15v15h-15zM585 1095h15v15h-15zM585 1080h15v15h-15zM570 1095h15v15h-15zM450 1095h15v15h-15zM555 1080h15v15h-15zM570 1065h15v15h-15zM585 1050h15v15h-15zM570 1050h15v15h-15zM540 1050h15v15h-15zM570 1035h15v15h-15zM525 1035h15v15h-15zM510 1020h15v15h-15zM510 1005h15v15h-15zM495 1005h15v15h-15zM495 990h15v15h-15zM675 960h15v15h-15zM645 960h15v15h-15zM675 945h15v15h-15zM645 945h15v15h-15zM660 930h15v15h-15zM630 930h15v15h-15zM615 930h15v15h-15zM645 915h15v15h-15zM720 900h15v15h-15zM705 900h15v15h-15zM705 915h15v15h-15zM615 900h15v15h-15zM600 900h15v15h-15zM720 885h15v15h-15zM615 870h15v15h-15zM735 855h15v15h-15zM705 855h15v15h-15zM600 855h15v15h-15zM735 840h15v15h-15zM720 840h15v15h-15zM495 975h15v15h-15zM495 960h15v15h-15zM480 960h15v15h-15zM465 945h15v15h-15zM450 945h15v15h-15zM480 930h15v15h-15zM465 930h15v15h-15zM585 900h15v15h-15zM570 900h15v15h-15zM450 900h15v15h-15zM570 885h15v15h-15zM540 870h15v15h-15zM585 855h15v15h-15zM555 855h15v15h-15zM540 855h15v15h-15zM540 840h15v15h-15zM720 825h15v15h-15zM690 825h15v15h-15zM675 810h15v15h-15zM705 795h15v15h-15zM675 795h15v15h-15zM645 795h15v15h-15zM675 780h15v15h-15zM660 780h15v15h-15zM630 780h15v15h-15zM645 765h15v15h-15zM615 750h15v15h-15zM600 750h15v15h-15zM630 735h15v15h-15zM615 720h15v15h-15zM600 705h15v15h-15zM435 780h15v15h-15zM345 795h15v15h-15zM330 780h15v15h-15zM420 765h15v15h-15zM435 750h15v15h-15zM420 750h15v15h-15zM315 750h15v15h-15zM420 735h15v15h-15zM390 720h15v15h-15zM390 705h15v15h-15zM360 705h15v15h-15zM345 690h15v15h-15zM1320 675h15v15h-15zM1245 675h15v15h-15zM1245 660h15v15h-15zM1230 660h15v15h-15zM1215 645h15v15h-15zM1215 660h15v15h-15zM1200 675h15v15h-15zM1200 690h15v15h-15zM1170 705h15v15h-15zM1170 720h15v15h-15zM1155 720h15v15h-15zM1155 735h15v15h-15zM1335 645h15v15h-15zM1335 630h15v15h-15zM1320 645h15v15h-15zM1245 645h15v15h-15zM1200 645h15v15h-15zM1260 630h15v15h-15zM1230 630h15v15h-15zM1215 630h15v15h-15zM1275 615h15v15h-15zM1245 615h15v15h-15zM1290 600h15v15h-15zM1275 600h15v15h-15zM1260 600h15v15h-15zM1245 600h15v15h-15zM1215 600h15v15h-15zM1200 600h15v15h-15zM1185 615h15v15h-15zM1170 630h15v15h-15zM1155 645h15v15h-15zM1155 660h15v15h-15zM1155 675h15v15h-15zM1140 690h15v15h-15zM1125 705h15v15h-15zM1125 720h15v15h-15zM1275 585h15v15h-15zM1245 585h15v15h-15zM1230 585h15v15h-15zM1290 570h15v15h-15zM1305 570h15v15h-15zM1260 570h15v15h-15zM1335 555h15v15h-15zM1305 555h15v15h-15zM1290 555h15v15h-15zM1260 555h15v15h-15zM1335 540h15v15h-15zM1320 540h15v15h-15zM1290 540h15v15h-15zM675 660h15v15h-15zM645 660h15v15h-15zM630 660h15v15h-15zM615 645h15v15h-15zM735 630h15v15h-15zM675 645h15v15h-15zM645 645h15v15h-15zM600 645h15v15h-15zM705 630h15v15h-15zM675 630h15v15h-15zM660 630h15v15h-15zM720 615h15v15h-15zM735 600h15v15h-15zM720 585h15v15h-15zM615 555h15v15h-15zM600 555h15v15h-15zM735 540h15v15h-15zM720 540h15v15h-15zM690 540h15v15h-15zM645 540h15v15h-15zM615 540h15v15h-15zM1410 375h15v15h-15zM1380 375h15v15h-15zM1425 330h15v15h-15zM1395 330h15v15h-15zM1410 315h15v15h-15zM1425 300h15v15h-15zM1410 300h15v15h-15zM1380 300h15v15h-15zM1410 285h15v15h-15zM1365 285h15v15h-15zM1335 285h15v15h-15zM1320 285h15v15h-15zM1380 270h15v15h-15zM1350 270h15v15h-15zM1305 270h15v15h-15zM1425 255h15v15h-15zM1395 255h15v15h-15zM1425 240h15v15h-15zM1425 210h15v15h-15zM1395 525h15v15h-15zM1425 510h15v15h-15zM1395 510h15v15h-15zM1380 510h15v15h-15zM1410 495h15v15h-15zM1410 510h15v15h-15zM1425 525h15v15h-15zM1380 525h15v15h-15zM1365 495h15v15h-15zM1425 495h15v15h-15zM1395 495h15v15h-15zM1425 480h15v15h-15zM1410 480h15v15h-15zM1425 465h15v15h-15zM1395 465h15v15h-15zM1410 420h15v15h-15zM1365 420h15v15h-15zM1410 405h15v15h-15zM1395 405h15v15h-15zM1365 405h15v15h-15zM1350 405h15v15h-15zM1395 390h15v15h-15zM1365 390h15v15h-15zM1170 975h15v15h-15zM1140 975h15v15h-15zM1125 960h15v15h-15zM1185 945h15v15h-15zM1185 930h15v15h-15zM1170 945h15v15h-15zM1155 945h15v15h-15zM1125 945h15v15h-15zM1095 945h15v15h-15zM1155 930h15v15h-15zM1125 930h15v15h-15zM1110 930h15v15h-15zM1065 930h15v15h-15zM1050 930h15v15h-15zM1170 915h15v15h-15zM1125 915h15v15h-15zM1095 915h15v15h-15zM1185 900h15v15h-15zM1170 900h15v15h-15zM1140 900h15v15h-15zM1125 900h15v15h-15zM1110 900h15v15h-15zM1095 900h15v15h-15zM1065 900h15v15h-15zM1170 885h15v15h-15zM1125 885h15v15h-15zM1095 885h15v15h-15zM1080 885h15v15h-15zM1140 870h15v15h-15zM1110 870h15v15h-15zM1065 870h15v15h-15zM1185 855h15v15h-15zM1155 855h15v15h-15zM1140 855h15v15h-15zM1110 855h15v15h-15zM1095 855h15v15h-15zM1065 855h15v15h-15zM1185 840h15v15h-15zM1170 840h15v15h-15zM1140 840h15v15h-15zM1095 840h15v15h-15zM1065 840h15v15h-15zM1170 1575h15v15h-15zM1140 1575h15v15h-15zM1095 1575h15v15h-15zM1095 1560h15v15h-15zM1080 1560h15v15h-15zM1050 1560h15v15h-15zM1065 1545h15v15h-15zM1185 1545h15v15h-15zM1185 1530h15v15h-15zM1170 1545h15v15h-15zM1155 1545h15v15h-15zM1095 1545h15v15h-15zM1050 1545h15v15h-15zM1050 1575h15v15h-15zM1065 1575h15v15h-15zM1110 1575h15v15h-15zM1035 1515h15v15h-15zM1080 1530h15v15h-15zM1050 1530h15v15h-15zM1065 1515h15v15h-15zM1050 1500h15v15h-15zM1185 1395h15v15h-15zM1185 1410h15v15h-15zM1200 1425h15v15h-15zM1185 1380h15v15h-15zM1170 1395h15v15h-15zM1155 1395h15v15h-15zM1155 1380h15v15h-15zM1170 1365h15v15h-15zM1125 1365h15v15h-15zM1185 1350h15v15h-15zM1170 1350h15v15h-15zM1140 1350h15v15h-15zM1125 1350h15v15h-15zM1110 1350h15v15h-15zM1170 1335h15v15h-15zM1185 1320h15v15h-15zM1200 1335h15v15h-15zM1155 1335h15v15h-15zM1125 1335h15v15h-15zM1095 1335h15v15h-15zM1080 1335h15v15h-15zM1140 1320h15v15h-15zM1110 1320h15v15h-15zM1065 1320h15v15h-15zM1185 1305h15v15h-15zM1155 1305h15v15h-15zM1140 1305h15v15h-15zM1110 1305h15v15h-15zM1095 1305h15v15h-15zM1110 1275h15v15h-15zM1125 1290h15v15h-15zM1065 1305h15v15h-15zM1185 1290h15v15h-15zM1170 1290h15v15h-15zM1140 1290h15v15h-15zM1095 1290h15v15h-15zM1065 1290h15v15h-15zM1035 1275h15v15h-15zM1320 1425h15v15h-15zM1305 1440h15v15h-15zM1305 1410h15v15h-15zM1290 1425h15v15h-15zM1290 1410h15v15h-15zM1245 1425h15v15h-15zM1275 1410h15v15h-15zM1260 1410h15v15h-15zM1275 1425h15v15h-15zM1245 1410h15v15h-15zM1230 1410h15v15h-15zM1215 1395h15v15h-15zM1320 1395h15v15h-15zM1305 1395h15v15h-15zM1275 1395h15v15h-15zM1245 1395h15v15h-15zM1200 1395h15v15h-15zM1305 1380h15v15h-15zM1275 1380h15v15h-15zM1260 1380h15v15h-15zM1230 1380h15v15h-15zM1215 1380h15v15h-15zM1245 1365h15v15h-15zM1215 1365h15v15h-15zM1260 1350h15v15h-15zM1245 1350h15v15h-15zM1215 1350h15v15h-15zM1200 1350h15v15h-15zM1245 1335h15v15h-15zM1230 1335h15v15h-15zM1215 1320h15v15h-15zM1215 1305h15v15h-15zM1200 1305h15v15h-15zM1215 1290h15v15h-15zM1335 1230h15v15h-15zM1320 1215h15v15h-15zM1335 1200h15v15h-15zM1320 1200h15v15h-15zM1290 1200h15v15h-15zM1320 1185h15v15h-15zM1275 1185h15v15h-15zM1245 1185h15v15h-15zM1230 1185h15v15h-15zM1290 1170h15v15h-15zM1260 1170h15v15h-15zM1335 1155h15v15h-15zM1305 1155h15v15h-15zM1290 1155h15v15h-15zM1260 1155h15v15h-15zM1245 1155h15v15h-15zM1215 1155h15v15h-15zM1335 1140h15v15h-15zM1290 1140h15v15h-15zM1245 1140h15v15h-15zM1215 1140h15v15h-15zM1395 1275h15v15h-15zM1425 1290h15v15h-15zM1425 1260h15v15h-15zM1395 1260h15v15h-15zM1380 1260h15v15h-15zM1365 1245h15v15h-15zM1425 1245h15v15h-15zM1395 1245h15v15h-15zM1425 1230h15v15h-15zM1410 1230h15v15h-15zM1380 1230h15v15h-15zM1365 1230h15v15h-15zM1425 1215h15v15h-15zM1395 1215h15v15h-15zM1410 1200h15v15h-15zM1395 1200h15v15h-15zM1365 1200h15v15h-15zM1350 1200h15v15h-15zM1425 1185h15v15h-15zM1380 1185h15v15h-15zM1410 1170h15v15h-15zM1365 1170h15v15h-15zM1410 1155h15v15h-15zM1395 1155h15v15h-15zM1365 1155h15v15h-15zM1395 1140h15v15h-15zM1365 1140h15v15h-15zM1170 1275h15v15h-15zM1140 1275h15v15h-15zM1095 1275h15v15h-15zM1125 1260h15v15h-15zM1095 1260h15v15h-15zM1080 1260h15v15h-15zM1065 1245h15v15h-15zM1095 1245h15v15h-15zM1050 1245h15v15h-15zM1065 1260h15v15h-15zM1050 1290h15v15h-15zM1080 1305h15v15h-15zM1080 1230h15v15h-15zM1065 1230h15v15h-15zM1050 1230h15v15h-15zM1035 1230h15v15h-15zM1035 1215h15v15h-15zM1095 1200h15v15h-15zM1050 1200h15v15h-15zM1065 1170h15v15h-15zM1065 1155h15v15h-15zM1050 1155h15v15h-15zM1185 1140h15v15h-15zM1170 1125h15v15h-15zM1170 1110h15v15h-15zM1155 1110h15v15h-15zM1185 1110h15v15h-15zM1200 1125h15v15h-15zM1185 1095h15v15h-15zM1185 1080h15v15h-15zM1170 1095h15v15h-15zM1155 1095h15v15h-15zM1125 1095h15v15h-15zM1155 1080h15v15h-15zM1125 1080h15v15h-15zM1140 1095h15v15h-15zM1110 1080h15v15h-15zM1170 1065h15v15h-15zM1125 1065h15v15h-15zM1095 1065h15v15h-15zM1185 1050h15v15h-15zM1170 1050h15v15h-15zM1140 1050h15v15h-15zM1155 1050h15v15h-15zM1125 1050h15v15h-15zM1110 1050h15v15h-15zM1095 1050h15v15h-15zM1065 1050h15v15h-15zM1170 1035h15v15h-15zM1140 1035h15v15h-15zM1125 1035h15v15h-15zM1095 1035h15v15h-15zM1080 1035h15v15h-15zM1140 1020h15v15h-15zM1110 1020h15v15h-15zM1065 1020h15v15h-15zM1185 1005h15v15h-15zM1155 1005h15v15h-15zM1110 1005h15v15h-15zM1095 1005h15v15h-15zM1080 1005h15v15h-15zM1095 1020h15v15h-15zM1065 1005h15v15h-15zM1050 1005h15v15h-15zM1185 990h15v15h-15zM1170 990h15v15h-15zM1140 990h15v15h-15zM1065 990h15v15h-15zM1050 990h15v15h-15zM1050 975h15v15h-15zM225 1110h15v15h-15zM195 1110h15v15h-15zM180 1110h15v15h-15zM165 1095h15v15h-15zM285 1095h15v15h-15zM285 1080h15v15h-15zM270 1095h15v15h-15zM255 1095h15v15h-15zM225 1095h15v15h-15zM195 1095h15v15h-15zM150 1095h15v15h-15zM255 1080h15v15h-15zM225 1080h15v15h-15zM210 1080h15v15h-15zM180 1080h15v15h-15zM165 1080h15v15h-15zM270 1065h15v15h-15zM225 1065h15v15h-15zM195 1065h15v15h-15zM285 1050h15v15h-15zM270 1050h15v15h-15zM240 1050h15v15h-15zM225 1050h15v15h-15zM210 1050h15v15h-15zM195 1050h15v15h-15zM165 1050h15v15h-15zM270 1035h15v15h-15zM285 1035h15v15h-15zM225 1035h15v15h-15zM195 1035h15v15h-15zM180 1035h15v15h-15zM240 1020h15v15h-15zM210 1020h15v15h-15zM165 1020h15v15h-15zM285 1005h15v15h-15zM255 1005h15v15h-15zM240 1005h15v15h-15zM210 1005h15v15h-15zM195 1005h15v15h-15zM165 1005h15v15h-15zM150 1005h15v15h-15zM285 990h15v15h-15zM270 990h15v15h-15zM240 990h15v15h-15zM195 990h15v15h-15zM165 990h15v15h-15zM375 1110h15v15h-15zM345 1110h15v15h-15zM330 1110h15v15h-15zM315 1095h15v15h-15zM435 1095h15v15h-15zM435 1080h15v15h-15zM420 1095h15v15h-15zM405 1095h15v15h-15zM375 1095h15v15h-15zM345 1095h15v15h-15zM300 1095h15v15h-15zM300 1110h15v15h-15zM105 1125h15v15h-15zM90 1125h15v15H90zM75 1125h15v15H75zM60 1125h15v15H60zM45 1125h15v15H45zM165 1125h15v15h-15zM285 1125h15v15h-15zM270 1125h15v15h-15zM255 1125h15v15h-15zM225 1125h15v15h-15zM195 1125h15v15h-15zM150 1125h15v15h-15zM315 1125h15v15h-15zM375 1125h15v15h-15zM345 1125h15v15h-15zM300 1125h15v15h-15zM405 1080h15v15h-15zM375 1080h15v15h-15zM360 1080h15v15h-15zM330 1080h15v15h-15zM315 1080h15v15h-15zM420 1065h15v15h-15zM375 1065h15v15h-15zM345 1065h15v15h-15zM435 1050h15v15h-15zM420 1050h15v15h-15zM390 1050h15v15h-15zM375 1050h15v15h-15zM360 1050h15v15h-15zM345 1050h15v15h-15zM315 1050h15v15h-15zM300 1050h15v15h-15zM420 1035h15v15h-15zM375 1035h15v15h-15zM345 1035h15v15h-15zM330 1035h15v15h-15zM390 1020h15v15h-15zM360 1020h15v15h-15zM315 1020h15v15h-15zM405 1005h15v15h-15zM390 1005h15v15h-15zM360 1005h15v15h-15zM345 1005h15v15h-15zM315 1005h15v15h-15zM300 1005h15v15h-15zM390 990h15v15h-15zM345 990h15v15h-15zM315 990h15v15h-15zM1080 360h15v15h-15zM1065 345h15v15h-15zM1095 345h15v15h-15zM1080 330h15v15h-15zM1065 330h15v15h-15zM1110 270h15v15h-15zM1065 270h15v15h-15zM1155 255h15v15h-15zM1140 255h15v15h-15zM1110 255h15v15h-15zM1095 255h15v15h-15zM1065 255h15v15h-15zM1050 255h15v15h-15zM1140 240h15v15h-15zM1095 240h15v15h-15zM1065 240h15v15h-15zM1020 375h15v15h-15zM990 375h15v15h-15zM945 375h15v15h-15zM975 360h15v15h-15zM945 360h15v15h-15zM930 360h15v15h-15zM1020 345h15v15h-15zM1005 345h15v15h-15zM945 345h15v15h-15zM945 285h15v15h-15zM930 285h15v15h-15zM990 270h15v15h-15zM960 270h15v15h-15zM915 270h15v15h-15zM1035 255h15v15h-15zM1005 255h15v15h-15zM990 255h15v15h-15zM960 255h15v15h-15zM945 255h15v15h-15zM1035 240h15v15h-15zM1020 240h15v15h-15zM990 240h15v15h-15zM945 240h15v15h-15zM915 240h15v15h-15zM615 195h15v15h-15zM735 195h15v15h-15zM735 180h15v15h-15zM720 195h15v15h-15zM705 195h15v15h-15zM675 195h15v15h-15zM645 195h15v15h-15zM600 195h15v15h-15zM705 180h15v15h-15zM675 180h15v15h-15zM660 180h15v15h-15zM630 180h15v15h-15zM615 180h15v15h-15zM720 165h15v15h-15zM675 165h15v15h-15zM645 165h15v15h-15zM735 150h15v15h-15zM720 150h15v15h-15zM690 150h15v15h-15zM675 150h15v15h-15zM660 150h15v15h-15zM645 150h15v15h-15zM615 150h15v15h-15zM600 150h15v15h-15zM720 135h15v15h-15zM675 135h15v15h-15zM645 135h15v15h-15zM630 135h15v15h-15zM690 120h15v15h-15zM660 120h15v15h-15zM615 120h15v15h-15zM735 105h15v15h-15zM705 105h15v15h-15zM690 105h15v15h-15zM660 105h15v15h-15zM645 105h15v15h-15zM615 105h15v15h-15zM600 105h15v15h-15zM735 90h15v15h-15zM720 90h15v15h-15zM690 90h15v15h-15zM645 90h15v15h-15zM615 90h15v15h-15zM435 150h15v15h-15zM435 105h15v15h-15zM435 90h15v15h-15zM765 195h15v15h-15zM885 180h15v15h-15zM825 195h15v15h-15zM795 195h15v15h-15zM750 195h15v15h-15zM855 180h15v15h-15zM825 180h15v15h-15zM810 180h15v15h-15zM780 180h15v15h-15zM765 180h15v15h-15zM870 165h15v15h-15zM825 165h15v15h-15zM795 165h15v15h-15zM885 150h15v15h-15zM870 150h15v15h-15zM840 150h15v15h-15zM825 150h15v15h-15zM810 150h15v15h-15zM795 150h15v15h-15zM765 150h15v15h-15zM750 150h15v15h-15zM870 135h15v15h-15zM825 135h15v15h-15zM795 135h15v15h-15zM780 135h15v15h-15zM840 120h15v15h-15zM810 120h15v15h-15zM765 120h15v15h-15zM885 105h15v15h-15zM855 105h15v15h-15zM840 105h15v15h-15zM810 105h15v15h-15zM795 105h15v15h-15zM765 105h15v15h-15zM750 105h15v15h-15zM885 90h15v15h-15zM870 90h15v15h-15zM840 90h15v15h-15zM795 90h15v15h-15zM765 90h15v15h-15zM1035 195h15v15h-15zM1035 180h15v15h-15zM1020 195h15v15h-15zM1005 195h15v15h-15zM1005 180h15v15h-15zM915 180h15v15h-15zM1020 165h15v15h-15zM975 165h15v15h-15zM945 165h15v15h-15zM1035 150h15v15h-15zM1020 150h15v15h-15zM990 150h15v15h-15zM975 150h15v15h-15zM960 150h15v15h-15zM945 150h15v15h-15zM915 150h15v15h-15zM900 150h15v15h-15zM1020 135h15v15h-15zM975 135h15v15h-15zM945 135h15v15h-15zM930 135h15v15h-15zM990 120h15v15h-15zM960 120h15v15h-15zM915 120h15v15h-15zM1035 105h15v15h-15zM1005 105h15v15h-15zM990 105h15v15h-15zM960 105h15v15h-15zM945 105h15v15h-15zM915 105h15v15h-15zM900 105h15v15h-15zM1035 90h15v15h-15zM1020 90h15v15h-15zM990 90h15v15h-15zM945 90h15v15h-15zM915 90h15v15h-15zM1170 75h15v15h-15zM1140 75h15v15h-15zM1095 75h15v15h-15zM1125 60h15v15h-15zM1095 60h15v15h-15zM1080 60h15v15h-15zM1065 45h15v15h-15zM1185 45h15v15h-15zM1185 30h15v15h-15zM1170 45h15v15h-15zM1155 45h15v15h-15zM1125 45h15v15h-15zM1095 45h15v15h-15zM1050 45h15v15h-15zM1155 30h15v15h-15zM1125 30h15v15h-15zM1110 30h15v15h-15zM1080 30h15v15h-15zM1065 30h15v15h-15zM1170 15h15v15h-15zM1125 15h15v15h-15zM1095 15h15v15h-15zM1185 0h15v15h-15zM1170 0h15v15h-15zM1140 0h15v15h-15zM1125 0h15v15h-15zM1110 0h15v15h-15zM1095 0h15v15h-15zM1065 0h15v15h-15zM1050 0h15v15h-15zM1290 75h15v15h-15zM1245 75h15v15h-15zM1275 60h15v15h-15zM1245 60h15v15h-15zM1230 60h15v15h-15zM1215 45h15v15h-15zM1275 45h15v15h-15zM1245 45h15v15h-15zM1200 45h15v15h-15zM1275 30h15v15h-15zM1260 30h15v15h-15zM1230 30h15v15h-15zM1215 30h15v15h-15zM1275 15h15v15h-15zM1245 15h15v15h-15zM1290 0h15v15h-15zM1275 0h15v15h-15zM1260 0h15v15h-15zM1245 0h15v15h-15zM1215 0h15v15h-15zM1200 0h15v15h-15zM1020 75h15v15h-15zM945 75h15v15h-15zM975 60h15v15h-15zM945 60h15v15h-15zM930 60h15v15h-15zM915 45h15v15h-15zM1035 45h15v15h-15zM1035 30h15v15h-15zM1020 45h15v15h-15zM1005 45h15v15h-15zM975 45h15v15h-15zM945 45h15v15h-15zM900 45h15v15h-15zM1005 30h15v15h-15zM975 30h15v15h-15zM960 30h15v15h-15zM930 30h15v15h-15zM915 30h15v15h-15zM1020 15h15v15h-15zM975 15h15v15h-15zM945 15h15v15h-15zM1035 0h15v15h-15zM1020 0h15v15h-15zM990 0h15v15h-15zM975 0h15v15h-15zM960 0h15v15h-15zM945 0h15v15h-15zM915 0h15v15h-15zM900 0h15v15h-15zM79 510h15v15H79zM79 495h15v15H79zM79 480h15v15H79zM64 480h15v15H64zM79 465h15v15H79zM79 450h15v15H79zM840 1575h15v15h-15zM795 1575h15v15h-15zM795 1560h15v15h-15zM780 1560h15v15h-15zM765 1545h15v15h-15zM795 1545h15v15h-15zM780 1530h15v15h-15zM765 1530h15v15h-15zM105 975h15v15h-15zM90 975h15v15H90zM75 975h15v15H75zM60 975h15v15H60zM45 975h15v15H45zM15 975h15v15H15zM0 975h15v15H0zM135 960h15v15h-15zM120 960h15v15h-15zM90 960h15v15H90zM60 960h15v15H60zM45 960h15v15H45zM30 975h15v15H30zM30 960h15v15H30zM15 960h15v15H15zM15 945h15v15H15zM0 960h15v15H0zM135 945h15v15h-15zM135 930h15v15h-15zM120 945h15v15h-15zM90 945h15v15H90zM75 945h15v15H75zM60 945h15v15H60zM45 945h15v15H45zM0 945h15v15H0zM90 930h15v15H90zM75 930h15v15H75zM60 930h15v15H60zM45 930h15v15H45zM30 930h15v15H30zM15 930h15v15H15zM0 930h15v15H0zM120 915h15v15h-15zM105 915h15v15h-15zM75 915h15v15H75zM60 915h15v15H60zM45 915h15v15H45zM135 975h15v15h-15zM120 900h15v15h-15zM105 900h15v15h-15zM75 900h15v15H75zM60 900h15v15H60zM45 900h15v15H45zM30 900h15v15H30zM15 900h15v15H15zM0 900h15v15H0zM135 885h15v15h-15zM120 885h15v15h-15zM105 885h15v15h-15zM90 885h15v15H90zM45 885h15v15H45zM30 885h15v15H30zM15 885h15v15H15zM0 885h15v15H0zM135 870h15v15h-15zM120 870h15v15h-15zM105 870h15v15h-15zM90 870h15v15H90zM60 870h15v15H60zM30 870h15v15H30zM15 870h15v15H15zM0 870h15v15H0zM135 855h15v15h-15zM120 855h15v15h-15zM105 855h15v15h-15zM90 855h15v15H90zM60 855h15v15H60zM45 855h15v15H45zM30 855h15v15H30zM15 855h15v15H15zM0 855h15v15H0zM135 840h15v15h-15zM120 840h15v15h-15zM90 840h15v15H90zM75 840h15v15H75zM45 840h15v15H45zM30 840h15v15H30zM15 840h15v15H15zM435 345h15v15h-15zM435 330h15v15h-15zM435 315h15v15h-15zM435 300h15v15h-15zM435 270h15v15h-15zM435 255h15v15h-15zM435 240h15v15h-15zM570 375h15v15h-15zM555 375h15v15h-15zM540 375h15v15h-15zM525 375h15v15h-15zM510 375h15v15h-15zM585 360h15v15h-15zM570 360h15v15h-15zM555 360h15v15h-15zM540 360h15v15h-15zM525 360h15v15h-15zM510 360h15v15h-15zM495 360h15v15h-15zM480 360h15v15h-15zM465 360h15v15h-15zM465 345h15v15h-15zM585 345h15v15h-15zM585 330h15v15h-15zM570 345h15v15h-15zM555 345h15v15h-15zM540 345h15v15h-15zM525 345h15v15h-15zM510 345h15v15h-15zM495 345h15v15h-15zM450 345h15v15h-15zM555 330h15v15h-15zM540 330h15v15h-15zM525 330h15v15h-15zM510 330h15v15h-15zM495 330h15v15h-15zM480 330h15v15h-15zM465 330h15v15h-15zM450 330h15v15h-15zM570 315h15v15h-15zM555 315h15v15h-15zM540 315h15v15h-15zM525 315h15v15h-15zM510 315h15v15h-15zM495 315h15v15h-15zM585 300h15v15h-15zM585 375h15v15h-15zM570 300h15v15h-15zM555 300h15v15h-15zM540 300h15v15h-15zM525 300h15v15h-15zM510 300h15v15h-15zM495 300h15v15h-15zM480 300h15v15h-15zM465 300h15v15h-15zM450 300h15v15h-15zM585 285h15v15h-15zM570 285h15v15h-15zM555 285h15v15h-15zM540 285h15v15h-15zM525 285h15v15h-15zM495 285h15v15h-15zM480 285h15v15h-15zM465 285h15v15h-15zM585 270h15v15h-15zM570 270h15v15h-15zM555 270h15v15h-15zM540 270h15v15h-15zM525 270h15v15h-15zM510 270h15v15h-15zM480 270h15v15h-15zM465 270h15v15h-15zM450 270h15v15h-15zM585 255h15v15h-15zM570 255h15v15h-15zM555 255h15v15h-15zM540 255h15v15h-15zM525 255h15v15h-15zM510 255h15v15h-15zM495 255h15v15h-15zM480 255h15v15h-15zM465 255h15v15h-15zM450 255h15v15h-15zM585 240h15v15h-15zM570 240h15v15h-15zM540 240h15v15h-15zM525 240h15v15h-15zM510 240h15v15h-15zM495 240h15v15h-15zM480 240h15v15h-15zM465 240h15v15h-15zM585 180h15v15h-15zM555 180h15v15h-15zM540 180h15v15h-15zM570 165h15v15h-15zM555 165h15v15h-15zM540 165h15v15h-15zM525 165h15v15h-15zM510 165h15v15h-15zM495 165h15v15h-15zM585 150h15v15h-15zM570 150h15v15h-15zM555 150h15v15h-15zM540 150h15v15h-15zM525 150h15v15h-15zM510 150h15v15h-15zM495 150h15v15h-15zM480 150h15v15h-15zM465 150h15v15h-15zM450 150h15v15h-15zM585 135h15v15h-15zM570 135h15v15h-15zM555 135h15v15h-15zM540 135h15v15h-15zM525 135h15v15h-15zM495 135h15v15h-15zM480 135h15v15h-15zM465 135h15v15h-15zM450 135h15v15h-15zM450 210h15v15h-15zM465 210h15v15h-15zM435 210h15v15h-15zM450 195h15v15h-15zM435 195h15v15h-15zM585 120h15v15h-15zM570 120h15v15h-15zM555 120h15v15h-15zM540 120h15v15h-15zM525 120h15v15h-15zM510 120h15v15h-15zM480 120h15v15h-15zM465 120h15v15h-15zM450 120h15v15h-15zM585 105h15v15h-15zM570 105h15v15h-15zM555 105h15v15h-15zM540 105h15v15h-15zM525 105h15v15h-15zM465 105h15v15h-15zM450 105h15v15h-15zM585 90h15v15h-15zM570 90h15v15h-15zM540 90h15v15h-15zM525 90h15v15h-15zM510 90h15v15h-15zM570 75h15v15h-15zM555 75h15v15h-15zM540 75h15v15h-15zM525 75h15v15h-15zM510 75h15v15h-15zM495 75h15v15h-15zM465 75h15v15h-15zM450 75h15v15h-15zM585 60h15v15h-15zM570 60h15v15h-15zM555 60h15v15h-15zM540 60h15v15h-15zM525 60h15v15h-15zM510 60h15v15h-15zM495 60h15v15h-15zM480 75h15v15h-15zM480 60h15v15h-15zM465 60h15v15h-15zM465 45h15v15h-15zM450 60h15v15h-15zM585 45h15v15h-15zM585 30h15v15h-15zM570 45h15v15h-15zM555 45h15v15h-15zM540 45h15v15h-15zM525 45h15v15h-15zM510 45h15v15h-15zM495 45h15v15h-15zM450 45h15v15h-15zM555 30h15v15h-15zM540 30h15v15h-15zM525 30h15v15h-15zM510 30h15v15h-15zM495 30h15v15h-15zM480 30h15v15h-15zM465 30h15v15h-15zM450 30h15v15h-15zM570 15h15v15h-15zM555 15h15v15h-15zM540 15h15v15h-15zM525 15h15v15h-15zM510 15h15v15h-15zM495 15h15v15h-15zM585 0h15v15h-15zM585 75h15v15h-15zM570 0h15v15h-15zM555 0h15v15h-15zM540 0h15v15h-15zM525 0h15v15h-15zM510 0h15v15h-15zM495 0h15v15h-15zM465 15h15v15h-15zM480 0h15v15h-15zM465 0h15v15h-15zM450 0h15v15h-15zM720 75h15v15h-15zM705 75h15v15h-15zM690 75h15v15h-15zM675 75h15v15h-15zM660 75h15v15h-15zM645 75h15v15h-15zM615 75h15v15h-15zM600 75h15v15h-15zM735 60h15v15h-15zM720 60h15v15h-15zM705 60h15v15h-15zM690 60h15v15h-15zM675 60h15v15h-15zM660 60h15v15h-15zM645 60h15v15h-15zM630 75h15v15h-15zM630 60h15v15h-15zM615 60h15v15h-15zM615 45h15v15h-15zM600 60h15v15h-15zM735 45h15v15h-15zM735 30h15v15h-15zM720 45h15v15h-15zM705 45h15v15h-15zM690 45h15v15h-15zM675 45h15v15h-15zM660 45h15v15h-15zM645 45h15v15h-15zM600 45h15v15h-15zM705 30h15v15h-15zM690 30h15v15h-15zM675 30h15v15h-15zM660 30h15v15h-15zM645 30h15v15h-15zM630 30h15v15h-15zM615 30h15v15h-15zM600 30h15v15h-15zM720 15h15v15h-15zM705 15h15v15h-15zM690 15h15v15h-15zM675 15h15v15h-15zM660 15h15v15h-15zM645 15h15v15h-15zM615 15h15v15h-15zM735 0h15v15h-15zM735 75h15v15h-15zM720 0h15v15h-15zM705 0h15v15h-15zM690 0h15v15h-15zM675 0h15v15h-15zM660 0h15v15h-15zM645 0h15v15h-15zM630 0h15v15h-15zM615 0h15v15h-15zM600 0h15v15h-15zM855 75h15v15h-15zM825 75h15v15h-15zM810 75h15v15h-15zM795 75h15v15h-15zM765 75h15v15h-15zM750 75h15v15h-15zM885 60h15v15h-15zM870 60h15v15h-15zM855 60h15v15h-15zM840 60h15v15h-15zM825 60h15v15h-15zM810 60h15v15h-15zM795 60h15v15h-15zM780 75h15v15h-15zM780 60h15v15h-15zM765 60h15v15h-15zM765 45h15v15h-15zM750 60h15v15h-15zM885 45h15v15h-15zM885 30h15v15h-15zM870 45h15v15h-15zM855 45h15v15h-15zM840 45h15v15h-15zM825 45h15v15h-15zM810 45h15v15h-15zM795 45h15v15h-15zM750 45h15v15h-15zM855 30h15v15h-15zM840 30h15v15h-15zM825 30h15v15h-15zM810 30h15v15h-15zM795 30h15v15h-15zM780 30h15v15h-15zM765 30h15v15h-15zM750 30h15v15h-15zM750 15h15v15h-15zM870 15h15v15h-15zM855 15h15v15h-15zM840 15h15v15h-15zM825 15h15v15h-15zM810 15h15v15h-15zM795 15h15v15h-15zM885 0h15v15h-15zM885 75h15v15h-15zM870 0h15v15h-15zM855 0h15v15h-15zM840 0h15v15h-15zM825 0h15v15h-15zM810 0h15v15h-15zM795 0h15v15h-15zM780 0h15v15h-15zM765 0h15v15h-15zM750 0h15v15h-15zM720 375h15v15h-15zM705 375h15v15h-15zM690 375h15v15h-15zM675 375h15v15h-15zM660 375h15v15h-15zM645 375h15v15h-15zM615 375h15v15h-15zM600 375h15v15h-15zM735 360h15v15h-15zM720 360h15v15h-15zM705 360h15v15h-15zM690 360h15v15h-15zM675 360h15v15h-15zM660 360h15v15h-15zM645 360h15v15h-15zM630 375h15v15h-15zM630 360h15v15h-15zM615 360h15v15h-15zM615 345h15v15h-15zM600 360h15v15h-15zM735 345h15v15h-15zM735 330h15v15h-15zM720 345h15v15h-15zM705 345h15v15h-15zM690 345h15v15h-15zM675 345h15v15h-15zM660 345h15v15h-15zM645 345h15v15h-15zM600 345h15v15h-15zM705 330h15v15h-15zM690 330h15v15h-15zM675 330h15v15h-15zM660 330h15v15h-15zM645 330h15v15h-15zM630 330h15v15h-15zM615 315h15v15h-15zM630 315h15v15h-15zM615 330h15v15h-15zM600 330h15v15h-15zM720 315h15v15h-15zM705 315h15v15h-15zM690 315h15v15h-15zM675 315h15v15h-15zM660 315h15v15h-15zM645 315h15v15h-15zM735 300h15v15h-15zM735 375h15v15h-15zM720 300h15v15h-15zM705 300h15v15h-15zM690 300h15v15h-15zM675 300h15v15h-15zM660 300h15v15h-15zM645 300h15v15h-15zM630 300h15v15h-15zM615 300h15v15h-15zM600 300h15v15h-15zM735 285h15v15h-15zM720 285h15v15h-15zM705 285h15v15h-15zM690 285h15v15h-15zM675 285h15v15h-15zM645 285h15v15h-15zM630 285h15v15h-15zM615 285h15v15h-15zM600 285h15v15h-15zM735 270h15v15h-15zM720 270h15v15h-15zM705 270h15v15h-15zM690 270h15v15h-15zM675 270h15v15h-15zM660 270h15v15h-15zM630 270h15v15h-15zM615 270h15v15h-15zM600 270h15v15h-15zM720 255h15v15h-15zM705 255h15v15h-15zM690 255h15v15h-15zM675 255h15v15h-15zM660 255h15v15h-15zM645 255h15v15h-15zM630 255h15v15h-15zM615 255h15v15h-15zM600 255h15v15h-15zM735 240h15v15h-15zM720 240h15v15h-15zM660 240h15v15h-15zM645 240h15v15h-15zM630 240h15v15h-15zM615 240h15v15h-15zM270 525h15v15h-15zM225 525h15v15h-15zM195 525h15v15h-15zM165 525h15v15h-15zM285 510h15v15h-15zM255 510h15v15h-15zM240 510h15v15h-15zM210 510h15v15h-15zM195 510h15v15h-15zM180 525h15v15h-15zM180 510h15v15h-15zM165 510h15v15h-15zM165 495h15v15h-15zM285 480h15v15h-15zM270 495h15v15h-15zM240 495h15v15h-15zM225 495h15v15h-15zM195 495h15v15h-15zM255 480h15v15h-15zM225 480h15v15h-15zM210 480h15v15h-15zM270 465h15v15h-15zM210 465h15v15h-15zM195 465h15v15h-15zM285 450h15v15h-15zM270 450h15v15h-15zM255 450h15v15h-15zM225 450h15v15h-15zM195 450h15v15h-15zM420 525h15v15h-15zM405 525h15v15h-15zM390 525h15v15h-15zM375 525h15v15h-15zM360 525h15v15h-15zM300 525h15v15h-15zM435 510h15v15h-15zM420 510h15v15h-15zM405 510h15v15h-15zM390 510h15v15h-15zM375 510h15v15h-15zM360 510h15v15h-15zM330 525h15v15h-15zM315 510h15v15h-15zM315 495h15v15h-15zM435 495h15v15h-15zM435 480h15v15h-15zM420 495h15v15h-15zM375 495h15v15h-15zM360 495h15v15h-15zM345 495h15v15h-15zM300 495h15v15h-15zM405 480h15v15h-15zM390 480h15v15h-15zM375 480h15v15h-15zM360 480h15v15h-15zM345 480h15v15h-15zM330 480h15v15h-15zM300 480h15v15h-15zM420 465h15v15h-15zM405 465h15v15h-15zM390 465h15v15h-15zM375 465h15v15h-15zM360 465h15v15h-15zM345 465h15v15h-15zM435 450h15v15h-15zM435 525h15v15h-15zM420 450h15v15h-15zM405 450h15v15h-15zM390 450h15v15h-15zM375 450h15v15h-15zM390 435h15v15h-15zM375 435h15v15h-15zM360 450h15v15h-15zM345 450h15v15h-15zM345 435h15v15h-15zM255 435h15v15h-15zM210 435h15v15h-15zM330 450h15v15h-15zM300 450h15v15h-15zM435 435h15v15h-15zM435 420h15v15h-15zM435 405h15v15h-15zM435 390h15v15h-15zM570 525h15v15h-15zM555 525h15v15h-15zM540 525h15v15h-15zM525 525h15v15h-15zM510 525h15v15h-15zM495 525h15v15h-15zM465 525h15v15h-15zM450 525h15v15h-15zM525 510h15v15h-15zM510 510h15v15h-15zM480 525h15v15h-15zM465 510h15v15h-15zM450 510h15v15h-15zM585 495h15v15h-15zM585 480h15v15h-15zM570 495h15v15h-15zM555 495h15v15h-15zM540 495h15v15h-15zM495 495h15v15h-15zM555 480h15v15h-15zM525 480h15v15h-15zM510 480h15v15h-15zM495 480h15v15h-15zM480 480h15v15h-15zM465 480h15v15h-15zM450 480h15v15h-15zM570 465h15v15h-15zM555 465h15v15h-15zM540 465h15v15h-15zM525 465h15v15h-15zM510 465h15v15h-15zM495 465h15v15h-15zM585 450h15v15h-15zM585 525h15v15h-15zM570 450h15v15h-15zM555 450h15v15h-15zM540 450h15v15h-15zM525 450h15v15h-15zM510 450h15v15h-15zM495 450h15v15h-15zM480 450h15v15h-15zM465 450h15v15h-15zM450 450h15v15h-15zM585 435h15v15h-15zM570 435h15v15h-15zM555 435h15v15h-15zM540 435h15v15h-15zM525 435h15v15h-15zM495 435h15v15h-15zM480 435h15v15h-15zM465 435h15v15h-15zM450 435h15v15h-15zM585 420h15v15h-15zM570 420h15v15h-15zM555 420h15v15h-15zM540 420h15v15h-15zM525 420h15v15h-15zM510 420h15v15h-15zM480 420h15v15h-15zM465 420h15v15h-15zM450 420h15v15h-15zM585 405h15v15h-15zM570 405h15v15h-15zM555 405h15v15h-15zM540 405h15v15h-15zM525 405h15v15h-15zM510 405h15v15h-15zM495 405h15v15h-15zM480 405h15v15h-15zM465 405h15v15h-15zM450 405h15v15h-15zM585 390h15v15h-15zM570 390h15v15h-15zM540 390h15v15h-15zM525 390h15v15h-15zM510 390h15v15h-15zM495 390h15v15h-15zM480 390h15v15h-15zM465 390h15v15h-15zM720 525h15v15h-15zM705 525h15v15h-15zM690 525h15v15h-15zM675 525h15v15h-15zM660 525h15v15h-15zM645 525h15v15h-15zM615 525h15v15h-15zM600 525h15v15h-15zM735 510h15v15h-15zM720 510h15v15h-15zM630 525h15v15h-15zM735 480h15v15h-15zM600 495h15v15h-15zM705 480h15v15h-15zM690 480h15v15h-15zM675 480h15v15h-15zM660 480h15v15h-15zM645 480h15v15h-15zM630 480h15v15h-15zM615 480h15v15h-15zM600 480h15v15h-15zM720 465h15v15h-15zM705 465h15v15h-15zM690 465h15v15h-15zM675 465h15v15h-15zM660 465h15v15h-15zM645 465h15v15h-15zM735 450h15v15h-15zM735 525h15v15h-15zM720 450h15v15h-15zM705 450h15v15h-15zM690 450h15v15h-15zM675 450h15v15h-15zM660 450h15v15h-15zM645 450h15v15h-15zM630 450h15v15h-15zM615 450h15v15h-15zM600 450h15v15h-15zM735 435h15v15h-15zM720 435h15v15h-15zM705 435h15v15h-15zM690 435h15v15h-15zM675 435h15v15h-15zM645 435h15v15h-15zM630 435h15v15h-15zM615 435h15v15h-15zM600 435h15v15h-15zM735 420h15v15h-15zM720 420h15v15h-15zM705 420h15v15h-15zM690 420h15v15h-15zM675 420h15v15h-15zM660 420h15v15h-15zM630 420h15v15h-15zM615 420h15v15h-15zM600 420h15v15h-15zM735 405h15v15h-15zM720 405h15v15h-15zM705 405h15v15h-15zM690 405h15v15h-15zM675 405h15v15h-15zM660 405h15v15h-15zM645 405h15v15h-15zM630 405h15v15h-15zM615 405h15v15h-15zM600 405h15v15h-15zM735 390h15v15h-15zM720 390h15v15h-15zM690 390h15v15h-15zM675 390h15v15h-15zM660 390h15v15h-15zM645 390h15v15h-15zM630 390h15v15h-15zM615 390h15v15h-15zM870 375h15v15h-15zM855 375h15v15h-15zM840 375h15v15h-15zM825 375h15v15h-15zM810 375h15v15h-15zM795 375h15v15h-15zM765 375h15v15h-15zM750 375h15v15h-15zM885 360h15v15h-15zM870 360h15v15h-15zM855 360h15v15h-15zM840 360h15v15h-15zM825 360h15v15h-15zM810 360h15v15h-15zM795 360h15v15h-15zM780 375h15v15h-15zM780 360h15v15h-15zM765 360h15v15h-15zM750 360h15v15h-15zM840 345h15v15h-15zM825 345h15v15h-15zM810 345h15v15h-15zM795 345h15v15h-15zM750 345h15v15h-15zM840 330h15v15h-15zM825 330h15v15h-15zM810 330h15v15h-15zM780 330h15v15h-15zM795 330h15v15h-15zM750 330h15v15h-15zM735 315h15v15h-15zM855 315h15v15h-15zM840 315h15v15h-15zM825 315h15v15h-15zM810 315h15v15h-15zM885 375h15v15h-15zM825 300h15v15h-15zM810 300h15v15h-15zM795 300h15v15h-15zM780 300h15v15h-15zM765 300h15v15h-15zM765 315h15v15h-15zM750 300h15v15h-15zM855 285h15v15h-15zM840 285h15v15h-15zM825 285h15v15h-15zM795 285h15v15h-15zM780 285h15v15h-15zM765 285h15v15h-15zM750 285h15v15h-15zM885 270h15v15h-15zM870 270h15v15h-15zM855 270h15v15h-15zM840 270h15v15h-15zM825 270h15v15h-15zM810 270h15v15h-15zM780 270h15v15h-15zM765 270h15v15h-15zM750 270h15v15h-15zM885 240h15v15h-15zM870 240h15v15h-15zM840 240h15v15h-15zM825 240h15v15h-15zM810 240h15v15h-15zM795 240h15v15h-15zM780 240h15v15h-15zM765 240h15v15h-15zM870 525h15v15h-15zM855 525h15v15h-15zM840 525h15v15h-15zM825 525h15v15h-15zM810 525h15v15h-15zM795 525h15v15h-15zM765 525h15v15h-15zM750 525h15v15h-15zM885 510h15v15h-15zM870 510h15v15h-15zM855 510h15v15h-15zM840 510h15v15h-15zM825 510h15v15h-15zM810 510h15v15h-15zM795 510h15v15h-15zM780 525h15v15h-15zM780 510h15v15h-15zM765 510h15v15h-15zM750 510h15v15h-15zM885 495h15v15h-15zM780 480h15v15h-15zM765 480h15v15h-15zM750 480h15v15h-15zM870 465h15v15h-15zM855 465h15v15h-15zM840 465h15v15h-15zM825 465h15v15h-15zM810 465h15v15h-15zM795 465h15v15h-15zM885 450h15v15h-15zM870 450h15v15h-15zM855 450h15v15h-15zM840 450h15v15h-15zM825 450h15v15h-15zM810 450h15v15h-15zM795 450h15v15h-15zM780 450h15v15h-15zM765 450h15v15h-15zM750 450h15v15h-15zM885 435h15v15h-15zM870 435h15v15h-15zM855 435h15v15h-15zM840 435h15v15h-15zM825 435h15v15h-15zM795 435h15v15h-15zM780 435h15v15h-15zM765 435h15v15h-15zM750 435h15v15h-15zM885 420h15v15h-15zM870 420h15v15h-15zM855 420h15v15h-15zM840 420h15v15h-15zM825 420h15v15h-15zM810 420h15v15h-15zM780 420h15v15h-15zM765 420h15v15h-15zM750 420h15v15h-15zM885 405h15v15h-15zM870 405h15v15h-15zM855 405h15v15h-15zM840 405h15v15h-15zM825 405h15v15h-15zM810 405h15v15h-15zM795 405h15v15h-15zM780 405h15v15h-15zM765 405h15v15h-15zM750 405h15v15h-15zM885 390h15v15h-15zM870 390h15v15h-15zM840 390h15v15h-15zM825 390h15v15h-15zM810 390h15v15h-15zM795 390h15v15h-15zM780 390h15v15h-15zM765 390h15v15h-15zM870 675h15v15h-15zM855 675h15v15h-15zM840 675h15v15h-15zM825 675h15v15h-15zM810 675h15v15h-15zM795 675h15v15h-15zM765 675h15v15h-15zM885 660h15v15h-15zM870 660h15v15h-15zM855 660h15v15h-15zM840 660h15v15h-15zM825 660h15v15h-15zM810 660h15v15h-15zM795 660h15v15h-15zM780 675h15v15h-15zM780 660h15v15h-15zM885 645h15v15h-15zM885 630h15v15h-15zM870 645h15v15h-15zM870 630h15v15h-15zM855 645h15v15h-15zM840 645h15v15h-15zM825 645h15v15h-15zM810 645h15v15h-15zM795 645h15v15h-15zM855 630h15v15h-15zM840 630h15v15h-15zM825 630h15v15h-15zM810 630h15v15h-15zM795 630h15v15h-15zM750 630h15v15h-15zM870 615h15v15h-15zM855 615h15v15h-15zM840 615h15v15h-15zM825 615h15v15h-15zM810 615h15v15h-15zM795 615h15v15h-15zM885 600h15v15h-15zM885 675h15v15h-15zM870 600h15v15h-15zM855 600h15v15h-15zM840 600h15v15h-15zM825 600h15v15h-15zM810 600h15v15h-15zM780 600h15v15h-15zM765 600h15v15h-15zM750 600h15v15h-15zM885 585h15v15h-15zM870 585h15v15h-15zM855 585h15v15h-15zM840 585h15v15h-15zM795 585h15v15h-15zM780 585h15v15h-15zM765 585h15v15h-15zM750 585h15v15h-15zM885 570h15v15h-15zM870 570h15v15h-15zM825 570h15v15h-15zM810 570h15v15h-15zM780 570h15v15h-15zM765 570h15v15h-15zM750 570h15v15h-15zM870 555h15v15h-15zM855 555h15v15h-15zM840 555h15v15h-15zM825 555h15v15h-15zM810 555h15v15h-15zM825 540h15v15h-15zM810 540h15v15h-15zM795 540h15v15h-15zM780 540h15v15h-15zM765 540h15v15h-15zM1020 675h15v15h-15zM1005 675h15v15h-15zM1005 690h15v15h-15zM1005 705h15v15h-15zM1005 720h15v15h-15zM990 675h15v15h-15zM975 675h15v15h-15zM960 675h15v15h-15zM945 675h15v15h-15zM915 675h15v15h-15zM900 675h15v15h-15zM1020 660h15v15h-15zM1005 660h15v15h-15zM990 660h15v15h-15zM975 660h15v15h-15zM960 660h15v15h-15zM945 660h15v15h-15zM930 675h15v15h-15zM930 660h15v15h-15zM915 660h15v15h-15zM915 645h15v15h-15zM900 660h15v15h-15zM990 645h15v15h-15zM1005 645h15v15h-15zM975 645h15v15h-15zM960 645h15v15h-15zM945 645h15v15h-15zM900 645h15v15h-15zM990 630h15v15h-15zM975 630h15v15h-15zM960 630h15v15h-15zM945 630h15v15h-15zM930 630h15v15h-15zM930 645h15v15h-15zM915 630h15v15h-15zM900 630h15v15h-15zM885 615h15v15h-15zM930 615h15v15h-15zM915 615h15v15h-15zM900 615h15v15h-15zM975 615h15v15h-15zM960 615h15v15h-15zM945 615h15v15h-15zM960 600h15v15h-15zM945 600h15v15h-15zM930 600h15v15h-15zM915 600h15v15h-15zM900 600h15v15h-15zM945 585h15v15h-15zM930 585h15v15h-15zM915 585h15v15h-15zM900 585h15v15h-15zM915 570h15v15h-15zM900 570h15v15h-15zM990 555h15v15h-15zM975 555h15v15h-15zM960 555h15v15h-15zM1035 540h15v15h-15zM1020 540h15v15h-15zM975 540h15v15h-15zM1020 825h15v15h-15zM1020 840h15v15h-15zM1005 825h15v15h-15zM990 825h15v15h-15zM945 825h15v15h-15zM900 825h15v15h-15zM1020 810h15v15h-15zM1035 825h15v15h-15zM1035 810h15v15h-15zM1005 810h15v15h-15zM990 810h15v15h-15zM960 810h15v15h-15zM945 810h15v15h-15zM930 825h15v15h-15zM930 810h15v15h-15zM915 810h15v15h-15zM915 795h15v15h-15zM1035 795h15v15h-15zM1035 780h15v15h-15zM1020 795h15v15h-15zM1020 780h15v15h-15zM1005 795h15v15h-15zM975 795h15v15h-15zM960 795h15v15h-15zM945 795h15v15h-15zM930 795h15v15h-15zM900 795h15v15h-15zM975 780h15v15h-15zM960 780h15v15h-15zM945 780h15v15h-15zM930 780h15v15h-15zM915 780h15v15h-15zM900 780h15v15h-15zM1020 765h15v15h-15zM990 765h15v15h-15zM975 765h15v15h-15zM960 765h15v15h-15zM945 765h15v15h-15zM1035 750h15v15h-15zM1020 750h15v15h-15zM990 750h15v15h-15zM975 750h15v15h-15zM960 750h15v15h-15zM960 735h15v15h-15zM945 750h15v15h-15zM930 750h15v15h-15zM915 750h15v15h-15zM900 750h15v15h-15zM1035 735h15v15h-15zM1020 735h15v15h-15zM990 735h15v15h-15zM975 735h15v15h-15zM945 735h15v15h-15zM945 720h15v15h-15zM930 735h15v15h-15zM915 735h15v15h-15zM900 735h15v15h-15zM1035 720h15v15h-15zM1020 720h15v15h-15zM990 720h15v15h-15zM975 720h15v15h-15zM960 720h15v15h-15zM915 720h15v15h-15zM900 720h15v15h-15zM1035 705h15v15h-15zM1020 705h15v15h-15zM990 705h15v15h-15zM975 705h15v15h-15zM945 705h15v15h-15zM930 705h15v15h-15zM915 705h15v15h-15zM900 705h15v15h-15zM900 690h15v15h-15zM1035 690h15v15h-15zM1020 690h15v15h-15zM990 690h15v15h-15zM975 690h15v15h-15zM960 690h15v15h-15zM915 690h15v15h-15zM855 825h15v15h-15zM840 825h15v15h-15zM810 825h15v15h-15zM795 825h15v15h-15zM765 825h15v15h-15zM885 810h15v15h-15zM855 810h15v15h-15zM840 810h15v15h-15zM825 810h15v15h-15zM795 810h15v15h-15zM780 825h15v15h-15zM780 810h15v15h-15zM765 810h15v15h-15zM765 795h15v15h-15zM780 795h15v15h-15zM885 780h15v15h-15zM870 780h15v15h-15zM855 795h15v15h-15zM840 795h15v15h-15zM825 795h15v15h-15zM795 795h15v15h-15zM750 795h15v15h-15zM855 780h15v15h-15zM840 780h15v15h-15zM825 780h15v15h-15zM810 780h15v15h-15zM780 780h15v15h-15zM765 780h15v15h-15zM750 780h15v15h-15zM855 765h15v15h-15zM840 765h15v15h-15zM825 765h15v15h-15zM810 765h15v15h-15zM885 750h15v15h-15zM930 765h15v15h-15zM915 765h15v15h-15zM885 765h15v15h-15zM885 825h15v15h-15zM870 750h15v15h-15zM855 750h15v15h-15zM840 750h15v15h-15zM825 750h15v15h-15zM810 750h15v15h-15zM795 750h15v15h-15zM765 750h15v15h-15zM780 765h15v15h-15zM765 765h15v15h-15zM750 750h15v15h-15zM750 765h15v15h-15zM885 735h15v15h-15zM870 735h15v15h-15zM855 735h15v15h-15zM840 735h15v15h-15zM825 735h15v15h-15zM795 735h15v15h-15zM765 735h15v15h-15zM750 735h15v15h-15zM885 720h15v15h-15zM870 720h15v15h-15zM855 720h15v15h-15zM840 720h15v15h-15zM810 720h15v15h-15zM810 735h15v15h-15zM795 720h15v15h-15zM780 720h15v15h-15zM750 720h15v15h-15zM885 705h15v15h-15zM870 705h15v15h-15zM855 690h15v15h-15zM840 705h15v15h-15zM825 705h15v15h-15zM795 705h15v15h-15zM780 705h15v15h-15zM750 705h15v15h-15zM885 690h15v15h-15zM870 690h15v15h-15zM810 690h15v15h-15zM795 690h15v15h-15zM780 690h15v15h-15zM765 690h15v15h-15zM810 975h15v15h-15zM795 975h15v15h-15zM885 960h15v15h-15zM870 960h15v15h-15zM825 960h15v15h-15zM810 960h15v15h-15zM795 960h15v15h-15zM780 975h15v15h-15zM780 960h15v15h-15zM765 960h15v15h-15zM765 945h15v15h-15zM885 945h15v15h-15zM885 930h15v15h-15zM870 930h15v15h-15zM870 945h15v15h-15zM810 945h15v15h-15zM795 945h15v15h-15zM855 930h15v15h-15zM810 930h15v15h-15zM795 930h15v15h-15zM810 915h15v15h-15zM795 915h15v15h-15zM885 900h15v15h-15zM885 975h15v15h-15zM870 900h15v15h-15zM810 900h15v15h-15zM795 900h15v15h-15zM885 885h15v15h-15zM870 885h15v15h-15zM795 885h15v15h-15zM750 885h15v15h-15zM735 885h15v15h-15zM885 870h15v15h-15zM870 870h15v15h-15zM855 870h15v15h-15zM825 870h15v15h-15zM810 870h15v15h-15zM810 885h15v15h-15zM795 870h15v15h-15zM780 870h15v15h-15zM750 870h15v15h-15zM885 855h15v15h-15zM870 855h15v15h-15zM855 855h15v15h-15zM825 855h15v15h-15zM810 855h15v15h-15zM795 855h15v15h-15zM780 855h15v15h-15zM750 855h15v15h-15zM870 840h15v15h-15zM855 840h15v15h-15zM840 840h15v15h-15zM810 840h15v15h-15zM795 840h15v15h-15zM780 840h15v15h-15zM765 840h15v15h-15zM1005 975h15v15h-15zM990 975h15v15h-15zM975 975h15v15h-15zM975 990h15v15h-15zM975 1005h15v15h-15zM990 990h15v15h-15zM960 975h15v15h-15zM915 975h15v15h-15zM900 975h15v15h-15zM1035 960h15v15h-15zM1020 960h15v15h-15zM1005 960h15v15h-15zM990 960h15v15h-15zM975 960h15v15h-15zM915 960h15v15h-15zM915 945h15v15h-15zM900 960h15v15h-15zM1020 945h15v15h-15zM1005 945h15v15h-15zM990 945h15v15h-15zM975 945h15v15h-15zM900 945h15v15h-15zM1005 930h15v15h-15zM990 930h15v15h-15zM975 930h15v15h-15zM960 930h15v15h-15zM930 930h15v15h-15zM930 945h15v15h-15zM915 930h15v15h-15zM900 930h15v15h-15zM1020 930h15v15h-15zM1005 915h15v15h-15zM990 915h15v15h-15zM975 915h15v15h-15zM960 915h15v15h-15zM990 900h15v15h-15zM975 900h15v15h-15zM960 900h15v15h-15zM915 900h15v15h-15zM900 900h15v15h-15zM990 885h15v15h-15zM1005 900h15v15h-15zM1005 885h15v15h-15zM975 885h15v15h-15zM930 885h15v15h-15zM915 885h15v15h-15zM900 885h15v15h-15zM1005 870h15v15h-15zM990 870h15v15h-15zM975 870h15v15h-15zM930 870h15v15h-15zM915 870h15v15h-15zM900 870h15v15h-15zM1005 855h15v15h-15zM1005 840h15v15h-15zM990 855h15v15h-15zM975 855h15v15h-15zM945 855h15v15h-15zM930 855h15v15h-15zM915 855h15v15h-15zM990 840h15v15h-15zM975 840h15v15h-15zM945 840h15v15h-15zM930 840h15v15h-15zM900 840h15v15h-15zM270 975h15v15h-15zM255 975h15v15h-15zM240 975h15v15h-15zM165 975h15v15h-15zM285 960h15v15h-15zM270 960h15v15h-15zM255 960h15v15h-15zM240 960h15v15h-15zM210 960h15v15h-15zM195 960h15v15h-15zM180 975h15v15h-15zM180 960h15v15h-15zM165 960h15v15h-15zM150 960h15v15h-15zM270 945h15v15h-15zM255 945h15v15h-15zM240 945h15v15h-15zM225 945h15v15h-15zM210 945h15v15h-15zM195 945h15v15h-15zM255 930h15v15h-15zM240 930h15v15h-15zM210 930h15v15h-15zM195 930h15v15h-15zM180 930h15v15h-15zM165 930h15v15h-15zM150 930h15v15h-15zM270 915h15v15h-15zM240 915h15v15h-15zM225 915h15v15h-15zM210 915h15v15h-15zM180 915h15v15h-15zM285 900h15v15h-15zM270 900h15v15h-15zM255 900h15v15h-15zM240 900h15v15h-15zM225 900h15v15h-15zM210 900h15v15h-15zM165 900h15v15h-15zM165 915h15v15h-15zM150 900h15v15h-15zM270 885h15v15h-15zM255 885h15v15h-15zM225 885h15v15h-15zM165 885h15v15h-15zM150 885h15v15h-15zM270 870h15v15h-15zM210 870h15v15h-15zM210 885h15v15h-15zM180 870h15v15h-15zM150 870h15v15h-15zM255 855h15v15h-15zM240 855h15v15h-15zM225 855h15v15h-15zM180 855h15v15h-15zM165 855h15v15h-15zM285 840h15v15h-15zM270 840h15v15h-15zM255 840h15v15h-15zM225 840h15v15h-15zM210 840h15v15h-15zM195 840h15v15h-15zM165 840h15v15h-15zM1320 1125h15v15h-15zM1290 1125h15v15h-15zM1215 1125h15v15h-15zM1335 1110h15v15h-15zM1320 1110h15v15h-15zM1305 1110h15v15h-15zM1260 1110h15v15h-15zM1245 1110h15v15h-15zM1230 1125h15v15h-15zM1230 1110h15v15h-15zM1215 1110h15v15h-15zM1200 1110h15v15h-15zM1320 1095h15v15h-15zM1305 1095h15v15h-15zM1290 1095h15v15h-15zM1275 1095h15v15h-15zM1245 1095h15v15h-15zM1305 1080h15v15h-15zM1290 1080h15v15h-15zM1260 1080h15v15h-15zM1230 1080h15v15h-15zM1215 1080h15v15h-15zM1200 1080h15v15h-15zM1320 1065h15v15h-15zM1290 1065h15v15h-15zM1335 1050h15v15h-15zM1320 1080h15v15h-15zM1320 1050h15v15h-15zM1305 1050h15v15h-15zM1290 1050h15v15h-15zM1275 1050h15v15h-15zM1215 1065h15v15h-15zM1200 1050h15v15h-15zM1320 1035h15v15h-15zM1305 1035h15v15h-15zM1275 1035h15v15h-15zM1260 1020h15v15h-15zM1260 1035h15v15h-15zM1200 1020h15v15h-15zM1305 1005h15v15h-15zM1290 1005h15v15h-15zM1275 1005h15v15h-15zM1230 1005h15v15h-15zM1335 990h15v15h-15zM1320 990h15v15h-15zM1305 990h15v15h-15zM1275 990h15v15h-15zM1260 990h15v15h-15zM1245 990h15v15h-15zM1215 990h15v15h-15zM1320 975h15v15h-15zM1305 975h15v15h-15zM1290 975h15v15h-15zM1215 975h15v15h-15zM1335 960h15v15h-15zM1320 960h15v15h-15zM1305 960h15v15h-15zM1290 960h15v15h-15zM1275 960h15v15h-15zM1260 960h15v15h-15zM1245 960h15v15h-15zM1230 975h15v15h-15zM1230 960h15v15h-15zM1215 960h15v15h-15zM1200 960h15v15h-15zM1320 945h15v15h-15zM1305 945h15v15h-15zM1290 945h15v15h-15zM1275 945h15v15h-15zM1260 945h15v15h-15zM1245 945h15v15h-15zM1305 930h15v15h-15zM1290 930h15v15h-15zM1260 930h15v15h-15zM1245 930h15v15h-15zM1230 930h15v15h-15zM1215 930h15v15h-15zM1200 930h15v15h-15zM1320 915h15v15h-15zM1290 915h15v15h-15zM1275 915h15v15h-15zM1260 915h15v15h-15zM1230 915h15v15h-15zM1335 900h15v15h-15zM1320 930h15v15h-15zM1320 900h15v15h-15zM1305 900h15v15h-15zM1290 900h15v15h-15zM1275 900h15v15h-15zM1260 900h15v15h-15zM1215 900h15v15h-15zM1215 915h15v15h-15zM1200 900h15v15h-15zM1335 885h15v15h-15zM1320 885h15v15h-15zM1305 885h15v15h-15zM1275 885h15v15h-15zM1230 885h15v15h-15zM1215 885h15v15h-15zM1200 885h15v15h-15zM1335 870h15v15h-15zM1320 870h15v15h-15zM1260 870h15v15h-15zM1260 885h15v15h-15zM1230 870h15v15h-15zM1215 870h15v15h-15zM1200 870h15v15h-15zM1305 855h15v15h-15zM1290 855h15v15h-15zM1275 855h15v15h-15zM1230 855h15v15h-15zM1215 855h15v15h-15zM1335 840h15v15h-15zM1320 840h15v15h-15zM1305 840h15v15h-15zM1275 840h15v15h-15zM1260 840h15v15h-15zM1245 840h15v15h-15zM1215 840h15v15h-15zM1320 825h15v15h-15zM1305 825h15v15h-15zM1290 825h15v15h-15zM1215 825h15v15h-15zM1335 810h15v15h-15zM1320 810h15v15h-15zM1305 810h15v15h-15zM1290 810h15v15h-15zM1275 810h15v15h-15zM1260 810h15v15h-15zM1245 810h15v15h-15zM1230 825h15v15h-15zM1230 810h15v15h-15zM1215 810h15v15h-15zM1200 810h15v15h-15zM1320 795h15v15h-15zM1305 795h15v15h-15zM1275 795h15v15h-15zM1260 795h15v15h-15zM1245 795h15v15h-15zM1305 780h15v15h-15zM1260 780h15v15h-15zM1245 780h15v15h-15zM1230 780h15v15h-15zM1215 780h15v15h-15zM1200 780h15v15h-15zM1320 765h15v15h-15zM1275 765h15v15h-15zM1260 765h15v15h-15zM1230 765h15v15h-15zM1335 750h15v15h-15zM1320 780h15v15h-15zM1320 750h15v15h-15zM1305 750h15v15h-15zM1275 750h15v15h-15zM1260 750h15v15h-15zM1215 750h15v15h-15zM1215 765h15v15h-15zM1200 750h15v15h-15zM1335 735h15v15h-15zM1320 735h15v15h-15zM1305 735h15v15h-15zM1230 735h15v15h-15zM1215 735h15v15h-15zM1200 735h15v15h-15zM1335 720h15v15h-15zM1320 720h15v15h-15zM1260 720h15v15h-15zM1260 735h15v15h-15zM1230 720h15v15h-15zM1215 720h15v15h-15zM1305 705h15v15h-15zM1290 705h15v15h-15zM1230 705h15v15h-15zM1335 690h15v15h-15zM1320 690h15v15h-15zM1305 690h15v15h-15zM1260 690h15v15h-15zM1245 690h15v15h-15zM1365 675h15v15h-15zM1425 660h15v15h-15zM1410 660h15v15h-15zM1380 675h15v15h-15zM1380 660h15v15h-15zM1365 660h15v15h-15zM1350 660h15v15h-15zM1425 645h15v15h-15zM1395 645h15v15h-15zM1395 630h15v15h-15zM1380 630h15v15h-15zM1365 630h15v15h-15zM1350 630h15v15h-15zM1410 615h15v15h-15zM1380 615h15v15h-15zM1410 600h15v15h-15zM1365 600h15v15h-15zM1365 615h15v15h-15zM1350 600h15v15h-15zM1350 615h15v15h-15zM1425 585h15v15h-15zM1380 585h15v15h-15zM1365 585h15v15h-15zM1410 570h15v15h-15zM1410 585h15v15h-15zM1380 570h15v15h-15zM1365 570h15v15h-15zM1425 555h15v15h-15zM1380 555h15v15h-15zM1365 555h15v15h-15zM1425 540h15v15h-15zM1410 540h15v15h-15zM1395 540h15v15h-15zM1365 540h15v15h-15zM1350 525h15v15h-15zM1365 510h15v15h-15zM1350 510h15v15h-15zM1425 810h15v15h-15zM1410 810h15v15h-15zM1395 810h15v15h-15zM1380 825h15v15h-15zM1380 810h15v15h-15zM1350 810h15v15h-15zM1425 795h15v15h-15zM1410 795h15v15h-15zM1395 795h15v15h-15zM1410 780h15v15h-15zM1395 780h15v15h-15zM1365 780h15v15h-15zM1350 780h15v15h-15zM1425 765h15v15h-15zM1410 765h15v15h-15zM1425 750h15v15h-15zM1410 750h15v15h-15zM1365 765h15v15h-15zM1350 750h15v15h-15zM1425 735h15v15h-15zM1350 735h15v15h-15zM1410 720h15v15h-15zM1410 735h15v15h-15zM1365 720h15v15h-15zM1350 720h15v15h-15zM1425 705h15v15h-15zM1365 705h15v15h-15zM1425 690h15v15h-15zM1410 690h15v15h-15zM1395 690h15v15h-15zM1365 690h15v15h-15zM1365 975h15v15h-15zM1425 960h15v15h-15zM1410 960h15v15h-15zM1395 960h15v15h-15zM1380 975h15v15h-15zM1380 960h15v15h-15zM1365 960h15v15h-15zM1350 960h15v15h-15zM1425 945h15v15h-15zM1410 945h15v15h-15zM1395 945h15v15h-15zM1410 930h15v15h-15zM1395 930h15v15h-15zM1365 930h15v15h-15zM1350 930h15v15h-15zM1425 915h15v15h-15zM1410 915h15v15h-15zM1380 915h15v15h-15zM1425 900h15v15h-15zM1410 900h15v15h-15zM1365 900h15v15h-15zM1365 915h15v15h-15zM1350 900h15v15h-15zM1425 885h15v15h-15zM1380 885h15v15h-15zM1350 885h15v15h-15zM1410 870h15v15h-15zM1410 885h15v15h-15zM1380 870h15v15h-15zM1350 870h15v15h-15zM1425 855h15v15h-15zM1380 855h15v15h-15zM1425 840h15v15h-15zM1410 840h15v15h-15zM1395 840h15v15h-15zM1365 1125h15v15h-15zM1425 1125h15v15h-15zM1410 1110h15v15h-15zM1395 1110h15v15h-15zM1380 1125h15v15h-15zM1380 1110h15v15h-15zM1365 1110h15v15h-15zM1350 1110h15v15h-15zM1425 1095h15v15h-15zM1395 1095h15v15h-15zM1410 1080h15v15h-15zM1395 1080h15v15h-15zM1380 1080h15v15h-15zM1365 1080h15v15h-15zM1350 1080h15v15h-15zM1425 1065h15v15h-15zM1410 1065h15v15h-15zM1380 1065h15v15h-15zM1425 1050h15v15h-15zM1410 1050h15v15h-15zM1365 1065h15v15h-15zM1350 1050h15v15h-15zM1425 1035h15v15h-15zM1380 1035h15v15h-15zM1365 1035h15v15h-15zM1410 1020h15v15h-15zM1410 1035h15v15h-15zM1380 1020h15v15h-15zM1365 1020h15v15h-15zM1350 1020h15v15h-15zM1425 1005h15v15h-15zM1380 1005h15v15h-15zM1365 1005h15v15h-15zM1425 990h15v15h-15zM1410 990h15v15h-15zM1395 990h15v15h-15zM1365 990h15v15h-15zM270 825h15v15h-15zM240 825h15v15h-15zM195 825h15v15h-15zM225 810h15v15h-15zM195 810h15v15h-15zM180 810h15v15h-15zM165 795h15v15h-15zM225 795h15v15h-15zM195 795h15v15h-15zM150 795h15v15h-15zM225 780h15v15h-15zM210 780h15v15h-15zM180 780h15v15h-15zM165 780h15v15h-15zM225 765h15v15h-15zM195 765h15v15h-15zM225 750h15v15h-15zM210 750h15v15h-15zM195 750h15v15h-15zM165 750h15v15h-15zM150 750h15v15h-15zM195 735h15v15h-15zM180 735h15v15h-15zM210 720h15v15h-15zM165 720h15v15h-15zM210 705h15v15h-15zM195 705h15v15h-15zM165 705h15v15h-15zM150 705h15v15h-15zM240 674h15v15h-15zM240 689h15v15h-15zM255 689h15v15h-15zM270 704h15v15h-15zM195 690h15v15h-15zM165 690h15v15h-15zM390 675h15v15h-15zM345 675h15v15h-15zM375 660h15v15h-15zM345 660h15v15h-15zM330 660h15v15h-15zM315 645h15v15h-15zM435 645h15v15h-15zM435 630h15v15h-15zM345 645h15v15h-15zM405 630h15v15h-15zM360 630h15v15h-15zM315 630h15v15h-15zM420 615h15v15h-15zM435 600h15v15h-15zM420 600h15v15h-15zM390 600h15v15h-15zM375 600h15v15h-15zM360 600h15v15h-15zM420 585h15v15h-15zM375 585h15v15h-15zM345 585h15v15h-15zM390 570h15v15h-15zM360 570h15v15h-15zM315 570h15v15h-15zM435 555h15v15h-15zM405 555h15v15h-15zM390 555h15v15h-15zM360 555h15v15h-15zM345 555h15v15h-15zM315 555h15v15h-15zM300 555h15v15h-15zM435 540h15v15h-15zM420 540h15v15h-15zM390 540h15v15h-15zM345 540h15v15h-15zM225 674h15v15h-15zM210 659h15v15h-15zM180 660h15v15h-15zM150 660h15v15h-15zM180 645h15v15h-15zM210 615h15v15h-15zM180 615h15v15h-15zM270 600h15v15h-15zM255 585h15v15h-15zM240 571h15v15h-15zM240 600h15v15h-15zM225 600h15v15h-15zM165 600h15v15h-15zM165 570h15v15h-15zM180 585h15v15h-15zM180 570h15v15h-15zM195 585h15v15h-15zM195 600h15v15h-15zM15 481h15v15H15zM0 466h15v15H0zM0 436h15v15H0zM15 451h15v15H15zM15 436h15v15H15zM30 451h15v15H30zM30 466h15v15H30zM195 629h15v15h-15zM225 644h15v15h-15zM225 659h15v15h-15z"/><path d="M210 629h15v15h-15zM210 555h15v15h-15zM285 540h15v15h-15zM195 540h15v15h-15zM570 675h15v15h-15zM525 675h15v15h-15zM570 660h15v15h-15zM510 660h15v15h-15zM585 645h15v15h-15zM495 645h15v15h-15zM480 615h15v15h-15zM465 600h15v15h-15zM465 570h15v15h-15zM450 570h15v15h-15zM510 555h15v15h-15zM585 540h15v15h-15zM495 540h15v15h-15zM180 436h15v15h-15zM165 436h15v15h-15zM150 436h15v15h-15zM135 436h15v15h-15zM120 436h15v15h-15zM150 466h15v15h-15zM135 451h15v15h-15zM465 540h15v15h-15zM975 1425h15v15h-15zM960 1410h15v15h-15zM930 1410h15v15h-15zM945 1425h15v15h-15zM900 1410h15v15h-15zM915 1410h15v15h-15zM945 1395h15v15h-15zM930 1395h15v15h-15zM930 1365h15v15h-15zM915 1350h15v15h-15zM960 1305h15v15h-15zM1035 1290h15v15h-15zM945 1290h15v15h-15zM780 1350h15v15h-15zM780 1365h15v15h-15zM795 1380h15v15h-15zM795 1395h15v15h-15zM630 1410h15v15h-15zM600 1410h15v15h-15zM570 1590h15v15h-15zM555 1590h15v15h-15zM585 1575h15v15h-15zM570 1575h15v15h-15zM555 1575h15v15h-15zM600 1575h15v15h-15zM720 1365h15v15h-15zM630 1395h15v15h-15zM630 1365h15v15h-15zM720 1350h15v15h-15zM345 1545h15v15h-15zM345 1560h15v15h-15zM360 1575h15v15h-15zM375 1560h15v15h-15zM330 1530h15v15h-15zM315 1545h15v15h-15zM285 1560h15v15h-15zM285 1545h15v15h-15zM615 1350h15v15h-15zM615 1320h15v15h-15zM600 1320h15v15h-15zM675 1200h15v15h-15zM660 1185h15v15h-15zM630 1185h15v15h-15zM645 1170h15v15h-15zM630 1170h15v15h-15zM660 1140h15v15h-15zM630 1140h15v15h-15zM615 1125h15v15h-15zM615 1095h15v15h-15zM600 1095h15v15h-15zM645 1065h15v15h-15zM615 1065h15v15h-15zM810 1005h15v15h-15zM885 990h15v15h-15zM795 990h15v15h-15zM375 975h15v15h-15zM360 960h15v15h-15zM330 960h15v15h-15zM300 960h15v15h-15zM345 945h15v15h-15zM330 945h15v15h-15zM135 1305h15v15h-15zM120 1305h15v15h-15zM105 1305h15v15h-15zM90 1305h15v15H90zM75 1305h15v15H75zM60 1305h15v15H60zM45 1305h15v15H45zM30 1305h15v15H30zM15 1305h15v15H15zM0 1305h15v15H0zM105 1290h15v15h-15zM90 1290h15v15H90zM75 1290h15v15H75zM60 1290h15v15H60zM45 1290h15v15H45zM105 1275h15v15h-15zM90 1275h15v15H90zM60 1275h15v15H60zM45 1275h15v15H45zM30 1275h15v15H30zM15 1275h15v15H15zM0 1275h15v15H0zM120 1260h15v15h-15zM90 1260h15v15H90zM75 1260h15v15H75zM60 1260h15v15H60zM30 1260h15v15H30zM120 1275h15v15h-15zM120 1245h15v15h-15zM105 1245h15v15h-15zM90 1245h15v15H90zM75 1245h15v15H75zM60 1245h15v15H60zM15 1245h15v15H15zM15 1260h15v15H15zM0 1245h15v15H0zM120 1230h15v15h-15zM105 1230h15v15h-15zM75 1230h15v15H75zM30 1230h15v15H30zM15 1230h15v15H15zM0 1230h15v15H0zM135 1215h15v15h-15zM120 1215h15v15h-15zM60 1215h15v15H60zM60 1230h15v15H60zM30 1215h15v15H30zM15 1215h15v15H15zM0 1215h15v15H0zM90 1200h15v15H90zM75 1200h15v15H75zM30 1200h15v15H30zM15 1200h15v15H15zM135 1185h15v15h-15zM75 1185h15v15H75zM60 1185h15v15H60zM45 1185h15v15H45zM15 1185h15v15H15zM225 1305h15v15h-15zM195 1305h15v15h-15zM180 1305h15v15h-15zM165 1290h15v15h-15zM285 1290h15v15h-15zM285 1275h15v15h-15zM270 1290h15v15h-15zM255 1290h15v15h-15zM225 1290h15v15h-15zM195 1290h15v15h-15zM150 1290h15v15h-15zM255 1275h15v15h-15zM225 1275h15v15h-15zM210 1275h15v15h-15zM180 1275h15v15h-15zM165 1275h15v15h-15zM270 1260h15v15h-15zM225 1260h15v15h-15zM195 1260h15v15h-15zM285 1245h15v15h-15zM270 1245h15v15h-15zM240 1245h15v15h-15zM225 1245h15v15h-15zM210 1245h15v15h-15zM195 1245h15v15h-15zM165 1245h15v15h-15zM270 1230h15v15h-15zM225 1230h15v15h-15zM195 1230h15v15h-15zM180 1230h15v15h-15zM240 1215h15v15h-15zM210 1215h15v15h-15zM165 1215h15v15h-15zM285 1200h15v15h-15zM255 1200h15v15h-15zM240 1200h15v15h-15zM210 1200h15v15h-15zM195 1200h15v15h-15zM165 1200h15v15h-15zM150 1200h15v15h-15zM285 1185h15v15h-15zM270 1185h15v15h-15zM240 1185h15v15h-15zM195 1185h15v15h-15zM165 1185h15v15h-15zM345 1305h15v15h-15zM330 1305h15v15h-15zM315 1290h15v15h-15zM345 1290h15v15h-15zM300 1290h15v15h-15zM105 1320h15v15h-15zM90 1320h15v15H90zM75 1320h15v15H75zM60 1320h15v15H60zM45 1320h15v15H45zM165 1320h15v15h-15zM285 1320h15v15h-15zM270 1320h15v15h-15zM255 1320h15v15h-15zM225 1320h15v15h-15zM195 1320h15v15h-15zM150 1320h15v15h-15zM315 1320h15v15h-15zM345 1320h15v15h-15zM300 1320h15v15h-15zM330 1275h15v15h-15zM315 1275h15v15h-15zM345 1260h15v15h-15zM345 1245h15v15h-15zM315 1245h15v15h-15zM300 1245h15v15h-15zM345 1230h15v15h-15zM330 1230h15v15h-15zM315 1215h15v15h-15zM345 1200h15v15h-15zM315 1200h15v15h-15zM300 1200h15v15h-15zM345 1185h15v15h-15zM315 1185h15v15h-15zM105 1170h15v15h-15zM90 1170h15v15H90zM75 1170h15v15H75zM60 1170h15v15H60zM45 1170h15v15H45zM15 1170h15v15H15zM0 1170h15v15H0zM135 1155h15v15h-15zM120 1155h15v15h-15zM90 1155h15v15H90zM60 1155h15v15H60zM45 1155h15v15H45zM30 1170h15v15H30zM30 1155h15v15H30zM15 1155h15v15H15zM15 1140h15v15H15zM0 1155h15v15H0zM135 1140h15v15h-15zM120 1140h15v15h-15zM90 1140h15v15H90zM75 1140h15v15H75zM60 1140h15v15H60zM45 1140h15v15H45zM0 1140h15v15H0zM135 1170h15v15h-15zM270 1170h15v15h-15zM255 1170h15v15h-15zM240 1170h15v15h-15zM165 1170h15v15h-15zM285 1155h15v15h-15zM270 1155h15v15h-15zM255 1155h15v15h-15zM240 1155h15v15h-15zM210 1155h15v15h-15zM195 1155h15v15h-15zM180 1170h15v15h-15zM180 1155h15v15h-15zM165 1155h15v15h-15zM150 1155h15v15h-15zM270 1140h15v15h-15zM255 1140h15v15h-15zM240 1140h15v15h-15zM225 1140h15v15h-15zM210 1140h15v15h-15zM195 1140h15v15h-15zM330 1155h15v15h-15zM300 1155h15v15h-15zM345 1140h15v15h-15zM330 1140h15v15h-15zM225 1500h-15v15h15zM240 1500h-15v15h15zM255 1500h-15v15h15zM270 1500h-15v15h15zM285 1500h-15v15h15zM300 1500h-15v15h15zM315 1500h-15v15h15zM330 1500h-15v15h15zM345 1500h-15v15h15zM360 1500h-15v15h15zM255 1485h-15v15h15zM270 1485h-15v15h15zM285 1485h-15v15h15zM300 1485h-15v15h15zM315 1485h-15v15h15zM255 1470h-15v15h15zM270 1470h-15v15h15zM300 1470h-15v15h15zM315 1470h-15v15h15zM330 1470h-15v15h15zM345 1470h-15v15h15zM360 1470h-15v15h15zM240 1455h-15v15h15zM270 1455h-15v15h15zM285 1455h-15v15h15zM300 1455h-15v15h15zM330 1455h-15v15h15zM240 1470h-15v15h15zM240 1440h-15v15h15zM255 1440h-15v15h15zM270 1440h-15v15h15zM285 1440h-15v15h15zM300 1440h-15v15h15zM345 1440h-15v15h15zM345 1455h-15v15h15zM360 1440h-15v15h15zM240 1425h-15v15h15zM255 1425h-15v15h15zM285 1425h-15v15h15zM330 1425h-15v15h15zM345 1425h-15v15h15zM360 1425h-15v15h15zM225 1410h-15v15h15zM240 1410h-15v15h15zM300 1410h-15v15h15zM300 1425h-15v15h15zM330 1410h-15v15h15zM345 1410h-15v15h15zM360 1410h-15v15h15zM270 1395h-15v15h15zM285 1395h-15v15h15zM330 1395h-15v15h15zM345 1395h-15v15h15zM225 1380h-15v15h15zM285 1380h-15v15h15zM300 1380h-15v15h15zM315 1380h-15v15h15zM345 1380h-15v15h15zM135 1500h-15v15h15zM165 1500h-15v15h15zM180 1500h-15v15h15zM195 1485h-15v15h15zM75 1485H60v15h15zM75 1470H60v15h15zM90 1485H75v15h15zM105 1485H90v15h15zM135 1485h-15v15h15zM165 1485h-15v15h15zM210 1485h-15v15h15zM105 1470H90v15h15zM135 1470h-15v15h15zM150 1470h-15v15h15zM180 1470h-15v15h15zM195 1470h-15v15h15zM90 1455H75v15h15zM135 1455h-15v15h15zM165 1455h-15v15h15zM75 1440H60v15h15zM90 1440H75v15h15zM120 1440h-15v15h15zM135 1440h-15v15h15zM150 1440h-15v15h15zM165 1440h-15v15h15zM196 1440h-15v15h15zM90 1425H75v15h15zM135 1425h-15v15h15zM165 1425h-15v15h15zM180 1425h-15v15h15zM120 1410h-15v15h15zM150 1410h-15v15h15zM195 1410h-15v15h15zM75 1395H60v15h15zM105 1395H90v15h15zM120 1395h-15v15h15zM150 1395h-15v15h15zM165 1395h-15v15h15zM195 1395h-15v15h15zM210 1395h-15v15h15zM75 1380H60v15h15zM90 1380H75v15h15zM120 1380h-15v15h15zM165 1380h-15v15h15zM195 1380h-15v15h15zM15 1500H0v15h15zM30 1500H15v15h15zM45 1485H30v15h15zM15 1485H0v15h15zM60 1485H45v15h15zM255 1515h-15v15h15zM270 1515h-15v15h15zM285 1515h-15v15h15zM285 1530h-15v15h15zM300 1515h-15v15h15zM315 1515h-15v15h15zM315 1575h-15v15h15zM330 1575h-15v15h15zM345 1575h-15v15h15zM360 1575h-15v15h15zM360 1590h-15v15h15zM315 1590h-15v15h15zM195 1515h-15v15h15zM75 1515H60v15h15zM90 1515H75v15h15zM105 1515H90v15h15zM135 1515h-15v15h15zM165 1515h-15v15h15zM210 1515h-15v15h15zM45 1515H30v15h15zM15 1515H0v15h15zM60 1515H45v15h15zM180 1590h-15v15h15zM195 1590h-15v15h15zM210 1590h-15v15h15zM150 1590h-15v15h15zM165 1590h-15v15h15zM30 1470H15v15h15zM45 1470H30v15h15zM15 1455H0v15h15zM15 1440H0v15h15zM45 1440H30v15h15zM60 1440H45v15h15zM15 1425H0v15h15zM30 1425H15v15h15zM45 1410H30v15h15zM15 1395H0v15h15zM45 1395H30v15h15zM60 1395H45v15h15zM15 1380H0v15h15zM45 1380H30v15h15zM255 1365h-15v15h15zM270 1365h-15v15h15zM285 1365h-15v15h15zM300 1365h-15v15h15zM315 1365h-15v15h15zM345 1365h-15v15h15zM360 1365h-15v15h15zM225 1350h-15v15h15zM240 1350h-15v15h15zM270 1350h-15v15h15zM300 1350h-15v15h15zM315 1350h-15v15h15zM330 1365h-15v15h15zM330 1350h-15v15h15zM345 1350h-15v15h15zM345 1335h-15v15h15zM360 1350h-15v15h15zM225 1335h-15v15h15zM240 1335h-15v15h15zM270 1335h-15v15h15zM285 1335h-15v15h15zM300 1335h-15v15h15zM315 1335h-15v15h15zM360 1335h-15v15h15zM225 1365h-15v15h15zM90 1365H75v15h15zM105 1365H90v15h15zM120 1365h-15v15h15zM195 1365h-15v15h15zM75 1350H60v15h15zM90 1350H75v15h15zM105 1350H90v15h15zM120 1350h-15v15h15zM150 1350h-15v15h15zM165 1350h-15v15h15zM180 1365h-15v15h15zM180 1350h-15v15h15zM195 1350h-15v15h15zM210 1350h-15v15h15zM90 1335H75v15h15zM105 1335H90v15h15zM120 1335h-15v15h15zM135 1335h-15v15h15zM150 1335h-15v15h15zM165 1335h-15v15h15zM30 1350H15v15h15zM60 1350H45v15h15zM15 1335H0v15h15zM30 1335H15v15h15zM420 900h15v15h-15zM420 885h15v15h-15zM405 870h15v15h-15zM390 855h15v15h-15zM375 840h15v15h-15zM375 825h15v15h-15zM360 810h15v15h-15zM525 825h15v15h-15zM510 810h15v15h-15zM480 810h15v15h-15zM495 795h15v15h-15zM480 795h15v15h-15zM480 765h15v15h-15zM465 750h15v15h-15zM585 690h15v15h-15zM1200 1560h15v15h-15zM1290 1500h15v15h-15zM1260 1470h15v15h-15zM1275 1470h15v15h-15zM1290 1485h15v15h-15zM1260 1455h15v15h-15zM1335 1440h15v15h-15zM1290 1440h15v15h-15zM1305 1455h15v15h-15zM1320 1455h15v15h-15zM1335 1455h15v15h-15zM1335 1470h15v15h-15zM1350 1455h15v15h-15zM1245 1440h15v15h-15zM1215 1440h15v15h-15zM1425 1575h15v15h-15zM1410 1560h15v15h-15zM1380 1560h15v15h-15zM1395 1545h15v15h-15zM1380 1545h15v15h-15zM1410 1515h15v15h-15zM1425 1500h15v15h-15zM1350 1470h15v15h-15zM1410 1455h15v15h-15zM1365 1455h15v15h-15zM1020 1275h15v15h-15zM1020 1260h15v15h-15zM1035 1245h15v15h-15zM1320 525h15v15h-15zM1275 525h15v15h-15zM1230 495h15v15h-15zM1260 465h15v15h-15zM1320 450h15v15h-15zM1290 450h15v15h-15zM1275 450h15v15h-15zM1170 825h15v15h-15zM1125 825h15v15h-15zM1170 810h15v15h-15zM1110 810h15v15h-15zM1185 795h15v15h-15zM1095 795h15v15h-15zM1140 780h15v15h-15zM1140 765h15v15h-15zM1170 765h15v15h-15zM1155 780h15v15h-15zM1140 795h15v15h-15zM1155 795h15v15h-15zM1155 810h15v15h-15zM1155 825h15v15h-15zM1095 825h15v15h-15zM1110 765h15v15h-15zM1170 750h15v15h-15zM1140 750h15v15h-15zM1125 750h15v15h-15zM1110 735h15v15h-15zM1185 690h15v15h-15zM1170 675h15v15h-15zM1185 645h15v15h-15zM1125 225h15v15h-15zM1110 165h15v15h-15zM1080 165h15v15h-15zM1140 150h15v15h-15zM1125 150h15v15h-15zM1065 150h15v15h-15zM1065 120h15v15h-15zM1050 120h15v15h-15zM1110 105h15v15h-15zM1185 90h15v15h-15zM1095 90h15v15h-15zM1065 90h15v15h-15zM435 45h15v15h-15zM435 30h15v15h-15zM435 0h15v15h-15zM435 15h15v15h-15zM1320 45h15v15h-15zM1305 45h15v15h-15zM1320 30h15v15h-15zM1335 0h15v15h-15zM1320 0h15v15h-15zM1320 15h15v15h-15zM1380 75h15v15h-15zM1365 75h15v15h-15zM1350 45h15v15h-15zM1380 30h15v15h-15zM1365 30h15v15h-15zM1350 30h15v15h-15zM1425 15h15v15h-15zM1395 30h15v15h-15zM1395 45h15v15h-15zM1425 30h15v15h-15zM1425 0h15v15h-15zM1410 0h15v15h-15zM1395 0h15v15h-15zM1380 0h15v15h-15zM1365 0h15v15h-15zM1350 0h15v15h-15zM435 0v15h-15V0zM420 0v15h-15V0zM405 0v15h-15V0zM390 0v15h-15V0zM375 0v15h-15V0zM420 90v15h-15V90zM405 90v15h-15V90zM390 90v15h-15V90zM375 90v15h-15V90zM435 15v15h-15V15zM435 30v15h-15V30zM405 30v15h-15V30zM405 45v15h-15V45zM405 60v15h-15V60zM390 60v15h-15V60zM390 45v15h-15V45zM390 30v15h-15V30zM375 60v15h-15V60zM375 45v15h-15V45zM375 30v15h-15V30zM435 45v15h-15V45zM435 60v15h-15V60zM435 75v15h-15V75zM435 90v15h-15V90zM360 0v15h-15V0zM360 90v15h-15V90zM345 0v15h-15V0zM315 15v15h-15V15zM300 0v15h-15V0zM285 0v15h-15V0zM315 30v15h-15V30zM300 30v15h-15V30zM300 45v15h-15V45zM285 45v15h-15V45zM270 30v15h-15V30zM255 15v15h-15V15zM255 0v15h-15V0zM240 15v15h-15V15zM240 0v15h-15V0zM225 15v15h-15V15zM225 30v15h-15V30zM225 45v15h-15V45zM240 45v15h-15V45zM255 60v15h-15V60zM240 75v15h-15V75zM225 75v15h-15V75zM210 60v15h-15V60zM195 45v15h-15V45zM195 30v15h-15V30zM180 30v15h-15V30zM180 60v15h-15V60zM165 75v15h-15V75zM135 60v15h-15V60zM135 75v15h-15V75zM135 90v15h-15V90zM165 90v15h-15V90zM165 105v15h-15v-15zM165 120v15h-15v-15zM165 45v15h-15V45zM150 45v15h-15V45zM165 15v15h-15V15zM150 15v15h-15V15zM135 30v15h-15V30zM165 0v15h-15V0zM210 15v15h-15V15zM225 0v15h-15V0zM285 60v15h-15V60zM285 75v15h-15V75zM285 90v15h-15V90zM300 75v15h-15V75zM315 90v15h-15V90zM315 105v15h-15v-15zM330 120v15h-15v-15zM360 120v15h-15v-15zM375 120v15h-15v-15zM375 135v15h-15v-15zM390 135v15h-15v-15zM405 120v15h-15v-15zM405 135v15h-15v-15zM420 135v15h-15v-15zM435 135v15h-15v-15zM435 150v15h-15v-15zM435 165v15h-15v-15zM435 180v15h-15v-15zM435 195v15h-15v-15zM435 210v15h-15v-15zM420 225v15h-15v-15zM420 240v15h-15v-15zM435 240v15h-15v-15zM435 255v15h-15v-15zM435 270v15h-15v-15zM420 285v15h-15v-15zM405 270v15h-15v-15zM390 270v15h-15v-15zM375 255v15h-15v-15zM360 255v15h-15v-15zM345 240v15h-15v-15zM330 225v15h-15v-15zM330 240v15h-15v-15zM315 240v15h-15v-15zM360 300v15h-15v-15zM345 300v15h-15v-15zM390 300v15h-15v-15zM375 300v15h-15v-15zM330 300v15h-15v-15zM360 360v15h-15v-15zM360 375v15h-15v-15zM345 360v15h-15v-15zM390 345v15h-15v-15zM375 345v15h-15v-15zM375 360v15h-15v-15zM375 315v15h-15v-15zM375 330v15h-15v-15zM435 345v15h-15v-15zM420 345v15h-15v-15zM435 315v15h-15v-15zM435 360v15h-15v-15zM420 375v15h-15v-15zM420 390v15h-15v-15zM405 390v15h-15v-15zM390 405v15h-15v-15zM375 420v15h-15v-15zM360 405v15h-15v-15zM345 405v15h-15v-15zM420 405v15h-15v-15zM420 420v15h-15v-15zM435 390v15h-15v-15zM435 405v15h-15v-15zM420 330v15h-15v-15zM405 315v15h-15v-15zM435 330v15h-15v-15zM345 330v15h-15v-15zM330 360v15h-15v-15zM300 225v15h-15v-15zM300 240v15h-15v-15zM300 255v15h-15v-15zM300 270v15h-15v-15zM300 285v15h-15v-15zM315 285v15h-15v-15zM315 300v15h-15v-15zM315 315v15h-15v-15zM315 330v15h-15v-15zM315 345v15h-15v-15zM315 360v15h-15v-15zM300 315v15h-15v-15zM285 315v15h-15v-15zM300 330v15h-15v-15zM300 345v15h-15v-15zM300 360v15h-15v-15zM285 345v15h-15v-15zM270 330v15h-15v-15zM270 345v15h-15v-15zM255 330v15h-15v-15zM255 315v15h-15v-15zM255 345v15h-15v-15zM270 285v15h-15v-15zM270 300v15h-15v-15zM255 285v15h-15v-15zM255 300v15h-15v-15zM195 270v15h-15v-15zM195 255v15h-15v-15zM195 225v15h-15v-15zM195 240v15h-15v-15zM150 240v15h-15v-15zM150 210v15h-15v-15zM150 225v15h-15v-15zM135 195v15h-15v-15zM120 195v15h-15v-15zM105 180v15H90v-15zM105 210v15H90v-15zM120 225v15h-15v-15zM105 240v15H90v-15zM135 210v15h-15v-15zM240 270v15h-15v-15zM240 285v15h-15v-15zM225 285v15h-15v-15zM210 285v15h-15v-15zM210 300v15h-15v-15zM195 300v15h-15v-15zM210 330v15h-15v-15zM195 330v15h-15v-15zM180 315v15h-15v-15zM180 300v15h-15v-15zM180 270v15h-15v-15zM180 255v15h-15v-15zM165 270v15h-15v-15zM165 240v15h-15v-15zM180 210v15h-15v-15zM150 270v15h-15v-15zM150 255v15h-15v-15zM150 300v15h-15v-15zM150 285v15h-15v-15zM120 255v15h-15v-15zM120 285v15h-15v-15zM120 270v15h-15v-15zM90 225v15H75v-15zM90 240v15H75v-15zM75 225v15H60v-15zM75 240v15H60v-15zM75 255v15H60v-15zM60 270v15H45v-15zM60 285v15H45v-15zM45 270v15H30v-15zM45 285v15H30v-15zM75 285v15H60v-15zM75 300v15H60v-15zM105 270v15H90v-15zM120 300v15h-15v-15zM150 330v15h-15v-15zM165 330v15h-15v-15zM165 345v15h-15v-15zM180 345v15h-15v-15zM195 345v15h-15v-15zM195 360v15h-15v-15zM195 375v15h-15v-15zM180 360v15h-15v-15zM165 375v15h-15v-15zM150 375v15h-15v-15zM180 420v15h-15v-15zM165 420v15h-15v-15zM135 406v15h-15v-15zM135 360v15h-15v-15zM150 315v15h-15v-15zM135 300v15h-15v-15zM90 300v15H75v-15zM105 300v15H90v-15zM15 300v15H0v-15zM30 300v15H15v-15zM45 300v15H30v-15zM135 315v15h-15v-15zM240 345v15h-15v-15zM240 330v15h-15v-15zM240 360v15h-15v-15zM225 345v15h-15v-15zM225 360v15h-15v-15zM210 375v15h-15v-15zM210 390v15h-15v-15zM255 375v15h-15v-15zM270 375v15h-15v-15zM255 390v15h-15v-15zM240 315v15h-15v-15zM285 360v15h-15v-15zM330 390v15h-15v-15zM315 390v15h-15v-15zM300 390v15h-15v-15zM300 405v15h-15v-15zM285 390v15h-15v-15zM285 405v15h-15v-15zM270 405v15h-15v-15zM255 420v15h-15v-15zM240 420v15h-15v-15zM210 420v15h-15v-15zM195 405v15h-15v-15zM270 420v15h-15v-15zM300 420v15h-15v-15zM330 405v15h-15v-15zM330 420v15h-15v-15zM315 420v15h-15v-15zM285 255v15h-15v-15zM315 210v15h-15v-15zM420 300v15h-15v-15zM420 165v15h-15v-15zM405 150v15h-15v-15zM390 150v15h-15v-15zM390 165v15h-15v-15zM375 150v15h-15v-15zM375 165v15h-15v-15zM390 180v15h-15v-15zM405 195v15h-15v-15zM360 165v15h-15v-15zM360 180v15h-15v-15zM330 150v15h-15v-15zM330 165v15h-15v-15zM315 180v15h-15v-15zM300 180v15h-15v-15zM270 180v15h-15v-15zM270 195v15h-15v-15zM285 195v15h-15v-15zM240 210v15h-15v-15zM255 210v15h-15v-15zM255 240v15h-15v-15zM225 195v15h-15v-15zM240 195v15h-15v-15zM225 255v15h-15v-15zM225 240v15h-15v-15zM285 210v15h-15v-15zM315 135v15h-15v-15zM300 135v15h-15v-15zM255 135v15h-15v-15zM285 150v15h-15v-15zM270 150v15h-15v-15zM285 165v15h-15v-15zM270 165v15h-15v-15zM255 165v15h-15v-15zM240 165v15h-15v-15zM225 165v15h-15v-15zM210 165v15h-15v-15zM195 165v15h-15v-15zM195 180v15h-15v-15zM165 150v15h-15v-15zM180 165v15h-15v-15zM165 180v15h-15v-15zM150 165v15h-15v-15zM150 180v15h-15v-15zM315 150v15h-15v-15zM375 195v15h-15v-15zM375 210v15h-15v-15zM390 225v15h-15v-15zM360 225v15h-15v-15zM345 195v15h-15v-15zM300 105v15h-15v-15zM285 105v15h-15v-15zM285 120v15h-15v-15zM270 105v15h-15v-15zM255 90v15h-15V90zM240 105v15h-15v-15zM225 90v15h-15V90zM225 105v15h-15v-15zM210 105v15h-15v-15zM195 120v15h-15v-15zM195 135v15h-15v-15zM180 135v15h-15v-15zM165 135v15h-15v-15zM150 120v15h-15v-15zM150 135v15h-15v-15zM135 120v15h-15v-15zM135 135v15h-15v-15zM135 150v15h-15v-15zM120 150v15h-15v-15zM105 150v15H90v-15zM105 120v15H90v-15zM75 120v15H60v-15zM30 120v15H15v-15zM30 135v15H15v-15zM15 135v15H0v-15zM30 150v15H15v-15zM30 165v15H15v-15zM15 165v15H0v-15zM45 165v15H30v-15zM90 165v15H75v-15zM60 180v15H45v-15zM60 195v15H45v-15zM75 195v15H60v-15zM45 195v15H30v-15zM30 210v15H15v-15zM45 225v15H30v-15zM45 240v15H30v-15zM30 240v15H15v-15zM45 255v15H30v-15zM30 255v15H15v-15zM15 255v15H0v-15zM15 210v15H0v-15zM15 225v15H0v-15zM75 135v15H60v-15zM210 135v15h-15v-15zM195 90v15h-15V90zM225 120v15h-15v-15zM345 15v15h-15V15zM345 30v15h-15V30zM345 45v15h-15V45zM345 60v15h-15V60zM345 75v15h-15V75zM345 90v15h-15V90zM105 0v15H90V0zM90 0v15H75V0zM75 0v15H60V0zM60 0v15H45V0zM45 0v15H30V0zM90 90v15H75V90zM75 90v15H60V90zM60 90v15H45V90zM45 90v15H30V90zM105 15v15H90V15zM105 30v15H90V30zM75 30v15H60V30zM75 45v15H60V45zM75 60v15H60V60zM60 60v15H45V60zM60 45v15H45V45zM60 30v15H45V30zM45 60v15H30V60zM45 45v15H30V45zM45 30v15H30V30zM105 45v15H90V45zM105 60v15H90V60zM105 75v15H90V75zM105 90v15H90V90zM30 0v15H15V0zM30 90v15H15V90zM15 0v15H0V0zM15 15v15H0V15zM15 30v15H0V30zM15 45v15H0V45zM15 60v15H0V60zM15 75v15H0V75zM15 90v15H0V90zM105 330v15H90v-15zM90 330v15H75v-15zM75 330v15H60v-15zM60 330v15H45v-15zM45 330v15H30v-15zM90 420v15H75v-15zM75 420v15H60v-15zM60 420v15H45v-15zM45 420v15H30v-15zM105 345v15H90v-15zM105 360v15H90v-15zM75 360v15H60v-15zM75 375v15H60v-15zM75 390v15H60v-15zM60 390v15H45v-15zM60 375v15H45v-15zM60 360v15H45v-15zM45 390v15H30v-15zM45 375v15H30v-15zM45 360v15H30v-15zM105 375v15H90v-15zM105 390v15H90v-15zM105 405v15H90v-15zM105 420v15H90v-15zM30 330v15H15v-15zM30 420v15H15v-15zM15 330v15H0v-15zM15 345v15H0v-15zM15 360v15H0v-15zM15 375v15H0v-15zM15 390v15H0v-15zM15 405v15H0v-15zM15 420v15H0v-15z"/></g></svg>