<svg xmlns="http://www.w3.org/2000/svg" viewBox="0 0 1440 1600"><g fill="#2db7b8" stroke="#000" stroke-width="2"><path d="M90 1365h15v15H90zM15 1365h15v15H15zM135 1350h15v15h-15zM90 1350h15v15H90zM45 1350h15v15H45zM120 1335h15v15h-15zM75 1320h15v15H75zM45 1320h15v15H45zM30 1320h15v15H30zM120 1305h15v15h-15zM105 1305h15v15h-15zM0 1305h15v15H0zM30 1290h15v15H30zM120 1275h15v15h-15zM120 1260h15v15h-15zM945 1350h15v15h-15zM900 1350h15v15h-15zM855 1350h15v15h-15zM930 1335h15v15h-15zM885 1320h15v15h-15zM855 1320h15v15h-15zM930 1305h15v15h-15zM915 1305h15v15h-15zM930 1275h15v15h-15zM930 1260h15v15h-15zM15 1260h15v15H15zM75 1245h15v15H75zM165 1230h15v15h-15zM210 1215h15v15h-15zM165 1215h15v15h-15zM195 1200h15v15h-15zM150 1185h15v15h-15zM195 1170h15v15h-15zM180 1170h15v15h-15zM195 1140h15v15h-15zM195 1125h15v15h-15zM180 1560h15v15h-15zM165 1545h15v15h-15zM165 1515h15v15h-15zM150 1515h15v15h-15zM180 1500h15v15h-15zM180 1485h15v15h-15zM150 1110h15v15h-15zM30 1245h15v15H30zM60 1230h15v15H60zM90 1215h15v15H90zM15 1215h15v15H15zM135 1440h15v15h-15zM135 1425h15v15h-15zM30 1425h15v15H30zM90 1410h15v15H90zM180 1395h15v15h-15zM180 1380h15v15h-15zM45 1410h15v15H45zM75 1395h15v15H75zM105 1380h15v15h-15zM30 1380h15v15H30zM135 1200h15v15h-15zM90 1200h15v15H90zM45 1200h15v15H45zM120 1185h15v15h-15zM75 1170h15v15H75zM45 1170h15v15H45zM30 1170h15v15H30zM120 1155h15v15h-15zM105 1155h15v15h-15zM0 1155h15v15H0zM30 1140h15v15H30zM15 1110h15v15H15zM75 1095h15v15H75zM30 1095h15v15H30zM60 1080h15v15H60zM15 1065h15v15H15zM45 1050h15v15H45zM75 1020h15v15H75zM45 1020h15v15H45zM30 1020h15v15H30zM0 1005h15v15H0zM30 990h15v15H30zM75 825h15v15H75zM30 825h15v15H30zM60 810h15v15H60zM45 780h15v15H45zM75 750h15v15H75zM45 750h15v15H45zM30 750h15v15H30zM30 720h15v15H30zM15 960h15v15H15zM1410 255h15v15h-15zM1365 255h15v15h-15zM1395 240h15v15h-15zM1350 225h15v15h-15zM1380 210h15v15h-15zM1410 180h15v15h-15zM1380 180h15v15h-15zM1365 180h15v15h-15zM1335 165h15v15h-15zM1365 150h15v15h-15zM1350 120h15v15h-15zM0 555h15v15H0zM30 540h15v15H30zM15 510h15v15H15zM75 495h15v15H75zM30 495h15v15H30zM60 480h15v15H60zM90 465h15v15H90zM15 465h15v15H15zM90 450h15v15H90zM45 450h15v15H45zM120 435h15v15h-15zM75 420h15v15H75zM45 420h15v15H45zM30 420h15v15H30zM120 405h15v15h-15zM105 405h15v15h-15zM0 405h15v15H0zM30 390h15v15H30zM120 375h15v15h-15zM120 360h15v15h-15zM15 360h15v15H15zM75 345h15v15H75zM30 345h15v15H30zM60 330h15v15H60zM90 315h15v15H90zM15 315h15v15H15zM90 300h15v15H90zM45 300h15v15H45zM120 285h15v15h-15zM75 270h15v15H75zM45 270h15v15H45zM30 270h15v15H30zM120 255h15v15h-15zM105 255h15v15h-15zM0 255h15v15H0zM30 240h15v15H30zM120 225h15v15h-15zM120 210h15v15h-15zM15 210h15v15H15zM75 195h15v15H75zM30 195h15v15H30zM60 180h15v15H60zM90 165h15v15H90zM15 165h15v15H15zM135 150h15v15h-15zM90 150h15v15H90zM45 150h15v15H45zM1275 120h15v15h-15zM1245 120h15v15h-15zM1230 120h15v15h-15zM1200 105h15v15h-15zM1260 195h15v15h-15zM1230 195h15v15h-15zM1215 195h15v15h-15zM1185 180h15v15h-15zM1230 90h15v15h-15zM1215 60h15v15h-15zM1275 45h15v15h-15zM1230 45h15v15h-15zM1350 600h15v15h-15zM1335 600h15v15h-15zM1335 570h15v15h-15zM1320 540h15v15h-15zM1335 525h15v15h-15zM945 1215h15v15h-15zM900 1200h15v15h-15zM945 1185h15v15h-15zM930 1185h15v15h-15zM945 1155h15v15h-15zM945 1140h15v15h-15zM900 1125h15v15h-15zM1260 30h15v15h-15zM1290 15h15v15h-15zM1215 15h15v15h-15zM1320 90h15v15h-15zM1320 60h15v15h-15zM1335 0h15v15h-15zM1320 15h15v15h-15zM1380 105h15v15h-15zM1350 105h15v15h-15zM1425 75h15v15h-15zM1425 90h15v15h-15zM1350 75h15v15h-15zM1335 105h15v15h-15zM1350 60h15v15h-15zM1350 45h15v15h-15zM1380 30h15v15h-15zM1365 30h15v15h-15zM1350 30h15v15h-15zM1425 15h15v15h-15zM1395 75h15v15h-15zM1395 60h15v15h-15zM1395 30h15v15h-15zM1395 45h15v15h-15zM1425 30h15v15h-15zM1410 0h15v15h-15zM1395 0h15v15h-15zM1380 0h15v15h-15zM1350 0h15v15h-15zM1290 0h15v15h-15zM1245 0h15v15h-15zM1170 135h15v15h-15zM1125 120h15v15h-15zM1095 120h15v15h-15zM1080 120h15v15h-15zM1170 105h15v15h-15zM1155 105h15v15h-15zM1080 90h15v15h-15zM1170 75h15v15h-15zM1170 60h15v15h-15zM1065 60h15v15h-15zM1125 45h15v15h-15zM1080 45h15v15h-15zM1110 30h15v15h-15zM1140 15h15v15h-15zM1065 15h15v15h-15zM1185 0h15v15h-15zM1140 0h15v15h-15zM1095 0h15v15h-15zM780 390h15v15h-15zM765 360h15v15h-15zM780 345h15v15h-15zM750 345h15v15h-15zM750 373h15v15h-15zM765 315h15v15h-15zM810 300h15v15h-15zM795 300h15v15h-15zM870 1035h15v15h-15zM885 1035h15v15h-15zM900 1035h15v15h-15zM915 1035h15v15h-15zM915 1050h15v15h-15zM930 1050h15v15h-15zM945 1050h15v15h-15zM930 1035h15v15h-15zM855 1050h15v15h-15zM825 1020h15v15h-15zM795 1005h15v15h-15zM780 990h15v15h-15zM870 975h15v15h-15zM870 960h15v15h-15zM765 960h15v15h-15zM750 975h15v15h-15zM765 945h15v15h-15zM750 945h15v15h-15zM750 960h15v15h-15zM825 945h15v15h-15zM765 930h15v15h-15zM765 915h15v15h-15zM795 900h15v15h-15zM1020 285h15v15h-15zM960 285h15v15h-15zM945 270h15v15h-15zM930 270h15v15h-15zM1020 255h15v15h-15zM1005 270h15v15h-15zM1005 255h15v15h-15zM900 255h15v15h-15zM915 270h15v15h-15zM930 285h15v15h-15zM930 240h15v15h-15zM1020 225h15v15h-15zM1020 240h15v15h-15zM1005 225h15v15h-15zM1005 210h15v15h-15zM915 210h15v15h-15zM975 195h15v15h-15zM960 210h15v15h-15zM930 195h15v15h-15zM960 180h15v15h-15zM960 165h15v15h-15zM960 150h15v15h-15zM975 165h15v15h-15zM975 180h15v15h-15zM990 180h15v15h-15zM1005 180h15v15h-15zM990 165h15v15h-15zM915 165h15v15h-15zM945 150h15v15h-15zM570 135h15v15h-15zM525 120h15v15h-15zM495 120h15v15h-15zM480 120h15v15h-15zM570 105h15v15h-15zM555 105h15v15h-15zM480 90h15v15h-15zM525 45h15v15h-15zM480 45h15v15h-15zM510 30h15v15h-15zM465 15h15v15h-15zM495 0h15v15h-15zM375 120h15v15h-15zM345 120h15v15h-15zM330 120h15v15h-15zM300 105h15v15h-15zM330 90h15v15h-15zM420 75h15v15h-15zM420 60h15v15h-15zM315 60h15v15h-15zM375 45h15v15h-15zM330 45h15v15h-15zM360 30h15v15h-15zM390 15h15v15h-15zM315 15h15v15h-15zM435 0h15v15h-15zM390 0h15v15h-15zM345 0h15v15h-15zM270 135h15v15h-15zM225 120h15v15h-15zM195 120h15v15h-15zM180 120h15v15h-15zM270 105h15v15h-15zM255 105h15v15h-15zM150 105h15v15h-15zM180 90h15v15h-15zM270 75h15v15h-15zM270 60h15v15h-15zM1365 360h15v15h-15zM1350 330h15v15h-15zM1410 315h15v15h-15zM1365 315h15v15h-15zM1395 300h15v15h-15zM1365 795h15v15h-15zM1350 780h15v15h-15zM1380 825h15v15h-15zM1350 840h15v15h-15zM1380 1095h15v15h-15zM1365 1080h15v15h-15zM1395 1125h15v15h-15zM1395 1155h15v15h-15zM1365 1140h15v15h-15zM1380 1140h15v15h-15zM1395 1140h15v15h-15zM1350 285h15v15h-15zM1305 345h15v15h-15zM1305 330h15v15h-15zM165 60h15v15h-15zM225 45h15v15h-15zM180 45h15v15h-15zM210 30h15v15h-15zM240 15h15v15h-15zM165 15h15v15h-15zM120 76h15v15h-15zM135 61h15v15h-15zM120 31h15v15h-15zM285 0h15v15h-15zM240 0h15v15h-15zM195 0h15v15h-15zM270 285h15v15h-15zM225 270h15v15h-15zM150 255h15v15h-15zM180 240h15v15h-15zM270 225h15v15h-15zM270 210h15v15h-15zM165 210h15v15h-15zM225 195h15v15h-15zM180 195h15v15h-15zM210 180h15v15h-15zM240 165h15v15h-15zM165 165h15v15h-15zM285 150h15v15h-15zM240 150h15v15h-15zM195 150h15v15h-15zM120 135h15v15h-15zM75 120h15v15H75zM45 120h15v15H45zM30 120h15v15H30zM120 105h15v15h-15zM105 105h15v15h-15zM450 990h15v15h-15zM465 960h15v15h-15zM450 960h15v15h-15zM480 945h15v15h-15zM450 945h15v15h-15zM480 930h15v15h-15zM465 930h15v15h-15zM450 930h15v15h-15zM480 915h15v15h-15zM465 915h15v15h-15zM450 915h15v15h-15zM465 900h15v15h-15zM570 1185h15v15h-15zM555 1185h15v15h-15zM540 1185h15v15h-15zM525 1185h15v15h-15zM510 1185h15v15h-15zM495 1185h15v15h-15zM585 1170h15v15h-15zM570 1170h15v15h-15zM555 1170h15v15h-15zM540 1170h15v15h-15zM525 1170h15v15h-15zM510 1170h15v15h-15zM585 1155h15v15h-15zM585 1140h15v15h-15zM570 1140h15v15h-15zM570 1155h15v15h-15zM555 1155h15v15h-15zM540 1155h15v15h-15zM525 1155h15v15h-15zM555 1140h15v15h-15zM540 1140h15v15h-15zM570 1125h15v15h-15zM540 1125h15v15h-15zM525 1125h15v15h-15zM510 1125h15v15h-15zM585 1110h15v15h-15zM585 1185h15v15h-15zM555 1110h15v15h-15zM540 1110h15v15h-15zM525 1110h15v15h-15zM510 1110h15v15h-15zM525 1095h15v15h-15zM510 1095h15v15h-15zM495 1095h15v15h-15zM510 1080h15v15h-15zM495 1080h15v15h-15zM570 1335h15v15h-15zM555 1335h15v15h-15zM540 1335h15v15h-15zM525 1335h15v15h-15zM510 1335h15v15h-15zM495 1335h15v15h-15zM465 1335h15v15h-15zM585 1320h15v15h-15zM570 1320h15v15h-15zM555 1320h15v15h-15zM540 1320h15v15h-15zM525 1320h15v15h-15zM510 1320h15v15h-15zM585 1305h15v15h-15zM585 1290h15v15h-15zM570 1305h15v15h-15zM555 1305h15v15h-15zM540 1305h15v15h-15zM525 1305h15v15h-15zM510 1305h15v15h-15zM450 1305h15v15h-15zM435 1305h15v15h-15zM555 1290h15v15h-15zM540 1290h15v15h-15zM525 1290h15v15h-15zM465 1290h15v15h-15zM450 1290h15v15h-15zM570 1275h15v15h-15zM555 1275h15v15h-15zM540 1275h15v15h-15zM585 1260h15v15h-15zM585 1335h15v15h-15zM570 1260h15v15h-15zM555 1260h15v15h-15zM540 1260h15v15h-15zM495 1260h15v15h-15zM480 1260h15v15h-15zM465 1260h15v15h-15zM450 1260h15v15h-15zM480 1275h15v15h-15zM465 1275h15v15h-15zM450 1275h15v15h-15zM585 1245h15v15h-15zM570 1245h15v15h-15zM555 1245h15v15h-15zM495 1245h15v15h-15zM480 1245h15v15h-15zM465 1245h15v15h-15zM585 1230h15v15h-15zM525 1230h15v15h-15zM480 1230h15v15h-15zM495 1230h15v15h-15zM510 1230h15v15h-15zM510 1245h15v15h-15zM465 1230h15v15h-15zM555 1215h15v15h-15zM540 1215h15v15h-15zM525 1215h15v15h-15zM510 1215h15v15h-15zM495 1215h15v15h-15zM480 1215h15v15h-15zM570 1200h15v15h-15zM540 1200h15v15h-15zM555 1200h15v15h-15zM525 1200h15v15h-15zM510 1200h15v15h-15zM495 1200h15v15h-15zM480 1200h15v15h-15zM600 1185h15v15h-15zM630 1170h15v15h-15zM615 1170h15v15h-15zM615 1155h15v15h-15zM630 1155h15v15h-15zM600 1170h15v15h-15zM660 1155h15v15h-15zM645 1155h15v15h-15zM600 1155h15v15h-15zM690 1140h15v15h-15zM675 1140h15v15h-15zM660 1140h15v15h-15zM645 1140h15v15h-15zM630 1140h15v15h-15zM615 1140h15v15h-15zM600 1140h15v15h-15zM720 1125h15v15h-15zM705 1125h15v15h-15zM690 1125h15v15h-15zM675 1125h15v15h-15zM660 1125h15v15h-15zM645 1125h15v15h-15zM735 1110h15v15h-15zM720 1110h15v15h-15zM705 1110h15v15h-15zM690 1110h15v15h-15zM675 1110h15v15h-15zM660 1110h15v15h-15zM645 1110h15v15h-15zM630 1110h15v15h-15zM615 1110h15v15h-15zM600 1110h15v15h-15zM630 1125h15v15h-15zM615 1125h15v15h-15zM600 1125h15v15h-15zM585 1125h15v15h-15zM735 1095h15v15h-15zM720 1095h15v15h-15zM705 1095h15v15h-15zM690 1095h15v15h-15zM675 1095h15v15h-15zM660 1095h15v15h-15zM645 1095h15v15h-15zM630 1095h15v15h-15zM615 1095h15v15h-15zM735 1080h15v15h-15zM720 1080h15v15h-15zM705 1080h15v15h-15zM690 1080h15v15h-15zM675 1080h15v15h-15zM660 1080h15v15h-15zM645 1080h15v15h-15zM735 1065h15v15h-15zM720 1065h15v15h-15zM705 1065h15v15h-15zM690 1065h15v15h-15zM780 1110h15v15h-15zM765 1110h15v15h-15zM750 1110h15v15h-15zM825 1095h15v15h-15zM795 1095h15v15h-15zM780 1095h15v15h-15zM765 1095h15v15h-15zM750 1095h15v15h-15zM840 1080h15v15h-15zM825 1080h15v15h-15zM810 1080h15v15h-15zM795 1080h15v15h-15zM780 1080h15v15h-15zM765 1080h15v15h-15zM750 1080h15v15h-15zM885 1065h15v15h-15zM870 1065h15v15h-15zM855 1065h15v15h-15zM840 1065h15v15h-15zM825 1065h15v15h-15zM810 1065h15v15h-15zM795 1065h15v15h-15zM780 1065h15v15h-15zM765 1065h15v15h-15zM750 1065h15v15h-15zM885 1050h15v15h-15zM900 1065h15v15h-15zM900 1050h15v15h-15zM1035 1140h15v15h-15zM1050 1140h15v15h-15zM1065 1140h15v15h-15zM1005 1140h15v15h-15zM1020 1140h15v15h-15zM870 1050h15v15h-15zM840 1050h15v15h-15zM825 1050h15v15h-15zM810 1050h15v15h-15zM795 1050h15v15h-15zM780 1050h15v15h-15zM345 1035h15v15h-15zM315 1035h15v15h-15zM300 1035h15v15h-15zM360 1020h15v15h-15zM345 1020h15v15h-15zM330 1035h15v15h-15zM345 1050h15v15h-15zM315 1050h15v15h-15zM330 1050h15v15h-15zM330 1020h15v15h-15zM315 1020h15v15h-15zM315 1005h15v15h-15zM300 1020h15v15h-15zM435 1005h15v15h-15zM435 990h15v15h-15zM420 1005h15v15h-15zM405 1005h15v15h-15zM345 1005h15v15h-15zM300 1005h15v15h-15zM405 990h15v15h-15zM330 990h15v15h-15zM330 1005h15v15h-15zM315 990h15v15h-15zM300 990h15v15h-15zM420 975h15v15h-15zM405 975h15v15h-15zM435 960h15v15h-15zM420 960h15v15h-15zM405 960h15v15h-15zM300 960h15v15h-15zM435 945h15v15h-15zM420 945h15v15h-15zM405 945h15v15h-15zM390 945h15v15h-15zM315 945h15v15h-15zM300 945h15v15h-15zM435 930h15v15h-15zM420 930h15v15h-15zM405 930h15v15h-15zM435 915h15v15h-15zM330 915h15v15h-15zM315 915h15v15h-15zM435 900h15v15h-15zM420 900h15v15h-15zM285 1020h15v15h-15zM285 1005h15v15h-15zM285 990h15v15h-15zM270 990h15v15h-15zM270 1005h15v15h-15zM270 975h15v15h-15zM255 975h15v15h-15zM285 960h15v15h-15zM255 960h15v15h-15zM285 945h15v15h-15zM270 945h15v15h-15zM255 945h15v15h-15zM240 945h15v15h-15zM285 930h15v15h-15zM270 930h15v15h-15zM255 930h15v15h-15zM240 930h15v15h-15zM255 915h15v15h-15zM240 915h15v15h-15zM240 900h15v15h-15zM225 900h15v15h-15zM465 885h15v15h-15zM450 885h15v15h-15zM450 900h15v15h-15zM495 870h15v15h-15zM480 885h15v15h-15zM480 870h15v15h-15zM465 870h15v15h-15zM465 855h15v15h-15zM450 870h15v15h-15zM495 855h15v15h-15zM450 855h15v15h-15zM510 840h15v15h-15zM495 840h15v15h-15zM480 840h15v15h-15zM480 855h15v15h-15zM465 840h15v15h-15zM450 840h15v15h-15zM525 825h15v15h-15zM510 825h15v15h-15zM495 825h15v15h-15zM510 810h15v15h-15zM495 810h15v15h-15zM480 810h15v15h-15zM465 810h15v15h-15zM450 810h15v15h-15zM525 795h15v15h-15zM495 795h15v15h-15zM480 795h15v15h-15zM465 795h15v15h-15zM450 795h15v15h-15zM540 780h15v15h-15zM510 780h15v15h-15zM480 780h15v15h-15zM465 780h15v15h-15zM450 780h15v15h-15zM540 765h15v15h-15zM525 765h15v15h-15zM510 765h15v15h-15zM495 765h15v15h-15zM480 765h15v15h-15zM465 765h15v15h-15zM450 765h15v15h-15zM450 750h15v15h-15zM540 750h15v15h-15zM525 750h15v15h-15zM510 750h15v15h-15zM495 750h15v15h-15zM480 750h15v15h-15zM465 750h15v15h-15zM420 885h15v15h-15zM405 885h15v15h-15zM390 885h15v15h-15zM375 885h15v15h-15zM435 870h15v15h-15zM420 870h15v15h-15zM405 870h15v15h-15zM390 870h15v15h-15zM375 870h15v15h-15zM360 870h15v15h-15zM345 870h15v15h-15zM435 855h15v15h-15zM435 840h15v15h-15zM420 840h15v15h-15zM420 855h15v15h-15zM405 855h15v15h-15zM390 855h15v15h-15zM375 855h15v15h-15zM360 855h15v15h-15zM345 855h15v15h-15zM300 855h15v15h-15zM405 840h15v15h-15zM390 840h15v15h-15zM375 840h15v15h-15zM360 840h15v15h-15zM420 825h15v15h-15zM405 825h15v15h-15zM390 825h15v15h-15zM435 810h15v15h-15zM480 825h15v15h-15zM465 825h15v15h-15zM450 825h15v15h-15zM435 825h15v15h-15zM435 885h15v15h-15zM420 810h15v15h-15zM405 810h15v15h-15zM390 810h15v15h-15zM435 795h15v15h-15zM420 795h15v15h-15zM405 795h15v15h-15zM435 780h15v15h-15zM420 780h15v15h-15zM405 780h15v15h-15zM390 780h15v15h-15zM435 765h15v15h-15zM420 765h15v15h-15zM405 765h15v15h-15zM405 750h15v15h-15zM390 765h15v15h-15zM375 765h15v15h-15zM435 750h15v15h-15zM420 750h15v15h-15zM390 750h15v15h-15zM375 750h15v15h-15zM240 885h15v15h-15zM225 885h15v15h-15zM285 870h15v15h-15zM270 870h15v15h-15zM255 870h15v15h-15zM240 870h15v15h-15zM225 870h15v15h-15zM285 855h15v15h-15zM285 840h15v15h-15zM270 855h15v15h-15zM255 855h15v15h-15zM240 855h15v15h-15zM225 855h15v15h-15zM210 855h15v15h-15zM255 840h15v15h-15zM240 840h15v15h-15zM225 840h15v15h-15zM210 840h15v15h-15zM270 825h15v15h-15zM270 840h15v15h-15zM255 825h15v15h-15zM240 825h15v15h-15zM225 825h15v15h-15zM210 825h15v15h-15zM255 810h15v15h-15zM240 810h15v15h-15zM225 810h15v15h-15zM210 810h15v15h-15zM210 795h15v15h-15zM240 795h15v15h-15zM225 795h15v15h-15zM255 780h15v15h-15zM240 780h15v15h-15zM225 780h15v15h-15zM210 780h15v15h-15zM195 780h15v15h-15zM255 765h15v15h-15zM240 765h15v15h-15zM225 765h15v15h-15zM210 765h15v15h-15zM195 765h15v15h-15zM270 750h15v15h-15zM255 750h15v15h-15zM240 750h15v15h-15zM225 750h15v15h-15zM210 750h15v15h-15zM195 750h15v15h-15zM570 735h15v15h-15zM555 735h15v15h-15zM540 735h15v15h-15zM525 735h15v15h-15zM510 735h15v15h-15zM495 735h15v15h-15zM465 735h15v15h-15zM450 735h15v15h-15zM585 720h15v15h-15zM570 720h15v15h-15zM555 720h15v15h-15zM540 720h15v15h-15zM525 720h15v15h-15zM510 720h15v15h-15zM495 720h15v15h-15zM480 735h15v15h-15zM480 720h15v15h-15zM465 720h15v15h-15zM465 705h15v15h-15zM450 720h15v15h-15zM585 705h15v15h-15zM585 690h15v15h-15zM570 705h15v15h-15zM555 705h15v15h-15zM540 705h15v15h-15zM525 705h15v15h-15zM510 705h15v15h-15zM495 705h15v15h-15zM480 705h15v15h-15zM450 705h15v15h-15zM555 690h15v15h-15zM540 690h15v15h-15zM525 690h15v15h-15zM510 690h15v15h-15zM495 690h15v15h-15zM480 690h15v15h-15zM465 690h15v15h-15zM450 690h15v15h-15zM570 675h15v15h-15zM555 675h15v15h-15zM540 675h15v15h-15zM525 675h15v15h-15zM570 660h15v15h-15zM555 660h15v15h-15zM540 660h15v15h-15zM480 660h15v15h-15zM465 660h15v15h-15zM450 660h15v15h-15zM450 645h15v15h-15zM450 615h15v15h-15zM540 600h15v15h-15zM525 600h15v15h-15zM420 735h15v15h-15zM405 735h15v15h-15zM390 735h15v15h-15zM375 735h15v15h-15zM435 720h15v15h-15zM420 720h15v15h-15zM405 720h15v15h-15zM390 720h15v15h-15zM375 720h15v15h-15zM435 705h15v15h-15zM435 690h15v15h-15zM420 705h15v15h-15zM420 690h15v15h-15zM405 705h15v15h-15zM390 705h15v15h-15zM375 705h15v15h-15zM300 705h15v15h-15zM405 690h15v15h-15zM390 690h15v15h-15zM375 690h15v15h-15zM300 690h15v15h-15zM420 675h15v15h-15zM405 675h15v15h-15zM390 675h15v15h-15zM375 675h15v15h-15zM435 660h15v15h-15zM435 735h15v15h-15zM420 660h15v15h-15zM405 660h15v15h-15zM390 660h15v15h-15zM375 660h15v15h-15zM315 660h15v15h-15zM300 660h15v15h-15zM435 645h15v15h-15zM420 645h15v15h-15zM405 645h15v15h-15zM390 645h15v15h-15zM375 645h15v15h-15zM315 645h15v15h-15zM300 645h15v15h-15zM435 630h15v15h-15zM420 630h15v15h-15zM405 630h15v15h-15zM390 630h15v15h-15zM375 630h15v15h-15zM315 630h15v15h-15zM300 630h15v15h-15zM435 615h15v15h-15zM420 615h15v15h-15zM405 615h15v15h-15zM375 615h15v15h-15zM315 615h15v15h-15zM300 615h15v15h-15zM300 600h15v15h-15zM420 600h15v15h-15zM390 600h15v15h-15zM330 600h15v15h-15zM315 600h15v15h-15zM270 735h15v15h-15zM255 735h15v15h-15zM240 735h15v15h-15zM225 735h15v15h-15zM210 735h15v15h-15zM195 735h15v15h-15zM285 720h15v15h-15zM270 720h15v15h-15zM255 720h15v15h-15zM240 720h15v15h-15zM225 720h15v15h-15zM210 720h15v15h-15zM195 720h15v15h-15zM285 705h15v15h-15zM285 690h15v15h-15zM300 675h15v15h-15zM285 675h15v15h-15zM270 690h15v15h-15zM270 705h15v15h-15zM255 705h15v15h-15zM240 705h15v15h-15zM225 705h15v15h-15zM210 705h15v15h-15zM195 705h15v15h-15zM255 690h15v15h-15zM240 690h15v15h-15zM225 690h15v15h-15zM210 690h15v15h-15zM195 690h15v15h-15zM270 675h15v15h-15zM255 675h15v15h-15zM240 675h15v15h-15zM225 675h15v15h-15zM210 675h15v15h-15zM195 675h15v15h-15zM285 660h15v15h-15zM270 660h15v15h-15zM255 660h15v15h-15zM240 660h15v15h-15zM225 660h15v15h-15zM210 660h15v15h-15zM195 660h15v15h-15zM285 645h15v15h-15zM270 645h15v15h-15zM255 645h15v15h-15zM225 645h15v15h-15zM195 645h15v15h-15zM195 630h15v15h-15zM285 630h15v15h-15zM270 630h15v15h-15zM240 630h15v15h-15zM210 630h15v15h-15zM210 645h15v15h-15zM285 615h15v15h-15zM270 615h15v15h-15zM255 615h15v15h-15zM240 615h15v15h-15zM225 615h15v15h-15zM195 615h15v15h-15zM285 600h15v15h-15zM240 600h15v15h-15zM225 600h15v15h-15zM210 600h15v15h-15zM540 585h15v15h-15zM525 585h15v15h-15zM510 585h15v15h-15zM465 585h15v15h-15zM450 585h15v15h-15zM555 570h15v15h-15zM540 570h15v15h-15zM525 570h15v15h-15zM510 570h15v15h-15zM495 570h15v15h-15zM480 570h15v15h-15zM465 555h15v15h-15zM450 570h15v15h-15zM555 555h15v15h-15zM540 555h15v15h-15zM525 555h15v15h-15zM510 555h15v15h-15zM495 555h15v15h-15zM480 555h15v15h-15zM555 540h15v15h-15zM525 540h15v15h-15zM510 540h15v15h-15zM495 540h15v15h-15zM480 540h15v15h-15zM465 540h15v15h-15zM540 525h15v15h-15zM525 525h15v15h-15zM510 525h15v15h-15zM495 525h15v15h-15zM540 510h15v15h-15zM525 510h15v15h-15zM510 510h15v15h-15zM495 510h15v15h-15zM480 510h15v15h-15zM465 510h15v15h-15zM450 510h15v15h-15zM525 495h15v15h-15zM495 495h15v15h-15zM510 495h15v15h-15zM480 495h15v15h-15zM465 495h15v15h-15zM450 495h15v15h-15zM510 480h15v15h-15zM480 480h15v15h-15zM495 480h15v15h-15zM465 480h15v15h-15zM450 480h15v15h-15zM555 465h15v15h-15zM495 465h15v15h-15zM480 465h15v15h-15zM465 465h15v15h-15zM450 465h15v15h-15zM450 450h15v15h-15zM540 450h15v15h-15zM480 450h15v15h-15zM465 450h15v15h-15zM420 585h15v15h-15zM405 585h15v15h-15zM315 585h15v15h-15zM300 585h15v15h-15zM435 570h15v15h-15zM420 570h15v15h-15zM330 585h15v15h-15zM330 570h15v15h-15zM330 555h15v15h-15zM315 570h15v15h-15zM315 555h15v15h-15zM300 570h15v15h-15zM435 555h15v15h-15zM345 555h15v15h-15zM300 555h15v15h-15zM375 540h15v15h-15zM390 555h15v15h-15zM360 540h15v15h-15zM345 540h15v15h-15zM330 540h15v15h-15zM315 540h15v15h-15zM300 540h15v15h-15zM420 525h15v15h-15zM405 525h15v15h-15zM390 525h15v15h-15zM375 525h15v15h-15zM360 525h15v15h-15zM345 525h15v15h-15zM435 510h15v15h-15zM480 525h15v15h-15zM465 525h15v15h-15zM450 525h15v15h-15zM435 525h15v15h-15zM435 585h15v15h-15zM420 510h15v15h-15zM405 510h15v15h-15zM390 510h15v15h-15zM375 510h15v15h-15zM360 510h15v15h-15zM345 510h15v15h-15zM330 510h15v15h-15zM315 510h15v15h-15zM300 510h15v15h-15zM435 495h15v15h-15zM420 495h15v15h-15zM405 495h15v15h-15zM390 495h15v15h-15zM375 495h15v15h-15zM345 495h15v15h-15zM330 495h15v15h-15zM315 495h15v15h-15zM300 495h15v15h-15zM435 480h15v15h-15zM420 480h15v15h-15zM405 480h15v15h-15zM390 480h15v15h-15zM375 480h15v15h-15zM360 480h15v15h-15zM360 495h15v15h-15zM345 480h15v15h-15zM330 480h15v15h-15zM315 480h15v15h-15zM300 480h15v15h-15zM435 465h15v15h-15zM420 465h15v15h-15zM405 465h15v15h-15zM405 450h15v15h-15zM390 465h15v15h-15zM375 465h15v15h-15zM360 465h15v15h-15zM345 465h15v15h-15zM330 465h15v15h-15zM315 465h15v15h-15zM300 465h15v15h-15zM300 450h15v15h-15zM435 450h15v15h-15zM420 450h15v15h-15zM390 450h15v15h-15zM375 450h15v15h-15zM360 450h15v15h-15zM345 450h15v15h-15zM330 450h15v15h-15zM315 450h15v15h-15zM225 585h15v15h-15zM210 585h15v15h-15zM285 570h15v15h-15zM240 570h15v15h-15zM225 570h15v15h-15zM210 570h15v15h-15zM285 555h15v15h-15zM285 540h15v15h-15zM255 540h15v15h-15zM240 540h15v15h-15zM225 540h15v15h-15zM270 525h15v15h-15zM225 525h15v15h-15zM210 525h15v15h-15zM285 510h15v15h-15zM330 525h15v15h-15zM315 525h15v15h-15zM300 525h15v15h-15zM285 525h15v15h-15zM285 585h15v15h-15zM270 510h15v15h-15zM255 510h15v15h-15zM210 510h15v15h-15zM195 510h15v15h-15zM285 495h15v15h-15zM270 495h15v15h-15zM255 495h15v15h-15zM240 495h15v15h-15zM225 495h15v15h-15zM210 495h15v15h-15zM195 495h15v15h-15zM285 480h15v15h-15zM270 480h15v15h-15zM255 480h15v15h-15zM240 480h15v15h-15zM225 480h15v15h-15zM210 480h15v15h-15zM285 465h15v15h-15zM270 465h15v15h-15zM255 465h15v15h-15zM240 465h15v15h-15zM225 465h15v15h-15zM210 465h15v15h-15zM285 450h15v15h-15zM270 450h15v15h-15zM255 450h15v15h-15zM240 450h15v15h-15zM225 450h15v15h-15zM555 435h15v15h-15zM555 450h15v15h-15zM540 435h15v15h-15zM525 435h15v15h-15zM465 435h15v15h-15zM450 435h15v15h-15zM540 420h15v15h-15zM525 420h15v15h-15zM495 405h15v15h-15zM480 420h15v15h-15zM465 405h15v15h-15zM450 420h15v15h-15zM525 405h15v15h-15zM450 390h15v15h-15zM570 375h15v15h-15zM555 375h15v15h-15zM585 360h15v15h-15zM555 360h15v15h-15zM540 360h15v15h-15zM480 360h15v15h-15zM465 360h15v15h-15zM450 360h15v15h-15zM585 345h15v15h-15zM570 345h15v15h-15zM540 345h15v15h-15zM525 345h15v15h-15zM480 345h15v15h-15zM465 345h15v15h-15zM450 345h15v15h-15zM585 330h15v15h-15zM570 330h15v15h-15zM555 330h15v15h-15zM540 330h15v15h-15zM510 330h15v15h-15zM480 330h15v15h-15zM465 330h15v15h-15zM585 315h15v15h-15zM570 315h15v15h-15zM555 315h15v15h-15zM540 315h15v15h-15zM525 315h15v15h-15zM510 315h15v15h-15zM495 315h15v15h-15zM480 315h15v15h-15zM465 315h15v15h-15zM450 315h15v15h-15zM585 300h15v15h-15zM570 300h15v15h-15zM540 300h15v15h-15zM525 300h15v15h-15zM510 300h15v15h-15zM495 300h15v15h-15zM480 300h15v15h-15zM465 300h15v15h-15zM420 435h15v15h-15zM405 435h15v15h-15zM390 435h15v15h-15zM375 435h15v15h-15zM360 435h15v15h-15zM345 435h15v15h-15zM315 435h15v15h-15zM300 435h15v15h-15zM435 420h15v15h-15zM420 420h15v15h-15zM405 420h15v15h-15zM390 420h15v15h-15zM375 420h15v15h-15zM360 420h15v15h-15zM345 420h15v15h-15zM330 435h15v15h-15zM330 420h15v15h-15zM315 420h15v15h-15zM315 405h15v15h-15zM300 420h15v15h-15zM435 390h15v15h-15zM405 405h15v15h-15zM390 405h15v15h-15zM375 405h15v15h-15zM360 405h15v15h-15zM345 405h15v15h-15zM330 405h15v15h-15zM300 405h15v15h-15zM405 390h15v15h-15zM375 390h15v15h-15zM360 390h15v15h-15zM345 390h15v15h-15zM330 390h15v15h-15zM315 390h15v15h-15zM300 390h15v15h-15zM420 375h15v15h-15zM405 375h15v15h-15zM390 375h15v15h-15zM375 375h15v15h-15zM360 375h15v15h-15zM345 375h15v15h-15zM435 360h15v15h-15zM435 435h15v15h-15zM420 360h15v15h-15zM405 360h15v15h-15zM390 360h15v15h-15zM375 360h15v15h-15zM360 360h15v15h-15zM345 360h15v15h-15zM330 360h15v15h-15zM315 360h15v15h-15zM300 360h15v15h-15zM435 345h15v15h-15zM420 345h15v15h-15zM405 345h15v15h-15zM390 345h15v15h-15zM375 345h15v15h-15zM345 345h15v15h-15zM330 345h15v15h-15zM315 345h15v15h-15zM300 345h15v15h-15zM435 330h15v15h-15zM420 330h15v15h-15zM405 330h15v15h-15zM390 330h15v15h-15zM375 330h15v15h-15zM360 330h15v15h-15zM330 330h15v15h-15zM315 330h15v15h-15zM420 315h15v15h-15zM405 315h15v15h-15zM390 315h15v15h-15zM375 315h15v15h-15zM360 315h15v15h-15zM345 315h15v15h-15zM330 315h15v15h-15zM315 315h15v15h-15zM300 315h15v15h-15zM435 300h15v15h-15zM420 300h15v15h-15zM390 300h15v15h-15zM375 300h15v15h-15zM360 300h15v15h-15zM345 300h15v15h-15zM330 300h15v15h-15zM315 300h15v15h-15zM270 435h15v15h-15zM255 435h15v15h-15zM240 435h15v15h-15zM225 435h15v15h-15zM285 420h15v15h-15zM270 420h15v15h-15zM255 420h15v15h-15zM240 420h15v15h-15zM225 420h15v15h-15zM285 405h15v15h-15zM285 390h15v15h-15zM270 405h15v15h-15zM270 390h15v15h-15zM255 405h15v15h-15zM240 405h15v15h-15zM255 390h15v15h-15zM240 375h15v15h-15zM285 360h15v15h-15zM285 435h15v15h-15zM255 360h15v15h-15zM240 360h15v15h-15zM285 345h15v15h-15zM270 345h15v15h-15zM255 345h15v15h-15zM240 345h15v15h-15zM285 330h15v15h-15zM270 330h15v15h-15zM255 330h15v15h-15zM285 315h15v15h-15zM270 315h15v15h-15zM255 315h15v15h-15zM285 300h15v15h-15zM270 300h15v15h-15zM255 300h15v15h-15zM420 285h15v15h-15zM405 285h15v15h-15zM390 285h15v15h-15zM375 285h15v15h-15zM360 285h15v15h-15zM315 285h15v15h-15zM300 285h15v15h-15zM420 270h15v15h-15zM390 270h15v15h-15zM375 270h15v15h-15zM360 270h15v15h-15zM345 270h15v15h-15zM330 270h15v15h-15zM315 270h15v15h-15zM315 255h15v15h-15zM300 255h15v15h-15zM300 270h15v15h-15zM285 285h15v15h-15zM285 270h15v15h-15zM435 255h15v15h-15zM435 240h15v15h-15zM420 255h15v15h-15zM405 255h15v15h-15zM390 255h15v15h-15zM375 255h15v15h-15zM360 255h15v15h-15zM345 255h15v15h-15zM330 255h15v15h-15zM405 240h15v15h-15zM375 240h15v15h-15zM360 240h15v15h-15zM345 240h15v15h-15zM330 240h15v15h-15zM315 240h15v15h-15zM300 240h15v15h-15zM420 225h15v15h-15zM405 225h15v15h-15zM390 225h15v15h-15zM345 225h15v15h-15zM330 225h15v15h-15zM435 210h15v15h-15zM435 225h15v15h-15zM420 240h15v15h-15zM420 210h15v15h-15zM405 210h15v15h-15zM390 210h15v15h-15zM375 210h15v15h-15zM315 225h15v15h-15zM420 195h15v15h-15zM405 195h15v15h-15zM390 195h15v15h-15zM375 195h15v15h-15zM435 180h15v15h-15zM420 180h15v15h-15zM405 180h15v15h-15zM405 165h15v15h-15zM390 180h15v15h-15zM375 180h15v15h-15zM360 195h15v15h-15zM345 210h15v15h-15zM360 210h15v15h-15zM360 225h15v15h-15zM435 165h15v15h-15zM420 165h15v15h-15zM435 150h15v15h-15zM570 285h15v15h-15zM540 285h15v15h-15zM495 285h15v15h-15zM525 270h15v15h-15zM495 270h15v15h-15zM480 270h15v15h-15zM465 255h15v15h-15zM585 255h15v15h-15zM585 240h15v15h-15zM570 255h15v15h-15zM555 255h15v15h-15zM525 255h15v15h-15zM495 255h15v15h-15zM450 255h15v15h-15zM450 270h15v15h-15zM555 240h15v15h-15zM525 240h15v15h-15zM510 240h15v15h-15zM480 240h15v15h-15zM465 240h15v15h-15zM570 225h15v15h-15zM525 225h15v15h-15zM495 225h15v15h-15zM585 210h15v15h-15zM570 210h15v15h-15zM540 210h15v15h-15zM525 210h15v15h-15zM510 210h15v15h-15zM495 210h15v15h-15zM465 210h15v15h-15zM450 210h15v15h-15zM570 195h15v15h-15zM525 195h15v15h-15zM495 195h15v15h-15zM480 195h15v15h-15zM540 180h15v15h-15zM510 180h15v15h-15zM465 180h15v15h-15zM585 165h15v15h-15zM555 165h15v15h-15zM540 165h15v15h-15zM510 165h15v15h-15zM480 150h15v15h-15zM465 165h15v15h-15zM450 165h15v15h-15zM585 150h15v15h-15zM570 150h15v15h-15zM540 150h15v15h-15zM480 165h15v15h-15zM495 135h15v15h-15zM510 135h15v15h-15zM495 150h15v15h-15zM465 150h15v15h-15zM450 150h15v15h-15zM720 285h15v15h-15zM735 270h15v15h-15zM690 285h15v15h-15zM645 285h15v15h-15zM675 270h15v15h-15zM645 270h15v15h-15zM630 270h15v15h-15zM615 255h15v15h-15zM735 255h15v15h-15zM735 240h15v15h-15zM720 255h15v15h-15zM705 255h15v15h-15zM675 255h15v15h-15zM645 255h15v15h-15zM600 255h15v15h-15zM705 240h15v15h-15zM675 240h15v15h-15zM660 240h15v15h-15zM630 240h15v15h-15zM615 240h15v15h-15zM720 225h15v15h-15zM675 225h15v15h-15zM645 225h15v15h-15zM735 210h15v15h-15zM720 210h15v15h-15zM690 210h15v15h-15zM675 210h15v15h-15zM660 210h15v15h-15zM645 210h15v15h-15zM615 210h15v15h-15zM600 210h15v15h-15zM720 195h15v15h-15zM675 195h15v15h-15zM645 195h15v15h-15zM630 195h15v15h-15zM660 180h15v15h-15zM615 180h15v15h-15zM735 165h15v15h-15zM660 165h15v15h-15zM645 165h15v15h-15zM615 165h15v15h-15zM600 165h15v15h-15zM735 150h15v15h-15zM720 150h15v15h-15zM615 150h15v15h-15zM795 285h15v15h-15zM780 285h15v15h-15zM765 285h15v15h-15zM765 270h15v15h-15zM780 270h15v15h-15zM765 255h15v15h-15zM885 255h15v15h-15zM885 240h15v15h-15zM885 225h15v15h-15zM900 240h15v15h-15zM750 255h15v15h-15zM855 240h15v15h-15zM780 240h15v15h-15zM765 240h15v15h-15zM870 225h15v15h-15zM885 210h15v15h-15zM870 210h15v15h-15zM840 210h15v15h-15zM825 210h15v15h-15zM810 210h15v15h-15zM795 210h15v15h-15zM750 210h15v15h-15zM870 195h15v15h-15zM825 195h15v15h-15zM795 195h15v15h-15zM780 195h15v15h-15zM825 165h15v15h-15zM840 180h15v15h-15zM855 195h15v15h-15zM810 180h15v15h-15zM765 180h15v15h-15zM885 165h15v15h-15zM855 165h15v15h-15zM840 165h15v15h-15zM810 165h15v15h-15zM795 165h15v15h-15zM765 165h15v15h-15zM780 165h15v15h-15zM795 180h15v15h-15zM750 165h15v15h-15zM885 150h15v15h-15zM870 150h15v15h-15zM840 150h15v15h-15zM795 150h15v15h-15zM765 150h15v15h-15zM675 420h15v15h-15zM615 405h15v15h-15zM675 405h15v15h-15zM645 405h15v15h-15zM675 390h15v15h-15zM660 390h15v15h-15zM630 390h15v15h-15zM675 375h15v15h-15zM645 375h15v15h-15zM735 360h15v15h-15zM720 360h15v15h-15zM690 360h15v15h-15zM675 360h15v15h-15zM660 360h15v15h-15zM645 360h15v15h-15zM615 360h15v15h-15zM600 360h15v15h-15zM720 345h15v15h-15zM675 345h15v15h-15zM645 345h15v15h-15zM630 345h15v15h-15zM690 330h15v15h-15zM660 330h15v15h-15zM615 330h15v15h-15zM735 315h15v15h-15zM720 330h15v15h-15zM735 330h15v15h-15zM765 330h15v15h-15zM705 315h15v15h-15zM690 315h15v15h-15zM660 315h15v15h-15zM645 315h15v15h-15zM615 315h15v15h-15zM600 315h15v15h-15zM735 300h15v15h-15zM750 300h15v15h-15zM750 285h15v15h-15zM720 300h15v15h-15zM690 300h15v15h-15zM645 300h15v15h-15zM615 300h15v15h-15zM870 135h15v15h-15zM840 135h15v15h-15zM795 135h15v15h-15zM825 120h15v15h-15zM810 120h15v15h-15zM825 135h15v15h-15zM795 120h15v15h-15zM780 120h15v15h-15zM765 105h15v15h-15zM885 105h15v15h-15zM885 90h15v15h-15zM870 105h15v15h-15zM855 105h15v15h-15zM825 105h15v15h-15zM795 105h15v15h-15zM750 105h15v15h-15zM855 90h15v15h-15zM825 90h15v15h-15zM810 90h15v15h-15zM780 90h15v15h-15zM765 90h15v15h-15zM870 75h15v15h-15zM825 75h15v15h-15zM795 75h15v15h-15zM885 60h15v15h-15zM885 45h15v15h-15zM870 60h15v15h-15zM840 60h15v15h-15zM825 60h15v15h-15zM810 60h15v15h-15zM795 60h15v15h-15zM765 60h15v15h-15zM780 60h15v15h-15zM870 45h15v15h-15zM855 75h15v15h-15zM840 90h15v15h-15zM840 75h15v15h-15zM810 75h15v15h-15zM855 60h15v15h-15zM855 45h15v15h-15zM870 30h15v15h-15zM825 45h15v15h-15zM795 45h15v15h-15zM780 45h15v15h-15zM765 45h15v15h-15zM840 30h15v15h-15zM840 45h15v15h-15zM825 30h15v15h-15zM810 30h15v15h-15zM795 30h15v15h-15zM750 15h15v15h-15zM795 0h15v15h-15zM765 0h15v15h-15zM945 135h15v15h-15zM930 150h15v15h-15zM930 135h15v15h-15zM945 120h15v15h-15zM930 120h15v15h-15zM915 135h15v15h-15zM915 120h15v15h-15zM900 120h15v15h-15zM915 105h15v15h-15zM945 105h15v15h-15zM900 105h15v15h-15zM930 90h15v15h-15zM915 90h15v15h-15zM945 75h15v15h-15zM945 60h15v15h-15zM915 60h15v15h-15zM900 60h15v15h-15zM885 75h15v15h-15zM900 75h15v15h-15zM915 75h15v15h-15zM930 45h15v15h-15zM915 30h15v15h-15zM1035 15h15v15h-15zM1005 15h15v15h-15zM1035 0h15v15h-15zM1020 0h15v15h-15zM1020 435h15v15h-15zM1035 405h15v15h-15zM1035 420h15v15h-15zM1020 420h15v15h-15zM1050 405h15v15h-15zM1035 390h15v15h-15zM1035 375h15v15h-15zM1020 405h15v15h-15zM1005 405h15v15h-15zM1005 390h15v15h-15zM1020 375h15v15h-15zM1035 360h15v15h-15zM1020 345h15v15h-15zM1020 330h15v15h-15zM1005 330h15v15h-15zM1035 345h15v15h-15zM1005 360h15v15h-15zM1035 330h15v15h-15zM1035 315h15v15h-15zM1005 315h15v15h-15zM1035 300h15v15h-15zM1020 300h15v15h-15zM720 135h15v15h-15zM690 135h15v15h-15zM645 135h15v15h-15zM675 120h15v15h-15zM645 120h15v15h-15zM630 120h15v15h-15zM615 105h15v15h-15zM735 105h15v15h-15zM735 90h15v15h-15zM720 105h15v15h-15zM705 105h15v15h-15zM675 105h15v15h-15zM660 120h15v15h-15zM660 105h15v15h-15zM645 105h15v15h-15zM600 105h15v15h-15zM705 90h15v15h-15zM675 90h15v15h-15zM660 90h15v15h-15zM630 90h15v15h-15zM615 90h15v15h-15zM720 75h15v15h-15zM705 75h15v15h-15zM675 75h15v15h-15zM690 120h15v15h-15zM705 135h15v15h-15zM705 120h15v15h-15zM720 120h15v15h-15zM735 135h15v15h-15zM750 150h15v15h-15zM750 135h15v15h-15zM690 105h15v15h-15zM690 90h15v15h-15zM690 75h15v15h-15zM645 75h15v15h-15zM690 60h15v15h-15zM720 45h15v15h-15zM735 30h15v15h-15zM675 45h15v15h-15zM645 45h15v15h-15zM690 30h15v15h-15zM675 30h15v15h-15zM660 30h15v15h-15zM735 15h15v15h-15zM705 15h15v15h-15zM690 15h15v15h-15zM735 0h15v15h-15zM720 0h15v15h-15zM1170 585h15v15h-15zM1140 585h15v15h-15zM1125 570h15v15h-15zM1065 555h15v15h-15zM1125 555h15v15h-15zM1125 540h15v15h-15zM1110 540h15v15h-15zM1065 540h15v15h-15zM1125 525h15v15h-15zM1140 570h15v15h-15zM1140 555h15v15h-15zM1140 540h15v15h-15zM1140 525h15v15h-15zM1125 510h15v15h-15zM1110 510h15v15h-15zM1125 495h15v15h-15zM1110 480h15v15h-15zM1110 465h15v15h-15zM1095 465h15v15h-15zM1095 450h15v15h-15zM1110 405h15v15h-15zM1110 345h15v15h-15zM1020 585h15v15h-15zM1035 555h15v15h-15zM1035 540h15v15h-15zM1035 585h15v15h-15zM1035 570h15v15h-15zM1065 585h15v15h-15zM1065 570h15v15h-15zM1020 555h15v15h-15zM1020 525h15v15h-15zM1035 510h15v15h-15zM1020 510h15v15h-15zM1020 495h15v15h-15zM1020 480h15v15h-15zM1035 495h15v15h-15zM1035 465h15v15h-15zM1035 450h15v15h-15zM1020 450h15v15h-15zM1140 735h15v15h-15zM1080 720h15v15h-15zM1065 705h15v15h-15zM1140 720h15v15h-15zM1125 705h15v15h-15zM1095 705h15v15h-15zM1050 705h15v15h-15zM1155 690h15v15h-15zM1140 705h15v15h-15zM1140 690h15v15h-15zM1125 690h15v15h-15zM1080 690h15v15h-15zM1065 690h15v15h-15zM1050 690h15v15h-15zM1050 675h15v15h-15zM1125 675h15v15h-15zM1080 675h15v15h-15zM1140 660h15v15h-15zM1125 660h15v15h-15zM1080 660h15v15h-15zM1065 660h15v15h-15zM1050 660h15v15h-15zM1125 645h15v15h-15zM1080 645h15v15h-15zM1140 630h15v15h-15zM1065 630h15v15h-15zM1155 615h15v15h-15zM1140 615h15v15h-15zM1065 615h15v15h-15zM1050 615h15v15h-15zM1140 600h15v15h-15zM1065 600h15v15h-15zM1035 705h15v15h-15zM1035 690h15v15h-15zM1035 660h15v15h-15zM1020 645h15v15h-15zM1035 615h15v15h-15zM1035 630h15v15h-15zM1050 645h15v15h-15zM1035 645h15v15h-15zM1005 615h15v15h-15zM1035 600h15v15h-15zM1020 600h15v15h-15zM1170 885h15v15h-15zM1185 885h15v15h-15zM1140 885h15v15h-15zM1095 885h15v15h-15zM1095 870h15v15h-15zM1080 870h15v15h-15zM1065 855h15v15h-15zM1170 855h15v15h-15zM1170 840h15v15h-15zM1155 855h15v15h-15zM1170 870h15v15h-15zM1155 870h15v15h-15zM1095 855h15v15h-15zM1050 855h15v15h-15zM1155 840h15v15h-15zM1080 840h15v15h-15zM1065 840h15v15h-15zM1170 825h15v15h-15zM1155 825h15v15h-15zM1095 825h15v15h-15zM1080 810h15v15h-15zM1080 825h15v15h-15zM1050 825h15v15h-15zM1170 810h15v15h-15zM1140 810h15v15h-15zM1065 810h15v15h-15zM1050 810h15v15h-15zM1080 795h15v15h-15zM1140 780h15v15h-15zM1155 795h15v15h-15zM1155 765h15v15h-15zM1155 780h15v15h-15zM1155 750h15v15h-15zM1140 765h15v15h-15zM1065 765h15v15h-15zM1050 765h15v15h-15zM1140 750h15v15h-15zM1065 750h15v15h-15zM1080 750h15v15h-15zM1080 735h15v15h-15zM1080 780h15v15h-15zM1095 810h15v15h-15zM1095 795h15v15h-15zM1095 780h15v15h-15zM1080 765h15v15h-15zM1035 855h15v15h-15zM1035 765h15v15h-15zM1050 780h15v15h-15zM1035 780h15v15h-15zM1050 795h15v15h-15zM1035 750h15v15h-15zM1035 720h15v15h-15zM1035 735h15v15h-15zM1050 750h15v15h-15zM1050 720h15v15h-15zM1050 735h15v15h-15zM1170 1035h15v15h-15zM1140 1035h15v15h-15zM1095 1035h15v15h-15zM1125 1020h15v15h-15zM1095 1020h15v15h-15zM1080 1020h15v15h-15zM1065 1005h15v15h-15zM1185 1005h15v15h-15zM1185 990h15v15h-15zM1170 1005h15v15h-15zM1125 1005h15v15h-15zM1095 1005h15v15h-15zM1050 1005h15v15h-15zM1155 990h15v15h-15zM1125 990h15v15h-15zM1110 990h15v15h-15zM1080 990h15v15h-15zM1065 990h15v15h-15zM1170 975h15v15h-15zM1125 975h15v15h-15zM1095 975h15v15h-15zM1185 960h15v15h-15zM1170 960h15v15h-15zM1125 960h15v15h-15zM1110 960h15v15h-15zM1095 960h15v15h-15zM1065 960h15v15h-15zM1065 975h15v15h-15zM1080 960h15v15h-15zM1050 960h15v15h-15zM1170 945h15v15h-15zM1155 960h15v15h-15zM1155 945h15v15h-15zM1200 945h15v15h-15zM1185 945h15v15h-15zM1155 930h15v15h-15zM1125 945h15v15h-15zM1095 945h15v15h-15zM1080 945h15v15h-15zM1065 945h15v15h-15zM1110 930h15v15h-15zM1065 930h15v15h-15zM1050 930h15v15h-15zM1050 945h15v15h-15zM1050 990h15v15h-15zM1050 975h15v15h-15zM1080 930h15v15h-15zM1185 915h15v15h-15zM1185 930h15v15h-15zM1170 930h15v15h-15zM1155 915h15v15h-15zM1110 915h15v15h-15zM1095 915h15v15h-15zM1065 915h15v15h-15zM1050 915h15v15h-15zM1185 900h15v15h-15zM1170 900h15v15h-15zM1140 900h15v15h-15zM1095 900h15v15h-15zM1065 900h15v15h-15zM1290 1035h15v15h-15zM1305 1065h15v15h-15zM1305 1080h15v15h-15zM1320 1095h15v15h-15zM1305 1110h15v15h-15zM1320 1110h15v15h-15zM1320 1125h15v15h-15zM1320 1140h15v15h-15zM1335 1140h15v15h-15zM1275 1005h15v15h-15zM1200 1005h15v15h-15zM1185 1020h15v15h-15zM1200 1020h15v15h-15zM1125 1050h15v15h-15zM1140 1050h15v15h-15zM1125 1065h15v15h-15zM1140 1065h15v15h-15zM1140 1080h15v15h-15zM1155 1080h15v15h-15zM1140 1095h15v15h-15zM1155 1095h15v15h-15zM1140 1110h15v15h-15zM1155 1110h15v15h-15zM1110 1140h15v15h-15zM1125 1140h15v15h-15zM1110 1125h15v15h-15zM1110 1110h15v15h-15zM1080 1140h15v15h-15zM1080 1155h15v15h-15zM1380 1260h15v15h-15zM1380 1275h15v15h-15zM1275 1555h15v15h-15zM1395 1155v15h-15v-15zM1380 1155v15h-15v-15zM1365 1155v15h-15v-15zM1350 1155v15h-15v-15zM1335 1155v15h-15v-15zM1380 1245v15h-15v-15zM1365 1245v15h-15v-15zM1350 1245v15h-15v-15zM1335 1245v15h-15v-15zM1395 1170v15h-15v-15zM1395 1185v15h-15v-15zM1365 1185v15h-15v-15zM1365 1200v15h-15v-15zM1365 1215v15h-15v-15zM1350 1215v15h-15v-15zM1350 1200v15h-15v-15zM1350 1185v15h-15v-15zM1335 1215v15h-15v-15zM1335 1200v15h-15v-15zM1335 1185v15h-15v-15zM1395 1200v15h-15v-15zM1395 1215v15h-15v-15zM1395 1230v15h-15v-15zM1395 1245v15h-15v-15zM1320 1155v15h-15v-15zM1320 1245v15h-15v-15zM1305 1155v15h-15v-15zM1275 1170v15h-15v-15zM1260 1155v15h-15v-15zM1245 1155v15h-15v-15zM1275 1185v15h-15v-15zM1260 1185v15h-15v-15zM1260 1200v15h-15v-15zM1245 1200v15h-15v-15zM1230 1185v15h-15v-15zM1215 1170v15h-15v-15zM1215 1155v15h-15v-15zM1200 1170v15h-15v-15zM1200 1155v15h-15v-15zM1185 1170v15h-15v-15zM1185 1185v15h-15v-15zM1185 1200v15h-15v-15zM1200 1200v15h-15v-15zM1215 1215v15h-15v-15zM1200 1230v15h-15v-15zM1185 1230v15h-15v-15zM1170 1215v15h-15v-15zM1155 1200v15h-15v-15zM1155 1185v15h-15v-15zM1140 1185v15h-15v-15zM1140 1215v15h-15v-15zM1125 1230v15h-15v-15zM1095 1215v15h-15v-15zM1095 1230v15h-15v-15zM1095 1245v15h-15v-15zM1125 1245v15h-15v-15zM1125 1260v15h-15v-15zM1125 1275v15h-15v-15zM1125 1200v15h-15v-15zM1110 1200v15h-15v-15zM1125 1170v15h-15v-15zM1110 1170v15h-15v-15zM1095 1185v15h-15v-15zM1125 1155v15h-15v-15zM1170 1170v15h-15v-15zM1185 1155v15h-15v-15zM1245 1215v15h-15v-15zM1245 1230v15h-15v-15zM1245 1245v15h-15v-15zM1260 1230v15h-15v-15zM1275 1245v15h-15v-15zM1275 1260v15h-15v-15zM1290 1275v15h-15v-15zM1320 1275v15h-15v-15zM1335 1275v15h-15v-15zM1335 1290v15h-15v-15zM1350 1290v15h-15v-15zM1365 1275v15h-15v-15zM1365 1290v15h-15v-15zM1380 1290v15h-15v-15zM1395 1290v15h-15v-15zM1395 1305v15h-15v-15zM1395 1320v15h-15v-15zM1395 1335v15h-15v-15zM1395 1350v15h-15v-15zM1395 1365v15h-15v-15zM1380 1380v15h-15v-15zM1380 1395v15h-15v-15zM1395 1395v15h-15v-15zM1395 1410v15h-15v-15zM1395 1425v15h-15v-15zM1380 1440v15h-15v-15zM1365 1425v15h-15v-15zM1350 1425v15h-15v-15zM1335 1410v15h-15v-15zM1320 1410v15h-15v-15zM1305 1395v15h-15v-15zM1290 1380v15h-15v-15zM1290 1395v15h-15v-15zM1275 1395v15h-15v-15zM1320 1455v15h-15v-15zM1305 1455v15h-15v-15zM1350 1455v15h-15v-15zM1335 1455v15h-15v-15zM1290 1455v15h-15v-15zM1320 1515v15h-15v-15zM1320 1530v15h-15v-15zM1305 1515v15h-15v-15zM1350 1500v15h-15v-15zM1335 1500v15h-15v-15zM1335 1515v15h-15v-15zM1335 1470v15h-15v-15zM1335 1485v15h-15v-15zM1395 1500v15h-15v-15zM1380 1500v15h-15v-15zM1395 1470v15h-15v-15zM1395 1515v15h-15v-15zM1380 1530v15h-15v-15zM1380 1545v15h-15v-15zM1365 1545v15h-15v-15zM1350 1560v15h-15v-15zM1335 1575v15h-15v-15zM1320 1560v15h-15v-15zM1305 1560v15h-15v-15zM1380 1560v15h-15v-15zM1380 1575v15h-15v-15zM1395 1545v15h-15v-15zM1395 1560v15h-15v-15zM1380 1485v15h-15v-15zM1365 1470v15h-15v-15zM1395 1485v15h-15v-15zM1305 1485v15h-15v-15zM1290 1515v15h-15v-15zM1260 1380v15h-15v-15zM1260 1395v15h-15v-15zM1260 1410v15h-15v-15zM1260 1425v15h-15v-15zM1260 1440v15h-15v-15zM1275 1440v15h-15v-15zM1275 1455v15h-15v-15zM1275 1470v15h-15v-15zM1275 1485v15h-15v-15zM1275 1500v15h-15v-15zM1275 1515v15h-15v-15zM1260 1470v15h-15v-15zM1245 1470v15h-15v-15zM1260 1485v15h-15v-15zM1260 1500v15h-15v-15zM1260 1515v15h-15v-15zM1245 1500v15h-15v-15zM1230 1485v15h-15v-15zM1230 1500v15h-15v-15zM1215 1485v15h-15v-15zM1215 1470v15h-15v-15zM1215 1500v15h-15v-15zM1230 1440v15h-15v-15zM1230 1455v15h-15v-15zM1215 1440v15h-15v-15zM1215 1455v15h-15v-15zM1155 1425v15h-15v-15zM1155 1410v15h-15v-15zM1155 1380v15h-15v-15zM1155 1395v15h-15v-15zM1110 1395v15h-15v-15zM1110 1365v15h-15v-15zM1110 1380v15h-15v-15zM1095 1350v15h-15v-15zM1080 1350v15h-15v-15zM1065 1335v15h-15v-15zM1065 1365v15h-15v-15zM1080 1380v15h-15v-15zM1065 1395v15h-15v-15zM1095 1365v15h-15v-15zM1200 1425v15h-15v-15zM1200 1440v15h-15v-15zM1185 1440v15h-15v-15zM1170 1440v15h-15v-15zM1170 1455v15h-15v-15zM1155 1455v15h-15v-15zM1170 1485v15h-15v-15zM1155 1485v15h-15v-15zM1140 1470v15h-15v-15zM1140 1455v15h-15v-15zM1140 1425v15h-15v-15zM1140 1410v15h-15v-15zM1125 1425v15h-15v-15zM1125 1395v15h-15v-15zM1140 1365v15h-15v-15zM1110 1425v15h-15v-15zM1110 1410v15h-15v-15zM1110 1455v15h-15v-15zM1110 1440v15h-15v-15zM1080 1410v15h-15v-15zM1080 1440v15h-15v-15zM1080 1425v15h-15v-15zM1050 1380v15h-15v-15zM1050 1395v15h-15v-15zM1035 1380v15h-15v-15zM1035 1395v15h-15v-15zM1035 1410v15h-15v-15zM1020 1425v15h-15v-15zM1020 1440v15h-15v-15zM1005 1425v15h-15v-15zM1005 1440v15h-15v-15zM1035 1440v15h-15v-15zM1035 1455v15h-15v-15zM1065 1425v15h-15v-15zM1080 1455v15h-15v-15zM1110 1485v15h-15v-15zM1125 1485v15h-15v-15zM1125 1500v15h-15v-15zM1140 1500v15h-15v-15zM1155 1500v15h-15v-15zM1155 1515v15h-15v-15zM1155 1530v15h-15v-15zM1140 1515v15h-15v-15zM1125 1530v15h-15v-15zM1110 1530v15h-15v-15zM1140 1575v15h-15v-15zM1125 1575v15h-15v-15zM1095 1561v15h-15v-15zM1095 1515v15h-15v-15zM1110 1470v15h-15v-15zM1095 1455v15h-15v-15zM1050 1455v15h-15v-15zM1065 1455v15h-15v-15zM975 1455v15h-15v-15zM990 1455v15h-15v-15zM1005 1455v15h-15v-15zM1095 1470v15h-15v-15zM1200 1500v15h-15v-15zM1200 1485v15h-15v-15zM1200 1515v15h-15v-15zM1185 1500v15h-15v-15zM1185 1515v15h-15v-15zM1170 1530v15h-15v-15zM1170 1545v15h-15v-15zM1215 1530v15h-15v-15zM1230 1530v15h-15v-15zM1215 1545v15h-15v-15zM1200 1470v15h-15v-15zM1245 1515v15h-15v-15z"/><path d="M1290 1545v15h-15v-15zM1275 1545v15h-15v-15zM1260 1545v15h-15v-15zM1260 1560v15h-15v-15zM1245 1545v15h-15v-15zM1245 1560v15h-15v-15zM1230 1560v15h-15v-15zM1215 1575v15h-15v-15zM1200 1575v15h-15v-15zM1170 1575v15h-15v-15zM1155 1560v15h-15v-15zM1230 1575v15h-15v-15zM1260 1575v15h-15v-15zM1290 1560v15h-15v-15zM1290 1575v15h-15v-15zM1275 1575v15h-15v-15zM1245 1410v15h-15v-15zM1275 1365v15h-15v-15zM1380 1455v15h-15v-15zM1380 1320v15h-15v-15zM1365 1305v15h-15v-15zM1350 1305v15h-15v-15zM1350 1320v15h-15v-15zM1335 1305v15h-15v-15zM1335 1320v15h-15v-15zM1350 1335v15h-15v-15zM1365 1350v15h-15v-15zM1320 1320v15h-15v-15zM1320 1335v15h-15v-15zM1290 1305v15h-15v-15zM1290 1320v15h-15v-15zM1275 1335v15h-15v-15zM1260 1335v15h-15v-15zM1230 1335v15h-15v-15zM1230 1350v15h-15v-15zM1245 1350v15h-15v-15zM1200 1365v15h-15v-15zM1215 1365v15h-15v-15zM1215 1395v15h-15v-15zM1185 1350v15h-15v-15zM1200 1350v15h-15v-15zM1185 1410v15h-15v-15zM1185 1395v15h-15v-15zM1245 1365v15h-15v-15zM1275 1290v15h-15v-15zM1260 1290v15h-15v-15zM1215 1290v15h-15v-15zM1245 1305v15h-15v-15zM1230 1305v15h-15v-15zM1245 1320v15h-15v-15zM1230 1320v15h-15v-15zM1215 1320v15h-15v-15zM1200 1320v15h-15v-15zM1185 1320v15h-15v-15zM1170 1320v15h-15v-15zM1155 1320v15h-15v-15zM1155 1335v15h-15v-15zM1125 1305v15h-15v-15zM1140 1320v15h-15v-15zM1125 1335v15h-15v-15zM1110 1320v15h-15v-15zM1110 1335v15h-15v-15zM1275 1305v15h-15v-15zM1335 1350v15h-15v-15zM1335 1365v15h-15v-15zM1350 1380v15h-15v-15zM1320 1380v15h-15v-15zM1305 1350v15h-15v-15zM1260 1260v15h-15v-15zM1245 1260v15h-15v-15zM1245 1275v15h-15v-15zM1230 1260v15h-15v-15zM1215 1245v15h-15v-15zM1200 1260v15h-15v-15zM1185 1245v15h-15v-15zM1185 1260v15h-15v-15zM1170 1260v15h-15v-15zM1155 1275v15h-15v-15zM1155 1290v15h-15v-15zM1140 1290v15h-15v-15zM1125 1290v15h-15v-15zM1110 1275v15h-15v-15zM1110 1290v15h-15v-15zM1095 1275v15h-15v-15zM1095 1290v15h-15v-15zM1095 1305v15h-15v-15zM1080 1305v15h-15v-15zM1065 1305v15h-15v-15zM1065 1275v15h-15v-15zM1035 1275v15h-15v-15zM990 1275v15h-15v-15zM990 1290v15h-15v-15zM975 1290v15h-15v-15zM990 1305v15h-15v-15zM990 1320v15h-15v-15zM975 1320v15h-15v-15zM1005 1320v15h-15v-15zM1050 1320v15h-15v-15zM1020 1335v15h-15v-15zM1020 1350v15h-15v-15zM1035 1350v15h-15v-15zM1005 1350v15h-15v-15zM990 1365v15h-15v-15zM1005 1380v15h-15v-15zM1005 1395v15h-15v-15zM990 1395v15h-15v-15zM1005 1410v15h-15v-15zM990 1410v15h-15v-15zM975 1410v15h-15v-15zM975 1365v15h-15v-15zM975 1380v15h-15v-15zM1035 1290v15h-15v-15zM1170 1290v15h-15v-15zM1155 1245v15h-15v-15zM1185 1275v15h-15v-15zM1305 1170v15h-15v-15zM1305 1185v15h-15v-15zM1305 1200v15h-15v-15zM1305 1215v15h-15v-15zM1305 1230v15h-15v-15zM1305 1245v15h-15v-15zM1065 1155v15h-15v-15zM1050 1155v15h-15v-15zM1035 1155v15h-15v-15zM1020 1155v15h-15v-15zM1005 1155v15h-15v-15zM1050 1245v15h-15v-15zM1035 1245v15h-15v-15zM1020 1245v15h-15v-15zM1005 1245v15h-15v-15zM1065 1170v15h-15v-15zM1065 1185v15h-15v-15zM1035 1185v15h-15v-15zM1035 1200v15h-15v-15zM1035 1215v15h-15v-15zM1020 1215v15h-15v-15zM1020 1200v15h-15v-15zM1020 1185v15h-15v-15zM1005 1215v15h-15v-15zM1005 1200v15h-15v-15zM1005 1185v15h-15v-15zM1065 1200v15h-15v-15zM1065 1215v15h-15v-15zM1065 1230v15h-15v-15zM1065 1245v15h-15v-15zM990 1155v15h-15v-15zM990 1245v15h-15v-15zM975 1155v15h-15v-15zM975 1170v15h-15v-15zM975 1185v15h-15v-15zM975 1200v15h-15v-15zM975 1215v15h-15v-15zM975 1230v15h-15v-15zM975 1245v15h-15v-15zM1065 1485v15h-15v-15zM1050 1485v15h-15v-15zM1035 1485v15h-15v-15zM1020 1485v15h-15v-15zM1005 1485v15h-15v-15zM1050 1575v15h-15v-15zM1035 1575v15h-15v-15zM1020 1575v15h-15v-15zM1005 1575v15h-15v-15zM1065 1500v15h-15v-15zM1065 1515v15h-15v-15zM1035 1515v15h-15v-15zM1035 1530v15h-15v-15zM1035 1545v15h-15v-15zM1020 1545v15h-15v-15zM1020 1530v15h-15v-15zM1020 1515v15h-15v-15zM1005 1545v15h-15v-15zM1005 1530v15h-15v-15zM1005 1515v15h-15v-15zM1065 1530v15h-15v-15zM1065 1545v15h-15v-15zM1065 1560v15h-15v-15zM1065 1575v15h-15v-15zM990 1485v15h-15v-15zM990 1575v15h-15v-15zM975 1485v15h-15v-15zM975 1500v15h-15v-15zM975 1515v15h-15v-15zM975 1530v15h-15v-15zM975 1545v15h-15v-15zM975 1560v15h-15v-15zM975 1575v15h-15v-15zM1080 1125h15v15h-15zM1080 1110h15v15h-15zM1080 1095h15v15h-15zM1065 1110h15v15h-15zM1065 1095h15v15h-15zM1080 1080h15v15h-15zM1065 1080h15v15h-15zM1050 1080h15v15h-15zM1035 1125h15v15h-15zM1020 1125h15v15h-15zM1020 1110h15v15h-15zM1035 1095h15v15h-15zM1065 1065h15v15h-15zM1080 1050h15v15h-15zM1065 1035h15v15h-15zM1065 1020h15v15h-15zM1110 1095h15v15h-15zM1110 1080h15v15h-15zM1095 1065h15v15h-15zM1095 1050h15v15h-15zM1125 1125h15v15h-15zM1155 1125h15v15h-15zM1155 1140h15v15h-15zM1185 1035h15v15h-15zM1200 1035h15v15h-15zM1185 1050h15v15h-15zM1200 1050h15v15h-15zM1215 1050h15v15h-15zM1185 1065h15v15h-15zM1200 1065h15v15h-15zM1185 1080h15v15h-15zM1200 1080h15v15h-15zM1215 1080h15v15h-15zM1185 1095h15v15h-15zM1200 1095h15v15h-15zM1215 1095h15v15h-15zM1200 1110h15v15h-15zM1215 1110h15v15h-15zM1230 1110h15v15h-15zM1200 1125h15v15h-15zM1215 1125h15v15h-15zM1200 1140h15v15h-15zM1215 1140h15v15h-15zM1245 1110h15v15h-15zM1260 1080h15v15h-15zM1245 1125h15v15h-15zM1245 1140h15v15h-15zM1260 1125h15v15h-15zM1260 1140h15v15h-15zM1290 1140h15v15h-15zM1230 1125h15v15h-15zM1275 990h15v15h-15zM1260 990h15v15h-15zM1275 975h15v15h-15zM1290 1020h15v15h-15zM1290 1005h15v15h-15zM1290 990h15v15h-15zM1290 960h15v15h-15zM1275 960h15v15h-15zM1260 960h15v15h-15zM1200 960h15v15h-15zM1185 975h15v15h-15zM1275 945h15v15h-15zM1260 930h15v15h-15zM1260 915h15v15h-15zM1245 900h15v15h-15zM1260 885h15v15h-15zM1245 870h15v15h-15zM1260 855h15v15h-15zM1245 855h15v15h-15zM1230 840h15v15h-15zM1245 825h15v15h-15zM1020 1035h15v15h-15zM990 1035h15v15h-15zM945 1035h15v15h-15zM945 1020h15v15h-15zM930 1020h15v15h-15zM915 1005h15v15h-15zM945 1005h15v15h-15zM1050 885h15v15h-15zM1050 870h15v15h-15zM1065 885h15v15h-15zM1065 870h15v15h-15zM1080 915h15v15h-15zM1080 900h15v15h-15zM690 1335h15v15h-15zM615 1335h15v15h-15zM690 1320h15v15h-15zM675 1320h15v15h-15zM660 1320h15v15h-15zM645 1320h15v15h-15zM630 1335h15v15h-15zM630 1320h15v15h-15zM615 1320h15v15h-15zM600 1320h15v15h-15zM675 1305h15v15h-15zM660 1305h15v15h-15zM645 1305h15v15h-15zM660 1290h15v15h-15zM645 1290h15v15h-15zM630 1290h15v15h-15zM615 1290h15v15h-15zM600 1290h15v15h-15zM660 1275h15v15h-15zM630 1275h15v15h-15zM690 1260h15v15h-15zM675 1260h15v15h-15zM660 1260h15v15h-15zM615 1260h15v15h-15zM615 1275h15v15h-15zM600 1260h15v15h-15zM675 1245h15v15h-15zM630 1245h15v15h-15zM615 1245h15v15h-15zM600 1245h15v15h-15zM660 1230h15v15h-15zM660 1245h15v15h-15zM630 1230h15v15h-15zM615 1230h15v15h-15zM600 1230h15v15h-15zM690 1215h15v15h-15zM675 1215h15v15h-15zM630 1215h15v15h-15zM615 1215h15v15h-15zM675 1200h15v15h-15zM660 1200h15v15h-15zM645 1200h15v15h-15zM615 1200h15v15h-15zM570 1485h15v15h-15zM555 1485h15v15h-15zM540 1485h15v15h-15zM585 1470h15v15h-15zM570 1470h15v15h-15zM555 1470h15v15h-15zM540 1470h15v15h-15zM525 1470h15v15h-15zM510 1470h15v15h-15zM480 1485h15v15h-15zM435 1470h15v15h-15zM420 1500h15v15h-15zM405 1485h15v15h-15zM570 1455h15v15h-15zM555 1455h15v15h-15zM540 1455h15v15h-15zM525 1455h15v15h-15zM555 1440h15v15h-15zM540 1440h15v15h-15zM450 1440h15v15h-15zM570 1425h15v15h-15zM540 1425h15v15h-15zM525 1425h15v15h-15zM585 1410h15v15h-15zM570 1440h15v15h-15zM555 1410h15v15h-15zM540 1410h15v15h-15zM525 1410h15v15h-15zM465 1410h15v15h-15zM465 1425h15v15h-15zM450 1410h15v15h-15zM585 1395h15v15h-15zM555 1395h15v15h-15zM525 1395h15v15h-15zM480 1395h15v15h-15zM465 1395h15v15h-15zM450 1395h15v15h-15zM420 1380h15v15h-15zM585 1380h15v15h-15zM510 1380h15v15h-15zM510 1395h15v15h-15zM480 1380h15v15h-15zM465 1380h15v15h-15zM450 1380h15v15h-15zM555 1365h15v15h-15zM570 1365h15v15h-15zM540 1365h15v15h-15zM525 1365h15v15h-15zM480 1365h15v15h-15zM465 1365h15v15h-15zM585 1350h15v15h-15zM570 1350h15v15h-15zM555 1350h15v15h-15zM525 1350h15v15h-15zM510 1350h15v15h-15zM495 1350h15v15h-15zM465 1350h15v15h-15zM900 1485h15v15h-15zM885 1485h15v15h-15zM870 1485h15v15h-15zM615 1485h15v15h-15zM915 1470h15v15h-15zM900 1470h15v15h-15zM885 1470h15v15h-15zM870 1470h15v15h-15zM675 1470h15v15h-15zM660 1470h15v15h-15zM645 1470h15v15h-15zM630 1485h15v15h-15zM630 1470h15v15h-15zM615 1470h15v15h-15zM600 1470h15v15h-15zM900 1455h15v15h-15zM885 1455h15v15h-15zM870 1455h15v15h-15zM675 1455h15v15h-15zM660 1455h15v15h-15zM645 1455h15v15h-15zM885 1440h15v15h-15zM870 1440h15v15h-15zM660 1440h15v15h-15zM645 1440h15v15h-15zM630 1440h15v15h-15zM615 1440h15v15h-15zM600 1440h15v15h-15zM900 1425h15v15h-15zM870 1425h15v15h-15zM675 1425h15v15h-15zM660 1425h15v15h-15zM630 1425h15v15h-15zM915 1410h15v15h-15zM900 1440h15v15h-15zM900 1410h15v15h-15zM885 1410h15v15h-15zM870 1410h15v15h-15zM675 1410h15v15h-15zM660 1410h15v15h-15zM615 1410h15v15h-15zM615 1425h15v15h-15zM600 1410h15v15h-15zM915 1395h15v15h-15zM900 1395h15v15h-15zM885 1395h15v15h-15zM675 1395h15v15h-15zM630 1395h15v15h-15zM615 1395h15v15h-15zM600 1395h15v15h-15zM735 1380h15v15h-15zM720 1380h15v15h-15zM660 1380h15v15h-15zM660 1395h15v15h-15zM630 1380h15v15h-15zM615 1380h15v15h-15zM600 1380h15v15h-15zM675 1365h15v15h-15zM630 1365h15v15h-15zM615 1365h15v15h-15zM675 1350h15v15h-15zM660 1350h15v15h-15zM645 1350h15v15h-15zM615 1350h15v15h-15zM705 1590h15v15h-15zM690 1590h15v15h-15zM600 1590h15v15h-15zM900 1575h15v15h-15zM915 1560h15v15h-15zM720 1590h15v15h-15zM900 1560h15v15h-15zM885 1560h15v15h-15zM870 1560h15v15h-15zM675 1560h15v15h-15zM615 1560h15v15h-15zM915 1545h15v15h-15zM900 1545h15v15h-15zM885 1545h15v15h-15zM675 1545h15v15h-15zM600 1545h15v15h-15zM915 1530h15v15h-15zM930 1530h15v15h-15zM945 1545h15v15h-15zM930 1560h15v15h-15zM945 1575h15v15h-15zM900 1530h15v15h-15zM660 1530h15v15h-15zM660 1545h15v15h-15zM615 1530h15v15h-15zM600 1530h15v15h-15zM885 1515h15v15h-15zM870 1515h15v15h-15zM675 1515h15v15h-15zM630 1515h15v15h-15zM615 1515h15v15h-15zM915 1500h15v15h-15zM900 1500h15v15h-15zM945 1485h15v15h-15zM945 1470h15v15h-15zM945 1455h15v15h-15zM945 1500h15v15h-15zM840 1575h15v15h-15zM765 1590h15v15h-15zM870 1575h15v15h-15zM930 1485h15v15h-15zM930 1425h15v15h-15zM930 1410h15v15h-15zM930 1395h15v15h-15zM930 1380h15v15h-15zM930 1440h15v15h-15zM1425 1350h15v15h-15zM1410 1335h15v15h-15zM1410 1305h15v15h-15zM1395 1305h15v15h-15zM1410 1275h15v15h-15zM1410 1260h15v15h-15zM1425 1215h15v15h-15zM1425 1185h15v15h-15zM1410 1185h15v15h-15zM1425 1155h15v15h-15zM1395 1470h15v15h-15zM1395 1410h15v15h-15zM1395 1395h15v15h-15zM1395 1560h15v15h-15zM1395 1545h15v15h-15zM1395 1530h15v15h-15zM1410 1530h15v15h-15zM1425 1545h15v15h-15zM1410 1560h15v15h-15zM1425 1575h15v15h-15zM1395 1500h15v15h-15zM1425 1485h15v15h-15zM1425 1470h15v15h-15zM1425 1455h15v15h-15zM1425 1500h15v15h-15zM1410 1485h15v15h-15zM1410 1425h15v15h-15zM1410 1410h15v15h-15zM1410 1395h15v15h-15zM1410 1380h15v15h-15zM1410 1440h15v15h-15zM885 1500h15v15h-15zM675 1500h15v15h-15zM660 1500h15v15h-15zM645 1500h15v15h-15zM615 1500h15v15h-15zM690 1395h15v15h-15zM705 1395h15v15h-15zM750 1470h15v15h-15zM690 1470h15v15h-15zM750 1455h15v15h-15zM735 1440h15v15h-15zM735 1455h15v15h-15zM690 1440h15v15h-15zM750 1425h15v15h-15zM705 1425h15v15h-15zM690 1425h15v15h-15zM750 1410h15v15h-15zM720 1500h15v15h-15zM705 1515h15v15h-15zM705 1545h15v15h-15zM720 1485h15v15h-15zM735 1515h15v15h-15zM735 1500h15v15h-15zM750 1530h15v15h-15zM735 1545h15v15h-15zM765 1545h15v15h-15zM750 1560h15v15h-15zM765 1575h15v15h-15zM750 1515h15v15h-15zM720 1455h15v15h-15zM720 1440h15v15h-15zM735 1410h15v15h-15zM720 1410h15v15h-15zM690 1410h15v15h-15zM495 1590h-15v15h15zM510 1590h-15v15h15zM540 1590h-15v15h15zM555 1590h-15v15h15zM570 1590h-15v15h15zM585 1590h-15v15h15zM480 1575h-15v15h15zM510 1575h-15v15h15zM525 1575h-15v15h15zM540 1575h-15v15h15zM570 1575h-15v15h15zM465 1560h-15v15h15zM480 1590h-15v15h15zM480 1560h-15v15h15zM495 1560h-15v15h15zM510 1560h-15v15h15zM525 1560h-15v15h15zM540 1560h-15v15h15zM585 1560h-15v15h15zM585 1575h-15v15h15zM600 1560h-15v15h15zM465 1545h-15v15h15zM435 1545h-15v15h15zM420 1575h-15v15h15zM450 1590h-15v15h15zM480 1545h-15v15h15zM495 1545h-15v15h15zM525 1545h-15v15h15zM570 1545h-15v15h15zM585 1545h-15v15h15zM600 1545h-15v15h15zM465 1530h-15v15h15zM480 1530h-15v15h15zM540 1530h-15v15h15zM540 1545h-15v15h15zM570 1530h-15v15h15zM585 1530h-15v15h15zM600 1530h-15v15h15zM495 1515h-15v15h15zM510 1515h-15v15h15zM525 1515h-15v15h15zM570 1515h-15v15h15zM585 1515h-15v15h15zM600 1515h-15v15h15zM465 1500h-15v15h15zM435 1440h-15v15h15zM450 1425h-15v15h15zM480 1500h-15v15h15zM495 1500h-15v15h15zM525 1500h-15v15h15zM540 1500h-15v15h15zM555 1500h-15v15h15zM585 1500h-15v15h15zM0 76h15v15H0zM0 91h15v15H0zM0 61h15v15H0zM0 46h15v15H0zM0 31h15v15H0zM15 1h15v15H15zM0 1h15v15H0zM0 16h15v15H0zM60 76h15v15H60zM45 76h15v15H45zM30 76h15v15H30zM30 61h15v15H30zM105 46h15v15h-15zM45 31h15v15H45zM30 31h15v15H30zM105 16h15v15h-15zM75 76h15v15H75zM75 61h15v15H75zM75 46h15v15H75zM105 31h15v15h-15zM90 1h15v15H90zM60 1h15v15H60zM45 1h15v15H45zM30 1h15v15H30zM120 1575h15v15h-15zM90 1575h15v15H90zM45 1575h15v15H45zM75 1560h15v15H75zM45 1560h15v15H45zM30 1560h15v15H30zM15 1545h15v15H15zM135 1545h15v15h-15zM135 1530h15v15h-15zM120 1545h15v15h-15zM105 1545h15v15h-15zM75 1545h15v15H75zM45 1545h15v15H45zM0 1545h15v15H0zM105 1530h15v15h-15zM75 1530h15v15H75zM60 1530h15v15H60zM30 1530h15v15H30zM15 1530h15v15H15zM120 1515h15v15h-15zM75 1515h15v15H75zM45 1515h15v15H45zM135 1500h15v15h-15zM120 1500h15v15h-15zM90 1500h15v15H90zM75 1500h15v15H75zM60 1500h15v15H60zM45 1500h15v15H45zM15 1500h15v15H15zM0 1500h15v15H0zM120 1485h15v15h-15zM75 1485h15v15H75zM45 1485h15v15H45zM30 1485h15v15H30zM90 1470h15v15H90zM60 1470h15v15H60zM15 1470h15v15H15zM135 1455h15v15h-15zM105 1455h15v15h-15zM90 1455h15v15H90zM60 1455h15v15H60zM45 1455h15v15H45zM15 1455h15v15H15zM0 1455h15v15H0zM135 1440h15v15h-15zM120 1440h15v15h-15zM90 1440h15v15H90zM45 1440h15v15H45zM15 1440h15v15H15z"/></g></svg>