<svg xmlns="http://www.w3.org/2000/svg" viewBox="0 0 1440 1605"><g fill="#2db7b8"><path d="M1020 1485h15v15h-15zM1005 1485h15v15h-15zM960 1485h15v15h-15zM1020 1470h15v15h-15zM1005 1470h15v15h-15zM975 1470h15v15h-15zM1020 1455h15v15h-15zM990 1455h15v15h-15zM975 1455h15v15h-15zM990 1440h15v15h-15zM975 1440h15v15h-15zM900 1440h15v15h-15zM1020 1425h15v15h-15zM1005 1425h15v15h-15zM990 1425h15v15h-15zM1020 1410h15v15h-15zM1005 1410h15v15h-15zM915 1410h15v15h-15zM1020 1395h15v15h-15zM1005 1395h15v15h-15zM915 1395h15v15h-15zM900 1395h15v15h-15zM1020 1380h15v15h-15zM1005 1380h15v15h-15zM915 1380h15v15h-15zM900 1380h15v15h-15zM1020 1365h15v15h-15zM1005 1365h15v15h-15zM915 1365h15v15h-15zM900 1365h15v15h-15zM1020 1350h15v15h-15zM930 1350h15v15h-15zM840 1485h15v15h-15zM825 1485h15v15h-15zM885 1470h15v15h-15zM870 1470h15v15h-15zM855 1470h15v15h-15zM825 1470h15v15h-15zM780 1485h15v15h-15zM885 1440h15v15h-15zM855 1455h15v15h-15zM840 1455h15v15h-15zM780 1440h15v15h-15zM750 1440h15v15h-15zM870 1425h15v15h-15zM855 1425h15v15h-15zM855 1410h15v15h-15zM765 1410h15v15h-15zM750 1410h15v15h-15zM885 1395h15v15h-15zM780 1395h15v15h-15zM765 1395h15v15h-15zM750 1395h15v15h-15zM885 1380h15v15h-15zM870 1380h15v15h-15zM780 1380h15v15h-15zM765 1380h15v15h-15zM750 1380h15v15h-15zM885 1365h15v15h-15zM795 1365h15v15h-15zM780 1365h15v15h-15zM765 1365h15v15h-15zM750 1365h15v15h-15zM885 1350h15v15h-15zM810 1350h15v15h-15zM795 1350h15v15h-15zM780 1350h15v15h-15zM765 1350h15v15h-15zM750 1350h15v15h-15zM720 1485h15v15h-15zM705 1485h15v15h-15zM690 1485h15v15h-15zM675 1485h15v15h-15zM660 1485h15v15h-15zM645 1485h15v15h-15zM615 1485h15v15h-15zM600 1485h15v15h-15zM735 1470h15v15h-15zM720 1470h15v15h-15zM705 1470h15v15h-15zM690 1470h15v15h-15zM675 1470h15v15h-15zM660 1470h15v15h-15zM645 1470h15v15h-15zM630 1485h15v15h-15zM630 1470h15v15h-15zM615 1470h15v15h-15zM600 1470h15v15h-15zM735 1455h15v15h-15zM735 1440h15v15h-15zM720 1440h15v15h-15zM720 1455h15v15h-15zM705 1455h15v15h-15zM690 1455h15v15h-15zM675 1455h15v15h-15zM660 1455h15v15h-15zM645 1455h15v15h-15zM600 1455h15v15h-15zM705 1440h15v15h-15zM690 1440h15v15h-15zM675 1440h15v15h-15zM660 1440h15v15h-15zM645 1440h15v15h-15zM630 1440h15v15h-15zM630 1455h15v15h-15zM600 1500h15v15h-15zM705 1500h15v15h-15zM645 1530h15v15h-15zM660 1545h15v15h-15zM615 1440h15v15h-15zM600 1440h15v15h-15zM720 1425h15v15h-15zM705 1425h15v15h-15zM690 1425h15v15h-15zM675 1425h15v15h-15zM660 1425h15v15h-15zM645 1425h15v15h-15zM750 1425h15v15h-15zM735 1425h15v15h-15zM735 1485h15v15h-15zM720 1410h15v15h-15zM705 1410h15v15h-15zM690 1410h15v15h-15zM675 1410h15v15h-15zM660 1410h15v15h-15zM645 1410h15v15h-15zM630 1410h15v15h-15zM615 1410h15v15h-15zM600 1410h15v15h-15zM735 1395h15v15h-15zM720 1395h15v15h-15zM705 1395h15v15h-15zM690 1395h15v15h-15zM675 1395h15v15h-15zM660 1395h15v15h-15zM645 1395h15v15h-15zM630 1395h15v15h-15zM615 1395h15v15h-15zM600 1395h15v15h-15zM735 1380h15v15h-15zM720 1380h15v15h-15zM705 1380h15v15h-15zM690 1380h15v15h-15zM675 1380h15v15h-15zM735 1365h15v15h-15zM720 1365h15v15h-15zM705 1365h15v15h-15zM705 1350h15v15h-15zM690 1365h15v15h-15zM660 1365h15v15h-15zM645 1365h15v15h-15zM630 1365h15v15h-15zM615 1365h15v15h-15zM600 1365h15v15h-15zM735 1350h15v15h-15zM720 1350h15v15h-15zM690 1350h15v15h-15zM675 1350h15v15h-15zM645 1350h15v15h-15zM630 1350h15v15h-15zM615 1350h15v15h-15zM1020 1335h15v15h-15zM945 1335h15v15h-15zM915 1335h15v15h-15zM1035 1320h15v15h-15zM1020 1320h15v15h-15zM960 1320h15v15h-15zM945 1320h15v15h-15zM930 1320h15v15h-15zM915 1305h15v15h-15zM900 1320h15v15h-15zM1035 1305h15v15h-15zM1035 1290h15v15h-15zM1020 1305h15v15h-15zM945 1305h15v15h-15zM930 1290h15v15h-15zM960 1275h15v15h-15zM945 1275h15v15h-15zM1035 1260h15v15h-15zM1035 1335h15v15h-15zM945 1260h15v15h-15zM930 1260h15v15h-15zM1035 1245h15v15h-15zM930 1245h15v15h-15zM1035 1230h15v15h-15zM990 1230h15v15h-15zM900 1230h15v15h-15zM1035 1215h15v15h-15zM990 1215h15v15h-15zM900 1215h15v15h-15zM1035 1200h15v15h-15zM1050 1185h15v15h-15zM990 1200h15v15h-15zM975 1200h15v15h-15zM960 1200h15v15h-15zM825 1335h15v15h-15zM810 1335h15v15h-15zM795 1335h15v15h-15zM765 1335h15v15h-15zM750 1335h15v15h-15zM840 1320h15v15h-15zM825 1320h15v15h-15zM810 1320h15v15h-15zM795 1320h15v15h-15zM780 1335h15v15h-15zM780 1320h15v15h-15zM765 1320h15v15h-15zM870 1305h15v15h-15zM855 1305h15v15h-15zM840 1305h15v15h-15zM825 1305h15v15h-15zM810 1305h15v15h-15zM795 1305h15v15h-15zM750 1305h15v15h-15zM855 1290h15v15h-15zM840 1290h15v15h-15zM825 1290h15v15h-15zM810 1290h15v15h-15zM795 1290h15v15h-15zM780 1305h15v15h-15zM765 1290h15v15h-15zM750 1290h15v15h-15zM870 1275h15v15h-15zM855 1275h15v15h-15zM840 1275h15v15h-15zM825 1275h15v15h-15zM810 1275h15v15h-15zM885 1260h15v15h-15zM885 1335h15v15h-15zM870 1260h15v15h-15zM855 1260h15v15h-15zM840 1260h15v15h-15zM825 1260h15v15h-15zM795 1260h15v15h-15zM780 1260h15v15h-15zM765 1260h15v15h-15zM750 1260h15v15h-15zM885 1245h15v15h-15zM870 1245h15v15h-15zM855 1245h15v15h-15zM840 1245h15v15h-15zM795 1245h15v15h-15zM780 1245h15v15h-15zM765 1245h15v15h-15zM750 1245h15v15h-15zM885 1230h15v15h-15zM870 1230h15v15h-15zM855 1230h15v15h-15zM825 1230h15v15h-15zM810 1230h15v15h-15zM795 1230h15v15h-15zM810 1245h15v15h-15zM780 1230h15v15h-15zM765 1230h15v15h-15zM750 1230h15v15h-15zM885 1215h15v15h-15zM870 1215h15v15h-15zM855 1215h15v15h-15zM825 1215h15v15h-15zM810 1215h15v15h-15zM795 1215h15v15h-15zM780 1215h15v15h-15zM765 1215h15v15h-15zM750 1215h15v15h-15zM885 1200h15v15h-15zM870 1200h15v15h-15zM840 1200h15v15h-15zM825 1200h15v15h-15zM810 1200h15v15h-15zM795 1200h15v15h-15zM825 1185h15v15h-15zM810 1185h15v15h-15zM795 1185h15v15h-15zM780 1200h15v15h-15zM765 1200h15v15h-15zM720 1335h15v15h-15zM705 1335h15v15h-15zM690 1335h15v15h-15zM660 1335h15v15h-15zM645 1335h15v15h-15zM615 1335h15v15h-15zM600 1335h15v15h-15zM600 1350h15v15h-15zM585 1335h15v15h-15zM585 1320h15v15h-15zM735 1320h15v15h-15zM720 1320h15v15h-15zM705 1320h15v15h-15zM690 1320h15v15h-15zM675 1320h15v15h-15zM645 1320h15v15h-15zM630 1335h15v15h-15zM630 1320h15v15h-15zM615 1320h15v15h-15zM615 1305h15v15h-15zM600 1320h15v15h-15zM735 1290h15v15h-15zM720 1290h15v15h-15zM720 1305h15v15h-15zM705 1305h15v15h-15zM690 1305h15v15h-15zM660 1305h15v15h-15zM645 1305h15v15h-15zM630 1305h15v15h-15zM600 1305h15v15h-15zM705 1290h15v15h-15zM690 1290h15v15h-15zM675 1290h15v15h-15zM660 1290h15v15h-15zM645 1290h15v15h-15zM630 1290h15v15h-15zM600 1290h15v15h-15zM720 1275h15v15h-15zM705 1275h15v15h-15zM690 1275h15v15h-15zM675 1275h15v15h-15zM735 1260h15v15h-15zM780 1275h15v15h-15zM765 1275h15v15h-15zM750 1275h15v15h-15zM735 1335h15v15h-15zM720 1260h15v15h-15zM705 1260h15v15h-15zM690 1260h15v15h-15zM660 1260h15v15h-15zM645 1260h15v15h-15zM630 1260h15v15h-15zM615 1260h15v15h-15zM600 1260h15v15h-15zM735 1245h15v15h-15zM720 1245h15v15h-15zM705 1245h15v15h-15zM690 1245h15v15h-15zM675 1245h15v15h-15zM660 1245h15v15h-15zM645 1245h15v15h-15zM630 1245h15v15h-15zM615 1245h15v15h-15zM600 1245h15v15h-15zM735 1230h15v15h-15zM720 1230h15v15h-15zM705 1230h15v15h-15zM690 1230h15v15h-15zM675 1230h15v15h-15zM615 1230h15v15h-15zM585 1245h15v15h-15zM585 1230h15v15h-15zM735 1215h15v15h-15zM720 1215h15v15h-15zM705 1215h15v15h-15zM690 1215h15v15h-15zM675 1215h15v15h-15zM615 1215h15v15h-15zM735 1200h15v15h-15zM675 1200h15v15h-15zM645 1200h15v15h-15zM660 1185h15v15h-15zM645 1185h15v15h-15zM615 1200h15v15h-15zM600 1200h15v15h-15zM570 1485h15v15h-15zM585 1470h15v15h-15zM570 1470h15v15h-15zM585 1455h15v15h-15zM585 1440h15v15h-15zM570 1440h15v15h-15zM570 1455h15v15h-15zM555 1455h15v15h-15zM555 1440h15v15h-15zM570 1425h15v15h-15zM555 1425h15v15h-15zM585 1410h15v15h-15zM630 1425h15v15h-15zM615 1425h15v15h-15zM600 1425h15v15h-15zM585 1425h15v15h-15zM585 1485h15v15h-15zM570 1410h15v15h-15zM555 1410h15v15h-15zM540 1410h15v15h-15zM585 1395h15v15h-15zM570 1395h15v15h-15zM555 1395h15v15h-15zM540 1395h15v15h-15zM585 1380h15v15h-15zM570 1380h15v15h-15zM555 1380h15v15h-15zM540 1380h15v15h-15zM570 1365h15v15h-15zM555 1365h15v15h-15zM585 1350h15v15h-15zM540 1350h15v15h-15zM570 735h15v15h-15zM555 735h15v15h-15zM540 735h15v15h-15zM510 735h15v15h-15zM465 735h15v15h-15zM450 735h15v15h-15zM585 720h15v15h-15zM570 720h15v15h-15zM555 720h15v15h-15zM540 720h15v15h-15zM525 720h15v15h-15zM495 720h15v15h-15zM480 735h15v15h-15zM480 720h15v15h-15zM585 705h15v15h-15zM570 690h15v15h-15zM570 675h15v15h-15zM555 705h15v15h-15zM540 705h15v15h-15zM525 705h15v15h-15zM510 705h15v15h-15zM450 705h15v15h-15zM540 690h15v15h-15zM510 690h15v15h-15zM495 690h15v15h-15zM525 675h15v15h-15zM510 675h15v15h-15zM585 735h15v15h-15zM555 660h15v15h-15zM540 660h15v15h-15zM525 660h15v15h-15zM510 660h15v15h-15zM495 660h15v15h-15zM465 660h15v15h-15zM585 645h15v15h-15zM555 645h15v15h-15zM540 645h15v15h-15zM525 645h15v15h-15zM495 645h15v15h-15zM480 645h15v15h-15zM465 645h15v15h-15zM450 645h15v15h-15zM585 630h15v15h-15zM570 630h15v15h-15zM555 630h15v15h-15zM540 630h15v15h-15zM525 630h15v15h-15zM510 630h15v15h-15zM510 645h15v15h-15zM495 630h15v15h-15zM480 630h15v15h-15zM465 630h15v15h-15zM450 630h15v15h-15zM585 615h15v15h-15zM570 615h15v15h-15zM555 615h15v15h-15zM540 615h15v15h-15zM525 615h15v15h-15zM510 615h15v15h-15zM495 615h15v15h-15zM480 615h15v15h-15zM465 615h15v15h-15zM585 600h15v15h-15zM570 600h15v15h-15zM540 600h15v15h-15zM525 600h15v15h-15zM510 600h15v15h-15zM495 600h15v15h-15zM480 600h15v15h-15zM465 600h15v15h-15zM570 885h15v15h-15zM555 885h15v15h-15zM540 885h15v15h-15zM525 885h15v15h-15zM510 885h15v15h-15zM495 885h15v15h-15zM465 885h15v15h-15zM450 885h15v15h-15zM585 870h15v15h-15zM570 870h15v15h-15zM555 870h15v15h-15zM540 870h15v15h-15zM525 870h15v15h-15zM510 870h15v15h-15zM495 870h15v15h-15zM480 885h15v15h-15zM480 870h15v15h-15zM585 855h15v15h-15zM585 840h15v15h-15zM570 840h15v15h-15zM570 855h15v15h-15zM555 855h15v15h-15zM540 855h15v15h-15zM525 855h15v15h-15zM510 855h15v15h-15zM495 855h15v15h-15zM480 855h15v15h-15zM450 855h15v15h-15zM555 840h15v15h-15zM540 840h15v15h-15zM525 840h15v15h-15zM510 840h15v15h-15zM495 840h15v15h-15zM570 825h15v15h-15zM555 825h15v15h-15zM540 825h15v15h-15zM525 825h15v15h-15zM510 825h15v15h-15zM495 825h15v15h-15zM585 810h15v15h-15zM585 885h15v15h-15zM570 810h15v15h-15zM555 810h15v15h-15zM540 810h15v15h-15zM525 810h15v15h-15zM510 810h15v15h-15zM495 810h15v15h-15zM480 810h15v15h-15zM465 810h15v15h-15zM585 795h15v15h-15zM570 795h15v15h-15zM555 795h15v15h-15zM540 795h15v15h-15zM525 795h15v15h-15zM510 795h15v15h-15zM585 780h15v15h-15zM570 780h15v15h-15zM540 780h15v15h-15zM525 780h15v15h-15zM510 780h15v15h-15zM585 765h15v15h-15zM555 765h15v15h-15zM555 750h15v15h-15zM540 765h15v15h-15zM525 765h15v15h-15zM510 765h15v15h-15zM495 765h15v15h-15zM585 750h15v15h-15zM570 750h15v15h-15zM540 750h15v15h-15zM525 750h15v15h-15zM510 750h15v15h-15zM465 750h15v15h-15zM705 735h15v15h-15zM690 735h15v15h-15zM675 735h15v15h-15zM660 735h15v15h-15zM645 735h15v15h-15zM615 735h15v15h-15zM690 720h15v15h-15zM630 735h15v15h-15zM630 720h15v15h-15zM615 705h15v15h-15zM600 720h15v15h-15zM735 690h15v15h-15zM720 690h15v15h-15zM690 705h15v15h-15zM660 705h15v15h-15zM645 705h15v15h-15zM720 675h15v15h-15zM705 675h15v15h-15zM690 675h15v15h-15zM660 675h15v15h-15zM735 660h15v15h-15zM720 660h15v15h-15zM705 660h15v15h-15zM690 660h15v15h-15zM675 660h15v15h-15zM660 660h15v15h-15zM645 660h15v15h-15zM630 660h15v15h-15zM600 660h15v15h-15zM600 675h15v15h-15zM735 645h15v15h-15zM720 645h15v15h-15zM705 645h15v15h-15zM690 645h15v15h-15zM675 645h15v15h-15zM645 645h15v15h-15zM630 645h15v15h-15zM615 645h15v15h-15zM735 630h15v15h-15zM720 630h15v15h-15zM705 630h15v15h-15zM690 630h15v15h-15zM675 630h15v15h-15zM660 630h15v15h-15zM645 630h15v15h-15zM660 645h15v15h-15zM630 630h15v15h-15zM600 630h15v15h-15zM735 615h15v15h-15zM720 615h15v15h-15zM705 615h15v15h-15zM690 615h15v15h-15zM675 615h15v15h-15zM660 615h15v15h-15zM645 615h15v15h-15zM630 615h15v15h-15zM615 615h15v15h-15zM600 615h15v15h-15zM735 600h15v15h-15zM720 600h15v15h-15zM690 600h15v15h-15zM675 600h15v15h-15zM660 600h15v15h-15zM645 600h15v15h-15zM675 585h15v15h-15zM660 585h15v15h-15zM645 585h15v15h-15zM630 600h15v15h-15zM615 600h15v15h-15zM720 885h15v15h-15zM705 885h15v15h-15zM690 885h15v15h-15zM675 885h15v15h-15zM660 885h15v15h-15zM615 885h15v15h-15zM600 885h15v15h-15zM735 870h15v15h-15zM720 870h15v15h-15zM705 870h15v15h-15zM690 870h15v15h-15zM675 870h15v15h-15zM660 870h15v15h-15zM645 870h15v15h-15zM630 885h15v15h-15zM615 870h15v15h-15zM600 870h15v15h-15zM735 855h15v15h-15zM735 840h15v15h-15zM720 840h15v15h-15zM720 855h15v15h-15zM705 855h15v15h-15zM690 855h15v15h-15zM675 855h15v15h-15zM660 855h15v15h-15zM645 855h15v15h-15zM600 855h15v15h-15zM705 840h15v15h-15zM675 840h15v15h-15zM660 840h15v15h-15zM645 840h15v15h-15zM630 840h15v15h-15zM630 855h15v15h-15zM615 840h15v15h-15zM600 840h15v15h-15zM705 825h15v15h-15zM690 825h15v15h-15zM660 825h15v15h-15zM645 825h15v15h-15zM735 810h15v15h-15zM735 885h15v15h-15zM720 810h15v15h-15zM690 810h15v15h-15zM675 810h15v15h-15zM660 810h15v15h-15zM645 810h15v15h-15zM630 810h15v15h-15zM615 810h15v15h-15zM600 810h15v15h-15zM585 825h15v15h-15zM630 825h15v15h-15zM615 825h15v15h-15zM600 825h15v15h-15zM735 795h15v15h-15zM720 795h15v15h-15zM705 795h15v15h-15zM675 795h15v15h-15zM660 795h15v15h-15zM645 795h15v15h-15zM630 795h15v15h-15zM615 795h15v15h-15zM600 795h15v15h-15zM735 780h15v15h-15zM705 780h15v15h-15zM690 780h15v15h-15zM675 780h15v15h-15zM660 780h15v15h-15zM645 780h15v15h-15zM630 780h15v15h-15zM615 780h15v15h-15zM600 780h15v15h-15zM735 765h15v15h-15zM720 765h15v15h-15zM675 765h15v15h-15zM660 765h15v15h-15zM645 765h15v15h-15zM630 765h15v15h-15zM615 765h15v15h-15zM600 765h15v15h-15zM600 750h15v15h-15zM735 750h15v15h-15zM720 750h15v15h-15zM705 750h15v15h-15zM690 750h15v15h-15zM675 750h15v15h-15zM660 750h15v15h-15zM645 750h15v15h-15zM630 750h15v15h-15zM615 750h15v15h-15zM870 735h15v15h-15zM855 735h15v15h-15zM840 735h15v15h-15zM825 735h15v15h-15zM765 735h15v15h-15zM750 735h15v15h-15zM885 720h15v15h-15zM870 720h15v15h-15zM855 720h15v15h-15zM840 720h15v15h-15zM825 720h15v15h-15zM810 720h15v15h-15zM780 735h15v15h-15zM765 720h15v15h-15zM765 705h15v15h-15zM885 705h15v15h-15zM885 690h15v15h-15zM870 690h15v15h-15zM870 705h15v15h-15zM855 705h15v15h-15zM840 705h15v15h-15zM825 705h15v15h-15zM795 705h15v15h-15zM780 705h15v15h-15zM750 705h15v15h-15zM855 690h15v15h-15zM840 690h15v15h-15zM810 690h15v15h-15zM795 690h15v15h-15zM780 690h15v15h-15zM765 690h15v15h-15zM735 675h15v15h-15zM780 675h15v15h-15zM765 675h15v15h-15zM750 675h15v15h-15zM870 675h15v15h-15zM855 675h15v15h-15zM840 675h15v15h-15zM825 675h15v15h-15zM810 675h15v15h-15zM795 675h15v15h-15zM885 660h15v15h-15zM885 735h15v15h-15zM870 660h15v15h-15zM855 660h15v15h-15zM825 660h15v15h-15zM810 660h15v15h-15zM795 660h15v15h-15zM780 660h15v15h-15zM765 660h15v15h-15zM750 660h15v15h-15zM885 645h15v15h-15zM855 645h15v15h-15zM840 645h15v15h-15zM825 645h15v15h-15zM810 645h15v15h-15zM795 645h15v15h-15zM780 645h15v15h-15zM765 645h15v15h-15zM750 645h15v15h-15zM885 630h15v15h-15zM870 630h15v15h-15zM855 630h15v15h-15zM840 630h15v15h-15zM825 630h15v15h-15zM810 630h15v15h-15zM795 630h15v15h-15zM780 630h15v15h-15zM765 630h15v15h-15zM750 630h15v15h-15zM885 615h15v15h-15zM870 615h15v15h-15zM855 615h15v15h-15zM840 615h15v15h-15zM825 615h15v15h-15zM810 615h15v15h-15zM795 615h15v15h-15zM780 615h15v15h-15zM765 615h15v15h-15zM750 615h15v15h-15zM885 600h15v15h-15zM900 615h15v15h-15zM900 600h15v15h-15zM885 585h15v15h-15zM900 585h15v15h-15zM870 600h15v15h-15zM855 600h15v15h-15zM840 600h15v15h-15zM825 600h15v15h-15zM810 600h15v15h-15zM795 600h15v15h-15zM825 585h15v15h-15zM810 585h15v15h-15zM795 585h15v15h-15zM780 600h15v15h-15zM765 600h15v15h-15zM855 885h15v15h-15zM840 885h15v15h-15zM825 885h15v15h-15zM810 885h15v15h-15zM795 885h15v15h-15zM765 885h15v15h-15zM750 885h15v15h-15zM885 870h15v15h-15zM855 870h15v15h-15zM840 870h15v15h-15zM825 870h15v15h-15zM795 870h15v15h-15zM780 870h15v15h-15zM765 855h15v15h-15zM870 840h15v15h-15zM870 855h15v15h-15zM855 855h15v15h-15zM840 855h15v15h-15zM825 855h15v15h-15zM810 855h15v15h-15zM750 855h15v15h-15zM855 840h15v15h-15zM840 840h15v15h-15zM825 840h15v15h-15zM810 840h15v15h-15zM795 840h15v15h-15zM780 855h15v15h-15zM765 840h15v15h-15zM750 840h15v15h-15zM735 825h15v15h-15zM780 825h15v15h-15zM765 825h15v15h-15zM750 825h15v15h-15zM870 825h15v15h-15zM855 825h15v15h-15zM840 825h15v15h-15zM825 825h15v15h-15zM810 825h15v15h-15zM795 825h15v15h-15zM885 810h15v15h-15zM870 810h15v15h-15zM855 810h15v15h-15zM840 810h15v15h-15zM825 810h15v15h-15zM810 810h15v15h-15zM810 795h15v15h-15zM795 810h15v15h-15zM780 810h15v15h-15zM765 810h15v15h-15zM750 810h15v15h-15zM885 795h15v15h-15zM870 795h15v15h-15zM855 795h15v15h-15zM840 795h15v15h-15zM825 795h15v15h-15zM795 795h15v15h-15zM780 795h15v15h-15zM765 795h15v15h-15zM750 795h15v15h-15zM885 780h15v15h-15zM870 780h15v15h-15zM855 780h15v15h-15zM840 780h15v15h-15zM825 780h15v15h-15zM810 780h15v15h-15zM795 780h15v15h-15zM780 780h15v15h-15zM765 780h15v15h-15zM750 780h15v15h-15zM885 765h15v15h-15zM870 765h15v15h-15zM855 765h15v15h-15zM840 765h15v15h-15zM825 765h15v15h-15zM810 765h15v15h-15zM795 765h15v15h-15zM780 765h15v15h-15zM765 765h15v15h-15zM750 765h15v15h-15zM885 750h15v15h-15zM870 750h15v15h-15zM855 750h15v15h-15zM840 750h15v15h-15zM810 750h15v15h-15zM795 750h15v15h-15zM780 750h15v15h-15zM765 750h15v15h-15zM750 750h15v15h-15zM1020 885h15v15h-15zM990 885h15v15h-15zM975 885h15v15h-15zM1005 870h15v15h-15zM990 870h15v15h-15zM975 870h15v15h-15zM960 870h15v15h-15zM945 870h15v15h-15zM930 885h15v15h-15zM1035 855h15v15h-15zM1035 840h15v15h-15zM1020 840h15v15h-15zM1020 855h15v15h-15zM1005 855h15v15h-15zM990 855h15v15h-15zM975 855h15v15h-15zM960 855h15v15h-15zM930 855h15v15h-15zM1005 840h15v15h-15zM975 840h15v15h-15zM960 840h15v15h-15zM945 840h15v15h-15zM930 840h15v15h-15zM900 840h15v15h-15zM1005 825h15v15h-15zM990 825h15v15h-15zM975 825h15v15h-15zM960 825h15v15h-15zM945 825h15v15h-15zM1020 810h15v15h-15zM1005 810h15v15h-15zM990 810h15v15h-15zM975 810h15v15h-15zM960 810h15v15h-15zM945 810h15v15h-15zM915 810h15v15h-15zM900 810h15v15h-15zM885 825h15v15h-15zM930 825h15v15h-15zM900 825h15v15h-15zM1020 795h15v15h-15zM1005 795h15v15h-15zM990 795h15v15h-15zM975 795h15v15h-15zM945 795h15v15h-15zM915 795h15v15h-15zM900 795h15v15h-15zM1020 780h15v15h-15zM1005 780h15v15h-15zM990 780h15v15h-15zM975 780h15v15h-15zM960 780h15v15h-15zM960 795h15v15h-15zM915 780h15v15h-15zM900 780h15v15h-15zM1005 765h15v15h-15zM975 765h15v15h-15zM960 765h15v15h-15zM945 765h15v15h-15zM915 765h15v15h-15zM900 765h15v15h-15zM1035 750h15v15h-15zM1050 765h15v15h-15zM1050 750h15v15h-15zM1050 735h15v15h-15zM1050 720h15v15h-15zM1065 735h15v15h-15zM1065 720h15v15h-15zM1035 735h15v15h-15zM990 750h15v15h-15zM975 750h15v15h-15zM960 750h15v15h-15zM945 750h15v15h-15zM930 750h15v15h-15zM915 750h15v15h-15zM1020 435h15v15h-15zM990 435h15v15h-15zM975 435h15v15h-15zM945 435h15v15h-15zM915 435h15v15h-15zM900 435h15v15h-15zM1035 420h15v15h-15zM1020 420h15v15h-15zM1005 420h15v15h-15zM990 420h15v15h-15zM975 420h15v15h-15zM960 420h15v15h-15zM945 420h15v15h-15zM930 435h15v15h-15zM930 420h15v15h-15zM915 420h15v15h-15zM915 405h15v15h-15zM900 420h15v15h-15zM1035 405h15v15h-15zM1035 390h15v15h-15zM1020 405h15v15h-15zM1005 405h15v15h-15zM990 405h15v15h-15zM975 405h15v15h-15zM960 405h15v15h-15zM945 405h15v15h-15zM900 405h15v15h-15zM1005 390h15v15h-15zM990 390h15v15h-15zM975 390h15v15h-15zM960 390h15v15h-15zM930 390h15v15h-15zM915 390h15v15h-15zM900 390h15v15h-15zM930 375h15v15h-15zM915 375h15v15h-15zM885 375h15v15h-15zM1020 375h15v15h-15zM1005 375h15v15h-15zM990 375h15v15h-15zM975 375h15v15h-15zM960 375h15v15h-15zM945 375h15v15h-15zM1035 360h15v15h-15zM1035 435h15v15h-15zM1020 360h15v15h-15zM1005 360h15v15h-15zM990 360h15v15h-15zM975 360h15v15h-15zM960 360h15v15h-15zM945 360h15v15h-15zM930 360h15v15h-15zM915 360h15v15h-15zM900 360h15v15h-15zM1020 345h15v15h-15zM1005 345h15v15h-15zM990 345h15v15h-15zM975 345h15v15h-15zM945 345h15v15h-15zM930 345h15v15h-15zM915 345h15v15h-15zM900 345h15v15h-15zM1005 330h15v15h-15zM990 330h15v15h-15zM960 330h15v15h-15zM960 345h15v15h-15zM930 330h15v15h-15zM915 330h15v15h-15zM900 330h15v15h-15zM990 315h15v15h-15zM975 315h15v15h-15zM960 315h15v15h-15zM945 315h15v15h-15zM945 330h15v15h-15zM930 315h15v15h-15zM915 315h15v15h-15zM900 315h15v15h-15zM975 300h15v15h-15zM960 300h15v15h-15zM945 300h15v15h-15zM930 300h15v15h-15zM915 300h15v15h-15zM975 285h15v15h-15zM960 285h15v15h-15zM945 285h15v15h-15zM915 285h15v15h-15zM900 285h15v15h-15zM900 300h15v15h-15zM885 285h15v15h-15zM1020 270h15v15h-15zM960 270h15v15h-15zM945 270h15v15h-15zM930 285h15v15h-15zM930 270h15v15h-15zM915 270h15v15h-15zM915 255h15v15h-15zM900 270h15v15h-15zM1005 255h15v15h-15zM960 255h15v15h-15zM945 255h15v15h-15zM900 255h15v15h-15zM990 240h15v15h-15zM945 240h15v15h-15zM930 240h15v15h-15zM930 255h15v15h-15zM915 240h15v15h-15zM900 240h15v15h-15zM885 255h15v15h-15zM885 240h15v15h-15zM945 225h15v15h-15zM930 210h15v15h-15zM915 210h15v15h-15zM900 210h15v15h-15zM915 195h15v15h-15zM900 195h15v15h-15zM900 180h15v15h-15zM900 165h15v15h-15zM870 135h15v15h-15zM855 135h15v15h-15zM840 135h15v15h-15zM825 135h15v15h-15zM810 135h15v15h-15zM795 135h15v15h-15zM765 135h15v15h-15zM750 135h15v15h-15zM885 120h15v15h-15zM870 120h15v15h-15zM855 120h15v15h-15zM840 120h15v15h-15zM825 120h15v15h-15zM810 120h15v15h-15zM795 120h15v15h-15zM780 135h15v15h-15zM780 120h15v15h-15zM780 105h15v15h-15zM765 120h15v15h-15zM765 105h15v15h-15zM870 105h15v15h-15zM855 105h15v15h-15zM840 105h15v15h-15zM825 105h15v15h-15zM810 105h15v15h-15zM795 105h15v15h-15zM855 90h15v15h-15zM840 90h15v15h-15zM825 90h15v15h-15zM810 90h15v15h-15zM795 90h15v15h-15zM780 90h15v15h-15zM765 90h15v15h-15zM750 90h15v15h-15zM825 75h15v15h-15zM810 75h15v15h-15zM795 75h15v15h-15zM885 135h15v15h-15zM765 60h15v15h-15zM750 60h15v15h-15zM720 135h15v15h-15zM705 135h15v15h-15zM690 135h15v15h-15zM675 135h15v15h-15zM660 135h15v15h-15zM645 135h15v15h-15zM615 135h15v15h-15zM600 135h15v15h-15zM735 120h15v15h-15zM720 120h15v15h-15zM705 120h15v15h-15zM675 120h15v15h-15zM660 120h15v15h-15zM645 120h15v15h-15zM630 135h15v15h-15zM630 120h15v15h-15zM615 120h15v15h-15zM615 105h15v15h-15zM600 120h15v15h-15zM735 90h15v15h-15zM720 90h15v15h-15zM780 75h15v15h-15zM780 60h15v15h-15zM765 75h15v15h-15zM750 75h15v15h-15zM735 75h15v15h-15zM720 105h15v15h-15zM690 105h15v15h-15zM660 105h15v15h-15zM630 105h15v15h-15zM600 105h15v15h-15zM705 90h15v15h-15zM690 90h15v15h-15zM675 90h15v15h-15zM660 90h15v15h-15zM630 75h15v15h-15zM615 75h15v15h-15zM600 75h15v15h-15zM585 75h15v15h-15zM585 90h15v15h-15zM585 105h15v15h-15zM600 150h15v15h-15zM600 165h15v15h-15zM585 165h15v15h-15zM570 165h15v15h-15zM615 90h15v15h-15zM600 90h15v15h-15zM720 75h15v15h-15zM705 75h15v15h-15zM690 75h15v15h-15zM675 75h15v15h-15zM660 75h15v15h-15zM645 75h15v15h-15zM735 60h15v15h-15zM720 60h15v15h-15zM705 60h15v15h-15zM690 60h15v15h-15zM675 60h15v15h-15zM660 60h15v15h-15zM645 60h15v15h-15zM630 60h15v15h-15zM615 60h15v15h-15zM600 15h15v15h-15zM630 0h15v15h-15zM615 0h15v15h-15zM1170 585h15v15h-15zM1155 585h15v15h-15zM1140 585h15v15h-15zM1110 585h15v15h-15zM1185 570h15v15h-15zM1170 570h15v15h-15zM1125 570h15v15h-15zM1110 570h15v15h-15zM1095 570h15v15h-15zM1080 570h15v15h-15zM1065 570h15v15h-15zM1065 555h15v15h-15zM1185 555h15v15h-15zM1185 540h15v15h-15zM1185 525h15v15h-15zM1170 540h15v15h-15zM1155 555h15v15h-15zM1140 555h15v15h-15zM1125 555h15v15h-15zM1110 555h15v15h-15zM1095 555h15v15h-15zM1050 555h15v15h-15zM1155 540h15v15h-15zM1140 540h15v15h-15zM1125 540h15v15h-15zM1110 540h15v15h-15zM1080 540h15v15h-15zM1065 540h15v15h-15zM1050 540h15v15h-15zM1170 525h15v15h-15zM1155 525h15v15h-15zM1140 525h15v15h-15zM1125 525h15v15h-15zM1095 525h15v15h-15zM1080 525h15v15h-15zM1185 510h15v15h-15zM1170 510h15v15h-15zM1155 510h15v15h-15zM1140 510h15v15h-15zM1125 510h15v15h-15zM1110 510h15v15h-15zM1095 510h15v15h-15zM1080 510h15v15h-15zM1185 495h15v15h-15zM1170 495h15v15h-15zM1155 495h15v15h-15zM1140 495h15v15h-15zM1125 495h15v15h-15zM1095 495h15v15h-15zM1080 495h15v15h-15zM1050 495h15v15h-15zM1185 480h15v15h-15zM1170 480h15v15h-15zM1155 480h15v15h-15zM1140 480h15v15h-15zM1125 480h15v15h-15zM1110 480h15v15h-15zM1080 480h15v15h-15zM1065 480h15v15h-15zM1185 465h15v15h-15zM1170 465h15v15h-15zM1155 465h15v15h-15zM1140 465h15v15h-15zM1125 465h15v15h-15zM1110 465h15v15h-15zM1095 465h15v15h-15zM1065 465h15v15h-15zM1050 465h15v15h-15zM1185 450h15v15h-15zM1170 450h15v15h-15zM1140 450h15v15h-15zM1125 450h15v15h-15zM1110 450h15v15h-15zM1125 435h15v15h-15zM1110 435h15v15h-15zM1095 450h15v15h-15zM1080 450h15v15h-15zM1065 450h15v15h-15zM1050 450h15v15h-15zM960 1035h15v15h-15zM945 1035h15v15h-15zM915 1035h15v15h-15zM960 1020h15v15h-15zM930 1035h15v15h-15zM930 1020h15v15h-15zM915 1020h15v15h-15zM1035 990h15v15h-15zM990 1005h15v15h-15zM975 1005h15v15h-15zM945 1005h15v15h-15zM900 1005h15v15h-15zM1005 990h15v15h-15zM990 990h15v15h-15zM960 990h15v15h-15zM945 990h15v15h-15zM930 990h15v15h-15zM975 975h15v15h-15zM960 975h15v15h-15zM945 975h15v15h-15zM1035 960h15v15h-15zM990 960h15v15h-15zM960 960h15v15h-15zM945 960h15v15h-15zM915 960h15v15h-15zM1005 945h15v15h-15zM975 945h15v15h-15zM945 945h15v15h-15zM930 945h15v15h-15zM975 930h15v15h-15zM960 945h15v15h-15zM945 930h15v15h-15zM930 930h15v15h-15zM900 930h15v15h-15zM990 915h15v15h-15zM960 915h15v15h-15zM945 915h15v15h-15zM1005 900h15v15h-15zM975 900h15v15h-15zM960 900h15v15h-15zM570 1035h15v15h-15zM570 1050h15v15h-15zM555 1050h15v15h-15zM585 1005h15v15h-15zM510 1005h15v15h-15zM540 990h15v15h-15zM525 990h15v15h-15zM495 990h15v15h-15zM450 990h15v15h-15zM510 975h15v15h-15zM585 1035h15v15h-15zM570 945h15v15h-15zM525 945h15v15h-15zM450 945h15v15h-15zM435 960h15v15h-15zM585 930h15v15h-15zM570 930h15v15h-15zM555 930h15v15h-15zM540 930h15v15h-15zM525 930h15v15h-15zM510 930h15v15h-15zM495 930h15v15h-15zM585 915h15v15h-15zM555 915h15v15h-15zM525 915h15v15h-15zM495 915h15v15h-15zM480 915h15v15h-15zM540 900h15v15h-15zM525 900h15v15h-15zM510 900h15v15h-15zM480 900h15v15h-15zM465 900h15v15h-15zM705 1035h15v15h-15zM660 1035h15v15h-15zM645 1035h15v15h-15zM615 1035h15v15h-15zM600 1035h15v15h-15zM705 1020h15v15h-15zM660 1020h15v15h-15zM630 1035h15v15h-15zM615 1020h15v15h-15zM735 1005h15v15h-15zM735 990h15v15h-15zM720 990h15v15h-15zM720 1005h15v15h-15zM690 1005h15v15h-15zM600 1005h15v15h-15zM660 990h15v15h-15zM630 990h15v15h-15zM720 975h15v15h-15zM705 975h15v15h-15zM675 975h15v15h-15zM645 975h15v15h-15zM630 975h15v15h-15zM720 960h15v15h-15zM705 960h15v15h-15zM690 960h15v15h-15zM675 960h15v15h-15zM645 960h15v15h-15zM615 960h15v15h-15zM735 945h15v15h-15zM720 945h15v15h-15zM705 945h15v15h-15zM690 945h15v15h-15zM675 945h15v15h-15zM660 945h15v15h-15zM645 945h15v15h-15zM630 945h15v15h-15zM735 930h15v15h-15zM720 930h15v15h-15zM705 930h15v15h-15zM690 930h15v15h-15zM675 930h15v15h-15zM660 930h15v15h-15zM645 930h15v15h-15zM630 930h15v15h-15zM615 930h15v15h-15zM600 930h15v15h-15zM735 915h15v15h-15zM720 915h15v15h-15zM705 915h15v15h-15zM705 900h15v15h-15zM690 915h15v15h-15zM675 915h15v15h-15zM660 915h15v15h-15zM645 915h15v15h-15zM630 915h15v15h-15zM615 915h15v15h-15zM600 915h15v15h-15zM735 900h15v15h-15zM720 900h15v15h-15zM690 900h15v15h-15zM675 900h15v15h-15zM645 900h15v15h-15zM630 900h15v15h-15zM615 900h15v15h-15zM600 900h15v15h-15zM840 1035h15v15h-15zM825 1035h15v15h-15zM870 1020h15v15h-15zM825 1020h15v15h-15zM810 1020h15v15h-15zM885 990h15v15h-15zM870 990h15v15h-15zM855 1005h15v15h-15zM840 1005h15v15h-15zM810 1005h15v15h-15zM855 990h15v15h-15zM840 990h15v15h-15zM825 990h15v15h-15zM795 990h15v15h-15zM750 990h15v15h-15zM870 975h15v15h-15zM840 975h15v15h-15zM825 975h15v15h-15zM810 975h15v15h-15zM795 975h15v15h-15zM930 975h15v15h-15zM900 975h15v15h-15zM885 975h15v15h-15zM885 1035h15v15h-15zM855 960h15v15h-15zM840 960h15v15h-15zM825 960h15v15h-15zM810 960h15v15h-15zM795 960h15v15h-15zM780 960h15v15h-15zM765 960h15v15h-15zM750 960h15v15h-15zM780 975h15v15h-15zM765 975h15v15h-15zM750 975h15v15h-15zM885 945h15v15h-15zM870 945h15v15h-15zM840 945h15v15h-15zM795 945h15v15h-15zM780 945h15v15h-15zM765 945h15v15h-15zM750 945h15v15h-15zM885 930h15v15h-15zM855 930h15v15h-15zM825 930h15v15h-15zM810 945h15v15h-15zM780 930h15v15h-15zM765 930h15v15h-15zM750 930h15v15h-15zM885 915h15v15h-15zM870 915h15v15h-15zM825 915h15v15h-15zM810 915h15v15h-15zM795 915h15v15h-15zM795 930h15v15h-15zM780 915h15v15h-15zM765 915h15v15h-15zM750 915h15v15h-15zM750 900h15v15h-15zM870 900h15v15h-15zM840 900h15v15h-15zM825 900h15v15h-15zM810 900h15v15h-15zM780 900h15v15h-15zM765 900h15v15h-15zM975 1590h15v15h-15zM960 1590h15v15h-15zM990 1575h15v15h-15zM975 1575h15v15h-15zM960 1575h15v15h-15zM990 1560h15v15h-15zM975 1560h15v15h-15zM990 1545h15v15h-15zM1005 1530h15v15h-15zM990 1530h15v15h-15zM1020 1515h15v15h-15zM1005 1515h15v15h-15zM990 1515h15v15h-15zM1020 1500h15v15h-15zM990 1500h15v15h-15zM885 1590h15v15h-15zM765 1590h15v15h-15zM795 1560h15v15h-15zM840 1545h15v15h-15zM795 1545h15v15h-15zM855 1530h15v15h-15zM825 1530h15v15h-15zM810 1530h15v15h-15zM750 1530h15v15h-15zM840 1515h15v15h-15zM810 1515h15v15h-15zM855 1500h15v15h-15zM840 1500h15v15h-15zM825 1500h15v15h-15zM705 1590h15v15h-15zM690 1590h15v15h-15zM675 1590h15v15h-15zM660 1590h15v15h-15zM645 1590h15v15h-15zM630 1590h15v15h-15zM600 1590h15v15h-15zM720 1575h15v15h-15zM705 1575h15v15h-15zM690 1575h15v15h-15zM675 1575h15v15h-15zM660 1575h15v15h-15zM645 1575h15v15h-15zM735 1560h15v15h-15zM720 1560h15v15h-15zM705 1560h15v15h-15zM690 1560h15v15h-15zM675 1560h15v15h-15zM660 1560h15v15h-15zM645 1560h15v15h-15zM630 1560h15v15h-15zM615 1560h15v15h-15zM600 1560h15v15h-15zM735 1545h15v15h-15zM720 1545h15v15h-15zM705 1545h15v15h-15zM690 1545h15v15h-15zM675 1545h15v15h-15zM645 1545h15v15h-15zM630 1545h15v15h-15zM600 1545h15v15h-15zM705 1530h15v15h-15zM690 1530h15v15h-15zM675 1530h15v15h-15zM660 1530h15v15h-15zM630 1530h15v15h-15zM600 1530h15v15h-15zM720 1515h15v15h-15zM705 1515h15v15h-15zM690 1515h15v15h-15zM675 1515h15v15h-15zM660 1515h15v15h-15zM645 1515h15v15h-15zM630 1515h15v15h-15zM615 1515h15v15h-15zM600 1515h15v15h-15zM735 1500h15v15h-15zM720 1500h15v15h-15zM690 1500h15v15h-15zM675 1500h15v15h-15zM660 1500h15v15h-15zM645 1500h15v15h-15zM630 1500h15v15h-15zM615 1500h15v15h-15zM585 1560h15v15h-15zM630 1575h15v15h-15zM615 1575h15v15h-15zM585 1575h15v15h-15zM570 1560h15v15h-15zM585 1545h15v15h-15zM570 1545h15v15h-15zM585 1530h15v15h-15zM570 1530h15v15h-15zM585 1515h15v15h-15zM570 1515h15v15h-15zM585 1500h15v15h-15zM570 1500h15v15h-15zM720 1185h15v15h-15zM705 1200h15v15h-15zM705 1170h15v15h-15zM675 1170h15v15h-15zM645 1170h15v15h-15zM630 1185h15v15h-15zM615 1170h15v15h-15zM600 1170h15v15h-15zM690 1155h15v15h-15zM675 1155h15v15h-15zM660 1155h15v15h-15zM645 1155h15v15h-15zM705 1140h15v15h-15zM705 1125h15v15h-15zM690 1140h15v15h-15zM660 1140h15v15h-15zM630 1140h15v15h-15zM615 1140h15v15h-15zM600 1140h15v15h-15zM585 1155h15v15h-15zM675 1125h15v15h-15zM630 1125h15v15h-15zM720 1110h15v15h-15zM660 1110h15v15h-15zM615 1110h15v15h-15zM615 1125h15v15h-15zM600 1110h15v15h-15zM585 1125h15v15h-15zM735 1095h15v15h-15zM720 1095h15v15h-15zM630 1095h15v15h-15zM600 1095h15v15h-15zM735 1080h15v15h-15zM660 1080h15v15h-15zM645 1125h15v15h-15zM645 1110h15v15h-15zM630 1050h15v15h-15zM660 1065h15v15h-15zM645 1065h15v15h-15zM645 1095h15v15h-15zM630 1080h15v15h-15zM615 1080h15v15h-15zM600 1080h15v15h-15zM570 1080h15v15h-15zM690 1065h15v15h-15zM675 1065h15v15h-15zM705 1080h15v15h-15zM690 1080h15v15h-15zM675 1080h15v15h-15zM630 1065h15v15h-15zM615 1065h15v15h-15zM720 1050h15v15h-15zM675 1050h15v15h-15zM660 1050h15v15h-15zM645 1050h15v15h-15zM600 1050h15v15h-15zM615 1050h15v15h-15zM600 1065h15v15h-15zM855 1200h15v15h-15zM840 1185h15v15h-15zM765 1185h15v15h-15zM885 1170h15v15h-15zM855 1170h15v15h-15zM840 1170h15v15h-15zM825 1170h15v15h-15zM810 1170h15v15h-15zM795 1170h15v15h-15zM780 1170h15v15h-15zM750 1170h15v15h-15zM735 1185h15v15h-15zM750 1200h15v15h-15zM870 1155h15v15h-15zM855 1155h15v15h-15zM840 1155h15v15h-15zM825 1155h15v15h-15zM810 1155h15v15h-15zM795 1155h15v15h-15zM855 1140h15v15h-15zM840 1140h15v15h-15zM825 1140h15v15h-15zM795 1140h15v15h-15zM780 1155h15v15h-15zM765 1155h15v15h-15zM870 1125h15v15h-15zM840 1125h15v15h-15zM855 1125h15v15h-15zM825 1125h15v15h-15zM810 1125h15v15h-15zM780 1125h15v15h-15zM885 1110h15v15h-15zM870 1140h15v15h-15zM870 1110h15v15h-15zM855 1110h15v15h-15zM840 1110h15v15h-15zM825 1110h15v15h-15zM735 1125h15v15h-15zM885 1095h15v15h-15zM870 1095h15v15h-15zM855 1095h15v15h-15zM825 1095h15v15h-15zM885 1080h15v15h-15zM870 1080h15v15h-15zM810 1095h15v15h-15zM795 1110h15v15h-15zM795 1080h15v15h-15zM735 1065h15v15h-15zM720 1065h15v15h-15zM750 1065h15v15h-15zM840 1050h15v15h-15zM825 1065h15v15h-15zM855 1080h15v15h-15zM840 1080h15v15h-15zM825 1080h15v15h-15zM885 1050h15v15h-15zM810 1050h15v15h-15zM795 1050h15v15h-15zM810 1065h15v15h-15zM750 1050h15v15h-15zM915 1185h15v15h-15zM1035 1170h15v15h-15zM915 1170h15v15h-15zM900 1170h15v15h-15zM885 1185h15v15h-15zM900 1185h15v15h-15zM900 1200h15v15h-15zM975 1155h15v15h-15zM930 1140h15v15h-15zM915 1140h15v15h-15zM885 1140h15v15h-15zM930 1155h15v15h-15zM915 1155h15v15h-15zM900 1155h15v15h-15zM1020 1125h15v15h-15zM930 1125h15v15h-15zM1035 1110h15v15h-15zM915 1110h15v15h-15zM915 1125h15v15h-15zM900 1110h15v15h-15zM885 1125h15v15h-15zM930 1095h15v15h-15zM930 1110h15v15h-15zM900 1095h15v15h-15zM1035 1080h15v15h-15zM1020 1080h15v15h-15zM960 1065h15v15h-15zM915 1080h15v15h-15zM900 1080h15v15h-15zM885 1065h15v15h-15zM870 1065h15v15h-15zM900 1065h15v15h-15zM1005 1065h15v15h-15zM930 1065h15v15h-15zM945 1125h15v15h-15zM945 1095h15v15h-15zM945 1110h15v15h-15zM945 1080h15v15h-15zM915 1065h15v15h-15zM945 1050h15v15h-15zM915 1050h15v15h-15zM900 1050h15v15h-15zM930 1050h15v15h-15zM1170 870h15v15h-15zM1125 870h15v15h-15zM1050 840h15v15h-15zM1080 825h15v15h-15zM1140 810h15v15h-15zM1125 810h15v15h-15zM1110 810h15v15h-15zM1095 810h15v15h-15zM1080 810h15v15h-15zM1065 810h15v15h-15zM1050 810h15v15h-15zM1035 825h15v15h-15zM1050 825h15v15h-15zM1155 795h15v15h-15zM1125 795h15v15h-15zM1065 795h15v15h-15zM1170 780h15v15h-15zM1110 780h15v15h-15zM1065 780h15v15h-15zM1050 780h15v15h-15zM1155 765h15v15h-15zM1140 765h15v15h-15zM1125 765h15v15h-15zM1155 780h15v15h-15zM1140 780h15v15h-15zM1125 780h15v15h-15zM1065 765h15v15h-15zM1185 750h15v15h-15zM1185 735h15v15h-15zM1200 735h15v15h-15zM1170 765h15v15h-15zM1170 750h15v15h-15zM1155 750h15v15h-15zM1125 750h15v15h-15zM1110 750h15v15h-15zM1065 750h15v15h-15zM1005 735h15v15h-15zM990 735h15v15h-15zM915 735h15v15h-15zM900 750h15v15h-15zM900 735h15v15h-15zM1035 720h15v15h-15zM1020 720h15v15h-15zM1005 720h15v15h-15zM990 720h15v15h-15zM975 720h15v15h-15zM960 720h15v15h-15zM945 720h15v15h-15zM975 735h15v15h-15zM960 735h15v15h-15zM930 735h15v15h-15zM915 720h15v15h-15zM900 720h15v15h-15zM1020 705h15v15h-15zM1005 705h15v15h-15zM990 705h15v15h-15zM975 705h15v15h-15zM960 705h15v15h-15zM990 690h15v15h-15zM930 690h15v15h-15zM915 690h15v15h-15zM900 690h15v15h-15zM930 705h15v15h-15zM915 705h15v15h-15zM900 705h15v15h-15zM975 675h15v15h-15zM945 675h15v15h-15zM930 675h15v15h-15zM1020 690h15v15h-15zM975 660h15v15h-15zM915 660h15v15h-15zM915 675h15v15h-15zM900 660h15v15h-15zM885 675h15v15h-15zM900 675h15v15h-15zM975 645h15v15h-15zM930 645h15v15h-15zM915 645h15v15h-15zM900 645h15v15h-15zM1020 630h15v15h-15zM960 630h15v15h-15zM960 645h15v15h-15zM930 630h15v15h-15zM915 630h15v15h-15zM900 630h15v15h-15zM1005 615h15v15h-15zM990 615h15v15h-15zM975 615h15v15h-15zM930 615h15v15h-15zM915 615h15v15h-15zM975 600h15v15h-15zM960 600h15v15h-15zM945 600h15v15h-15zM915 600h15v15h-15zM915 585h15v15h-15zM960 570h15v15h-15zM945 570h15v15h-15zM930 585h15v15h-15zM900 570h15v15h-15zM930 540h15v15h-15zM1020 525h15v15h-15zM990 525h15v15h-15zM975 525h15v15h-15zM1035 510h15v15h-15zM1020 540h15v15h-15zM1005 510h15v15h-15zM990 510h15v15h-15zM975 510h15v15h-15zM960 510h15v15h-15zM945 510h15v15h-15zM945 495h15v15h-15zM900 510h15v15h-15zM1035 495h15v15h-15zM1020 495h15v15h-15zM1005 495h15v15h-15zM975 495h15v15h-15zM930 495h15v15h-15zM900 495h15v15h-15zM1035 480h15v15h-15zM1020 480h15v15h-15zM960 480h15v15h-15zM960 495h15v15h-15zM915 480h15v15h-15zM1005 465h15v15h-15zM975 465h15v15h-15zM930 465h15v15h-15zM915 465h15v15h-15zM1035 450h15v15h-15zM1020 450h15v15h-15zM1005 450h15v15h-15zM975 450h15v15h-15zM945 450h15v15h-15zM915 450h15v15h-15zM870 585h15v15h-15zM855 585h15v15h-15zM840 585h15v15h-15zM765 585h15v15h-15zM885 570h15v15h-15zM870 570h15v15h-15zM855 570h15v15h-15zM840 570h15v15h-15zM825 570h15v15h-15zM810 570h15v15h-15zM795 570h15v15h-15zM780 585h15v15h-15zM780 570h15v15h-15zM765 570h15v15h-15zM750 570h15v15h-15zM855 555h15v15h-15zM840 555h15v15h-15zM825 555h15v15h-15zM810 555h15v15h-15zM795 555h15v15h-15zM840 540h15v15h-15zM780 540h15v15h-15zM765 540h15v15h-15zM750 540h15v15h-15zM885 510h15v15h-15zM885 495h15v15h-15zM855 495h15v15h-15zM825 495h15v15h-15zM780 495h15v15h-15zM765 495h15v15h-15zM750 495h15v15h-15zM885 480h15v15h-15zM810 480h15v15h-15zM810 495h15v15h-15zM765 480h15v15h-15zM750 480h15v15h-15zM855 465h15v15h-15zM840 465h15v15h-15zM825 465h15v15h-15zM780 465h15v15h-15zM765 465h15v15h-15zM885 450h15v15h-15zM855 450h15v15h-15zM825 450h15v15h-15zM810 450h15v15h-15zM810 435h15v15h-15zM795 450h15v15h-15zM765 450h15v15h-15zM870 435h15v15h-15zM855 435h15v15h-15zM840 435h15v15h-15zM765 435h15v15h-15zM885 420h15v15h-15zM870 420h15v15h-15zM855 420h15v15h-15zM840 420h15v15h-15zM795 420h15v15h-15zM780 435h15v15h-15zM780 420h15v15h-15zM765 420h15v15h-15zM870 405h15v15h-15zM855 405h15v15h-15zM840 405h15v15h-15zM810 405h15v15h-15zM795 405h15v15h-15zM855 390h15v15h-15zM825 390h15v15h-15zM810 390h15v15h-15zM795 390h15v15h-15zM780 390h15v15h-15zM765 390h15v15h-15zM780 405h15v15h-15zM765 405h15v15h-15zM855 375h15v15h-15zM825 375h15v15h-15zM810 375h15v15h-15zM780 375h15v15h-15zM885 360h15v15h-15zM870 390h15v15h-15zM870 360h15v15h-15zM855 360h15v15h-15zM840 360h15v15h-15zM825 360h15v15h-15zM810 360h15v15h-15zM765 360h15v15h-15zM765 375h15v15h-15zM735 390h15v15h-15zM735 405h15v15h-15zM735 375h15v15h-15zM750 360h15v15h-15zM885 345h15v15h-15zM870 345h15v15h-15zM855 345h15v15h-15zM840 345h15v15h-15zM825 345h15v15h-15zM855 330h15v15h-15zM840 330h15v15h-15zM825 330h15v15h-15zM780 345h15v15h-15zM765 345h15v15h-15zM750 345h15v15h-15zM885 330h15v15h-15zM870 330h15v15h-15zM885 315h15v15h-15zM870 315h15v15h-15zM810 330h15v15h-15zM810 345h15v15h-15zM780 330h15v15h-15zM765 330h15v15h-15zM750 330h15v15h-15zM855 315h15v15h-15zM840 315h15v15h-15zM825 315h15v15h-15zM810 315h15v15h-15zM780 360h15v15h-15zM795 330h15v15h-15zM795 345h15v15h-15zM885 300h15v15h-15zM870 300h15v15h-15zM855 300h15v15h-15zM840 300h15v15h-15zM825 300h15v15h-15zM810 300h15v15h-15zM795 300h15v15h-15zM780 300h15v15h-15zM825 285h15v15h-15zM810 285h15v15h-15zM795 285h15v15h-15zM765 300h15v15h-15zM720 435h15v15h-15zM705 435h15v15h-15zM690 435h15v15h-15zM615 435h15v15h-15zM735 420h15v15h-15zM720 420h15v15h-15zM690 420h15v15h-15zM675 420h15v15h-15zM660 420h15v15h-15zM675 435h15v15h-15zM660 435h15v15h-15zM630 435h15v15h-15zM630 420h15v15h-15zM615 420h15v15h-15zM600 420h15v15h-15zM720 405h15v15h-15zM705 405h15v15h-15zM690 405h15v15h-15zM675 405h15v15h-15zM660 405h15v15h-15zM645 405h15v15h-15zM705 390h15v15h-15zM660 390h15v15h-15zM645 390h15v15h-15zM630 390h15v15h-15zM615 390h15v15h-15zM630 405h15v15h-15zM615 405h15v15h-15zM600 390h15v15h-15zM600 405h15v15h-15zM585 390h15v15h-15zM600 375h15v15h-15zM585 375h15v15h-15zM720 375h15v15h-15zM690 375h15v15h-15zM675 375h15v15h-15zM675 390h15v15h-15zM660 375h15v15h-15zM630 375h15v15h-15zM735 360h15v15h-15zM720 390h15v15h-15zM720 360h15v15h-15zM705 360h15v15h-15zM690 360h15v15h-15zM675 360h15v15h-15zM660 360h15v15h-15zM615 360h15v15h-15zM615 375h15v15h-15zM600 360h15v15h-15zM735 345h15v15h-15zM720 345h15v15h-15zM705 345h15v15h-15zM690 345h15v15h-15zM675 345h15v15h-15zM630 345h15v15h-15zM615 345h15v15h-15zM600 345h15v15h-15zM735 330h15v15h-15zM720 330h15v15h-15zM660 345h15v15h-15zM645 375h15v15h-15zM645 360h15v15h-15zM630 360h15v15h-15zM645 345h15v15h-15zM690 315h15v15h-15zM675 315h15v15h-15zM735 300h15v15h-15zM735 285h15v15h-15zM720 300h15v15h-15zM705 300h15v15h-15zM690 300h15v15h-15zM675 300h15v15h-15zM660 300h15v15h-15zM645 300h15v15h-15zM645 315h15v15h-15zM675 285h15v15h-15zM660 285h15v15h-15zM645 285h15v15h-15zM615 300h15v15h-15zM720 285h15v15h-15zM705 285h15v15h-15zM690 285h15v15h-15zM615 285h15v15h-15zM735 270h15v15h-15zM720 270h15v15h-15zM705 270h15v15h-15zM690 270h15v15h-15zM675 270h15v15h-15zM645 270h15v15h-15zM630 285h15v15h-15zM630 270h15v15h-15zM600 270h15v15h-15zM720 255h15v15h-15zM705 255h15v15h-15zM690 255h15v15h-15zM675 255h15v15h-15zM660 255h15v15h-15zM645 255h15v15h-15zM705 240h15v15h-15zM705 225h15v15h-15zM690 240h15v15h-15zM675 240h15v15h-15zM645 240h15v15h-15zM630 240h15v15h-15zM615 240h15v15h-15zM675 225h15v15h-15zM630 225h15v15h-15zM735 210h15v15h-15zM720 210h15v15h-15zM705 210h15v15h-15zM675 210h15v15h-15zM615 210h15v15h-15zM615 225h15v15h-15zM585 240h15v15h-15zM630 255h15v15h-15zM600 255h15v15h-15zM585 255h15v15h-15zM585 225h15v15h-15zM600 210h15v15h-15zM735 195h15v15h-15zM705 195h15v15h-15zM675 195h15v15h-15zM630 195h15v15h-15zM615 195h15v15h-15zM600 195h15v15h-15zM735 180h15v15h-15zM660 180h15v15h-15zM660 165h15v15h-15zM630 180h15v15h-15zM615 180h15v15h-15zM705 165h15v15h-15zM690 165h15v15h-15zM675 165h15v15h-15zM690 180h15v15h-15zM675 180h15v15h-15zM630 165h15v15h-15zM645 195h15v15h-15zM645 210h15v15h-15zM645 225h15v15h-15zM645 165h15v15h-15zM630 150h15v15h-15zM615 165h15v15h-15zM735 150h15v15h-15zM720 150h15v15h-15zM705 150h15v15h-15zM690 150h15v15h-15zM675 150h15v15h-15zM660 150h15v15h-15zM645 150h15v15h-15zM615 150h15v15h-15zM870 285h15v15h-15zM855 285h15v15h-15zM840 285h15v15h-15zM765 285h15v15h-15zM750 300h15v15h-15zM750 285h15v15h-15zM885 270h15v15h-15zM870 270h15v15h-15zM855 270h15v15h-15zM840 270h15v15h-15zM825 270h15v15h-15zM810 270h15v15h-15zM795 270h15v15h-15zM780 285h15v15h-15zM780 270h15v15h-15zM765 270h15v15h-15zM735 255h15v15h-15zM780 255h15v15h-15zM765 255h15v15h-15zM870 255h15v15h-15zM855 255h15v15h-15zM840 255h15v15h-15zM825 255h15v15h-15zM810 255h15v15h-15zM795 255h15v15h-15zM855 240h15v15h-15zM810 240h15v15h-15zM795 240h15v15h-15zM780 240h15v15h-15zM765 240h15v15h-15zM750 240h15v15h-15zM750 225h15v15h-15zM870 225h15v15h-15zM840 225h15v15h-15zM825 240h15v15h-15zM810 225h15v15h-15zM780 225h15v15h-15zM885 210h15v15h-15zM930 225h15v15h-15zM915 225h15v15h-15zM900 225h15v15h-15zM885 225h15v15h-15zM870 240h15v15h-15zM870 210h15v15h-15zM855 210h15v15h-15zM855 225h15v15h-15zM840 210h15v15h-15zM825 210h15v15h-15zM810 210h15v15h-15zM765 210h15v15h-15zM750 210h15v15h-15zM885 195h15v15h-15zM870 195h15v15h-15zM855 195h15v15h-15zM825 195h15v15h-15zM780 195h15v15h-15zM765 195h15v15h-15zM750 195h15v15h-15zM885 180h15v15h-15zM870 180h15v15h-15zM810 180h15v15h-15zM810 195h15v15h-15zM780 210h15v15h-15zM795 180h15v15h-15zM810 165h15v15h-15zM795 165h15v15h-15zM795 195h15v15h-15zM780 180h15v15h-15zM750 180h15v15h-15zM750 165h15v15h-15zM750 150h15v15h-15zM855 165h15v15h-15zM840 165h15v15h-15zM855 180h15v15h-15zM840 180h15v15h-15zM840 195h15v15h-15zM780 165h15v15h-15zM780 150h15v15h-15zM765 165h15v15h-15zM885 150h15v15h-15zM870 150h15v15h-15zM870 165h15v15h-15zM855 150h15v15h-15zM840 150h15v15h-15zM810 150h15v15h-15zM795 150h15v15h-15zM765 150h15v15h-15zM720 585h15v15h-15zM705 600h15v15h-15zM690 585h15v15h-15zM615 585h15v15h-15zM735 570h15v15h-15zM750 585h15v15h-15zM750 600h15v15h-15zM735 585h15v15h-15zM705 570h15v15h-15zM690 570h15v15h-15zM675 570h15v15h-15zM660 570h15v15h-15zM645 570h15v15h-15zM630 585h15v15h-15zM630 570h15v15h-15zM600 570h15v15h-15zM720 555h15v15h-15zM705 555h15v15h-15zM690 555h15v15h-15zM675 555h15v15h-15zM660 555h15v15h-15zM645 555h15v15h-15zM615 555h15v15h-15zM600 555h15v15h-15zM705 540h15v15h-15zM690 540h15v15h-15zM660 540h15v15h-15zM645 540h15v15h-15zM630 540h15v15h-15zM615 540h15v15h-15zM720 525h15v15h-15zM720 540h15v15h-15zM615 525h15v15h-15zM600 510h15v15h-15zM735 495h15v15h-15zM720 495h15v15h-15zM705 495h15v15h-15zM675 495h15v15h-15zM630 495h15v15h-15zM615 495h15v15h-15zM600 495h15v15h-15zM720 480h15v15h-15zM660 480h15v15h-15zM660 495h15v15h-15zM630 480h15v15h-15zM600 480h15v15h-15zM705 465h15v15h-15zM690 465h15v15h-15zM675 465h15v15h-15zM630 465h15v15h-15zM615 465h15v15h-15zM735 450h15v15h-15zM705 450h15v15h-15zM675 450h15v15h-15zM660 450h15v15h-15zM645 450h15v15h-15zM615 450h15v15h-15zM570 285h15v15h-15zM555 285h15v15h-15zM540 285h15v15h-15zM465 285h15v15h-15zM585 270h15v15h-15zM600 285h15v15h-15zM585 285h15v15h-15zM570 270h15v15h-15zM555 270h15v15h-15zM540 270h15v15h-15zM525 270h15v15h-15zM510 270h15v15h-15zM495 270h15v15h-15zM480 285h15v15h-15zM480 270h15v15h-15zM450 270h15v15h-15zM435 255h15v15h-15zM435 270h15v15h-15zM435 285h15v15h-15zM450 285h15v15h-15zM570 255h15v15h-15zM555 255h15v15h-15zM540 255h15v15h-15zM525 255h15v15h-15zM510 255h15v15h-15zM495 255h15v15h-15zM480 255h15v15h-15zM465 255h15v15h-15zM555 240h15v15h-15zM525 240h15v15h-15zM510 240h15v15h-15zM480 240h15v15h-15zM465 240h15v15h-15zM570 225h15v15h-15zM525 225h15v15h-15zM480 225h15v15h-15zM585 210h15v15h-15zM570 210h15v15h-15zM540 210h15v15h-15zM510 210h15v15h-15zM570 195h15v15h-15zM555 195h15v15h-15zM525 195h15v15h-15zM540 195h15v15h-15zM555 180h15v15h-15zM540 180h15v15h-15zM525 180h15v15h-15zM480 195h15v15h-15zM585 180h15v15h-15zM510 180h15v15h-15zM495 210h15v15h-15zM510 165h15v15h-15zM495 165h15v15h-15zM495 195h15v15h-15zM480 180h15v15h-15zM450 180h15v15h-15zM555 165h15v15h-15zM525 165h15v15h-15zM465 165h15v15h-15zM585 150h15v15h-15zM570 150h15v15h-15zM555 150h15v15h-15zM525 150h15v15h-15zM540 150h15v15h-15zM510 150h15v15h-15zM495 150h15v15h-15zM525 135h15v15h-15zM510 135h15v15h-15zM495 135h15v15h-15zM465 150h15v15h-15zM570 435h15v15h-15zM540 435h15v15h-15zM465 435h15v15h-15zM570 420h15v15h-15zM555 420h15v15h-15zM540 420h15v15h-15zM525 420h15v15h-15zM510 420h15v15h-15zM510 435h15v15h-15zM495 420h15v15h-15zM480 435h15v15h-15zM480 420h15v15h-15zM465 420h15v15h-15zM450 420h15v15h-15zM570 405h15v15h-15zM555 405h15v15h-15zM540 405h15v15h-15zM525 405h15v15h-15zM510 405h15v15h-15zM495 405h15v15h-15zM480 405h15v15h-15zM450 405h15v15h-15zM555 390h15v15h-15zM540 390h15v15h-15zM510 390h15v15h-15zM495 390h15v15h-15zM480 390h15v15h-15zM465 390h15v15h-15zM450 390h15v15h-15zM570 375h15v15h-15zM540 375h15v15h-15zM525 375h15v15h-15zM510 375h15v15h-15zM495 375h15v15h-15zM585 360h15v15h-15zM570 390h15v15h-15zM570 360h15v15h-15zM555 360h15v15h-15zM540 360h15v15h-15zM525 315h15v15h-15zM480 315h15v15h-15zM465 315h15v15h-15zM585 300h15v15h-15zM570 300h15v15h-15zM555 300h15v15h-15zM525 300h15v15h-15zM510 300h15v15h-15zM495 300h15v15h-15zM465 300h15v15h-15zM570 585h15v15h-15zM555 585h15v15h-15zM465 585h15v15h-15zM585 570h15v15h-15zM600 585h15v15h-15zM600 600h15v15h-15zM585 585h15v15h-15zM570 570h15v15h-15zM540 570h15v15h-15zM525 570h15v15h-15zM510 570h15v15h-15zM495 570h15v15h-15zM525 585h15v15h-15zM510 585h15v15h-15zM495 585h15v15h-15zM480 585h15v15h-15zM480 570h15v15h-15zM465 570h15v15h-15zM450 570h15v15h-15zM570 555h15v15h-15zM540 555h15v15h-15zM525 555h15v15h-15zM510 555h15v15h-15zM495 555h15v15h-15zM480 555h15v15h-15zM555 540h15v15h-15zM480 540h15v15h-15zM585 495h15v15h-15zM570 495h15v15h-15zM555 495h15v15h-15zM525 495h15v15h-15zM480 495h15v15h-15zM465 510h15v15h-15zM570 480h15v15h-15zM510 480h15v15h-15zM510 495h15v15h-15zM465 480h15v15h-15zM450 480h15v15h-15zM555 465h15v15h-15zM540 465h15v15h-15zM525 465h15v15h-15zM480 465h15v15h-15zM585 450h15v15h-15zM585 435h15v15h-15zM570 450h15v15h-15zM525 450h15v15h-15zM510 450h15v15h-15zM495 450h15v15h-15zM465 450h15v15h-15zM420 585h15v15h-15zM405 585h15v15h-15zM390 585h15v15h-15zM450 600h15v15h-15zM435 585h15v15h-15zM390 570h15v15h-15zM375 570h15v15h-15zM360 570h15v15h-15zM360 585h15v15h-15zM300 570h15v15h-15zM420 555h15v15h-15zM375 555h15v15h-15zM375 540h15v15h-15zM360 555h15v15h-15zM345 540h15v15h-15zM315 540h15v15h-15zM300 540h15v15h-15zM315 525h15v15h-15zM300 525h15v15h-15zM300 510h15v15h-15zM435 495h15v15h-15zM420 495h15v15h-15zM375 495h15v15h-15zM390 495h15v15h-15zM330 495h15v15h-15zM345 510h15v15h-15zM315 495h15v15h-15zM420 480h15v15h-15zM360 480h15v15h-15zM360 465h15v15h-15zM330 480h15v15h-15zM315 480h15v15h-15zM300 480h15v15h-15zM405 465h15v15h-15zM390 465h15v15h-15zM375 465h15v15h-15zM375 480h15v15h-15zM330 465h15v15h-15zM315 465h15v15h-15zM435 450h15v15h-15zM435 465h15v15h-15zM405 450h15v15h-15zM375 450h15v15h-15zM360 450h15v15h-15zM345 450h15v15h-15zM315 450h15v15h-15zM570 135h15v15h-15zM540 135h15v15h-15zM465 135h15v15h-15zM450 135h15v15h-15zM585 120h15v15h-15zM570 120h15v15h-15zM555 120h15v15h-15zM540 120h15v15h-15zM525 120h15v15h-15zM510 120h15v15h-15zM495 120h15v15h-15zM480 135h15v15h-15zM480 120h15v15h-15zM465 120h15v15h-15zM570 105h15v15h-15zM555 105h15v15h-15zM525 105h15v15h-15zM510 105h15v15h-15zM495 105h15v15h-15zM480 105h15v15h-15zM555 90h15v15h-15zM555 75h15v15h-15zM540 90h15v15h-15zM525 90h15v15h-15zM510 90h15v15h-15zM495 90h15v15h-15zM570 75h15v15h-15zM540 75h15v15h-15zM525 75h15v15h-15zM570 90h15v15h-15zM480 45h15v15h-15zM465 45h15v15h-15zM450 45h15v15h-15zM570 30h15v15h-15zM555 15h15v15h-15zM1170 435h15v15h-15zM1155 435h15v15h-15zM1140 435h15v15h-15zM1065 435h15v15h-15zM1170 420h15v15h-15zM1155 420h15v15h-15zM1140 420h15v15h-15zM1125 420h15v15h-15zM1110 420h15v15h-15zM1095 420h15v15h-15zM1080 435h15v15h-15zM1080 420h15v15h-15zM1065 420h15v15h-15zM1050 420h15v15h-15zM1155 405h15v15h-15zM1140 405h15v15h-15zM1125 405h15v15h-15zM1110 405h15v15h-15zM1095 405h15v15h-15zM1110 390h15v15h-15zM1095 390h15v15h-15zM1080 390h15v15h-15zM1065 390h15v15h-15zM1050 390h15v15h-15zM1080 375h15v15h-15zM1065 375h15v15h-15zM1050 360h15v15h-15zM1080 345h15v15h-15zM1080 330h15v15h-15zM1140 315h15v15h-15zM1125 315h15v15h-15zM1185 300h15v15h-15zM1065 300h15v15h-15zM1170 735h15v15h-15zM1140 735h15v15h-15zM1095 735h15v15h-15zM1125 720h15v15h-15zM1095 720h15v15h-15zM1080 720h15v15h-15zM1185 705h15v15h-15zM1185 690h15v15h-15zM1170 705h15v15h-15zM1155 705h15v15h-15zM1125 705h15v15h-15zM1050 705h15v15h-15zM1035 690h15v15h-15zM1155 690h15v15h-15zM1110 690h15v15h-15zM1080 690h15v15h-15zM1050 645h15v15h-15zM1170 675h15v15h-15zM1185 660h15v15h-15zM1185 675h15v15h-15zM1170 645h15v15h-15zM1155 630h15v15h-15zM1185 615h15v15h-15zM1185 630h15v15h-15zM1200 630h15v15h-15zM1140 615h15v15h-15zM1125 615h15v15h-15zM1095 615h15v15h-15zM1185 600h15v15h-15zM1170 600h15v15h-15zM1140 600h15v15h-15zM420 735h15v15h-15zM390 735h15v15h-15zM405 735h15v15h-15zM420 750h15v15h-15zM405 750h15v15h-15zM345 735h15v15h-15zM375 720h15v15h-15zM345 720h15v15h-15zM330 720h15v15h-15zM300 720h15v15h-15zM405 705h15v15h-15zM405 720h15v15h-15zM375 705h15v15h-15zM375 690h15v15h-15zM360 690h15v15h-15zM330 690h15v15h-15zM375 675h15v15h-15zM345 675h15v15h-15zM435 660h15v15h-15zM450 675h15v15h-15zM435 675h15v15h-15zM420 660h15v15h-15zM390 660h15v15h-15zM375 660h15v15h-15zM360 660h15v15h-15zM345 660h15v15h-15zM315 660h15v15h-15zM420 645h15v15h-15zM375 645h15v15h-15zM345 645h15v15h-15zM390 630h15v15h-15zM375 630h15v15h-15zM435 615h15v15h-15zM405 615h15v15h-15zM390 615h15v15h-15zM300 645h15v15h-15zM285 615h15v15h-15zM420 600h15v15h-15zM270 585h15v15h-15zM285 600h15v15h-15zM300 600h15v15h-15zM300 585h15v15h-15zM255 570h15v15h-15zM285 555h15v15h-15zM285 540h15v15h-15zM240 555h15v15h-15zM240 540h15v15h-15zM225 540h15v15h-15zM270 525h15v15h-15zM225 525h15v15h-15zM195 525h15v15h-15zM285 510h15v15h-15zM270 510h15v15h-15zM240 510h15v15h-15zM210 510h15v15h-15zM195 510h15v15h-15zM165 510h15v15h-15zM270 495h15v15h-15zM225 495h15v15h-15zM195 495h15v15h-15zM240 480h15v15h-15zM210 480h15v15h-15zM165 480h15v15h-15zM285 465h15v15h-15zM255 465h15v15h-15zM210 465h15v15h-15zM195 465h15v15h-15zM165 465h15v15h-15zM285 450h15v15h-15zM270 450h15v15h-15zM240 450h15v15h-15zM195 450h15v15h-15zM165 450h15v15h-15zM420 435h15v15h-15zM390 435h15v15h-15zM345 435h15v15h-15zM375 420h15v15h-15zM345 420h15v15h-15zM330 420h15v15h-15zM315 405h15v15h-15zM435 405h15v15h-15zM435 390h15v15h-15zM420 405h15v15h-15zM405 405h15v15h-15zM390 405h15v15h-15zM390 420h15v15h-15zM405 420h15v15h-15zM420 420h15v15h-15zM375 435h15v15h-15zM360 435h15v15h-15zM360 420h15v15h-15zM375 405h15v15h-15zM300 405h15v15h-15zM390 360h15v15h-15zM390 330h15v15h-15zM435 315h15v15h-15zM405 315h15v15h-15zM390 315h15v15h-15zM435 300h15v15h-15zM420 300h15v15h-15zM405 300h15v15h-15zM405 285h15v15h-15zM390 300h15v15h-15zM1230 720h15v15h-15zM1215 705h15v15h-15zM1335 705h15v15h-15zM1320 705h15v15h-15zM1305 705h15v15h-15zM1245 705h15v15h-15zM1200 705h15v15h-15zM1185 720h15v15h-15zM1170 720h15v15h-15zM1155 720h15v15h-15zM1140 720h15v15h-15zM1125 735h15v15h-15zM1215 720h15v15h-15zM1200 720h15v15h-15zM1305 690h15v15h-15zM1230 690h15v15h-15zM1215 690h15v15h-15zM1245 675h15v15h-15zM1260 660h15v15h-15zM1245 660h15v15h-15zM1230 660h15v15h-15zM1230 675h15v15h-15zM1245 690h15v15h-15zM1215 660h15v15h-15zM1200 660h15v15h-15zM1215 675h15v15h-15zM1200 675h15v15h-15zM1245 645h15v15h-15zM1230 645h15v15h-15zM1260 630h15v15h-15zM1215 630h15v15h-15zM1185 645h15v15h-15zM1200 645h15v15h-15zM1215 645h15v15h-15zM1335 615h15v15h-15zM1380 615h15v15h-15zM1365 630h15v15h-15zM1365 600h15v15h-15zM1260 615h15v15h-15zM1245 615h15v15h-15zM1245 630h15v15h-15zM1215 615h15v15h-15zM1200 615h15v15h-15zM1320 600h15v15h-15zM1290 600h15v15h-15zM1245 600h15v15h-15zM1230 585h15v15h-15zM1245 585h15v15h-15zM1260 585h15v15h-15zM1260 600h15v15h-15zM1215 600h15v15h-15zM1170 1335h15v15h-15zM1080 1320h15v15h-15zM1155 1305h15v15h-15zM1050 1305h15v15h-15zM435 1440h15v15h-15zM435 1425h15v15h-15zM435 1410h15v15h-15zM435 1395h15v15h-15zM435 1380h15v15h-15zM450 1365h15v15h-15zM435 1365h15v15h-15zM450 1350h15v15h-15zM450 1335h15v15h-15zM435 1350h15v15h-15zM450 1380h15v15h-15zM465 1350h15v15h-15zM1155 1290h15v15h-15zM1110 1290h15v15h-15zM1110 1365h15v15h-15zM1110 1380h15v15h-15zM1080 1290h15v15h-15zM1125 1275h15v15h-15zM1140 1260h15v15h-15zM1125 1260h15v15h-15zM1110 1260h15v15h-15zM1065 1260h15v15h-15zM1050 1260h15v15h-15zM1170 1245h15v15h-15zM1125 1245h15v15h-15zM1080 1245h15v15h-15zM1065 1230h15v15h-15zM1110 1215h15v15h-15zM1095 1215h15v15h-15zM1050 1215h15v15h-15zM1170 1200h15v15h-15zM1170 1215h15v15h-15zM1140 1200h15v15h-15zM1095 1200h15v15h-15zM1080 1185h15v15h-15zM570 1335h15v15h-15zM555 1350h15v15h-15zM540 1335h15v15h-15zM585 1305h15v15h-15zM585 1290h15v15h-15zM570 1290h15v15h-15zM570 1305h15v15h-15zM555 1290h15v15h-15zM525 1290h15v15h-15zM570 1275h15v15h-15zM525 1275h15v15h-15zM630 1275h15v15h-15zM615 1275h15v15h-15zM600 1275h15v15h-15zM585 1275h15v15h-15zM570 1260h15v15h-15zM540 1260h15v15h-15zM540 1245h15v15h-15zM525 1260h15v15h-15zM555 1275h15v15h-15zM555 1260h15v15h-15zM555 1245h15v15h-15zM525 1245h15v15h-15zM540 1230h15v15h-15zM510 1230h15v15h-15zM555 1215h15v15h-15zM570 1230h15v15h-15zM585 1185h15v15h-15zM270 435h15v15h-15zM285 435h15v15h-15zM300 435h15v15h-15zM300 450h15v15h-15zM315 435h15v15h-15zM270 420h15v15h-15zM255 420h15v15h-15zM285 420h15v15h-15zM300 420h15v15h-15zM315 420h15v15h-15zM330 435h15v15h-15zM240 435h15v15h-15zM225 435h15v15h-15zM195 435h15v15h-15zM225 420h15v15h-15zM210 420h15v15h-15zM210 405h15v15h-15zM240 420h15v15h-15zM255 405h15v15h-15zM180 420h15v15h-15zM165 405h15v15h-15zM165 420h15v15h-15zM135 435h15v15h-15zM285 405h15v15h-15zM270 405h15v15h-15zM195 405h15v15h-15zM150 405h15v15h-15zM150 390h15v15h-15zM150 375h15v15h-15zM210 390h15v15h-15zM210 375h15v15h-15zM180 390h15v15h-15zM165 390h15v15h-15zM195 375h15v15h-15zM180 375h15v15h-15zM180 360h15v15h-15zM210 360h15v15h-15zM195 360h15v15h-15zM165 360h15v15h-15zM165 345h15v15h-15zM150 360h15v15h-15zM135 360h15v15h-15zM270 345h15v15h-15zM180 345h15v15h-15zM420 885h15v15h-15zM375 825h15v15h-15zM330 870h15v15h-15zM420 855h15v15h-15zM405 855h15v15h-15zM300 855h15v15h-15zM420 825h15v15h-15zM420 810h15v15h-15zM375 795h15v15h-15zM360 780h15v15h-15zM390 765h15v15h-15zM315 765h15v15h-15zM435 750h15v15h-15zM390 750h15v15h-15zM345 750h15v15h-15zM270 885h15v15h-15zM180 870h15v15h-15zM270 855h15v15h-15zM255 855h15v15h-15zM150 855h15v15h-15zM180 840h15v15h-15zM270 825h15v15h-15zM270 810h15v15h-15zM165 810h15v15h-15zM225 795h15v15h-15zM180 795h15v15h-15zM210 780h15v15h-15zM165 765h15v15h-15zM285 750h15v15h-15zM195 750h15v15h-15zM225 735h15v15h-15zM225 720h15v15h-15zM270 1035h15v15h-15zM225 1020h15v15h-15zM180 1020h15v15h-15zM270 1005h15v15h-15zM255 1005h15v15h-15zM150 1005h15v15h-15zM270 975h15v15h-15zM270 960h15v15h-15zM225 945h15v15h-15zM180 945h15v15h-15zM210 930h15v15h-15zM240 915h15v15h-15zM255 930h15v15h-15zM225 900h15v15h-15zM210 885h15v15h-15zM165 915h15v15h-15zM285 900h15v15h-15zM300 900h15v15h-15zM300 915h15v15h-15zM195 900h15v15h-15zM420 1035h15v15h-15zM420 1005h15v15h-15zM300 975h15v15h-15zM420 960h15v15h-15zM375 945h15v15h-15zM375 960h15v15h-15zM360 975h15v15h-15zM330 945h15v15h-15zM345 990h15v15h-15zM360 930h15v15h-15zM435 900h15v15h-15zM345 900h15v15h-15zM420 285h15v15h-15zM420 255h15v15h-15zM405 255h15v15h-15zM420 225h15v15h-15zM420 240h15v15h-15zM405 240h15v15h-15zM390 225h15v15h-15zM420 210h15v15h-15zM435 150h15v15h-15zM450 150h15v15h-15zM435 165h15v15h-15zM420 165h15v15h-15zM420 180h15v15h-15zM345 150h15v15h-15zM525 1170h15v15h-15zM480 1170h15v15h-15zM570 1155h15v15h-15zM480 1140h15v15h-15zM495 1125h15v15h-15zM570 1125h15v15h-15zM570 1110h15v15h-15zM585 1095h15v15h-15zM540 1110h15v15h-15zM525 1140h15v15h-15zM465 1110h15v15h-15zM450 1110h15v15h-15zM450 1125h15v15h-15zM345 1140h15v15h-15zM330 1140h15v15h-15zM330 1155h15v15h-15zM525 1095h15v15h-15zM480 1095h15v15h-15zM510 1080h15v15h-15zM540 1065h15v15h-15zM435 1065h15v15h-15zM450 1050h15v15h-15zM420 1080h15v15h-15zM345 1080h15v15h-15zM345 1050h15v15h-15zM345 1125h15v15h-15zM405 1095h15v15h-15zM585 1050h15v15h-15zM540 1050h15v15h-15zM495 1050h15v15h-15zM1320 1335h15v15h-15zM1245 1320h15v15h-15zM1200 1305h15v15h-15zM1320 1275h15v15h-15zM1320 1260h15v15h-15zM1245 570h15v15h-15zM1230 570h15v15h-15zM1200 570h15v15h-15zM1200 555h15v15h-15zM1230 540h15v15h-15zM1230 555h15v15h-15zM1245 555h15v15h-15zM1200 540h15v15h-15zM1200 525h15v15h-15zM1230 525h15v15h-15zM1215 525h15v15h-15zM1215 510h15v15h-15zM1230 510h15v15h-15zM1200 510h15v15h-15zM1260 480h15v15h-15zM1200 465h15v15h-15zM1200 480h15v15h-15zM1215 480h15v15h-15zM1215 495h15v15h-15zM1290 450h15v15h-15zM1305 435h15v15h-15zM1320 480h15v15h-15zM1335 495h15v15h-15zM1350 510h15v15h-15zM1350 540h15v15h-15zM1245 420h15v15h-15zM1200 405h15v15h-15zM1320 375h15v15h-15zM1215 360h15v15h-15zM1275 345h15v15h-15zM1215 315h15v15h-15zM1335 300h15v15h-15zM1050 255h15v15h-15zM1110 180h15v15h-15zM1065 165h15v15h-15zM1155 1185h15v15h-15zM1125 1170h15v15h-15zM1110 1155h15v15h-15zM1095 1170h15v15h-15zM1080 1170h15v15h-15zM1080 1155h15v15h-15zM1155 1155h15v15h-15zM1050 1155h15v15h-15zM1050 1140h15v15h-15zM1050 1125h15v15h-15zM1035 1125h15v15h-15zM1170 1110h15v15h-15zM1065 1065h15v15h-15zM1185 1050h15v15h-15zM1200 1155h15v15h-15zM1290 1065h15v15h-15zM1335 1050h15v15h-15zM1245 1050h15v15h-15zM1245 975h15v15h-15zM1275 975h15v15h-15zM1230 915h15v15h-15zM1230 1035h15v15h-15zM1170 1035h15v15h-15zM1125 1005h15v15h-15zM1110 1020h15v15h-15zM1095 1035h15v15h-15zM1170 1005h15v15h-15zM1080 990h15v15h-15zM1170 975h15v15h-15zM1155 960h15v15h-15zM1065 960h15v15h-15zM1125 945h15v15h-15zM1155 930h15v15h-15zM1080 945h15v15h-15zM1110 930h15v15h-15zM1065 915h15v15h-15zM1380 1290h15v15h-15zM1365 1260h15v15h-15zM1425 1245h15v15h-15zM1365 1215h15v15h-15zM1395 1020h15v15h-15zM1380 1020h15v15h-15zM1380 990h15v15h-15zM1395 900h15v15h-15zM1335 810h15v15h-15zM1395 780h15v15h-15zM1395 720h15v15h-15zM1410 705h15v15h-15zM1410 675h15v15h-15zM525 1590h15v15h-15zM465 1575h15v15h-15zM480 1590h15v15h-15zM525 1560h15v15h-15zM510 1560h15v15h-15zM525 1530h15v15h-15zM525 1515h15v15h-15zM465 1515.5h15v15h-15zM450 1515.5h15v15h-15zM480 1530.5h15v15h-15zM435 1500.5h15v15h-15zM465 1484.5h15v15h-15zM480 1484.5h15v15h-15zM450 1395h15v15h-15zM540 1455h15v15h-15zM1155 1545h15v15h-15zM1110 1530h15v15h-15zM1080 1530h15v15h-15zM1065 1545h15v15h-15zM1155 1515h15v15h-15zM1140 1515h15v15h-15zM1035 1515h15v15h-15zM1065 1500h15v15h-15zM1155 1485h15v15h-15zM1155 1470h15v15h-15zM1050 1470h15v15h-15zM1110 1455h15v15h-15zM1065 1455h15v15h-15zM1095 1440h15v15h-15zM1125 1425h15v15h-15zM1050 1425h15v15h-15zM1170 1410h15v15h-15zM1125 1410h15v15h-15zM1080 1410h15v15h-15zM1320 1575h15v15h-15zM1275 1560h15v15h-15zM1245 1560h15v15h-15zM1230 1560h15v15h-15zM1320 1545h15v15h-15zM1305 1545h15v15h-15zM1200 1545h15v15h-15zM1230 1530h15v15h-15zM1320 1515h15v15h-15zM1320 1500h15v15h-15zM1215 1500h15v15h-15zM1275 1485h15v15h-15zM1230 1485h15v15h-15zM1260 1470h15v15h-15zM1290 1455h15v15h-15zM1215 1455h15v15h-15zM1335 1440h15v15h-15zM1290 1440h15v15h-15zM1245 1440h15v15h-15zM195 256h15v15h-15zM150 241h15v15h-15zM120 241h15v15h-15zM105 241h15v15h-15zM195 226h15v15h-15zM180 226h15v15h-15zM75 226h15v15H75zM105 211h15v15h-15zM195 196h15v15h-15zM195 181h15v15h-15zM90 181h15v15H90zM150 166h15v15h-15zM105 166h15v15h-15zM135 151h15v15h-15zM165 136h15v15h-15zM90 136h15v15H90zM210 121h15v15h-15zM165 121h15v15h-15zM120 121h15v15h-15zM1350 210h15v15h-15zM1305 195h15v15h-15zM1275 195h15v15h-15zM1350 180h15v15h-15zM1335 180h15v15h-15zM1230 180h15v15h-15zM1260 165h15v15h-15zM1350 150h15v15h-15zM1350 135h15v15h-15zM1245 135h15v15h-15zM1305 120h15v15h-15zM1260 120h15v15h-15zM1290 105h15v15h-15zM1320 90h15v15h-15zM1245 90h15v15h-15zM1275 75h15v15h-15z"/><g fill-rule="nonzero"><path d="M120 765h15v15h-15zM75 750h15v15H75zM45 750h15v15H45zM30 750h15v15H30zM120 735h15v15h-15zM105 735h15v15h-15zM0 735h15v15H0zM30 720h15v15H30zM120 705h15v15h-15zM120 690h15v15h-15zM15 690h15v15H15zM75 675h15v15H75zM30 675h15v15H30zM60 660h15v15H60zM90 645h15v15H90zM15 645h15v15H15zM135 630h15v15h-15zM90 630h15v15H90zM45 630h15v15H45z"/></g><path d="M120 945h15v15h-15zM120 930h15v15h-15zM135 960h15v15h-15zM150 975h15v15h-15zM165 990h15v15h-15zM135 975h15v15h-15zM75 930h15v15H75zM45 930h15v15H45zM30 930h15v15H30zM120 915h15v15h-15zM105 915h15v15h-15zM0 915h15v15H0zM30 900h15v15H30zM120 885h15v15h-15zM120 870h15v15h-15zM15 870h15v15H15zM75 855h15v15H75zM30 855h15v15H30zM60 840h15v15H60zM90 825h15v15H90zM15 825h15v15H15zM135 810h15v15h-15zM90 810h15v15H90zM45 810h15v15H45zM75 1125H60v15h15zM120 1110h-15v15h15zM150 1110h-15v15h15zM150 1060h-15v15h15zM75 1080H60v15h15zM90 1095H75v15h15zM135 1140h-15v15h15zM120 1140h-15v15h15zM15 1125H0v15h15zM15 1110H0v15h15zM120 1125h-15v15h15zM60 1110H45v15h15zM105 1110H90v15h15zM75 1095H60v15h15zM45 1065H30v15h15zM120 1075h-15v15h15zM45 1050H30v15h15zM90 1065H75v15h15zM300 1110h15v15h-15zM225 1155h15v15h-15zM210 1155h15v15h-15zM285 1155h15v15h-15zM270 1155h15v15h-15zM150 1140h15v15h-15zM195 1140h15v15h-15zM285 1140h15v15h-15zM285 1125h15v15h-15zM176 1120h15v15h-15zM236 1105h15v15h-15zM191 1105h15v15h-15zM221 1090h15v15h-15zM251 1075h15v15h-15zM176 1075h15v15h-15zM251 1060h15v15h-15zM206 1060h15v15h-15zM510 1305h15v15h-15zM450 1290h15v15h-15zM510 1275h15v15h-15zM495 1275h15v15h-15zM510 1245h15v15h-15zM510 1230h15v15h-15zM465 1210h15v15h-15zM480 1185h15v15h-15zM405 1155h15v15h-15zM480 1170h15v15h-15zM435 1170h15v15h-15zM0 76h15v15H0zM0 91h15v15H0zM0 61h15v15H0zM1320 60h15v15h-15zM0 46h15v15H0zM0 31h15v15H0zM15 1h15v15H15zM1335 0h15v15h-15zM0 1h15v15H0zM0 16h15v15H0zM1320 15h15v15h-15zM90 106h15v15H90zM75 106h15v15H75zM60 106h15v15H60zM1380 105h15v15h-15zM45 106h15v15H45zM1350 105h15v15h-15zM1425 75h15v15h-15zM1425 90h15v15h-15zM60 76h15v15H60zM45 76h15v15H45zM30 76h15v15H30zM1350 75h15v15h-15zM1335 105h15v15h-15zM30 61h15v15H30zM1350 60h15v15h-15zM105 46h15v15h-15zM1350 45h15v15h-15zM1380 30h15v15h-15zM45 31h15v15H45zM1365 30h15v15h-15zM30 31h15v15H30zM1350 30h15v15h-15zM105 16h15v15h-15zM1425 15h15v15h-15zM75 76h15v15H75zM1395 75h15v15h-15zM75 61h15v15H75zM1395 60h15v15h-15zM1395 30h15v15h-15zM75 46h15v15H75zM1395 45h15v15h-15zM105 31h15v15h-15zM1425 30h15v15h-15zM90 1h15v15H90zM1410 0h15v15h-15zM1395 0h15v15h-15zM60 1h15v15H60zM1380 0h15v15h-15zM45 1h15v15H45zM30 1h15v15H30zM1350 0h15v15h-15zM435 1170v15h-15v-15zM420 1170v15h-15v-15zM405 1170v15h-15v-15zM390 1170v15h-15v-15zM375 1170v15h-15v-15zM420 1260v15h-15v-15zM405 1260v15h-15v-15zM390 1260v15h-15v-15zM375 1260v15h-15v-15zM435 1185v15h-15v-15zM435 1200v15h-15v-15zM405 1200v15h-15v-15zM405 1215v15h-15v-15zM405 1230v15h-15v-15zM390 1230v15h-15v-15zM390 1215v15h-15v-15zM390 1200v15h-15v-15zM375 1230v15h-15v-15zM375 1215v15h-15v-15zM375 1200v15h-15v-15zM435 1215v15h-15v-15zM435 1230v15h-15v-15zM435 1245v15h-15v-15zM435 1260v15h-15v-15zM360 1170v15h-15v-15zM360 1260v15h-15v-15zM345 1170v15h-15v-15zM315 1185v15h-15v-15zM300 1170v15h-15v-15zM285 1170v15h-15v-15zM315 1200v15h-15v-15zM300 1200v15h-15v-15zM300 1215v15h-15v-15zM285 1215v15h-15v-15zM270 1200v15h-15v-15zM255 1185v15h-15v-15zM255 1170v15h-15v-15zM240 1185v15h-15v-15zM240 1170v15h-15v-15zM225 1185v15h-15v-15zM225 1200v15h-15v-15zM225 1215v15h-15v-15zM240 1215v15h-15v-15zM255 1230v15h-15v-15zM240 1245v15h-15v-15zM225 1245v15h-15v-15zM210 1230v15h-15v-15zM195 1215v15h-15v-15zM195 1200v15h-15v-15zM180 1200v15h-15v-15zM180 1230v15h-15v-15zM165 1245v15h-15v-15zM135 1230v15h-15v-15zM135 1245v15h-15v-15zM135 1260v15h-15v-15zM165 1260v15h-15v-15zM165 1275v15h-15v-15zM165 1290v15h-15v-15zM165 1215v15h-15v-15zM150 1215v15h-15v-15zM165 1185v15h-15v-15zM150 1185v15h-15v-15zM135 1200v15h-15v-15zM165 1170v15h-15v-15zM210 1185v15h-15v-15zM225 1170v15h-15v-15zM285 1230v15h-15v-15zM285 1245v15h-15v-15zM285 1260v15h-15v-15zM300 1245v15h-15v-15zM315 1260v15h-15v-15zM315 1275v15h-15v-15zM330 1290v15h-15v-15zM360 1290v15h-15v-15zM375 1290v15h-15v-15zM375 1305v15h-15v-15zM390 1305v15h-15v-15zM405 1290v15h-15v-15zM405 1305v15h-15v-15zM420 1305v15h-15v-15zM435 1305v15h-15v-15zM435 1320v15h-15v-15zM435 1335v15h-15v-15zM435 1350v15h-15v-15zM435 1365v15h-15v-15zM435 1380v15h-15v-15zM420 1395v15h-15v-15zM420 1410v15h-15v-15zM435 1410v15h-15v-15zM435 1425v15h-15v-15zM435 1440v15h-15v-15zM420 1455v15h-15v-15zM405 1440v15h-15v-15zM390 1440v15h-15v-15zM375 1425v15h-15v-15zM360 1425v15h-15v-15zM345 1410v15h-15v-15zM330 1395v15h-15v-15zM330 1410v15h-15v-15zM315 1410v15h-15v-15zM360 1470v15h-15v-15zM345 1470v15h-15v-15zM390 1470v15h-15v-15zM375 1470v15h-15v-15zM330 1470v15h-15v-15zM360 1530v15h-15v-15zM360 1545v15h-15v-15zM345 1530v15h-15v-15zM390 1515v15h-15v-15zM375 1515v15h-15v-15zM375 1530v15h-15v-15zM375 1485v15h-15v-15zM375 1500v15h-15v-15zM435 1515v15h-15v-15zM420 1515v15h-15v-15zM435 1485v15h-15v-15zM435 1530v15h-15v-15zM420 1545v15h-15v-15zM420 1560v15h-15v-15zM405 1560v15h-15v-15zM390 1575v15h-15v-15zM375 1590v15h-15v-15zM360 1575v15h-15v-15zM345 1575v15h-15v-15zM420 1575v15h-15v-15zM420 1590v15h-15v-15zM435 1560v15h-15v-15zM435 1575v15h-15v-15zM420 1500v15h-15v-15zM405 1485v15h-15v-15zM435 1500v15h-15v-15zM345 1500v15h-15v-15zM330 1530v15h-15v-15zM300 1395v15h-15v-15zM300 1410v15h-15v-15zM300 1425v15h-15v-15zM300 1440v15h-15v-15zM300 1455v15h-15v-15zM315 1455v15h-15v-15zM315 1470v15h-15v-15zM315 1485v15h-15v-15zM315 1500v15h-15v-15zM315 1515v15h-15v-15zM315 1530v15h-15v-15zM300 1485v15h-15v-15zM285 1485v15h-15v-15zM300 1500v15h-15v-15zM300 1515v15h-15v-15zM300 1530v15h-15v-15zM285 1515v15h-15v-15zM270 1500v15h-15v-15zM270 1515v15h-15v-15zM255 1500v15h-15v-15zM255 1485v15h-15v-15zM255 1515v15h-15v-15zM270 1455v15h-15v-15zM270 1470v15h-15v-15zM255 1455v15h-15v-15zM255 1470v15h-15v-15zM195 1440v15h-15v-15zM195 1425v15h-15v-15zM195 1395v15h-15v-15zM195 1410v15h-15v-15zM150 1410v15h-15v-15zM150 1380v15h-15v-15zM150 1395v15h-15v-15zM135 1365v15h-15v-15zM120 1365v15h-15v-15zM105 1350v15H90v-15zM105 1380v15H90v-15zM120 1395v15h-15v-15zM105 1410v15H90v-15zM135 1380v15h-15v-15zM240 1440v15h-15v-15zM240 1455v15h-15v-15zM225 1455v15h-15v-15zM210 1455v15h-15v-15zM210 1470v15h-15v-15zM195 1470v15h-15v-15zM210 1500v15h-15v-15zM195 1500v15h-15v-15zM180 1485v15h-15v-15zM180 1470v15h-15v-15zM180 1440v15h-15v-15zM180 1425v15h-15v-15zM165 1440v15h-15v-15zM165 1410v15h-15v-15zM180 1380v15h-15v-15zM150 1440v15h-15v-15zM150 1425v15h-15v-15zM150 1470v15h-15v-15zM150 1455v15h-15v-15zM120 1425v15h-15v-15zM120 1455v15h-15v-15zM120 1440v15h-15v-15zM90 1395v15H75v-15zM90 1410v15H75v-15zM75 1395v15H60v-15zM75 1410v15H60v-15zM75 1425v15H60v-15zM60 1440v15H45v-15zM60 1455v15H45v-15zM45 1440v15H30v-15zM45 1455v15H30v-15zM75 1455v15H60v-15zM75 1470v15H60v-15zM105 1440v15H90v-15zM120 1470v15h-15v-15zM150 1500v15h-15v-15zM165 1500v15h-15v-15zM165 1515v15h-15v-15zM180 1515v15h-15v-15zM195 1515v15h-15v-15zM195 1530v15h-15v-15zM195 1545v15h-15v-15zM180 1530v15h-15v-15zM165 1545v15h-15v-15zM150 1545v15h-15v-15zM180 1590v15h-15v-15zM165 1590v15h-15v-15zM135 1576v15h-15v-15zM135 1530v15h-15v-15zM150 1485v15h-15v-15zM135 1470v15h-15v-15zM90 1470v15H75v-15zM105 1470v15H90v-15zM15 1470v15H0v-15zM30 1470v15H15v-15zM45 1470v15H30v-15zM135 1485v15h-15v-15zM240 1515v15h-15v-15zM240 1500v15h-15v-15zM240 1530v15h-15v-15zM225 1515v15h-15v-15zM225 1530v15h-15v-15zM210 1545v15h-15v-15zM210 1560v15h-15v-15zM255 1545v15h-15v-15zM270 1545v15h-15v-15zM255 1560v15h-15v-15zM240 1485v15h-15v-15zM285 1530v15h-15v-15zM330 1560v15h-15v-15zM315 1560v15h-15v-15zM300 1560v15h-15v-15zM300 1575v15h-15v-15zM285 1560v15h-15v-15zM285 1575v15h-15v-15zM270 1575v15h-15v-15zM255 1590v15h-15v-15zM240 1590v15h-15v-15zM210 1590v15h-15v-15zM195 1575v15h-15v-15zM270 1590v15h-15v-15zM300 1590v15h-15v-15zM330 1575v15h-15v-15zM330 1590v15h-15v-15zM315 1590v15h-15v-15zM285 1425v15h-15v-15zM315 1380v15h-15v-15zM420 1470v15h-15v-15zM420 1335v15h-15v-15zM405 1320v15h-15v-15zM390 1320v15h-15v-15zM390 1335v15h-15v-15zM375 1320v15h-15v-15zM375 1335v15h-15v-15zM390 1350v15h-15v-15zM405 1365v15h-15v-15zM360 1335v15h-15v-15zM360 1350v15h-15v-15zM330 1320v15h-15v-15zM330 1335v15h-15v-15zM315 1350v15h-15v-15zM300 1350v15h-15v-15zM270 1350v15h-15v-15zM270 1365v15h-15v-15zM285 1365v15h-15v-15zM240 1380v15h-15v-15zM255 1380v15h-15v-15zM255 1410v15h-15v-15zM225 1365v15h-15v-15zM240 1365v15h-15v-15zM225 1425v15h-15v-15zM225 1410v15h-15v-15zM285 1380v15h-15v-15zM315 1305v15h-15v-15zM300 1305v15h-15v-15zM255 1305v15h-15v-15zM285 1320v15h-15v-15zM270 1320v15h-15v-15zM285 1335v15h-15v-15zM270 1335v15h-15v-15zM255 1335v15h-15v-15zM240 1335v15h-15v-15zM225 1335v15h-15v-15zM210 1335v15h-15v-15zM195 1335v15h-15v-15zM195 1350v15h-15v-15zM165 1320v15h-15v-15zM180 1335v15h-15v-15zM165 1350v15h-15v-15zM150 1335v15h-15v-15zM150 1350v15h-15v-15zM315 1320v15h-15v-15zM375 1365v15h-15v-15zM375 1380v15h-15v-15zM390 1395v15h-15v-15zM360 1395v15h-15v-15zM345 1365v15h-15v-15zM300 1275v15h-15v-15zM285 1275v15h-15v-15zM285 1290v15h-15v-15zM270 1275v15h-15v-15zM255 1260v15h-15v-15zM240 1275v15h-15v-15zM225 1260v15h-15v-15zM225 1275v15h-15v-15zM210 1275v15h-15v-15zM195 1290v15h-15v-15zM195 1305v15h-15v-15zM180 1305v15h-15v-15zM165 1305v15h-15v-15zM150 1290v15h-15v-15zM150 1305v15h-15v-15zM135 1290v15h-15v-15zM135 1305v15h-15v-15zM135 1320v15h-15v-15zM120 1320v15h-15v-15zM105 1320v15H90v-15zM105 1290v15H90v-15zM75 1290v15H60v-15zM30 1290v15H15v-15zM30 1305v15H15v-15zM15 1305v15H0v-15zM30 1320v15H15v-15zM30 1335v15H15v-15zM15 1335v15H0v-15zM45 1335v15H30v-15zM90 1335v15H75v-15zM60 1350v15H45v-15zM60 1365v15H45v-15zM75 1365v15H60v-15zM45 1365v15H30v-15zM30 1380v15H15v-15zM45 1395v15H30v-15zM45 1410v15H30v-15zM30 1410v15H15v-15zM45 1425v15H30v-15zM30 1425v15H15v-15zM15 1425v15H0v-15zM15 1380v15H0v-15zM15 1395v15H0v-15zM75 1305v15H60v-15zM210 1305v15h-15v-15zM195 1260v15h-15v-15zM225 1290v15h-15v-15zM345 1185v15h-15v-15zM345 1200v15h-15v-15zM345 1215v15h-15v-15zM345 1230v15h-15v-15zM345 1245v15h-15v-15zM345 1260v15h-15v-15zM105 1170v15H90v-15zM90 1170v15H75v-15zM75 1170v15H60v-15zM60 1170v15H45v-15zM45 1170v15H30v-15zM90 1260v15H75v-15zM75 1260v15H60v-15zM60 1260v15H45v-15zM45 1260v15H30v-15zM105 1185v15H90v-15zM105 1200v15H90v-15zM75 1200v15H60v-15zM75 1215v15H60v-15zM75 1230v15H60v-15zM60 1230v15H45v-15zM60 1215v15H45v-15zM60 1200v15H45v-15zM45 1230v15H30v-15zM45 1215v15H30v-15zM45 1200v15H30v-15zM105 1215v15H90v-15zM105 1230v15H90v-15zM105 1245v15H90v-15zM105 1260v15H90v-15zM30 1170v15H15v-15zM30 1260v15H15v-15zM15 1170v15H0v-15zM15 1185v15H0v-15zM15 1200v15H0v-15zM15 1215v15H0v-15zM15 1230v15H0v-15zM15 1245v15H0v-15zM15 1260v15H0v-15zM105 1500v15H90v-15zM90 1500v15H75v-15zM75 1500v15H60v-15zM60 1500v15H45v-15zM45 1500v15H30v-15zM90 1590v15H75v-15zM75 1590v15H60v-15zM60 1590v15H45v-15zM45 1590v15H30v-15zM105 1515v15H90v-15zM105 1530v15H90v-15zM75 1530v15H60v-15zM75 1545v15H60v-15zM75 1560v15H60v-15zM60 1560v15H45v-15zM60 1545v15H45v-15zM60 1530v15H45v-15zM45 1560v15H30v-15zM45 1545v15H30v-15zM45 1530v15H30v-15zM105 1545v15H90v-15zM105 1560v15H90v-15zM105 1575v15H90v-15zM105 1590v15H90v-15zM30 1500v15H15v-15zM30 1590v15H15v-15zM15 1500v15H0v-15zM15 1515v15H0v-15zM15 1530v15H0v-15zM15 1545v15H0v-15zM15 1560v15H0v-15zM15 1575v15H0v-15zM15 1590v15H0v-15z"/></g></svg>