<svg xmlns="http://www.w3.org/2000/svg" viewBox="0 0 680 665">

<g fill="none" fill-rule="evenodd">
<path fill="url(#a)" d="m60.896 224.609 269.531-119.791 269.531 119.791-269.531 119.792z" transform="translate(3.063 3)"/>
<path fill="#051414" fill-rule="nonzero" d="M460.743 371.51 439.58 414.9l-74.847-36.505 21.162-43.39zM225.507 256.779l-21.163 43.39-74.847-36.505 21.162-43.39zm68.801 48.903-9.07 18.596-10.692-5.215 3.023-6.199-10.692-5.215-9.07 18.596-10.692-5.215 3.023-6.199-10.693-5.215-3.023 6.199-10.693-5.215 3.024-6.199-10.693-5.215 3.023-6.199 32.078 15.646 3.023-6.199 10.693 5.215 3.023-6.198 10.693 5.215 3.023-6.199zm138.337-93.664-3.024 6.199 21.385 10.43 3.024-6.199 10.692 5.215-3.023 6.199 10.693 5.215-3.024 6.199 10.693 5.215-3.023 6.198-10.693-5.215-15.116 30.993-10.693-5.215-6.046 12.397 10.692 5.215-6.046 12.397-21.385-10.43-3.024 6.199 21.386 10.43 3.023-6.199 21.385 10.43-3.023 6.2-10.693-5.216-3.023 6.199-10.693-5.216-3.023 6.199-10.693-5.215-3.023 6.199-10.692-5.216-3.024 6.199-10.692-5.215-3.023 6.198-10.693-5.215-12.093 24.795-10.692-5.215-3.024 6.198 10.693 5.215-9.07 18.596-10.692-5.215 6.046-12.397-21.385-10.43-6.047 12.397-10.692-5.215 3.023-6.199-10.692-5.215-3.024 6.198-21.385-10.43 6.047-12.397 10.692 5.215 3.024-6.198 32.077 15.645 3.023-6.199-32.077-15.645 6.046-12.397-10.692-5.215 3.022-6.2 10.694 5.216-3.024 6.199 10.693 5.215 3.023-6.199 10.693 5.216 3.023-6.2 32.078 15.646 3.023-6.198-53.463-26.076-3.023 6.199-10.693-5.215-3.023 6.198-10.693-5.215-3.023 6.199-10.692-5.215 3.023-6.199 10.692 5.215 6.047-12.397 10.692 5.215 3.024-6.199 21.385 10.43 3.023-6.198 10.693 5.215 3.023-6.198-21.385-10.43-3.023 6.198-10.693-5.215 3.023-6.199 10.693 5.215 3.023-6.198 42.77 20.86 6.047-12.397-10.693-5.215-3.023 6.199-21.385-10.43 3.023-6.2 21.385 10.431 3.023-6.199 10.693 5.216 6.046-12.398 21.386 10.43 6.046-12.397-10.692-5.215-3.024 6.199-21.385-10.43-3.023 6.198-10.693-5.215 3.024-6.198-21.385-10.43-3.024 6.198-10.692-5.215-3.024 6.198-21.385-10.43-12.093 24.795 10.693 5.215-3.023 6.198-10.693-5.215-3.023 6.199-10.693-5.215 18.14-37.192-10.693-5.215-3.023 6.199-10.693-5.216 3.024-6.198 10.692 5.215 6.047-12.397 21.385 10.43 6.046-12.398 10.693 5.216-6.047 12.397-10.692-5.215-3.023 6.199 10.692 5.215 3.023-6.199 21.386 10.43 3.023-6.198-10.693-5.215 3.023-6.199 10.693 5.215 3.023-6.198 10.693 5.215 3.023-6.199 10.693 5.215-9.07 18.596 21.385 10.43 3.023-6.198 10.693 5.215 15.116-30.993zm14.382 160.477-53.462-26.075-15.117 30.993 53.463 26.075zM211.791 257.762l-53.462-26.076-15.117 30.993 53.463 26.076zm94.833 76.945-10.693-5.215-3.023 6.199 10.693 5.215zm-108.548-75.962-9.07 18.596-32.078-15.645 9.07-18.596zm235.236 114.733-9.07 18.595-32.078-15.645 9.07-18.596zm-90.187-59.333-10.692-5.215-6.047 12.397 10.693 5.215-3.024 6.198 10.693 5.215 3.023-6.198 10.693 5.215 6.046-12.397-10.692-5.215-3.024 6.198-10.692-5.215zm-91.587-29.324-3.023 6.199-21.385-10.43 3.023-6.2zm24.409 4.232-3.024 6.198-10.692-5.215 3.023-6.199zm2.8-60.02-9.07 18.596 10.693 5.216-3.023 6.198-10.692-5.215-3.024 6.199 10.693 5.215-9.07 18.595-10.692-5.215 6.046-12.397-21.385-10.43 6.046-12.397-32.077-15.645 3.023-6.2 42.77 20.861 3.023-6.198L251.316 231l3.023-6.199 10.693 5.215 3.023-6.198zm-31.855 38.176-3.023 6.198-10.693-5.215 3.024-6.198zm77.871 30.307-3.023 6.198-10.692-5.215 3.023-6.198zm131.334 56.383-3.023 6.198-10.693-5.215 3.024-6.199zM231.554 244.38l-3.024 6.199-32.077-15.645 3.023-6.199zm-19.985-40.44-3.023 6.2-10.693-5.216-3.023 6.199-10.693-5.215-6.046 12.397 10.692 5.215 6.047-12.397 10.692 5.215-6.046 12.397-10.693-5.215-3.023 6.198-10.692-5.215 3.023-6.198-10.693-5.215 3.024-6.199-10.693-5.215 3.023-6.199 21.385 10.43 6.047-12.397zm212.45 134.312-3.023 6.199-10.692-5.215 3.023-6.199zm16.74-7.182-6.047 12.397-10.692-5.215 6.046-12.397zm-139.004-67.796-6.046 12.397-21.385-10.43 3.023-6.199 10.693 5.215 3.023-6.198zm53.463 26.075-10.692-5.215-3.024 6.199 10.693 5.215zm120.641 51.168-6.046 12.397-10.693-5.215 6.047-12.397zm-93.21-53.135-10.692-5.215-9.07 18.596 32.078 15.645 3.023-6.198-21.385-10.43zm-163.41-72.028-3.024 6.199-10.693-5.215 3.024-6.199zm192.465 93.872-10.692-5.215-3.024 6.199 10.693 5.215zm-168.057-89.64-3.024 6.199-10.692-5.216 3.023-6.198zM468.19 329.104l-3.023 6.199-10.693-5.215 3.024-6.199zm-65.778-55.101-10.692-5.215-6.047 12.397 10.693 5.215-6.047 12.397 10.693 5.215 6.046-12.397 10.693 5.215 3.023-6.198-21.385-10.43zM202.277 168.717l-6.047 12.397 10.693 5.215 3.023-6.198 10.693 5.215-6.047 12.397-21.385-10.43-3.023 6.198-10.693-5.215 3.024-6.198-10.693-5.215 9.07-18.596zm279.629 159.404-3.023 6.198-10.693-5.215 3.023-6.198zM242.024 195.776 239 201.975l10.692 5.215 3.023-6.2 10.693 5.216-3.023 6.199 10.692 5.215-3.023 6.199-10.693-5.215-3.023 6.198-10.692-5.215 3.023-6.199-21.385-10.43-3.023 6.199-10.693-5.215 3.023-6.199 10.693 5.215 6.046-12.397zm99.256 40.738-6.046 12.397-10.693-5.215-3.023 6.198-10.693-5.215 6.047-12.397 10.692 5.215 3.023-6.199zm160.166 24.406-6.047 12.397 10.693 5.215-9.07 18.596-10.692-5.215-3.024 6.198L494 303.326l-9.07 18.596-10.692-5.215 6.046-12.397-10.692-5.215-3.024 6.198-21.385-10.43 6.047-12.397 10.692 5.215 12.093-24.794 10.693 5.215 6.046-12.397zm-138.78-13.976-3.024 6.198-10.693-5.215 3.024-6.198zM255.74 194.793l-3.024 6.198-10.692-5.215 3.023-6.198zm-21.385-10.43-3.024 6.198-10.692-5.215 3.023-6.199zM419.15 266.82l-10.692-5.215-3.024 6.198 10.693 5.215zm53.463 26.075-10.693-5.215-3.023 6.199 10.693 5.215zM292.24 174.23l-3.023 6.199 10.692 5.215 3.024-6.199 21.385 10.43-3.024 6.199-10.692-5.215-3.023 6.198-10.693-5.215-3.023 6.199-10.693-5.215-3.023 6.198-10.693-5.215-3.023 6.199-10.692-5.215 3.023-6.199-42.77-20.86-3.024 6.198-10.692-5.215 3.023-6.198 10.693 5.215 3.023-6.199-10.693-5.215 3.024-6.199-10.693-5.215-6.046 12.397-10.693-5.215 6.047-12.397 10.692 5.215 3.023-6.198 21.385 10.43-3.023 6.199 10.693 5.215-3.024 6.198 10.693 5.215 3.023-6.198 10.693 5.215 3.023-6.199 21.385 10.43 3.023-6.198zm140.626 91.607-10.693-5.215-3.023 6.199 10.693 5.215zm-168.058-89.64-10.692-5.215-3.023 6.198 10.692 5.216zm24.409 4.232-10.693-5.216-6.046 12.398 10.692 5.215zm74.848 36.505-10.693-5.215-3.023 6.199 10.692 5.215zm128.31 62.582-10.692-5.216-3.024 6.199 10.693 5.215zm-33.7-39.457-32.078-15.645-9.07 18.596 32.078 15.645zm-109.949-45.952-3.023 6.199-10.693-5.216 3.023-6.198zm96.233 46.936-3.023 6.198-10.693-5.215 3.023-6.198zM292.019 120.41l-21.163 43.39-74.848-36.506 21.163-43.39zm-13.716.983L224.84 95.318l-15.116 30.993 53.463 26.075zm99.256 40.738-3.023 6.198-32.078-15.645-3.023 6.198-10.693-5.215-3.023 6.199 21.385 10.43-3.023 6.199-10.693-5.215-3.023 6.198 10.693 5.215-3.024 6.199-21.385-10.43 3.024-6.199-21.386-10.43-3.023 6.198-10.692-5.215 6.046-12.397 10.693 5.215 3.023-6.198-10.693-5.215 3.024-6.199 10.692 5.215 6.047-12.397zm-4.424 36.208-3.023 6.198-10.692-5.215 3.023-6.2zm24.409 4.231-6.047 12.397-10.692-5.215 6.046-12.397zm-132.957-80.193-9.07 18.595-32.077-15.645 9.07-18.596zm100.879 64.548-3.023 6.198-21.385-10.43 3.023-6.198zm149.696 73.011-3.024 6.199-10.692-5.215 3.023-6.199zm-100.88-64.548-6.046 12.397-10.692-5.215 6.046-12.397zm-35.1-9.447-3.023 6.199-10.693-5.215 3.023-6.199zm128.31 62.582-3.023 6.198-10.692-5.215 3.023-6.198zm9.07-18.596-3.023 6.199 10.692 5.215-3.023 6.198-21.385-10.43-3.023 6.199-10.693-5.216 3.024-6.198-10.693-5.215 3.023-6.199 10.693 5.215 3.023-6.198zM360.82 169.313l-3.023 6.198-10.693-5.215 3.023-6.198zm85.54 41.72-3.023 6.199-10.692-5.215 3.023-6.199zM331.766 147.47l-10.693-5.215-3.023 6.198 10.692 5.215zm88.563 35.522-3.023 6.199-21.385-10.43-3.023 6.198-21.385-10.43 3.023-6.199 10.692 5.215 3.024-6.198zm64.156 31.29-3.024 6.2-10.692-5.216-3.024 6.199-21.385-10.43 3.024-6.2-10.693-5.214-3.023 6.198-21.385-10.43 3.023-6.198 21.385 10.43 3.023-6.199z"/>
<path stroke="#080708" stroke-linecap="round" stroke-linejoin="round" stroke-width="5" d="m64.959 227.609 268.53 119.792 269.532-119.792"/>
<path fill="#676767" d="m64.959 227.609 267.53 119.792-66.53 104.818L3.063 332.078zM332.49 107.818 407.36 3l254.557 119.792-59.897 104.817z"/>
<path fill="#191919" d="M3.063 122.792 272.593 3l59.897 104.818L63.959 227.609z"/>
<path fill="#5a5a5a" d="m334.49 347.401 267.53-119.792 74.87 89.844-269.53 134.766z"/>
<g stroke="#080708" stroke-linecap="round" stroke-linejoin="round" stroke-width="5">
<path d="m332.49 347.401 269.53-119.792 74.87 89.844-269.53 134.766zM62.959 227.609l269.53 119.792-66.53 104.818L3.063 332.427zM332.49 107.818l269.53 119.791 59.897-104.817L407.36 3zM332.49 107.818 272.594 3 3.063 122.792l59.896 104.817z"/>
</g>
</g>
</svg>