<svg xmlns="http://www.w3.org/2000/svg" viewBox="0 0 1440 1600"><g fill="#2db7b8" stroke="#000" stroke-width="2"><path d="M30 1560h15v15H30zM30 1530h15v15H30zM75 1440h15v15H75zM60 1455h15v15H60zM195 1455h15v-15h-15zM210 1485h15v-15h-15zM165 1455h15v-15h-15zM165 1575h15v-15h-15zM195 1590h15v-15h-15zM270 1305h15v-15h-15zM195 1305h15v-15h-15zM180 1305h15v-15h-15zM165 1290h15v-15h-15zM270 1335h15v-15h-15zM150 1335h15v-15h-15zM270 1365h15v-15h-15zM285 1395h15v-15h-15zM165 1350h15v-15h-15zM225 1395h15v-15h-15zM210 1395h15v-15h-15zM240 1440h15v-15h-15zM240 1185h15v-15h-15zM285 1200h15v-15h-15zM165 1185h15v-15h-15zM195 1200h15v-15h-15zM195 1185h15v-15h-15zM285 1230h15v-15h-15zM285 1245h15v-15h-15zM180 1215h15v-15h-15zM240 1245h15v-15h-15zM195 1230h15v-15h-15zM225 1260h15v-15h-15zM255 1275h15v-15h-15zM180 1260h15v-15h-15zM180 1275h15v-15h-15zM255 1290h15v-15h-15zM210 1275h15v-15h-15zM285 1020h15v-15h-15zM285 1035h15v-15h-15zM285 1050h15v-15h-15zM270 1050h15v-15h-15zM255 1065h15v-15h-15zM240 1065h15v-15h-15zM225 1050h15v-15h-15zM240 1080h15v-15h-15zM270 1110h15v-15h-15zM285 1080h15v-15h-15zM285 1065h15v-15h-15zM285 1095h15v-15h-15zM270 1095h15v-15h-15zM240 1110h15v-15h-15zM225 1125h15v-15h-15zM180 1140h15v-15h-15zM180 1155h15v-15h-15zM165 1125h15v-15h-15zM150 1110h15v-15h-15zM210 1140h15v-15h-15zM120 1005h15v-15h-15zM45 1020h15v-15H45zM30 1020h15v-15H30zM120 1035h15v-15h-15zM105 1035h15v-15h-15zM30 1050h15v-15H30zM75 1095h15v-15H75zM60 1110h15v-15H60zM90 1155h15v-15H90zM15 1125h15v-15H15zM135 1140h15v-15h-15zM90 1140h15v-15H90zM45 1140h15v-15H45zM195 570h15v-15h-15zM180 570h15v-15h-15zM150 585h15v-15h-15zM180 600h15v-15h-15zM225 645h15v-15h-15zM180 645h15v-15h-15zM210 660h15v-15h-15zM255 675h15v-15h-15zM270 660h15v-15h-15zM165 675h15v-15h-15zM720 120h15v-15h-15zM675 135h15v-15h-15zM645 135h15v-15h-15zM630 135h15v-15h-15zM720 150h15v-15h-15zM705 150h15v-15h-15zM600 150h15v-15h-15zM630 165h15v-15h-15zM720 180h15v-15h-15zM615 195h15v-15h-15zM630 210h15v-15h-15zM660 225h15v-15h-15zM690 240h15v-15h-15zM615 240h15v-15h-15zM645 255h15v-15h-15zM630 15h15V0h-15zM720 30h15V15h-15zM675 30h15V15h-15zM690 15h15V0h-15zM615 30h15V15h-15zM675 60h15V45h-15zM660 75h15V60h-15zM615 90h15V75h-15zM735 105h15V90h-15zM855 120h15v-15h-15zM855 150h15v-15h-15zM870 135h15v-15h-15zM840 135h15v-15h-15zM840 120h15v-15h-15zM840 105h15V90h-15zM855 90h15V75h-15zM870 90h15V75h-15zM885 90h15V75h-15zM885 105h15V90h-15zM900 120h15v-15h-15zM915 105h15V90h-15zM930 75h15V60h-15zM945 90h15V75h-15zM930 120h15v-15h-15zM930 135h15v-15h-15zM945 135h15v-15h-15zM990 150h15v-15h-15zM945 150h15v-15h-15zM945 165h15v-15h-15zM915 165h15v-15h-15zM915 180h15v-15h-15zM930 180h15v-15h-15zM960 180h15v-15h-15zM900 135h15v-15h-15zM900 150h15v-15h-15zM930 195h15v-15h-15zM915 210h15v-15h-15zM885 165h15v-15h-15zM870 180h15v-15h-15zM855 180h15v-15h-15zM840 180h15v-15h-15zM825 165h15v-15h-15zM810 150h15v-15h-15zM810 135h15v-15h-15zM810 120h15v-15h-15zM780 120h15v-15h-15zM765 135h15v-15h-15zM750 150h15v-15h-15zM765 165h15v-15h-15zM780 180h15v-15h-15zM765 210h15v-15h-15zM780 225h15v-15h-15zM795 195h15v-15h-15zM810 210h15v-15h-15zM825 225h15v-15h-15zM840 240h15v-15h-15zM780 150h15v-15h-15zM795 165h15v-15h-15zM810 180h15v-15h-15zM825 195h15v-15h-15zM840 210h15v-15h-15zM855 210h15v-15h-15zM870 210h15v-15h-15zM885 225h15v-15h-15zM885 195h15v-15h-15zM795 135h15v-15h-15zM795 105h15V90h-15zM780 90h15V75h-15zM795 75h15V60h-15zM810 105h15V90h-15zM825 90h15V75h-15zM840 75h15V60h-15zM855 60h15V45h-15zM885 45h15V30h-15zM900 60h15V45h-15zM870 120h15v-15h-15zM870 150h15v-15h-15zM1020 735h15v-15h-15zM1020 765h15v-15h-15zM1035 750h15v-15h-15zM1005 750h15v-15h-15zM1005 735h15v-15h-15zM1005 720h15v-15h-15zM1020 690h15v-15h-15zM1035 705h15v-15h-15zM1050 705h15v-15h-15zM1050 720h15v-15h-15zM1065 735h15v-15h-15zM1080 720h15v-15h-15zM1095 690h15v-15h-15zM1110 705h15v-15h-15zM1095 735h15v-15h-15zM1095 750h15v-15h-15zM1110 750h15v-15h-15zM1110 765h15v-15h-15zM1110 780h15v-15h-15zM1080 780h15v-15h-15zM1080 795h15v-15h-15zM1095 795h15v-15h-15zM1125 795h15v-15h-15zM1065 750h15v-15h-15zM1065 765h15v-15h-15zM1095 810h15v-15h-15zM1080 825h15v-15h-15zM1050 780h15v-15h-15zM1035 795h15v-15h-15zM1020 795h15v-15h-15zM1005 795h15v-15h-15zM990 780h15v-15h-15zM975 765h15v-15h-15zM975 750h15v-15h-15zM975 735h15v-15h-15zM945 735h15v-15h-15zM930 750h15v-15h-15zM915 765h15v-15h-15zM930 780h15v-15h-15zM915 795h15v-15h-15zM915 810h15v-15h-15zM900 810h15v-15h-15zM945 795h15v-15h-15zM930 825h15v-15h-15zM945 840h15v-15h-15zM960 855h15v-15h-15zM960 810h15v-15h-15zM975 825h15v-15h-15zM990 840h15v-15h-15zM1005 855h15v-15h-15zM1020 870h15v-15h-15zM1035 855h15v-15h-15zM1050 870h15v-15h-15zM1065 870h15v-15h-15zM1080 870h15v-15h-15zM1095 855h15v-15h-15zM1140 855h15v-15h-15zM1155 840h15v-15h-15zM1170 825h15v-15h-15zM1110 840h15v-15h-15zM1125 825h15v-15h-15zM1140 810h15v-15h-15zM1155 795h15v-15h-15zM1155 780h15v-15h-15zM1155 765h15v-15h-15zM1140 750h15v-15h-15zM1140 735h15v-15h-15zM1125 720h15v-15h-15zM1125 690h15v-15h-15zM1155 705h15v-15h-15zM1170 720h15v-15h-15zM1110 675h15v-15h-15zM1095 660h15v-15h-15zM1110 660h15v-15h-15zM1080 645h15v-15h-15zM1065 645h15v-15h-15zM1065 630h15v-15h-15zM1050 630h15v-15h-15zM1035 615h15v-15h-15zM1035 645h15v-15h-15zM1020 645h15v-15h-15zM1005 630h15v-15h-15zM1005 615h15v-15h-15zM990 630h15v-15h-15zM975 630h15v-15h-15zM960 630h15v-15h-15zM945 645h15v-15h-15zM930 660h15v-15h-15zM915 675h15v-15h-15zM915 660h15v-15h-15zM900 660h15v-15h-15zM885 630h15v-15h-15zM900 615h15v-15h-15zM900 705h15v-15h-15zM885 720h15v-15h-15zM915 690h15v-15h-15zM885 690h15v-15h-15zM870 705h15v-15h-15zM855 720h15v-15h-15zM945 660h15v-15h-15zM960 660h15v-15h-15zM960 645h15v-15h-15zM1005 645h15v-15h-15zM945 765h15v-15h-15zM960 780h15v-15h-15zM975 795h15v-15h-15zM990 810h15v-15h-15zM1005 825h15v-15h-15zM1020 825h15v-15h-15zM1035 825h15v-15h-15zM1050 840h15v-15h-15zM1050 810h15v-15h-15zM960 750h15v-15h-15zM960 720h15v-15h-15zM945 705h15v-15h-15zM960 690h15v-15h-15zM975 675h15v-15h-15zM975 720h15v-15h-15zM990 705h15v-15h-15zM1005 690h15v-15h-15zM1020 675h15v-15h-15zM1050 660h15v-15h-15zM1065 675h15v-15h-15zM1035 735h15v-15h-15zM1035 765h15v-15h-15zM1050 330h15v-15h-15zM1050 360h15v-15h-15zM1065 345h15v-15h-15zM1035 345h15v-15h-15zM1035 330h15v-15h-15zM1035 315h15v-15h-15zM1050 300h15v-15h-15zM1065 300h15v-15h-15zM1080 300h15v-15h-15zM1080 315h15v-15h-15zM1095 330h15v-15h-15zM1110 315h15v-15h-15zM1125 285h15v-15h-15zM1140 300h15v-15h-15zM1125 330h15v-15h-15zM1125 345h15v-15h-15zM1140 345h15v-15h-15zM1185 360h15v-15h-15zM1140 360h15v-15h-15zM1140 375h15v-15h-15zM1110 375h15v-15h-15zM1110 390h15v-15h-15zM1125 390h15v-15h-15zM1155 390h15v-15h-15zM1140 450h15v-15h-15zM1125 465h15v-15h-15zM1110 495h15v-15h-15zM1125 480h15v-15h-15zM1095 345h15v-15h-15zM1095 360h15v-15h-15zM1125 405h15v-15h-15zM1110 420h15v-15h-15zM1080 375h15v-15h-15zM1065 390h15v-15h-15zM1050 390h15v-15h-15zM1035 390h15v-15h-15zM1020 375h15v-15h-15zM1005 360h15v-15h-15zM1005 345h15v-15h-15zM1005 330h15v-15h-15zM975 330h15v-15h-15zM960 345h15v-15h-15zM945 360h15v-15h-15zM960 375h15v-15h-15zM975 390h15v-15h-15zM975 435h15v-15h-15zM990 405h15v-15h-15zM1005 420h15v-15h-15zM1020 435h15v-15h-15zM1035 450h15v-15h-15zM975 360h15v-15h-15zM990 375h15v-15h-15zM1005 390h15v-15h-15zM1020 405h15v-15h-15zM1035 420h15v-15h-15zM1050 420h15v-15h-15zM1065 420h15v-15h-15zM1080 435h15v-15h-15zM1080 405h15v-15h-15zM990 345h15v-15h-15zM990 315h15v-15h-15zM975 300h15v-15h-15zM990 285h15v-15h-15zM1005 315h15v-15h-15zM1020 300h15v-15h-15zM1035 285h15v-15h-15zM1050 270h15v-15h-15zM1080 255h15v-15h-15zM1095 270h15v-15h-15zM1065 330h15v-15h-15zM1065 360h15v-15h-15zM690 105h15V90h-15zM645 105h15V90h-15zM120 855h15v-15h-15zM45 870h15v-15H45zM45 885h15v-15H45zM120 885h15v-15h-15zM105 885h15v-15h-15zM120 915h15v-15h-15zM120 945h15v-15h-15zM105 960h15v-15h-15zM120 975h15v-15h-15zM75 960h15v-15H75zM135 1005h15v-15h-15zM90 1005h15v-15H90zM45 1005h15v-15H45zM120 555h15v-15h-15zM135 555h15v-15h-15zM120 570h15v-15h-15zM150 540h15v-15h-15zM150 525h15v-15h-15zM165 525h15v-15h-15zM75 570h15v-15H75zM75 555h15v-15H75zM105 555h15v-15h-15zM90 555h15v-15H90zM90 585h15v-15H90zM105 570h15v-15h-15zM60 555h15v-15H60zM60 570h15v-15H60zM60 585h15v-15H60zM75 585h15v-15H75zM60 600h15v-15H60zM120 585h15v-15h-15zM105 585h15v-15h-15zM120 630h15v-15h-15zM75 645h15v-15H75zM60 660h15v-15H60zM105 675h15v-15h-15zM120 660h15v-15h-15zM90 690h15v-15H90zM45 1185h15v-15H45zM30 1170h15v-15H30zM120 1200h15v-15h-15zM120 1215h15v-15h-15zM75 1260h15v-15H75zM60 1245h15v-15H60zM15 1260h15v-15H15zM0 1245h15v-15H0zM120 1305h15v-15h-15zM75 1305h15v-15H75zM30 1305h15v-15H30zM0 1320h15v-15H0zM15 1335h15v-15H15zM30 1395h15v-15H30zM30 1410h15v-15H30zM150 1440h15v-15h-15zM45 1425h15v-15H45zM420 1575h15v15h-15zM360 1530h15v15h-15zM330 1500h15v15h-15zM390 1455h15v15h-15zM300 1455h15v15h-15zM300 1470h15v15h-15zM315 1440h15v15h-15zM390 1440h15v15h-15zM555 1395h15v15h-15zM570 1365h15v15h-15zM480 1350h15v15h-15zM540 1320h15v15h-15zM450 1320h15v15h-15zM540 1305h15v15h-15zM495 1305h15v15h-15zM570 1500h15v-15h-15zM555 1500h15v-15h-15zM480 1515h15v-15h-15zM570 1530h15v-15h-15zM570 1545h15v-15h-15zM480 1545h15v-15h-15zM585 1590h15v-15h-15zM600 1590h15v-15h-15zM495 1590h15v-15h-15zM360 1470h15v-15h-15zM360 1455h15v-15h-15zM360 1440h15v-15h-15zM345 1185h15v-15h-15z"/><path d="M298 1200h15v-15h-15zM420 1245h15v-15h-15zM375 1260h15v-15h-15zM360 1275h15v-15h-15zM390 1290h15v-15h-15zM390 1305h15v-15h-15zM345 1305h15v-15h-15zM555 1200h15v-15h-15zM540 1200h15v-15h-15zM555 1230h15v-15h-15zM450 1245h15v-15h-15zM510 1260h15v-15h-15zM495 1275h15v-15h-15zM525 1290h15v-15h-15zM570 1305h15v-15h-15zM525 1305h15v-15h-15zM480 1305h15v-15h-15zM1020 1470h15v-15h-15zM1020 1500h15v-15h-15zM1005 1500h15v-15h-15zM930 1515h15v-15h-15zM990 1530h15v-15h-15zM915 1530h15v-15h-15zM975 1545h15v-15h-15zM930 1545h15v-15h-15zM960 1560h15v-15h-15zM945 1575h15v-15h-15zM990 1575h15v-15h-15zM1035 1590h15v-15h-15zM1050 1575h15v-15h-15zM990 1590h15v-15h-15zM1020 1320h15v-15h-15zM975 1335h15v-15h-15zM990 1350h15v-15h-15zM945 1335h15v-15h-15zM930 1335h15v-15h-15zM1020 1350h15v-15h-15zM1005 1350h15v-15h-15zM900 1350h15v-15h-15zM1020 1380h15v-15h-15zM1020 1395h15v-15h-15zM1020 1410h15v-15h-15zM915 1335h15v-15h-15zM1035 1380h15v-15h-15zM990 1395h15v-15h-15zM915 1365h15v-15h-15zM1035 1410h15v-15h-15zM990 1425h15v-15h-15zM930 1350h15v-15h-15zM1050 1395h15v-15h-15zM1005 1410h15v-15h-15zM990 1440h15v-15h-15zM990 1455h15v-15h-15zM1020 1170h15v-15h-15zM975 1185h15v-15h-15zM945 1185h15v-15h-15zM930 1185h15v-15h-15zM1020 1200h15v-15h-15zM1005 1200h15v-15h-15zM930 1215h15v-15h-15zM1020 1230h15v-15h-15zM1020 1245h15v-15h-15zM975 1260h15v-15h-15zM930 1260h15v-15h-15zM960 1275h15v-15h-15zM990 1290h15v-15h-15zM900 1305h15v-15h-15zM1035 1305h15v-15h-15zM990 1305h15v-15h-15zM945 1305h15v-15h-15zM720 1170h15v-15h-15zM675 1185h15v-15h-15zM645 1185h15v-15h-15zM630 1185h15v-15h-15zM720 1200h15v-15h-15zM705 1200h15v-15h-15zM600 1200h15v-15h-15zM735 1245h15v-15h-15zM615 1245h15v-15h-15zM600 1230h15v-15h-15zM585 1245h15v-15h-15zM570 1230h15v-15h-15zM600 1260h15v-15h-15zM675 1260h15v-15h-15zM720 1260h15v-15h-15zM705 1275h15v-15h-15zM660 1245h15v-15h-15zM630 1260h15v-15h-15zM615 1290h15v-15h-15zM690 1305h15v-15h-15zM645 1305h15v-15h-15zM1125 1335h15v-15h-15zM1095 1335h15v-15h-15zM1080 1335h15v-15h-15zM1170 1350h15v-15h-15zM1155 1350h15v-15h-15zM1050 1350h15v-15h-15zM1080 1365h15v-15h-15zM1170 1380h15v-15h-15zM1170 1395h15v-15h-15zM1065 1395h15v-15h-15zM1125 1405h15v-15h-15zM1080 1410h15v-15h-15zM1140 1455h15v-15h-15zM1155 1425h15v-15h-15zM1155 1440h15v-15h-15zM1170 1545h15v-15h-15zM1170 1560h15v-15h-15zM1065 1545h15v-15h-15zM1125 1560h15v-15h-15zM1080 1560h15v-15h-15zM1110 1575h15v-15h-15zM1095 1590h15v-15h-15zM1140 1590h15v-15h-15zM1155 1575h15v-15h-15zM1065 1590h15v-15h-15zM1200 1590h15v-15h-15zM1200 1575h15v-15h-15zM1185 1560h15v-15h-15zM1140 1605h15v-15h-15zM1095 1605h15v-15h-15zM1320 1470h15v-15h-15zM1320 1485h15v-15h-15zM1275 1485h15v-15h-15zM1320 1500h15v-15h-15zM1305 1500h15v-15h-15zM1290 1485h15v-15h-15zM1305 1485h15v-15h-15zM1305 1470h15v-15h-15zM1320 1530h15v-15h-15zM1215 1545h15v-15h-15zM1215 1575h15v-15h-15zM1335 1605h15v-15h-15zM1020 1020h15v-15h-15zM975 1035h15v-15h-15zM930 1065h15v-15h-15zM945 1050h15v-15h-15zM975 1110h15v-15h-15zM930 1110h15v-15h-15zM960 1125h15v-15h-15zM990 1140h15v-15h-15zM915 1140h15v-15h-15zM990 1155h15v-15h-15zM945 1155h15v-15h-15zM795 735h15v-15h-15zM810 720h15v-15h-15zM825 705h15v-15h-15zM780 735h15v-15h-15zM750 750h15v-15h-15zM765 750h15v-15h-15zM780 765h15v-15h-15zM765 780h15v-15h-15zM795 750h15v-15h-15zM810 750h15v-15h-15zM765 795h15v-15h-15zM825 810h15v-15h-15zM780 810h15v-15h-15zM810 810h15v-15h-15zM795 825h15v-15h-15zM840 795h15v-15h-15zM840 780h15v-15h-15zM825 795h15v-15h-15zM765 840h15v-15h-15zM750 855h15v-15h-15zM555 165h15v-15h-15zM555 195h15v-15h-15zM540 195h15v-15h-15zM450 240h15v-15h-15zM510 255h15v-15h-15zM465 255h15v-15h-15zM495 275h15v-15h-15zM525 285h15v-15h-15zM450 285h15v-15h-15zM570 300h15v-15h-15zM555 315h15v-15h-15zM585 300h15v-15h-15zM600 300h15v-15h-15zM525 300h15v-15h-15zM480 300h15v-15h-15zM870 1020h15v-15h-15zM825 1035h15v-15h-15zM810 1050h15v-15h-15zM795 1050h15v-15h-15zM795 1035h15v-15h-15zM780 1035h15v-15h-15zM870 1050h15v-15h-15zM900 1035h15v-15h-15zM915 1020h15v-15h-15zM930 1020h15v-15h-15zM945 1005h15v-15h-15zM855 1050h15v-15h-15zM750 1050h15v-15h-15zM750 1080h15v-15h-15zM735 1065h15v-15h-15zM780 1065h15v-15h-15zM885 1080h15v-15h-15zM870 1095h15v-15h-15zM765 1095h15v-15h-15zM825 1110h15v-15h-15zM810 1125h15v-15h-15zM840 1140h15v-15h-15zM765 1140h15v-15h-15zM750 1140h15v-15h-15zM840 1155h15v-15h-15zM1170 1020h15v-15h-15zM1080 1035h15v-15h-15zM1170 1080h15v-15h-15zM1170 1095h15v-15h-15zM1125 1110h15v-15h-15zM1140 1140h15v-15h-15zM1065 1140h15v-15h-15zM1185 1155h15v-15h-15zM1095 1155h15v-15h-15zM1320 570h15v-15h-15zM1275 585h15v-15h-15zM1245 585h15v-15h-15zM1230 585h15v-15h-15zM1320 600h15v-15h-15zM1305 600h15v-15h-15zM1200 600h15v-15h-15zM1230 615h15v-15h-15zM1215 645h15v-15h-15zM1275 660h15v-15h-15zM1275 645h15v-15h-15zM1260 630h15v-15h-15zM1260 675h15v-15h-15zM1290 690h15v-15h-15zM1215 690h15v-15h-15zM1290 705h15v-15h-15zM1320 420h15v-15h-15zM1305 405h15v-15h-15zM1275 435h15v-15h-15zM1245 435h15v-15h-15zM1320 450h15v-15h-15zM1305 450h15v-15h-15zM1200 450h15v-15h-15zM1320 495h15v-15h-15zM1305 480h15v-15h-15zM1290 465h15v-15h-15zM1275 510h15v-15h-15zM1230 510h15v-15h-15zM1260 525h15v-15h-15zM1290 540h15v-15h-15zM1335 555h15v-15h-15zM1170 120h15v-15h-15zM1170 150h15v-15h-15zM1155 150h15v-15h-15zM1170 180h15v-15h-15zM1170 195h15v-15h-15zM1185 255h15v-15h-15zM1185 30h15V15h-15zM1170 45h15V30h-15zM1155 60h15V45h-15zM1065 45h15V30h-15zM1125 60h15V45h-15zM1080 60h15V45h-15zM1110 75h15V60h-15zM1140 90h15V75h-15zM1065 90h15V75h-15zM1185 105h15V90h-15zM1095 105h15V90h-15zM1230 15h15V0h-15zM1320 30h15V15h-15zM1215 45h15V30h-15zM1275 60h15V45h-15zM1230 60h15V45h-15zM1245 45h15V30h-15zM1290 90h15V75h-15zM1215 90h15V75h-15zM1290 105h15V90h-15zM1366 1065h15v-15h-15zM1381 1050h15v-15h-15zM1349 1095h15v-15h-15zM1409 1110h15v-15h-15zM1394 1125h15v-15h-15zM1424 1140h15v-15h-15zM1424 1155h15v-15h-15zM1380 1155h15v-15h-15zM1425 1485h15v-15h-15zM1380 1485h15v-15h-15zM1365 1470h15v-15h-15zM1350 1500h15v-15h-15zM1365 1545h15v-15h-15zM1425 1335h15v-15h-15zM1365 1335h15v-15h-15zM1380 1320h15v-15h-15zM1380 1365h15v-15h-15zM1395 1350h15v-15h-15zM1425 1365h15v-15h-15zM1410 1380h15v-15h-15zM720 1575h15v15h-15zM690 1575h15v15h-15zM675 1575h15v15h-15zM645 1575h15v15h-15zM645 1560h15v15h-15zM630 1575h15v15h-15zM735 1530h15v15h-15zM645 1545h15v15h-15zM600 1545h15v15h-15zM705 1530h15v15h-15zM675 1530h15v15h-15zM660 1530h15v15h-15zM630 1530h15v15h-15zM615 1530h15v15h-15zM615 1515h15v15h-15zM675 1500h15v15h-15zM690 1485h15v15h-15zM660 1485h15v15h-15zM735 1470h15v15h-15zM705 1470h15v15h-15zM690 1470h15v15h-15zM660 1470h15v15h-15zM645 1470h15v15h-15zM600 1470h15v15h-15zM735 1455h15v15h-15zM720 1455h15v15h-15zM690 1455h15v15h-15zM615 1455h15v15h-15zM780 1575h-15v15h15zM825 1560h-15v15h15zM870 1560h-15v15h15zM885 1545h-15v15h15zM780 1545h-15v15h15zM795 1545h-15v15h15zM900 1545h-15v15h15zM795 1530h-15v15h15zM825 1535h-15v15h15zM825 1520h-15v15h15z"/><path d="M825 1515h-15v15h15zM855 1515h-15v15h15zM885 1515h-15v15h15zM780 1500h-15v15h15zM765 1500h-15v15h15zM765 1485h-15v15h15zM825 1500h-15v15h15zM855 1500h-15v15h15zM870 1500h-15v15h15zM765 1470h-15v15h15zM765 1455h-15v15h15zM810 1455h-15v15h15zM1305 1440h-15v15h15zM1275 1425h-15v15h15zM1215 1410h-15v15h15zM1230 1410h-15v15h15zM1245 1410h-15v15h15zM1275 1410h-15v15h15zM1215 1365h-15v15h15zM1230 1365h-15v15h15zM1230 1350h-15v15h15zM1215 1320h-15v15h15zM1305 1320h-15v15h15zM1260 1305h-15v15h15zM1335 1305h-15v15h15zM1335 1290h15v15h-15zM1245 1290h15v15h-15zM1275 1275h15v15h-15zM1245 1275h15v15h-15zM1230 1275h15v15h-15zM1215 1260h15v15h-15zM1290 1245h15v15h-15zM1290 1230h15v15h-15zM1275 1260h15v15h-15zM1245 1260h15v15h-15zM1200 1260h15v15h-15zM1275 1245h15v15h-15zM1260 1245h15v15h-15zM1230 1245h15v15h-15zM1320 1230h15v15h-15zM1275 1230h15v15h-15zM1245 1230h15v15h-15zM1320 1215h15v15h-15zM1215 1215h15v15h-15zM1320 1200h15v15h-15zM1290 1185h15v15h-15zM1260 1185h15v15h-15zM1215 1185h15v15h-15zM1335 1170h15v15h-15zM1305 1170h15v15h-15zM1290 1170h15v15h-15zM1260 1170h15v15h-15zM1275 1170h15v15h-15zM1245 1170h15v15h-15zM1215 1170h15v15h-15zM1200 1170h15v15h-15zM1335 1155h15v15h-15zM1320 1155h15v15h-15zM1290 1155h15v15h-15zM1215 1155h15v15h-15zM1425 1275h15v15h-15zM1395 1275h15v15h-15zM1365 1260h15v15h-15zM1425 1260h15v15h-15zM1410 1260h15v15h-15zM1425 1245h15v15h-15zM1410 1245h15v15h-15zM1380 1245h15v15h-15zM1425 1230h15v15h-15zM1395 1230h15v15h-15zM1425 1215h15v15h-15zM1410 1215h15v15h-15zM1395 1215h15v15h-15zM1365 1215h15v15h-15zM1350 1215h15v15h-15zM1410 1185h15v15h-15zM1410 1170h15v15h-15zM1395 1170h15v15h-15zM1350 1170h15v15h-15zM1395 1155h15v15h-15zM1380 975h15v15h-15zM1350 960h15v15h-15zM1380 945h15v15h-15zM1365 945h15v15h-15zM1395 930h15v15h-15zM1410 915h15v15h-15zM1395 915h15v15h-15zM1365 915h15v15h-15zM1350 915h15v15h-15zM1425 900h15v15h-15zM1425 885h15v15h-15zM1395 900h15v15h-15zM1380 900h15v15h-15zM1410 885h15v15h-15zM1365 885h15v15h-15zM1410 870h15v15h-15zM1395 870h15v15h-15zM1365 870h15v15h-15zM1350 870h15v15h-15zM1395 855h15v15h-15zM1365 855h15v15h-15zM1395 690h15v15h-15zM1380 690h15v15h-15zM1365 690h15v15h-15zM1425 675h15v15h-15zM1425 690h15v15h-15zM1410 675h15v15h-15zM1395 675h15v15h-15zM1380 675h15v15h-15zM1425 660h15v15h-15zM1395 660h15v15h-15zM1350 660h15v15h-15zM1410 690h15v15h-15zM1365 645h15v15h-15zM1395 630h15v15h-15zM1365 615h15v15h-15zM1350 615h15v15h-15zM1365 585h15v15h-15zM1365 570h15v15h-15zM1350 570h15v15h-15zM1365 555h15v15h-15zM1395 540h15v15h-15zM1380 525h15v15h-15zM1365 510h15v15h-15zM1425 510h15v15h-15zM1395 510h15v15h-15zM1350 510h15v15h-15zM1425 480h15v15h-15zM1395 480h15v15h-15zM1380 480h15v15h-15zM1425 465h15v15h-15zM1410 465h15v15h-15zM1395 465h15v15h-15zM1365 465h15v15h-15zM1350 465h15v15h-15zM1335 450h15v15h-15zM1425 450h15v15h-15zM1395 450h15v15h-15zM1380 450h15v15h-15zM1410 435h15v15h-15zM1395 435h15v15h-15zM1365 435h15v15h-15zM1410 405h15v15h-15zM1425 420h15v15h-15zM1425 405h15v15h-15zM1395 420h15v15h-15zM1365 420h15v15h-15zM1350 420h15v15h-15zM1395 405h15v15h-15zM1365 405h15v15h-15zM1185 675h15v15h-15zM990 585h15v15h-15zM1005 570h15v15h-15zM915 585h15v15h-15zM900 555h15v15h-15zM1035 555h15v15h-15zM945 555h15v15h-15zM570 135h15v15h-15zM495 120h15v15h-15zM480 165h15v15h-15zM465 180h15v15h-15zM480 120h15v15h-15zM465 105h15v15h-15zM585 105h15v15h-15zM585 90h15v15h-15zM570 105h15v15h-15zM555 105h15v15h-15zM495 105h15v15h-15zM450 105h15v15h-15zM420 105h15v15h-15zM420 120h15v15h-15zM435 120h15v15h-15zM450 120h15v15h-15zM465 135h15v15h-15zM555 90h15v15h-15zM525 90h15v15h-15zM510 90h15v15h-15zM480 90h15v15h-15zM465 90h15v15h-15zM495 75h15v15h-15zM585 60h15v15h-15zM570 60h15v15h-15zM540 60h15v15h-15zM510 60h15v15h-15zM495 60h15v15h-15zM465 60h15v15h-15zM450 60h15v15h-15zM435 60h15v15h-15zM435 45h15v15h-15zM435 90h15v15h-15zM450 180h15v15h-15zM435 195h15v15h-15zM450 195h15v15h-15zM435 165h15v15h-15zM450 75h15v15h-15zM480 75h15v15h-15zM570 45h15v15h-15zM585 45h15v15h-15zM525 45h15v15h-15zM540 30h15v15h-15zM510 30h15v15h-15zM495 30h15v15h-15zM480 30h15v15h-15zM585 15h15v15h-15zM600 15h15v15h-15zM555 15h15v15h-15zM555 0h15v15h-15zM540 15h15v15h-15zM510 15h15v15h-15zM585 0h15v15h-15zM540 0h15v15h-15zM495 0h15v15h-15zM465 0h15v15h-15zM1170 660h15v15h-15zM1155 645h15v15h-15zM1140 630h15v15h-15zM1185 615h15v15h-15zM1170 600h15v15h-15zM1185 570h15v15h-15zM1110 570h15v15h-15zM1065 570h15v15h-15zM1185 555h15v15h-15zM1170 555h15v15h-15zM900 360h15v15h-15zM945 540h15v15h-15zM945 525h15v15h-15zM1035 510h15v15h-15zM1035 495h15v15h-15zM1020 510h15v15h-15zM945 510h15v15h-15zM900 510h15v15h-15zM960 495h15v15h-15zM945 480h15v15h-15zM930 450h15v15h-15zM915 420h15v15h-15zM900 420h15v15h-15zM945 405h15v15h-15zM915 405h15v15h-15zM780 1320h-15v-15h15zM810 1320h-15v-15h15zM765 1350h-15v-15h15zM765 1365h-15v-15h15zM780 1350h-15v-15h15zM795 1350h-15v-15h15zM825 1345h-15v-15h15zM795 1365h-15v-15h15zM825 1360h-15v-15h15zM870 1365h-15v-15h15zM885 1365h-15v-15h15zM780 1380h-15v-15h15zM765 1380h-15v-15h15zM825 1375h-15v-15h15zM765 1395h-15v-15h15zM780 1395h-15v-15h15zM825 1390h-15v-15h15zM840 1395h-15v-15h15zM855 1395h-15v-15h15zM885 1395h-15v-15h15zM900 1395h-15v-15h15zM780 1410h-15v-15h15zM765 1410h-15v-15h15zM825 1405h-15v-15h15zM840 1425h-15v-15h15zM765 1440h-15v-15h15zM765 1425h-15v-15h15zM780 1425h-15v-15h15zM810 1440h-15v-15h15zM900 1440h-15v-15h15zM765 1455h-15v-15h15zM780 1455h-15v-15h15zM780 1155h-15v-15h15zM780 1185h-15v-15h15zM780 1170h-15v-15h15zM825 1185h-15v-15h15zM885 1200h-15v-15h15zM765 1200h-15v-15h15zM780 1200h-15v-15h15zM795 1200h-15v-15h15zM795 1185h-15v-15h15zM795 1215h-15v-15h15zM885 1215h-15v-15h15zM780 1230h-15v-15h15zM795 1230h-15v-15h15zM795 1245h-15v-15h15zM795 1260h-15v-15h15zM765 1230h-15v-15h15zM855 1230h-15v-15h15zM765 1245h-15v-15h15zM780 1245h-15v-15h15zM810 1245h-15v-15h15zM825 1245h-15v-15h15zM840 1245h-15v-15h15zM855 1245h-15v-15h15zM885 1245h-15v-15h15zM900 1245h-15v-15h15zM780 1260h-15v-15h15zM780 1275h-15v-15h15zM825 1260h-15v-15h15zM855 1260h-15v-15h15zM870 1275h-15v-15h15zM810 1275h-15v-15h15zM840 1275h-15v-15h15zM885 1275h-15v-15h15zM795 1290h-15v-15h15zM810 1290h-15v-15h15zM840 1290h-15v-15h15zM825 1305h-15v-15h15zM855 1290h-15v-15h15zM885 1290h-15v-15h15zM900 1290h-15v-15h15zM780 1305h-15v-15h15zM810 1305h-15v-15h15zM855 1305h-15v-15h15zM1140 1290h15v15h-15zM1095 1290h15v15h-15zM1125 1275h15v15h-15zM1095 1275h15v15h-15zM1080 1275h15v15h-15zM1065 1260h15v15h-15zM1185 1260h15v15h-15zM1185 1245h15v15h-15zM1170 1260h15v15h-15zM1155 1260h15v15h-15zM1125 1260h15v15h-15zM1095 1260h15v15h-15zM1050 1260h15v15h-15zM1155 1245h15v15h-15zM1125 1245h15v15h-15zM1110 1245h15v15h-15zM1080 1245h15v15h-15zM1065 1245h15v15h-15zM1095 1230h15v15h-15zM1065 1215h15v15h-15zM1050 1215h15v15h-15zM1095 1200h15v15h-15zM1080 1200h15v15h-15zM1140 1185h15v15h-15zM1110 1185h15v15h-15zM1185 1170h15v15h-15zM1155 1169h15v15h-15zM1140 1170h15v15h-15zM1110 1170h15v15h-15zM1095 1170h15v15h-15zM1050 1170h15v15h-15zM1185 1155h15v15h-15zM1170 1155h15v15h-15zM1140 1155h15v15h-15zM1095 1155h15v15h-15zM1065 1155h15v15h-15zM600 1395h15v15h-15zM720 1410h15v15h-15zM645 1395h15v15h-15zM600 1380h15v15h-15zM705 1395h15v15h-15zM675 1395h15v15h-15zM660 1395h15v15h-15zM630 1395h15v15h-15zM615 1395h15v15h-15zM720 1380h15v15h-15zM675 1380h15v15h-15zM645 1380h15v15h-15z"/><path d="M632 1380h15v15h-15zM735 1360h15v15h-15zM720 1365h15v15h-15zM675 1365h15v15h-15zM645 1365h15v15h-15zM720 1350h15v15h-15zM675 1350h15v15h-15zM645 1350h15v15h-15zM630 1350h15v15h-15zM690 1335h15v15h-15zM660 1335h15v15h-15zM645 1335h15v15h-15zM630 1335h15v15h-15zM705 1320h15v15h-15zM705 1305h15v15h-15zM720 1335h15v15h-15zM660 1320h15v15h-15zM645 1320h15v15h-15zM615 1320h15v15h-15zM690 1305h15v15h-15zM420 1140h15v15h-15zM390 1140h15v15h-15zM345 1140h15v15h-15zM375 1125h15v15h-15zM315 1110h15v15h-15zM435 1095h15v15h-15zM405 1110h15v15h-15zM375 1110h15v15h-15zM300 1110h15v15h-15zM405 1095h15v15h-15zM375 1095h15v15h-15zM360 1095h15v15h-15zM330 1095h15v15h-15zM315 1095h15v15h-15zM300 1095h15v15h-15zM420 1080h15v15h-15zM405 1080h15v15h-15zM375 1080h15v15h-15zM345 1080h15v15h-15zM435 1065h15v15h-15zM420 1065h15v15h-15zM390 1065h15v15h-15zM375 1065h15v15h-15zM360 1065h15v15h-15zM345 1065h15v15h-15zM330 1080h15v15h-15zM330 1065h15v15h-15zM315 1065h15v15h-15zM300 1065h15v15h-15zM420 1050h15v15h-15zM375 1050h15v15h-15zM360 1050h15v15h-15zM360 1080h15v15h-15zM345 1050h15v15h-15zM330 1050h15v15h-15zM345 1035h15v15h-15zM330 1035h15v15h-15zM390 1035h15v15h-15zM360 1035h15v15h-15zM315 1035h15v15h-15zM435 1020h15v15h-15zM405 1020h15v15h-15zM390 1020h15v15h-15zM360 1020h15v15h-15zM375 1020h15v15h-15zM345 1020h15v15h-15zM315 1020h15v15h-15zM300 1020h15v15h-15zM435 1005h15v15h-15zM420 1005h15v15h-15zM420 1020h15v15h-15zM390 1005h15v15h-15zM375 1005h15v15h-15zM345 1005h15v15h-15zM315 1005h15v15h-15zM465 1110h15v15h-15zM450 1125h15v15h-15zM435 1140h15v15h-15zM585 1110h15v15h-15zM585 1095h15v15h-15zM570 1110h15v15h-15zM525 1110h15v15h-15zM495 1110h15v15h-15zM555 1095h15v15h-15zM525 1095h15v15h-15zM510 1095h15v15h-15zM480 1095h15v15h-15zM450 1095h15v15h-15zM465 1080h15v15h-15zM570 1080h15v15h-15zM525 1080h15v15h-15zM495 1080h15v15h-15zM585 1065h15v15h-15zM570 1065h15v15h-15zM540 1060h15v15h-15zM525 1065h15v15h-15zM510 1065h15v15h-15zM495 1065h15v15h-15zM465 1065h15v15h-15zM450 1065h15v15h-15zM570 1050h15v15h-15zM525 1050h15v15h-15zM495 1050h15v15h-15zM480 1050h15v15h-15zM540 1035h15v15h-15zM510 1035h15v15h-15zM465 1035h15v15h-15zM585 1020h15v15h-15zM555 1020h15v15h-15zM540 1020h15v15h-15zM510 1020h15v15h-15zM495 1020h15v15h-15zM465 1020h15v15h-15zM450 1020h15v15h-15zM435 1035h15v15h-15zM450 1035h15v15h-15zM405 1035h15v15h-15zM390 1050h15v15h-15zM405 1050h15v15h-15zM420 1035h15v15h-15zM585 1005h15v15h-15zM570 1005h15v15h-15zM540 1005h15v15h-15zM495 1005h15v15h-15zM465 1005h15v15h-15zM720 1140h15v15h-15zM645 1140h15v15h-15zM675 1125h15v15h-15zM645 1125h15v15h-15zM630 1125h15v15h-15zM615 1140h15v15h-15zM615 1110h15v15h-15zM735 1095h15v15h-15zM720 1110h15v15h-15zM705 1110h15v15h-15zM675 1110h15v15h-15zM645 1110h15v15h-15zM600 1110h15v15h-15zM705 1095h15v15h-15zM675 1095h15v15h-15zM660 1095h15v15h-15zM630 1095h15v15h-15zM615 1095h15v15h-15zM720 1080h15v15h-15zM675 1080h15v15h-15zM645 1080h15v15h-15zM735 1065h15v15h-15zM720 1065h15v15h-15zM690 1065h15v15h-15zM675 1065h15v15h-15zM660 1065h15v15h-15zM645 1065h15v15h-15zM615 1065h15v15h-15zM600 1065h15v15h-15zM720 1050h15v15h-15zM675 1050h15v15h-15zM645 1050h15v15h-15zM630 1050h15v15h-15zM615 1050h15v15h-15zM600 1050h15v15h-15zM645 1035h15v15h-15zM660 1035h15v15h-15zM615 1035h15v15h-15zM735 1020h15v15h-15zM720 1015h15v15h-15zM705 1035h15v15h-15zM705 1020h15v15h-15zM660 1020h15v15h-15zM645 1020h15v15h-15zM615 1020h15v15h-15zM600 1020h15v15h-15zM735 1005h15v15h-15zM720 1000h15v15h-15zM690 1005h15v15h-15zM660 1005h15v15h-15zM675 1005h15v15h-15zM675 1020h15v15h-15zM645 1005h15v15h-15zM645 990h15v15h-15zM630 990h15v15h-15zM630 1035h15v15h-15zM615 1005h15v15h-15zM120 825h15v15h-15zM90 825h15v15H90zM45 810h15v15H45zM135 795h15v15h-15zM120 795h15v15h-15zM105 795h15v15h-15zM75 795h15v15H75zM45 795h15v15H45zM105 780h15v15h-15zM75 780h15v15H75zM60 780h15v15H60zM120 750h15v15h-15zM105 765h15v15h-15zM90 750h15v15H90zM60 750h15v15H60zM90 720h15v15H90zM135 705h15v15h-15zM105 705h15v15h-15zM90 705h15v15H90zM60 705h15v15H60zM90 690h15v15H90zM120 525h15v15h-15zM90 525h15v15H90zM75 510h15v15H75zM135 495h15v15h-15zM135 480h15v15h-15zM120 495h15v15h-15zM105 495h15v15h-15zM90 510h15v15H90zM75 495h15v15H75zM105 480h15v15h-15zM75 480h15v15H75zM60 480h15v15H60zM120 465h15v15h-15zM105 465h15v15h-15zM75 465h15v15H75zM45 465h15v15H45zM135 450h15v15h-15zM120 450h15v15h-15zM90 450h15v15H90zM90 435h15v15H90zM75 450h15v15H75zM60 450h15v15H60zM45 450h15v15H45zM15 450h15v15H15zM0 435h15v15H0zM120 435h15v15h-15zM75 435h15v15H75zM45 435h15v15H45zM30 435h15v15H30zM195 525h15v15h-15zM195 510h15v15h-15zM180 510h15v15h-15zM165 495h15v15h-15zM195 495h15v15h-15zM150 495h15v15h-15zM180 480h15v15h-15zM165 480h15v15h-15zM195 465h15v15h-15zM270 450h15v15h-15zM240 450h15v15h-15zM225 450h15v15h-15zM210 450h15v15h-15zM195 450h15v15h-15zM165 450h15v15h-15zM150 450h15v15h-15zM270 435h15v15h-15zM225 435h15v15h-15zM195 435h15v15h-15zM180 435h15v15h-15zM420 540h15v15h-15zM345 525h15v15h-15zM255 510h15v15h-15zM270 495h15v15h-15zM285 495h15v15h-15zM285 510h15v15h-15zM270 525h15v15h-15zM255 540h15v15h-15zM240 525h15v15h-15zM240 510h15v15h-15zM240 495h15v15h-15zM255 480h15v15h-15zM270 480h15v15h-15zM285 480h15v15h-15zM300 495h15v15h-15zM315 510h15v15h-15zM315 525h15v15h-15zM315 555h15v15h-15zM330 540h15v15h-15zM300 570h15v15h-15zM285 570h15v15h-15zM270 585h15v15h-15zM255 600h15v15h-15zM300 540h15v15h-15zM285 555h15v15h-15zM270 555h15v15h-15zM255 570h15v15h-15zM270 570h15v15h-15zM240 570h15v15h-15zM225 585h15v15h-15zM240 555h15v15h-15zM225 540h15v15h-15zM225 525h15v15h-15zM225 480h15v15h-15zM240 465h15v15h-15zM270 465h15v15h-15zM300 480h15v15h-15zM330 495h15v15h-15zM300 525h15v15h-15zM285 525h15v15h-15zM435 495h15v15h-15zM420 510h15v15h-15zM405 495h15v15h-15zM390 480h15v15h-15zM420 465h15v15h-15zM435 450h15v15h-15zM315 450h15v15h-15zM300 450h15v15h-15zM330 435h15v15h-15zM345 435h15v15h-15zM315 435h15v15h-15zM315 400h15v15h-15zM420 690h15v15h-15zM390 690h15v15h-15zM345 690h15v15h-15zM375 675h15v15h-15zM345 675h15v15h-15zM330 675h15v15h-15zM435 660h15v15h-15zM435 645h15v15h-15zM420 660h15v15h-15zM405 660h15v15h-15zM375 660h15v15h-15zM345 660h15v15h-15zM405 645h15v15h-15zM375 645h15v15h-15zM360 645h15v15h-15zM330 645h15v15h-15zM420 630h15v15h-15zM375 630h15v15h-15zM345 630h15v15h-15zM435 615h15v15h-15zM420 615h15v15h-15zM390 615h15v15h-15zM360 615h15v15h-15zM345 615h15v15h-15zM420 600h15v15h-15zM345 600h15v15h-15zM330 615h15v15h-15zM390 585h15v15h-15zM360 585h15v15h-15zM435 570h15v15h-15zM405 570h15v15h-15zM390 570h15v15h-15zM345 570h15v15h-15zM435 555h15v15h-15zM420 555h15v15h-15zM345 540h15v15h-15zM405 525h15v15h-15zM390 540h15v15h-15zM375 525h15v15h-15zM405 540h15v15h-15zM570 690h15v15h-15zM540 690h15v15h-15zM495 690h15v15h-15zM525 675h15v15h-15zM495 675h15v15h-15zM480 675h15v15h-15zM465 660h15v15h-15zM585 660h15v15h-15zM585 645h15v15h-15zM570 660h15v15h-15zM555 660h15v15h-15zM525 660h15v15h-15zM495 660h15v15h-15zM525 645h15v15h-15zM510 645h15v15h-15zM480 645h15v15h-15zM465 645h15v15h-15zM495 630h15v15h-15zM585 615h15v15h-15zM570 615h15v15h-15zM540 615h15v15h-15zM495 615h15v15h-15zM465 615h15v15h-15zM450 615h15v15h-15zM570 600h15v15h-15zM525 600h15v15h-15zM495 600h15v15h-15zM480 600h15v15h-15zM540 585h15v15h-15zM510 570h15v15h-15zM465 585h15v15h-15zM585 570h15v15h-15zM600 570h15v15h-15zM555 570h15v15h-15zM540 555h15v15h-15zM570 570h15v15h-15zM510 555h15v15h-15zM495 570h15v15h-15zM465 570h15v15h-15zM450 570h15v15h-15zM495 555h15v15h-15zM465 555h15v15h-15zM465 540h15v15h-15zM525 540h15v15h-15zM495 540h15v15h-15zM450 540h15v15h-15zM525 525h15v15h-15zM510 525h15v15h-15zM480 525h15v15h-15zM465 525h15v15h-15zM525 510h15v15h-15zM540 540h15v15h-15zM540 525h15v15h-15zM540 510h15v15h-15zM495 510h15v15h-15zM585 495h15v15h-15zM570 495h15v15h-15zM555 495h15v15h-15zM540 495h15v15h-15zM525 495h15v15h-15zM510 495h15v15h-15zM495 495h15v15h-15zM465 495h15v15h-15zM450 495h15v15h-15zM570 480h15v15h-15zM525 480h15v15h-15zM495 480h15v15h-15zM480 480h15v15h-15zM540 465h15v15h-15zM510 465h15v15h-15zM450 435h15v15h-15zM585 450h15v15h-15zM555 450h15v15h-15zM540 450h15v15h-15zM510 450h15v15h-15zM495 450h15v15h-15zM585 405h15v15h-15zM465 390h15v15h-15zM450 390h15v15h-15zM585 435h15v15h-15zM570 435h15v15h-15zM540 390h15v15h-15zM495 390h15v15h-15zM525 375h15v15h-15zM495 375h15v15h-15zM480 375h15v15h-15zM465 360h15v15h-15zM585 360h15v15h-15zM585 345h15v15h-15zM570 360h15v15h-15zM570 375h15v15h-15zM555 360h15v15h-15zM525 360h15v15h-15zM495 360h15v15h-15zM450 360h15v15h-15zM435 375h15v15h-15zM435 345h15v15h-15zM435 300h15v15h-15zM450 300h15v15h-15zM435 270h15v15h-15zM555 345h15v15h-15zM525 345h15v15h-15zM510 360h15v15h-15zM480 345h15v15h-15zM465 345h15v15h-15zM570 330h15v15h-15zM525 330h15v15h-15zM495 330h15v15h-15zM570 315h15v15h-15zM540 300h15v15h-15zM525 315h15v15h-15zM510 330h15v15h-15zM555 330h15v15h-15zM540 330h15v15h-15zM495 315h15v15h-15zM465 315h15v15h-15zM450 315h15v15h-15zM525 300h15v15h-15zM495 300h15v15h-15zM480 300h15v15h-15zM540 285h15v15h-15zM510 285h15v15h-15zM495 285h15v15h-15zM465 280h15v15h-15zM585 270h15v15h-15zM555 270h15v15h-15zM540 270h15v15h-15zM510 270h15v15h-15zM495 270h15v15h-15zM480 270h15v15h-15zM465 265h15v15h-15zM450 265h15v15h-15zM585 255h15v15h-15zM570 255h15v15h-15zM540 255h15v15h-15zM495 255h15v15h-15zM465 250h15v15h-15zM720 390h15v15h-15zM705 375h15v15h-15zM690 390h15v15h-15zM705 660h15v15h-15zM705 645h15v15h-15zM690 660h15v15h-15zM675 660h15v15h-15zM615 660h15v15h-15zM675 645h15v15h-15zM690 630h15v15h-15zM615 630h15v15h-15zM630 615h15v15h-15zM615 615h15v15h-15zM645 600h15v15h-15zM615 600h15v15h-15zM600 600h15v15h-15zM600 585h15v15h-15zM660 585h15v15h-15zM630 585h15v15h-15zM675 570h15v15h-15zM660 570h15v15h-15zM630 570h15v15h-15zM615 570h15v15h-15zM690 555h15v15h-15zM660 555h15v15h-15zM615 555h15v15h-15zM705 540h15v15h-15zM705 525h15v15h-15zM690 540h15v15h-15zM675 540h15v15h-15zM645 540h15v15h-15zM615 540h15v15h-15zM675 525h15v15h-15zM645 525h15v15h-15zM630 525h15v15h-15zM615 525h15v15h-15zM570 525h15v15h-15zM585 525h15v15h-15zM570 540h15v15h-15zM585 540h15v15h-15zM690 510h15v15h-15zM645 510h15v15h-15zM615 510h15v15h-15zM705 495h15v15h-15zM660 495h15v15h-15zM645 495h15v15h-15zM630 495h15v15h-15zM615 495h15v15h-15zM690 480h15v15h-15zM675 480h15v15h-15zM645 480h15v15h-15zM615 480h15v15h-15zM600 480h15v15h-15zM600 495h15v15h-15zM660 465h15v15h-15zM630 465h15v15h-15zM660 450h15v15h-15zM615 450h15v15h-15zM705 405h15v15h-15zM735 660h15v15h-15zM750 660h15v15h-15zM735 645h15v15h-15zM720 660h15v15h-15zM720 630h15v15h-15zM735 615h15v15h-15zM720 615h15v15h-15zM720 600h15v15h-15zM735 450h15v15h-15zM735 405h15v15h-15zM735 420h15v15h-15zM735 435h15v15h-15z"/><path d="M690 390h15v15h-15zM690 375h15v15h-15zM765 390h15v15h-15zM675 375h15v15h-15zM645 375h15v15h-15zM630 375h15v15h-15zM735 360h15v15h-15zM735 345h15v15h-15zM720 360h15v15h-15zM705 360h15v15h-15zM690 360h15v15h-15zM675 360h15v15h-15zM645 360h15v15h-15zM600 360h15v15h-15zM705 345h15v15h-15zM675 345h15v15h-15zM660 345h15v15h-15zM630 345h15v15h-15zM615 345h15v15h-15zM720 330h15v15h-15zM675 330h15v15h-15zM645 330h15v15h-15zM735 315h15v15h-15zM720 315h15v15h-15zM690 315h15v15h-15zM675 315h15v15h-15zM660 315h15v15h-15zM645 315h15v15h-15zM630 315h15v15h-15zM585 330h15v15h-15zM615 330h15v15h-15zM585 300h15v15h-15zM615 300h15v15h-15zM600 300h15v15h-15zM720 300h15v15h-15zM735 300h15v15h-15zM750 300h15v15h-15zM675 300h15v15h-15zM645 300h15v15h-15zM630 300h15v15h-15zM630 285h15v15h-15zM690 285h15v15h-15zM705 285h15v15h-15zM660 285h15v15h-15zM615 285h15v15h-15zM735 270h15v15h-15zM705 270h15v15h-15zM690 270h15v15h-15zM660 270h15v15h-15zM645 270h15v15h-15zM615 270h15v15h-15zM600 270h15v15h-15zM735 255h15v15h-15zM720 255h15v15h-15zM690 255h15v15h-15zM645 255h15v15h-15zM615 255h15v15h-15zM870 390h15v15h-15zM840 390h15v15h-15zM795 390h15v15h-15zM825 375h15v15h-15zM795 375h15v15h-15zM780 375h15v15h-15zM765 360h15v15h-15zM885 360h15v15h-15zM885 345h15v15h-15zM870 360h15v15h-15zM855 360h15v15h-15zM825 360h15v15h-15zM810 360h15v15h-15zM795 360h15v15h-15zM750 360h15v15h-15zM855 345h15v15h-15zM825 345h15v15h-15zM810 345h15v15h-15zM780 345h15v15h-15zM765 345h15v15h-15zM870 330h15v15h-15zM825 330h15v15h-15zM795 330h15v15h-15zM840 315h15v15h-15zM825 315h15v15h-15zM810 315h15v15h-15zM795 315h15v15h-15zM765 315h15v15h-15zM750 315h15v15h-15zM825 300h15v15h-15zM795 300h15v15h-15zM780 300h15v15h-15zM810 285h15v15h-15zM765 285h15v15h-15zM810 270h15v15h-15zM795 270h15v15h-15zM765 270h15v15h-15zM750 270h15v15h-15zM870 540h15v15h-15zM840 540h15v15h-15zM795 540h15v15h-15zM825 525h15v15h-15zM795 525h15v15h-15zM780 525h15v15h-15zM765 510h15v15h-15zM885 510h15v15h-15zM885 495h15v15h-15zM870 510h15v15h-15zM855 510h15v15h-15zM825 510h15v15h-15zM795 510h15v15h-15zM750 510h15v15h-15zM765 525h15v15h-15zM765 540h15v15h-15zM765 555h15v15h-15zM765 570h15v15h-15zM750 525h15v15h-15zM855 495h15v15h-15zM825 495h15v15h-15zM810 495h15v15h-15zM780 495h15v15h-15zM765 495h15v15h-15zM825 480h15v15h-15zM795 480h15v15h-15zM840 465h15v15h-15zM825 465h15v15h-15zM810 465h15v15h-15zM795 465h15v15h-15zM765 465h15v15h-15zM750 465h15v15h-15zM825 450h15v15h-15zM795 450h15v15h-15zM780 450h15v15h-15zM840 435h15v15h-15zM810 435h15v15h-15zM765 435h15v15h-15zM870 630h15v15h-15zM810 660h15v15h-15zM840 645h15v15h-15zM810 645h15v15h-15zM795 645h15v15h-15zM780 630h15v15h-15zM840 630h15v15h-15zM810 630h15v15h-15zM765 630h15v15h-15zM795 675h15v15h-15zM780 690h15v15h-15zM765 690h15v15h-15zM840 615h15v15h-15zM825 615h15v15h-15zM795 615h15v15h-15zM780 615h15v15h-15zM810 600h15v15h-15zM855 585h15v15h-15zM840 585h15v15h-15zM825 585h15v15h-15zM810 585h15v15h-15zM780 585h15v15h-15zM765 585h15v15h-15zM780 600h15v15h-15zM795 585h15v15h-15zM885 570h15v15h-15zM840 570h15v15h-15zM810 570h15v15h-15zM795 570h15v15h-15zM855 555h15v15h-15zM825 555h15v15h-15zM780 555h15v15h-15zM885 420h15v15h-15zM885 435h15v15h-15zM870 450h15v15h-15zM885 465h15v15h-15zM855 420h15v15h-15zM840 420h15v15h-15zM810 420h15v15h-15zM795 420h15v15h-15zM765 420h15v15h-15zM750 420h15v15h-15zM885 405h15v15h-15zM870 405h15v15h-15zM840 405h15v15h-15zM795 405h15v15h-15zM765 405h15v15h-15zM570 840h15v15h-15zM540 840h15v15h-15zM525 825h15v15h-15zM465 810h15v15h-15zM585 810h15v15h-15zM585 795h15v15h-15zM570 810h15v15h-15zM555 810h15v15h-15zM525 810h15v15h-15zM555 795h15v15h-15zM525 795h15v15h-15zM510 795h15v15h-15zM450 795h15v15h-15zM570 780h15v15h-15zM525 780h15v15h-15zM495 780h15v15h-15zM585 765h15v15h-15zM570 765h15v15h-15zM540 765h15v15h-15zM525 765h15v15h-15zM510 765h15v15h-15zM495 765h15v15h-15zM450 765h15v15h-15zM570 750h15v15h-15zM525 750h15v15h-15zM495 750h15v15h-15zM480 750h15v15h-15zM540 735h15v15h-15zM510 735h15v15h-15zM465 735h15v15h-15zM585 720h15v15h-15zM555 720h15v15h-15zM540 720h15v15h-15zM510 720h15v15h-15zM495 720h15v15h-15zM465 720h15v15h-15zM450 720h15v15h-15zM585 705h15v15h-15zM570 705h15v15h-15zM540 705h15v15h-15zM495 705h15v15h-15zM465 705h15v15h-15zM720 840h15v15h-15zM645 840h15v15h-15zM675 825h15v15h-15zM630 825h15v15h-15zM615 810h15v15h-15zM735 810h15v15h-15zM720 810h15v15h-15zM675 810h15v15h-15zM645 810h15v15h-15zM600 810h15v15h-15zM705 795h15v15h-15zM675 795h15v15h-15zM660 795h15v15h-15zM630 795h15v15h-15zM615 795h15v15h-15zM720 780h15v15h-15zM675 780h15v15h-15zM645 780h15v15h-15zM735 765h15v15h-15zM720 765h15v15h-15zM690 765h15v15h-15zM675 765h15v15h-15zM660 765h15v15h-15zM645 765h15v15h-15zM615 765h15v15h-15zM600 765h15v15h-15zM720 750h15v15h-15zM705 750h15v15h-15zM675 750h15v15h-15zM645 750h15v15h-15zM630 750h15v15h-15zM690 735h15v15h-15zM660 735h15v15h-15zM615 735h15v15h-15zM735 720h15v15h-15zM705 720h15v15h-15zM690 720h15v15h-15zM660 720h15v15h-15zM645 720h15v15h-15zM615 720h15v15h-15zM600 720h15v15h-15zM720 675h15v15h-15zM690 675h15v15h-15zM645 705h15v15h-15zM615 705h15v15h-15zM570 990h15v15h-15zM555 1005h15v15h-15zM555 990h15v15h-15zM540 990h15v15h-15zM495 990h15v15h-15zM480 1020h15v15h-15zM495 1035h15v15h-15zM480 1035h15v15h-15zM480 1005h15v15h-15zM480 990h15v15h-15zM510 1005h15v15h-15zM510 990h15v15h-15zM525 1035h15v15h-15zM525 1020h15v15h-15zM525 1005h15v15h-15zM525 990h15v15h-15zM525 975h15v15h-15zM495 975h15v15h-15zM480 975h15v15h-15zM480 960h15v15h-15zM465 960h15v15h-15zM585 960h15v15h-15zM585 945h15v15h-15zM570 945h15v15h-15zM570 960h15v15h-15zM555 960h15v15h-15zM540 960h15v15h-15zM585 975h15v15h-15zM570 975h15v15h-15zM555 975h15v15h-15zM525 960h15v15h-15zM495 960h15v15h-15zM510 975h15v15h-15zM510 960h15v15h-15zM450 960h15v15h-15zM555 945h15v15h-15zM525 945h15v15h-15zM510 945h15v15h-15zM570 930h15v15h-15zM525 930h15v15h-15zM495 930h15v15h-15zM585 915h15v15h-15zM570 915h15v15h-15zM540 915h15v15h-15zM555 900h15v15h-15zM555 915h15v15h-15zM525 915h15v15h-15zM510 915h15v15h-15zM495 915h15v15h-15zM465 915h15v15h-15zM450 915h15v15h-15zM525 900h15v15h-15zM495 900h15v15h-15zM480 900h15v15h-15zM540 885h15v15h-15zM510 885h15v15h-15zM585 870h15v15h-15zM555 870h15v15h-15zM540 870h15v15h-15zM510 870h15v15h-15zM495 870h15v15h-15zM450 870h15v15h-15zM585 855h15v15h-15zM600 840h15v15h-15zM615 825h15v15h-15zM570 855h15v15h-15zM540 855h15v15h-15zM495 855h15v15h-15zM465 855h15v15h-15zM1200 1050h15v-15h-15zM1230 1065h15v-15h-15zM1215 1140h15v-15h-15zM1335 1155h15v-15h-15zM1245 1155h15v-15h-15zM270 990h15v15h-15zM255 990h15v15h-15zM210 989h15v15h-15zM165 990h15v15h-15zM270 975h15v15h-15zM255 975h15v15h-15zM240 975h15v15h-15zM180 975h15v15h-15zM165 975h15v15h-15zM285 960h15v15h-15zM285 945h15v15h-15zM270 960h15v15h-15zM240 960h15v15h-15zM225 960h15v15h-15zM255 945h15v15h-15zM240 945h15v15h-15zM225 945h15v15h-15zM270 930h15v15h-15zM255 930h15v15h-15zM285 915h15v15h-15zM285 930h15v15h-15zM270 945h15v15h-15zM270 915h15v15h-15zM255 915h15v15h-15zM240 900h15v15h-15zM225 900h15v15h-15zM150 900h15v15h-15zM270 900h15v15h-15zM255 900h15v15h-15zM240 885h15v15h-15zM225 885h15v15h-15zM195 885h15v15h-15zM285 885h15v15h-15zM270 885h15v15h-15zM255 885h15v15h-15zM225 870h15v15h-15zM210 870h15v15h-15zM210 885h15v15h-15zM210 900h15v15h-15zM225 915h15v15h-15zM225 930h15v15h-15zM240 915h15v15h-15zM195 870h15v15h-15zM180 870h15v15h-15zM165 870h15v15h-15zM150 870h15v15h-15zM285 870h15v15h-15zM270 870h15v15h-15zM225 855h15v15h-15zM210 855h15v15h-15zM195 855h15v15h-15zM180 855h15v15h-15zM285 855h15v15h-15zM270 855h15v15h-15zM255 855h15v15h-15zM240 840h15v15h-15zM255 870h15v15h-15zM240 855h15v15h-15zM240 870h15v15h-15zM225 840h15v15h-15zM210 840h15v15h-15zM195 840h15v15h-15zM180 840h15v15h-15zM420 990h15v15h-15zM405 990h15v15h-15zM345 990h15v15h-15zM315 990h15v15h-15zM300 990h15v15h-15zM420 975h15v15h-15zM435 975h15v15h-15zM435 990h15v15h-15zM450 975h15v15h-15zM465 975h15v15h-15zM450 990h15v15h-15zM465 990h15v15h-15zM375 975h15v15h-15zM360 975h15v15h-15zM330 975h15v15h-15zM315 975h15v15h-15zM315 960h15v15h-15zM300 960h15v15h-15zM300 975h15v15h-15zM285 975h15v15h-15zM435 945h15v15h-15zM405 960h15v15h-15zM390 960h15v15h-15zM375 960h15v15h-15zM345 960h15v15h-15zM330 960h15v15h-15zM405 945h15v15h-15zM390 945h15v15h-15zM375 945h15v15h-15zM360 945h15v15h-15zM345 945h15v15h-15zM330 945h15v15h-15zM315 945h15v15h-15zM300 945h15v15h-15zM420 930h15v15h-15zM390 930h15v15h-15zM345 930h15v15h-15zM330 930h15v15h-15zM435 915h15v15h-15zM435 930h15v15h-15zM420 945h15v15h-15zM405 915h15v15h-15zM390 915h15v15h-15zM375 915h15v15h-15zM315 930h15v15h-15zM300 915h15v15h-15zM300 930h15v15h-15zM420 900h15v15h-15zM405 900h15v15h-15zM390 900h15v15h-15zM345 900h15v15h-15zM315 900h15v15h-15zM300 900h15v15h-15zM435 885h15v15h-15zM450 900h15v15h-15zM420 885h15v15h-15zM390 885h15v15h-15zM405 885h15v15h-15zM390 870h15v15h-15zM405 870h15v15h-15zM375 885h15v15h-15zM360 885h15v15h-15zM375 900h15v15h-15zM360 900h15v15h-15zM345 915h15v15h-15zM330 915h15v15h-15zM360 915h15v15h-15zM375 930h15v15h-15zM360 930h15v15h-15zM345 885h15v15h-15zM330 885h15v15h-15zM315 885h15v15h-15zM300 885h15v15h-15zM435 870h15v15h-15zM375 870h15v15h-15zM360 870h15v15h-15zM330 870h15v15h-15zM420 855h15v15h-15zM405 855h15v15h-15zM390 855h15v15h-15zM375 855h15v15h-15zM360 855h15v15h-15zM345 855h15v15h-15zM345 840h15v15h-15zM330 840h15v15h-15zM720 985h15v15h-15zM705 990h15v15h-15zM690 990h15v15h-15zM675 990h15v15h-15zM660 990h15v15h-15zM615 990h15v15h-15zM600 990h15v15h-15zM585 990h15v15h-15zM690 975h15v15h-15zM675 975h15v15h-15zM660 975h15v15h-15zM645 975h15v15h-15zM630 975h15v15h-15zM615 975h15v15h-15zM615 960h15v15h-15zM600 975h15v15h-15zM735 960h15v15h-15zM735 945h15v15h-15zM720 960h15v15h-15zM705 960h15v15h-15zM690 960h15v15h-15zM675 960h15v15h-15zM660 960h15v15h-15zM645 960h15v15h-15zM630 960h15v15h-15zM690 945h15v15h-15zM675 945h15v15h-15zM660 945h15v15h-15zM645 945h15v15h-15zM630 945h15v15h-15zM615 945h15v15h-15zM600 945h15v15h-15zM705 930h15v15h-15zM690 930h15v15h-15zM645 930h15v15h-15zM660 930h15v15h-15zM735 915h15v15h-15zM720 915h15v15h-15zM690 915h15v15h-15zM675 915h15v15h-15zM615 930h15v15h-15zM600 915h15v15h-15zM600 930h15v15h-15zM690 900h15v15h-15zM675 900h15v15h-15zM615 900h15v15h-15zM600 900h15v15h-15zM675 885h15v15h-15zM660 885h15v15h-15zM660 900h15v15h-15zM645 885h15v15h-15zM630 885h15v15h-15zM615 885h15v15h-15zM600 885h15v15h-15zM735 870h15v15h-15zM675 870h15v15h-15zM735 855h15v15h-15zM720 855h15v15h-15zM705 855h15v15h-15zM690 855h15v15h-15zM675 855h15v15h-15zM660 855h15v15h-15zM645 855h15v15h-15zM630 855h15v15h-15zM870 990h15v15h-15zM855 990h15v15h-15zM840 1005h15v15h-15zM810 990h15v15h-15zM765 990h15v15h-15zM750 990h15v15h-15zM750 1005h15v15h-15zM750 1020h15v15h-15zM765 1020h15v15h-15zM765 1005h15v15h-15zM780 1005h15v15h-15zM870 975h15v15h-15zM840 975h15v15h-15zM825 975h15v15h-15zM810 975h15v15h-15zM795 975h15v15h-15zM780 975h15v15h-15zM765 975h15v15h-15zM765 960h15v15h-15zM750 960h15v15h-15zM705 975h15v15h-15zM735 975h15v15h-15zM735 990h15v15h-15zM780 990h15v15h-15zM795 990h15v15h-15zM750 975h15v15h-15zM885 960h15v15h-15zM885 945h15v15h-15zM870 960h15v15h-15zM855 960h15v15h-15zM840 960h15v15h-15zM825 960h15v15h-15zM810 960h15v15h-15zM795 960h15v15h-15zM780 960h15v15h-15zM840 945h15v15h-15zM825 945h15v15h-15zM810 945h15v15h-15zM795 945h15v15h-15zM780 945h15v15h-15zM765 945h15v15h-15zM750 945h15v15h-15zM855 930h15v15h-15zM840 930h15v15h-15zM825 930h15v15h-15zM795 930h15v15h-15zM780 930h15v15h-15zM885 915h15v15h-15zM885 930h15v15h-15zM870 945h15v15h-15zM870 915h15v15h-15zM855 915h15v15h-15zM840 915h15v15h-15zM825 915h15v15h-15zM765 930h15v15h-15zM750 930h15v15h-15zM840 900h15v15h-15zM825 900h15v15h-15zM795 900h15v15h-15zM780 900h15v15h-15zM750 900h15v15h-15zM810 900h15v15h-15zM795 915h15v15h-15zM780 915h15v15h-15zM810 915h15v15h-15zM795 885h15v15h-15zM885 855h15v15h-15zM900 840h15v15h-15zM870 855h15v15h-15zM825 855h15v15h-15zM855 840h15v15h-15zM870 825h15v15h-15zM840 840h15v15h-15zM1020 990h15v15h-15zM1005 990h15v15h-15zM990 990h15v15h-15zM975 990h15v15h-15zM960 990h15v15h-15zM915 990h15v15h-15zM900 990h15v15h-15zM1020 975h15v15h-15zM1035 1005h15v15h-15zM1050 1005h15v15h-15zM1065 1005h15v15h-15zM1080 990h15v15h-15zM1095 1005h15v15h-15zM990 975h15v15h-15zM975 975h15v15h-15zM960 975h15v15h-15zM945 975h15v15h-15zM930 975h15v15h-15zM915 975h15v15h-15zM915 960h15v15h-15zM900 975h15v15h-15zM1035 960h15v15h-15zM1035 945h15v15h-15zM1020 960h15v15h-15zM1005 960h15v15h-15zM990 960h15v15h-15zM975 960h15v15h-15zM960 960h15v15h-15zM945 960h15v15h-15zM930 960h15v15h-15zM1005 945h15v15h-15zM990 945h15v15h-15zM975 945h15v15h-15zM960 945h15v15h-15zM945 945h15v15h-15zM930 945h15v15h-15zM915 945h15v15h-15zM900 945h15v15h-15zM1020 930h15v15h-15zM1005 930h15v15h-15zM990 930h15v15h-15zM945 930h15v15h-15zM930 930h15v15h-15zM1035 915h15v15h-15zM1035 930h15v15h-15zM1020 945h15v15h-15zM1020 915h15v15h-15zM1005 915h15v15h-15zM990 915h15v15h-15zM975 915h15v15h-15zM975 930h15v15h-15zM915 930h15v15h-15zM900 915h15v15h-15zM900 930h15v15h-15zM1020 900h15v15h-15zM1005 900h15v15h-15zM990 900h15v15h-15zM975 900h15v15h-15zM945 900h15v15h-15zM930 900h15v15h-15zM915 900h15v15h-15zM900 900h15v15h-15zM1035 885h15v15h-15zM1020 885h15v15h-15zM1005 885h15v15h-15zM975 885h15v15h-15zM960 885h15v15h-15zM960 900h15v15h-15zM945 915h15v15h-15zM930 915h15v15h-15zM915 915h15v15h-15zM960 915h15v15h-15zM945 885h15v15h-15zM960 870h15v15h-15zM945 870h15v15h-15zM930 885h15v15h-15zM915 885h15v15h-15zM900 885h15v15h-15zM1170 990h15v15h-15zM1155 990h15v15h-15zM1140 990h15v15h-15zM1125 990h15v15h-15zM1110 990h15v15h-15zM1065 990h15v15h-15zM1050 990h15v15h-15zM1170 975h15v15h-15zM1140 975h15v15h-15zM1125 975h15v15h-15zM1110 975h15v15h-15zM1095 975h15v15h-15zM1080 975h15v15h-15zM1065 975h15v15h-15zM1065 960h15v15h-15zM1050 975h15v15h-15zM1035 975h15v15h-15zM1185 960h15v15h-15zM1185 945h15v15h-15zM1170 960h15v15h-15zM1155 960h15v15h-15zM1140 960h15v15h-15zM1125 960h15v15h-15zM1110 960h15v15h-15zM1095 960h15v15h-15zM1080 960h15v15h-15zM1155 945h15v15h-15zM1140 945h15v15h-15zM1125 945h15v15h-15zM1110 945h15v15h-15zM1095 945h15v15h-15zM1080 945h15v15h-15zM1065 945h15v15h-15zM1050 945h15v15h-15zM1170 930h15v15h-15zM1155 930h15v15h-15zM1140 930h15v15h-15zM1095 930h15v15h-15zM1080 930h15v15h-15zM1185 915h15v15h-15zM1185 930h15v15h-15zM1170 945h15v15h-15zM1170 915h15v15h-15zM1155 915h15v15h-15zM1140 915h15v15h-15zM1125 915h15v15h-15zM1065 930h15v15h-15zM1050 915h15v15h-15zM1050 930h15v15h-15zM1170 900h15v15h-15zM1155 900h15v15h-15zM1140 900h15v15h-15zM1125 900h15v15h-15zM1095 900h15v15h-15zM1080 900h15v15h-15zM1065 900h15v15h-15zM1050 900h15v15h-15zM1185 885h15v15h-15zM1170 885h15v15h-15zM1155 885h15v15h-15zM1125 885h15v15h-15zM1110 885h15v15h-15zM1110 900h15v15h-15zM1095 885h15v15h-15zM1080 885h15v15h-15zM1065 885h15v15h-15zM1050 885h15v15h-15zM1185 870h15v15h-15zM1170 870h15v15h-15zM1185 855h15v15h-15zM1200 855h15v15h-15zM1215 870h15v15h-15zM1170 855h15v15h-15zM1320 990h15v15h-15zM1215 990h15v15h-15zM1200 990h15v15h-15zM1260 975h15v15h-15zM1245 975h15v15h-15zM1230 975h15v15h-15zM1215 975h15v15h-15zM1215 960h15v15h-15zM1200 975h15v15h-15zM1185 975h15v15h-15zM1185 990h15v15h-15zM1335 960h15v15h-15zM1335 945h15v15h-15zM1320 960h15v15h-15zM1305 960h15v15h-15zM1290 960h15v15h-15zM1275 960h15v15h-15zM1260 960h15v15h-15zM1305 945h15v15h-15zM1290 945h15v15h-15zM1275 945h15v15h-15zM1245 945h15v15h-15zM1230 945h15v15h-15zM1215 945h15v15h-15zM1200 945h15v15h-15zM1320 930h15v15h-15zM1305 930h15v15h-15zM1290 930h15v15h-15zM1245 930h15v15h-15zM1230 930h15v15h-15zM1335 915h15v15h-15zM1335 930h15v15h-15zM1320 945h15v15h-15zM1320 915h15v15h-15zM1305 915h15v15h-15zM1290 915h15v15h-15zM1275 915h15v15h-15zM1260 915h15v15h-15zM1260 930h15v15h-15zM1215 930h15v15h-15zM1200 915h15v15h-15zM1200 930h15v15h-15zM1320 900h15v15h-15zM1305 900h15v15h-15zM1290 900h15v15h-15zM1275 900h15v15h-15zM1245 900h15v15h-15zM1230 900h15v15h-15zM1215 900h15v15h-15zM1245 915h15v15h-15zM1230 915h15v15h-15zM1215 915h15v15h-15zM1200 900h15v15h-15zM1335 885h15v15h-15zM1320 885h15v15h-15zM1305 885h15v15h-15zM1275 885h15v15h-15zM1260 885h15v15h-15zM1260 900h15v15h-15zM1245 885h15v15h-15zM1230 885h15v15h-15zM1215 885h15v15h-15zM1200 885h15v15h-15zM1335 870h15v15h-15zM1320 870h15v15h-15zM1275 870h15v15h-15zM1260 870h15v15h-15zM1245 870h15v15h-15zM1230 870h15v15h-15zM1335 855h15v15h-15zM1320 855h15v15h-15zM1305 855h15v15h-15zM1290 855h15v15h-15zM1275 855h15v15h-15zM1260 855h15v15h-15zM1245 855h15v15h-15zM1230 855h15v15h-15zM1320 840h15v15h-15zM1305 840h15v15h-15zM1290 840h15v15h-15zM1275 840h15v15h-15zM1260 840h15v15h-15zM1245 840h15v15h-15zM1215 840h15v15h-15zM1200 840h15v15h-15zM1320 825h15v15h-15zM1290 825h15v15h-15zM1275 825h15v15h-15zM1260 825h15v15h-15zM1245 825h15v15h-15zM1230 825h15v15h-15zM1335 810h15v15h-15zM1335 795h15v15h-15zM1320 810h15v15h-15zM1305 810h15v15h-15zM1290 810h15v15h-15zM1275 810h15v15h-15zM1245 810h15v15h-15zM1230 810h15v15h-15zM1305 795h15v15h-15zM1290 795h15v15h-15zM1260 795h15v15h-15zM1245 795h15v15h-15zM1230 795h15v15h-15zM1320 780h15v15h-15zM1305 780h15v15h-15zM1290 780h15v15h-15zM1230 780h15v15h-15zM1335 765h15v15h-15zM1335 780h15v15h-15zM1320 795h15v15h-15zM1320 765h15v15h-15zM1305 765h15v15h-15zM1290 765h15v15h-15zM1275 765h15v15h-15zM1320 750h15v15h-15zM1305 750h15v15h-15zM1290 750h15v15h-15zM1275 750h15v15h-15zM1200 750h15v15h-15zM1335 735h15v15h-15zM1320 735h15v15h-15zM1305 735h15v15h-15zM1260 750h15v15h-15zM1230 735h15v15h-15zM1200 735h15v15h-15zM1335 720h15v15h-15zM1320 720h15v15h-15zM1260 720h15v15h-15zM1230 720h15v15h-15zM1335 705h15v15h-15zM1320 705h15v15h-15zM1350 690h15v15h-15zM1260 705h15v15h-15zM1230 705h15v15h-15zM1410 840h15v15h-15zM1395 840h15v15h-15zM1380 840h15v15h-15zM1365 840h15v15h-15zM1350 840h15v15h-15z"/><path d="M1305 840h15v15h-15zM1290 840h15v15h-15zM1410 825h15v15h-15zM1380 825h15v15h-15zM1365 825h15v15h-15zM1350 825h15v15h-15zM1335 825h15v15h-15zM1320 825h15v15h-15zM1305 825h15v15h-15zM1305 810h15v15h-15zM1290 825h15v15h-15zM1425 810h15v15h-15zM1425 795h15v15h-15zM1410 810h15v15h-15zM1395 810h15v15h-15zM1380 810h15v15h-15zM1365 810h15v15h-15zM1350 810h15v15h-15zM1335 810h15v15h-15zM1320 810h15v15h-15zM1395 795h15v15h-15zM1380 795h15v15h-15zM1365 795h15v15h-15zM1350 795h15v15h-15zM1335 795h15v15h-15zM1320 795h15v15h-15zM1305 795h15v15h-15zM1290 795h15v15h-15zM1410 780h15v15h-15zM1395 780h15v15h-15zM1380 780h15v15h-15zM1335 780h15v15h-15zM1350 765h15v15h-15zM1350 780h15v15h-15z"/><path d="M1350 780h15v15h-15zM1320 780h15v15h-15zM1425 765h15v15h-15zM1425 780h15v15h-15zM1410 795h15v15h-15zM1410 765h15v15h-15zM1395 765h15v15h-15zM1380 765h15v15h-15zM1365 765h15v15h-15zM1365 780h15v15h-15zM1305 780h15v15h-15zM1290 765h15v15h-15zM1290 780h15v15h-15zM1260 780h15v15h-15zM1410 750h15v15h-15zM1395 750h15v15h-15zM1380 750h15v15h-15zM1365 750h15v15h-15zM1335 750h15v15h-15zM1320 750h15v15h-15zM1305 750h15v15h-15zM1290 750h15v15h-15zM1425 735h15v15h-15zM1425 750h15v15h-15zM1410 735h15v15h-15zM1395 735h15v15h-15zM1365 735h15v15h-15zM1350 735h15v15h-15zM1335 735h15v15h-15zM1320 735h15v15h-15zM1305 735h15v15h-15zM1290 735h15v15h-15zM1425 720h15v15h-15zM1410 720h15v15h-15zM1365 720h15v15h-15zM1350 720h15v15h-15zM1335 720h15v15h-15zM1320 720h15v15h-15zM1425 705h15v15h-15zM1410 705h15v15h-15zM1380 705h15v15h-15zM1395 720h15v15h-15zM1380 735h15v15h-15zM1365 705h15v15h-15zM1350 705h15v15h-15zM1335 705h15v15h-15zM1305 705h15v15h-15zM1290 720h15v15h-15zM1170 540h15v15h-15zM1110 540h15v15h-15zM1170 525h15v15h-15zM1140 525h15v15h-15zM1125 525h15v15h-15zM1110 525h15v15h-15zM1065 525h15v15h-15zM1110 510h15v15h-15zM1185 435h15v15h-15zM1185 405h15v15h-15zM1185 360h15v15h-15zM1185 285h15v15h-15zM1170 285h15v15h-15zM1185 270h15v15h-15zM1185 255h15v15h-15zM1425 390h15v15h-15zM1410 390h15v15h-15zM1350 390h15v15h-15zM1425 375h15v15h-15zM1410 375h15v15h-15zM1395 375h15v15h-15zM1380 375h15v15h-15zM1395 390h15v15h-15zM1380 390h15v15h-15zM1365 375h15v15h-15zM1365 360h15v15h-15zM1350 375h15v15h-15zM1335 375h15v15h-15zM1335 390h15v15h-15zM1350 405h15v15h-15zM1425 360h15v15h-15zM1410 360h15v15h-15zM1395 360h15v15h-15zM1380 360h15v15h-15zM1380 420h15v15h-15zM1380 435h15v15h-15zM1410 345h15v15h-15zM1425 330h15v15h-15zM1410 330h15v15h-15zM1395 345h15v15h-15zM1380 345h15v15h-15zM1365 345h15v15h-15zM1350 345h15v15h-15zM1395 330h15v15h-15zM1380 330h15v15h-15zM1425 315h15v15h-15zM1365 330h15v15h-15zM1410 315h15v15h-15zM1395 315h15v15h-15zM1365 315h15v15h-15zM1350 315h15v15h-15zM1350 330h15v15h-15zM1425 300h15v15h-15zM1395 300h15v15h-15zM1380 300h15v15h-15zM1365 300h15v15h-15zM1350 300h15v15h-15zM1335 300h15v15h-15zM1425 285h15v15h-15zM1410 285h15v15h-15zM1410 300h15v15h-15zM1395 285h15v15h-15zM1365 285h15v15h-15zM1350 285h15v15h-15zM1425 270h15v15h-15zM1410 270h15v15h-15zM1395 270h15v15h-15zM1380 270h15v15h-15zM1425 255h15v15h-15zM1410 255h15v15h-15zM1395 255h15v15h-15zM1380 255h15v15h-15zM1290 390h15v15h-15zM1275 390h15v15h-15zM1260 390h15v15h-15zM1215 390h15v15h-15zM1200 390h15v15h-15zM1320 375h15v15h-15zM1275 375h15v15h-15zM1260 375h15v15h-15zM1245 375h15v15h-15zM1230 375h15v15h-15zM1215 360h15v15h-15zM1200 375h15v15h-15zM1335 360h15v15h-15zM1335 345h15v15h-15zM1320 360h15v15h-15zM1305 360h15v15h-15zM1290 360h15v15h-15zM1305 375h15v15h-15zM1260 360h15v15h-15zM1245 360h15v15h-15zM1305 345h15v15h-15zM1290 345h15v15h-15zM1275 345h15v15h-15zM1260 345h15v15h-15zM1245 345h15v15h-15zM1230 345h15v15h-15zM1320 330h15v15h-15zM1290 330h15v15h-15zM1245 330h15v15h-15zM1335 315h15v15h-15zM1335 330h15v15h-15zM1320 315h15v15h-15zM1305 315h15v15h-15zM1290 315h15v15h-15zM1275 315h15v15h-15zM1260 315h15v15h-15zM1320 300h15v15h-15zM1305 300h15v15h-15zM1290 300h15v15h-15zM1275 300h15v15h-15zM1245 300h15v15h-15zM1230 300h15v15h-15zM1215 300h15v15h-15zM1335 285h15v15h-15zM1320 285h15v15h-15zM1305 285h15v15h-15zM1275 285h15v15h-15zM1260 285h15v15h-15zM1245 285h15v15h-15zM1215 285h15v15h-15zM1335 270h15v15h-15zM1320 270h15v15h-15zM1275 270h15v15h-15zM1260 270h15v15h-15zM1245 270h15v15h-15zM1230 270h15v15h-15zM1335 255h15v15h-15zM1320 255h15v15h-15zM1305 255h15v15h-15zM1290 255h15v15h-15zM1275 255h15v15h-15zM1260 255h15v15h-15zM1245 255h15v15h-15zM1320 240h15v15h-15zM1305 240h15v15h-15zM1290 240h15v15h-15zM1275 240h15v15h-15zM1260 240h15v15h-15zM1200 240h15v15h-15zM1320 225h15v15h-15zM1290 225h15v15h-15zM1275 225h15v15h-15zM1260 225h15v15h-15zM1245 225h15v15h-15zM1230 225h15v15h-15zM1200 225h15v15h-15zM1335 210h15v15h-15zM1335 195h15v15h-15zM1320 210h15v15h-15zM1305 210h15v15h-15zM1290 210h15v15h-15zM1275 210h15v15h-15zM1260 210h15v15h-15zM1230 210h15v15h-15zM1305 195h15v15h-15zM1290 195h15v15h-15zM1275 195h15v15h-15zM1260 195h15v15h-15zM1245 195h15v15h-15zM1215 195h15v15h-15zM1320 180h15v15h-15zM1305 180h15v15h-15zM1290 180h15v15h-15zM1230 180h15v15h-15zM1245 180h15v15h-15zM1335 165h15v15h-15zM1335 180h15v15h-15zM1320 195h15v15h-15zM1320 165h15v15h-15zM1305 165h15v15h-15zM1290 165h15v15h-15zM1275 165h15v15h-15zM1200 165h15v15h-15zM1320 150h15v15h-15zM1305 150h15v15h-15zM1290 150h15v15h-15zM1245 150h15v15h-15zM1230 150h15v15h-15zM1215 150h15v15h-15zM1185 150h15v15h-15zM1335 135h15v15h-15zM1320 135h15v15h-15zM1305 135h15v15h-15zM1275 135h15v15h-15zM1260 135h15v15h-15zM1260 150h15v15h-15zM1215 135h15v15h-15zM1200 135h15v15h-15zM1335 120h15v15h-15zM1320 120h15v15h-15zM1275 120h15v15h-15zM1230 120h15v15h-15zM1335 105h15v15h-15zM1320 105h15v15h-15zM1305 105h15v15h-15zM1290 105h15v15h-15zM1305 120h15v15h-15zM1290 120h15v15h-15zM270 840h15v15h-15zM255 840h15v15h-15zM255 825h15v15h-15zM240 825h15v15h-15zM210 825h15v15h-15zM165 825h15v15h-15zM150 840h15v15h-15zM270 825h15v15h-15zM225 810h15v15h-15zM210 810h15v15h-15zM195 810h15v15h-15zM180 810h15v15h-15zM165 795h15v15h-15zM150 810h15v15h-15zM285 810h15v15h-15zM285 795h15v15h-15zM270 810h15v15h-15zM255 810h15v15h-15zM240 795h15v15h-15zM225 795h15v15h-15zM210 795h15v15h-15zM195 795h15v15h-15zM255 795h15v15h-15zM240 780h15v15h-15zM225 780h15v15h-15zM210 780h15v15h-15zM195 780h15v15h-15zM150 780h15v15h-15zM270 780h15v15h-15zM255 780h15v15h-15zM240 765h15v15h-15zM195 765h15v15h-15zM285 765h15v15h-15zM285 780h15v15h-15zM270 795h15v15h-15zM270 765h15v15h-15zM255 765h15v15h-15zM240 750h15v15h-15zM225 750h15v15h-15zM165 765h15v15h-15zM150 750h15v15h-15zM150 765h15v15h-15zM270 750h15v15h-15zM240 735h15v15h-15zM150 735h15v15h-15zM285 735h15v15h-15zM270 735h15v15h-15zM255 735h15v15h-15zM180 720h15v15h-15zM165 720h15v15h-15zM180 705h15v15h-15zM255 705h15v15h-15zM420 840h15v15h-15zM405 840h15v15h-15zM390 840h15v15h-15zM375 840h15v15h-15zM360 840h15v15h-15zM315 870h15v15h-15zM420 825h15v15h-15zM420 810h15v15h-15zM405 825h15v15h-15zM435 840h15v15h-15zM435 825h15v15h-15zM450 855h15v15h-15zM450 840h15v15h-15zM450 825h15v15h-15zM390 825h15v15h-15zM375 825h15v15h-15zM360 825h15v15h-15zM345 825h15v15h-15zM330 825h15v15h-15zM315 825h15v15h-15zM315 810h15v15h-15zM300 810h15v15h-15zM300 825h15v15h-15zM285 840h15v15h-15zM285 825h15v15h-15zM435 810h15v15h-15zM405 810h15v15h-15zM390 810h15v15h-15zM375 810h15v15h-15zM360 810h15v15h-15zM345 810h15v15h-15zM330 810h15v15h-15zM405 795h15v15h-15zM375 795h15v15h-15zM360 795h15v15h-15zM345 795h15v15h-15zM330 795h15v15h-15zM315 795h15v15h-15zM300 795h15v15h-15zM420 780h15v15h-15zM405 780h15v15h-15zM390 780h15v15h-15zM330 780h15v15h-15zM435 765h15v15h-15zM435 780h15v15h-15zM420 795h15v15h-15zM420 765h15v15h-15zM405 765h15v15h-15zM390 765h15v15h-15zM375 765h15v15h-15zM315 780h15v15h-15zM345 765h15v15h-15zM360 780h15v15h-15zM315 765h15v15h-15zM300 765h15v15h-15zM300 780h15v15h-15zM420 750h15v15h-15zM405 750h15v15h-15zM390 750h15v15h-15zM375 750h15v15h-15zM345 750h15v15h-15zM330 750h15v15h-15zM315 750h15v15h-15zM285 750h15v15h-15zM435 735h15v15h-15zM420 735h15v15h-15zM405 735h15v15h-15zM375 735h15v15h-15zM360 735h15v15h-15zM360 750h15v15h-15zM345 735h15v15h-15zM330 735h15v15h-15zM315 735h15v15h-15zM300 735h15v15h-15zM435 720h15v15h-15zM420 720h15v15h-15zM375 720h15v15h-15zM360 720h15v15h-15zM345 720h15v15h-15zM330 720h15v15h-15zM315 720h15v15h-15zM435 705h15v15h-15zM420 705h15v15h-15zM405 705h15v15h-15zM390 705h15v15h-15zM375 705h15v15h-15zM360 705h15v15h-15zM345 705h15v15h-15zM330 705h15v15h-15zM435 0v15h-15V0zM420 0v15h-15V0zM405 0v15h-15V0zM390 0v15h-15V0zM375 0v15h-15V0zM420 90v15h-15V90zM405 90v15h-15V90zM390 90v15h-15V90zM375 90v15h-15V90zM435 15v15h-15V15zM435 30v15h-15V30zM405 30v15h-15V30zM405 45v15h-15V45zM405 60v15h-15V60zM390 60v15h-15V60zM390 45v15h-15V45zM390 30v15h-15V30zM375 60v15h-15V60zM375 45v15h-15V45zM375 30v15h-15V30zM435 45v15h-15V45zM435 60v15h-15V60zM435 75v15h-15V75zM435 90v15h-15V90zM360 0v15h-15V0zM360 90v15h-15V90zM345 0v15h-15V0zM315 15v15h-15V15zM300 0v15h-15V0zM285 0v15h-15V0zM315 30v15h-15V30zM300 30v15h-15V30zM300 45v15h-15V45zM285 45v15h-15V45zM270 30v15h-15V30zM255 15v15h-15V15zM255 0v15h-15V0zM240 15v15h-15V15zM240 0v15h-15V0zM225 15v15h-15V15zM225 30v15h-15V30zM225 45v15h-15V45zM240 45v15h-15V45zM255 60v15h-15V60zM240 75v15h-15V75zM225 75v15h-15V75zM210 60v15h-15V60zM195 45v15h-15V45zM195 30v15h-15V30zM180 30v15h-15V30zM180 60v15h-15V60zM165 75v15h-15V75zM135 60v15h-15V60zM135 75v15h-15V75zM135 90v15h-15V90zM165 90v15h-15V90zM165 105v15h-15v-15zM165 120v15h-15v-15zM165 45v15h-15V45zM150 45v15h-15V45zM165 15v15h-15V15zM150 15v15h-15V15zM135 30v15h-15V30zM165 0v15h-15V0zM210 15v15h-15V15zM225 0v15h-15V0zM285 60v15h-15V60zM285 75v15h-15V75zM285 90v15h-15V90zM300 75v15h-15V75zM315 90v15h-15V90zM315 105v15h-15v-15zM330 120v15h-15v-15zM360 120v15h-15v-15zM375 120v15h-15v-15zM375 135v15h-15v-15zM390 135v15h-15v-15zM405 120v15h-15v-15zM405 135v15h-15v-15zM420 135v15h-15v-15zM435 135v15h-15v-15zM435 150v15h-15v-15zM435 165v15h-15v-15zM435 180v15h-15v-15zM435 195v15h-15v-15zM435 210v15h-15v-15zM420 225v15h-15v-15zM420 240v15h-15v-15zM435 240v15h-15v-15zM435 255v15h-15v-15zM435 270v15h-15v-15zM420 285v15h-15v-15zM405 270v15h-15v-15zM390 270v15h-15v-15zM375 255v15h-15v-15zM360 255v15h-15v-15zM345 240v15h-15v-15zM330 225v15h-15v-15zM330 240v15h-15v-15zM315 240v15h-15v-15zM360 300v15h-15v-15zM345 300v15h-15v-15zM390 300v15h-15v-15zM375 300v15h-15v-15zM330 300v15h-15v-15zM360 360v15h-15v-15zM360 375v15h-15v-15zM345 360v15h-15v-15zM390 345v15h-15v-15zM375 345v15h-15v-15zM375 360v15h-15v-15zM375 315v15h-15v-15zM375 330v15h-15v-15zM435 345v15h-15v-15zM420 345v15h-15v-15zM435 315v15h-15v-15zM435 360v15h-15v-15zM420 375v15h-15v-15zM420 390v15h-15v-15zM405 390v15h-15v-15zM390 405v15h-15v-15zM375 420v15h-15v-15zM360 405v15h-15v-15zM345 405v15h-15v-15zM420 405v15h-15v-15zM420 420v15h-15v-15zM435 390v15h-15v-15zM435 405v15h-15v-15zM420 330v15h-15v-15zM405 315v15h-15v-15zM435 330v15h-15v-15zM345 330v15h-15v-15zM330 360v15h-15v-15zM300 225v15h-15v-15zM300 240v15h-15v-15zM300 255v15h-15v-15zM300 270v15h-15v-15zM300 285v15h-15v-15zM315 285v15h-15v-15zM315 300v15h-15v-15zM315 315v15h-15v-15zM315 330v15h-15v-15zM315 345v15h-15v-15zM315 360v15h-15v-15zM300 315v15h-15v-15zM285 315v15h-15v-15zM300 330v15h-15v-15zM300 345v15h-15v-15zM300 360v15h-15v-15zM285 345v15h-15v-15zM270 330v15h-15v-15zM270 345v15h-15v-15zM255 330v15h-15v-15zM255 315v15h-15v-15zM255 345v15h-15v-15zM270 285v15h-15v-15zM270 300v15h-15v-15zM255 285v15h-15v-15zM255 300v15h-15v-15zM195 270v15h-15v-15zM195 255v15h-15v-15zM195 225v15h-15v-15zM195 240v15h-15v-15zM150 240v15h-15v-15zM150 210v15h-15v-15zM150 225v15h-15v-15zM135 195v15h-15v-15zM120 195v15h-15v-15zM105 180v15H90v-15zM105 210v15H90v-15zM120 225v15h-15v-15zM105 240v15H90v-15zM135 210v15h-15v-15zM240 270v15h-15v-15zM240 285v15h-15v-15zM225 285v15h-15v-15zM210 285v15h-15v-15zM210 300v15h-15v-15zM195 300v15h-15v-15zM210 330v15h-15v-15zM195 330v15h-15v-15zM180 315v15h-15v-15zM180 300v15h-15v-15zM180 270v15h-15v-15zM180 255v15h-15v-15zM165 270v15h-15v-15zM165 240v15h-15v-15zM180 210v15h-15v-15zM150 270v15h-15v-15zM150 255v15h-15v-15zM150 300v15h-15v-15zM150 285v15h-15v-15zM120 255v15h-15v-15zM120 285v15h-15v-15zM120 270v15h-15v-15zM90 225v15H75v-15zM90 240v15H75v-15zM75 225v15H60v-15zM75 240v15H60v-15zM75 255v15H60v-15zM60 270v15H45v-15zM60 285v15H45v-15zM45 270v15H30v-15zM45 285v15H30v-15zM75 285v15H60v-15zM75 300v15H60v-15zM105 270v15H90v-15zM120 300v15h-15v-15zM150 330v15h-15v-15zM165 330v15h-15v-15zM165 345v15h-15v-15zM180 345v15h-15v-15zM195 345v15h-15v-15zM195 360v15h-15v-15zM195 375v15h-15v-15zM180 360v15h-15v-15zM165 375v15h-15v-15zM150 375v15h-15v-15zM180 420v15h-15v-15zM165 420v15h-15v-15zM135 406v15h-15v-15zM135 360v15h-15v-15zM150 315v15h-15v-15zM135 300v15h-15v-15zM90 300v15H75v-15zM105 300v15H90v-15zM15 300v15H0v-15zM30 300v15H15v-15zM45 300v15H30v-15zM135 315v15h-15v-15zM240 345v15h-15v-15zM240 330v15h-15v-15zM240 360v15h-15v-15zM225 345v15h-15v-15zM225 360v15h-15v-15zM210 375v15h-15v-15zM210 390v15h-15v-15zM255 375v15h-15v-15zM270 375v15h-15v-15zM255 390v15h-15v-15zM240 315v15h-15v-15zM285 360v15h-15v-15zM330 390v15h-15v-15zM315 390v15h-15v-15zM300 390v15h-15v-15zM300 405v15h-15v-15zM285 390v15h-15v-15zM285 405v15h-15v-15zM270 405v15h-15v-15zM255 420v15h-15v-15zM240 420v15h-15v-15zM210 420v15h-15v-15zM195 405v15h-15v-15zM270 420v15h-15v-15zM300 420v15h-15v-15zM330 405v15h-15v-15zM330 420v15h-15v-15zM315 420v15h-15v-15zM285 255v15h-15v-15zM315 210v15h-15v-15zM420 300v15h-15v-15zM420 165v15h-15v-15zM405 150v15h-15v-15zM390 150v15h-15v-15zM390 165v15h-15v-15zM375 150v15h-15v-15zM375 165v15h-15v-15zM390 180v15h-15v-15zM405 195v15h-15v-15zM360 165v15h-15v-15zM360 180v15h-15v-15zM330 150v15h-15v-15zM330 165v15h-15v-15zM315 180v15h-15v-15zM300 180v15h-15v-15zM270 180v15h-15v-15zM270 195v15h-15v-15zM285 195v15h-15v-15zM240 210v15h-15v-15zM255 210v15h-15v-15zM255 240v15h-15v-15zM225 195v15h-15v-15zM240 195v15h-15v-15zM225 255v15h-15v-15zM225 240v15h-15v-15zM285 210v15h-15v-15zM315 135v15h-15v-15zM300 135v15h-15v-15zM255 135v15h-15v-15zM285 150v15h-15v-15zM270 150v15h-15v-15zM285 165v15h-15v-15zM270 165v15h-15v-15zM255 165v15h-15v-15zM240 165v15h-15v-15zM225 165v15h-15v-15zM210 165v15h-15v-15zM195 165v15h-15v-15zM195 180v15h-15v-15zM165 150v15h-15v-15zM180 165v15h-15v-15zM165 180v15h-15v-15zM150 165v15h-15v-15zM150 180v15h-15v-15zM315 150v15h-15v-15zM375 195v15h-15v-15zM375 210v15h-15v-15zM390 225v15h-15v-15zM360 225v15h-15v-15zM345 195v15h-15v-15zM300 105v15h-15v-15zM285 105v15h-15v-15zM285 120v15h-15v-15zM270 105v15h-15v-15zM255 90v15h-15V90zM240 105v15h-15v-15zM225 90v15h-15V90zM225 105v15h-15v-15zM210 105v15h-15v-15zM195 120v15h-15v-15zM195 135v15h-15v-15zM180 135v15h-15v-15zM165 135v15h-15v-15zM150 120v15h-15v-15zM150 135v15h-15v-15zM135 120v15h-15v-15zM135 135v15h-15v-15zM135 150v15h-15v-15zM120 150v15h-15v-15zM105 150v15H90v-15zM105 120v15H90v-15zM75 120v15H60v-15zM30 120v15H15v-15zM30 135v15H15v-15zM15 135v15H0v-15zM30 150v15H15v-15zM30 165v15H15v-15zM15 165v15H0v-15zM45 165v15H30v-15zM90 165v15H75v-15zM60 180v15H45v-15zM60 195v15H45v-15zM75 195v15H60v-15zM45 195v15H30v-15zM30 210v15H15v-15zM45 225v15H30v-15zM45 240v15H30v-15zM30 240v15H15v-15zM45 255v15H30v-15zM30 255v15H15v-15zM15 255v15H0v-15zM15 210v15H0v-15zM15 225v15H0v-15zM75 135v15H60v-15zM210 135v15h-15v-15zM195 90v15h-15V90zM225 120v15h-15v-15zM345 15v15h-15V15zM345 30v15h-15V30zM345 45v15h-15V45zM345 60v15h-15V60zM345 75v15h-15V75zM345 90v15h-15V90zM105 0v15H90V0zM90 0v15H75V0zM75 0v15H60V0zM60 0v15H45V0zM45 0v15H30V0zM90 90v15H75V90zM75 90v15H60V90zM60 90v15H45V90zM45 90v15H30V90zM105 15v15H90V15zM105 30v15H90V30zM75 30v15H60V30zM75 45v15H60V45zM75 60v15H60V60zM60 60v15H45V60zM60 45v15H45V45zM60 30v15H45V30zM45 60v15H30V60zM45 45v15H30V45zM45 30v15H30V30zM105 45v15H90V45zM105 60v15H90V60zM105 75v15H90V75zM105 90v15H90V90zM30 0v15H15V0zM30 90v15H15V90zM15 0v15H0V0zM15 15v15H0V15zM15 30v15H0V30zM15 45v15H0V45zM15 60v15H0V60zM15 75v15H0V75zM15 90v15H0V90zM105 330v15H90v-15zM90 330v15H75v-15zM75 330v15H60v-15zM60 330v15H45v-15zM45 330v15H30v-15zM90 420v15H75v-15zM75 420v15H60v-15zM60 420v15H45v-15zM45 420v15H30v-15zM105 345v15H90v-15zM105 360v15H90v-15zM75 360v15H60v-15zM75 375v15H60v-15zM75 390v15H60v-15zM60 390v15H45v-15zM60 375v15H45v-15zM60 360v15H45v-15zM45 390v15H30v-15zM45 375v15H30v-15zM45 360v15H30v-15zM105 375v15H90v-15zM105 390v15H90v-15zM105 405v15H90v-15zM105 420v15H90v-15zM30 330v15H15v-15zM30 420v15H15v-15zM15 330v15H0v-15zM15 345v15H0v-15zM15 360v15H0v-15zM15 375v15H0v-15zM15 390v15H0v-15zM15 405v15H0v-15zM15 420v15H0v-15zM1425 240h15v15h-15zM1410 240h15v15h-15zM1395 240h15v15h-15zM1365 240h15v15h-15zM1350 240h15v15h-15zM1425 225h15v15h-15zM1410 225h15v15h-15zM1395 225h15v15h-15zM1380 240h15v15h-15zM1380 225h15v15h-15zM1365 225h15v15h-15zM1365 210h15v15h-15zM1350 225h15v15h-15zM1350 270h15v15h-15zM1350 255h15v15h-15zM1425 210h15v15h-15zM1410 210h15v15h-15zM1395 210h15v15h-15zM1350 210h15v15h-15zM1425 195h15v15h-15zM1410 195h15v15h-15zM1395 195h15v15h-15zM1380 195h15v15h-15zM1365 195h15v15h-15zM1350 195h15v15h-15zM1425 180h15v15h-15zM1410 180h15v15h-15zM1395 180h15v15h-15zM1425 165h15v15h-15zM1410 165h15v15h-15zM1395 165h15v15h-15zM1380 165h15v15h-15zM1350 165h15v15h-15zM1425 150h15v15h-15zM1395 150h15v15h-15zM1380 150h15v15h-15zM1350 150h15v15h-15zM1335 150h15v15h-15zM1425 135h15v15h-15zM1410 135h15v15h-15zM1410 150h15v15h-15zM1380 180h15v15h-15zM1365 180h15v15h-15zM1350 180h15v15h-15zM1395 135h15v15h-15zM1365 135h15v15h-15zM1350 135h15v15h-15zM1425 120h15v15h-15zM1410 120h15v15h-15zM1380 120h15v15h-15zM1365 120h15v15h-15zM1425 105h15v15h-15zM1410 105h15v15h-15zM1395 105h15v15h-15zM1380 105h15v15h-15zM1350 105h15v15h-15zM1425 90h15v15h-15zM1410 90h15v15h-15zM1410 75h15v15h-15zM1395 90h15v15h-15zM1395 75h15v15h-15zM1425 60h15v15h-15zM1425 45h15v15h-15zM1410 60h15v15h-15zM1365 90h15v15h-15zM1380 75h15v15h-15z"/></g></svg>