<svg xmlns="http://www.w3.org/2000/svg" viewBox="0 0 490 165">
<path fill="#2db7b8" fill-rule="evenodd" d="M137.947 74.53q.265.96.343 2.37a60 60 0 0 1 1.953-.985 19 19 0 0 1 2.325-.926q1.246-.405 2.602-.678a14 14 0 0 1 2.748-.277q2.372-.001 4.176.75c1.203.504 2.252 1.342 3.134 2.516q5.782-3.268 10.984-3.266c1.465 0 2.74.248 3.834.736q1.628.735 2.69 2.027c.699.853 1.224 1.874 1.573 3.033.35 1.167.518 2.414.518 3.748v22.18h-4.57V84.014c0-1.064-.138-1.983-.423-2.763-.277-.78-.67-1.436-1.166-1.954a4.7 4.7 0 0 0-1.764-1.16 6.1 6.1 0 0 0-2.172-.378q-4.187.002-8.177 2.136c.247 1.137.379 2.391.379 3.762v22.092h-4.57V84.066q.002-3.237-1.429-4.768c-.955-1.02-2.332-1.531-4.147-1.531-1.465 0-2.908.226-4.337.678a25.5 25.5 0 0 0-3.986 1.633v25.68h-4.563V78.174a34 34 0 0 0-.233-3.645zm43.746 3.704a13.5 13.5 0 0 1 2.5-1.794c.954-.54 1.968-.999 3.039-1.393a20 20 0 0 1 3.324-.882 19.5 19.5 0 0 1 3.425-.299c3.2 0 5.743.795 7.631 2.399q2.834 2.404 2.835 6.679v13.911c0 1.137.037 2.07.117 2.807.073.736.219 1.312.415 1.735.197.423.474.722.81.883.335.16.765.247 1.29.247.656 0 1.319-.065 1.99-.204l.72 2.115c-.517.503-1.26.904-2.215 1.21s-1.982.467-3.076.467q-1.815-.001-2.93-1.284c-.743-.86-1.217-2.085-1.428-3.689q-2.458 2.286-5.364 3.631-2.909 1.344-6.232 1.342-1.824.002-3.397-.533a8.1 8.1 0 0 1-2.733-1.545 7.1 7.1 0 0 1-1.807-2.487c-.438-.984-.649-2.1-.649-3.353 0-1.677.328-3.136.97-4.368a10 10 0 0 1 2.558-3.15c1.056-.867 2.281-1.574 3.658-2.114a27.3 27.3 0 0 1 4.279-1.276 33 33 0 0 1 4.41-.62 59 59 0 0 1 4.045-.16v-3.208c0-2.042-.533-3.529-1.59-4.455q-1.586-1.387-4.453-1.385-1.617 0-3.017.372a15 15 0 0 0-2.617.955 16 16 0 0 0-2.223 1.276c-.678.459-1.282.904-1.822 1.327l-2.456-3.15zm18.185 10.987c-2.624.059-4.877.292-6.764.715q-2.832.621-4.658 1.691-1.825 1.072-2.689 2.516a6.1 6.1 0 0 0-.867 3.179q-.002 2.458 1.384 3.616 1.389 1.16 3.849 1.16 1.323.002 2.645-.292a16.4 16.4 0 0 0 4.942-1.954c.758-.452 1.48-.94 2.15-1.466v-9.165zM217.93 74.53q.208.755.306 2.012.1 1.258.102 3.281c1.487-1.772 3.222-3.179 5.219-4.221s4.074-1.56 6.232-1.56c.247 0 .517.021.794.058.277.036.488.08.62.116l-.984 4.769c-.576-.154-1.312-.234-2.194-.234-2.566 0-4.694.584-6.392 1.736-1.691 1.159-2.785 2.296-3.266 3.412v21.858h-4.562V78.84c-.044-2.486-.095-3.923-.175-4.31h4.307zm22.194 11.629 12.98-11.797h5.547l-12.456 11.542 13.04 19.693h-5.409l-10.634-17.12-3.068 2.487v14.633h-4.57V60.254h4.57v25.912zm45.764 13.853a16.6 16.6 0 0 1-4.985 4.411q-2.93 1.694-7.675 1.692c-4.089 0-7.369-1.451-9.854-4.353s-3.732-6.992-3.732-12.278c0-4.608 1.13-8.363 3.382-11.258 2.252-2.902 5.561-4.352 9.913-4.352q5.518.002 8.731 3.033c2.136 2.027 3.346 4.848 3.615 8.472a35 35 0 0 1 .088 4.309h-20.933c0 3.456.795 6.416 2.369 8.895q2.373 3.718 6.472 3.718 2.974 0 5.204-1.246c1.487-.831 2.85-2.064 4.104-3.704l3.294 2.661zm-13.01-22.559c-2.711 0-4.766.926-6.159 2.793-1.384 1.86-2.128 3.966-2.223 6.321h16.217c-.08-2.486-.692-4.63-1.85-6.423-1.16-1.794-3.15-2.69-5.985-2.69m23.141-3.098c.175.634.284 1.429.35 2.37a49 49 0 0 1 1.953-.978 19 19 0 0 1 2.325-.926q1.247-.404 2.602-.678a14 14 0 0 1 2.748-.277q2.373-.002 4.177.751 1.801.755 3.134 2.516c3.833-2.18 7.492-3.267 10.962-3.267 1.464 0 2.74.24 3.833.737q1.63.734 2.69 2.027c.7.86 1.224 1.866 1.574 3.033s.518 2.413.518 3.747v22.18h-4.57V83.84c0-1.057-.139-1.975-.416-2.763q-.417-1.168-1.173-1.954a4.66 4.66 0 0 0-1.764-1.152 6.2 6.2 0 0 0-2.165-.379c-2.791 0-5.517.715-8.156 2.136.248 1.138.38 2.392.38 3.762v22.092h-4.57v-21.69c0-2.159-.474-3.748-1.43-4.776-.954-1.02-2.339-1.531-4.146-1.531q-2.195 0-4.337.678a25.5 25.5 0 0 0-3.987 1.633v25.68h-4.57v-27.59a34 34 0 0 0-.233-3.646h4.279zm65.196 0h4.57v31.227h-4.57zm16.26 0c.168.634.285 1.429.343 2.37a49 49 0 0 1 1.954-.978q1.08-.523 2.325-.926c.823-.27 1.698-.495 2.602-.678a14 14 0 0 1 2.747-.277q2.373-.002 4.177.751c1.202.503 2.252 1.342 3.134 2.516q5.781-3.269 10.983-3.267c1.465 0 2.74.24 3.827.737q1.628.734 2.69 2.027c.706.86 1.231 1.866 1.574 3.033a13.2 13.2 0 0 1 .517 3.747v22.18h-4.57V83.84c0-1.057-.138-1.975-.415-2.763-.284-.78-.67-1.429-1.174-1.954a4.7 4.7 0 0 0-1.763-1.152c-.671-.248-1.4-.379-2.165-.379-2.792 0-5.525.715-8.185 2.136.248 1.138.379 2.392.379 3.762v22.092h-4.57v-21.69c0-2.159-.474-3.748-1.429-4.776-.954-1.02-2.34-1.531-4.147-1.531q-2.196 0-4.336.678a25.5 25.5 0 0 0-3.987 1.633v25.68h-4.57v-27.59a34 34 0 0 0-.233-3.646h4.278zm79.875.007v34.786h.022c0 3.106-.896 5.468-2.69 7.101-1.792 1.633-4.19 2.443-7.2 2.443-.35 0-.736-.007-1.174-.03a11 11 0 0 1-.852-.058l.371-4.054c.175.037.38.066.62.073.24.008.459.015.648.015 1.422 0 2.734-.452 3.914-1.356 1.188-.904 1.779-2.545 1.779-4.914V74.362zm-24.365-.335c3.2 0 5.743.802 7.631 2.398s2.835 3.828 2.835 6.679v13.911c0 1.138.037 2.071.117 2.807.08.737.218 1.313.423 1.736.196.423.466.714.801.882.343.16.766.248 1.29.248a10 10 0 0 0 1.997-.204l.722 2.114c-.518.503-1.254.904-2.208 1.218-.955.306-1.983.46-3.076.46q-1.824 0-2.937-1.291c-.744-.86-1.225-2.086-1.436-3.69q-2.458 2.286-5.365 3.631t-6.231 1.342q-1.824-.001-3.397-.54a8.1 8.1 0 0 1-2.733-1.545 7.1 7.1 0 0 1-1.807-2.487c-.438-.984-.65-2.1-.65-3.354 0-1.677.322-3.127.97-4.367a10 10 0 0 1 2.558-3.15c1.057-.867 2.274-1.567 3.66-2.107a27.3 27.3 0 0 1 4.278-1.276 33 33 0 0 1 4.41-.62q2.197-.162 4.044-.16v-3.208c0-2.049-.524-3.529-1.589-4.455-1.056-.926-2.543-1.385-4.453-1.385-1.079 0-2.084.124-3.025.379a15 15 0 0 0-2.616.955q-1.215.579-2.23 1.276c-.678.46-1.283.904-1.823 1.327l-2.456-3.15h.015a13.5 13.5 0 0 1 2.5-1.793c.955-.54 1.96-1 3.032-1.393a20.3 20.3 0 0 1 6.749-1.188m5.904 15.362c-2.624.058-4.884.292-6.771.707-1.888.416-3.44.977-4.65 1.692q-1.826 1.071-2.69 2.515a6.07 6.07 0 0 0-.867 3.18q.002 2.459 1.392 3.615 1.388 1.16 3.848 1.16 1.323.002 2.646-.292 1.312-.286 2.558-.78a16 16 0 0 0 2.383-1.174c.759-.452 1.48-.94 2.15-1.458zm49.656 10.79a16.6 16.6 0 0 1-4.985 4.412q-2.93 1.693-7.675 1.691c-4.089 0-7.369-1.45-9.854-4.352s-3.732-6.993-3.732-12.271q.002-6.912 3.382-11.265c2.252-2.902 5.561-4.353 9.913-4.353 3.68 0 6.588 1.014 8.731 3.033q3.213 3.039 3.615 8.473.175 2.045.088 4.309h-20.926c0 3.448.788 6.416 2.37 8.895q2.369 3.708 6.479 3.71 2.973-.002 5.204-1.239 2.222-1.244 4.103-3.703l3.295 2.66zm-13.01-22.55c-2.711 0-4.774.925-6.159 2.792-1.384 1.86-2.128 3.966-2.223 6.314h16.217c-.072-2.486-.692-4.63-1.85-6.416-1.16-1.794-3.15-2.69-5.985-2.69m-115.253-10.63c0-.737.27-1.423.802-2.042q.798-.94 2.12-.941c.883 0 1.553.314 2.07.94.525.628.788 1.306.788 2.042 0 .824-.284 1.517-.86 2.093q-.863.862-1.997.86c-.758 0-1.465-.284-2.048-.86a2.83 2.83 0 0 1-.875-2.093m91.551.05c0-.736.27-1.422.802-2.049q.798-.94 2.12-.94c.883 0 1.553.313 2.078.94s.787 1.305.787 2.05c0 .816-.284 1.516-.86 2.092q-.862.862-1.997.86c-.758 0-1.458-.292-2.04-.86a2.82 2.82 0 0 1-.883-2.093zM351.828 92.633c0 1.116-.626 2.02-1.399 2.02h-6.217c-.773 0-1.4-.904-1.4-2.02V87.69c0-1.115.627-2.012 1.4-2.012h6.217c.773 0 1.4.904 1.4 2.012zm-297.17-64.42c29.836-.115 54.172 23.752 54.77 53.49l.01.895c.11 30.156-24.227 54.69-54.372 54.807C24.92 137.521.395 113.162.285 83.013c-.109-30.148 24.227-54.69 54.373-54.8M29.206 63.524H20.68c-1.757 0-3.171 1.655-3.171 3.69v38.7c0 2.042 1.414 3.69 3.17 3.69h8.528c1.75 0 3.17-1.655 3.17-3.69v-38.7c0-2.035-1.42-3.69-3.17-3.69m18.76 0H39.44c-1.75 0-3.17 1.655-3.17 3.69v38.7c0 2.042 1.42 3.69 3.17 3.69h8.528c1.742 0 3.17-1.655 3.17-3.69v-38.7c0-2.035-1.421-3.69-3.17-3.69m18.87-.014H58.31c-1.742 0-3.163 1.655-3.163 3.689v38.708c0 2.042 1.421 3.69 3.163 3.69h8.528c1.749 0 3.17-1.655 3.17-3.69V67.2c0-2.034-1.421-3.69-3.17-3.69m18.878 0h-8.52c-1.75 0-3.17 1.655-3.17 3.689v38.708c0 2.042 1.413 3.69 3.17 3.69h8.52c1.756 0 3.178-1.655 3.178-3.69V67.2c0-2.034-1.429-3.69-3.178-3.69m-1.057-17.426H78.28c-2.515.211-4.162 2.42-4.257 4.229v5.855c.066 2.23 2.121 4.024 4.147 4.228h6.414c1.99-.116 4.104-1.706 4.308-4.236l-.015-5.905c0-1.62-1.669-3.967-4.22-4.171"/>
</svg>