<svg xmlns="http://www.w3.org/2000/svg" viewBox="0 0 1024 167">
<g fill="none" fill-rule="evenodd">
<path fill="#4a4c51" d="m83.706 0 72.491 41.853v83.706l-72.491 41.852-72.492-41.852V41.853z"/>
<path fill="#e7e7e9" d="m83.706 24.017 51.692 29.844v59.689l-51.692 29.845-51.692-29.845V53.861z"/>
<path fill="#2db7b8" d="m83.635 29.385 46.982 27.125v54.25l-46.982 27.125-46.982-27.125V56.51z"/>
<path fill="#155151" fill-rule="nonzero" d="M96.913 77.818v7.532h-3.756v3.789h3.756v3.79h-3.756v-3.79h-3.799v7.535h7.555v3.79h-7.555v7.531h3.799v7.536H81.808v-3.747l1.887-.013 1.89-.008.01-3.755.012-3.755h-3.799v3.742H78.01v-7.531h-3.756v11.32h3.756v7.536h-3.751l-.013-1.886-.013-1.882h-7.55v7.531l3.773.026v-3.79h3.798v3.79h3.756v3.742h-3.756v3.79h7.554v-3.79h3.8v-7.531h11.305v7.531h3.798v-11.32h-3.798v-7.536h3.798v-11.32h3.799v3.789h3.751v-3.79h7.602l-.013-3.759-.013-3.755-1.887-.008-1.89-.013v-7.531H100.71v-3.79zm-60.464 26.435v26.388h26.457v-26.388zm52.91 18.856v3.742h3.798v-3.742zm-30.433-14.934v18.496h-18.54l.012-9.237.009-9.237 9.26-.009zM78.01 119.32h3.798v3.79H78.01zm26.5-15.067v18.856l25.642-14.808v-4.048zm22.473 3.922L108.468 119.7v-11.503l9.26-.009zm-33.826-3.922h3.756v3.742h-3.756zm-26.5 0v3.742h3.799v-3.742zM81.808 85.35v3.789H70.456v7.535h7.554v3.79h7.597l-.013-1.886-.008-1.882-1.891-.013-1.887-.013v-3.742l1.887-.013 1.89-.008V85.37l-1.89-.009zm37.806-3.742v15.066h3.798v-3.746h3.752v7.536h2.386V89.139h-2.386v-7.531zm-83.165 0v11.32h3.756v7.536h11.348v-3.79h7.554v3.79h11.349v-3.79H59.107V89.14h-7.554v-3.79l-1.886.013-1.887.009-.013 3.78-.013 3.777h-3.75v-3.79h-3.8v-7.53zm68.06 3.789h3.752v3.742h3.799v3.79h-3.799v3.745h-3.751v-3.746h-3.799v-3.79h3.799v3.79h3.751v-3.79h-3.751zM59.13 47.659l-.009 1.886-.013 1.881h-7.554v18.857h-3.799v-3.79h-3.75v7.579h3.75v3.742l3.79.013 3.786.013.013 3.776.013 3.78h7.55v7.532l1.886-.013 1.89-.008V85.37l-1.89-.009-1.886-.012v-3.742h-3.799l.013-1.887.009-1.881 7.528-.026v3.794H78.01v-7.536h-3.756v-3.79h-3.798v-11.32h3.798v3.79h3.756v-7.536h-3.756v-3.79h-7.55l-.012-1.881-.01-1.886zm37.784 37.738h3.798v3.742h-3.798zm32.637-18.904-.474.013-1.886.009-.013 7.544-.013 7.549h2.386zm-17.49 7.579v7.536l1.89-.013 1.887-.013.026-7.51zm-75.611-3.79v7.536h3.756v3.79h3.798v-7.536h-3.798v-3.79zm45.36 7.532v3.794h3.798l-.013-1.887-.008-1.881-1.891-.013zm37.805-3.742v3.746h3.798v-3.746zm-30.256-11.32v15.066h7.555v-3.746h-3.756v-3.79h3.756v-3.789h-3.756v-3.742zm11.353 3.741v11.325h7.55v-3.746h-3.751v-3.79h7.55v-3.789zm-37.805 3.79h7.55v3.789h-7.55zm-11.353 0h3.799v2.24c-.004.85-.015 1.504-.03 1.519-.013.016-.767.028-1.709.03h-2.06zM78.01 62.75v3.742h-3.756v3.79h7.554v3.789h2.286c1.133-.003 1.476-.017 1.492-.056.006-.015.01-.448.012-1.133v-1.511l-.004-1.132-.008-3.725-1.891-.009-1.887-.013v-3.742zm18.903 0v3.742h3.798v-3.742zm-41.561-7.535h11.305v11.277H55.352zM78.01 36.359v7.536h-7.554v3.742l1.89.013 1.887.009.013 1.886.013 1.881h11.348v7.536h7.55v3.79h3.756v-7.536l-3.765-.013-3.764-.009-.013-1.886-.013-1.882h3.799v-3.789h3.756l.012-3.755.01-3.755 1.89-.013 1.886-.012v-.44L89.358 36.36zm3.798 22.603v3.79h3.8v-3.79zm-22.7 0v3.79h3.798v-3.79zm45.402-14.109v17.898h26.136l-.03-1.717.03-4.616-13.068-7.056-2.49-.86 11.895 6.567v3.713h-18.541l.013-6.967.01-5.598zM36.449 36.36v18.857h11.305v-3.79h-3.75v-3.789h-3.8V36.36zm49.158 3.743h3.777l3.773.004v3.79h-3.799v7.53h-3.75l-.014-1.881-.008-1.886-1.891-.009-1.887-.013v-3.742l1.887-.013 1.89-.013.01-1.881zm22.86 4.747-.001 1.368 6.622 2.284zm-64.464-.954v3.742h7.55v-3.743zm22.654-7.536v3.747h-3.751v-3.747h-3.799v3.747h-7.554v3.79h18.903v-7.537zm-18.903 0v3.747h3.799v-3.747z"/>
<path fill="#4a4c51" d="m83.635 29.385 46.982 27.125v54.25l-46.982 27.125-46.982-27.125V56.51zm0 9.042L44.484 61.03v45.208l39.151 22.604 39.151-22.604V61.031z"/>
<path fill="#313136" d="M83.706 143.395v24.016l-27.322-15.773V127.62z"/>
<path fill="#242428" d="m135.398 53.861 20.799-12.008v83.706l-20.799-12.009z"/>
<path fill="#313136" d="M83.706 143.395v24.016L36.1 139.955l20.284-12.335zM131.458 27.579 110.972 39.76 83.706 24.017V0z"/>
<path fill="#e7e7e9" d="M56.384 127.62 36.1 139.955l-24.886-14.396V41.853L83.706 0v24.017L32.014 53.861v59.689z"/>
<path fill="#242428" d="M39.698 142.046v-4.161l44.008 25.288 68.807-39.769 3.684 2.155-72.491 41.852z"/>
<path fill="#b1b2b6" d="M39.698 142.046v-4.302L11.214 121.32v4.239zM83.706 24.017v5.368L36.653 56.51v54.25l47.053 27.125-.071 5.51-51.621-29.845V53.861z"/>
<g fill-rule="nonzero">
<path fill="#e7e7e9" d="M206.272 125.42q-7.773 0-13.352-2.658-5.58-2.656-8.569-7.704-2.988-5.047-2.989-11.889V64.913q0-7.173 2.99-12.287 2.988-5.114 8.535-7.804t13.252-2.69h61.177v20.523H212.25q-4.251 0-6.277 1.76t-2.026 5.546v27.762q0 3.454 1.992 5.28 1.993 1.827 5.78 1.827h55.597v20.59zm96.446 0q-7.638-.001-13.218-2.69t-8.569-7.705q-2.99-5.014-2.989-11.856V64.913q0-7.173 2.923-12.287t8.469-7.804 13.384-2.69h46.365q7.705 0 13.251 2.69 5.547 2.69 8.47 7.837 2.922 5.147 2.922 12.254v38.256q0 6.841-2.956 11.889t-8.535 7.704q-5.58 2.658-13.285 2.657zm41.25-20.59q3.852 0 5.48-1.627 1.627-1.628 1.627-5.48V69.894q0-3.918-1.826-5.612t-5.945-1.694H308.43q-4.052 0-5.978 1.76t-1.927 5.546v27.83q0 3.453 1.893 5.28 1.895 1.826 5.48 1.826zm43.042-62.698h71.273q7.771 0 13.252 2.723 5.48 2.723 8.37 7.937 2.888 5.214 2.889 12.52v37.193q0 7.306-2.89 12.453-2.889 5.148-8.436 7.804-5.546 2.658-13.384 2.657H387.01zm65.826 62.698q4.052 0 5.746-1.594t1.694-5.513V69.761q0-3.852-1.827-5.479t-6.078-1.627H409.86v42.175zm43.242-62.698h90.337v20.523h-67.487v10.294h59.65v20.656h-59.65v11.225h67.487v20.59h-90.337z"/>
<path fill="#2db7b8" d="M598.37 42.132h74.139q6.444 0 11.293 2.424 4.85 2.424 7.507 6.808 2.658 4.383 2.657 10.228v7.04q0 3.92-1.528 7.107a14 14 0 0 1-4.35 5.28q-2.824 2.092-6.478 2.89l-.2-1.794q3.92.997 6.777 3.255a15.56 15.56 0 0 1 4.418 5.479q1.56 3.22 1.56 7.007v7.306q0 5.91-2.723 10.527-2.724 4.616-7.573 7.173t-11.028 2.557h-74.47zm68.093 62.698q2.325 0 3.754-1.13 1.428-1.128 1.428-3.055v-2.922q0-1.262-.664-2.125-.664-.864-1.827-1.329t-2.69-.465h-45.24v11.026zm.067-31.548q1.66 0 2.69-.698a4.5 4.5 0 0 0 1.562-1.793q.531-1.096.531-2.424V66.24q0-1.66-1.196-2.623t-3.786-.963h-45.108v10.627zm64.373 52.137q-7.64 0-13.22-2.69t-8.57-7.704-2.99-11.856V64.913q0-7.173 2.923-12.287t8.47-7.804 13.387-2.69h46.37q7.705 0 13.252 2.69t8.47 7.837q2.925 5.147 2.924 12.254v38.256q0 6.841-2.957 11.889t-8.536 7.704q-5.58 2.658-13.287 2.657zm41.254-20.59q3.854 0 5.48-1.626 1.629-1.628 1.628-5.48V69.894q0-3.918-1.827-5.612t-5.945-1.694h-34.877q-4.053 0-5.98 1.76-1.926 1.76-1.926 5.546v27.83q0 3.453 1.894 5.28 1.893 1.826 5.48 1.826zm79.252-25.636v9.032l-41.52-46.093h30.094l25.842 29.688h-6.643l25.576-29.688h30.16L872.535 88.69v-9.697l42.383 46.426h-30.293L859.05 95.93h6.71l-25.909 29.49h-29.828zm109.082 0v9.032l-41.52-46.093h30.093l25.843 29.688h-6.644l25.577-29.688H1024L981.616 88.69v-9.697L1024 125.42h-30.293L968.13 95.93h6.71l-25.91 29.49h-29.827z"/>
</g>
</g>
</svg>