<svg xmlns="http://www.w3.org/2000/svg" viewBox="0 0 640 650">
<g fill="none">
<g fill-rule="evenodd">
<path fill="#4a4c51" d="m320.11 0 153.173 88.435v176.871L320.11 353.741l-153.175-88.435V88.435z"/>
<path fill="#e7e7e9" d="m320.11 50.748 109.224 63.061v126.123L320.11 302.994l-109.226-63.062V113.809z"/>
<path fill="#2db7b8" d="m319.96 62.091 99.272 57.315v114.631l-99.273 57.315-99.272-57.315V119.406z"/>
<path fill="#155151" fill-rule="nonzero" d="M348.015 164.836v15.952h-7.935v8.027h7.935v8.026h-7.935v-8.026h-8.027v15.962h15.962v8.026h-15.962v15.953h8.027v15.962H316.1v-7.935l3.986-.027 3.995-.019.018-7.953.028-7.954H316.1v7.926h-8.026v-15.953h-7.936v23.98h7.936v15.962h-7.927l-.027-3.995-.027-3.986H284.14v15.953l3.986.027 3.986.027v-8.026h8.026v8.026h7.936v7.927h-7.936v8.026H316.1v-8.026h8.027v-15.953h23.888v15.953h8.027v-23.98h-8.027v-15.962h8.027v-23.979h8.026v8.026h7.927v-8.026h16.062l-.028-7.963-.027-7.954-3.986-.018-3.995-.027v-15.953h-23.98v-8.026zm-127.76 55.994v55.894h55.904V220.83zm111.798 39.941v7.927h8.027v-7.927zM267.75 229.14v39.177h-39.177l.027-19.566.018-19.566 19.566-.018zm40.324 23.606h8.026v8.026h-8.026zm55.994-31.915v39.941l54.182-31.367v-8.574zm47.486 8.309L372.43 253.55v-24.367l19.566-.018zm-71.474-8.309h7.935v7.926h-7.935zm-55.995 0v7.926h8.027v-7.926zm32.015-40.042v8.027h-23.988v15.962h15.962v8.026h16.053l-.028-3.995-.018-3.986-3.995-.027-3.986-.027v-7.927l3.986-.027 3.995-.018v-15.962l-3.995-.018zm79.883-7.926v31.915h8.027v-7.936h7.926v15.962h5.041v-23.988h-5.041v-15.953zm-175.728 0v23.98h7.936v15.961h23.98v-8.026h15.961v8.026h23.98v-8.026h-23.98v-15.962H252.17v-8.027l-3.986.028-3.986.018-.027 8.008-.027 8h-7.927v-8.027h-8.026v-15.953zm143.813 8.027h7.927v7.926h8.026v8.026h-8.026v7.936h-7.927v-7.936h-8.026v-8.026h8.026v8.026h7.927v-8.026h-7.927zm-95.89-79.938-.019 3.995-.027 3.986H252.17v39.942h-8.026v-8.027h-7.927V156.9h7.927v7.926l8.008.028 8 .027.026 8 .028 8.008h15.953v15.952l3.986-.027 3.995-.018v-15.962l-3.995-.018-3.986-.028v-7.926h-8.027l.027-3.995.019-3.986 7.953-.027 7.954-.028v8.036h23.989V156.9h-7.936v-8.026h-8.026v-23.98h8.026v8.027h7.936v-15.962h-7.936v-8.027h-15.953l-.027-3.986-.018-3.995zm79.837 79.938h8.027v7.926h-8.027zm68.962-40.042-1 .027-3.986.019-.028 15.98-.027 15.989h5.041zM380.021 156.9v15.962l3.995-.027 3.986-.028.027-7.953.028-7.954zm-159.766-8.026v15.962h7.936v8.026h8.026V156.9h-8.026v-8.026zm95.845 15.952v8.036h8.027l-.028-3.995-.018-3.986-3.995-.027zm79.883-7.926v7.936h8.027V156.9zm-63.93-23.98v31.916h15.962V156.9h-7.935v-8.026h7.935v-8.027h-7.935v-7.926zm23.989 7.927v23.989h15.953V156.9h-7.927v-8.026h15.953v-8.027zm-79.883 8.027h15.953v8.026h-15.953zm-23.989 0h8.027v3.95c0 2.174-.028 3.976-.064 4.012-.025.034-1.58.06-3.537.064h-4.426zm55.904-15.953v7.926h-7.936v8.027H316.1v8.026h4.803c2.415-.006 3.145-.036 3.178-.118.014-.034.024-1.038.027-2.61v-2.457c-.002-.911-.004-1.901-.009-2.932l-.018-7.89-3.995-.019-3.986-.027v-7.926zm39.941 0v7.926h8.027v-7.926zm-87.818-15.962h23.888v23.888h-23.888zm47.877-39.942V92.98h-15.962v7.927l3.995.027 3.986.018.027 3.995.027 3.986h23.98v15.962h15.953v8.027h7.935v-15.962l-7.954-.028-7.953-.018-.028-3.995-.027-3.986h8.027v-8.026h7.935l.027-7.954.019-7.954 3.995-.027 3.986-.027v-.931l-23.989-6.996zm8.026 47.877v8.027h8.027v-8.027zm-47.968 0v8.027h8.027v-8.027zm95.936-29.885v37.912h55.226l-.062-3.638.062-9.778-27.613-14.947-5.265-1.82 25.138 13.91v7.864h-39.177l.05-26.613zM220.255 77.017v39.942h23.889v-8.027h-7.927v-8.026h-8.026V77.017zm103.872 7.927h7.98l7.973.009v8.026h-8.027v15.953h-7.926l-.028-3.986-.018-3.995-3.995-.018-3.986-.027v-7.927l3.986-.027 3.995-.027.018-3.986zM372.43 95l-.004 2.9 13.989 4.837zm-136.214-2.02v7.926h15.953v-7.927zm47.868-15.963v7.936h-7.926v-7.936h-8.027v7.936H252.17v8.026h39.942V77.017zm-39.941 0v7.936h8.026v-7.936z"/>
<path fill="#4a4c51" d="m319.96 62.091 99.272 57.315v114.63l-99.272 57.316-99.273-57.315v-114.63zm0 19.105-82.728 47.763v95.525l82.728 47.763 82.727-47.763V128.96z"/>
<path fill="#313136" d="M320.11 302.994v50.747l-57.733-33.328v-50.751z"/>
<path fill="#242428" d="m429.334 113.809 43.95-25.374v176.871l-43.95-25.374z"/>
<path fill="#313136" d="M320.11 302.994v50.747l-100.593-58.016 42.86-26.063zM421.011 58.274l-43.289 25.739-57.613-33.265V0z"/>
<path fill="#e7e7e9" d="m262.377 269.661-42.86 26.064-52.583-30.419V88.435L320.11 0v50.748l-109.226 63.061v126.123z"/>
<path fill="#242428" d="M227.121 300.144v-8.792l92.988 53.434 145.39-84.033 7.784 4.553-153.174 88.435z"/>
<path fill="#b1b2b6" d="M227.121 300.144v-9.091l-60.187-34.702v8.955zM320.11 50.748v11.343l-99.423 57.315v114.631l99.422 57.315-.15 11.642-109.076-63.062V113.809z"/>
</g>
<path fill="#fff" d="M42.583 503.946q-13.286 0-22.825-4.097T5.11 487.968 0 469.635V410.64q0-11.061 5.11-18.947 5.11-7.887 14.592-12.035 9.48-4.148 22.654-4.148h104.583v31.648H52.803q-7.267 0-10.731 2.714t-3.464 8.552v42.812q0 5.325 3.407 8.143 3.406 2.816 9.88 2.816h95.044v31.75zm159.78.082q-11.719 0-20.279-4.148T168.94 488q-4.585-7.734-4.585-18.283v-58.994q0-11.061 4.483-18.948 4.484-7.886 12.992-12.034 8.51-4.148 20.533-4.148h71.126q11.82 0 20.329 4.148 8.508 4.148 12.992 12.086 4.484 7.937 4.484 18.896v58.994q0 10.55-4.535 18.334t-13.094 11.88-20.38 4.097zm63.279-31.75q5.91 0 8.406-2.51 2.497-2.508 2.497-8.45v-42.913q0-6.043-2.802-8.655t-9.12-2.612h-53.497q-6.216 0-9.171 2.715-2.956 2.714-2.956 8.552v42.914q0 5.326 2.905 8.142 2.904 2.817 8.406 2.817zm63.065-96.685h109.338q11.923 0 20.33 4.2 8.406 4.198 12.839 12.238t4.432 19.307v57.355q0 11.266-4.432 19.204t-12.942 12.034q-8.508 4.098-20.532 4.097H328.707zm100.983 96.685q6.216 0 8.814-2.458t2.598-8.501v-43.12q0-5.94-2.802-8.449-2.802-2.51-9.324-2.51h-65.215v65.038zm63.371-96.685H640v31.648H530.228v15.875h97.023v31.853h-97.023v17.309H640v31.75H493.061z"/>
<path fill="#2db7b8" d="M0 521.443h113.72q9.884 0 17.322 3.739 7.44 3.738 11.515 10.498t4.076 15.772v10.857q0 6.043-2.344 10.96-2.343 4.915-6.674 8.141-4.33 3.226-9.935 4.456l-.306-2.766q6.012 1.537 10.394 5.019t6.776 8.45q2.395 4.967 2.395 10.805v11.266q0 9.116-4.178 16.234t-11.617 11.061q-7.438 3.945-16.915 3.944H0zm104.447 96.685q3.566 0 5.757-1.74 2.19-1.743 2.19-4.712v-4.507q0-1.946-1.018-3.277-1.02-1.331-2.802-2.049-1.784-.717-4.127-.717H35.053v17.002zm.102-48.65q2.547 0 4.127-1.075a6.95 6.95 0 0 0 2.394-2.765q.816-1.69.815-3.739v-3.277q0-2.56-1.834-4.046-1.835-1.485-5.808-1.485h-69.19v16.388zm97.813 80.4q-11.718 0-20.278-4.147-8.56-4.149-13.145-11.881t-4.585-18.282v-58.994q0-11.062 4.483-18.948 4.484-7.887 12.992-12.035 8.51-4.148 20.533-4.148h71.126q11.82 0 20.329 4.148 8.508 4.149 12.992 12.086t4.484 18.897v58.994q0 10.55-4.535 18.333-4.535 7.785-13.094 11.88-8.56 4.098-20.38 4.098zm63.28-31.75q5.91 0 8.406-2.509t2.497-8.45v-42.914q0-6.042-2.802-8.654t-9.12-2.612h-53.497q-6.216 0-9.171 2.714-2.956 2.714-2.956 8.552v42.914q0 5.325 2.905 8.143 2.904 2.816 8.406 2.816zm121.153-39.534v13.93l-58.088-71.08h42.102l36.154 45.781h-9.294l35.782-45.782h42.195L416.35 593.24v-14.953l59.296 71.592h-42.38l-35.783-45.475h9.387l-36.246 45.475h-41.73zm164.354 0v13.93l-58.088-71.08h42.102l36.154 45.781h-9.294l35.782-45.782H640l-59.296 71.797v-14.953L640 649.879h-42.38l-35.783-45.475h9.387l-36.247 45.475h-41.73z"/>
</g>
</svg>