<svg xmlns="http://www.w3.org/2000/svg" viewBox="0 0 1440 1600"><g fill="#2db7b8"><path d="M90 1365h15v15H90z"/><path d="M15 1365h15v15H15z"/><path d="M135 1350h15v15h-15z"/><path d="M90 1350h15v15H90z"/><path d="M45 1350h15v15H45z"/><path d="M120 1335h15v15h-15z"/><path d="M75 1320h15v15H75z"/><path d="M45 1320h15v15H45z"/><path d="M30 1320h15v15H30z"/><path d="M120 1305h15v15h-15z"/><path d="M105 1305h15v15h-15z"/><path d="M0 1305h15v15H0z"/><path d="M30 1290h15v15H30z"/><path d="M120 1275h15v15h-15z"/><path d="M120 1260h15v15h-15z"/><path d="M945 1350h15v15h-15z"/><path d="M900 1350h15v15h-15z"/><path d="M855 1350h15v15h-15z"/><path d="M930 1335h15v15h-15z"/><path d="M885 1320h15v15h-15z"/><path d="M855 1320h15v15h-15z"/><path d="M930 1305h15v15h-15z"/><path d="M915 1305h15v15h-15z"/><path d="M930 1275h15v15h-15z"/><path d="M930 1260h15v15h-15z"/><path d="M15 1260h15v15H15z"/><path d="M75 1245h15v15H75z"/><path d="M165 1230h15v15h-15z"/><path d="M210 1215h15v15h-15z"/><path d="M165 1215h15v15h-15z"/><path d="M195 1200h15v15h-15z"/><path d="M150 1185h15v15h-15z"/><path d="M195 1170h15v15h-15z"/><path d="M180 1170h15v15h-15z"/><path d="M195 1140h15v15h-15z"/><path d="M195 1125h15v15h-15z"/><path d="M180 1560h15v15h-15z"/><path d="M165 1545h15v15h-15z"/><path d="M165 1515h15v15h-15z"/><path d="M150 1515h15v15h-15z"/><path d="M180 1500h15v15h-15z"/><path d="M180 1485h15v15h-15z"/><path d="M150 1110h15v15h-15z"/><path d="M30 1245h15v15H30z"/><path d="M60 1230h15v15H60z"/><path d="M90 1215h15v15H90z"/><path d="M15 1215h15v15H15z"/><path d="M135 1440h15v15h-15z"/><path d="M135 1425h15v15h-15z"/><path d="M30 1425h15v15H30z"/><path d="M90 1410h15v15H90z"/><path d="M180 1395h15v15h-15z"/><path d="M180 1380h15v15h-15z"/><path d="M45 1410h15v15H45z"/><path d="M75 1395h15v15H75z"/><path d="M105 1380h15v15h-15z"/><path d="M30 1380h15v15H30z"/><path d="M135 1200h15v15h-15z"/><path d="M90 1200h15v15H90z"/><path d="M45 1200h15v15H45z"/><path d="M120 1185h15v15h-15z"/><path d="M75 1170h15v15H75z"/><path d="M45 1170h15v15H45z"/><path d="M30 1170h15v15H30z"/><path d="M120 1155h15v15h-15z"/><path d="M105 1155h15v15h-15z"/><path d="M0 1155h15v15H0z"/><path d="M30 1140h15v15H30z"/><path d="M15 1110h15v15H15z"/><path d="M75 1095h15v15H75z"/><path d="M30 1095h15v15H30z"/><path d="M60 1080h15v15H60z"/><path d="M15 1065h15v15H15z"/><path d="M45 1050h15v15H45z"/><path d="M75 1020h15v15H75z"/><path d="M45 1020h15v15H45z"/><path d="M30 1020h15v15H30z"/><path d="M0 1005h15v15H0z"/><path d="M30 990h15v15H30z"/><path d="M75 825h15v15H75z"/><path d="M30 825h15v15H30z"/><path d="M60 810h15v15H60z"/><path d="M45 780h15v15H45z"/><path d="M75 750h15v15H75z"/><path d="M45 750h15v15H45z"/><path d="M30 750h15v15H30z"/><path d="M30 720h15v15H30z"/><path d="M15 960h15v15H15z"/><path d="M1410 255h15v15h-15z"/><path d="M1365 255h15v15h-15z"/><path d="M1395 240h15v15h-15z"/><path d="M1350 225h15v15h-15z"/><path d="M1380 210h15v15h-15z"/><path d="M1410 180h15v15h-15z"/><path d="M1380 180h15v15h-15z"/><path d="M1365 180h15v15h-15z"/><path d="M1335 165h15v15h-15z"/><path d="M1365 150h15v15h-15z"/><path d="M1350 120h15v15h-15z"/><path d="M0 555h15v15H0z"/><path d="M30 540h15v15H30z"/><path d="M15 510h15v15H15z"/><path d="M75 495h15v15H75z"/><path d="M30 495h15v15H30z"/><path d="M60 480h15v15H60z"/><path d="M90 465h15v15H90z"/><path d="M15 465h15v15H15z"/><path d="M90 450h15v15H90z"/><path d="M45 450h15v15H45z"/><path d="M120 435h15v15h-15z"/><path d="M75 420h15v15H75z"/><path d="M45 420h15v15H45z"/><path d="M30 420h15v15H30z"/><path d="M120 405h15v15h-15z"/><path d="M105 405h15v15h-15z"/><path d="M0 405h15v15H0z"/><path d="M30 390h15v15H30z"/><path d="M120 375h15v15h-15z"/><path d="M120 360h15v15h-15z"/><path d="M15 360h15v15H15z"/><path d="M75 345h15v15H75z"/><path d="M30 345h15v15H30z"/><path d="M60 330h15v15H60z"/><path d="M90 315h15v15H90z"/><path d="M15 315h15v15H15z"/><path d="M90 300h15v15H90z"/><path d="M45 300h15v15H45z"/><path d="M120 285h15v15h-15z"/><path d="M75 270h15v15H75z"/><path d="M45 270h15v15H45z"/><path d="M30 270h15v15H30z"/><path d="M120 255h15v15h-15z"/><path d="M105 255h15v15h-15z"/><path d="M0 255h15v15H0z"/><path d="M30 240h15v15H30z"/><path d="M120 225h15v15h-15z"/><path d="M120 210h15v15h-15z"/><path d="M15 210h15v15H15z"/><path d="M75 195h15v15H75z"/><path d="M30 195h15v15H30z"/><path d="M60 180h15v15H60z"/><path d="M90 165h15v15H90z"/><path d="M15 165h15v15H15z"/><path d="M135 150h15v15h-15z"/><path d="M90 150h15v15H90z"/><path d="M45 150h15v15H45z"/><path d="M1275 120h15v15h-15z"/><path d="M1245 120h15v15h-15z"/><path d="M1230 120h15v15h-15z"/><path d="M1200 105h15v15h-15z"/><path d="M1260 195h15v15h-15z"/><path d="M1230 195h15v15h-15z"/><path d="M1215 195h15v15h-15z"/><path d="M1185 180h15v15h-15z"/><path d="M1230 90h15v15h-15z"/><path d="M1215 60h15v15h-15z"/><path d="M1275 45h15v15h-15z"/><path d="M1230 45h15v15h-15z"/><path d="M1350 600h15v15h-15z"/><path d="M1335 600h15v15h-15z"/><path d="M1335 570h15v15h-15z"/><path d="M1320 540h15v15h-15z"/><path d="M1335 525h15v15h-15z"/><path d="M945 1215h15v15h-15z"/><path d="M900 1200h15v15h-15z"/><path d="M945 1185h15v15h-15z"/><path d="M930 1185h15v15h-15z"/><path d="M945 1155h15v15h-15z"/><path d="M945 1140h15v15h-15z"/><path d="M900 1125h15v15h-15z"/><path d="M1260 30h15v15h-15z"/><path d="M1290 15h15v15h-15z"/><path d="M1215 15h15v15h-15z"/><path d="M1320 90h15v15h-15z"/><path d="M1320 60h15v15h-15z"/><path d="M1335 0h15v15h-15z"/><path d="M1320 15h15v15h-15z"/><path d="M1380 105h15v15h-15z"/><path d="M1350 105h15v15h-15z"/><path d="M1425 75h15v15h-15z"/><path d="M1425 90h15v15h-15z"/><path d="M1350 75h15v15h-15z"/><path d="M1335 105h15v15h-15z"/><path d="M1350 60h15v15h-15z"/><path d="M1350 45h15v15h-15z"/><path d="M1380 30h15v15h-15z"/><path d="M1365 30h15v15h-15z"/><path d="M1350 30h15v15h-15z"/><path d="M1425 15h15v15h-15z"/><path d="M1395 75h15v15h-15z"/><path d="M1395 60h15v15h-15z"/><path d="M1395 30h15v15h-15z"/><path d="M1395 45h15v15h-15z"/><path d="M1425 30h15v15h-15z"/><path d="M1410 0h15v15h-15z"/><path d="M1395 0h15v15h-15z"/><path d="M1380 0h15v15h-15z"/><path d="M1350 0h15v15h-15z"/><path d="M1290 0h15v15h-15z"/><path d="M1245 0h15v15h-15z"/><path d="M1170 135h15v15h-15z"/><path d="M1125 120h15v15h-15z"/><path d="M1095 120h15v15h-15z"/><path d="M1080 120h15v15h-15z"/><path d="M1170 105h15v15h-15z"/><path d="M1155 105h15v15h-15z"/><path d="M1080 90h15v15h-15z"/><path d="M1170 75h15v15h-15z"/><path d="M1170 60h15v15h-15z"/><path d="M1065 60h15v15h-15z"/><path d="M1125 45h15v15h-15z"/><path d="M1080 45h15v15h-15z"/><path d="M1110 30h15v15h-15z"/><path d="M1140 15h15v15h-15z"/><path d="M1065 15h15v15h-15z"/><path d="M1185 0h15v15h-15z"/><path d="M1140 0h15v15h-15z"/><path d="M1095 0h15v15h-15z"/><path d="M780 390h15v15h-15z"/><path d="M765 360h15v15h-15z"/><path d="M780 345h15v15h-15z"/><path d="M750 345h15v15h-15z"/><path d="M750 373h15v15h-15z"/><path d="M765 315h15v15h-15z"/><path d="M810 300h15v15h-15z"/><path d="M795 300h15v15h-15z"/><path d="M870 1035h15v15h-15z"/><path d="M885 1035h15v15h-15z"/><path d="M900 1035h15v15h-15z"/><path d="M915 1035h15v15h-15z"/><path d="M915 1050h15v15h-15z"/><path d="M930 1050h15v15h-15z"/><path d="M945 1050h15v15h-15z"/><path d="M930 1035h15v15h-15z"/><path d="M855 1050h15v15h-15z"/><path d="M825 1020h15v15h-15z"/><path d="M795 1005h15v15h-15z"/><path d="M780 990h15v15h-15z"/><path d="M870 975h15v15h-15z"/><path d="M870 960h15v15h-15z"/><path d="M765 960h15v15h-15z"/><path d="M750 975h15v15h-15z"/><path d="M765 945h15v15h-15z"/><path d="M750 945h15v15h-15z"/><path d="M750 960h15v15h-15z"/><path d="M825 945h15v15h-15z"/><path d="M765 930h15v15h-15z"/><path d="M765 915h15v15h-15z"/><path d="M795 900h15v15h-15z"/><path d="M1020 285h15v15h-15z"/><path d="M960 285h15v15h-15z"/><path d="M945 270h15v15h-15z"/><path d="M930 270h15v15h-15z"/><path d="M1020 255h15v15h-15z"/><path d="M1005 270h15v15h-15z"/><path d="M1005 255h15v15h-15z"/><path d="M900 255h15v15h-15z"/><path d="M915 270h15v15h-15z"/><path d="M930 285h15v15h-15z"/><path d="M930 240h15v15h-15z"/><path d="M1020 225h15v15h-15z"/><path d="M1020 240h15v15h-15z"/><path d="M1005 225h15v15h-15z"/><path d="M1005 210h15v15h-15z"/><path d="M915 210h15v15h-15z"/><path d="M975 195h15v15h-15z"/><path d="M960 210h15v15h-15z"/><path d="M930 195h15v15h-15z"/><path d="M960 180h15v15h-15z"/><path d="M960 165h15v15h-15z"/><path d="M960 150h15v15h-15z"/><path d="M975 165h15v15h-15z"/><path d="M975 180h15v15h-15z"/><path d="M990 180h15v15h-15z"/><path d="M1005 180h15v15h-15z"/><path d="M990 165h15v15h-15z"/><path d="M915 165h15v15h-15z"/><path d="M945 150h15v15h-15z"/><path d="M570 135h15v15h-15z"/><path d="M525 120h15v15h-15z"/><path d="M495 120h15v15h-15z"/><path d="M480 120h15v15h-15z"/><path d="M570 105h15v15h-15z"/><path d="M555 105h15v15h-15z"/><path d="M480 90h15v15h-15z"/><path d="M525 45h15v15h-15z"/><path d="M480 45h15v15h-15z"/><path d="M510 30h15v15h-15z"/><path d="M465 15h15v15h-15z"/><path d="M495 0h15v15h-15z"/><path d="M375 120h15v15h-15z"/><path d="M345 120h15v15h-15z"/><path d="M330 120h15v15h-15z"/><path d="M300 105h15v15h-15z"/><path d="M330 90h15v15h-15z"/><path d="M420 75h15v15h-15z"/><path d="M420 60h15v15h-15z"/><path d="M315 60h15v15h-15z"/><path d="M375 45h15v15h-15z"/><path d="M330 45h15v15h-15z"/><path d="M360 30h15v15h-15z"/><path d="M390 15h15v15h-15z"/><path d="M315 15h15v15h-15z"/><path d="M435 0h15v15h-15z"/><path d="M390 0h15v15h-15z"/><path d="M345 0h15v15h-15z"/><path d="M270 135h15v15h-15z"/><path d="M225 120h15v15h-15z"/><path d="M195 120h15v15h-15z"/><path d="M180 120h15v15h-15z"/><path d="M270 105h15v15h-15z"/><path d="M255 105h15v15h-15z"/><path d="M150 105h15v15h-15z"/><path d="M180 90h15v15h-15z"/><path d="M270 75h15v15h-15z"/><path d="M270 60h15v15h-15z"/><path d="M1365 360h15v15h-15z"/><path d="M1350 330h15v15h-15z"/><path d="M1410 315h15v15h-15z"/><path d="M1365 315h15v15h-15z"/><path d="M1395 300h15v15h-15z"/><path d="M1365 795h15v15h-15z"/><path d="M1350 780h15v15h-15z"/><path d="M1380 825h15v15h-15z"/><path d="M1350 840h15v15h-15z"/><path d="M1380 1095h15v15h-15z"/><path d="M1365 1080h15v15h-15z"/><path d="M1395 1125h15v15h-15z"/><path d="M1395 1155h15v15h-15z"/><path d="M1365 1140h15v15h-15z"/><path d="M1380 1140h15v15h-15z"/><path d="M1395 1140h15v15h-15z"/><path d="M1350 285h15v15h-15z"/><path d="M1305 345h15v15h-15z"/><path d="M1305 330h15v15h-15z"/><path d="M165 60h15v15h-15z"/><path d="M225 45h15v15h-15z"/><path d="M180 45h15v15h-15z"/><path d="M210 30h15v15h-15z"/><path d="M240 15h15v15h-15z"/><path d="M165 15h15v15h-15z"/><path d="M120 76h15v15h-15z"/><path d="M135 61h15v15h-15z"/><path d="M120 31h15v15h-15z"/><path d="M285 0h15v15h-15z"/><path d="M240 0h15v15h-15z"/><path d="M195 0h15v15h-15z"/><path d="M270 285h15v15h-15z"/><path d="M225 270h15v15h-15z"/><path d="M150 255h15v15h-15z"/><path d="M180 240h15v15h-15z"/><path d="M270 225h15v15h-15z"/><path d="M270 210h15v15h-15z"/><path d="M165 210h15v15h-15z"/><path d="M225 195h15v15h-15z"/><path d="M180 195h15v15h-15z"/><path d="M210 180h15v15h-15z"/><path d="M240 165h15v15h-15z"/><path d="M165 165h15v15h-15z"/><path d="M285 150h15v15h-15z"/><path d="M240 150h15v15h-15z"/><path d="M195 150h15v15h-15z"/><path d="M120 135h15v15h-15z"/><path d="M75 120h15v15H75z"/><path d="M45 120h15v15H45z"/><path d="M30 120h15v15H30z"/><path d="M120 105h15v15h-15z"/><path d="M105 105h15v15h-15z"/><path d="M450 990h15v15h-15z"/><path d="M465 960h15v15h-15z"/><path d="M450 960h15v15h-15z"/><path d="M480 945h15v15h-15z"/><path d="M450 945h15v15h-15z"/><path d="M480 930h15v15h-15z"/><path d="M465 930h15v15h-15z"/><path d="M450 930h15v15h-15z"/><path d="M480 915h15v15h-15z"/><path d="M465 915h15v15h-15z"/><path d="M450 915h15v15h-15z"/><path d="M465 900h15v15h-15z"/><path d="M570 1185h15v15h-15z"/><path d="M555 1185h15v15h-15z"/><path d="M540 1185h15v15h-15z"/><path d="M525 1185h15v15h-15z"/><path d="M510 1185h15v15h-15z"/><path d="M495 1185h15v15h-15z"/><path d="M585 1170h15v15h-15z"/><path d="M570 1170h15v15h-15z"/><path d="M555 1170h15v15h-15z"/><path d="M540 1170h15v15h-15z"/><path d="M525 1170h15v15h-15z"/><path d="M510 1170h15v15h-15z"/><path d="M585 1155h15v15h-15z"/><path d="M585 1140h15v15h-15z"/><path d="M570 1140h15v15h-15z"/><path d="M570 1155h15v15h-15z"/><path d="M555 1155h15v15h-15z"/><path d="M540 1155h15v15h-15z"/><path d="M525 1155h15v15h-15z"/><path d="M555 1140h15v15h-15z"/><path d="M540 1140h15v15h-15z"/><path d="M570 1125h15v15h-15z"/><path d="M540 1125h15v15h-15z"/><path d="M525 1125h15v15h-15z"/><path d="M510 1125h15v15h-15z"/><path d="M585 1110h15v15h-15z"/><path d="M585 1185h15v15h-15z"/><path d="M555 1110h15v15h-15z"/><path d="M540 1110h15v15h-15z"/><path d="M525 1110h15v15h-15z"/><path d="M510 1110h15v15h-15z"/><path d="M525 1095h15v15h-15z"/><path d="M510 1095h15v15h-15z"/><path d="M495 1095h15v15h-15z"/><path d="M510 1080h15v15h-15z"/><path d="M495 1080h15v15h-15z"/><path d="M570 1335h15v15h-15z"/><path d="M555 1335h15v15h-15z"/><path d="M540 1335h15v15h-15z"/><path d="M525 1335h15v15h-15z"/><path d="M510 1335h15v15h-15z"/><path d="M495 1335h15v15h-15z"/><path d="M465 1335h15v15h-15z"/><path d="M585 1320h15v15h-15z"/><path d="M570 1320h15v15h-15z"/><path d="M555 1320h15v15h-15z"/><path d="M540 1320h15v15h-15z"/><path d="M525 1320h15v15h-15z"/><path d="M510 1320h15v15h-15z"/><path d="M585 1305h15v15h-15z"/><path d="M585 1290h15v15h-15z"/><path d="M570 1305h15v15h-15z"/><path d="M555 1305h15v15h-15z"/><path d="M540 1305h15v15h-15z"/><path d="M525 1305h15v15h-15z"/><path d="M510 1305h15v15h-15z"/><path d="M450 1305h15v15h-15z"/><path d="M435 1305h15v15h-15z"/><path d="M555 1290h15v15h-15z"/><path d="M540 1290h15v15h-15z"/><path d="M525 1290h15v15h-15z"/><path d="M465 1290h15v15h-15z"/><path d="M450 1290h15v15h-15z"/><path d="M570 1275h15v15h-15z"/><path d="M555 1275h15v15h-15z"/><path d="M540 1275h15v15h-15z"/><path d="M585 1260h15v15h-15z"/><path d="M585 1335h15v15h-15z"/><path d="M570 1260h15v15h-15z"/><path d="M555 1260h15v15h-15z"/><path d="M540 1260h15v15h-15z"/><path d="M495 1260h15v15h-15z"/><path d="M480 1260h15v15h-15z"/><path d="M465 1260h15v15h-15z"/><path d="M450 1260h15v15h-15z"/><path d="M480 1275h15v15h-15z"/><path d="M465 1275h15v15h-15z"/><path d="M450 1275h15v15h-15z"/><path d="M585 1245h15v15h-15z"/><path d="M570 1245h15v15h-15z"/><path d="M555 1245h15v15h-15z"/><path d="M495 1245h15v15h-15z"/><path d="M480 1245h15v15h-15z"/><path d="M465 1245h15v15h-15z"/><path d="M585 1230h15v15h-15z"/><path d="M525 1230h15v15h-15z"/><path d="M480 1230h15v15h-15z"/><path d="M495 1230h15v15h-15z"/><path d="M510 1230h15v15h-15z"/><path d="M510 1245h15v15h-15z"/><path d="M465 1230h15v15h-15z"/><path d="M555 1215h15v15h-15z"/><path d="M540 1215h15v15h-15z"/><path d="M525 1215h15v15h-15z"/><path d="M510 1215h15v15h-15z"/><path d="M495 1215h15v15h-15z"/><path d="M480 1215h15v15h-15z"/><path d="M570 1200h15v15h-15z"/><path d="M540 1200h15v15h-15z"/><path d="M555 1200h15v15h-15z"/><path d="M525 1200h15v15h-15z"/><path d="M510 1200h15v15h-15z"/><path d="M495 1200h15v15h-15z"/><path d="M480 1200h15v15h-15z"/><path d="M600 1185h15v15h-15z"/><path d="M630 1170h15v15h-15z"/><path d="M615 1170h15v15h-15z"/><path d="M615 1155h15v15h-15z"/><path d="M630 1155h15v15h-15z"/><path d="M600 1170h15v15h-15z"/><path d="M660 1155h15v15h-15z"/><path d="M645 1155h15v15h-15z"/><path d="M600 1155h15v15h-15z"/><path d="M690 1140h15v15h-15z"/><path d="M675 1140h15v15h-15z"/><path d="M660 1140h15v15h-15z"/><path d="M645 1140h15v15h-15z"/><path d="M630 1140h15v15h-15z"/><path d="M615 1140h15v15h-15z"/><path d="M600 1140h15v15h-15z"/><path d="M720 1125h15v15h-15z"/><path d="M705 1125h15v15h-15z"/><path d="M690 1125h15v15h-15z"/><path d="M675 1125h15v15h-15z"/><path d="M660 1125h15v15h-15z"/><path d="M645 1125h15v15h-15z"/><path d="M735 1110h15v15h-15z"/><path d="M720 1110h15v15h-15z"/><path d="M705 1110h15v15h-15z"/><path d="M690 1110h15v15h-15z"/><path d="M675 1110h15v15h-15z"/><path d="M660 1110h15v15h-15z"/><path d="M645 1110h15v15h-15z"/><path d="M630 1110h15v15h-15z"/><path d="M615 1110h15v15h-15z"/><path d="M600 1110h15v15h-15z"/><path d="M630 1125h15v15h-15z"/><path d="M615 1125h15v15h-15z"/><path d="M600 1125h15v15h-15z"/><path d="M585 1125h15v15h-15z"/><path d="M735 1095h15v15h-15z"/><path d="M720 1095h15v15h-15z"/><path d="M705 1095h15v15h-15z"/><path d="M690 1095h15v15h-15z"/><path d="M675 1095h15v15h-15z"/><path d="M660 1095h15v15h-15z"/><path d="M645 1095h15v15h-15z"/><path d="M630 1095h15v15h-15z"/><path d="M615 1095h15v15h-15z"/><path d="M735 1080h15v15h-15z"/><path d="M720 1080h15v15h-15z"/><path d="M705 1080h15v15h-15z"/><path d="M690 1080h15v15h-15z"/><path d="M675 1080h15v15h-15z"/><path d="M660 1080h15v15h-15z"/><path d="M645 1080h15v15h-15z"/><path d="M735 1065h15v15h-15z"/><path d="M720 1065h15v15h-15z"/><path d="M705 1065h15v15h-15z"/><path d="M690 1065h15v15h-15z"/><path d="M780 1110h15v15h-15z"/><path d="M765 1110h15v15h-15z"/><path d="M750 1110h15v15h-15z"/><path d="M825 1095h15v15h-15z"/><path d="M795 1095h15v15h-15z"/><path d="M780 1095h15v15h-15z"/><path d="M765 1095h15v15h-15z"/><path d="M750 1095h15v15h-15z"/><path d="M840 1080h15v15h-15z"/><path d="M825 1080h15v15h-15z"/><path d="M810 1080h15v15h-15z"/><path d="M795 1080h15v15h-15z"/><path d="M780 1080h15v15h-15z"/><path d="M765 1080h15v15h-15z"/><path d="M750 1080h15v15h-15z"/><path d="M885 1065h15v15h-15z"/><path d="M870 1065h15v15h-15z"/><path d="M855 1065h15v15h-15z"/><path d="M840 1065h15v15h-15z"/><path d="M825 1065h15v15h-15z"/><path d="M810 1065h15v15h-15z"/><path d="M795 1065h15v15h-15z"/><path d="M780 1065h15v15h-15z"/><path d="M765 1065h15v15h-15z"/><path d="M750 1065h15v15h-15z"/><path d="M885 1050h15v15h-15z"/><path d="M900 1065h15v15h-15z"/><path d="M900 1050h15v15h-15z"/><path d="M1035 1140h15v15h-15z"/><path d="M1050 1140h15v15h-15z"/><path d="M1065 1140h15v15h-15z"/><path d="M1005 1140h15v15h-15z"/><path d="M1020 1140h15v15h-15z"/><path d="M870 1050h15v15h-15z"/><path d="M840 1050h15v15h-15z"/><path d="M825 1050h15v15h-15z"/><path d="M810 1050h15v15h-15z"/><path d="M795 1050h15v15h-15z"/><path d="M780 1050h15v15h-15z"/><path d="M345 1035h15v15h-15z"/><path d="M315 1035h15v15h-15z"/><path d="M300 1035h15v15h-15z"/><path d="M360 1020h15v15h-15z"/><path d="M345 1020h15v15h-15z"/><path d="M330 1035h15v15h-15z"/><path d="M345 1050h15v15h-15z"/><path d="M315 1050h15v15h-15z"/><path d="M330 1050h15v15h-15z"/><path d="M330 1020h15v15h-15z"/><path d="M315 1020h15v15h-15z"/><path d="M315 1005h15v15h-15z"/><path d="M300 1020h15v15h-15z"/><path d="M435 1005h15v15h-15z"/><path d="M435 990h15v15h-15z"/><path d="M420 1005h15v15h-15z"/><path d="M405 1005h15v15h-15z"/><path d="M345 1005h15v15h-15z"/><path d="M300 1005h15v15h-15z"/><path d="M405 990h15v15h-15z"/><path d="M330 990h15v15h-15z"/><path d="M330 1005h15v15h-15z"/><path d="M315 990h15v15h-15z"/><path d="M300 990h15v15h-15z"/><path d="M420 975h15v15h-15z"/><path d="M405 975h15v15h-15z"/><path d="M435 960h15v15h-15z"/><path d="M420 960h15v15h-15z"/><path d="M405 960h15v15h-15z"/><path d="M300 960h15v15h-15z"/><path d="M435 945h15v15h-15z"/><path d="M420 945h15v15h-15z"/><path d="M405 945h15v15h-15z"/><path d="M390 945h15v15h-15z"/><path d="M315 945h15v15h-15z"/><path d="M300 945h15v15h-15z"/><path d="M435 930h15v15h-15z"/><path d="M420 930h15v15h-15z"/><path d="M405 930h15v15h-15z"/><path d="M435 915h15v15h-15z"/><path d="M330 915h15v15h-15z"/><path d="M315 915h15v15h-15z"/><path d="M435 900h15v15h-15z"/><path d="M420 900h15v15h-15z"/><path d="M285 1020h15v15h-15z"/><path d="M285 1005h15v15h-15z"/><path d="M285 990h15v15h-15z"/><path d="M270 990h15v15h-15z"/><path d="M270 1005h15v15h-15z"/><path d="M270 975h15v15h-15z"/><path d="M255 975h15v15h-15z"/><path d="M285 960h15v15h-15z"/><path d="M255 960h15v15h-15z"/><path d="M285 945h15v15h-15z"/><path d="M270 945h15v15h-15z"/><path d="M255 945h15v15h-15z"/><path d="M240 945h15v15h-15z"/><path d="M285 930h15v15h-15z"/><path d="M270 930h15v15h-15z"/><path d="M255 930h15v15h-15z"/><path d="M240 930h15v15h-15z"/><path d="M255 915h15v15h-15z"/><path d="M240 915h15v15h-15z"/><path d="M240 900h15v15h-15z"/><path d="M225 900h15v15h-15z"/><path d="M465 885h15v15h-15z"/><path d="M450 885h15v15h-15z"/><path d="M450 900h15v15h-15z"/><path d="M495 870h15v15h-15z"/><path d="M480 885h15v15h-15z"/><path d="M480 870h15v15h-15z"/><path d="M465 870h15v15h-15z"/><path d="M465 855h15v15h-15z"/><path d="M450 870h15v15h-15z"/><path d="M495 855h15v15h-15z"/><path d="M450 855h15v15h-15z"/><path d="M510 840h15v15h-15z"/><path d="M495 840h15v15h-15z"/><path d="M480 840h15v15h-15z"/><path d="M480 855h15v15h-15z"/><path d="M465 840h15v15h-15z"/><path d="M450 840h15v15h-15z"/><path d="M525 825h15v15h-15z"/><path d="M510 825h15v15h-15z"/><path d="M495 825h15v15h-15z"/><path d="M510 810h15v15h-15z"/><path d="M495 810h15v15h-15z"/><path d="M480 810h15v15h-15z"/><path d="M465 810h15v15h-15z"/><path d="M450 810h15v15h-15z"/><path d="M525 795h15v15h-15z"/><path d="M495 795h15v15h-15z"/><path d="M480 795h15v15h-15z"/><path d="M465 795h15v15h-15z"/><path d="M450 795h15v15h-15z"/><path d="M540 780h15v15h-15z"/><path d="M510 780h15v15h-15z"/><path d="M480 780h15v15h-15z"/><path d="M465 780h15v15h-15z"/><path d="M450 780h15v15h-15z"/><path d="M540 765h15v15h-15z"/><path d="M525 765h15v15h-15z"/><path d="M510 765h15v15h-15z"/><path d="M495 765h15v15h-15z"/><path d="M480 765h15v15h-15z"/><path d="M465 765h15v15h-15z"/><path d="M450 765h15v15h-15z"/><path d="M450 750h15v15h-15z"/><path d="M540 750h15v15h-15z"/><path d="M525 750h15v15h-15z"/><path d="M510 750h15v15h-15z"/><path d="M495 750h15v15h-15z"/><path d="M480 750h15v15h-15z"/><path d="M465 750h15v15h-15z"/><path d="M420 885h15v15h-15z"/><path d="M405 885h15v15h-15z"/><path d="M390 885h15v15h-15z"/><path d="M375 885h15v15h-15z"/><path d="M435 870h15v15h-15z"/><path d="M420 870h15v15h-15z"/><path d="M405 870h15v15h-15z"/><path d="M390 870h15v15h-15z"/><path d="M375 870h15v15h-15z"/><path d="M360 870h15v15h-15z"/><path d="M345 870h15v15h-15z"/><path d="M435 855h15v15h-15z"/><path d="M435 840h15v15h-15z"/><path d="M420 840h15v15h-15z"/><path d="M420 855h15v15h-15z"/><path d="M405 855h15v15h-15z"/><path d="M390 855h15v15h-15z"/><path d="M375 855h15v15h-15z"/><path d="M360 855h15v15h-15z"/><path d="M345 855h15v15h-15z"/><path d="M300 855h15v15h-15z"/><path d="M405 840h15v15h-15z"/><path d="M390 840h15v15h-15z"/><path d="M375 840h15v15h-15z"/><path d="M360 840h15v15h-15z"/><path d="M420 825h15v15h-15z"/><path d="M405 825h15v15h-15z"/><path d="M390 825h15v15h-15z"/><path d="M435 810h15v15h-15z"/><path d="M480 825h15v15h-15z"/><path d="M465 825h15v15h-15z"/><path d="M450 825h15v15h-15z"/><path d="M435 825h15v15h-15z"/><path d="M435 885h15v15h-15z"/><path d="M420 810h15v15h-15z"/><path d="M405 810h15v15h-15z"/><path d="M390 810h15v15h-15z"/><path d="M435 795h15v15h-15z"/><path d="M420 795h15v15h-15z"/><path d="M405 795h15v15h-15z"/><path d="M435 780h15v15h-15z"/><path d="M420 780h15v15h-15z"/><path d="M405 780h15v15h-15z"/><path d="M390 780h15v15h-15z"/><path d="M435 765h15v15h-15z"/><path d="M420 765h15v15h-15z"/><path d="M405 765h15v15h-15z"/><path d="M405 750h15v15h-15z"/><path d="M390 765h15v15h-15z"/><path d="M375 765h15v15h-15z"/><path d="M435 750h15v15h-15z"/><path d="M420 750h15v15h-15z"/><path d="M390 750h15v15h-15z"/><path d="M375 750h15v15h-15z"/><path d="M240 885h15v15h-15z"/><path d="M225 885h15v15h-15z"/><path d="M285 870h15v15h-15z"/><path d="M270 870h15v15h-15z"/><path d="M255 870h15v15h-15z"/><path d="M240 870h15v15h-15z"/><path d="M225 870h15v15h-15z"/><path d="M285 855h15v15h-15z"/><path d="M285 840h15v15h-15z"/><path d="M270 855h15v15h-15z"/><path d="M255 855h15v15h-15z"/><path d="M240 855h15v15h-15z"/><path d="M225 855h15v15h-15z"/><path d="M210 855h15v15h-15z"/><path d="M255 840h15v15h-15z"/><path d="M240 840h15v15h-15z"/><path d="M225 840h15v15h-15z"/><path d="M210 840h15v15h-15z"/><path d="M270 825h15v15h-15z"/><path d="M270 840h15v15h-15z"/><path d="M255 825h15v15h-15z"/><path d="M240 825h15v15h-15z"/><path d="M225 825h15v15h-15z"/><path d="M210 825h15v15h-15z"/><path d="M255 810h15v15h-15z"/><path d="M240 810h15v15h-15z"/><path d="M225 810h15v15h-15z"/><path d="M210 810h15v15h-15z"/><path d="M210 795h15v15h-15z"/><path d="M240 795h15v15h-15z"/><path d="M225 795h15v15h-15z"/><path d="M255 780h15v15h-15z"/><path d="M240 780h15v15h-15z"/><path d="M225 780h15v15h-15z"/><path d="M210 780h15v15h-15z"/><path d="M195 780h15v15h-15z"/><path d="M255 765h15v15h-15z"/><path d="M240 765h15v15h-15z"/><path d="M225 765h15v15h-15z"/><path d="M210 765h15v15h-15z"/><path d="M195 765h15v15h-15z"/><path d="M270 750h15v15h-15z"/><path d="M255 750h15v15h-15z"/><path d="M240 750h15v15h-15z"/><path d="M225 750h15v15h-15z"/><path d="M210 750h15v15h-15z"/><path d="M195 750h15v15h-15z"/><path d="M570 735h15v15h-15z"/><path d="M555 735h15v15h-15z"/><path d="M540 735h15v15h-15z"/><path d="M525 735h15v15h-15z"/><path d="M510 735h15v15h-15z"/><path d="M495 735h15v15h-15z"/><path d="M465 735h15v15h-15z"/><path d="M450 735h15v15h-15z"/><path d="M585 720h15v15h-15z"/><path d="M570 720h15v15h-15z"/><path d="M555 720h15v15h-15z"/><path d="M540 720h15v15h-15z"/><path d="M525 720h15v15h-15z"/><path d="M510 720h15v15h-15z"/><path d="M495 720h15v15h-15z"/><path d="M480 735h15v15h-15z"/><path d="M480 720h15v15h-15z"/><path d="M465 720h15v15h-15z"/><path d="M465 705h15v15h-15z"/><path d="M450 720h15v15h-15z"/><path d="M585 705h15v15h-15z"/><path d="M585 690h15v15h-15z"/><path d="M570 705h15v15h-15z"/><path d="M555 705h15v15h-15z"/><path d="M540 705h15v15h-15z"/><path d="M525 705h15v15h-15z"/><path d="M510 705h15v15h-15z"/><path d="M495 705h15v15h-15z"/><path d="M480 705h15v15h-15z"/><path d="M450 705h15v15h-15z"/><path d="M555 690h15v15h-15z"/><path d="M540 690h15v15h-15z"/><path d="M525 690h15v15h-15z"/><path d="M510 690h15v15h-15z"/><path d="M495 690h15v15h-15z"/><path d="M480 690h15v15h-15z"/><path d="M465 690h15v15h-15z"/><path d="M450 690h15v15h-15z"/><path d="M570 675h15v15h-15z"/><path d="M555 675h15v15h-15z"/><path d="M540 675h15v15h-15z"/><path d="M525 675h15v15h-15z"/><path d="M570 660h15v15h-15z"/><path d="M555 660h15v15h-15z"/><path d="M540 660h15v15h-15z"/><path d="M480 660h15v15h-15z"/><path d="M465 660h15v15h-15z"/><path d="M450 660h15v15h-15z"/><path d="M450 645h15v15h-15z"/><path d="M450 615h15v15h-15z"/><path d="M540 600h15v15h-15z"/><path d="M525 600h15v15h-15z"/><path d="M420 735h15v15h-15z"/><path d="M405 735h15v15h-15z"/><path d="M390 735h15v15h-15z"/><path d="M375 735h15v15h-15z"/><path d="M435 720h15v15h-15z"/><path d="M420 720h15v15h-15z"/><path d="M405 720h15v15h-15z"/><path d="M390 720h15v15h-15z"/><path d="M375 720h15v15h-15z"/><path d="M435 705h15v15h-15z"/><path d="M435 690h15v15h-15z"/><path d="M420 705h15v15h-15z"/><path d="M420 690h15v15h-15z"/><path d="M405 705h15v15h-15z"/><path d="M390 705h15v15h-15z"/><path d="M375 705h15v15h-15z"/><path d="M300 705h15v15h-15z"/><path d="M405 690h15v15h-15z"/><path d="M390 690h15v15h-15z"/><path d="M375 690h15v15h-15z"/><path d="M300 690h15v15h-15z"/><path d="M420 675h15v15h-15z"/><path d="M405 675h15v15h-15z"/><path d="M390 675h15v15h-15z"/><path d="M375 675h15v15h-15z"/><path d="M435 660h15v15h-15z"/><path d="M435 735h15v15h-15z"/><path d="M420 660h15v15h-15z"/><path d="M405 660h15v15h-15z"/><path d="M390 660h15v15h-15z"/><path d="M375 660h15v15h-15z"/><path d="M315 660h15v15h-15z"/><path d="M300 660h15v15h-15z"/><path d="M435 645h15v15h-15z"/><path d="M420 645h15v15h-15z"/><path d="M405 645h15v15h-15z"/><path d="M390 645h15v15h-15z"/><path d="M375 645h15v15h-15z"/><path d="M315 645h15v15h-15z"/><path d="M300 645h15v15h-15z"/><path d="M435 630h15v15h-15z"/><path d="M420 630h15v15h-15z"/><path d="M405 630h15v15h-15z"/><path d="M390 630h15v15h-15z"/><path d="M375 630h15v15h-15z"/><path d="M315 630h15v15h-15z"/><path d="M300 630h15v15h-15z"/><path d="M435 615h15v15h-15z"/><path d="M420 615h15v15h-15z"/><path d="M405 615h15v15h-15z"/><path d="M375 615h15v15h-15z"/><path d="M315 615h15v15h-15z"/><path d="M300 615h15v15h-15z"/><path d="M300 600h15v15h-15z"/><path d="M420 600h15v15h-15z"/><path d="M390 600h15v15h-15z"/><path d="M330 600h15v15h-15z"/><path d="M315 600h15v15h-15z"/><path d="M270 735h15v15h-15z"/><path d="M255 735h15v15h-15z"/><path d="M240 735h15v15h-15z"/><path d="M225 735h15v15h-15z"/><path d="M210 735h15v15h-15z"/><path d="M195 735h15v15h-15z"/><path d="M285 720h15v15h-15z"/><path d="M270 720h15v15h-15z"/><path d="M255 720h15v15h-15z"/><path d="M240 720h15v15h-15z"/><path d="M225 720h15v15h-15z"/><path d="M210 720h15v15h-15z"/><path d="M195 720h15v15h-15z"/><path d="M285 705h15v15h-15z"/><path d="M285 690h15v15h-15z"/><path d="M300 675h15v15h-15z"/><path d="M285 675h15v15h-15z"/><path d="M270 690h15v15h-15z"/><path d="M270 705h15v15h-15z"/><path d="M255 705h15v15h-15z"/><path d="M240 705h15v15h-15z"/><path d="M225 705h15v15h-15z"/><path d="M210 705h15v15h-15z"/><path d="M195 705h15v15h-15z"/><path d="M255 690h15v15h-15z"/><path d="M240 690h15v15h-15z"/><path d="M225 690h15v15h-15z"/><path d="M210 690h15v15h-15z"/><path d="M195 690h15v15h-15z"/><path d="M270 675h15v15h-15z"/><path d="M255 675h15v15h-15z"/><path d="M240 675h15v15h-15z"/><path d="M225 675h15v15h-15z"/><path d="M210 675h15v15h-15z"/><path d="M195 675h15v15h-15z"/><path d="M285 660h15v15h-15z"/><path d="M270 660h15v15h-15z"/><path d="M255 660h15v15h-15z"/><path d="M240 660h15v15h-15z"/><path d="M225 660h15v15h-15z"/><path d="M210 660h15v15h-15z"/><path d="M195 660h15v15h-15z"/><path d="M285 645h15v15h-15z"/><path d="M270 645h15v15h-15z"/><path d="M255 645h15v15h-15z"/><path d="M225 645h15v15h-15z"/><path d="M195 645h15v15h-15z"/><path d="M195 630h15v15h-15z"/><path d="M285 630h15v15h-15z"/><path d="M270 630h15v15h-15z"/><path d="M240 630h15v15h-15z"/><path d="M210 630h15v15h-15z"/><path d="M210 645h15v15h-15z"/><path d="M285 615h15v15h-15z"/><path d="M270 615h15v15h-15z"/><path d="M255 615h15v15h-15z"/><path d="M240 615h15v15h-15z"/><path d="M225 615h15v15h-15z"/><path d="M195 615h15v15h-15z"/><path d="M285 600h15v15h-15z"/><path d="M240 600h15v15h-15z"/><path d="M225 600h15v15h-15z"/><path d="M210 600h15v15h-15z"/><path d="M540 585h15v15h-15z"/><path d="M525 585h15v15h-15z"/><path d="M510 585h15v15h-15z"/><path d="M465 585h15v15h-15z"/><path d="M450 585h15v15h-15z"/><path d="M555 570h15v15h-15z"/><path d="M540 570h15v15h-15z"/><path d="M525 570h15v15h-15z"/><path d="M510 570h15v15h-15z"/><path d="M495 570h15v15h-15z"/><path d="M480 570h15v15h-15z"/><path d="M465 555h15v15h-15z"/><path d="M450 570h15v15h-15z"/><path d="M555 555h15v15h-15z"/><path d="M540 555h15v15h-15z"/><path d="M525 555h15v15h-15z"/><path d="M510 555h15v15h-15z"/><path d="M495 555h15v15h-15z"/><path d="M480 555h15v15h-15z"/><path d="M555 540h15v15h-15z"/><path d="M525 540h15v15h-15z"/><path d="M510 540h15v15h-15z"/><path d="M495 540h15v15h-15z"/><path d="M480 540h15v15h-15z"/><path d="M465 540h15v15h-15z"/><path d="M540 525h15v15h-15z"/><path d="M525 525h15v15h-15z"/><path d="M510 525h15v15h-15z"/><path d="M495 525h15v15h-15z"/><path d="M540 510h15v15h-15z"/><path d="M525 510h15v15h-15z"/><path d="M510 510h15v15h-15z"/><path d="M495 510h15v15h-15z"/><path d="M480 510h15v15h-15z"/><path d="M465 510h15v15h-15z"/><path d="M450 510h15v15h-15z"/><path d="M525 495h15v15h-15z"/><path d="M495 495h15v15h-15z"/><path d="M510 495h15v15h-15z"/><path d="M480 495h15v15h-15z"/><path d="M465 495h15v15h-15z"/><path d="M450 495h15v15h-15z"/><path d="M510 480h15v15h-15z"/><path d="M480 480h15v15h-15z"/><path d="M495 480h15v15h-15z"/><path d="M465 480h15v15h-15z"/><path d="M450 480h15v15h-15z"/><path d="M555 465h15v15h-15z"/><path d="M495 465h15v15h-15z"/><path d="M480 465h15v15h-15z"/><path d="M465 465h15v15h-15z"/><path d="M450 465h15v15h-15z"/><path d="M450 450h15v15h-15z"/><path d="M540 450h15v15h-15z"/><path d="M480 450h15v15h-15z"/><path d="M465 450h15v15h-15z"/><path d="M420 585h15v15h-15z"/><path d="M405 585h15v15h-15z"/><path d="M315 585h15v15h-15z"/><path d="M300 585h15v15h-15z"/><path d="M435 570h15v15h-15z"/><path d="M420 570h15v15h-15z"/><path d="M330 585h15v15h-15z"/><path d="M330 570h15v15h-15z"/><path d="M330 555h15v15h-15z"/><path d="M315 570h15v15h-15z"/><path d="M315 555h15v15h-15z"/><path d="M300 570h15v15h-15z"/><path d="M435 555h15v15h-15z"/><path d="M345 555h15v15h-15z"/><path d="M300 555h15v15h-15z"/><path d="M375 540h15v15h-15z"/><path d="M390 555h15v15h-15z"/><path d="M360 540h15v15h-15z"/><path d="M345 540h15v15h-15z"/><path d="M330 540h15v15h-15z"/><path d="M315 540h15v15h-15z"/><path d="M300 540h15v15h-15z"/><path d="M420 525h15v15h-15z"/><path d="M405 525h15v15h-15z"/><path d="M390 525h15v15h-15z"/><path d="M375 525h15v15h-15z"/><path d="M360 525h15v15h-15z"/><path d="M345 525h15v15h-15z"/><path d="M435 510h15v15h-15z"/><path d="M480 525h15v15h-15z"/><path d="M465 525h15v15h-15z"/><path d="M450 525h15v15h-15z"/><path d="M435 525h15v15h-15z"/><path d="M435 585h15v15h-15z"/><path d="M420 510h15v15h-15z"/><path d="M405 510h15v15h-15z"/><path d="M390 510h15v15h-15z"/><path d="M375 510h15v15h-15z"/><path d="M360 510h15v15h-15z"/><path d="M345 510h15v15h-15z"/><path d="M330 510h15v15h-15z"/><path d="M315 510h15v15h-15z"/><path d="M300 510h15v15h-15z"/><path d="M435 495h15v15h-15z"/><path d="M420 495h15v15h-15z"/><path d="M405 495h15v15h-15z"/><path d="M390 495h15v15h-15z"/><path d="M375 495h15v15h-15z"/><path d="M345 495h15v15h-15z"/><path d="M330 495h15v15h-15z"/><path d="M315 495h15v15h-15z"/><path d="M300 495h15v15h-15z"/><path d="M435 480h15v15h-15z"/><path d="M420 480h15v15h-15z"/><path d="M405 480h15v15h-15z"/><path d="M390 480h15v15h-15z"/><path d="M375 480h15v15h-15z"/><path d="M360 480h15v15h-15z"/><path d="M360 495h15v15h-15z"/><path d="M345 480h15v15h-15z"/><path d="M330 480h15v15h-15z"/><path d="M315 480h15v15h-15z"/><path d="M300 480h15v15h-15z"/><path d="M435 465h15v15h-15z"/><path d="M420 465h15v15h-15z"/><path d="M405 465h15v15h-15z"/><path d="M405 450h15v15h-15z"/><path d="M390 465h15v15h-15z"/><path d="M375 465h15v15h-15z"/><path d="M360 465h15v15h-15z"/><path d="M345 465h15v15h-15z"/><path d="M330 465h15v15h-15z"/><path d="M315 465h15v15h-15z"/><path d="M300 465h15v15h-15z"/><path d="M300 450h15v15h-15z"/><path d="M435 450h15v15h-15z"/><path d="M420 450h15v15h-15z"/><path d="M390 450h15v15h-15z"/><path d="M375 450h15v15h-15z"/><path d="M360 450h15v15h-15z"/><path d="M345 450h15v15h-15z"/><path d="M330 450h15v15h-15z"/><path d="M315 450h15v15h-15z"/><path d="M225 585h15v15h-15z"/><path d="M210 585h15v15h-15z"/><path d="M285 570h15v15h-15z"/><path d="M240 570h15v15h-15z"/><path d="M225 570h15v15h-15z"/><path d="M210 570h15v15h-15z"/><path d="M285 555h15v15h-15z"/><path d="M285 540h15v15h-15z"/><path d="M255 540h15v15h-15z"/><path d="M240 540h15v15h-15z"/><path d="M225 540h15v15h-15z"/><path d="M270 525h15v15h-15z"/><path d="M225 525h15v15h-15z"/><path d="M210 525h15v15h-15z"/><path d="M285 510h15v15h-15z"/><path d="M330 525h15v15h-15z"/><path d="M315 525h15v15h-15z"/><path d="M300 525h15v15h-15z"/><path d="M285 525h15v15h-15z"/><path d="M285 585h15v15h-15z"/><path d="M270 510h15v15h-15z"/><path d="M255 510h15v15h-15z"/><path d="M210 510h15v15h-15z"/><path d="M195 510h15v15h-15z"/><path d="M285 495h15v15h-15z"/><path d="M270 495h15v15h-15z"/><path d="M255 495h15v15h-15z"/><path d="M240 495h15v15h-15z"/><path d="M225 495h15v15h-15z"/><path d="M210 495h15v15h-15z"/><path d="M195 495h15v15h-15z"/><path d="M285 480h15v15h-15z"/><path d="M270 480h15v15h-15z"/><path d="M255 480h15v15h-15z"/><path d="M240 480h15v15h-15z"/><path d="M225 480h15v15h-15z"/><path d="M210 480h15v15h-15z"/><path d="M285 465h15v15h-15z"/><path d="M270 465h15v15h-15z"/><path d="M255 465h15v15h-15z"/><path d="M240 465h15v15h-15z"/><path d="M225 465h15v15h-15z"/><path d="M210 465h15v15h-15z"/><path d="M285 450h15v15h-15z"/><path d="M270 450h15v15h-15z"/><path d="M255 450h15v15h-15z"/><path d="M240 450h15v15h-15z"/><path d="M225 450h15v15h-15z"/><path d="M555 435h15v15h-15z"/><path d="M555 450h15v15h-15z"/><path d="M540 435h15v15h-15z"/><path d="M525 435h15v15h-15z"/><path d="M465 435h15v15h-15z"/><path d="M450 435h15v15h-15z"/><path d="M540 420h15v15h-15z"/><path d="M525 420h15v15h-15z"/><path d="M495 405h15v15h-15z"/><path d="M480 420h15v15h-15z"/><path d="M465 405h15v15h-15z"/><path d="M450 420h15v15h-15z"/><path d="M525 405h15v15h-15z"/><path d="M450 390h15v15h-15z"/><path d="M570 375h15v15h-15z"/><path d="M555 375h15v15h-15z"/><path d="M585 360h15v15h-15z"/><path d="M555 360h15v15h-15z"/><path d="M540 360h15v15h-15z"/><path d="M480 360h15v15h-15z"/><path d="M465 360h15v15h-15z"/><path d="M450 360h15v15h-15z"/><path d="M585 345h15v15h-15z"/><path d="M570 345h15v15h-15z"/><path d="M540 345h15v15h-15z"/><path d="M525 345h15v15h-15z"/><path d="M480 345h15v15h-15z"/><path d="M465 345h15v15h-15z"/><path d="M450 345h15v15h-15z"/><path d="M585 330h15v15h-15z"/><path d="M570 330h15v15h-15z"/><path d="M555 330h15v15h-15z"/><path d="M540 330h15v15h-15z"/><path d="M510 330h15v15h-15z"/><path d="M480 330h15v15h-15z"/><path d="M465 330h15v15h-15z"/><path d="M585 315h15v15h-15z"/><path d="M570 315h15v15h-15z"/><path d="M555 315h15v15h-15z"/><path d="M540 315h15v15h-15z"/><path d="M525 315h15v15h-15z"/><path d="M510 315h15v15h-15z"/><path d="M495 315h15v15h-15z"/><path d="M480 315h15v15h-15z"/><path d="M465 315h15v15h-15z"/><path d="M450 315h15v15h-15z"/><path d="M585 300h15v15h-15z"/><path d="M570 300h15v15h-15z"/><path d="M540 300h15v15h-15z"/><path d="M525 300h15v15h-15z"/><path d="M510 300h15v15h-15z"/><path d="M495 300h15v15h-15z"/><path d="M480 300h15v15h-15z"/><path d="M465 300h15v15h-15z"/><path d="M420 435h15v15h-15z"/><path d="M405 435h15v15h-15z"/><path d="M390 435h15v15h-15z"/><path d="M375 435h15v15h-15z"/><path d="M360 435h15v15h-15z"/><path d="M345 435h15v15h-15z"/><path d="M315 435h15v15h-15z"/><path d="M300 435h15v15h-15z"/><path d="M435 420h15v15h-15z"/><path d="M420 420h15v15h-15z"/><path d="M405 420h15v15h-15z"/><path d="M390 420h15v15h-15z"/><path d="M375 420h15v15h-15z"/><path d="M360 420h15v15h-15z"/><path d="M345 420h15v15h-15z"/><path d="M330 435h15v15h-15z"/><path d="M330 420h15v15h-15z"/><path d="M315 420h15v15h-15z"/><path d="M315 405h15v15h-15z"/><path d="M300 420h15v15h-15z"/><path d="M435 390h15v15h-15z"/><path d="M405 405h15v15h-15z"/><path d="M390 405h15v15h-15z"/><path d="M375 405h15v15h-15z"/><path d="M360 405h15v15h-15z"/><path d="M345 405h15v15h-15z"/><path d="M330 405h15v15h-15z"/><path d="M300 405h15v15h-15z"/><path d="M405 390h15v15h-15z"/><path d="M375 390h15v15h-15z"/><path d="M360 390h15v15h-15z"/><path d="M345 390h15v15h-15z"/><path d="M330 390h15v15h-15z"/><path d="M315 390h15v15h-15z"/><path d="M300 390h15v15h-15z"/><path d="M420 375h15v15h-15z"/><path d="M405 375h15v15h-15z"/><path d="M390 375h15v15h-15z"/><path d="M375 375h15v15h-15z"/><path d="M360 375h15v15h-15z"/><path d="M345 375h15v15h-15z"/><path d="M435 360h15v15h-15z"/><path d="M435 435h15v15h-15z"/><path d="M420 360h15v15h-15z"/><path d="M405 360h15v15h-15z"/><path d="M390 360h15v15h-15z"/><path d="M375 360h15v15h-15z"/><path d="M360 360h15v15h-15z"/><path d="M345 360h15v15h-15z"/><path d="M330 360h15v15h-15z"/><path d="M315 360h15v15h-15z"/><path d="M300 360h15v15h-15z"/><path d="M435 345h15v15h-15z"/><path d="M420 345h15v15h-15z"/><path d="M405 345h15v15h-15z"/><path d="M390 345h15v15h-15z"/><path d="M375 345h15v15h-15z"/><path d="M345 345h15v15h-15z"/><path d="M330 345h15v15h-15z"/><path d="M315 345h15v15h-15z"/><path d="M300 345h15v15h-15z"/><path d="M435 330h15v15h-15z"/><path d="M420 330h15v15h-15z"/><path d="M405 330h15v15h-15z"/><path d="M390 330h15v15h-15z"/><path d="M375 330h15v15h-15z"/><path d="M360 330h15v15h-15z"/><path d="M330 330h15v15h-15z"/><path d="M315 330h15v15h-15z"/><path d="M420 315h15v15h-15z"/><path d="M405 315h15v15h-15z"/><path d="M390 315h15v15h-15z"/><path d="M375 315h15v15h-15z"/><path d="M360 315h15v15h-15z"/><path d="M345 315h15v15h-15z"/><path d="M330 315h15v15h-15z"/><path d="M315 315h15v15h-15z"/><path d="M300 315h15v15h-15z"/><path d="M435 300h15v15h-15z"/><path d="M420 300h15v15h-15z"/><path d="M390 300h15v15h-15z"/><path d="M375 300h15v15h-15z"/><path d="M360 300h15v15h-15z"/><path d="M345 300h15v15h-15z"/><path d="M330 300h15v15h-15z"/><path d="M315 300h15v15h-15z"/><path d="M270 435h15v15h-15z"/><path d="M255 435h15v15h-15z"/><path d="M240 435h15v15h-15z"/><path d="M225 435h15v15h-15z"/><path d="M285 420h15v15h-15z"/><path d="M270 420h15v15h-15z"/><path d="M255 420h15v15h-15z"/><path d="M240 420h15v15h-15z"/><path d="M225 420h15v15h-15z"/><path d="M285 405h15v15h-15z"/><path d="M285 390h15v15h-15z"/><path d="M270 405h15v15h-15z"/><path d="M270 390h15v15h-15z"/><path d="M255 405h15v15h-15z"/><path d="M240 405h15v15h-15z"/><path d="M255 390h15v15h-15z"/><path d="M240 375h15v15h-15z"/><path d="M285 360h15v15h-15z"/><path d="M285 435h15v15h-15z"/><path d="M255 360h15v15h-15z"/><path d="M240 360h15v15h-15z"/><path d="M285 345h15v15h-15z"/><path d="M270 345h15v15h-15z"/><path d="M255 345h15v15h-15z"/><path d="M240 345h15v15h-15z"/><path d="M285 330h15v15h-15z"/><path d="M270 330h15v15h-15z"/><path d="M255 330h15v15h-15z"/><path d="M285 315h15v15h-15z"/><path d="M270 315h15v15h-15z"/><path d="M255 315h15v15h-15z"/><path d="M285 300h15v15h-15z"/><path d="M270 300h15v15h-15z"/><path d="M255 300h15v15h-15z"/><path d="M420 285h15v15h-15z"/><path d="M405 285h15v15h-15z"/><path d="M390 285h15v15h-15z"/><path d="M375 285h15v15h-15z"/><path d="M360 285h15v15h-15z"/><path d="M315 285h15v15h-15z"/><path d="M300 285h15v15h-15z"/><path d="M420 270h15v15h-15z"/><path d="M390 270h15v15h-15z"/><path d="M375 270h15v15h-15z"/><path d="M360 270h15v15h-15z"/><path d="M345 270h15v15h-15z"/><path d="M330 270h15v15h-15z"/><path d="M315 270h15v15h-15z"/><path d="M315 255h15v15h-15z"/><path d="M300 255h15v15h-15z"/><path d="M300 270h15v15h-15z"/><path d="M285 285h15v15h-15z"/><path d="M285 270h15v15h-15z"/><path d="M435 255h15v15h-15z"/><path d="M435 240h15v15h-15z"/><path d="M420 255h15v15h-15z"/><path d="M405 255h15v15h-15z"/><path d="M390 255h15v15h-15z"/><path d="M375 255h15v15h-15z"/><path d="M360 255h15v15h-15z"/><path d="M345 255h15v15h-15z"/><path d="M330 255h15v15h-15z"/><path d="M405 240h15v15h-15z"/><path d="M375 240h15v15h-15z"/><path d="M360 240h15v15h-15z"/><path d="M345 240h15v15h-15z"/><path d="M330 240h15v15h-15z"/><path d="M315 240h15v15h-15z"/><path d="M300 240h15v15h-15z"/><path d="M420 225h15v15h-15z"/><path d="M405 225h15v15h-15z"/><path d="M390 225h15v15h-15z"/><path d="M345 225h15v15h-15z"/><path d="M330 225h15v15h-15z"/><path d="M435 210h15v15h-15z"/><path d="M435 225h15v15h-15z"/><path d="M420 240h15v15h-15z"/><path d="M420 210h15v15h-15z"/><path d="M405 210h15v15h-15z"/><path d="M390 210h15v15h-15z"/><path d="M375 210h15v15h-15z"/><path d="M315 225h15v15h-15z"/><path d="M420 195h15v15h-15z"/><path d="M405 195h15v15h-15z"/><path d="M390 195h15v15h-15z"/><path d="M375 195h15v15h-15z"/><path d="M435 180h15v15h-15z"/><path d="M420 180h15v15h-15z"/><path d="M405 180h15v15h-15z"/><path d="M405 165h15v15h-15z"/><path d="M390 180h15v15h-15z"/><path d="M375 180h15v15h-15z"/><path d="M360 195h15v15h-15z"/><path d="M345 210h15v15h-15z"/><path d="M360 210h15v15h-15z"/><path d="M360 225h15v15h-15z"/><path d="M435 165h15v15h-15z"/><path d="M420 165h15v15h-15z"/><path d="M435 150h15v15h-15z"/><path d="M570 285h15v15h-15z"/><path d="M540 285h15v15h-15z"/><path d="M495 285h15v15h-15z"/><path d="M525 270h15v15h-15z"/><path d="M495 270h15v15h-15z"/><path d="M480 270h15v15h-15z"/><path d="M465 255h15v15h-15z"/><path d="M585 255h15v15h-15z"/><path d="M585 240h15v15h-15z"/><path d="M570 255h15v15h-15z"/><path d="M555 255h15v15h-15z"/><path d="M525 255h15v15h-15z"/><path d="M495 255h15v15h-15z"/><path d="M450 255h15v15h-15z"/><path d="M450 270h15v15h-15z"/><path d="M555 240h15v15h-15z"/><path d="M525 240h15v15h-15z"/><path d="M510 240h15v15h-15z"/><path d="M480 240h15v15h-15z"/><path d="M465 240h15v15h-15z"/><path d="M570 225h15v15h-15z"/><path d="M525 225h15v15h-15z"/><path d="M495 225h15v15h-15z"/><path d="M585 210h15v15h-15z"/><path d="M570 210h15v15h-15z"/><path d="M540 210h15v15h-15z"/><path d="M525 210h15v15h-15z"/><path d="M510 210h15v15h-15z"/><path d="M495 210h15v15h-15z"/><path d="M465 210h15v15h-15z"/><path d="M450 210h15v15h-15z"/><path d="M570 195h15v15h-15z"/><path d="M525 195h15v15h-15z"/><path d="M495 195h15v15h-15z"/><path d="M480 195h15v15h-15z"/><path d="M540 180h15v15h-15z"/><path d="M510 180h15v15h-15z"/><path d="M465 180h15v15h-15z"/><path d="M585 165h15v15h-15z"/><path d="M555 165h15v15h-15z"/><path d="M540 165h15v15h-15z"/><path d="M510 165h15v15h-15z"/><path d="M480 150h15v15h-15z"/><path d="M465 165h15v15h-15z"/><path d="M450 165h15v15h-15z"/><path d="M585 150h15v15h-15z"/><path d="M570 150h15v15h-15z"/><path d="M540 150h15v15h-15z"/><path d="M480 165h15v15h-15z"/><path d="M495 135h15v15h-15z"/><path d="M510 135h15v15h-15z"/><path d="M495 150h15v15h-15z"/><path d="M465 150h15v15h-15z"/><path d="M450 150h15v15h-15z"/><path d="M720 285h15v15h-15z"/><path d="M735 270h15v15h-15z"/><path d="M690 285h15v15h-15z"/><path d="M645 285h15v15h-15z"/><path d="M675 270h15v15h-15z"/><path d="M645 270h15v15h-15z"/><path d="M630 270h15v15h-15z"/><path d="M615 255h15v15h-15z"/><path d="M735 255h15v15h-15z"/><path d="M735 240h15v15h-15z"/><path d="M720 255h15v15h-15z"/><path d="M705 255h15v15h-15z"/><path d="M675 255h15v15h-15z"/><path d="M645 255h15v15h-15z"/><path d="M600 255h15v15h-15z"/><path d="M705 240h15v15h-15z"/><path d="M675 240h15v15h-15z"/><path d="M660 240h15v15h-15z"/><path d="M630 240h15v15h-15z"/><path d="M615 240h15v15h-15z"/><path d="M720 225h15v15h-15z"/><path d="M675 225h15v15h-15z"/><path d="M645 225h15v15h-15z"/><path d="M735 210h15v15h-15z"/><path d="M720 210h15v15h-15z"/><path d="M690 210h15v15h-15z"/><path d="M675 210h15v15h-15z"/><path d="M660 210h15v15h-15z"/><path d="M645 210h15v15h-15z"/><path d="M615 210h15v15h-15z"/><path d="M600 210h15v15h-15z"/><path d="M720 195h15v15h-15z"/><path d="M675 195h15v15h-15z"/><path d="M645 195h15v15h-15z"/><path d="M630 195h15v15h-15z"/><path d="M660 180h15v15h-15z"/><path d="M615 180h15v15h-15z"/><path d="M735 165h15v15h-15z"/><path d="M660 165h15v15h-15z"/><path d="M645 165h15v15h-15z"/><path d="M615 165h15v15h-15z"/><path d="M600 165h15v15h-15z"/><path d="M735 150h15v15h-15z"/><path d="M720 150h15v15h-15z"/><path d="M615 150h15v15h-15z"/><path d="M795 285h15v15h-15z"/><path d="M780 285h15v15h-15z"/><path d="M765 285h15v15h-15z"/><path d="M765 270h15v15h-15z"/><path d="M780 270h15v15h-15z"/><path d="M765 255h15v15h-15z"/><path d="M885 255h15v15h-15z"/><path d="M885 240h15v15h-15z"/><path d="M885 225h15v15h-15z"/><path d="M900 240h15v15h-15z"/><path d="M750 255h15v15h-15z"/><path d="M855 240h15v15h-15z"/><path d="M780 240h15v15h-15z"/><path d="M765 240h15v15h-15z"/><path d="M870 225h15v15h-15z"/><path d="M885 210h15v15h-15z"/><path d="M870 210h15v15h-15z"/><path d="M840 210h15v15h-15z"/><path d="M825 210h15v15h-15z"/><path d="M810 210h15v15h-15z"/><path d="M795 210h15v15h-15z"/><path d="M750 210h15v15h-15z"/><path d="M870 195h15v15h-15z"/><path d="M825 195h15v15h-15z"/><path d="M795 195h15v15h-15z"/><path d="M780 195h15v15h-15z"/><path d="M825 165h15v15h-15z"/><path d="M840 180h15v15h-15z"/><path d="M855 195h15v15h-15z"/><path d="M810 180h15v15h-15z"/><path d="M765 180h15v15h-15z"/><path d="M885 165h15v15h-15z"/><path d="M855 165h15v15h-15z"/><path d="M840 165h15v15h-15z"/><path d="M810 165h15v15h-15z"/><path d="M795 165h15v15h-15z"/><path d="M765 165h15v15h-15z"/><path d="M780 165h15v15h-15z"/><path d="M795 180h15v15h-15z"/><path d="M750 165h15v15h-15z"/><path d="M885 150h15v15h-15z"/><path d="M870 150h15v15h-15z"/><path d="M840 150h15v15h-15z"/><path d="M795 150h15v15h-15z"/><path d="M765 150h15v15h-15z"/><path d="M675 420h15v15h-15z"/><path d="M615 405h15v15h-15z"/><path d="M675 405h15v15h-15z"/><path d="M645 405h15v15h-15z"/><path d="M675 390h15v15h-15z"/><path d="M660 390h15v15h-15z"/><path d="M630 390h15v15h-15z"/><path d="M675 375h15v15h-15z"/><path d="M645 375h15v15h-15z"/><path d="M735 360h15v15h-15z"/><path d="M720 360h15v15h-15z"/><path d="M690 360h15v15h-15z"/><path d="M675 360h15v15h-15z"/><path d="M660 360h15v15h-15z"/><path d="M645 360h15v15h-15z"/><path d="M615 360h15v15h-15z"/><path d="M600 360h15v15h-15z"/><path d="M720 345h15v15h-15z"/><path d="M675 345h15v15h-15z"/><path d="M645 345h15v15h-15z"/><path d="M630 345h15v15h-15z"/><path d="M690 330h15v15h-15z"/><path d="M660 330h15v15h-15z"/><path d="M615 330h15v15h-15z"/><path d="M735 315h15v15h-15z"/><path d="M720 330h15v15h-15z"/><path d="M735 330h15v15h-15z"/><path d="M765 330h15v15h-15z"/><path d="M705 315h15v15h-15z"/><path d="M690 315h15v15h-15z"/><path d="M660 315h15v15h-15z"/><path d="M645 315h15v15h-15z"/><path d="M615 315h15v15h-15z"/><path d="M600 315h15v15h-15z"/><path d="M735 300h15v15h-15z"/><path d="M750 300h15v15h-15z"/><path d="M750 285h15v15h-15z"/><path d="M720 300h15v15h-15z"/><path d="M690 300h15v15h-15z"/><path d="M645 300h15v15h-15z"/><path d="M615 300h15v15h-15z"/><path d="M870 135h15v15h-15z"/><path d="M840 135h15v15h-15z"/><path d="M795 135h15v15h-15z"/><path d="M825 120h15v15h-15z"/><path d="M810 120h15v15h-15z"/><path d="M825 135h15v15h-15z"/><path d="M795 120h15v15h-15z"/><path d="M780 120h15v15h-15z"/><path d="M765 105h15v15h-15z"/><path d="M885 105h15v15h-15z"/><path d="M885 90h15v15h-15z"/><path d="M870 105h15v15h-15z"/><path d="M855 105h15v15h-15z"/><path d="M825 105h15v15h-15z"/><path d="M795 105h15v15h-15z"/><path d="M750 105h15v15h-15z"/><path d="M855 90h15v15h-15z"/><path d="M825 90h15v15h-15z"/><path d="M810 90h15v15h-15z"/><path d="M780 90h15v15h-15z"/><path d="M765 90h15v15h-15z"/><path d="M870 75h15v15h-15z"/><path d="M825 75h15v15h-15z"/><path d="M795 75h15v15h-15z"/><path d="M885 60h15v15h-15z"/><path d="M885 45h15v15h-15z"/><path d="M870 60h15v15h-15z"/><path d="M840 60h15v15h-15z"/><path d="M825 60h15v15h-15z"/><path d="M810 60h15v15h-15z"/><path d="M795 60h15v15h-15z"/><path d="M765 60h15v15h-15z"/><path d="M780 60h15v15h-15z"/><path d="M870 45h15v15h-15z"/><path d="M855 75h15v15h-15z"/><path d="M840 90h15v15h-15z"/><path d="M840 75h15v15h-15z"/><path d="M810 75h15v15h-15z"/><path d="M855 60h15v15h-15z"/><path d="M855 45h15v15h-15z"/><path d="M870 30h15v15h-15z"/><path d="M825 45h15v15h-15z"/><path d="M795 45h15v15h-15z"/><path d="M780 45h15v15h-15z"/><path d="M765 45h15v15h-15z"/><path d="M840 30h15v15h-15z"/><path d="M840 45h15v15h-15z"/><path d="M825 30h15v15h-15z"/><path d="M810 30h15v15h-15z"/><path d="M795 30h15v15h-15z"/><path d="M750 15h15v15h-15z"/><path d="M795 0h15v15h-15z"/><path d="M765 0h15v15h-15z"/><path d="M945 135h15v15h-15z"/><path d="M930 150h15v15h-15z"/><path d="M930 135h15v15h-15z"/><path d="M945 120h15v15h-15z"/><path d="M930 120h15v15h-15z"/><path d="M915 135h15v15h-15z"/><path d="M915 120h15v15h-15z"/><path d="M900 120h15v15h-15z"/><path d="M915 105h15v15h-15z"/><path d="M945 105h15v15h-15z"/><path d="M900 105h15v15h-15z"/><path d="M930 90h15v15h-15z"/><path d="M915 90h15v15h-15z"/><path d="M945 75h15v15h-15z"/><path d="M945 60h15v15h-15z"/><path d="M915 60h15v15h-15z"/><path d="M900 60h15v15h-15z"/><path d="M885 75h15v15h-15z"/><path d="M900 75h15v15h-15z"/><path d="M915 75h15v15h-15z"/><path d="M930 45h15v15h-15z"/><path d="M915 30h15v15h-15z"/><path d="M1035 15h15v15h-15z"/><path d="M1005 15h15v15h-15z"/><path d="M1035 0h15v15h-15z"/><path d="M1020 0h15v15h-15z"/><path d="M1020 435h15v15h-15z"/><path d="M1035 405h15v15h-15z"/><path d="M1035 420h15v15h-15z"/><path d="M1020 420h15v15h-15z"/><path d="M1050 405h15v15h-15z"/><path d="M1035 390h15v15h-15z"/><path d="M1035 375h15v15h-15z"/><path d="M1020 405h15v15h-15z"/><path d="M1005 405h15v15h-15z"/><path d="M1005 390h15v15h-15z"/><path d="M1020 375h15v15h-15z"/><path d="M1035 360h15v15h-15z"/><path d="M1020 345h15v15h-15z"/><path d="M1020 330h15v15h-15z"/><path d="M1005 330h15v15h-15z"/><path d="M1035 345h15v15h-15z"/><path d="M1005 360h15v15h-15z"/><path d="M1035 330h15v15h-15z"/><path d="M1035 315h15v15h-15z"/><path d="M1005 315h15v15h-15z"/><path d="M1035 300h15v15h-15z"/><path d="M1020 300h15v15h-15z"/><path d="M720 135h15v15h-15z"/><path d="M690 135h15v15h-15z"/><path d="M645 135h15v15h-15z"/><path d="M675 120h15v15h-15z"/><path d="M645 120h15v15h-15z"/><path d="M630 120h15v15h-15z"/><path d="M615 105h15v15h-15z"/><path d="M735 105h15v15h-15z"/><path d="M735 90h15v15h-15z"/><path d="M720 105h15v15h-15z"/><path d="M705 105h15v15h-15z"/><path d="M675 105h15v15h-15z"/><path d="M660 120h15v15h-15z"/><path d="M660 105h15v15h-15z"/><path d="M645 105h15v15h-15z"/><path d="M600 105h15v15h-15z"/><path d="M705 90h15v15h-15z"/><path d="M675 90h15v15h-15z"/><path d="M660 90h15v15h-15z"/><path d="M630 90h15v15h-15z"/><path d="M615 90h15v15h-15z"/><path d="M720 75h15v15h-15z"/><path d="M705 75h15v15h-15z"/><path d="M675 75h15v15h-15z"/><path d="M690 120h15v15h-15z"/><path d="M705 135h15v15h-15z"/><path d="M705 120h15v15h-15z"/><path d="M720 120h15v15h-15z"/><path d="M735 135h15v15h-15z"/><path d="M750 150h15v15h-15z"/><path d="M750 135h15v15h-15z"/><path d="M690 105h15v15h-15z"/><path d="M690 90h15v15h-15z"/><path d="M690 75h15v15h-15z"/><path d="M645 75h15v15h-15z"/><path d="M690 60h15v15h-15z"/><path d="M720 45h15v15h-15z"/><path d="M735 30h15v15h-15z"/><path d="M675 45h15v15h-15z"/><path d="M645 45h15v15h-15z"/><path d="M690 30h15v15h-15z"/><path d="M675 30h15v15h-15z"/><path d="M660 30h15v15h-15z"/><path d="M735 15h15v15h-15z"/><path d="M705 15h15v15h-15z"/><path d="M690 15h15v15h-15z"/><path d="M735 0h15v15h-15z"/><path d="M720 0h15v15h-15z"/><path d="M1170 585h15v15h-15z"/><path d="M1140 585h15v15h-15z"/><path d="M1125 570h15v15h-15z"/><path d="M1065 555h15v15h-15z"/><path d="M1125 555h15v15h-15z"/><path d="M1125 540h15v15h-15z"/><path d="M1110 540h15v15h-15z"/><path d="M1065 540h15v15h-15z"/><path d="M1125 525h15v15h-15z"/><path d="M1140 570h15v15h-15z"/><path d="M1140 555h15v15h-15z"/><path d="M1140 540h15v15h-15z"/><path d="M1140 525h15v15h-15z"/><path d="M1125 510h15v15h-15z"/><path d="M1110 510h15v15h-15z"/><path d="M1125 495h15v15h-15z"/><path d="M1110 480h15v15h-15z"/><path d="M1110 465h15v15h-15z"/><path d="M1095 465h15v15h-15z"/><path d="M1095 450h15v15h-15z"/><path d="M1110 405h15v15h-15z"/><path d="M1110 345h15v15h-15z"/><path d="M1020 585h15v15h-15z"/><path d="M1035 555h15v15h-15z"/><path d="M1035 540h15v15h-15z"/><path d="M1035 585h15v15h-15z"/><path d="M1035 570h15v15h-15z"/><path d="M1065 585h15v15h-15z"/><path d="M1065 570h15v15h-15z"/><path d="M1020 555h15v15h-15z"/><path d="M1020 525h15v15h-15z"/><path d="M1035 510h15v15h-15z"/><path d="M1020 510h15v15h-15z"/><path d="M1020 495h15v15h-15z"/><path d="M1020 480h15v15h-15z"/><path d="M1035 495h15v15h-15z"/><path d="M1035 465h15v15h-15z"/><path d="M1035 450h15v15h-15z"/><path d="M1020 450h15v15h-15z"/><path d="M1140 735h15v15h-15z"/><path d="M1080 720h15v15h-15z"/><path d="M1065 705h15v15h-15z"/><path d="M1140 720h15v15h-15z"/><path d="M1125 705h15v15h-15z"/><path d="M1095 705h15v15h-15z"/><path d="M1050 705h15v15h-15z"/><path d="M1155 690h15v15h-15z"/><path d="M1140 705h15v15h-15z"/><path d="M1140 690h15v15h-15z"/><path d="M1125 690h15v15h-15z"/><path d="M1080 690h15v15h-15z"/><path d="M1065 690h15v15h-15z"/><path d="M1050 690h15v15h-15z"/><path d="M1050 675h15v15h-15z"/><path d="M1125 675h15v15h-15z"/><path d="M1080 675h15v15h-15z"/><path d="M1140 660h15v15h-15z"/><path d="M1125 660h15v15h-15z"/><path d="M1080 660h15v15h-15z"/><path d="M1065 660h15v15h-15z"/><path d="M1050 660h15v15h-15z"/><path d="M1125 645h15v15h-15z"/><path d="M1080 645h15v15h-15z"/><path d="M1140 630h15v15h-15z"/><path d="M1065 630h15v15h-15z"/><path d="M1155 615h15v15h-15z"/><path d="M1140 615h15v15h-15z"/><path d="M1065 615h15v15h-15z"/><path d="M1050 615h15v15h-15z"/><path d="M1140 600h15v15h-15z"/><path d="M1065 600h15v15h-15z"/><path d="M1035 705h15v15h-15z"/><path d="M1035 690h15v15h-15z"/><path d="M1035 660h15v15h-15z"/><path d="M1020 645h15v15h-15z"/><path d="M1035 615h15v15h-15z"/><path d="M1035 630h15v15h-15z"/><path d="M1050 645h15v15h-15z"/><path d="M1035 645h15v15h-15z"/><path d="M1005 615h15v15h-15z"/><path d="M1035 600h15v15h-15z"/><path d="M1020 600h15v15h-15z"/><path d="M1170 885h15v15h-15z"/><path d="M1185 885h15v15h-15z"/><path d="M1140 885h15v15h-15z"/><path d="M1095 885h15v15h-15z"/><path d="M1095 870h15v15h-15z"/><path d="M1080 870h15v15h-15z"/><path d="M1065 855h15v15h-15z"/><path d="M1170 855h15v15h-15z"/><path d="M1170 840h15v15h-15z"/><path d="M1155 855h15v15h-15z"/><path d="M1170 870h15v15h-15z"/><path d="M1155 870h15v15h-15z"/><path d="M1095 855h15v15h-15z"/><path d="M1050 855h15v15h-15z"/><path d="M1155 840h15v15h-15z"/><path d="M1080 840h15v15h-15z"/><path d="M1065 840h15v15h-15z"/><path d="M1170 825h15v15h-15z"/><path d="M1155 825h15v15h-15z"/><path d="M1095 825h15v15h-15z"/><path d="M1080 810h15v15h-15z"/><path d="M1080 825h15v15h-15z"/><path d="M1050 825h15v15h-15z"/><path d="M1170 810h15v15h-15z"/><path d="M1140 810h15v15h-15z"/><path d="M1065 810h15v15h-15z"/><path d="M1050 810h15v15h-15z"/><path d="M1080 795h15v15h-15z"/><path d="M1140 780h15v15h-15z"/><path d="M1155 795h15v15h-15z"/><path d="M1155 765h15v15h-15z"/><path d="M1155 780h15v15h-15z"/><path d="M1155 750h15v15h-15z"/><path d="M1140 765h15v15h-15z"/><path d="M1065 765h15v15h-15z"/><path d="M1050 765h15v15h-15z"/><path d="M1140 750h15v15h-15z"/><path d="M1065 750h15v15h-15z"/><path d="M1080 750h15v15h-15z"/><path d="M1080 735h15v15h-15z"/><path d="M1080 780h15v15h-15z"/><path d="M1095 810h15v15h-15z"/><path d="M1095 795h15v15h-15z"/><path d="M1095 780h15v15h-15z"/><path d="M1080 765h15v15h-15z"/><path d="M1035 855h15v15h-15z"/><path d="M1035 765h15v15h-15z"/><path d="M1050 780h15v15h-15z"/><path d="M1035 780h15v15h-15z"/><path d="M1050 795h15v15h-15z"/><path d="M1035 750h15v15h-15z"/><path d="M1035 720h15v15h-15z"/><path d="M1035 735h15v15h-15z"/><path d="M1050 750h15v15h-15z"/><path d="M1050 720h15v15h-15z"/><path d="M1050 735h15v15h-15z"/><path d="M1170 1035h15v15h-15z"/><path d="M1140 1035h15v15h-15z"/><path d="M1095 1035h15v15h-15z"/><path d="M1125 1020h15v15h-15z"/><path d="M1095 1020h15v15h-15z"/><path d="M1080 1020h15v15h-15z"/><path d="M1065 1005h15v15h-15z"/><path d="M1185 1005h15v15h-15z"/><path d="M1185 990h15v15h-15z"/><path d="M1170 1005h15v15h-15z"/><path d="M1125 1005h15v15h-15z"/><path d="M1095 1005h15v15h-15z"/><path d="M1050 1005h15v15h-15z"/><path d="M1155 990h15v15h-15z"/><path d="M1125 990h15v15h-15z"/><path d="M1110 990h15v15h-15z"/><path d="M1080 990h15v15h-15z"/><path d="M1065 990h15v15h-15z"/><path d="M1170 975h15v15h-15z"/><path d="M1125 975h15v15h-15z"/><path d="M1095 975h15v15h-15z"/><path d="M1185 960h15v15h-15z"/><path d="M1170 960h15v15h-15z"/><path d="M1125 960h15v15h-15z"/><path d="M1110 960h15v15h-15z"/><path d="M1095 960h15v15h-15z"/><path d="M1065 960h15v15h-15z"/><path d="M1065 975h15v15h-15z"/><path d="M1080 960h15v15h-15z"/><path d="M1050 960h15v15h-15z"/><path d="M1170 945h15v15h-15z"/><path d="M1155 960h15v15h-15z"/><path d="M1155 945h15v15h-15z"/><path d="M1200 945h15v15h-15z"/><path d="M1185 945h15v15h-15z"/><path d="M1155 930h15v15h-15z"/><path d="M1125 945h15v15h-15z"/><path d="M1095 945h15v15h-15z"/><path d="M1080 945h15v15h-15z"/><path d="M1065 945h15v15h-15z"/><path d="M1110 930h15v15h-15z"/><path d="M1065 930h15v15h-15z"/><path d="M1050 930h15v15h-15z"/><path d="M1050 945h15v15h-15z"/><path d="M1050 990h15v15h-15z"/><path d="M1050 975h15v15h-15z"/><path d="M1080 930h15v15h-15z"/><path d="M1185 915h15v15h-15z"/><path d="M1185 930h15v15h-15z"/><path d="M1170 930h15v15h-15z"/><path d="M1155 915h15v15h-15z"/><path d="M1110 915h15v15h-15z"/><path d="M1095 915h15v15h-15z"/><path d="M1065 915h15v15h-15z"/><path d="M1050 915h15v15h-15z"/><path d="M1185 900h15v15h-15z"/><path d="M1170 900h15v15h-15z"/><path d="M1140 900h15v15h-15z"/><path d="M1095 900h15v15h-15z"/><path d="M1065 900h15v15h-15z"/><path d="M1290 1035h15v15h-15z"/><path d="M1305 1065h15v15h-15z"/><path d="M1305 1080h15v15h-15z"/><path d="M1320 1095h15v15h-15z"/><path d="M1305 1110h15v15h-15z"/><path d="M1320 1110h15v15h-15z"/><path d="M1320 1125h15v15h-15z"/><path d="M1320 1140h15v15h-15z"/><path d="M1335 1140h15v15h-15z"/><path d="M1275 1005h15v15h-15z"/><path d="M1200 1005h15v15h-15z"/><path d="M1185 1020h15v15h-15z"/><path d="M1200 1020h15v15h-15z"/><path d="M1125 1050h15v15h-15z"/><path d="M1140 1050h15v15h-15z"/><path d="M1125 1065h15v15h-15z"/><path d="M1140 1065h15v15h-15z"/><path d="M1140 1080h15v15h-15z"/><path d="M1155 1080h15v15h-15z"/><path d="M1140 1095h15v15h-15z"/><path d="M1155 1095h15v15h-15z"/><path d="M1140 1110h15v15h-15z"/><path d="M1155 1110h15v15h-15z"/><path d="M1110 1140h15v15h-15z"/><path d="M1125 1140h15v15h-15z"/><path d="M1110 1125h15v15h-15z"/><path d="M1110 1110h15v15h-15z"/><path d="M1080 1140h15v15h-15z"/><path d="M1080 1155h15v15h-15z"/><path d="M1380 1260h15v15h-15z"/><path d="M1380 1275h15v15h-15z"/><path d="M1275 1555h15v15h-15z"/><path d="M1395 1155v15h-15v-15z"/><path d="M1380 1155v15h-15v-15z"/><path d="M1365 1155v15h-15v-15z"/><path d="M1350 1155v15h-15v-15z"/><path d="M1335 1155v15h-15v-15z"/><path d="M1380 1245v15h-15v-15z"/><path d="M1365 1245v15h-15v-15z"/><path d="M1350 1245v15h-15v-15z"/><path d="M1335 1245v15h-15v-15z"/><path d="M1395 1170v15h-15v-15z"/><path d="M1395 1185v15h-15v-15z"/><path d="M1365 1185v15h-15v-15z"/><path d="M1365 1200v15h-15v-15z"/><path d="M1365 1215v15h-15v-15z"/><path d="M1350 1215v15h-15v-15z"/><path d="M1350 1200v15h-15v-15z"/><path d="M1350 1185v15h-15v-15z"/><path d="M1335 1215v15h-15v-15z"/><path d="M1335 1200v15h-15v-15z"/><path d="M1335 1185v15h-15v-15z"/><path d="M1395 1200v15h-15v-15z"/><path d="M1395 1215v15h-15v-15z"/><path d="M1395 1230v15h-15v-15z"/><path d="M1395 1245v15h-15v-15z"/><path d="M1320 1155v15h-15v-15z"/><path d="M1320 1245v15h-15v-15z"/><path d="M1305 1155v15h-15v-15z"/><path d="M1275 1170v15h-15v-15z"/><path d="M1260 1155v15h-15v-15z"/><path d="M1245 1155v15h-15v-15z"/><path d="M1275 1185v15h-15v-15z"/><path d="M1260 1185v15h-15v-15z"/><path d="M1260 1200v15h-15v-15z"/><path d="M1245 1200v15h-15v-15z"/><path d="M1230 1185v15h-15v-15z"/><path d="M1215 1170v15h-15v-15z"/><path d="M1215 1155v15h-15v-15z"/><path d="M1200 1170v15h-15v-15z"/><path d="M1200 1155v15h-15v-15z"/><path d="M1185 1170v15h-15v-15z"/><path d="M1185 1185v15h-15v-15z"/><path d="M1185 1200v15h-15v-15z"/><path d="M1200 1200v15h-15v-15z"/><path d="M1215 1215v15h-15v-15z"/><path d="M1200 1230v15h-15v-15z"/><path d="M1185 1230v15h-15v-15z"/><path d="M1170 1215v15h-15v-15z"/><path d="M1155 1200v15h-15v-15z"/><path d="M1155 1185v15h-15v-15z"/><path d="M1140 1185v15h-15v-15z"/><path d="M1140 1215v15h-15v-15z"/><path d="M1125 1230v15h-15v-15z"/><path d="M1095 1215v15h-15v-15z"/><path d="M1095 1230v15h-15v-15z"/><path d="M1095 1245v15h-15v-15z"/><path d="M1125 1245v15h-15v-15z"/><path d="M1125 1260v15h-15v-15z"/><path d="M1125 1275v15h-15v-15z"/><path d="M1125 1200v15h-15v-15z"/><path d="M1110 1200v15h-15v-15z"/><path d="M1125 1170v15h-15v-15z"/><path d="M1110 1170v15h-15v-15z"/><path d="M1095 1185v15h-15v-15z"/><path d="M1125 1155v15h-15v-15z"/><path d="M1170 1170v15h-15v-15z"/><path d="M1185 1155v15h-15v-15z"/><path d="M1245 1215v15h-15v-15z"/><path d="M1245 1230v15h-15v-15z"/><path d="M1245 1245v15h-15v-15z"/><path d="M1260 1230v15h-15v-15z"/><path d="M1275 1245v15h-15v-15z"/><path d="M1275 1260v15h-15v-15z"/><path d="M1290 1275v15h-15v-15z"/><path d="M1320 1275v15h-15v-15z"/><path d="M1335 1275v15h-15v-15z"/><path d="M1335 1290v15h-15v-15z"/><path d="M1350 1290v15h-15v-15z"/><path d="M1365 1275v15h-15v-15z"/><path d="M1365 1290v15h-15v-15z"/><path d="M1380 1290v15h-15v-15z"/><path d="M1395 1290v15h-15v-15z"/><path d="M1395 1305v15h-15v-15z"/><path d="M1395 1320v15h-15v-15z"/><path d="M1395 1335v15h-15v-15z"/><path d="M1395 1350v15h-15v-15z"/><path d="M1395 1365v15h-15v-15z"/><path d="M1380 1380v15h-15v-15z"/><path d="M1380 1395v15h-15v-15z"/><path d="M1395 1395v15h-15v-15z"/><path d="M1395 1410v15h-15v-15z"/><path d="M1395 1425v15h-15v-15z"/><path d="M1380 1440v15h-15v-15z"/><path d="M1365 1425v15h-15v-15z"/><path d="M1350 1425v15h-15v-15z"/><path d="M1335 1410v15h-15v-15z"/><path d="M1320 1410v15h-15v-15z"/><path d="M1305 1395v15h-15v-15z"/><path d="M1290 1380v15h-15v-15z"/><path d="M1290 1395v15h-15v-15z"/><path d="M1275 1395v15h-15v-15z"/><path d="M1320 1455v15h-15v-15z"/><path d="M1305 1455v15h-15v-15z"/><path d="M1350 1455v15h-15v-15z"/><path d="M1335 1455v15h-15v-15z"/><path d="M1290 1455v15h-15v-15z"/><path d="M1320 1515v15h-15v-15z"/><path d="M1320 1530v15h-15v-15z"/><path d="M1305 1515v15h-15v-15z"/><path d="M1350 1500v15h-15v-15z"/><path d="M1335 1500v15h-15v-15z"/><path d="M1335 1515v15h-15v-15z"/><path d="M1335 1470v15h-15v-15z"/><path d="M1335 1485v15h-15v-15z"/><path d="M1395 1500v15h-15v-15z"/><path d="M1380 1500v15h-15v-15z"/><path d="M1395 1470v15h-15v-15z"/><path d="M1395 1515v15h-15v-15z"/><path d="M1380 1530v15h-15v-15z"/><path d="M1380 1545v15h-15v-15z"/><path d="M1365 1545v15h-15v-15z"/><path d="M1350 1560v15h-15v-15z"/><path d="M1335 1575v15h-15v-15z"/><path d="M1320 1560v15h-15v-15z"/><path d="M1305 1560v15h-15v-15z"/><path d="M1380 1560v15h-15v-15z"/><path d="M1380 1575v15h-15v-15z"/><path d="M1395 1545v15h-15v-15z"/><path d="M1395 1560v15h-15v-15z"/><path d="M1380 1485v15h-15v-15z"/><path d="M1365 1470v15h-15v-15z"/><path d="M1395 1485v15h-15v-15z"/><path d="M1305 1485v15h-15v-15z"/><path d="M1290 1515v15h-15v-15z"/><path d="M1260 1380v15h-15v-15z"/><path d="M1260 1395v15h-15v-15z"/><path d="M1260 1410v15h-15v-15z"/><path d="M1260 1425v15h-15v-15z"/><path d="M1260 1440v15h-15v-15z"/><path d="M1275 1440v15h-15v-15z"/><path d="M1275 1455v15h-15v-15z"/><path d="M1275 1470v15h-15v-15z"/><path d="M1275 1485v15h-15v-15z"/><path d="M1275 1500v15h-15v-15z"/><path d="M1275 1515v15h-15v-15z"/><path d="M1260 1470v15h-15v-15z"/><path d="M1245 1470v15h-15v-15z"/><path d="M1260 1485v15h-15v-15z"/><path d="M1260 1500v15h-15v-15z"/><path d="M1260 1515v15h-15v-15z"/><path d="M1245 1500v15h-15v-15z"/><path d="M1230 1485v15h-15v-15z"/><path d="M1230 1500v15h-15v-15z"/><path d="M1215 1485v15h-15v-15z"/><path d="M1215 1470v15h-15v-15z"/><path d="M1215 1500v15h-15v-15z"/><path d="M1230 1440v15h-15v-15z"/><path d="M1230 1455v15h-15v-15z"/><path d="M1215 1440v15h-15v-15z"/><path d="M1215 1455v15h-15v-15z"/><path d="M1155 1425v15h-15v-15z"/><path d="M1155 1410v15h-15v-15z"/><path d="M1155 1380v15h-15v-15z"/><path d="M1155 1395v15h-15v-15z"/><path d="M1110 1395v15h-15v-15z"/><path d="M1110 1365v15h-15v-15z"/><path d="M1110 1380v15h-15v-15z"/><path d="M1095 1350v15h-15v-15z"/><path d="M1080 1350v15h-15v-15z"/><path d="M1065 1335v15h-15v-15z"/><path d="M1065 1365v15h-15v-15z"/><path d="M1080 1380v15h-15v-15z"/><path d="M1065 1395v15h-15v-15z"/><path d="M1095 1365v15h-15v-15z"/><path d="M1200 1425v15h-15v-15z"/><path d="M1200 1440v15h-15v-15z"/><path d="M1185 1440v15h-15v-15z"/><path d="M1170 1440v15h-15v-15z"/><path d="M1170 1455v15h-15v-15z"/><path d="M1155 1455v15h-15v-15z"/><path d="M1170 1485v15h-15v-15z"/><path d="M1155 1485v15h-15v-15z"/><path d="M1140 1470v15h-15v-15z"/><path d="M1140 1455v15h-15v-15z"/><path d="M1140 1425v15h-15v-15z"/><path d="M1140 1410v15h-15v-15z"/><path d="M1125 1425v15h-15v-15z"/><path d="M1125 1395v15h-15v-15z"/><path d="M1140 1365v15h-15v-15z"/><path d="M1110 1425v15h-15v-15z"/><path d="M1110 1410v15h-15v-15z"/><path d="M1110 1455v15h-15v-15z"/><path d="M1110 1440v15h-15v-15z"/><path d="M1080 1410v15h-15v-15z"/><path d="M1080 1440v15h-15v-15z"/><path d="M1080 1425v15h-15v-15z"/><path d="M1050 1380v15h-15v-15z"/><path d="M1050 1395v15h-15v-15z"/><path d="M1035 1380v15h-15v-15z"/><path d="M1035 1395v15h-15v-15z"/><path d="M1035 1410v15h-15v-15z"/><path d="M1020 1425v15h-15v-15z"/><path d="M1020 1440v15h-15v-15z"/><path d="M1005 1425v15h-15v-15z"/><path d="M1005 1440v15h-15v-15z"/><path d="M1035 1440v15h-15v-15z"/><path d="M1035 1455v15h-15v-15z"/><path d="M1065 1425v15h-15v-15z"/><path d="M1080 1455v15h-15v-15z"/><path d="M1110 1485v15h-15v-15z"/><path d="M1125 1485v15h-15v-15z"/><path d="M1125 1500v15h-15v-15z"/><path d="M1140 1500v15h-15v-15z"/><path d="M1155 1500v15h-15v-15z"/><path d="M1155 1515v15h-15v-15z"/><path d="M1155 1530v15h-15v-15z"/><path d="M1140 1515v15h-15v-15z"/><path d="M1125 1530v15h-15v-15z"/><path d="M1110 1530v15h-15v-15z"/><path d="M1140 1575v15h-15v-15z"/><path d="M1125 1575v15h-15v-15z"/><path d="M1095 1561v15h-15v-15z"/><path d="M1095 1515v15h-15v-15z"/><path d="M1110 1470v15h-15v-15z"/><path d="M1095 1455v15h-15v-15z"/><path d="M1050 1455v15h-15v-15z"/><path d="M1065 1455v15h-15v-15z"/><path d="M975 1455v15h-15v-15z"/><path d="M990 1455v15h-15v-15z"/><path d="M1005 1455v15h-15v-15z"/><path d="M1095 1470v15h-15v-15z"/><path d="M1200 1500v15h-15v-15z"/><path d="M1200 1485v15h-15v-15z"/><path d="M1200 1515v15h-15v-15z"/><path d="M1185 1500v15h-15v-15z"/><path d="M1185 1515v15h-15v-15z"/><path d="M1170 1530v15h-15v-15z"/><path d="M1170 1545v15h-15v-15z"/><path d="M1215 1530v15h-15v-15z"/><path d="M1230 1530v15h-15v-15z"/><path d="M1215 1545v15h-15v-15z"/><path d="M1200 1470v15h-15v-15z"/><path d="M1245 1515v15h-15v-15z"/><path d="M1290 1545v15h-15v-15z"/><path d="M1275 1545v15h-15v-15z"/><path d="M1260 1545v15h-15v-15z"/><path d="M1260 1560v15h-15v-15z"/><path d="M1245 1545v15h-15v-15z"/><path d="M1245 1560v15h-15v-15z"/><path d="M1230 1560v15h-15v-15z"/><path d="M1215 1575v15h-15v-15z"/><path d="M1200 1575v15h-15v-15z"/><path d="M1170 1575v15h-15v-15z"/><path d="M1155 1560v15h-15v-15z"/><path d="M1230 1575v15h-15v-15z"/><path d="M1260 1575v15h-15v-15z"/><path d="M1290 1560v15h-15v-15z"/><path d="M1290 1575v15h-15v-15z"/><path d="M1275 1575v15h-15v-15z"/><path d="M1245 1410v15h-15v-15z"/><path d="M1275 1365v15h-15v-15z"/><path d="M1380 1455v15h-15v-15z"/><path d="M1380 1320v15h-15v-15z"/><path d="M1365 1305v15h-15v-15z"/><path d="M1350 1305v15h-15v-15z"/><path d="M1350 1320v15h-15v-15z"/><path d="M1335 1305v15h-15v-15z"/><path d="M1335 1320v15h-15v-15z"/><path d="M1350 1335v15h-15v-15z"/><path d="M1365 1350v15h-15v-15z"/><path d="M1320 1320v15h-15v-15z"/><path d="M1320 1335v15h-15v-15z"/><path d="M1290 1305v15h-15v-15z"/><path d="M1290 1320v15h-15v-15z"/><path d="M1275 1335v15h-15v-15z"/><path d="M1260 1335v15h-15v-15z"/><path d="M1230 1335v15h-15v-15z"/><path d="M1230 1350v15h-15v-15z"/><path d="M1245 1350v15h-15v-15z"/><path d="M1200 1365v15h-15v-15z"/><path d="M1215 1365v15h-15v-15z"/><path d="M1215 1395v15h-15v-15z"/><path d="M1185 1350v15h-15v-15z"/><path d="M1200 1350v15h-15v-15z"/><path d="M1185 1410v15h-15v-15z"/><path d="M1185 1395v15h-15v-15z"/><path d="M1245 1365v15h-15v-15z"/><path d="M1275 1290v15h-15v-15z"/><path d="M1260 1290v15h-15v-15z"/><path d="M1215 1290v15h-15v-15z"/><path d="M1245 1305v15h-15v-15z"/><path d="M1230 1305v15h-15v-15z"/><path d="M1245 1320v15h-15v-15z"/><path d="M1230 1320v15h-15v-15z"/><path d="M1215 1320v15h-15v-15z"/><path d="M1200 1320v15h-15v-15z"/><path d="M1185 1320v15h-15v-15z"/><path d="M1170 1320v15h-15v-15z"/><path d="M1155 1320v15h-15v-15z"/><path d="M1155 1335v15h-15v-15z"/><path d="M1125 1305v15h-15v-15z"/><path d="M1140 1320v15h-15v-15z"/><path d="M1125 1335v15h-15v-15z"/><path d="M1110 1320v15h-15v-15z"/><path d="M1110 1335v15h-15v-15z"/><path d="M1275 1305v15h-15v-15z"/><path d="M1335 1350v15h-15v-15z"/><path d="M1335 1365v15h-15v-15z"/><path d="M1350 1380v15h-15v-15z"/><path d="M1320 1380v15h-15v-15z"/><path d="M1305 1350v15h-15v-15z"/><path d="M1260 1260v15h-15v-15z"/><path d="M1245 1260v15h-15v-15z"/><path d="M1245 1275v15h-15v-15z"/><path d="M1230 1260v15h-15v-15z"/><path d="M1215 1245v15h-15v-15z"/><path d="M1200 1260v15h-15v-15z"/><path d="M1185 1245v15h-15v-15z"/><path d="M1185 1260v15h-15v-15z"/><path d="M1170 1260v15h-15v-15z"/><path d="M1155 1275v15h-15v-15z"/><path d="M1155 1290v15h-15v-15z"/><path d="M1140 1290v15h-15v-15z"/><path d="M1125 1290v15h-15v-15z"/><path d="M1110 1275v15h-15v-15z"/><path d="M1110 1290v15h-15v-15z"/><path d="M1095 1275v15h-15v-15z"/><path d="M1095 1290v15h-15v-15z"/><path d="M1095 1305v15h-15v-15z"/><path d="M1080 1305v15h-15v-15z"/><path d="M1065 1305v15h-15v-15z"/><path d="M1065 1275v15h-15v-15z"/><path d="M1035 1275v15h-15v-15z"/><path d="M990 1275v15h-15v-15z"/><path d="M990 1290v15h-15v-15z"/><path d="M975 1290v15h-15v-15z"/><path d="M990 1305v15h-15v-15z"/><path d="M990 1320v15h-15v-15z"/><path d="M975 1320v15h-15v-15z"/><path d="M1005 1320v15h-15v-15z"/><path d="M1050 1320v15h-15v-15z"/><path d="M1020 1335v15h-15v-15z"/><path d="M1020 1350v15h-15v-15z"/><path d="M1035 1350v15h-15v-15z"/><path d="M1005 1350v15h-15v-15z"/><path d="M990 1365v15h-15v-15z"/><path d="M1005 1380v15h-15v-15z"/><path d="M1005 1395v15h-15v-15z"/><path d="M990 1395v15h-15v-15z"/><path d="M1005 1410v15h-15v-15z"/><path d="M990 1410v15h-15v-15z"/><path d="M975 1410v15h-15v-15z"/><path d="M975 1365v15h-15v-15z"/><path d="M975 1380v15h-15v-15z"/><path d="M1035 1290v15h-15v-15z"/><path d="M1170 1290v15h-15v-15z"/><path d="M1155 1245v15h-15v-15z"/><path d="M1185 1275v15h-15v-15z"/><path d="M1305 1170v15h-15v-15z"/><path d="M1305 1185v15h-15v-15z"/><path d="M1305 1200v15h-15v-15z"/><path d="M1305 1215v15h-15v-15z"/><path d="M1305 1230v15h-15v-15z"/><path d="M1305 1245v15h-15v-15z"/><path d="M1065 1155v15h-15v-15z"/><path d="M1050 1155v15h-15v-15z"/><path d="M1035 1155v15h-15v-15z"/><path d="M1020 1155v15h-15v-15z"/><path d="M1005 1155v15h-15v-15z"/><path d="M1050 1245v15h-15v-15z"/><path d="M1035 1245v15h-15v-15z"/><path d="M1020 1245v15h-15v-15z"/><path d="M1005 1245v15h-15v-15z"/><path d="M1065 1170v15h-15v-15z"/><path d="M1065 1185v15h-15v-15z"/><path d="M1035 1185v15h-15v-15z"/><path d="M1035 1200v15h-15v-15z"/><path d="M1035 1215v15h-15v-15z"/><path d="M1020 1215v15h-15v-15z"/><path d="M1020 1200v15h-15v-15z"/><path d="M1020 1185v15h-15v-15z"/><path d="M1005 1215v15h-15v-15z"/><path d="M1005 1200v15h-15v-15z"/><path d="M1005 1185v15h-15v-15z"/><path d="M1065 1200v15h-15v-15z"/><path d="M1065 1215v15h-15v-15z"/><path d="M1065 1230v15h-15v-15z"/><path d="M1065 1245v15h-15v-15z"/><path d="M990 1155v15h-15v-15z"/><path d="M990 1245v15h-15v-15z"/><path d="M975 1155v15h-15v-15z"/><path d="M975 1170v15h-15v-15z"/><path d="M975 1185v15h-15v-15z"/><path d="M975 1200v15h-15v-15z"/><path d="M975 1215v15h-15v-15z"/><path d="M975 1230v15h-15v-15z"/><path d="M975 1245v15h-15v-15z"/><path d="M1065 1485v15h-15v-15z"/><path d="M1050 1485v15h-15v-15z"/><path d="M1035 1485v15h-15v-15z"/><path d="M1020 1485v15h-15v-15z"/><path d="M1005 1485v15h-15v-15z"/><path d="M1050 1575v15h-15v-15z"/><path d="M1035 1575v15h-15v-15z"/><path d="M1020 1575v15h-15v-15z"/><path d="M1005 1575v15h-15v-15z"/><path d="M1065 1500v15h-15v-15z"/><path d="M1065 1515v15h-15v-15z"/><path d="M1035 1515v15h-15v-15z"/><path d="M1035 1530v15h-15v-15z"/><path d="M1035 1545v15h-15v-15z"/><path d="M1020 1545v15h-15v-15z"/><path d="M1020 1530v15h-15v-15z"/><path d="M1020 1515v15h-15v-15z"/><path d="M1005 1545v15h-15v-15z"/><path d="M1005 1530v15h-15v-15z"/><path d="M1005 1515v15h-15v-15z"/><path d="M1065 1530v15h-15v-15z"/><path d="M1065 1545v15h-15v-15z"/><path d="M1065 1560v15h-15v-15z"/><path d="M1065 1575v15h-15v-15z"/><path d="M990 1485v15h-15v-15z"/><path d="M990 1575v15h-15v-15z"/><path d="M975 1485v15h-15v-15z"/><path d="M975 1500v15h-15v-15z"/><path d="M975 1515v15h-15v-15z"/><path d="M975 1530v15h-15v-15z"/><path d="M975 1545v15h-15v-15z"/><path d="M975 1560v15h-15v-15z"/><path d="M975 1575v15h-15v-15z"/><path d="M1080 1125h15v15h-15z"/><path d="M1080 1110h15v15h-15z"/><path d="M1080 1095h15v15h-15z"/><path d="M1065 1110h15v15h-15z"/><path d="M1065 1095h15v15h-15z"/><path d="M1080 1080h15v15h-15z"/><path d="M1065 1080h15v15h-15z"/><path d="M1050 1080h15v15h-15z"/><path d="M1035 1125h15v15h-15z"/><path d="M1020 1125h15v15h-15z"/><path d="M1020 1110h15v15h-15z"/><path d="M1035 1095h15v15h-15z"/><path d="M1065 1065h15v15h-15z"/><path d="M1080 1050h15v15h-15z"/><path d="M1065 1035h15v15h-15z"/><path d="M1065 1020h15v15h-15z"/><path d="M1110 1095h15v15h-15z"/><path d="M1110 1080h15v15h-15z"/><path d="M1095 1065h15v15h-15z"/><path d="M1095 1050h15v15h-15z"/><path d="M1125 1125h15v15h-15z"/><path d="M1155 1125h15v15h-15z"/><path d="M1155 1140h15v15h-15z"/><path d="M1185 1035h15v15h-15z"/><path d="M1200 1035h15v15h-15z"/><path d="M1185 1050h15v15h-15z"/><path d="M1200 1050h15v15h-15z"/><path d="M1215 1050h15v15h-15z"/><path d="M1185 1065h15v15h-15z"/><path d="M1200 1065h15v15h-15z"/><path d="M1185 1080h15v15h-15z"/><path d="M1200 1080h15v15h-15z"/><path d="M1215 1080h15v15h-15z"/><path d="M1185 1095h15v15h-15z"/><path d="M1200 1095h15v15h-15z"/><path d="M1215 1095h15v15h-15z"/><path d="M1200 1110h15v15h-15z"/><path d="M1215 1110h15v15h-15z"/><path d="M1230 1110h15v15h-15z"/><path d="M1200 1125h15v15h-15z"/><path d="M1215 1125h15v15h-15z"/><path d="M1200 1140h15v15h-15z"/><path d="M1215 1140h15v15h-15z"/><path d="M1245 1110h15v15h-15z"/><path d="M1260 1080h15v15h-15z"/><path d="M1245 1125h15v15h-15z"/><path d="M1245 1140h15v15h-15z"/><path d="M1260 1125h15v15h-15z"/><path d="M1260 1140h15v15h-15z"/><path d="M1290 1140h15v15h-15z"/><path d="M1230 1125h15v15h-15z"/><path d="M1275 990h15v15h-15z"/><path d="M1260 990h15v15h-15z"/><path d="M1275 975h15v15h-15z"/><path d="M1290 1020h15v15h-15z"/><path d="M1290 1005h15v15h-15z"/><path d="M1290 990h15v15h-15z"/><path d="M1290 960h15v15h-15z"/><path d="M1275 960h15v15h-15z"/><path d="M1260 960h15v15h-15z"/><path d="M1200 960h15v15h-15z"/><path d="M1185 975h15v15h-15z"/><path d="M1275 945h15v15h-15z"/><path d="M1260 930h15v15h-15z"/><path d="M1260 915h15v15h-15z"/><path d="M1245 900h15v15h-15z"/><path d="M1260 885h15v15h-15z"/><path d="M1245 870h15v15h-15z"/><path d="M1260 855h15v15h-15z"/><path d="M1245 855h15v15h-15z"/><path d="M1230 840h15v15h-15z"/><path d="M1245 825h15v15h-15z"/><path d="M1020 1035h15v15h-15z"/><path d="M990 1035h15v15h-15z"/><path d="M945 1035h15v15h-15z"/><path d="M945 1020h15v15h-15z"/><path d="M930 1020h15v15h-15z"/><path d="M915 1005h15v15h-15z"/><path d="M945 1005h15v15h-15z"/><path d="M1050 885h15v15h-15z"/><path d="M1050 870h15v15h-15z"/><path d="M1065 885h15v15h-15z"/><path d="M1065 870h15v15h-15z"/><path d="M1080 915h15v15h-15z"/><path d="M1080 900h15v15h-15z"/><path d="M690 1335h15v15h-15z"/><path d="M615 1335h15v15h-15z"/><path d="M690 1320h15v15h-15z"/><path d="M675 1320h15v15h-15z"/><path d="M660 1320h15v15h-15z"/><path d="M645 1320h15v15h-15z"/><path d="M630 1335h15v15h-15z"/><path d="M630 1320h15v15h-15z"/><path d="M615 1320h15v15h-15z"/><path d="M600 1320h15v15h-15z"/><path d="M675 1305h15v15h-15z"/><path d="M660 1305h15v15h-15z"/><path d="M645 1305h15v15h-15z"/><path d="M660 1290h15v15h-15z"/><path d="M645 1290h15v15h-15z"/><path d="M630 1290h15v15h-15z"/><path d="M615 1290h15v15h-15z"/><path d="M600 1290h15v15h-15z"/><path d="M660 1275h15v15h-15z"/><path d="M630 1275h15v15h-15z"/><path d="M690 1260h15v15h-15z"/><path d="M675 1260h15v15h-15z"/><path d="M660 1260h15v15h-15z"/><path d="M615 1260h15v15h-15z"/><path d="M615 1275h15v15h-15z"/><path d="M600 1260h15v15h-15z"/><path d="M675 1245h15v15h-15z"/><path d="M630 1245h15v15h-15z"/><path d="M615 1245h15v15h-15z"/><path d="M600 1245h15v15h-15z"/><path d="M660 1230h15v15h-15z"/><path d="M660 1245h15v15h-15z"/><path d="M630 1230h15v15h-15z"/><path d="M615 1230h15v15h-15z"/><path d="M600 1230h15v15h-15z"/><path d="M690 1215h15v15h-15z"/><path d="M675 1215h15v15h-15z"/><path d="M630 1215h15v15h-15z"/><path d="M615 1215h15v15h-15z"/><path d="M675 1200h15v15h-15z"/><path d="M660 1200h15v15h-15z"/><path d="M645 1200h15v15h-15z"/><path d="M615 1200h15v15h-15z"/><path d="M570 1485h15v15h-15z"/><path d="M555 1485h15v15h-15z"/><path d="M540 1485h15v15h-15z"/><path d="M585 1470h15v15h-15z"/><path d="M570 1470h15v15h-15z"/><path d="M555 1470h15v15h-15z"/><path d="M540 1470h15v15h-15z"/><path d="M525 1470h15v15h-15z"/><path d="M510 1470h15v15h-15z"/><path d="M480 1485h15v15h-15z"/><path d="M435 1470h15v15h-15z"/><path d="M420 1500h15v15h-15z"/><path d="M405 1485h15v15h-15z"/><path d="M570 1455h15v15h-15z"/><path d="M555 1455h15v15h-15z"/><path d="M540 1455h15v15h-15z"/><path d="M525 1455h15v15h-15z"/><path d="M555 1440h15v15h-15z"/><path d="M540 1440h15v15h-15z"/><path d="M450 1440h15v15h-15z"/><path d="M570 1425h15v15h-15z"/><path d="M540 1425h15v15h-15z"/><path d="M525 1425h15v15h-15z"/><path d="M585 1410h15v15h-15z"/><path d="M570 1440h15v15h-15z"/><path d="M555 1410h15v15h-15z"/><path d="M540 1410h15v15h-15z"/><path d="M525 1410h15v15h-15z"/><path d="M465 1410h15v15h-15z"/><path d="M465 1425h15v15h-15z"/><path d="M450 1410h15v15h-15z"/><path d="M585 1395h15v15h-15z"/><path d="M555 1395h15v15h-15z"/><path d="M525 1395h15v15h-15z"/><path d="M480 1395h15v15h-15z"/><path d="M465 1395h15v15h-15z"/><path d="M450 1395h15v15h-15z"/><path d="M420 1380h15v15h-15z"/><path d="M585 1380h15v15h-15z"/><path d="M510 1380h15v15h-15z"/><path d="M510 1395h15v15h-15z"/><path d="M480 1380h15v15h-15z"/><path d="M465 1380h15v15h-15z"/><path d="M450 1380h15v15h-15z"/><path d="M555 1365h15v15h-15z"/><path d="M570 1365h15v15h-15z"/><path d="M540 1365h15v15h-15z"/><path d="M525 1365h15v15h-15z"/><path d="M480 1365h15v15h-15z"/><path d="M465 1365h15v15h-15z"/><path d="M585 1350h15v15h-15z"/><path d="M570 1350h15v15h-15z"/><path d="M555 1350h15v15h-15z"/><path d="M525 1350h15v15h-15z"/><path d="M510 1350h15v15h-15z"/><path d="M495 1350h15v15h-15z"/><path d="M465 1350h15v15h-15z"/><path d="M900 1485h15v15h-15z"/><path d="M885 1485h15v15h-15z"/><path d="M870 1485h15v15h-15z"/><path d="M615 1485h15v15h-15z"/><path d="M915 1470h15v15h-15z"/><path d="M900 1470h15v15h-15z"/><path d="M885 1470h15v15h-15z"/><path d="M870 1470h15v15h-15z"/><path d="M675 1470h15v15h-15z"/><path d="M660 1470h15v15h-15z"/><path d="M645 1470h15v15h-15z"/><path d="M630 1485h15v15h-15z"/><path d="M630 1470h15v15h-15z"/><path d="M615 1470h15v15h-15z"/><path d="M600 1470h15v15h-15z"/><path d="M900 1455h15v15h-15z"/><path d="M885 1455h15v15h-15z"/><path d="M870 1455h15v15h-15z"/><path d="M675 1455h15v15h-15z"/><path d="M660 1455h15v15h-15z"/><path d="M645 1455h15v15h-15z"/><path d="M885 1440h15v15h-15z"/><path d="M870 1440h15v15h-15z"/><path d="M660 1440h15v15h-15z"/><path d="M645 1440h15v15h-15z"/><path d="M630 1440h15v15h-15z"/><path d="M615 1440h15v15h-15z"/><path d="M600 1440h15v15h-15z"/><path d="M900 1425h15v15h-15z"/><path d="M870 1425h15v15h-15z"/><path d="M675 1425h15v15h-15z"/><path d="M660 1425h15v15h-15z"/><path d="M630 1425h15v15h-15z"/><path d="M915 1410h15v15h-15z"/><path d="M900 1440h15v15h-15z"/><path d="M900 1410h15v15h-15z"/><path d="M885 1410h15v15h-15z"/><path d="M870 1410h15v15h-15z"/><path d="M675 1410h15v15h-15z"/><path d="M660 1410h15v15h-15z"/><path d="M615 1410h15v15h-15z"/><path d="M615 1425h15v15h-15z"/><path d="M600 1410h15v15h-15z"/><path d="M915 1395h15v15h-15z"/><path d="M900 1395h15v15h-15z"/><path d="M885 1395h15v15h-15z"/><path d="M675 1395h15v15h-15z"/><path d="M630 1395h15v15h-15z"/><path d="M615 1395h15v15h-15z"/><path d="M600 1395h15v15h-15z"/><path d="M735 1380h15v15h-15z"/><path d="M720 1380h15v15h-15z"/><path d="M660 1380h15v15h-15z"/><path d="M660 1395h15v15h-15z"/><path d="M630 1380h15v15h-15z"/><path d="M615 1380h15v15h-15z"/><path d="M600 1380h15v15h-15z"/><path d="M675 1365h15v15h-15z"/><path d="M630 1365h15v15h-15z"/><path d="M615 1365h15v15h-15z"/><path d="M675 1350h15v15h-15z"/><path d="M660 1350h15v15h-15z"/><path d="M645 1350h15v15h-15z"/><path d="M615 1350h15v15h-15z"/><path d="M705 1590h15v15h-15z"/><path d="M690 1590h15v15h-15z"/><path d="M600 1590h15v15h-15z"/><path d="M900 1575h15v15h-15z"/><path d="M915 1560h15v15h-15z"/><path d="M720 1590h15v15h-15z"/><path d="M900 1560h15v15h-15z"/><path d="M885 1560h15v15h-15z"/><path d="M870 1560h15v15h-15z"/><path d="M675 1560h15v15h-15z"/><path d="M615 1560h15v15h-15z"/><path d="M915 1545h15v15h-15z"/><path d="M900 1545h15v15h-15z"/><path d="M885 1545h15v15h-15z"/><path d="M675 1545h15v15h-15z"/><path d="M600 1545h15v15h-15z"/><path d="M915 1530h15v15h-15z"/><path d="M930 1530h15v15h-15z"/><path d="M945 1545h15v15h-15z"/><path d="M930 1560h15v15h-15z"/><path d="M945 1575h15v15h-15z"/><path d="M900 1530h15v15h-15z"/><path d="M660 1530h15v15h-15z"/><path d="M660 1545h15v15h-15z"/><path d="M615 1530h15v15h-15z"/><path d="M600 1530h15v15h-15z"/><path d="M885 1515h15v15h-15z"/><path d="M870 1515h15v15h-15z"/><path d="M675 1515h15v15h-15z"/><path d="M630 1515h15v15h-15z"/><path d="M615 1515h15v15h-15z"/><path d="M915 1500h15v15h-15z"/><path d="M900 1500h15v15h-15z"/><path d="M945 1485h15v15h-15z"/><path d="M945 1470h15v15h-15z"/><path d="M945 1455h15v15h-15z"/><path d="M945 1500h15v15h-15z"/><path d="M840 1575h15v15h-15z"/><path d="M765 1590h15v15h-15z"/><path d="M870 1575h15v15h-15z"/><path d="M930 1485h15v15h-15z"/><path d="M930 1425h15v15h-15z"/><path d="M930 1410h15v15h-15z"/><path d="M930 1395h15v15h-15z"/><path d="M930 1380h15v15h-15z"/><path d="M930 1440h15v15h-15z"/><path d="M1425 1350h15v15h-15z"/><path d="M1410 1335h15v15h-15z"/><path d="M1410 1305h15v15h-15z"/><path d="M1395 1305h15v15h-15z"/><path d="M1410 1275h15v15h-15z"/><path d="M1410 1260h15v15h-15z"/><path d="M1425 1215h15v15h-15z"/><path d="M1425 1185h15v15h-15z"/><path d="M1410 1185h15v15h-15z"/><path d="M1425 1155h15v15h-15z"/><path d="M1395 1470h15v15h-15z"/><path d="M1395 1410h15v15h-15z"/><path d="M1395 1395h15v15h-15z"/><path d="M1395 1560h15v15h-15z"/><path d="M1395 1545h15v15h-15z"/><path d="M1395 1530h15v15h-15z"/><path d="M1410 1530h15v15h-15z"/><path d="M1425 1545h15v15h-15z"/><path d="M1410 1560h15v15h-15z"/><path d="M1425 1575h15v15h-15z"/><path d="M1395 1500h15v15h-15z"/><path d="M1425 1485h15v15h-15z"/><path d="M1425 1470h15v15h-15z"/><path d="M1425 1455h15v15h-15z"/><path d="M1425 1500h15v15h-15z"/><path d="M1410 1485h15v15h-15z"/><path d="M1410 1425h15v15h-15z"/><path d="M1410 1410h15v15h-15z"/><path d="M1410 1395h15v15h-15z"/><path d="M1410 1380h15v15h-15z"/><path d="M1410 1440h15v15h-15z"/><path d="M885 1500h15v15h-15z"/><path d="M675 1500h15v15h-15z"/><path d="M660 1500h15v15h-15z"/><path d="M645 1500h15v15h-15z"/><path d="M615 1500h15v15h-15z"/><path d="M690 1395h15v15h-15z"/><path d="M705 1395h15v15h-15z"/><path d="M750 1470h15v15h-15z"/><path d="M690 1470h15v15h-15z"/><path d="M750 1455h15v15h-15z"/><path d="M735 1440h15v15h-15z"/><path d="M735 1455h15v15h-15z"/><path d="M690 1440h15v15h-15z"/><path d="M750 1425h15v15h-15z"/><path d="M705 1425h15v15h-15z"/><path d="M690 1425h15v15h-15z"/><path d="M750 1410h15v15h-15z"/><path d="M720 1500h15v15h-15z"/><path d="M705 1515h15v15h-15z"/><path d="M705 1545h15v15h-15z"/><path d="M720 1485h15v15h-15z"/><path d="M735 1515h15v15h-15z"/><path d="M735 1500h15v15h-15z"/><path d="M750 1530h15v15h-15z"/><path d="M735 1545h15v15h-15z"/><path d="M765 1545h15v15h-15z"/><path d="M750 1560h15v15h-15z"/><path d="M765 1575h15v15h-15z"/><path d="M750 1515h15v15h-15z"/><path d="M720 1455h15v15h-15z"/><path d="M720 1440h15v15h-15z"/><path d="M735 1410h15v15h-15z"/><path d="M720 1410h15v15h-15z"/><path d="M690 1410h15v15h-15z"/><path d="M495 1590h-15v15h15z"/><path d="M510 1590h-15v15h15z"/><path d="M540 1590h-15v15h15z"/><path d="M555 1590h-15v15h15z"/><path d="M570 1590h-15v15h15z"/><path d="M585 1590h-15v15h15z"/><path d="M480 1575h-15v15h15z"/><path d="M510 1575h-15v15h15z"/><path d="M525 1575h-15v15h15z"/><path d="M540 1575h-15v15h15z"/><path d="M570 1575h-15v15h15z"/><path d="M465 1560h-15v15h15z"/><path d="M480 1590h-15v15h15z"/><path d="M480 1560h-15v15h15z"/><path d="M495 1560h-15v15h15z"/><path d="M510 1560h-15v15h15z"/><path d="M525 1560h-15v15h15z"/><path d="M540 1560h-15v15h15z"/><path d="M585 1560h-15v15h15z"/><path d="M585 1575h-15v15h15z"/><path d="M600 1560h-15v15h15z"/><path d="M465 1545h-15v15h15z"/><path d="M435 1545h-15v15h15z"/><path d="M420 1575h-15v15h15z"/><path d="M450 1590h-15v15h15z"/><path d="M480 1545h-15v15h15z"/><path d="M495 1545h-15v15h15z"/><path d="M525 1545h-15v15h15z"/><path d="M570 1545h-15v15h15z"/><path d="M585 1545h-15v15h15z"/><path d="M600 1545h-15v15h15z"/><path d="M465 1530h-15v15h15z"/><path d="M480 1530h-15v15h15z"/><path d="M540 1530h-15v15h15z"/><path d="M540 1545h-15v15h15z"/><path d="M570 1530h-15v15h15z"/><path d="M585 1530h-15v15h15z"/><path d="M600 1530h-15v15h15z"/><path d="M495 1515h-15v15h15z"/><path d="M510 1515h-15v15h15z"/><path d="M525 1515h-15v15h15z"/><path d="M570 1515h-15v15h15z"/><path d="M585 1515h-15v15h15z"/><path d="M600 1515h-15v15h15z"/><path d="M465 1500h-15v15h15z"/><path d="M435 1440h-15v15h15z"/><path d="M450 1425h-15v15h15z"/><path d="M480 1500h-15v15h15z"/><path d="M495 1500h-15v15h15z"/><path d="M525 1500h-15v15h15z"/><path d="M540 1500h-15v15h15z"/><path d="M555 1500h-15v15h15z"/><path d="M585 1500h-15v15h15z"/><path d="M0 76h15v15H0z"/><path d="M0 91h15v15H0z"/><path d="M0 61h15v15H0z"/><path d="M0 46h15v15H0z"/><path d="M0 31h15v15H0z"/><path d="M15 1h15v15H15z"/><path d="M0 1h15v15H0z"/><path d="M0 16h15v15H0z"/><path d="M60 76h15v15H60z"/><path d="M45 76h15v15H45z"/><path d="M30 76h15v15H30z"/><path d="M30 61h15v15H30z"/><path d="M105 46h15v15h-15z"/><path d="M45 31h15v15H45z"/><path d="M30 31h15v15H30z"/><path d="M105 16h15v15h-15z"/><path d="M75 76h15v15H75z"/><path d="M75 61h15v15H75z"/><path d="M75 46h15v15H75z"/><path d="M105 31h15v15h-15z"/><path d="M90 1h15v15H90z"/><path d="M60 1h15v15H60z"/><path d="M45 1h15v15H45z"/><path d="M30 1h15v15H30z"/><path d="M120 1575h15v15h-15z"/><path d="M90 1575h15v15H90z"/><path d="M45 1575h15v15H45z"/><path d="M75 1560h15v15H75z"/><path d="M45 1560h15v15H45z"/><path d="M30 1560h15v15H30z"/><path d="M15 1545h15v15H15z"/><path d="M135 1545h15v15h-15z"/><path d="M135 1530h15v15h-15z"/><path d="M120 1545h15v15h-15z"/><path d="M105 1545h15v15h-15z"/><path d="M75 1545h15v15H75z"/><path d="M45 1545h15v15H45z"/><path d="M0 1545h15v15H0z"/><path d="M105 1530h15v15h-15z"/><path d="M75 1530h15v15H75z"/><path d="M60 1530h15v15H60z"/><path d="M30 1530h15v15H30z"/><path d="M15 1530h15v15H15z"/><path d="M120 1515h15v15h-15z"/><path d="M75 1515h15v15H75z"/><path d="M45 1515h15v15H45z"/><path d="M135 1500h15v15h-15z"/><path d="M120 1500h15v15h-15z"/><path d="M90 1500h15v15H90z"/><path d="M75 1500h15v15H75z"/><path d="M60 1500h15v15H60z"/><path d="M45 1500h15v15H45z"/><path d="M15 1500h15v15H15z"/><path d="M0 1500h15v15H0z"/><path d="M120 1485h15v15h-15z"/><path d="M75 1485h15v15H75z"/><path d="M45 1485h15v15H45z"/><path d="M30 1485h15v15H30z"/><path d="M90 1470h15v15H90z"/><path d="M60 1470h15v15H60z"/><path d="M15 1470h15v15H15z"/><path d="M135 1455h15v15h-15z"/><path d="M105 1455h15v15h-15z"/><path d="M90 1455h15v15H90z"/><path d="M60 1455h15v15H60z"/><path d="M45 1455h15v15H45z"/><path d="M15 1455h15v15H15z"/><path d="M0 1455h15v15H0z"/><path d="M135 1440h15v15h-15z"/><path d="M120 1440h15v15h-15z"/><path d="M90 1440h15v15H90z"/><path d="M45 1440h15v15H45z"/><path d="M15 1440h15v15H15z"/></g></svg>