<svg xmlns="http://www.w3.org/2000/svg" viewBox="0 0 1440 1605"><g fill="#2db7b8"><path d="M435 105h15v15h-15z"/><path d="M435 90h15v15h-15z"/><path d="M435 60h15v15h-15z"/><path d="M435 75h15v15h-15z"/><path d="M435 30h15v15h-15z"/><path d="M435 15h15v15h-15z"/><path d="M435 0h15v15h-15z"/><path d="M465 135h15v15h-15z"/><path d="M525 120h15v15h-15z"/><path d="M510 120h15v15h-15z"/><path d="M495 120h15v15h-15z"/><path d="M480 135h15v15h-15z"/><path d="M480 120h15v15h-15z"/><path d="M465 120h15v15h-15z"/><path d="M450 120.3h15v15.2h-15z"/><path d="M540 105h15v15h-15z"/><path d="M525 105h15v15h-15z"/><path d="M510 105h15v15h-15z"/><path d="M495 105.1h15v15.2h-15z"/><path d="M540 90h15v15h-15z"/><path d="M510 90h15v15h-15z"/><path d="M495 90h15v15h-15z"/><path d="M480 90h15v15h-15z"/><path d="M465 90h15v15h-15z"/><path d="M450 90h15v15h-15z"/><path d="M570 75h15v15h-15z"/><path d="M540 75h15v15h-15z"/><path d="M525 75h15v15h-15z"/><path d="M510 75h15v15h-15z"/><path d="M480 75h15v15h-15z"/><path d="M585 59.5h15v15.2h-15z"/><path d="M570 60h15v15h-15z"/><path d="M555 60h15v15h-15z"/><path d="M540 60h15v15h-15z"/><path d="M525 60h15v15h-15z"/><path d="M510 60h15v15h-15z"/><path d="M465 60h15v15h-15z"/><path d="M465 75h15v15h-15z"/><path d="M450 60h15v15h-15z"/><path d="M585 45h15v15h-15z"/><path d="M570 45h15v15h-15z"/><path d="M555 45h15v15h-15z"/><path d="M525 45h15v15h-15z"/><path d="M480 45h15v15h-15z"/><path d="M465 45h15v15h-15z"/><path d="M450 45h15v15h-15z"/><path d="M585 30h15v15h-15z"/><path d="M570 30h15v15h-15z"/><path d="M510 30h15v15h-15z"/><path d="M510 45h15v15h-15z"/><path d="M480 30h15v15h-15z"/><path d="M465 30h15v15h-15z"/><path d="M450 30h15v15h-15z"/><path d="M555 15h15v15h-15z"/><path d="M540 15h15v15h-15z"/><path d="M525 15h15v15h-15z"/><path d="M480 15h15v15h-15z"/><path d="M465 15h15v15h-15z"/><path d="M585 0h15v15h-15z"/><path d="M570 0h15v15h-15z"/><path d="M555 0h15v15h-15z"/><path d="M525 0h15v15h-15z"/><path d="M510 0h15v15h-15z"/><path d="M495 0h15v15h-15z"/><path d="M465 0h15v15h-15z"/><path d="M630 15h-15V0h15z"/><path d="M645 15h-15V0h15z"/><path d="M660 15h-15V0h15z"/><path d="M735 15h-15V0h15z"/><path d="M615 30h-15V15h15z"/><path d="M630 30h-15V15h15z"/><path d="M645 30h-15V15h15z"/><path d="M660 30h-15V15h15z"/><path d="M675 30h-15V15h15z"/><path d="M690 30h-15V15h15z"/><path d="M705 30h-15V15h15z"/><path d="M720 15h-15V0h15z"/><path d="M720 30h-15V15h15z"/><path d="M735 30h-15V15h15z"/><path d="M750 30h-15V15h15z"/><path d="M630 45h-15V30h15z"/><path d="M645 45h-15V30h15z"/><path d="M660 45h-15V30h15z"/><path d="M675 45h-15V30h15z"/><path d="M690 45h-15V30h15z"/><path d="M705 45h-15V30h15z"/><path d="M645 60h-15V45h15z"/><path d="M630 60h-15V45h15z"/><path d="M645 135h-15v-15h15z"/><path d="M615 150h-15v-15h15z"/><path d="M630 150h-15v-15h15z"/><path d="M645 150h-15v-15h15z"/><path d="M675 150h-15v-15h15z"/><path d="M690 150h-15v-15h15z"/><path d="M870 75h15v15h-15z"/><path d="M885 60h15v15h-15z"/><path d="M870 60h15v15h-15z"/><path d="M855 60h15v15h-15z"/><path d="M840 60h15v15h-15z"/><path d="M885 45h15v15h-15z"/><path d="M870 45h15v15h-15z"/><path d="M855 45h15v15h-15z"/><path d="M825 45h15v15h-15z"/><path d="M885 30h15v15h-15z"/><path d="M870 30h15v15h-15z"/><path d="M810 30h15v15h-15z"/><path d="M810 45h15v15h-15z"/><path d="M780 30h15v15h-15z"/><path d="M765 30h15v15h-15z"/><path d="M750 30h15v15h-15z"/><path d="M855 15h15v15h-15z"/><path d="M840 15h15v15h-15z"/><path d="M825 15h15v15h-15z"/><path d="M780 15h15v15h-15z"/><path d="M765 15h15v15h-15z"/><path d="M885 0h15v15h-15z"/><path d="M870 0h15v15h-15z"/><path d="M855 0h15v15h-15z"/><path d="M825 0h15v15h-15z"/><path d="M810 0h15v15h-15z"/><path d="M795 0h15v15h-15z"/><path d="M765 0h15v15h-15z"/><path d="M1020 15h15V0h-15z"/><path d="M1005 15h15V0h-15z"/><path d="M990 15h15V0h-15z"/><path d="M915 15h15V0h-15z"/><path d="M1035 30h15V15h-15z"/><path d="M1020 30h15V15h-15z"/><path d="M1005 30h15V15h-15z"/><path d="M990 30h15V15h-15z"/><path d="M975 30h15V15h-15z"/><path d="M960 30h15V15h-15z"/><path d="M945 30h15V15h-15z"/><path d="M930 15h15V0h-15z"/><path d="M930 30h15V15h-15z"/><path d="M915 30h15V15h-15z"/><path d="M900 30h15V15h-15z"/><path d="M1020 45h15V30h-15z"/><path d="M1005 45h15V30h-15z"/><path d="M990 45h15V30h-15z"/><path d="M975 45h15V30h-15z"/><path d="M960 45h15V30h-15z"/><path d="M945 45h15V30h-15z"/><path d="M1005 60h15V45h-15z"/><path d="M990 60h15V45h-15z"/><path d="M960 60h15V45h-15z"/><path d="M945 60h15V45h-15z"/><path d="M930 60h15V45h-15z"/><path d="M915 60h15V45h-15z"/><path d="M900 60h15V45h-15z"/><path d="M1020 75h15V60h-15z"/><path d="M990 75h15V60h-15z"/><path d="M975 75h15V60h-15z"/><path d="M960 75h15V60h-15z"/><path d="M930 75h15V60h-15z"/><path d="M1035 90h15V75h-15z"/><path d="M1020 60h15V45h-15z"/><path d="M1020 90h15V75h-15z"/><path d="M1005 90h15V75h-15z"/><path d="M990 90h15V75h-15z"/><path d="M975 90h15V75h-15z"/><path d="M960 90h15V75h-15z"/><path d="M915 90h15V75h-15z"/><path d="M915 75h15V60h-15z"/><path d="M900 90h15V75h-15z"/><path d="M1035 105h15V90h-15z"/><path d="M1020 105h15V90h-15z"/><path d="M1005 105h15V90h-15z"/><path d="M975 105h15V90h-15z"/><path d="M930 105h15V90h-15z"/><path d="M915 105h15V90h-15z"/><path d="M900 105h15V90h-15z"/><path d="M1035 120h15v-15h-15z"/><path d="M1020 120h15v-15h-15z"/><path d="M960 120h15v-15h-15z"/><path d="M960 105h15V90h-15z"/><path d="M930 120h15v-15h-15z"/><path d="M915 120h15v-15h-15z"/><path d="M900 120h15v-15h-15z"/><path d="M1005 135h15v-15h-15z"/><path d="M990 135h15v-15h-15z"/><path d="M975 135h15v-15h-15z"/><path d="M930 135h15v-15h-15z"/><path d="M915 135h15v-15h-15z"/><path d="M1035 150h15v-15h-15z"/><path d="M1020 150h15v-15h-15z"/><path d="M1005 150h15v-15h-15z"/><path d="M975 150h15v-15h-15z"/><path d="M960 150h15v-15h-15z"/><path d="M945 150h15v-15h-15z"/><path d="M1320 135h15v15h-15z"/><path d="M1305 135h15v15h-15z"/><path d="M1290 135h15v15h-15z"/><path d="M1215 135h15v15h-15z"/><path d="M1335 120h15v15h-15z"/><path d="M1320 120h15v15h-15z"/><path d="M1305 120h15v15h-15z"/><path d="M1290 120h15v15h-15z"/><path d="M1275 120h15v15h-15z"/><path d="M1260 120h15v15h-15z"/><path d="M1230 135h15v15h-15z"/><path d="M1230 120h15v15h-15z"/><path d="M1215 120h15v15h-15z"/><path d="M1200 120h15v15h-15z"/><path d="M1320 105h15v15h-15z"/><path d="M1305 105h15v15h-15z"/><path d="M1290 105h15v15h-15z"/><path d="M1275 105h15v15h-15z"/><path d="M1260 105h15v15h-15z"/><path d="M1245 105h15v15h-15z"/><path d="M1305 90h15v15h-15z"/><path d="M1290 90h15v15h-15z"/><path d="M1260 90h15v15h-15z"/><path d="M1245 90h15v15h-15z"/><path d="M1230 90h15v15h-15z"/><path d="M1215 90h15v15h-15z"/><path d="M1200 90h15v15h-15z"/><path d="M1320 75h15v15h-15z"/><path d="M1290 75h15v15h-15z"/><path d="M1275 75h15v15h-15z"/><path d="M1260 75h15v15h-15z"/><path d="M1230 75h15v15h-15z"/><path d="M1320 90h15v15h-15z"/><path d="M1320 60h15v15h-15z"/><path d="M1305 60h15v15h-15z"/><path d="M1290 60h15v15h-15z"/><path d="M1275 60h15v15h-15z"/><path d="M1260 60h15v15h-15z"/><path d="M1215 60h15v15h-15z"/><path d="M1215 75h15v15h-15z"/><path d="M1200 60h15v15h-15z"/><path d="M1320 45h15v15h-15z"/><path d="M1305 45h15v15h-15z"/><path d="M1275 45h15v15h-15z"/><path d="M1230 45h15v15h-15z"/><path d="M1215 45h15v15h-15z"/><path d="M1200 45h15v15h-15z"/><path d="M1320 30h15v15h-15z"/><path d="M1260 30h15v15h-15z"/><path d="M1260 45h15v15h-15z"/><path d="M1230 30h15v15h-15z"/><path d="M1215 30h15v15h-15z"/><path d="M1200 30h15v15h-15z"/><path d="M1305 15h15v15h-15z"/><path d="M1290 15h15v15h-15z"/><path d="M1275 15h15v15h-15z"/><path d="M1230 15h15v15h-15z"/><path d="M1215 15h15v15h-15z"/><path d="M1335 0h15v15h-15z"/><path d="M1320 0h15v15h-15z"/><path d="M1320 15h15v15h-15z"/><path d="M1305 0h15v15h-15z"/><path d="M1275 0h15v15h-15z"/><path d="M1260 0h15v15h-15z"/><path d="M1245 0h15v15h-15z"/><path d="M1215 0h15v15h-15z"/><path d="M1365 135h15v15h-15z"/><path d="M1425 120h15v15h-15z"/><path d="M1410 120h15v15h-15z"/><path d="M1395 120h15v15h-15z"/><path d="M1380 135h15v15h-15z"/><path d="M1380 120h15v15h-15z"/><path d="M1365 120h15v15h-15z"/><path d="M1350 120h15v15h-15z"/><path d="M1425 105h15v15h-15z"/><path d="M1410 105h15v15h-15z"/><path d="M1395 105h15v15h-15z"/><path d="M1380 105h15v15h-15z"/><path d="M1365 105h15v15h-15z"/><path d="M1350 105h15v15h-15z"/><path d="M1365 90h15v15h-15z"/><path d="M1350 90h15v15h-15z"/><path d="M1425 75h15v15h-15z"/><path d="M1425 90h15v15h-15z"/><path d="M1380 75h15v15h-15z"/><path d="M1425 60h15v15h-15z"/><path d="M1335 105h15v15h-15z"/><path d="M1425 45h15v15h-15z"/><path d="M1350 45h15v15h-15z"/><path d="M1380 30h15v15h-15z"/><path d="M1365 30h15v15h-15z"/><path d="M1350 30h15v15h-15z"/><path d="M1425 15h15v15h-15z"/><path d="M1395 60h15v15h-15z"/><path d="M1395 30h15v15h-15z"/><path d="M1395 15h15v15h-15z"/><path d="M1410 45h15v15h-15z"/><path d="M1410 90h15v15h-15z"/><path d="M1335 45h15v15h-15z"/><path d="M1335 15h15v15h-15z"/><path d="M1395 45h15v15h-15z"/><path d="M1425 30h15v15h-15z"/><path d="M1425 0h15v15h-15z"/><path d="M1410 0h15v15h-15z"/><path d="M1395 0h15v15h-15z"/><path d="M1380 0h15v15h-15z"/><path d="M1365 0h15v15h-15z"/><path d="M1350 0h15v15h-15z"/><path d="M1170 135h15v15h-15z"/><path d="M1155 135h15v15h-15z"/><path d="M1140 135h15v15h-15z"/><path d="M1125 135h15v15h-15z"/><path d="M1110 135h15v15h-15z"/><path d="M1065 135h15v15h-15z"/><path d="M1050 135h15v15h-15z"/><path d="M1170 120h15v15h-15z"/><path d="M1140 120h15v15h-15z"/><path d="M1125 120h15v15h-15z"/><path d="M1110 120h15v15h-15z"/><path d="M1095 120h15v15h-15z"/><path d="M1080 120h15v15h-15z"/><path d="M1065 120h15v15h-15z"/><path d="M1065 105h15v15h-15z"/><path d="M1050 120h15v15h-15z"/><path d="M1185 105h15v15h-15z"/><path d="M1185 90h15v15h-15z"/><path d="M1170 105h15v15h-15z"/><path d="M1155 105h15v15h-15z"/><path d="M1140 105h15v15h-15z"/><path d="M1125 105h15v15h-15z"/><path d="M1110 105h15v15h-15z"/><path d="M1095 105h15v15h-15z"/><path d="M1080 105h15v15h-15z"/><path d="M1155 90h15v15h-15z"/><path d="M1140 90h15v15h-15z"/><path d="M1125 90h15v15h-15z"/><path d="M1110 90h15v15h-15z"/><path d="M1095 90h15v15h-15z"/><path d="M1080 90h15v15h-15z"/><path d="M1065 90h15v15h-15z"/><path d="M1050 90h15v15h-15z"/><path d="M1170 75h15v15h-15z"/><path d="M1155 75h15v15h-15z"/><path d="M1140 75h15v15h-15z"/><path d="M1095 75h15v15h-15z"/><path d="M1080 75h15v15h-15z"/><path d="M1185 60h15v15h-15z"/><path d="M1185 75h15v15h-15z"/><path d="M1170 90h15v15h-15z"/><path d="M1170 60h15v15h-15z"/><path d="M1155 60h15v15h-15z"/><path d="M1140 60h15v15h-15z"/><path d="M1125 60h15v15h-15z"/><path d="M1065 75h15v15h-15z"/><path d="M1050 60h15v15h-15z"/><path d="M1050 75h15v15h-15z"/><path d="M1170 45h15v15h-15z"/><path d="M1155 45h15v15h-15z"/><path d="M1140 45h15v15h-15z"/><path d="M1125 45h15v15h-15z"/><path d="M1095 45h15v15h-15z"/><path d="M1080 45h15v15h-15z"/><path d="M1065 45h15v15h-15z"/><path d="M1050 45h15v15h-15z"/><path d="M1185 30h15v15h-15z"/><path d="M1170 30h15v15h-15z"/><path d="M1155 30h15v15h-15z"/><path d="M1125 30h15v15h-15z"/><path d="M1110 30h15v15h-15z"/><path d="M1110 45h15v15h-15z"/><path d="M1095 30h15v15h-15z"/><path d="M1080 30h15v15h-15z"/><path d="M1065 30h15v15h-15z"/><path d="M1050 30h15v15h-15z"/><path d="M1185 15h15v15h-15z"/><path d="M1170 15h15v15h-15z"/><path d="M1125 15h15v15h-15z"/><path d="M1110 15h15v15h-15z"/><path d="M1095 15h15v15h-15z"/><path d="M1080 15h15v15h-15z"/><path d="M1185 0h15v15h-15z"/><path d="M1170 0h15v15h-15z"/><path d="M1155 0h15v15h-15z"/><path d="M1140 0h15v15h-15z"/><path d="M1125 0h15v15h-15z"/><path d="M1110 0h15v15h-15z"/><path d="M1095 0h15v15h-15z"/><path d="M1080 0h15v15h-15z"/><path d="M435 270h15v15h-15z"/><path d="M435 255h15v15h-15z"/><path d="M435 240h15v15h-15z"/><path d="M435 210h15v15h-15z"/><path d="M435 285h15v15h-15z"/><path d="M435 195h15v15h-15z"/><path d="M435 180h15v15h-15z"/><path d="M435 165h15v15h-15z"/><path d="M435 150h15v15h-15z"/><path d="M1320 285h15v15h-15z"/><path d="M1305 285h15v15h-15z"/><path d="M1260 285h15v15h-15z"/><path d="M1245 285h15v15h-15z"/><path d="M1215 285h15v15h-15z"/><path d="M1200 285h15v15h-15z"/><path d="M1335 270h15v15h-15z"/><path d="M1305 270h15v15h-15z"/><path d="M1230 285h15v15h-15z"/><path d="M1215 270h15v15h-15z"/><path d="M1215 255h15v15h-15z"/><path d="M1200 270h15v15h-15z"/><path d="M1335 255h15v15h-15z"/><path d="M1335 240h15v15h-15z"/><path d="M1305 255h15v15h-15z"/><path d="M1290 255h15v15h-15z"/><path d="M1260 255h15v15h-15z"/><path d="M1245 255h15v15h-15z"/><path d="M1200 255h15v15h-15z"/><path d="M1305 240h15v15h-15z"/><path d="M1290 240h15v15h-15z"/><path d="M1260 240h15v15h-15z"/><path d="M1245 240h15v15h-15z"/><path d="M1230 240h15v15h-15z"/><path d="M1215 240h15v15h-15z"/><path d="M1200 240h15v15h-15z"/><path d="M1320 225h15v15h-15z"/><path d="M1305 225h15v15h-15z"/><path d="M1290 225h15v15h-15z"/><path d="M1275 225h15v15h-15z"/><path d="M1260 225h15v15h-15z"/><path d="M1245 225h15v15h-15z"/><path d="M1335 210h15v15h-15z"/><path d="M1335 285h15v15h-15z"/><path d="M1320 210h15v15h-15z"/><path d="M1305 210h15v15h-15z"/><path d="M1290 210h15v15h-15z"/><path d="M1275 210h15v15h-15z"/><path d="M1260 210h15v15h-15z"/><path d="M1245 210h15v15h-15z"/><path d="M1230 210h15v15h-15z"/><path d="M1215 210h15v15h-15z"/><path d="M1200 210h15v15h-15z"/><path d="M1335 195h15v15h-15z"/><path d="M1290 195h15v15h-15z"/><path d="M1275 195h15v15h-15z"/><path d="M1245 195h15v15h-15z"/><path d="M1230 195h15v15h-15z"/><path d="M1215 195h15v15h-15z"/><path d="M1200 195h15v15h-15z"/><path d="M1335 180h15v15h-15z"/><path d="M1290 180h15v15h-15z"/><path d="M1275 180h15v15h-15z"/><path d="M1260 180h15v15h-15z"/><path d="M1230 180h15v15h-15z"/><path d="M1215 180h15v15h-15z"/><path d="M1200 180h15v15h-15z"/><path d="M1335 165h15v15h-15z"/><path d="M1290 165h15v15h-15z"/><path d="M1275 165h15v15h-15z"/><path d="M1260 165h15v15h-15z"/><path d="M1245 165h15v15h-15z"/><path d="M1230 165h15v15h-15z"/><path d="M1215 165h15v15h-15z"/><path d="M1200 165h15v15h-15z"/><path d="M1335 150h15v15h-15z"/><path d="M1320 150h15v15h-15z"/><path d="M1275 150h15v15h-15z"/><path d="M1260 150h15v15h-15z"/><path d="M1245 150h15v15h-15z"/><path d="M1230 150h15v15h-15z"/><path d="M1215 150h15v15h-15z"/><path d="M1320 435h15v15h-15z"/><path d="M1290 435h15v15h-15z"/><path d="M1275 435h15v15h-15z"/><path d="M1260 435h15v15h-15z"/><path d="M1215 435h15v15h-15z"/><path d="M1200 435h15v15h-15z"/><path d="M1320 420h15v15h-15z"/><path d="M1305 420h15v15h-15z"/><path d="M1290 420h15v15h-15z"/><path d="M1275 420h15v15h-15z"/><path d="M1260 420h15v15h-15z"/><path d="M1245 420h15v15h-15z"/><path d="M1230 435h15v15h-15z"/><path d="M1305 450h15v15h-15z"/><path d="M1290 450h15v15h-15z"/><path d="M1290 465h15v15h-15z"/><path d="M1275 450h15v15h-15z"/><path d="M1260 450h15v15h-15z"/><path d="M1245 450h15v15h-15z"/><path d="M1245 465h15v15h-15z"/><path d="M1260 480h15v15h-15z"/><path d="M1215 450h15v15h-15z"/><path d="M1230 450h15v15h-15z"/><path d="M1185 435h15v15h-15z"/><path d="M1155 435h15v15h-15z"/><path d="M1185 420h15v15h-15z"/><path d="M1185 405h15v15h-15z"/><path d="M1170 420h15v15h-15z"/><path d="M1155 420h15v15h-15z"/><path d="M1125 435h15v15h-15z"/><path d="M1140 435h15v15h-15z"/><path d="M1140 450h15v15h-15z"/><path d="M1095 435h15v15h-15z"/><path d="M1080 435h15v15h-15z"/><path d="M1035 435h15v15h-15z"/><path d="M1065 435h15v15h-15z"/><path d="M1230 420h15v15h-15z"/><path d="M1215 405h15v15h-15z"/><path d="M1335 405h15v15h-15z"/><path d="M1335 390h15v15h-15z"/><path d="M1320 405h15v15h-15z"/><path d="M1305 405h15v15h-15z"/><path d="M1290 405h15v15h-15z"/><path d="M1275 405h15v15h-15z"/><path d="M1260 405h15v15h-15z"/><path d="M1245 405h15v15h-15z"/><path d="M1200 405h15v15h-15z"/><path d="M1305 390h15v15h-15z"/><path d="M1290 390h15v15h-15z"/><path d="M1260 390h15v15h-15z"/><path d="M1245 390h15v15h-15z"/><path d="M1230 390h15v15h-15z"/><path d="M1215 390h15v15h-15z"/><path d="M1200 390h15v15h-15z"/><path d="M1320 375h15v15h-15z"/><path d="M1305 375h15v15h-15z"/><path d="M1290 375h15v15h-15z"/><path d="M1275 375h15v15h-15z"/><path d="M1245 375h15v15h-15z"/><path d="M1335 360h15v15h-15z"/><path d="M1335 435h15v15h-15z"/><path d="M1320 360h15v15h-15z"/><path d="M1305 360h15v15h-15z"/><path d="M1290 360h15v15h-15z"/><path d="M1275 360h15v15h-15z"/><path d="M1260 360h15v15h-15z"/><path d="M1245 360h15v15h-15z"/><path d="M1230 360h15v15h-15z"/><path d="M1215 360h15v15h-15z"/><path d="M1335 345h15v15h-15z"/><path d="M1320 345h15v15h-15z"/><path d="M1305 345h15v15h-15z"/><path d="M1290 345h15v15h-15z"/><path d="M1275 345h15v15h-15z"/><path d="M1245 345h15v15h-15z"/><path d="M1230 345h15v15h-15z"/><path d="M1215 345h15v15h-15z"/><path d="M1200 345h15v15h-15z"/><path d="M1335 330h15v15h-15z"/><path d="M1320 330h15v15h-15z"/><path d="M1305 330h15v15h-15z"/><path d="M1290 330h15v15h-15z"/><path d="M1275 330h15v15h-15z"/><path d="M1260 330h15v15h-15z"/><path d="M1215 330h15v15h-15z"/><path d="M1200 330h15v15h-15z"/><path d="M1335 315h15v15h-15z"/><path d="M1320 315h15v15h-15z"/><path d="M1305 315h15v15h-15z"/><path d="M1290 315h15v15h-15z"/><path d="M1275 315h15v15h-15z"/><path d="M1260 315h15v15h-15z"/><path d="M1245 315h15v15h-15z"/><path d="M1215 315h15v15h-15z"/><path d="M1200 315h15v15h-15z"/><path d="M1335 300h15v15h-15z"/><path d="M1320 300h15v15h-15z"/><path d="M1290 300h15v15h-15z"/><path d="M1275 300h15v15h-15z"/><path d="M1260 300h15v15h-15z"/><path d="M1245 300h15v15h-15z"/><path d="M1230 300h15v15h-15z"/><path d="M1215 300h15v15h-15z"/><path d="M1395 165h15v-15h-15z"/><path d="M1365 165h15v-15h-15z"/><path d="M1350 165h15v-15h-15z"/><path d="M1425 180h15v-15h-15z"/><path d="M1410 180h15v-15h-15z"/><path d="M1380 165h15v-15h-15z"/><path d="M1380 180h15v-15h-15z"/><path d="M1365 180h15v-15h-15z"/><path d="M1365 195h15v-15h-15z"/><path d="M1350 180h15v-15h-15z"/><path d="M1425 195h15v-15h-15z"/><path d="M1410 195h15v-15h-15z"/><path d="M1395 195h15v-15h-15z"/><path d="M1350 195h15v-15h-15z"/><path d="M1425 210h15v-15h-15z"/><path d="M1410 210h15v-15h-15z"/><path d="M1395 210h15v-15h-15z"/><path d="M1380 210h15v-15h-15z"/><path d="M1365 210h15v-15h-15z"/><path d="M1350 210h15v-15h-15z"/><path d="M1425 225h15v-15h-15z"/><path d="M1410 225h15v-15h-15z"/><path d="M1395 225h15v-15h-15z"/><path d="M1425 240h15v-15h-15z"/><path d="M1410 240h15v-15h-15z"/><path d="M1395 240h15v-15h-15z"/><path d="M1380 240h15v-15h-15z"/><path d="M1365 240h15v-15h-15z"/><path d="M1350 240h15v-15h-15z"/><path d="M1425 255h15v-15h-15z"/><path d="M1365 255h15v-15h-15z"/><path d="M1350 255h15v-15h-15z"/><path d="M1425 270h15v-15h-15z"/><path d="M1410 270h15v-15h-15z"/><path d="M1380 270h15v-15h-15z"/><path d="M1365 270h15v-15h-15z"/><path d="M1350 270h15v-15h-15z"/><path d="M1425 285h15v-15h-15z"/><path d="M1410 285h15v-15h-15z"/><path d="M1395 285h15v-15h-15z"/><path d="M1380 285h15v-15h-15z"/><path d="M1365 285h15v-15h-15z"/><path d="M1350 285h15v-15h-15z"/><path d="M1425 300h15v-15h-15z"/><path d="M1410 300h15v-15h-15z"/><path d="M1395 300h15v-15h-15z"/><path d="M1380 300h15v-15h-15z"/><path d="M1365 300h15v-15h-15z"/><path d="M435 300h15v15h-15z"/><path d="M1170 285h15v15h-15z"/><path d="M1185 315h15v15h-15z"/><path d="M1185 270h15v15h-15z"/><path d="M1155 285h15v15h-15z"/><path d="M1140 300h15v15h-15z"/><path d="M1140 315h15v15h-15z"/><path d="M1155 330h15v15h-15z"/><path d="M1170 345h15v15h-15z"/><path d="M1095 300h15v15h-15z"/><path d="M1080 315h15v15h-15z"/><path d="M1080 390h15v15h-15z"/><path d="M1095 375h15v15h-15z"/><path d="M1065 300h15v15h-15z"/><path d="M1125 315h15v15h-15z"/><path d="M1170 270h15v15h-15z"/><path d="M1125 270h15v15h-15z"/><path d="M1095 270h15v15h-15z"/><path d="M1080 285h15v15h-15z"/><path d="M1080 270h15v15h-15z"/><path d="M1065 255h15v15h-15z"/><path d="M1050 270h15v15h-15z"/><path d="M1185 255h15v15h-15z"/><path d="M1140 255h15v15h-15z"/><path d="M1125 255h15v15h-15z"/><path d="M1095 255h15v15h-15z"/><path d="M1140 240h15v15h-15z"/><path d="M1125 240h15v15h-15z"/><path d="M1110 240h15v15h-15z"/><path d="M1095 240h15v15h-15z"/><path d="M1080 240h15v15h-15z"/><path d="M1080 225h15v15h-15z"/><path d="M1065 225h15v15h-15z"/><path d="M1065 240h15v15h-15z"/><path d="M1050 240h15v15h-15z"/><path d="M1170 225h15v15h-15z"/><path d="M1140 225h15v15h-15z"/><path d="M1185 225h15v15h-15z"/><path d="M1170 240h15v15h-15z"/><path d="M1155 210h15v15h-15z"/><path d="M1140 210h15v15h-15z"/><path d="M1110 210h15v15h-15z"/><path d="M1095 210h15v15h-15z"/><path d="M1080 210h15v15h-15z"/><path d="M1050 210h15v15h-15z"/><path d="M1050 225h15v15h-15z"/><path d="M1185 195h15v15h-15z"/><path d="M1140 195h15v15h-15z"/><path d="M1050 195h15v15h-15z"/><path d="M1155 180h15v15h-15z"/><path d="M1140 180h15v15h-15z"/><path d="M1110 180h15v15h-15z"/><path d="M1110 195h15v15h-15z"/><path d="M1095 180h15v15h-15z"/><path d="M1080 180h15v15h-15z"/><path d="M1050 180h15v15h-15z"/><path d="M1185 165h15v15h-15z"/><path d="M1155 165h15v15h-15z"/><path d="M1050 165h15v15h-15z"/><path d="M1170 150h15v15h-15z"/><path d="M1110 150h15v15h-15z"/><path d="M1095 150h15v15h-15z"/><path d="M1080 150h15v15h-15z"/><path d="M1125 165h15v15h-15z"/><path d="M1110 165h15v15h-15z"/><path d="M1095 165h15v15h-15z"/><path d="M1065 150h15v15h-15z"/><path d="M1425 330h15v-15h-15z"/><path d="M1395 330h15v-15h-15z"/><path d="M1380 315h15v-15h-15z"/><path d="M1380 330h15v-15h-15z"/><path d="M1365 345h15v-15h-15z"/><path d="M1350 330h15v-15h-15z"/><path d="M1425 345h15v-15h-15z"/><path d="M1395 345h15v-15h-15z"/><path d="M1425 360h15v-15h-15z"/><path d="M1410 360h15v-15h-15z"/><path d="M1395 360h15v-15h-15z"/><path d="M1380 360h15v-15h-15z"/><path d="M1410 375h15v-15h-15z"/><path d="M1395 375h15v-15h-15z"/><path d="M1380 375h15v-15h-15z"/><path d="M1365 375h15v-15h-15z"/><path d="M1365 360h15v-15h-15z"/><path d="M1350 360h15v-15h-15z"/><path d="M1410 390h15v-15h-15z"/><path d="M1395 390h15v-15h-15z"/><path d="M1380 390h15v-15h-15z"/><path d="M1350 390h15v-15h-15z"/><path d="M1350 375h15v-15h-15z"/><path d="M1380 405h15v-15h-15z"/><path d="M1350 405h15v-15h-15z"/><path d="M1410 420h15v-15h-15z"/><path d="M1410 405h15v-15h-15z"/><path d="M1425 375h15v-15h-15z"/><path d="M1425 405h15v-15h-15z"/><path d="M1425 390h15v-15h-15z"/><path d="M1395 420h15v-15h-15z"/><path d="M1380 420h15v-15h-15z"/><path d="M1425 435h15v-15h-15z"/><path d="M1410 435h15v-15h-15z"/><path d="M1395 435h15v-15h-15z"/><path d="M1350 420h15v-15h-15z"/><path d="M1350 435h15v-15h-15z"/><path d="M1365 420h15v-15h-15z"/><path d="M1365 435h15v-15h-15z"/><path d="M1410 450h15v-15h-15z"/><path d="M1395 450h15v-15h-15z"/><path d="M1380 450h15v-15h-15z"/><path d="M1380 465h15v-15h-15z"/><path d="M1365 450h15v-15h-15z"/><path d="M210.333 1570h14.833v15h-14.833z"/><path d="M285 1555h15v15h-15z"/><path d="M300 1540h15v15h-15z"/><path d="M285 1525h15v15h-15z"/><path d="M300 1510h15v15h-15z"/><path d="M315 1495h15v15h-15z"/><path d="M270 1540h15v15h-15z"/><path d="M225 1540h15v15h-15z"/><path d="M210 1525h15v15h-15z"/><path d="M180 1525h15v15h-15z"/><path d="M270 1510h15v15h-15z"/><path d="M255 1510h15v15h-15z"/><path d="M240 1525h15v15h-15z"/><path d="M210 1495h15v15h-15z"/><path d="M225 1480h15v15h-15z"/><path d="M240 1465h15v15h-15z"/><path d="M195 1495h15v15h-15z"/><path d="M195 1510h15v15h-15z"/><path d="M165 1540h15v15h-15z"/><path d="M165 1510h15v15h-15z"/><path d="M345 1495h15v-15h-15z"/><path d="M330 1525h15v-15h-15z"/><path d="M315 1540h15v-15h-15z"/><path d="M360 1585h15v-15h-15z"/><path d="M570 1020h15v15h-15z"/><path d="M555 1020h15v15h-15z"/><path d="M540 1020h15v15h-15z"/><path d="M585 1005h15v15h-15z"/><path d="M585 990h15v15h-15z"/><path d="M570 1005h15v15h-15z"/><path d="M555 1005h15v15h-15z"/><path d="M540 1005h15v15h-15z"/><path d="M525 1005h15v15h-15z"/><path d="M510 1005h15v15h-15z"/><path d="M555 990h15v15h-15z"/><path d="M540 990h15v15h-15z"/><path d="M525 990h15v15h-15z"/><path d="M510 990h15v15h-15z"/><path d="M495 990h15v15h-15z"/><path d="M480 990h15v15h-15z"/><path d="M570 975h15v15h-15z"/><path d="M555 975h15v15h-15z"/><path d="M540 975h15v15h-15z"/><path d="M525 975h15v15h-15z"/><path d="M510 975h15v15h-15z"/><path d="M495 975h15v15h-15z"/><path d="M585 960h15v15h-15z"/><path d="M570 960h15v15h-15z"/><path d="M555 960h15v15h-15z"/><path d="M540 960h15v15h-15z"/><path d="M525 960h15v15h-15z"/><path d="M510 960h15v15h-15z"/><path d="M495 960h15v15h-15z"/><path d="M480 960h15v15h-15z"/><path d="M585 945h15v15h-15z"/><path d="M570 945h15v15h-15z"/><path d="M555 945h15v15h-15z"/><path d="M540 945h15v15h-15z"/><path d="M525 945h15v15h-15z"/><path d="M495 945h15v15h-15z"/><path d="M480 945h15v15h-15z"/><path d="M465 945h15v15h-15z"/><path d="M585 930h15v15h-15z"/><path d="M570 930h15v15h-15z"/><path d="M555 930h15v15h-15z"/><path d="M540 930h15v15h-15z"/><path d="M525 930h15v15h-15z"/><path d="M510 930h15v15h-15z"/><path d="M480 930h15v15h-15z"/><path d="M585 915h15v15h-15z"/><path d="M570 915h15v15h-15z"/><path d="M555 915h15v15h-15z"/><path d="M540 915h15v15h-15z"/><path d="M525 915h15v15h-15z"/><path d="M510 915h15v15h-15z"/><path d="M495 915h15v15h-15z"/><path d="M480 915h15v15h-15z"/><path d="M585 900h15v15h-15z"/><path d="M570 900h15v15h-15z"/><path d="M540 900h15v15h-15z"/><path d="M525 900h15v15h-15z"/><path d="M720 1035h15v15h-15z"/><path d="M705 1035h15v15h-15z"/><path d="M690 1035h15v15h-15z"/><path d="M675 1035h15v15h-15z"/><path d="M660 1035h15v15h-15z"/><path d="M645 1035h15v15h-15z"/><path d="M615 1035h15v15h-15z"/><path d="M600 1035h15v15h-15z"/><path d="M735 1020h15v15h-15z"/><path d="M720 1020h15v15h-15z"/><path d="M705 1020h15v15h-15z"/><path d="M690 1020h15v15h-15z"/><path d="M675 1020h15v15h-15z"/><path d="M660 1020h15v15h-15z"/><path d="M645 1020h15v15h-15z"/><path d="M630 1035h15v15h-15z"/><path d="M630 1020h15v15h-15z"/><path d="M615 1020h15v15h-15z"/><path d="M615 1005h15v15h-15z"/><path d="M600 1020h15v15h-15z"/><path d="M735 1005h15v15h-15z"/><path d="M735 990h15v15h-15z"/><path d="M720 1005h15v15h-15z"/><path d="M705 1005h15v15h-15z"/><path d="M690 1005h15v15h-15z"/><path d="M675 1005h15v15h-15z"/><path d="M660 1005h15v15h-15z"/><path d="M645 1005h15v15h-15z"/><path d="M630 1005h15v15h-15z"/><path d="M630 975h15v15h-15z"/><path d="M615 975h15v15h-15z"/><path d="M600 975h15v15h-15z"/><path d="M585 975h15v15h-15z"/><path d="M570 990h15v15h-15z"/><path d="M705 990h15v15h-15z"/><path d="M690 990h15v15h-15z"/><path d="M675 990h15v15h-15z"/><path d="M660 990h15v15h-15z"/><path d="M645 990h15v15h-15z"/><path d="M630 990h15v15h-15z"/><path d="M615 990h15v15h-15z"/><path d="M600 990h15v15h-15z"/><path d="M720 975h15v15h-15z"/><path d="M705 975h15v15h-15z"/><path d="M690 975h15v15h-15z"/><path d="M675 975h15v15h-15z"/><path d="M660 975h15v15h-15z"/><path d="M645 975h15v15h-15z"/><path d="M735 960h15v15h-15z"/><path d="M735 1035h15v15h-15z"/><path d="M720 960h15v15h-15z"/><path d="M705 960h15v15h-15z"/><path d="M690 960h15v15h-15z"/><path d="M675 960h15v15h-15z"/><path d="M660 960h15v15h-15z"/><path d="M645 960h15v15h-15z"/><path d="M630 960h15v15h-15z"/><path d="M615 960h15v15h-15z"/><path d="M600 960h15v15h-15z"/><path d="M735 945h15v15h-15z"/><path d="M720 945h15v15h-15z"/><path d="M705 945h15v15h-15z"/><path d="M690 945h15v15h-15z"/><path d="M675 945h15v15h-15z"/><path d="M645 945h15v15h-15z"/><path d="M630 945h15v15h-15z"/><path d="M615 945h15v15h-15z"/><path d="M600 945h15v15h-15z"/><path d="M735 930h15v15h-15z"/><path d="M720 930h15v15h-15z"/><path d="M705 930h15v15h-15z"/><path d="M690 930h15v15h-15z"/><path d="M675 930h15v15h-15z"/><path d="M660 930h15v15h-15z"/><path d="M645 930h15v15h-15z"/><path d="M660 945h15v15h-15z"/><path d="M705 900h15v15h-15z"/><path d="M750 900h15v15h-15z"/><path d="M795 930h15v15h-15z"/><path d="M810 945h15v15h-15z"/><path d="M855 930h15v15h-15z"/><path d="M855 900h15v15h-15z"/><path d="M630 930h15v15h-15z"/><path d="M615 930h15v15h-15z"/><path d="M600 930h15v15h-15z"/><path d="M735 915h15v15h-15z"/><path d="M720 915h15v15h-15z"/><path d="M705 915h15v15h-15z"/><path d="M690 915h15v15h-15z"/><path d="M675 915h15v15h-15z"/><path d="M660 915h15v15h-15z"/><path d="M645 915h15v15h-15z"/><path d="M630 915h15v15h-15z"/><path d="M615 915h15v15h-15z"/><path d="M600 915h15v15h-15z"/><path d="M735 900h15v15h-15z"/><path d="M720 900h15v15h-15z"/><path d="M690 900h15v15h-15z"/><path d="M675 900h15v15h-15z"/><path d="M660 900h15v15h-15z"/><path d="M645 900h15v15h-15z"/><path d="M630 900h15v15h-15z"/><path d="M615 900h15v15h-15z"/><path d="M720 885h15v15h-15z"/><path d="M705 885h15v15h-15z"/><path d="M690 885h15v15h-15z"/><path d="M675 885h15v15h-15z"/><path d="M660 885h15v15h-15z"/><path d="M645 885h15v15h-15z"/><path d="M615 885h15v15h-15z"/><path d="M600 885h15v15h-15z"/><path d="M735 870h15v15h-15z"/><path d="M720 870h15v15h-15z"/><path d="M705 870h15v15h-15z"/><path d="M690 870h15v15h-15z"/><path d="M675 870h15v15h-15z"/><path d="M660 870h15v15h-15z"/><path d="M645 870h15v15h-15z"/><path d="M630 885h15v15h-15z"/><path d="M630 870h15v15h-15z"/><path d="M615 870h15v15h-15z"/><path d="M615 855h15v15h-15z"/><path d="M600 870h15v15h-15z"/><path d="M735 855h15v15h-15z"/><path d="M735 840h15v15h-15z"/><path d="M720 855h15v15h-15z"/><path d="M705 855h15v15h-15z"/><path d="M690 855h15v15h-15z"/><path d="M675 855h15v15h-15z"/><path d="M660 855h15v15h-15z"/><path d="M645 855h15v15h-15z"/><path d="M600 855h15v15h-15z"/><path d="M705 840h15v15h-15z"/><path d="M690 840h15v15h-15z"/><path d="M675 840h15v15h-15z"/><path d="M660 840h15v15h-15z"/><path d="M645 840h15v15h-15z"/><path d="M630 840h15v15h-15z"/><path d="M615 840h15v15h-15z"/><path d="M600 840h15v15h-15z"/><path d="M720 825h15v15h-15z"/><path d="M705 825h15v15h-15z"/><path d="M690 825h15v15h-15z"/><path d="M675 825h15v15h-15z"/><path d="M660 825h15v15h-15z"/><path d="M645 825h15v15h-15z"/><path d="M735 810h15v15h-15z"/><path d="M735 885h15v15h-15z"/><path d="M720 810h15v15h-15z"/><path d="M705 810h15v15h-15z"/><path d="M690 810h15v15h-15z"/><path d="M675 810h15v15h-15z"/><path d="M660 810h15v15h-15z"/><path d="M645 810h15v15h-15z"/><path d="M630 810h15v15h-15z"/><path d="M615 810h15v15h-15z"/><path d="M600 810h15v15h-15z"/><path d="M735 795h15v15h-15z"/><path d="M720 795h15v15h-15z"/><path d="M705 795h15v15h-15z"/><path d="M690 795h15v15h-15z"/><path d="M675 795h15v15h-15z"/><path d="M660 795h15v15h-15z"/><path d="M645 780h15v15h-15z"/><path d="M585 810h15v15h-15z"/><path d="M570 810h15v15h-15z"/><path d="M555 825h15v15h-15z"/><path d="M555 840h15v15h-15z"/><path d="M555 855h15v15h-15z"/><path d="M570 855h15v15h-15z"/><path d="M585 840h15v15h-15z"/><path d="M600 825h15v15h-15z"/><path d="M615 825h15v15h-15z"/><path d="M630 825h15v15h-15z"/><path d="M630 855h15v15h-15z"/><path d="M600 900h15v15h-15z"/><path d="M585 885h15v15h-15z"/><path d="M585 870h15v15h-15z"/><path d="M540 870h15v15h-15z"/><path d="M555 870h15v15h-15z"/><path d="M525 885h15v15h-15z"/><path d="M540 885h15v15h-15z"/><path d="M555 900h15v15h-15z"/><path d="M510 945h15v15h-15z"/><path d="M495 930h15v15h-15z"/><path d="M645 795h15v15h-15z"/><path d="M630 795h15v15h-15z"/><path d="M615 795h15v15h-15z"/><path d="M600 795h15v15h-15z"/><path d="M735 780h15v15h-15z"/><path d="M720 780h15v15h-15z"/><path d="M705 780h15v15h-15z"/><path d="M690 780h15v15h-15z"/><path d="M675 780h15v15h-15z"/><path d="M660 780h15v15h-15z"/><path d="M630 780h15v15h-15z"/><path d="M615 780h15v15h-15z"/><path d="M600 780h15v15h-15z"/><path d="M735 765h15v15h-15z"/><path d="M720 765h15v15h-15z"/><path d="M705 765h15v15h-15z"/><path d="M705 750h15v15h-15z"/><path d="M690 765h15v15h-15z"/><path d="M675 765h15v15h-15z"/><path d="M660 765h15v15h-15z"/><path d="M645 765h15v15h-15z"/><path d="M630 765h15v15h-15z"/><path d="M615 765h15v15h-15z"/><path d="M735 750h15v15h-15z"/><path d="M720 750h15v15h-15z"/><path d="M690 750h15v15h-15z"/><path d="M675 750h15v15h-15z"/><path d="M660 750h15v15h-15z"/><path d="M765 1035h15v15h-15z"/><path d="M750 1035h15v15h-15z"/><path d="M720 1050h15v15h-15z"/><path d="M705 1050h15v15h-15z"/><path d="M735 1050h15v15h-15z"/><path d="M750 1050h15v15h-15z"/><path d="M810 1020h15v15h-15z"/><path d="M795 1020h15v15h-15z"/><path d="M780 1035h15v15h-15z"/><path d="M780 1020h15v15h-15z"/><path d="M765 1020h15v15h-15z"/><path d="M765 1005h15v15h-15z"/><path d="M750 1020h15v15h-15z"/><path d="M885 990h15v15h-15z"/><path d="M825 1005h15v15h-15z"/><path d="M810 1005h15v15h-15z"/><path d="M795 1005h15v15h-15z"/><path d="M750 1005h15v15h-15z"/><path d="M855 990h15v15h-15z"/><path d="M840 990h15v15h-15z"/><path d="M825 990h15v15h-15z"/><path d="M810 990h15v15h-15z"/><path d="M795 990h15v15h-15z"/><path d="M780 990h15v15h-15z"/><path d="M765 990h15v15h-15z"/><path d="M750 990h15v15h-15z"/><path d="M870 975h15v15h-15z"/><path d="M855 975h15v15h-15z"/><path d="M840 975h15v15h-15z"/><path d="M825 975h15v15h-15z"/><path d="M810 975h15v15h-15z"/><path d="M795 975h15v15h-15z"/><path d="M780 975h15v15h-15z"/><path d="M765 975h15v15h-15z"/><path d="M750 975h15v15h-15z"/><path d="M735 975h15v15h-15z"/><path d="M720 990h15v15h-15z"/><path d="M780 1005h15v15h-15z"/><path d="M855 960h15v15h-15z"/><path d="M840 960h15v15h-15z"/><path d="M825 960h15v15h-15z"/><path d="M810 960h15v15h-15z"/><path d="M795 960h15v15h-15z"/><path d="M780 960h15v15h-15z"/><path d="M765 960h15v15h-15z"/><path d="M750 960h15v15h-15z"/><path d="M855 945h15v15h-15z"/><path d="M870 945h15v15h-15z"/><path d="M870 930h15v15h-15z"/><path d="M870 915h15v15h-15z"/><path d="M885 930h15v15h-15z"/><path d="M840 945h15v15h-15z"/><path d="M825 945h15v15h-15z"/><path d="M795 945h15v15h-15z"/><path d="M780 945h15v15h-15z"/><path d="M765 945h15v15h-15z"/><path d="M750 945h15v15h-15z"/><path d="M840 930h15v15h-15z"/><path d="M825 930h15v15h-15z"/><path d="M810 930h15v15h-15z"/><path d="M780 930h15v15h-15z"/><path d="M765 930h15v15h-15z"/><path d="M750 930h15v15h-15z"/><path d="M855 915h15v15h-15z"/><path d="M840 915h15v15h-15z"/><path d="M825 915h15v15h-15z"/><path d="M810 915h15v15h-15z"/><path d="M795 915h15v15h-15z"/><path d="M780 915h15v15h-15z"/><path d="M765 915h15v15h-15z"/><path d="M750 915h15v15h-15z"/><path d="M840 900h15v15h-15z"/><path d="M825 900h15v15h-15z"/><path d="M810 900h15v15h-15z"/><path d="M795 900h15v15h-15z"/><path d="M780 900h15v15h-15z"/><path d="M765 900h15v15h-15z"/><path d="M855 885h15v15h-15z"/><path d="M840 885h15v15h-15z"/><path d="M825 885h15v15h-15z"/><path d="M810 885h15v15h-15z"/><path d="M795 885h15v15h-15z"/><path d="M765 885h15v15h-15z"/><path d="M750 885h15v15h-15z"/><path d="M855 870h15v15h-15z"/><path d="M840 870h15v15h-15z"/><path d="M825 870h15v15h-15z"/><path d="M810 870h15v15h-15z"/><path d="M795 870h15v15h-15z"/><path d="M780 885h15v15h-15z"/><path d="M780 870h15v15h-15z"/><path d="M765 870h15v15h-15z"/><path d="M765 855h15v15h-15z"/><path d="M750 870h15v15h-15z"/><path d="M870 855h15v15h-15z"/><path d="M855 855h15v15h-15z"/><path d="M840 855h15v15h-15z"/><path d="M825 855h15v15h-15z"/><path d="M810 855h15v15h-15z"/><path d="M795 855h15v15h-15z"/><path d="M750 855h15v15h-15z"/><path d="M855 840h15v15h-15z"/><path d="M840 840h15v15h-15z"/><path d="M825 840h15v15h-15z"/><path d="M810 840h15v15h-15z"/><path d="M795 840h15v15h-15z"/><path d="M780 840h15v15h-15z"/><path d="M765 840h15v15h-15z"/><path d="M750 840h15v15h-15z"/><path d="M855 825h15v15h-15z"/><path d="M840 825h15v15h-15z"/><path d="M825 825h15v15h-15z"/><path d="M810 825h15v15h-15z"/><path d="M795 825h15v15h-15z"/><path d="M855 810h15v15h-15z"/><path d="M840 810h15v15h-15z"/><path d="M825 810h15v15h-15z"/><path d="M810 810h15v15h-15z"/><path d="M795 810h15v15h-15z"/><path d="M780 810h15v15h-15z"/><path d="M765 810h15v15h-15z"/><path d="M750 810h15v15h-15z"/><path d="M870 795h15v15h-15z"/><path d="M870 810h15v15h-15z"/><path d="M855 795h15v15h-15z"/><path d="M840 795h15v15h-15z"/><path d="M825 795h15v15h-15z"/><path d="M795 795h15v15h-15z"/><path d="M780 795h15v15h-15z"/><path d="M765 795h15v15h-15z"/><path d="M750 795h15v15h-15z"/><path d="M870 780h15v15h-15z"/><path d="M855 780h15v15h-15z"/><path d="M840 780h15v15h-15z"/><path d="M825 780h15v15h-15z"/><path d="M810 780h15v15h-15z"/><path d="M795 780h15v15h-15z"/><path d="M810 795h15v15h-15z"/><path d="M780 825h15v15h-15z"/><path d="M765 825h15v15h-15z"/><path d="M750 825h15v15h-15z"/><path d="M735 825h15v15h-15z"/><path d="M720 840h15v15h-15z"/><path d="M780 855h15v15h-15z"/><path d="M780 780h15v15h-15z"/><path d="M765 780h15v15h-15z"/><path d="M750 780h15v15h-15z"/><path d="M855 765h15v15h-15z"/><path d="M840 765h15v15h-15z"/><path d="M825 765h15v15h-15z"/><path d="M810 765h15v15h-15z"/><path d="M795 765h15v15h-15z"/><path d="M780 765h15v15h-15z"/><path d="M765 765h15v15h-15z"/><path d="M750 765h15v15h-15z"/><path d="M840 750h15v15h-15z"/><path d="M825 750h15v15h-15z"/><path d="M810 750h15v15h-15z"/><path d="M810 735h15v15h-15z"/><path d="M780 735h15v15h-15z"/><path d="M825 720h15v15h-15z"/><path d="M795 750h15v15h-15z"/><path d="M780 750h15v15h-15z"/><path d="M765 750h15v15h-15z"/><path d="M180 1020h15v15h-15z"/><path d="M150 1020h15v15h-15z"/><path d="M135 1005h15v15h-15z"/><path d="M120 1005h15v15h-15z"/><path d="M105 1020h15v15h-15z"/><path d="M90 1035h15v15H90z"/><path d="M90 1050h15v15H90z"/><path d="M105 1065h15v15h-15z"/><path d="M135 1065h15v15h-15z"/><path d="M165 1080h15v15h-15z"/><path d="M195 1080h15v15h-15z"/><path d="M210 1080h15v15h-15z"/><path d="M195 1005h15v15h-15z"/><path d="M180 1005h15v15h-15z"/><path d="M240 990h15v15h-15z"/><path d="M210 975h15v15h-15z"/><path d="M180 975h15v15h-15z"/><path d="M270 960h15v15h-15z"/><path d="M240 960h15v15h-15z"/><path d="M225 960h15v15h-15z"/><path d="M165 960h15v15h-15z"/><path d="M165 930h15v15h-15z"/><path d="M150 930h15v15h-15z"/><path d="M210 915h15v15h-15z"/><path d="M285 900h15v15h-15z"/><path d="M195 900h15v15h-15z"/><path d="M165 900h15v15h-15z"/><path d="M150 885h15v15h-15z"/><path d="M135 885h15v15h-15z"/><path d="M120 870h15v15h-15z"/><path d="M165 870h15v15h-15z"/><path d="M210 825h15v15h-15z"/><path d="M405 720h15v15h-15z"/><path d="M360 720h15v15h-15z"/><path d="M405 705h15v15h-15z"/><path d="M345 705h15v15h-15z"/><path d="M315 705h15v15h-15z"/><path d="M285 705h15v15h-15z"/><path d="M420 690h15v15h-15z"/><path d="M330 690h15v15h-15z"/><path d="M315 690h15v15h-15z"/><path d="M375 675h15v15h-15z"/><path d="M345 660h15v15h-15z"/><path d="M315 660h15v15h-15z"/><path d="M405 645h15v15h-15z"/><path d="M375 645h15v15h-15z"/><path d="M360 645h15v15h-15z"/><path d="M300 645h15v15h-15z"/><path d="M570 885h15v15h-15z"/><path d="M555 885h15v15h-15z"/><path d="M570 870h15v15h-15z"/><path d="M525 870h15v15h-15z"/><path d="M585 855h15v15h-15z"/><path d="M540 855h15v15h-15z"/><path d="M525 855h15v15h-15z"/><path d="M540 840h15v15h-15z"/><path d="M570 825h15v15h-15z"/><path d="M540 825h15v15h-15z"/><path d="M585 825h15v15h-15z"/><path d="M570 840h15v15h-15z"/><path d="M555 810h15v15h-15z"/><path d="M495 810h15v15h-15z"/><path d="M450 810h15v15h-15z"/><path d="M450 825h15v15h-15z"/><path d="M585 795h15v15h-15z"/><path d="M480 795h15v15h-15z"/><path d="M450 795h15v15h-15z"/><path d="M510 795h15v15h-15z"/><path d="M480 780h15v15h-15z"/><path d="M450 765h15v15h-15z"/><path d="M930 1020h15v15h-15z"/><path d="M900 1020h15v15h-15z"/><path d="M945 1005h15v15h-15z"/><path d="M930 1005h15v15h-15z"/><path d="M990 990h15v15h-15z"/><path d="M960 975h15v15h-15z"/><path d="M930 975h15v15h-15z"/><path d="M1020 960h15v15h-15z"/><path d="M1035 945h15v15h-15z"/><path d="M1005 945h15v15h-15z"/><path d="M1005 930h15v15h-15z"/><path d="M990 915h15v15h-15z"/><path d="M1050 930h15v15h-15z"/><path d="M1065 930h15v15h-15z"/><path d="M990 960h15v15h-15z"/><path d="M975 960h15v15h-15z"/><path d="M960 960h15v15h-15z"/><path d="M945 960h15v15h-15z"/><path d="M915 960h15v15h-15z"/><path d="M1035 900h15v15h-15z"/><path d="M1320 885h15v15h-15z"/><path d="M1275 885h15v15h-15z"/><path d="M1320 870h15v15h-15z"/><path d="M1260 870h15v15h-15z"/><path d="M1230 870h15v15h-15z"/><path d="M1200 870h15v15h-15z"/><path d="M1335 855h15v15h-15z"/><path d="M1245 855h15v15h-15z"/><path d="M1230 855h15v15h-15z"/><path d="M1290 840h15v15h-15z"/><path d="M1260 825h15v15h-15z"/><path d="M1230 825h15v15h-15z"/><path d="M1320 810h15v15h-15z"/><path d="M1290 810h15v15h-15z"/><path d="M1275 810h15v15h-15z"/><path d="M1215 810h15v15h-15z"/><path d="M1200 810h15v15h-15z"/><path d="M1185 810h15v15h-15z"/><path d="M1170 795h15v15h-15z"/><path d="M1185 825h15v15h-15z"/><path d="M1260 840h15v15h-15z"/><path d="M1230 795h15v15h-15z"/><path d="M1245 795h15v15h-15z"/><path d="M1215 780h15v15h-15z"/><path d="M1200 780h15v15h-15z"/><path d="M1260 765h15v15h-15z"/><path d="M1260 795h15v15h-15z"/><path d="M1275 780h15v15h-15z"/><path d="M1290 780h15v15h-15z"/><path d="M1275 750h15v15h-15z"/><path d="M1275 735h15v15h-15z"/><path d="M1290 720h15v15h-15z"/><path d="M1305 720h15v15h-15z"/><path d="M1320 705h15v15h-15z"/><path d="M1335 705h15v15h-15z"/><path d="M1335 750h15v15h-15z"/><path d="M1245 750h15v15h-15z"/><path d="M1215 750h15v15h-15z"/><path d="M1335 900h15v15h-15z"/><path d="M1350 885h15v15h-15z"/><path d="M1380 900h15v15h-15z"/><path d="M1410 975h15v15h-15z"/><path d="M1380 975h15v15h-15z"/><path d="M1425 960h15v15h-15z"/><path d="M1365 960h15v15h-15z"/><path d="M1365 930h15v15h-15z"/><path d="M1350 930h15v15h-15z"/><path d="M1410 915h15v15h-15z"/><path d="M1395 900h15v15h-15z"/><path d="M1365 900h15v15h-15z"/><path d="M1365 840h15v15h-15z"/><path d="M1005 285h15v15h-15z"/><path d="M990 285h15v15h-15z"/><path d="M990 300h15v15h-15z"/><path d="M990 345h15v15h-15z"/><path d="M1005 360h15v15h-15z"/><path d="M1020 270h15v15h-15z"/><path d="M1035 255h15v15h-15z"/><path d="M1035 240h15v15h-15z"/><path d="M1020 255h15v15h-15z"/><path d="M1005 255h15v15h-15z"/><path d="M990 255h15v15h-15z"/><path d="M1005 240h15v15h-15z"/><path d="M990 240h15v15h-15z"/><path d="M975 240h15v15h-15z"/><path d="M1020 225h15v15h-15z"/><path d="M1005 225h15v15h-15z"/><path d="M990 225h15v15h-15z"/><path d="M1035 210h15v15h-15z"/><path d="M1035 225h15v15h-15z"/><path d="M1020 240h15v15h-15z"/><path d="M1020 210h15v15h-15z"/><path d="M1005 210h15v15h-15z"/><path d="M990 210h15v15h-15z"/><path d="M975 210h15v15h-15z"/><path d="M1020 195h15v15h-15z"/><path d="M1005 195h15v15h-15z"/><path d="M990 195h15v15h-15z"/><path d="M975 195h15v15h-15z"/><path d="M1035 180h15v15h-15z"/><path d="M1020 180h15v15h-15z"/><path d="M1005 180h15v15h-15z"/><path d="M975 180h15v15h-15z"/><path d="M960 180h15v15h-15z"/><path d="M1035 165h15v15h-15z"/><path d="M1020 165h15v15h-15z"/><path d="M975 165h15v15h-15z"/><path d="M960 165h15v15h-15z"/><path d="M1035 150h15v15h-15z"/><path d="M1020 150h15v15h-15z"/><path d="M1005 150h15v15h-15z"/><path d="M990 150h15v15h-15z"/><path d="M975 150h15v15h-15z"/><path d="M960 150h15v15h-15z"/><path d="M945 150h15v15h-15z"/><path d="M570 285h15v15h-15z"/><path d="M555 285h15v15h-15z"/><path d="M540 285h15v15h-15z"/><path d="M525 285h15v15h-15z"/><path d="M570 270h15v15h-15z"/><path d="M555 270h15v15h-15z"/><path d="M540 270h15v15h-15z"/><path d="M525 270h15v15h-15z"/><path d="M585 255h15v15h-15z"/><path d="M585 240h15v15h-15z"/><path d="M570 255h15v15h-15z"/><path d="M555 255h15v15h-15z"/><path d="M540 255h15v15h-15z"/><path d="M525 255h15v15h-15z"/><path d="M555 240h15v15h-15z"/><path d="M540 240h15v15h-15z"/><path d="M525 240h15v15h-15z"/><path d="M525 225h15v15h-15z"/><path d="M450 240h15v15h-15z"/><path d="M570 225h15v15h-15z"/><path d="M555 225h15v15h-15z"/><path d="M540 225h15v15h-15z"/><path d="M585 210h15v15h-15z"/><path d="M585 225h15v15h-15z"/><path d="M570 240h15v15h-15z"/><path d="M570 210h15v15h-15z"/><path d="M555 210h15v15h-15z"/><path d="M540 210h15v15h-15z"/><path d="M525 210h15v15h-15z"/><path d="M465 225h15v15h-15z"/><path d="M450 210h15v15h-15z"/><path d="M450 225h15v15h-15z"/><path d="M570 195h15v15h-15z"/><path d="M555 195h15v15h-15z"/><path d="M540 195h15v15h-15z"/><path d="M480 195h15v15h-15z"/><path d="M465 195h15v15h-15z"/><path d="M450 195h15v15h-15z"/><path d="M585 180h15v15h-15z"/><path d="M570 180h15v15h-15z"/><path d="M555 180h15v15h-15z"/><path d="M480 180h15v15h-15z"/><path d="M465 180h15v15h-15z"/><path d="M450 180h15v15h-15z"/><path d="M585 165h15v15h-15z"/><path d="M570 165h15v15h-15z"/><path d="M495 165h15v15h-15z"/><path d="M480 165h15v15h-15z"/><path d="M585 150h15v15h-15z"/><path d="M570 150h15v15h-15z"/><path d="M510 150h15v15h-15z"/><path d="M495 150h15v15h-15z"/><path d="M480 150h15v15h-15z"/><path d="M720 285h15v15h-15z"/><path d="M705 285h15v15h-15z"/><path d="M690 285h15v15h-15z"/><path d="M675 285h15v15h-15z"/><path d="M660 285h15v15h-15z"/><path d="M645 285h15v15h-15z"/><path d="M615 285h15v15h-15z"/><path d="M600 285h15v15h-15z"/><path d="M735 270h15v15h-15z"/><path d="M720 270h15v15h-15z"/><path d="M705 270h15v15h-15z"/><path d="M690 270h15v15h-15z"/><path d="M675 270h15v15h-15z"/><path d="M660 270h15v15h-15z"/><path d="M645 270h15v15h-15z"/><path d="M630 285h15v15h-15z"/><path d="M630 270h15v15h-15z"/><path d="M615 270h15v15h-15z"/><path d="M615 255h15v15h-15z"/><path d="M600 270h15v15h-15z"/><path d="M585 285h15v15h-15z"/><path d="M585 270h15v15h-15z"/><path d="M735 255h15v15h-15z"/><path d="M735 240h15v15h-15z"/><path d="M720 240h15v15h-15z"/><path d="M720 255h15v15h-15z"/><path d="M705 255h15v15h-15z"/><path d="M690 255h15v15h-15z"/><path d="M675 255h15v15h-15z"/><path d="M660 255h15v15h-15z"/><path d="M645 255h15v15h-15z"/><path d="M630 255h15v15h-15z"/><path d="M600 255h15v15h-15z"/><path d="M705 240h15v15h-15z"/><path d="M690 240h15v15h-15z"/><path d="M675 240h15v15h-15z"/><path d="M660 240h15v15h-15z"/><path d="M645 240h15v15h-15z"/><path d="M630 240h15v15h-15z"/><path d="M615 240h15v15h-15z"/><path d="M600 240h15v15h-15z"/><path d="M615 225h15v15h-15z"/><path d="M600 225h15v15h-15z"/><path d="M720 225h15v15h-15z"/><path d="M705 225h15v15h-15z"/><path d="M690 225h15v15h-15z"/><path d="M675 225h15v15h-15z"/><path d="M660 225h15v15h-15z"/><path d="M645 225h15v15h-15z"/><path d="M630 225h15v15h-15z"/><path d="M735 210h15v15h-15z"/><path d="M735 285h15v15h-15z"/><path d="M720 210h15v15h-15z"/><path d="M705 210h15v15h-15z"/><path d="M690 210h15v15h-15z"/><path d="M675 210h15v15h-15z"/><path d="M660 210h15v15h-15z"/><path d="M645 210h15v15h-15z"/><path d="M630 210h15v15h-15z"/><path d="M615 210h15v15h-15z"/><path d="M600 210h15v15h-15z"/><path d="M735 195h15v15h-15z"/><path d="M720 195h15v15h-15z"/><path d="M705 195h15v15h-15z"/><path d="M690 195h15v15h-15z"/><path d="M675 195h15v15h-15z"/><path d="M660 195h15v15h-15z"/><path d="M645 195h15v15h-15z"/><path d="M630 195h15v15h-15z"/><path d="M615 195h15v15h-15z"/><path d="M600 195h15v15h-15z"/><path d="M585 195h15v15h-15z"/><path d="M735 180h15v15h-15z"/><path d="M720 180h15v15h-15z"/><path d="M705 180h15v15h-15z"/><path d="M690 180h15v15h-15z"/><path d="M675 180h15v15h-15z"/><path d="M660 180h15v15h-15z"/><path d="M645 180h15v15h-15z"/><path d="M630 180h15v15h-15z"/><path d="M615 180h15v15h-15z"/><path d="M600 180h15v15h-15z"/><path d="M720 165h15v15h-15z"/><path d="M705 165h15v15h-15z"/><path d="M690 165h15v15h-15z"/><path d="M675 165h15v15h-15z"/><path d="M660 165h15v15h-15z"/><path d="M645 165h15v15h-15z"/><path d="M630 165h15v15h-15z"/><path d="M615 165h15v15h-15z"/><path d="M600 165h15v15h-15z"/><path d="M690 150h15v15h-15z"/><path d="M675 150h15v15h-15z"/><path d="M660 150h15v15h-15z"/><path d="M645 150h15v15h-15z"/><path d="M630 150h15v15h-15z"/><path d="M615 150h15v15h-15z"/><path d="M600 150h15v15h-15z"/><path d="M630 435h15v15h-15z"/><path d="M615 435h15v15h-15z"/><path d="M600 435h15v15h-15z"/><path d="M585 435h15v15h-15z"/><path d="M570 435h15v15h-15z"/><path d="M555 435h15v15h-15z"/><path d="M525 435h15v15h-15z"/><path d="M645 420h15v15h-15z"/><path d="M630 420h15v15h-15z"/><path d="M615 420h15v15h-15z"/><path d="M600 420h15v15h-15z"/><path d="M585 420h15v15h-15z"/><path d="M570 420h15v15h-15z"/><path d="M555 420h15v15h-15z"/><path d="M540 435h15v15h-15z"/><path d="M540 420h15v15h-15z"/><path d="M540 405h15v15h-15z"/><path d="M525 420h15v15h-15z"/><path d="M525 405h15v15h-15z"/><path d="M510 420h15v15h-15z"/><path d="M645 405h15v15h-15z"/><path d="M630 405h15v15h-15z"/><path d="M630 390h15v15h-15z"/><path d="M675 375h15v15h-15z"/><path d="M690 375h15v15h-15z"/><path d="M615 405h15v15h-15z"/><path d="M600 405h15v15h-15z"/><path d="M585 405h15v15h-15z"/><path d="M570 405h15v15h-15z"/><path d="M555 405h15v15h-15z"/><path d="M510 405h15v15h-15z"/><path d="M615 390h15v15h-15z"/><path d="M600 390h15v15h-15z"/><path d="M585 390h15v15h-15z"/><path d="M570 390h15v15h-15z"/><path d="M555 390h15v15h-15z"/><path d="M540 390h15v15h-15z"/><path d="M540 375h15v15h-15z"/><path d="M525 375h15v15h-15z"/><path d="M525 390h15v15h-15z"/><path d="M510 390h15v15h-15z"/><path d="M630 375h15v15h-15z"/><path d="M615 375h15v15h-15z"/><path d="M600 375h15v15h-15z"/><path d="M630 360h15v15h-15z"/><path d="M615 360h15v15h-15z"/><path d="M585 360h15v15h-15z"/><path d="M570 360h15v15h-15z"/><path d="M555 360h15v15h-15z"/><path d="M540 360h15v15h-15z"/><path d="M510 375h15v15h-15z"/><path d="M510 360h15v15h-15z"/><path d="M630 345h15v15h-15z"/><path d="M615 345h15v15h-15z"/><path d="M555 345h15v15h-15z"/><path d="M630 330h15v15h-15z"/><path d="M615 330h15v15h-15z"/><path d="M585 330h15v15h-15z"/><path d="M570 330h15v15h-15z"/><path d="M555 330h15v15h-15z"/><path d="M645 315h15v15h-15z"/><path d="M630 315h15v15h-15z"/><path d="M615 315h15v15h-15z"/><path d="M525 315h15v15h-15z"/><path d="M645 300h15v15h-15z"/><path d="M630 300h15v15h-15z"/><path d="M615 300h15v15h-15z"/><path d="M600 300h15v15h-15z"/><path d="M540 300h15v15h-15z"/><path d="M525 300h15v15h-15z"/><path d="M780 435h15v15h-15z"/><path d="M765 435h15v15h-15z"/><path d="M765 450h15v15h-15z"/><path d="M750 435h15v15h-15z"/><path d="M735 435h15v15h-15z"/><path d="M720 435h15v15h-15z"/><path d="M705 435h15v15h-15z"/><path d="M675 435h15v15h-15z"/><path d="M660 435h15v15h-15z"/><path d="M645 435h15v15h-15z"/><path d="M780 420h15v15h-15z"/><path d="M765 420h15v15h-15z"/><path d="M750 420h15v15h-15z"/><path d="M735 420h15v15h-15z"/><path d="M720 420h15v15h-15z"/><path d="M705 420h15v15h-15z"/><path d="M690 435h15v15h-15z"/><path d="M690 420h15v15h-15z"/><path d="M675 420h15v15h-15z"/><path d="M675 405h15v15h-15z"/><path d="M660 420h15v15h-15z"/><path d="M795 405h15v15h-15z"/><path d="M795 390h15v15h-15z"/><path d="M780 405h15v15h-15z"/><path d="M765 405h15v15h-15z"/><path d="M750 405h15v15h-15z"/><path d="M735 405h15v15h-15z"/><path d="M720 405h15v15h-15z"/><path d="M705 405h15v15h-15z"/><path d="M660 405h15v15h-15z"/><path d="M765 390h15v15h-15z"/><path d="M750 390h15v15h-15z"/><path d="M735 390h15v15h-15z"/><path d="M720 390h15v15h-15z"/><path d="M705 390h15v15h-15z"/><path d="M690 390h15v15h-15z"/><path d="M675 390h15v15h-15z"/><path d="M660 390h15v15h-15z"/><path d="M780 375h15v15h-15z"/><path d="M765 375h15v15h-15z"/><path d="M750 375h15v15h-15z"/><path d="M795 360h15v15h-15z"/><path d="M810 360h15v15h-15z"/><path d="M795 375h15v15h-15z"/><path d="M810 375h15v15h-15z"/><path d="M780 390h15v15h-15z"/><path d="M780 360h15v15h-15z"/><path d="M705 360h15v15h-15z"/><path d="M690 360h15v15h-15z"/><path d="M675 360h15v15h-15z"/><path d="M795 345h15v15h-15z"/><path d="M810 345h15v15h-15z"/><path d="M810 330h15v15h-15z"/><path d="M705 330h15v15h-15z"/><path d="M705 345h15v15h-15z"/><path d="M690 345h15v15h-15z"/><path d="M720 330h15v15h-15z"/><path d="M735 330h15v15h-15z"/><path d="M780 300h15v15h-15z"/><path d="M765 300h15v15h-15z"/><path d="M750 300h15v15h-15z"/><path d="M735 300h15v15h-15z"/><path d="M660 300h15v15h-15z"/><path d="M630 585h15v15h-15z"/><path d="M615 585h15v15h-15z"/><path d="M600 585h15v15h-15z"/><path d="M585 585h15v15h-15z"/><path d="M645 570h15v15h-15z"/><path d="M630 570h15v15h-15z"/><path d="M615 570h15v15h-15z"/><path d="M600 570h15v15h-15z"/><path d="M585 570h15v15h-15z"/><path d="M570 570h15v15h-15z"/><path d="M645 540h15v15h-15z"/><path d="M600 555h15v15h-15z"/><path d="M585 555h15v15h-15z"/><path d="M570 555h15v15h-15z"/><path d="M555 555h15v15h-15z"/><path d="M615 540h15v15h-15z"/><path d="M600 540h15v15h-15z"/><path d="M585 540h15v15h-15z"/><path d="M570 540h15v15h-15z"/><path d="M555 540h15v15h-15z"/><path d="M630 540h15v15h-15z"/><path d="M570 525h15v15h-15z"/><path d="M555 525h15v15h-15z"/><path d="M645 510h15v15h-15z"/><path d="M645 585h15v15h-15z"/><path d="M630 510h15v15h-15z"/><path d="M615 510h15v15h-15z"/><path d="M600 510h15v15h-15z"/><path d="M585 510h15v15h-15z"/><path d="M570 495h15v15h-15z"/><path d="M555 480h15v15h-15z"/><path d="M555 510h15v15h-15z"/><path d="M540 510h15v15h-15z"/><path d="M600 495h15v15h-15z"/><path d="M585 495h15v15h-15z"/><path d="M555 495h15v15h-15z"/><path d="M540 495h15v15h-15z"/><path d="M615 480h15v15h-15z"/><path d="M585 480h15v15h-15z"/><path d="M570 480h15v15h-15z"/><path d="M540 480h15v15h-15z"/><path d="M525 480h15v15h-15z"/><path d="M630 465h15v15h-15z"/><path d="M615 465h15v15h-15z"/><path d="M600 465h15v15h-15z"/><path d="M570 465h15v15h-15z"/><path d="M555 465h15v15h-15z"/><path d="M540 465h15v15h-15z"/><path d="M525 465h15v15h-15z"/><path d="M645 450h15v15h-15z"/><path d="M630 450h15v15h-15z"/><path d="M615 450h15v15h-15z"/><path d="M600 450h15v15h-15z"/><path d="M585 450h15v15h-15z"/><path d="M585 465h15v15h-15z"/><path d="M570 450h15v15h-15z"/><path d="M555 450h15v15h-15z"/><path d="M540 450h15v15h-15z"/><path d="M525 450h15v15h-15z"/><path d="M720 735h15v15h-15z"/><path d="M690 735h15v15h-15z"/><path d="M675 735h15v15h-15z"/><path d="M705 720h15v15h-15z"/><path d="M675 720h15v15h-15z"/><path d="M660 720h15v15h-15z"/><path d="M690 705h15v15h-15z"/><path d="M675 705h15v15h-15z"/><path d="M660 705h15v15h-15z"/><path d="M645 705h15v15h-15z"/><path d="M660 690h15v15h-15z"/><path d="M660 615h15v15h-15z"/><path d="M645 615h15v15h-15z"/><path d="M630 615h15v15h-15z"/><path d="M615 615h15v15h-15z"/><path d="M690 600h15v15h-15z"/><path d="M675 600h15v15h-15z"/><path d="M660 600h15v15h-15z"/><path d="M645 600h15v15h-15z"/><path d="M630 600h15v15h-15z"/><path d="M615 600h15v15h-15z"/><path d="M720 585h15v15h-15z"/><path d="M705 585h15v15h-15z"/><path d="M675 585h15v15h-15z"/><path d="M660 585h15v15h-15z"/><path d="M735 570h15v15h-15z"/><path d="M720 570h15v15h-15z"/><path d="M690 570h15v15h-15z"/><path d="M675 570h15v15h-15z"/><path d="M675 555h15v15h-15z"/><path d="M660 570h15v15h-15z"/><path d="M750 555h15v15h-15z"/><path d="M720 555h15v15h-15z"/><path d="M705 555h15v15h-15z"/><path d="M735 540h15v15h-15z"/><path d="M720 540h15v15h-15z"/><path d="M705 540h15v15h-15z"/><path d="M690 540h15v15h-15z"/><path d="M690 555h15v15h-15z"/><path d="M750 525h15v15h-15z"/><path d="M735 525h15v15h-15z"/><path d="M720 525h15v15h-15z"/><path d="M705 525h15v15h-15z"/><path d="M750 510h15v15h-15z"/><path d="M735 510h15v15h-15z"/><path d="M720 510h15v15h-15z"/><path d="M690 510h15v15h-15z"/><path d="M675 510h15v15h-15z"/><path d="M660 510h15v15h-15z"/><path d="M735 495h15v15h-15z"/><path d="M720 495h15v15h-15z"/><path d="M705 480h15v15h-15z"/><path d="M705 495h15v15h-15z"/><path d="M690 495h15v15h-15z"/><path d="M675 495h15v15h-15z"/><path d="M660 495h15v15h-15z"/><path d="M750 480h15v15h-15z"/><path d="M750 495h15v15h-15z"/><path d="M735 480h15v15h-15z"/><path d="M720 480h15v15h-15z"/><path d="M690 480h15v15h-15z"/><path d="M675 480h15v15h-15z"/><path d="M765 465h15v15h-15z"/><path d="M750 465h15v15h-15z"/><path d="M735 465h15v15h-15z"/><path d="M720 465h15v15h-15z"/><path d="M705 465h15v15h-15z"/><path d="M690 465h15v15h-15z"/><path d="M750 450h15v15h-15z"/><path d="M735 450h15v15h-15z"/><path d="M720 450h15v15h-15z"/><path d="M705 450h15v15h-15z"/><path d="M690 450h15v15h-15z"/><path d="M675 450h15v15h-15z"/><path d="M690 405h15v15h-15z"/><path d="M795 285h15v15h-15z"/><path d="M765 285h15v15h-15z"/><path d="M750 285h15v15h-15z"/><path d="M795 270h15v15h-15z"/><path d="M780 285h15v15h-15z"/><path d="M780 270h15v15h-15z"/><path d="M765 270h15v15h-15z"/><path d="M765 255h15v15h-15z"/><path d="M750 270h15v15h-15z"/><path d="M795 255h15v15h-15z"/><path d="M780 255h15v15h-15z"/><path d="M750 255h15v15h-15z"/><path d="M765 240h15v15h-15z"/><path d="M750 240h15v15h-15z"/><path d="M750 225h15v15h-15z"/><path d="M750 210h15v15h-15z"/><path d="M735 225h15v15h-15z"/><path d="M495 1585h15v15h-15z"/><path d="M480 1585h15v15h-15z"/><path d="M465 1585h15v15h-15z"/><path d="M390 1585h15v15h-15z"/><path d="M375 1585h15v15h-15z"/><path d="M510 1570h15v15h-15z"/><path d="M495 1570h15v15h-15z"/><path d="M480 1570h15v15h-15z"/><path d="M465 1570h15v15h-15z"/><path d="M450 1570h15v15h-15z"/><path d="M435 1570h15v15h-15z"/><path d="M420 1570h15v15h-15z"/><path d="M450 1585h15v15h-15z"/><path d="M435 1585h15v15h-15z"/><path d="M420 1585h15v15h-15z"/><path d="M405 1585h15v15h-15z"/><path d="M405 1570h15v15h-15z"/><path d="M390 1570h15v15h-15z"/><path d="M375 1570h15v15h-15z"/><path d="M495 1555h15v15h-15z"/><path d="M480 1555h15v15h-15z"/><path d="M465 1555h15v15h-15z"/><path d="M450 1555h15v15h-15z"/><path d="M435 1555h15v15h-15z"/><path d="M420 1555h15v15h-15z"/><path d="M480 1540h15v15h-15z"/><path d="M465 1540h15v15h-15z"/><path d="M435 1540h15v15h-15z"/><path d="M420 1540h15v15h-15z"/><path d="M405 1540h15v15h-15z"/><path d="M390 1540h15v15h-15z"/><path d="M375 1540h15v15h-15z"/><path d="M495 1525h15v15h-15z"/><path d="M465 1525h15v15h-15z"/><path d="M450 1525h15v15h-15z"/><path d="M420 1525h15v15h-15z"/><path d="M405 1525h15v15h-15z"/><path d="M510 1510h15v15h-15z"/><path d="M495 1540h15v15h-15z"/><path d="M495 1510h15v15h-15z"/><path d="M480 1510h15v15h-15z"/><path d="M465 1510h15v15h-15z"/><path d="M450 1510h15v15h-15z"/><path d="M420 1510h15v15h-15z"/><path d="M390 1510h15v15h-15z"/><path d="M390 1525h15v15h-15z"/><path d="M375 1510h15v15h-15z"/><path d="M360 1555h15v-15h-15z"/><path d="M345 1555h15v-15h-15z"/><path d="M330 1570h15v-15h-15z"/><path d="M330 1585h15v-15h-15z"/><path d="M345 1540h15v-15h-15z"/><path d="M360 1570h15v-15h-15z"/><path d="M375 1570h15v-15h-15z"/><path d="M390 1570h15v-15h-15z"/><path d="M405 1570h15v-15h-15z"/><path d="M375 1525h15v15h-15z"/><path d="M480 1495h15v15h-15z"/><path d="M450 1495h15v15h-15z"/><path d="M465 1495h15v15h-15z"/><path d="M405 1495h15v15h-15z"/><path d="M390 1495h15v15h-15z"/><path d="M420 1495h15v15h-15z"/><path d="M435 1525h15v15h-15z"/><path d="M435 1510h15v15h-15z"/><path d="M435 1495h15v15h-15z"/><path d="M645 1585h15v15h-15z"/><path d="M660 1585h15v15h-15z"/><path d="M675 1585h15v15h-15z"/><path d="M630 1585h15v15h-15z"/><path d="M615 1585h15v15h-15z"/><path d="M540 1585h15v15h-15z"/><path d="M660 1570h15v15h-15z"/><path d="M630 1570h15v15h-15z"/><path d="M615 1570h15v15h-15z"/><path d="M600 1570h15v15h-15z"/><path d="M585 1570h15v15h-15z"/><path d="M570 1570h15v15h-15z"/><path d="M600 1585h15v15h-15z"/><path d="M585 1585h15v15h-15z"/><path d="M570 1585h15v15h-15z"/><path d="M555 1585h15v15h-15z"/><path d="M555 1570h15v15h-15z"/><path d="M540 1570h15v15h-15z"/><path d="M525 1570h15v15h-15z"/><path d="M510 1585h15v15h-15z"/><path d="M525 1585h15v15h-15z"/><path d="M615 1555h15v15h-15z"/><path d="M600 1555h15v15h-15z"/><path d="M585 1555h15v15h-15z"/><path d="M570 1555h15v15h-15z"/><path d="M615 1540h15v15h-15z"/><path d="M585 1540h15v15h-15z"/><path d="M570 1540h15v15h-15z"/><path d="M555 1540h15v15h-15z"/><path d="M540 1540h15v15h-15z"/><path d="M525 1540h15v15h-15z"/><path d="M555 1525h15v15h-15z"/><path d="M540 1525h15v15h-15z"/><path d="M525 1510h15v15h-15z"/><path d="M435 0v15h-15V0z"/><path d="M420 0v15h-15V0z"/><path d="M405 0v15h-15V0z"/><path d="M390 0v15h-15V0z"/><path d="M375 0v15h-15V0z"/><path d="M420 90v15h-15V90z"/><path d="M405 90v15h-15V90z"/><path d="M390 90v15h-15V90z"/><path d="M375 90v15h-15V90z"/><path d="M435 15v15h-15V15z"/><path d="M435 30v15h-15V30z"/><path d="M405 30v15h-15V30z"/><path d="M405 45v15h-15V45z"/><path d="M405 60v15h-15V60z"/><path d="M390 60v15h-15V60z"/><path d="M390 45v15h-15V45z"/><path d="M390 30v15h-15V30z"/><path d="M375 60v15h-15V60z"/><path d="M375 45v15h-15V45z"/><path d="M375 30v15h-15V30z"/><path d="M435 45v15h-15V45z"/><path d="M435 60v15h-15V60z"/><path d="M435 75v15h-15V75z"/><path d="M435 90v15h-15V90z"/><path d="M360 0v15h-15V0z"/><path d="M360 90v15h-15V90z"/><path d="M345 0v15h-15V0z"/><path d="M315 15v15h-15V15z"/><path d="M300 0v15h-15V0z"/><path d="M285 0v15h-15V0z"/><path d="M315 30v15h-15V30z"/><path d="M300 30v15h-15V30z"/><path d="M300 45v15h-15V45z"/><path d="M285 45v15h-15V45z"/><path d="M270 30v15h-15V30z"/><path d="M255 15v15h-15V15z"/><path d="M255 0v15h-15V0z"/><path d="M240 15v15h-15V15z"/><path d="M240 0v15h-15V0z"/><path d="M225 15v15h-15V15z"/><path d="M225 30v15h-15V30z"/><path d="M225 45v15h-15V45z"/><path d="M240 45v15h-15V45z"/><path d="M255 60v15h-15V60z"/><path d="M240 75v15h-15V75z"/><path d="M225 75v15h-15V75z"/><path d="M210 60v15h-15V60z"/><path d="M195 45v15h-15V45z"/><path d="M195 30v15h-15V30z"/><path d="M180 30v15h-15V30z"/><path d="M180 60v15h-15V60z"/><path d="M165 75v15h-15V75z"/><path d="M135 60v15h-15V60z"/><path d="M135 75v15h-15V75z"/><path d="M135 90v15h-15V90z"/><path d="M165 90v15h-15V90z"/><path d="M165 105v15h-15v-15z"/><path d="M165 120v15h-15v-15z"/><path d="M165 45v15h-15V45z"/><path d="M150 45v15h-15V45z"/><path d="M165 15v15h-15V15z"/><path d="M150 15v15h-15V15z"/><path d="M135 30v15h-15V30z"/><path d="M165 0v15h-15V0z"/><path d="M210 15v15h-15V15z"/><path d="M225 0v15h-15V0z"/><path d="M285 60v15h-15V60z"/><path d="M285 75v15h-15V75z"/><path d="M285 90v15h-15V90z"/><path d="M300 75v15h-15V75z"/><path d="M315 90v15h-15V90z"/><path d="M315 105v15h-15v-15z"/><path d="M330 120v15h-15v-15z"/><path d="M360 120v15h-15v-15z"/><path d="M375 120v15h-15v-15z"/><path d="M375 135v15h-15v-15z"/><path d="M390 135v15h-15v-15z"/><path d="M405 120v15h-15v-15z"/><path d="M405 135v15h-15v-15z"/><path d="M420 135v15h-15v-15z"/><path d="M435 135v15h-15v-15z"/><path d="M435 150v15h-15v-15z"/><path d="M435 165v15h-15v-15z"/><path d="M435 180v15h-15v-15z"/><path d="M435 195v15h-15v-15z"/><path d="M435 210v15h-15v-15z"/><path d="M420 225v15h-15v-15z"/><path d="M420 240v15h-15v-15z"/><path d="M435 240v15h-15v-15z"/><path d="M435 255v15h-15v-15z"/><path d="M435 270v15h-15v-15z"/><path d="M420 285v15h-15v-15z"/><path d="M405 270v15h-15v-15z"/><path d="M390 270v15h-15v-15z"/><path d="M375 255v15h-15v-15z"/><path d="M360 255v15h-15v-15z"/><path d="M345 240v15h-15v-15z"/><path d="M330 225v15h-15v-15z"/><path d="M330 240v15h-15v-15z"/><path d="M315 240v15h-15v-15z"/><path d="M360 300v15h-15v-15z"/><path d="M345 300v15h-15v-15z"/><path d="M390 300v15h-15v-15z"/><path d="M375 300v15h-15v-15z"/><path d="M330 300v15h-15v-15z"/><path d="M360 360v15h-15v-15z"/><path d="M360 375v15h-15v-15z"/><path d="M345 360v15h-15v-15z"/><path d="M390 345v15h-15v-15z"/><path d="M375 345v15h-15v-15z"/><path d="M375 360v15h-15v-15z"/><path d="M375 315v15h-15v-15z"/><path d="M375 330v15h-15v-15z"/><path d="M435 345v15h-15v-15z"/><path d="M420 345v15h-15v-15z"/><path d="M435 315v15h-15v-15z"/><path d="M435 360v15h-15v-15z"/><path d="M420 375v15h-15v-15z"/><path d="M420 390v15h-15v-15z"/><path d="M405 390v15h-15v-15z"/><path d="M390 405v15h-15v-15z"/><path d="M375 420v15h-15v-15z"/><path d="M360 405v15h-15v-15z"/><path d="M345 405v15h-15v-15z"/><path d="M420 405v15h-15v-15z"/><path d="M420 420v15h-15v-15z"/><path d="M435 390v15h-15v-15z"/><path d="M435 405v15h-15v-15z"/><path d="M420 330v15h-15v-15z"/><path d="M405 315v15h-15v-15z"/><path d="M435 330v15h-15v-15z"/><path d="M345 330v15h-15v-15z"/><path d="M330 360v15h-15v-15z"/><path d="M300 225v15h-15v-15z"/><path d="M300 240v15h-15v-15z"/><path d="M300 255v15h-15v-15z"/><path d="M300 270v15h-15v-15z"/><path d="M300 285v15h-15v-15z"/><path d="M315 285v15h-15v-15z"/><path d="M315 300v15h-15v-15z"/><path d="M315 315v15h-15v-15z"/><path d="M315 330v15h-15v-15z"/><path d="M315 345v15h-15v-15z"/><path d="M315 360v15h-15v-15z"/><path d="M300 315v15h-15v-15z"/><path d="M285 315v15h-15v-15z"/><path d="M300 330v15h-15v-15z"/><path d="M300 345v15h-15v-15z"/><path d="M300 360v15h-15v-15z"/><path d="M285 345v15h-15v-15z"/><path d="M270 330v15h-15v-15z"/><path d="M270 345v15h-15v-15z"/><path d="M255 330v15h-15v-15z"/><path d="M255 315v15h-15v-15z"/><path d="M255 345v15h-15v-15z"/><path d="M270 285v15h-15v-15z"/><path d="M270 300v15h-15v-15z"/><path d="M255 285v15h-15v-15z"/><path d="M255 300v15h-15v-15z"/><path d="M195 270v15h-15v-15z"/><path d="M195 255v15h-15v-15z"/><path d="M195 225v15h-15v-15z"/><path d="M195 240v15h-15v-15z"/><path d="M150 240v15h-15v-15z"/><path d="M150 210v15h-15v-15z"/><path d="M150 225v15h-15v-15z"/><path d="M135 195v15h-15v-15z"/><path d="M120 195v15h-15v-15z"/><path d="M105 180v15H90v-15z"/><path d="M105 210v15H90v-15z"/><path d="M120 225v15h-15v-15z"/><path d="M105 240v15H90v-15z"/><path d="M135 210v15h-15v-15z"/><path d="M240 270v15h-15v-15z"/><path d="M240 285v15h-15v-15z"/><path d="M225 285v15h-15v-15z"/><path d="M210 285v15h-15v-15z"/><path d="M210 300v15h-15v-15z"/><path d="M195 300v15h-15v-15z"/><path d="M210 330v15h-15v-15z"/><path d="M195 330v15h-15v-15z"/><path d="M180 315v15h-15v-15z"/><path d="M180 300v15h-15v-15z"/><path d="M180 270v15h-15v-15z"/><path d="M180 255v15h-15v-15z"/><path d="M165 270v15h-15v-15z"/><path d="M165 240v15h-15v-15z"/><path d="M180 210v15h-15v-15z"/><path d="M150 270v15h-15v-15z"/><path d="M150 255v15h-15v-15z"/><path d="M150 300v15h-15v-15z"/><path d="M150 285v15h-15v-15z"/><path d="M120 255v15h-15v-15z"/><path d="M120 285v15h-15v-15z"/><path d="M120 270v15h-15v-15z"/><path d="M90 225v15H75v-15z"/><path d="M90 240v15H75v-15z"/><path d="M75 225v15H60v-15z"/><path d="M75 240v15H60v-15z"/><path d="M75 255v15H60v-15z"/><path d="M60 270v15H45v-15z"/><path d="M60 285v15H45v-15z"/><path d="M45 270v15H30v-15z"/><path d="M45 285v15H30v-15z"/><path d="M75 285v15H60v-15z"/><path d="M75 300v15H60v-15z"/><path d="M105 270v15H90v-15z"/><path d="M120 300v15h-15v-15z"/><path d="M150 330v15h-15v-15z"/><path d="M165 330v15h-15v-15z"/><path d="M165 345v15h-15v-15z"/><path d="M180 345v15h-15v-15z"/><path d="M195 345v15h-15v-15z"/><path d="M195 360v15h-15v-15z"/><path d="M195 375v15h-15v-15z"/><path d="M180 360v15h-15v-15z"/><path d="M165 375v15h-15v-15z"/><path d="M150 375v15h-15v-15z"/><path d="M180 420v15h-15v-15z"/><path d="M165 420v15h-15v-15z"/><path d="M135 406v15h-15v-15z"/><path d="M135 360v15h-15v-15z"/><path d="M150 315v15h-15v-15z"/><path d="M135 300v15h-15v-15z"/><path d="M90 300v15H75v-15z"/><path d="M105 300v15H90v-15z"/><path d="M15 300v15H0v-15z"/><path d="M30 300v15H15v-15z"/><path d="M45 300v15H30v-15z"/><path d="M135 315v15h-15v-15z"/><path d="M240 345v15h-15v-15z"/><path d="M240 330v15h-15v-15z"/><path d="M240 360v15h-15v-15z"/><path d="M225 345v15h-15v-15z"/><path d="M225 360v15h-15v-15z"/><path d="M210 375v15h-15v-15z"/><path d="M210 390v15h-15v-15z"/><path d="M255 375v15h-15v-15z"/><path d="M270 375v15h-15v-15z"/><path d="M255 390v15h-15v-15z"/><path d="M240 315v15h-15v-15z"/><path d="M285 360v15h-15v-15z"/><path d="M330 390v15h-15v-15z"/><path d="M315 390v15h-15v-15z"/><path d="M300 390v15h-15v-15z"/><path d="M300 405v15h-15v-15z"/><path d="M285 390v15h-15v-15z"/><path d="M285 405v15h-15v-15z"/><path d="M270 405v15h-15v-15z"/><path d="M255 420v15h-15v-15z"/><path d="M240 420v15h-15v-15z"/><path d="M210 420v15h-15v-15z"/><path d="M195 405v15h-15v-15z"/><path d="M270 420v15h-15v-15z"/><path d="M300 420v15h-15v-15z"/><path d="M330 405v15h-15v-15z"/><path d="M330 420v15h-15v-15z"/><path d="M315 420v15h-15v-15z"/><path d="M285 255v15h-15v-15z"/><path d="M315 210v15h-15v-15z"/><path d="M420 300v15h-15v-15z"/><path d="M420 165v15h-15v-15z"/><path d="M405 150v15h-15v-15z"/><path d="M390 150v15h-15v-15z"/><path d="M390 165v15h-15v-15z"/><path d="M375 150v15h-15v-15z"/><path d="M375 165v15h-15v-15z"/><path d="M390 180v15h-15v-15z"/><path d="M405 195v15h-15v-15z"/><path d="M360 165v15h-15v-15z"/><path d="M360 180v15h-15v-15z"/><path d="M330 150v15h-15v-15z"/><path d="M330 165v15h-15v-15z"/><path d="M315 180v15h-15v-15z"/><path d="M300 180v15h-15v-15z"/><path d="M270 180v15h-15v-15z"/><path d="M270 195v15h-15v-15z"/><path d="M285 195v15h-15v-15z"/><path d="M240 210v15h-15v-15z"/><path d="M255 210v15h-15v-15z"/><path d="M255 240v15h-15v-15z"/><path d="M225 195v15h-15v-15z"/><path d="M240 195v15h-15v-15z"/><path d="M225 255v15h-15v-15z"/><path d="M225 240v15h-15v-15z"/><path d="M285 210v15h-15v-15z"/><path d="M315 135v15h-15v-15z"/><path d="M300 135v15h-15v-15z"/><path d="M255 135v15h-15v-15z"/><path d="M285 150v15h-15v-15z"/><path d="M270 150v15h-15v-15z"/><path d="M285 165v15h-15v-15z"/><path d="M270 165v15h-15v-15z"/><path d="M255 165v15h-15v-15z"/><path d="M240 165v15h-15v-15z"/><path d="M225 165v15h-15v-15z"/><path d="M210 165v15h-15v-15z"/><path d="M195 165v15h-15v-15z"/><path d="M195 180v15h-15v-15z"/><path d="M165 150v15h-15v-15z"/><path d="M180 165v15h-15v-15z"/><path d="M165 180v15h-15v-15z"/><path d="M150 165v15h-15v-15z"/><path d="M150 180v15h-15v-15z"/><path d="M315 150v15h-15v-15z"/><path d="M375 195v15h-15v-15z"/><path d="M375 210v15h-15v-15z"/><path d="M390 225v15h-15v-15z"/><path d="M360 225v15h-15v-15z"/><path d="M345 195v15h-15v-15z"/><path d="M300 105v15h-15v-15z"/><path d="M285 105v15h-15v-15z"/><path d="M285 120v15h-15v-15z"/><path d="M270 105v15h-15v-15z"/><path d="M255 90v15h-15V90z"/><path d="M240 105v15h-15v-15z"/><path d="M225 90v15h-15V90z"/><path d="M225 105v15h-15v-15z"/><path d="M210 105v15h-15v-15z"/><path d="M195 120v15h-15v-15z"/><path d="M195 135v15h-15v-15z"/><path d="M180 135v15h-15v-15z"/><path d="M165 135v15h-15v-15z"/><path d="M150 120v15h-15v-15z"/><path d="M150 135v15h-15v-15z"/><path d="M135 120v15h-15v-15z"/><path d="M135 135v15h-15v-15z"/><path d="M135 150v15h-15v-15z"/><path d="M120 150v15h-15v-15z"/><path d="M105 150v15H90v-15z"/><path d="M105 120v15H90v-15z"/><path d="M75 120v15H60v-15z"/><path d="M30 120v15H15v-15z"/><path d="M30 135v15H15v-15z"/><path d="M15 135v15H0v-15z"/><path d="M30 150v15H15v-15z"/><path d="M30 165v15H15v-15z"/><path d="M15 165v15H0v-15z"/><path d="M45 165v15H30v-15z"/><path d="M90 165v15H75v-15z"/><path d="M60 180v15H45v-15z"/><path d="M60 195v15H45v-15z"/><path d="M75 195v15H60v-15z"/><path d="M45 195v15H30v-15z"/><path d="M30 210v15H15v-15z"/><path d="M45 225v15H30v-15z"/><path d="M45 240v15H30v-15z"/><path d="M30 240v15H15v-15z"/><path d="M45 255v15H30v-15z"/><path d="M30 255v15H15v-15z"/><path d="M15 255v15H0v-15z"/><path d="M15 210v15H0v-15z"/><path d="M15 225v15H0v-15z"/><path d="M75 135v15H60v-15z"/><path d="M210 135v15h-15v-15z"/><path d="M195 90v15h-15V90z"/><path d="M225 120v15h-15v-15z"/><path d="M345 15v15h-15V15z"/><path d="M345 30v15h-15V30z"/><path d="M345 45v15h-15V45z"/><path d="M345 60v15h-15V60z"/><path d="M345 75v15h-15V75z"/><path d="M345 90v15h-15V90z"/><path d="M105 0v15H90V0z"/><path d="M90 0v15H75V0z"/><path d="M75 0v15H60V0z"/><path d="M60 0v15H45V0z"/><path d="M45 0v15H30V0z"/><path d="M90 90v15H75V90z"/><path d="M75 90v15H60V90z"/><path d="M60 90v15H45V90z"/><path d="M45 90v15H30V90z"/><path d="M105 15v15H90V15z"/><path d="M105 30v15H90V30z"/><path d="M75 30v15H60V30z"/><path d="M75 45v15H60V45z"/><path d="M75 60v15H60V60z"/><path d="M60 60v15H45V60z"/><path d="M60 45v15H45V45z"/><path d="M60 30v15H45V30z"/><path d="M45 60v15H30V60z"/><path d="M45 45v15H30V45z"/><path d="M45 30v15H30V30z"/><path d="M105 45v15H90V45z"/><path d="M105 60v15H90V60z"/><path d="M105 75v15H90V75z"/><path d="M105 90v15H90V90z"/><path d="M30 0v15H15V0z"/><path d="M30 90v15H15V90z"/><path d="M15 0v15H0V0z"/><path d="M15 15v15H0V15z"/><path d="M15 30v15H0V30z"/><path d="M15 45v15H0V45z"/><path d="M15 60v15H0V60z"/><path d="M15 75v15H0V75z"/><path d="M15 90v15H0V90z"/><path d="M105 330v15H90v-15z"/><path d="M90 330v15H75v-15z"/><path d="M75 330v15H60v-15z"/><path d="M60 330v15H45v-15z"/><path d="M45 330v15H30v-15z"/><path d="M90 420v15H75v-15z"/><path d="M75 420v15H60v-15z"/><path d="M60 420v15H45v-15z"/><path d="M45 420v15H30v-15z"/><path d="M105 345v15H90v-15z"/><path d="M105 360v15H90v-15z"/><path d="M75 360v15H60v-15z"/><path d="M75 375v15H60v-15z"/><path d="M75 390v15H60v-15z"/><path d="M60 390v15H45v-15z"/><path d="M60 375v15H45v-15z"/><path d="M60 360v15H45v-15z"/><path d="M45 390v15H30v-15z"/><path d="M45 375v15H30v-15z"/><path d="M45 360v15H30v-15z"/><path d="M105 375v15H90v-15z"/><path d="M105 390v15H90v-15z"/><path d="M105 405v15H90v-15z"/><path d="M105 420v15H90v-15z"/><path d="M30 330v15H15v-15z"/><path d="M30 420v15H15v-15z"/><path d="M15 330v15H0v-15z"/><path d="M15 345v15H0v-15z"/><path d="M15 360v15H0v-15z"/><path d="M15 375v15H0v-15z"/><path d="M15 390v15H0v-15z"/><path d="M15 405v15H0v-15z"/><path d="M15 420v15H0v-15z"/><path d="M315 510h15v15h-15z"/><path d="M285 510h15v15h-15z"/><path d="M285 555h15v15h-15z"/><path d="M300 570h15v15h-15z"/><path d="M390 495h15v15h-15z"/><path d="M360 495h15v15h-15z"/><path d="M330 495h15v15h-15z"/><path d="M405 480h15v15h-15z"/><path d="M390 480h15v15h-15z"/><path d="M390 525h15v15h-15z"/><path d="M375 540h15v15h-15z"/><path d="M375 480h15v15h-15z"/><path d="M345 480h15v15h-15z"/><path d="M330 480h15v15h-15z"/><path d="M315 480h15v15h-15z"/><path d="M300 480h15v15h-15z"/><path d="M255 495h15v15h-15z"/><path d="M405 465h15v15h-15z"/><path d="M390 465h15v15h-15z"/><path d="M375 465h15v15h-15z"/><path d="M360 465h15v15h-15z"/><path d="M330 465h15v15h-15z"/><path d="M315 465h15v15h-15z"/><path d="M285 465h15v15h-15z"/><path d="M405 450h15v15h-15z"/><path d="M390 450h15v15h-15z"/><path d="M375 450h15v15h-15z"/><path d="M360 450h15v15h-15z"/><path d="M345 450h15v15h-15z"/><path d="M315 450h15v15h-15z"/><path d="M270 465h15v15h-15z"/><path d="M270 450h15v15h-15z"/><path d="M405 435h15v15h-15z"/><path d="M390 435h15v15h-15z"/><path d="M375 435h15v15h-15z"/><path d="M360 435h15v15h-15z"/><path d="M345 435h15v15h-15z"/><path d="M330 435h15v15h-15z"/><path d="M315 435h15v15h-15z"/><path d="M300 435h15v15h-15z"/><path d="M285 435h15v15h-15z"/><path d="M210 555h15v15h-15z"/><path d="M195 555h15v15h-15z"/><path d="M210 540h15v15h-15z"/><path d="M165 540h15v15h-15z"/><path d="M135 540h15v15h-15z"/><path d="M120 555h15v15h-15z"/><path d="M120 540h15v15h-15z"/><path d="M105 525h15v15h-15z"/><path d="M90 540h15v15H90z"/><path d="M225 525h15v15h-15z"/><path d="M180 525h15v15h-15z"/><path d="M165 525h15v15h-15z"/><path d="M135 525h15v15h-15z"/><path d="M180 510h15v15h-15z"/><path d="M165 510h15v15h-15z"/><path d="M150 510h15v15h-15z"/><path d="M135 510h15v15h-15z"/><path d="M120 510h15v15h-15z"/><path d="M105 510h15v15h-15z"/><path d="M90 510h15v15H90z"/><path d="M210 495h15v15h-15z"/><path d="M180 495h15v15h-15z"/><path d="M225 495h15v15h-15z"/><path d="M210 510h15v15h-15z"/><path d="M60 480h15v15H60z"/><path d="M30 495h15v15H30z"/><path d="M0 495h15v15H0z"/><path d="M0 510h15v15H0z"/><path d="M15 525h15v15H15z"/><path d="M45 480h15v15H45z"/><path d="M60 465h15v15H60z"/><path d="M75 450h15v15H75z"/><path d="M60 435h15v15H60z"/><path d="M195 480h15v15h-15z"/><path d="M180 480h15v15h-15z"/><path d="M150 480h15v15h-15z"/><path d="M135 480h15v15h-15z"/><path d="M120 480h15v15h-15z"/><path d="M90 495h15v15H90z"/><path d="M225 465h15v15h-15z"/><path d="M180 465h15v15h-15z"/><path d="M120 465h15v15h-15z"/><path d="M195 450h15v15h-15z"/><path d="M150 450h15v15h-15z"/><path d="M150 465h15v15h-15z"/><path d="M135 450h15v15h-15z"/><path d="M120 450h15v15h-15z"/><path d="M90 450h15v15H90z"/><path d="M225 435h15v15h-15z"/><path d="M195 435h15v15h-15z"/><path d="M90 435h15v15H90z"/><path d="M1320 1335h15v15h-15z"/><path d="M1245 1320h15v15h-15z"/><path d="M1200 1305h15v15h-15z"/><path d="M1320 1275h15v15h-15z"/><path d="M1320 1260h15v15h-15z"/><path d="M1380 1290h15v15h-15z"/><path d="M1365 1260h15v15h-15z"/><path d="M1425 1245h15v15h-15z"/><path d="M1365 1215h15v15h-15z"/></g></svg>